G04 #@! TF.GenerationSoftware,KiCad,Pcbnew,5.1.5+dfsg1-2build2*
G04 #@! TF.CreationDate,2021-09-30T13:46:44+00:00*
G04 #@! TF.ProjectId,mcp2221a-breakout-panel,6d637032-3232-4316-912d-627265616b6f,rev?*
G04 #@! TF.SameCoordinates,Original*
G04 #@! TF.FileFunction,Legend,Top*
G04 #@! TF.FilePolarity,Positive*
%FSLAX46Y46*%
G04 Gerber Fmt 4.6, Leading zero omitted, Abs format (unit mm)*
G04 Created by KiCad (PCBNEW 5.1.5+dfsg1-2build2) date 2021-09-30 13:46:44*
%MOMM*%
%LPD*%
G04 APERTURE LIST*
%ADD10C,0.120000*%
%ADD11C,0.150000*%
G04 APERTURE END LIST*
D10*
G04 #@! TO.C,C1*
X102770012Y-96291595D02*
X102770012Y-96010435D01*
X101750012Y-96291595D02*
X101750012Y-96010435D01*
G04 #@! TO.C,C2*
X97690012Y-96304595D02*
X97690012Y-96023435D01*
X96670012Y-96304595D02*
X96670012Y-96023435D01*
G04 #@! TO.C,C3*
X94653592Y-97940015D02*
X94372432Y-97940015D01*
X94653592Y-98960015D02*
X94372432Y-98960015D01*
G04 #@! TO.C,C4*
X104976932Y-102008015D02*
X105258092Y-102008015D01*
X104976932Y-100988015D02*
X105258092Y-100988015D01*
G04 #@! TO.C,D1*
X94188012Y-94225015D02*
X94188012Y-96910015D01*
X96108012Y-94225015D02*
X94188012Y-94225015D01*
X96108012Y-96910015D02*
X96108012Y-94225015D01*
G04 #@! TO.C,J1*
X101420012Y-93142515D02*
X101420012Y-92692515D01*
X101420012Y-93142515D02*
X100970012Y-93142515D01*
X95820012Y-92592515D02*
X96270012Y-92592515D01*
X95820012Y-90742515D02*
X95820012Y-92592515D01*
X103620012Y-88192515D02*
X103620012Y-88442515D01*
X95820012Y-88192515D02*
X95820012Y-88442515D01*
X103620012Y-90742515D02*
X103620012Y-92592515D01*
X103620012Y-92592515D02*
X103170012Y-92592515D01*
G04 #@! TO.C,R1*
X93892512Y-96020273D02*
X93892512Y-95545757D01*
X92847512Y-96020273D02*
X92847512Y-95545757D01*
G04 #@! TO.C,R2*
X93609512Y-101704757D02*
X93609512Y-102179273D01*
X94654512Y-101704757D02*
X94654512Y-102179273D01*
G04 #@! TO.C,R3*
X93609512Y-106785757D02*
X93609512Y-107260273D01*
X94654512Y-106785757D02*
X94654512Y-107260273D01*
G04 #@! TO.C,R4*
X105576512Y-108085273D02*
X105576512Y-107610757D01*
X104531512Y-108085273D02*
X104531512Y-107610757D01*
G04 #@! TO.C,U2*
X99720012Y-97825015D02*
X96270012Y-97825015D01*
X99720012Y-97825015D02*
X101670012Y-97825015D01*
X99720012Y-106695015D02*
X97770012Y-106695015D01*
X99720012Y-106695015D02*
X101670012Y-106695015D01*
G04 #@! TO.C,D2*
X98307012Y-106888015D02*
X95622012Y-106888015D01*
X95622012Y-106888015D02*
X95622012Y-108808015D01*
X95622012Y-108808015D02*
X98307012Y-108808015D01*
G04 #@! TO.C,D3*
X101006012Y-108808015D02*
X103691012Y-108808015D01*
X103691012Y-108808015D02*
X103691012Y-106888015D01*
X103691012Y-106888015D02*
X101006012Y-106888015D01*
G04 #@! TO.C,R5*
X105420512Y-103957273D02*
X105420512Y-103482757D01*
X106465512Y-103957273D02*
X106465512Y-103482757D01*
G04 #@! TO.C,R6*
X103769512Y-103957273D02*
X103769512Y-103482757D01*
X104814512Y-103957273D02*
X104814512Y-103482757D01*
G04 #@! TO.C,U1*
X101300012Y-95150015D02*
X101300012Y-96610015D01*
X98140012Y-95150015D02*
X98140012Y-97310015D01*
X98140012Y-95150015D02*
X99070012Y-95150015D01*
X101300012Y-95150015D02*
X100370012Y-95150015D01*
G04 #@! TO.C,C1*
X77910005Y-96291595D02*
X77910005Y-96010435D01*
X76890005Y-96291595D02*
X76890005Y-96010435D01*
G04 #@! TO.C,C2*
X72830005Y-96304595D02*
X72830005Y-96023435D01*
X71810005Y-96304595D02*
X71810005Y-96023435D01*
G04 #@! TO.C,C3*
X69793585Y-97940015D02*
X69512425Y-97940015D01*
X69793585Y-98960015D02*
X69512425Y-98960015D01*
G04 #@! TO.C,C4*
X80116925Y-102008015D02*
X80398085Y-102008015D01*
X80116925Y-100988015D02*
X80398085Y-100988015D01*
G04 #@! TO.C,D1*
X69328005Y-94225015D02*
X69328005Y-96910015D01*
X71248005Y-94225015D02*
X69328005Y-94225015D01*
X71248005Y-96910015D02*
X71248005Y-94225015D01*
G04 #@! TO.C,J1*
X76560005Y-93142515D02*
X76560005Y-92692515D01*
X76560005Y-93142515D02*
X76110005Y-93142515D01*
X70960005Y-92592515D02*
X71410005Y-92592515D01*
X70960005Y-90742515D02*
X70960005Y-92592515D01*
X78760005Y-88192515D02*
X78760005Y-88442515D01*
X70960005Y-88192515D02*
X70960005Y-88442515D01*
X78760005Y-90742515D02*
X78760005Y-92592515D01*
X78760005Y-92592515D02*
X78310005Y-92592515D01*
G04 #@! TO.C,R1*
X69032505Y-96020273D02*
X69032505Y-95545757D01*
X67987505Y-96020273D02*
X67987505Y-95545757D01*
G04 #@! TO.C,R2*
X68749505Y-101704757D02*
X68749505Y-102179273D01*
X69794505Y-101704757D02*
X69794505Y-102179273D01*
G04 #@! TO.C,R3*
X68749505Y-106785757D02*
X68749505Y-107260273D01*
X69794505Y-106785757D02*
X69794505Y-107260273D01*
G04 #@! TO.C,R4*
X80716505Y-108085273D02*
X80716505Y-107610757D01*
X79671505Y-108085273D02*
X79671505Y-107610757D01*
G04 #@! TO.C,U2*
X74860005Y-97825015D02*
X71410005Y-97825015D01*
X74860005Y-97825015D02*
X76810005Y-97825015D01*
X74860005Y-106695015D02*
X72910005Y-106695015D01*
X74860005Y-106695015D02*
X76810005Y-106695015D01*
G04 #@! TO.C,D2*
X73447005Y-106888015D02*
X70762005Y-106888015D01*
X70762005Y-106888015D02*
X70762005Y-108808015D01*
X70762005Y-108808015D02*
X73447005Y-108808015D01*
G04 #@! TO.C,D3*
X76146005Y-108808015D02*
X78831005Y-108808015D01*
X78831005Y-108808015D02*
X78831005Y-106888015D01*
X78831005Y-106888015D02*
X76146005Y-106888015D01*
G04 #@! TO.C,R5*
X80560505Y-103957273D02*
X80560505Y-103482757D01*
X81605505Y-103957273D02*
X81605505Y-103482757D01*
G04 #@! TO.C,R6*
X78909505Y-103957273D02*
X78909505Y-103482757D01*
X79954505Y-103957273D02*
X79954505Y-103482757D01*
G04 #@! TO.C,U1*
X76440005Y-95150015D02*
X76440005Y-96610015D01*
X73280005Y-95150015D02*
X73280005Y-97310015D01*
X73280005Y-95150015D02*
X74210005Y-95150015D01*
X76440005Y-95150015D02*
X75510005Y-95150015D01*
G04 #@! TO.C,C1*
X53049998Y-96291595D02*
X53049998Y-96010435D01*
X52029998Y-96291595D02*
X52029998Y-96010435D01*
G04 #@! TO.C,C2*
X47969998Y-96304595D02*
X47969998Y-96023435D01*
X46949998Y-96304595D02*
X46949998Y-96023435D01*
G04 #@! TO.C,C3*
X44933578Y-97940015D02*
X44652418Y-97940015D01*
X44933578Y-98960015D02*
X44652418Y-98960015D01*
G04 #@! TO.C,C4*
X55256918Y-102008015D02*
X55538078Y-102008015D01*
X55256918Y-100988015D02*
X55538078Y-100988015D01*
G04 #@! TO.C,D1*
X44467998Y-94225015D02*
X44467998Y-96910015D01*
X46387998Y-94225015D02*
X44467998Y-94225015D01*
X46387998Y-96910015D02*
X46387998Y-94225015D01*
G04 #@! TO.C,J1*
X51699998Y-93142515D02*
X51699998Y-92692515D01*
X51699998Y-93142515D02*
X51249998Y-93142515D01*
X46099998Y-92592515D02*
X46549998Y-92592515D01*
X46099998Y-90742515D02*
X46099998Y-92592515D01*
X53899998Y-88192515D02*
X53899998Y-88442515D01*
X46099998Y-88192515D02*
X46099998Y-88442515D01*
X53899998Y-90742515D02*
X53899998Y-92592515D01*
X53899998Y-92592515D02*
X53449998Y-92592515D01*
G04 #@! TO.C,R1*
X44172498Y-96020273D02*
X44172498Y-95545757D01*
X43127498Y-96020273D02*
X43127498Y-95545757D01*
G04 #@! TO.C,R2*
X43889498Y-101704757D02*
X43889498Y-102179273D01*
X44934498Y-101704757D02*
X44934498Y-102179273D01*
G04 #@! TO.C,R3*
X43889498Y-106785757D02*
X43889498Y-107260273D01*
X44934498Y-106785757D02*
X44934498Y-107260273D01*
G04 #@! TO.C,R4*
X55856498Y-108085273D02*
X55856498Y-107610757D01*
X54811498Y-108085273D02*
X54811498Y-107610757D01*
G04 #@! TO.C,U2*
X49999998Y-97825015D02*
X46549998Y-97825015D01*
X49999998Y-97825015D02*
X51949998Y-97825015D01*
X49999998Y-106695015D02*
X48049998Y-106695015D01*
X49999998Y-106695015D02*
X51949998Y-106695015D01*
G04 #@! TO.C,D2*
X48586998Y-106888015D02*
X45901998Y-106888015D01*
X45901998Y-106888015D02*
X45901998Y-108808015D01*
X45901998Y-108808015D02*
X48586998Y-108808015D01*
G04 #@! TO.C,D3*
X51285998Y-108808015D02*
X53970998Y-108808015D01*
X53970998Y-108808015D02*
X53970998Y-106888015D01*
X53970998Y-106888015D02*
X51285998Y-106888015D01*
G04 #@! TO.C,R5*
X55700498Y-103957273D02*
X55700498Y-103482757D01*
X56745498Y-103957273D02*
X56745498Y-103482757D01*
G04 #@! TO.C,R6*
X54049498Y-103957273D02*
X54049498Y-103482757D01*
X55094498Y-103957273D02*
X55094498Y-103482757D01*
G04 #@! TO.C,U1*
X51579998Y-95150015D02*
X51579998Y-96610015D01*
X48419998Y-95150015D02*
X48419998Y-97310015D01*
X48419998Y-95150015D02*
X49349998Y-95150015D01*
X51579998Y-95150015D02*
X50649998Y-95150015D01*
G04 #@! TO.C,C1*
X102770012Y-71431586D02*
X102770012Y-71150426D01*
X101750012Y-71431586D02*
X101750012Y-71150426D01*
G04 #@! TO.C,C2*
X97690012Y-71444586D02*
X97690012Y-71163426D01*
X96670012Y-71444586D02*
X96670012Y-71163426D01*
G04 #@! TO.C,C3*
X94653592Y-73080006D02*
X94372432Y-73080006D01*
X94653592Y-74100006D02*
X94372432Y-74100006D01*
G04 #@! TO.C,C4*
X104976932Y-77148006D02*
X105258092Y-77148006D01*
X104976932Y-76128006D02*
X105258092Y-76128006D01*
G04 #@! TO.C,D1*
X94188012Y-69365006D02*
X94188012Y-72050006D01*
X96108012Y-69365006D02*
X94188012Y-69365006D01*
X96108012Y-72050006D02*
X96108012Y-69365006D01*
G04 #@! TO.C,J1*
X101420012Y-68282506D02*
X101420012Y-67832506D01*
X101420012Y-68282506D02*
X100970012Y-68282506D01*
X95820012Y-67732506D02*
X96270012Y-67732506D01*
X95820012Y-65882506D02*
X95820012Y-67732506D01*
X103620012Y-63332506D02*
X103620012Y-63582506D01*
X95820012Y-63332506D02*
X95820012Y-63582506D01*
X103620012Y-65882506D02*
X103620012Y-67732506D01*
X103620012Y-67732506D02*
X103170012Y-67732506D01*
G04 #@! TO.C,R1*
X93892512Y-71160264D02*
X93892512Y-70685748D01*
X92847512Y-71160264D02*
X92847512Y-70685748D01*
G04 #@! TO.C,R2*
X93609512Y-76844748D02*
X93609512Y-77319264D01*
X94654512Y-76844748D02*
X94654512Y-77319264D01*
G04 #@! TO.C,R3*
X93609512Y-81925748D02*
X93609512Y-82400264D01*
X94654512Y-81925748D02*
X94654512Y-82400264D01*
G04 #@! TO.C,R4*
X105576512Y-83225264D02*
X105576512Y-82750748D01*
X104531512Y-83225264D02*
X104531512Y-82750748D01*
G04 #@! TO.C,U2*
X99720012Y-72965006D02*
X96270012Y-72965006D01*
X99720012Y-72965006D02*
X101670012Y-72965006D01*
X99720012Y-81835006D02*
X97770012Y-81835006D01*
X99720012Y-81835006D02*
X101670012Y-81835006D01*
G04 #@! TO.C,D2*
X98307012Y-82028006D02*
X95622012Y-82028006D01*
X95622012Y-82028006D02*
X95622012Y-83948006D01*
X95622012Y-83948006D02*
X98307012Y-83948006D01*
G04 #@! TO.C,D3*
X101006012Y-83948006D02*
X103691012Y-83948006D01*
X103691012Y-83948006D02*
X103691012Y-82028006D01*
X103691012Y-82028006D02*
X101006012Y-82028006D01*
G04 #@! TO.C,R5*
X105420512Y-79097264D02*
X105420512Y-78622748D01*
X106465512Y-79097264D02*
X106465512Y-78622748D01*
G04 #@! TO.C,R6*
X103769512Y-79097264D02*
X103769512Y-78622748D01*
X104814512Y-79097264D02*
X104814512Y-78622748D01*
G04 #@! TO.C,U1*
X101300012Y-70290006D02*
X101300012Y-71750006D01*
X98140012Y-70290006D02*
X98140012Y-72450006D01*
X98140012Y-70290006D02*
X99070012Y-70290006D01*
X101300012Y-70290006D02*
X100370012Y-70290006D01*
G04 #@! TO.C,C1*
X77910005Y-71431586D02*
X77910005Y-71150426D01*
X76890005Y-71431586D02*
X76890005Y-71150426D01*
G04 #@! TO.C,C2*
X72830005Y-71444586D02*
X72830005Y-71163426D01*
X71810005Y-71444586D02*
X71810005Y-71163426D01*
G04 #@! TO.C,C3*
X69793585Y-73080006D02*
X69512425Y-73080006D01*
X69793585Y-74100006D02*
X69512425Y-74100006D01*
G04 #@! TO.C,C4*
X80116925Y-77148006D02*
X80398085Y-77148006D01*
X80116925Y-76128006D02*
X80398085Y-76128006D01*
G04 #@! TO.C,D1*
X69328005Y-69365006D02*
X69328005Y-72050006D01*
X71248005Y-69365006D02*
X69328005Y-69365006D01*
X71248005Y-72050006D02*
X71248005Y-69365006D01*
G04 #@! TO.C,J1*
X76560005Y-68282506D02*
X76560005Y-67832506D01*
X76560005Y-68282506D02*
X76110005Y-68282506D01*
X70960005Y-67732506D02*
X71410005Y-67732506D01*
X70960005Y-65882506D02*
X70960005Y-67732506D01*
X78760005Y-63332506D02*
X78760005Y-63582506D01*
X70960005Y-63332506D02*
X70960005Y-63582506D01*
X78760005Y-65882506D02*
X78760005Y-67732506D01*
X78760005Y-67732506D02*
X78310005Y-67732506D01*
G04 #@! TO.C,R1*
X69032505Y-71160264D02*
X69032505Y-70685748D01*
X67987505Y-71160264D02*
X67987505Y-70685748D01*
G04 #@! TO.C,R2*
X68749505Y-76844748D02*
X68749505Y-77319264D01*
X69794505Y-76844748D02*
X69794505Y-77319264D01*
G04 #@! TO.C,R3*
X68749505Y-81925748D02*
X68749505Y-82400264D01*
X69794505Y-81925748D02*
X69794505Y-82400264D01*
G04 #@! TO.C,R4*
X80716505Y-83225264D02*
X80716505Y-82750748D01*
X79671505Y-83225264D02*
X79671505Y-82750748D01*
G04 #@! TO.C,U2*
X74860005Y-72965006D02*
X71410005Y-72965006D01*
X74860005Y-72965006D02*
X76810005Y-72965006D01*
X74860005Y-81835006D02*
X72910005Y-81835006D01*
X74860005Y-81835006D02*
X76810005Y-81835006D01*
G04 #@! TO.C,D2*
X73447005Y-82028006D02*
X70762005Y-82028006D01*
X70762005Y-82028006D02*
X70762005Y-83948006D01*
X70762005Y-83948006D02*
X73447005Y-83948006D01*
G04 #@! TO.C,D3*
X76146005Y-83948006D02*
X78831005Y-83948006D01*
X78831005Y-83948006D02*
X78831005Y-82028006D01*
X78831005Y-82028006D02*
X76146005Y-82028006D01*
G04 #@! TO.C,R5*
X80560505Y-79097264D02*
X80560505Y-78622748D01*
X81605505Y-79097264D02*
X81605505Y-78622748D01*
G04 #@! TO.C,R6*
X78909505Y-79097264D02*
X78909505Y-78622748D01*
X79954505Y-79097264D02*
X79954505Y-78622748D01*
G04 #@! TO.C,U1*
X76440005Y-70290006D02*
X76440005Y-71750006D01*
X73280005Y-70290006D02*
X73280005Y-72450006D01*
X73280005Y-70290006D02*
X74210005Y-70290006D01*
X76440005Y-70290006D02*
X75510005Y-70290006D01*
G04 #@! TO.C,C1*
X53049998Y-71431586D02*
X53049998Y-71150426D01*
X52029998Y-71431586D02*
X52029998Y-71150426D01*
G04 #@! TO.C,C2*
X47969998Y-71444586D02*
X47969998Y-71163426D01*
X46949998Y-71444586D02*
X46949998Y-71163426D01*
G04 #@! TO.C,C3*
X44933578Y-73080006D02*
X44652418Y-73080006D01*
X44933578Y-74100006D02*
X44652418Y-74100006D01*
G04 #@! TO.C,C4*
X55256918Y-77148006D02*
X55538078Y-77148006D01*
X55256918Y-76128006D02*
X55538078Y-76128006D01*
G04 #@! TO.C,D1*
X44467998Y-69365006D02*
X44467998Y-72050006D01*
X46387998Y-69365006D02*
X44467998Y-69365006D01*
X46387998Y-72050006D02*
X46387998Y-69365006D01*
G04 #@! TO.C,J1*
X51699998Y-68282506D02*
X51699998Y-67832506D01*
X51699998Y-68282506D02*
X51249998Y-68282506D01*
X46099998Y-67732506D02*
X46549998Y-67732506D01*
X46099998Y-65882506D02*
X46099998Y-67732506D01*
X53899998Y-63332506D02*
X53899998Y-63582506D01*
X46099998Y-63332506D02*
X46099998Y-63582506D01*
X53899998Y-65882506D02*
X53899998Y-67732506D01*
X53899998Y-67732506D02*
X53449998Y-67732506D01*
G04 #@! TO.C,R1*
X44172498Y-71160264D02*
X44172498Y-70685748D01*
X43127498Y-71160264D02*
X43127498Y-70685748D01*
G04 #@! TO.C,R2*
X43889498Y-76844748D02*
X43889498Y-77319264D01*
X44934498Y-76844748D02*
X44934498Y-77319264D01*
G04 #@! TO.C,R3*
X43889498Y-81925748D02*
X43889498Y-82400264D01*
X44934498Y-81925748D02*
X44934498Y-82400264D01*
G04 #@! TO.C,R4*
X55856498Y-83225264D02*
X55856498Y-82750748D01*
X54811498Y-83225264D02*
X54811498Y-82750748D01*
G04 #@! TO.C,U2*
X49999998Y-72965006D02*
X46549998Y-72965006D01*
X49999998Y-72965006D02*
X51949998Y-72965006D01*
X49999998Y-81835006D02*
X48049998Y-81835006D01*
X49999998Y-81835006D02*
X51949998Y-81835006D01*
G04 #@! TO.C,D2*
X48586998Y-82028006D02*
X45901998Y-82028006D01*
X45901998Y-82028006D02*
X45901998Y-83948006D01*
X45901998Y-83948006D02*
X48586998Y-83948006D01*
G04 #@! TO.C,D3*
X51285998Y-83948006D02*
X53970998Y-83948006D01*
X53970998Y-83948006D02*
X53970998Y-82028006D01*
X53970998Y-82028006D02*
X51285998Y-82028006D01*
G04 #@! TO.C,R5*
X55700498Y-79097264D02*
X55700498Y-78622748D01*
X56745498Y-79097264D02*
X56745498Y-78622748D01*
G04 #@! TO.C,R6*
X54049498Y-79097264D02*
X54049498Y-78622748D01*
X55094498Y-79097264D02*
X55094498Y-78622748D01*
G04 #@! TO.C,U1*
X51579998Y-70290006D02*
X51579998Y-71750006D01*
X48419998Y-70290006D02*
X48419998Y-72450006D01*
X48419998Y-70290006D02*
X49349998Y-70290006D01*
X51579998Y-70290006D02*
X50649998Y-70290006D01*
G04 #@! TO.C,C1*
X102770012Y-46571577D02*
X102770012Y-46290417D01*
X101750012Y-46571577D02*
X101750012Y-46290417D01*
G04 #@! TO.C,C2*
X97690012Y-46584577D02*
X97690012Y-46303417D01*
X96670012Y-46584577D02*
X96670012Y-46303417D01*
G04 #@! TO.C,C3*
X94653592Y-48219997D02*
X94372432Y-48219997D01*
X94653592Y-49239997D02*
X94372432Y-49239997D01*
G04 #@! TO.C,C4*
X104976932Y-52287997D02*
X105258092Y-52287997D01*
X104976932Y-51267997D02*
X105258092Y-51267997D01*
G04 #@! TO.C,D1*
X94188012Y-44504997D02*
X94188012Y-47189997D01*
X96108012Y-44504997D02*
X94188012Y-44504997D01*
X96108012Y-47189997D02*
X96108012Y-44504997D01*
G04 #@! TO.C,J1*
X101420012Y-43422497D02*
X101420012Y-42972497D01*
X101420012Y-43422497D02*
X100970012Y-43422497D01*
X95820012Y-42872497D02*
X96270012Y-42872497D01*
X95820012Y-41022497D02*
X95820012Y-42872497D01*
X103620012Y-38472497D02*
X103620012Y-38722497D01*
X95820012Y-38472497D02*
X95820012Y-38722497D01*
X103620012Y-41022497D02*
X103620012Y-42872497D01*
X103620012Y-42872497D02*
X103170012Y-42872497D01*
G04 #@! TO.C,R1*
X93892512Y-46300255D02*
X93892512Y-45825739D01*
X92847512Y-46300255D02*
X92847512Y-45825739D01*
G04 #@! TO.C,R2*
X93609512Y-51984739D02*
X93609512Y-52459255D01*
X94654512Y-51984739D02*
X94654512Y-52459255D01*
G04 #@! TO.C,R3*
X93609512Y-57065739D02*
X93609512Y-57540255D01*
X94654512Y-57065739D02*
X94654512Y-57540255D01*
G04 #@! TO.C,R4*
X105576512Y-58365255D02*
X105576512Y-57890739D01*
X104531512Y-58365255D02*
X104531512Y-57890739D01*
G04 #@! TO.C,U2*
X99720012Y-48104997D02*
X96270012Y-48104997D01*
X99720012Y-48104997D02*
X101670012Y-48104997D01*
X99720012Y-56974997D02*
X97770012Y-56974997D01*
X99720012Y-56974997D02*
X101670012Y-56974997D01*
G04 #@! TO.C,D2*
X98307012Y-57167997D02*
X95622012Y-57167997D01*
X95622012Y-57167997D02*
X95622012Y-59087997D01*
X95622012Y-59087997D02*
X98307012Y-59087997D01*
G04 #@! TO.C,D3*
X101006012Y-59087997D02*
X103691012Y-59087997D01*
X103691012Y-59087997D02*
X103691012Y-57167997D01*
X103691012Y-57167997D02*
X101006012Y-57167997D01*
G04 #@! TO.C,R5*
X105420512Y-54237255D02*
X105420512Y-53762739D01*
X106465512Y-54237255D02*
X106465512Y-53762739D01*
G04 #@! TO.C,R6*
X103769512Y-54237255D02*
X103769512Y-53762739D01*
X104814512Y-54237255D02*
X104814512Y-53762739D01*
G04 #@! TO.C,U1*
X101300012Y-45429997D02*
X101300012Y-46889997D01*
X98140012Y-45429997D02*
X98140012Y-47589997D01*
X98140012Y-45429997D02*
X99070012Y-45429997D01*
X101300012Y-45429997D02*
X100370012Y-45429997D01*
G04 #@! TO.C,C1*
X77910005Y-46571577D02*
X77910005Y-46290417D01*
X76890005Y-46571577D02*
X76890005Y-46290417D01*
G04 #@! TO.C,C2*
X72830005Y-46584577D02*
X72830005Y-46303417D01*
X71810005Y-46584577D02*
X71810005Y-46303417D01*
G04 #@! TO.C,C3*
X69793585Y-48219997D02*
X69512425Y-48219997D01*
X69793585Y-49239997D02*
X69512425Y-49239997D01*
G04 #@! TO.C,C4*
X80116925Y-52287997D02*
X80398085Y-52287997D01*
X80116925Y-51267997D02*
X80398085Y-51267997D01*
G04 #@! TO.C,D1*
X69328005Y-44504997D02*
X69328005Y-47189997D01*
X71248005Y-44504997D02*
X69328005Y-44504997D01*
X71248005Y-47189997D02*
X71248005Y-44504997D01*
G04 #@! TO.C,J1*
X76560005Y-43422497D02*
X76560005Y-42972497D01*
X76560005Y-43422497D02*
X76110005Y-43422497D01*
X70960005Y-42872497D02*
X71410005Y-42872497D01*
X70960005Y-41022497D02*
X70960005Y-42872497D01*
X78760005Y-38472497D02*
X78760005Y-38722497D01*
X70960005Y-38472497D02*
X70960005Y-38722497D01*
X78760005Y-41022497D02*
X78760005Y-42872497D01*
X78760005Y-42872497D02*
X78310005Y-42872497D01*
G04 #@! TO.C,R1*
X69032505Y-46300255D02*
X69032505Y-45825739D01*
X67987505Y-46300255D02*
X67987505Y-45825739D01*
G04 #@! TO.C,R2*
X68749505Y-51984739D02*
X68749505Y-52459255D01*
X69794505Y-51984739D02*
X69794505Y-52459255D01*
G04 #@! TO.C,R3*
X68749505Y-57065739D02*
X68749505Y-57540255D01*
X69794505Y-57065739D02*
X69794505Y-57540255D01*
G04 #@! TO.C,R4*
X80716505Y-58365255D02*
X80716505Y-57890739D01*
X79671505Y-58365255D02*
X79671505Y-57890739D01*
G04 #@! TO.C,U2*
X74860005Y-48104997D02*
X71410005Y-48104997D01*
X74860005Y-48104997D02*
X76810005Y-48104997D01*
X74860005Y-56974997D02*
X72910005Y-56974997D01*
X74860005Y-56974997D02*
X76810005Y-56974997D01*
G04 #@! TO.C,D2*
X73447005Y-57167997D02*
X70762005Y-57167997D01*
X70762005Y-57167997D02*
X70762005Y-59087997D01*
X70762005Y-59087997D02*
X73447005Y-59087997D01*
G04 #@! TO.C,D3*
X76146005Y-59087997D02*
X78831005Y-59087997D01*
X78831005Y-59087997D02*
X78831005Y-57167997D01*
X78831005Y-57167997D02*
X76146005Y-57167997D01*
G04 #@! TO.C,R5*
X80560505Y-54237255D02*
X80560505Y-53762739D01*
X81605505Y-54237255D02*
X81605505Y-53762739D01*
G04 #@! TO.C,R6*
X78909505Y-54237255D02*
X78909505Y-53762739D01*
X79954505Y-54237255D02*
X79954505Y-53762739D01*
G04 #@! TO.C,U1*
X76440005Y-45429997D02*
X76440005Y-46889997D01*
X73280005Y-45429997D02*
X73280005Y-47589997D01*
X73280005Y-45429997D02*
X74210005Y-45429997D01*
X76440005Y-45429997D02*
X75510005Y-45429997D01*
G04 #@! TO.C,C1*
X53049998Y-46571577D02*
X53049998Y-46290417D01*
X52029998Y-46571577D02*
X52029998Y-46290417D01*
G04 #@! TO.C,C2*
X47969998Y-46584577D02*
X47969998Y-46303417D01*
X46949998Y-46584577D02*
X46949998Y-46303417D01*
G04 #@! TO.C,C3*
X44933578Y-48219997D02*
X44652418Y-48219997D01*
X44933578Y-49239997D02*
X44652418Y-49239997D01*
G04 #@! TO.C,C4*
X55256918Y-52287997D02*
X55538078Y-52287997D01*
X55256918Y-51267997D02*
X55538078Y-51267997D01*
G04 #@! TO.C,D1*
X44467998Y-44504997D02*
X44467998Y-47189997D01*
X46387998Y-44504997D02*
X44467998Y-44504997D01*
X46387998Y-47189997D02*
X46387998Y-44504997D01*
G04 #@! TO.C,J1*
X51699998Y-43422497D02*
X51699998Y-42972497D01*
X51699998Y-43422497D02*
X51249998Y-43422497D01*
X46099998Y-42872497D02*
X46549998Y-42872497D01*
X46099998Y-41022497D02*
X46099998Y-42872497D01*
X53899998Y-38472497D02*
X53899998Y-38722497D01*
X46099998Y-38472497D02*
X46099998Y-38722497D01*
X53899998Y-41022497D02*
X53899998Y-42872497D01*
X53899998Y-42872497D02*
X53449998Y-42872497D01*
G04 #@! TO.C,R1*
X44172498Y-46300255D02*
X44172498Y-45825739D01*
X43127498Y-46300255D02*
X43127498Y-45825739D01*
G04 #@! TO.C,R2*
X43889498Y-51984739D02*
X43889498Y-52459255D01*
X44934498Y-51984739D02*
X44934498Y-52459255D01*
G04 #@! TO.C,R3*
X43889498Y-57065739D02*
X43889498Y-57540255D01*
X44934498Y-57065739D02*
X44934498Y-57540255D01*
G04 #@! TO.C,R4*
X55856498Y-58365255D02*
X55856498Y-57890739D01*
X54811498Y-58365255D02*
X54811498Y-57890739D01*
G04 #@! TO.C,U2*
X49999998Y-48104997D02*
X46549998Y-48104997D01*
X49999998Y-48104997D02*
X51949998Y-48104997D01*
X49999998Y-56974997D02*
X48049998Y-56974997D01*
X49999998Y-56974997D02*
X51949998Y-56974997D01*
G04 #@! TO.C,D2*
X48586998Y-57167997D02*
X45901998Y-57167997D01*
X45901998Y-57167997D02*
X45901998Y-59087997D01*
X45901998Y-59087997D02*
X48586998Y-59087997D01*
G04 #@! TO.C,D3*
X51285998Y-59087997D02*
X53970998Y-59087997D01*
X53970998Y-59087997D02*
X53970998Y-57167997D01*
X53970998Y-57167997D02*
X51285998Y-57167997D01*
G04 #@! TO.C,R5*
X55700498Y-54237255D02*
X55700498Y-53762739D01*
X56745498Y-54237255D02*
X56745498Y-53762739D01*
G04 #@! TO.C,R6*
X54049498Y-54237255D02*
X54049498Y-53762739D01*
X55094498Y-54237255D02*
X55094498Y-53762739D01*
G04 #@! TO.C,U1*
X51579998Y-45429997D02*
X51579998Y-46889997D01*
X48419998Y-45429997D02*
X48419998Y-47589997D01*
X48419998Y-45429997D02*
X49349998Y-45429997D01*
X51579998Y-45429997D02*
X50649998Y-45429997D01*
G04 #@! TO.C,C1*
D11*
X102126678Y-94544729D02*
X102088583Y-94582824D01*
X101974297Y-94620919D01*
X101898107Y-94620919D01*
X101783821Y-94582824D01*
X101707631Y-94506634D01*
X101669535Y-94430443D01*
X101631440Y-94278062D01*
X101631440Y-94163776D01*
X101669535Y-94011395D01*
X101707631Y-93935205D01*
X101783821Y-93859015D01*
X101898107Y-93820919D01*
X101974297Y-93820919D01*
X102088583Y-93859015D01*
X102126678Y-93897110D01*
X102888583Y-94620919D02*
X102431440Y-94620919D01*
X102660012Y-94620919D02*
X102660012Y-93820919D01*
X102583821Y-93935205D01*
X102507631Y-94011395D01*
X102431440Y-94049491D01*
G04 #@! TO.C,C2*
X97046678Y-94544729D02*
X97008583Y-94582824D01*
X96894297Y-94620919D01*
X96818107Y-94620919D01*
X96703821Y-94582824D01*
X96627631Y-94506634D01*
X96589535Y-94430443D01*
X96551440Y-94278062D01*
X96551440Y-94163776D01*
X96589535Y-94011395D01*
X96627631Y-93935205D01*
X96703821Y-93859015D01*
X96818107Y-93820919D01*
X96894297Y-93820919D01*
X97008583Y-93859015D01*
X97046678Y-93897110D01*
X97351440Y-93897110D02*
X97389535Y-93859015D01*
X97465726Y-93820919D01*
X97656202Y-93820919D01*
X97732392Y-93859015D01*
X97770488Y-93897110D01*
X97808583Y-93973300D01*
X97808583Y-94049491D01*
X97770488Y-94163776D01*
X97313345Y-94620919D01*
X97808583Y-94620919D01*
G04 #@! TO.C,C3*
X94379678Y-100005729D02*
X94341583Y-100043824D01*
X94227297Y-100081919D01*
X94151107Y-100081919D01*
X94036821Y-100043824D01*
X93960631Y-99967634D01*
X93922535Y-99891443D01*
X93884440Y-99739062D01*
X93884440Y-99624776D01*
X93922535Y-99472395D01*
X93960631Y-99396205D01*
X94036821Y-99320015D01*
X94151107Y-99281919D01*
X94227297Y-99281919D01*
X94341583Y-99320015D01*
X94379678Y-99358110D01*
X94646345Y-99281919D02*
X95141583Y-99281919D01*
X94874916Y-99586681D01*
X94989202Y-99586681D01*
X95065392Y-99624776D01*
X95103488Y-99662872D01*
X95141583Y-99739062D01*
X95141583Y-99929538D01*
X95103488Y-100005729D01*
X95065392Y-100043824D01*
X94989202Y-100081919D01*
X94760631Y-100081919D01*
X94684440Y-100043824D01*
X94646345Y-100005729D01*
G04 #@! TO.C,C4*
X104984178Y-100640729D02*
X104946083Y-100678824D01*
X104831797Y-100716919D01*
X104755607Y-100716919D01*
X104641321Y-100678824D01*
X104565131Y-100602634D01*
X104527035Y-100526443D01*
X104488940Y-100374062D01*
X104488940Y-100259776D01*
X104527035Y-100107395D01*
X104565131Y-100031205D01*
X104641321Y-99955015D01*
X104755607Y-99916919D01*
X104831797Y-99916919D01*
X104946083Y-99955015D01*
X104984178Y-99993110D01*
X105669892Y-100183586D02*
X105669892Y-100716919D01*
X105479416Y-99878824D02*
X105288940Y-100450253D01*
X105784178Y-100450253D01*
G04 #@! TO.C,D1*
X95600392Y-94068348D02*
X94600392Y-94068348D01*
X94600392Y-93687395D01*
X94648012Y-93592157D01*
X94695631Y-93544538D01*
X94790869Y-93496919D01*
X94933726Y-93496919D01*
X95028964Y-93544538D01*
X95076583Y-93592157D01*
X95124202Y-93687395D01*
X95124202Y-94068348D01*
X94600392Y-93163586D02*
X95600392Y-92925491D01*
X94886107Y-92735015D01*
X95600392Y-92544538D01*
X94600392Y-92306443D01*
X95600392Y-91354062D02*
X95124202Y-91687395D01*
X95600392Y-91925491D02*
X94600392Y-91925491D01*
X94600392Y-91544538D01*
X94648012Y-91449300D01*
X94695631Y-91401681D01*
X94790869Y-91354062D01*
X94933726Y-91354062D01*
X95028964Y-91401681D01*
X95076583Y-91449300D01*
X95124202Y-91544538D01*
X95124202Y-91925491D01*
G04 #@! TO.C,J1*
X104152345Y-91661919D02*
X104152345Y-92233348D01*
X104114250Y-92347634D01*
X104038059Y-92423824D01*
X103923773Y-92461919D01*
X103847583Y-92461919D01*
X104952345Y-92461919D02*
X104495202Y-92461919D01*
X104723773Y-92461919D02*
X104723773Y-91661919D01*
X104647583Y-91776205D01*
X104571392Y-91852395D01*
X104495202Y-91890491D01*
G04 #@! TO.C,R1*
X93236678Y-94239919D02*
X92970012Y-93858967D01*
X92779535Y-94239919D02*
X92779535Y-93439919D01*
X93084297Y-93439919D01*
X93160488Y-93478015D01*
X93198583Y-93516110D01*
X93236678Y-93592300D01*
X93236678Y-93706586D01*
X93198583Y-93782776D01*
X93160488Y-93820872D01*
X93084297Y-93858967D01*
X92779535Y-93858967D01*
X93998583Y-94239919D02*
X93541440Y-94239919D01*
X93770012Y-94239919D02*
X93770012Y-93439919D01*
X93693821Y-93554205D01*
X93617631Y-93630395D01*
X93541440Y-93668491D01*
G04 #@! TO.C,R2*
X93998678Y-104272919D02*
X93732012Y-103891967D01*
X93541535Y-104272919D02*
X93541535Y-103472919D01*
X93846297Y-103472919D01*
X93922488Y-103511015D01*
X93960583Y-103549110D01*
X93998678Y-103625300D01*
X93998678Y-103739586D01*
X93960583Y-103815776D01*
X93922488Y-103853872D01*
X93846297Y-103891967D01*
X93541535Y-103891967D01*
X94303440Y-103549110D02*
X94341535Y-103511015D01*
X94417726Y-103472919D01*
X94608202Y-103472919D01*
X94684392Y-103511015D01*
X94722488Y-103549110D01*
X94760583Y-103625300D01*
X94760583Y-103701491D01*
X94722488Y-103815776D01*
X94265345Y-104272919D01*
X94760583Y-104272919D01*
G04 #@! TO.C,R3*
X93998678Y-105479419D02*
X93732012Y-105098467D01*
X93541535Y-105479419D02*
X93541535Y-104679419D01*
X93846297Y-104679419D01*
X93922488Y-104717515D01*
X93960583Y-104755610D01*
X93998678Y-104831800D01*
X93998678Y-104946086D01*
X93960583Y-105022276D01*
X93922488Y-105060372D01*
X93846297Y-105098467D01*
X93541535Y-105098467D01*
X94265345Y-104679419D02*
X94760583Y-104679419D01*
X94493916Y-104984181D01*
X94608202Y-104984181D01*
X94684392Y-105022276D01*
X94722488Y-105060372D01*
X94760583Y-105136562D01*
X94760583Y-105327038D01*
X94722488Y-105403229D01*
X94684392Y-105441324D01*
X94608202Y-105479419D01*
X94379631Y-105479419D01*
X94303440Y-105441324D01*
X94265345Y-105403229D01*
G04 #@! TO.C,R4*
X104920678Y-110241919D02*
X104654012Y-109860967D01*
X104463535Y-110241919D02*
X104463535Y-109441919D01*
X104768297Y-109441919D01*
X104844488Y-109480015D01*
X104882583Y-109518110D01*
X104920678Y-109594300D01*
X104920678Y-109708586D01*
X104882583Y-109784776D01*
X104844488Y-109822872D01*
X104768297Y-109860967D01*
X104463535Y-109860967D01*
X105606392Y-109708586D02*
X105606392Y-110241919D01*
X105415916Y-109403824D02*
X105225440Y-109975253D01*
X105720678Y-109975253D01*
G04 #@! TO.C,U2*
X99110488Y-103091919D02*
X99110488Y-103739538D01*
X99148583Y-103815729D01*
X99186678Y-103853824D01*
X99262869Y-103891919D01*
X99415250Y-103891919D01*
X99491440Y-103853824D01*
X99529535Y-103815729D01*
X99567631Y-103739538D01*
X99567631Y-103091919D01*
X99910488Y-103168110D02*
X99948583Y-103130015D01*
X100024773Y-103091919D01*
X100215250Y-103091919D01*
X100291440Y-103130015D01*
X100329535Y-103168110D01*
X100367631Y-103244300D01*
X100367631Y-103320491D01*
X100329535Y-103434776D01*
X99872392Y-103891919D01*
X100367631Y-103891919D01*
G04 #@! TO.C,D2*
X96616535Y-109078395D02*
X97187964Y-109078395D01*
X96902250Y-110078395D02*
X96902250Y-109078395D01*
X97426059Y-110078395D02*
X97949869Y-109411729D01*
X97426059Y-109411729D02*
X97949869Y-110078395D01*
G04 #@! TO.C,D3*
X101910773Y-110078395D02*
X101577440Y-109602205D01*
X101339345Y-110078395D02*
X101339345Y-109078395D01*
X101720297Y-109078395D01*
X101815535Y-109126015D01*
X101863154Y-109173634D01*
X101910773Y-109268872D01*
X101910773Y-109411729D01*
X101863154Y-109506967D01*
X101815535Y-109554586D01*
X101720297Y-109602205D01*
X101339345Y-109602205D01*
X102244107Y-110078395D02*
X102767916Y-109411729D01*
X102244107Y-109411729D02*
X102767916Y-110078395D01*
G04 #@! TO.C,R5*
X105809678Y-106113919D02*
X105543012Y-105732967D01*
X105352535Y-106113919D02*
X105352535Y-105313919D01*
X105657297Y-105313919D01*
X105733488Y-105352015D01*
X105771583Y-105390110D01*
X105809678Y-105466300D01*
X105809678Y-105580586D01*
X105771583Y-105656776D01*
X105733488Y-105694872D01*
X105657297Y-105732967D01*
X105352535Y-105732967D01*
X106533488Y-105313919D02*
X106152535Y-105313919D01*
X106114440Y-105694872D01*
X106152535Y-105656776D01*
X106228726Y-105618681D01*
X106419202Y-105618681D01*
X106495392Y-105656776D01*
X106533488Y-105694872D01*
X106571583Y-105771062D01*
X106571583Y-105961538D01*
X106533488Y-106037729D01*
X106495392Y-106075824D01*
X106419202Y-106113919D01*
X106228726Y-106113919D01*
X106152535Y-106075824D01*
X106114440Y-106037729D01*
G04 #@! TO.C,R6*
X104158678Y-106113919D02*
X103892012Y-105732967D01*
X103701535Y-106113919D02*
X103701535Y-105313919D01*
X104006297Y-105313919D01*
X104082488Y-105352015D01*
X104120583Y-105390110D01*
X104158678Y-105466300D01*
X104158678Y-105580586D01*
X104120583Y-105656776D01*
X104082488Y-105694872D01*
X104006297Y-105732967D01*
X103701535Y-105732967D01*
X104844392Y-105313919D02*
X104692012Y-105313919D01*
X104615821Y-105352015D01*
X104577726Y-105390110D01*
X104501535Y-105504395D01*
X104463440Y-105656776D01*
X104463440Y-105961538D01*
X104501535Y-106037729D01*
X104539631Y-106075824D01*
X104615821Y-106113919D01*
X104768202Y-106113919D01*
X104844392Y-106075824D01*
X104882488Y-106037729D01*
X104920583Y-105961538D01*
X104920583Y-105771062D01*
X104882488Y-105694872D01*
X104844392Y-105656776D01*
X104768202Y-105618681D01*
X104615821Y-105618681D01*
X104539631Y-105656776D01*
X104501535Y-105694872D01*
X104463440Y-105771062D01*
G04 #@! TO.C,U1*
X99110488Y-93439919D02*
X99110488Y-94087538D01*
X99148583Y-94163729D01*
X99186678Y-94201824D01*
X99262869Y-94239919D01*
X99415250Y-94239919D01*
X99491440Y-94201824D01*
X99529535Y-94163729D01*
X99567631Y-94087538D01*
X99567631Y-93439919D01*
X100367631Y-94239919D02*
X99910488Y-94239919D01*
X100139059Y-94239919D02*
X100139059Y-93439919D01*
X100062869Y-93554205D01*
X99986678Y-93630395D01*
X99910488Y-93668491D01*
G04 #@! TO.C,C1*
X77266671Y-94544729D02*
X77228576Y-94582824D01*
X77114290Y-94620919D01*
X77038100Y-94620919D01*
X76923814Y-94582824D01*
X76847624Y-94506634D01*
X76809528Y-94430443D01*
X76771433Y-94278062D01*
X76771433Y-94163776D01*
X76809528Y-94011395D01*
X76847624Y-93935205D01*
X76923814Y-93859015D01*
X77038100Y-93820919D01*
X77114290Y-93820919D01*
X77228576Y-93859015D01*
X77266671Y-93897110D01*
X78028576Y-94620919D02*
X77571433Y-94620919D01*
X77800005Y-94620919D02*
X77800005Y-93820919D01*
X77723814Y-93935205D01*
X77647624Y-94011395D01*
X77571433Y-94049491D01*
G04 #@! TO.C,C2*
X72186671Y-94544729D02*
X72148576Y-94582824D01*
X72034290Y-94620919D01*
X71958100Y-94620919D01*
X71843814Y-94582824D01*
X71767624Y-94506634D01*
X71729528Y-94430443D01*
X71691433Y-94278062D01*
X71691433Y-94163776D01*
X71729528Y-94011395D01*
X71767624Y-93935205D01*
X71843814Y-93859015D01*
X71958100Y-93820919D01*
X72034290Y-93820919D01*
X72148576Y-93859015D01*
X72186671Y-93897110D01*
X72491433Y-93897110D02*
X72529528Y-93859015D01*
X72605719Y-93820919D01*
X72796195Y-93820919D01*
X72872385Y-93859015D01*
X72910481Y-93897110D01*
X72948576Y-93973300D01*
X72948576Y-94049491D01*
X72910481Y-94163776D01*
X72453338Y-94620919D01*
X72948576Y-94620919D01*
G04 #@! TO.C,C3*
X69519671Y-100005729D02*
X69481576Y-100043824D01*
X69367290Y-100081919D01*
X69291100Y-100081919D01*
X69176814Y-100043824D01*
X69100624Y-99967634D01*
X69062528Y-99891443D01*
X69024433Y-99739062D01*
X69024433Y-99624776D01*
X69062528Y-99472395D01*
X69100624Y-99396205D01*
X69176814Y-99320015D01*
X69291100Y-99281919D01*
X69367290Y-99281919D01*
X69481576Y-99320015D01*
X69519671Y-99358110D01*
X69786338Y-99281919D02*
X70281576Y-99281919D01*
X70014909Y-99586681D01*
X70129195Y-99586681D01*
X70205385Y-99624776D01*
X70243481Y-99662872D01*
X70281576Y-99739062D01*
X70281576Y-99929538D01*
X70243481Y-100005729D01*
X70205385Y-100043824D01*
X70129195Y-100081919D01*
X69900624Y-100081919D01*
X69824433Y-100043824D01*
X69786338Y-100005729D01*
G04 #@! TO.C,C4*
X80124171Y-100640729D02*
X80086076Y-100678824D01*
X79971790Y-100716919D01*
X79895600Y-100716919D01*
X79781314Y-100678824D01*
X79705124Y-100602634D01*
X79667028Y-100526443D01*
X79628933Y-100374062D01*
X79628933Y-100259776D01*
X79667028Y-100107395D01*
X79705124Y-100031205D01*
X79781314Y-99955015D01*
X79895600Y-99916919D01*
X79971790Y-99916919D01*
X80086076Y-99955015D01*
X80124171Y-99993110D01*
X80809885Y-100183586D02*
X80809885Y-100716919D01*
X80619409Y-99878824D02*
X80428933Y-100450253D01*
X80924171Y-100450253D01*
G04 #@! TO.C,D1*
X70740385Y-94068348D02*
X69740385Y-94068348D01*
X69740385Y-93687395D01*
X69788005Y-93592157D01*
X69835624Y-93544538D01*
X69930862Y-93496919D01*
X70073719Y-93496919D01*
X70168957Y-93544538D01*
X70216576Y-93592157D01*
X70264195Y-93687395D01*
X70264195Y-94068348D01*
X69740385Y-93163586D02*
X70740385Y-92925491D01*
X70026100Y-92735015D01*
X70740385Y-92544538D01*
X69740385Y-92306443D01*
X70740385Y-91354062D02*
X70264195Y-91687395D01*
X70740385Y-91925491D02*
X69740385Y-91925491D01*
X69740385Y-91544538D01*
X69788005Y-91449300D01*
X69835624Y-91401681D01*
X69930862Y-91354062D01*
X70073719Y-91354062D01*
X70168957Y-91401681D01*
X70216576Y-91449300D01*
X70264195Y-91544538D01*
X70264195Y-91925491D01*
G04 #@! TO.C,J1*
X79292338Y-91661919D02*
X79292338Y-92233348D01*
X79254243Y-92347634D01*
X79178052Y-92423824D01*
X79063766Y-92461919D01*
X78987576Y-92461919D01*
X80092338Y-92461919D02*
X79635195Y-92461919D01*
X79863766Y-92461919D02*
X79863766Y-91661919D01*
X79787576Y-91776205D01*
X79711385Y-91852395D01*
X79635195Y-91890491D01*
G04 #@! TO.C,R1*
X68376671Y-94239919D02*
X68110005Y-93858967D01*
X67919528Y-94239919D02*
X67919528Y-93439919D01*
X68224290Y-93439919D01*
X68300481Y-93478015D01*
X68338576Y-93516110D01*
X68376671Y-93592300D01*
X68376671Y-93706586D01*
X68338576Y-93782776D01*
X68300481Y-93820872D01*
X68224290Y-93858967D01*
X67919528Y-93858967D01*
X69138576Y-94239919D02*
X68681433Y-94239919D01*
X68910005Y-94239919D02*
X68910005Y-93439919D01*
X68833814Y-93554205D01*
X68757624Y-93630395D01*
X68681433Y-93668491D01*
G04 #@! TO.C,R2*
X69138671Y-104272919D02*
X68872005Y-103891967D01*
X68681528Y-104272919D02*
X68681528Y-103472919D01*
X68986290Y-103472919D01*
X69062481Y-103511015D01*
X69100576Y-103549110D01*
X69138671Y-103625300D01*
X69138671Y-103739586D01*
X69100576Y-103815776D01*
X69062481Y-103853872D01*
X68986290Y-103891967D01*
X68681528Y-103891967D01*
X69443433Y-103549110D02*
X69481528Y-103511015D01*
X69557719Y-103472919D01*
X69748195Y-103472919D01*
X69824385Y-103511015D01*
X69862481Y-103549110D01*
X69900576Y-103625300D01*
X69900576Y-103701491D01*
X69862481Y-103815776D01*
X69405338Y-104272919D01*
X69900576Y-104272919D01*
G04 #@! TO.C,R3*
X69138671Y-105479419D02*
X68872005Y-105098467D01*
X68681528Y-105479419D02*
X68681528Y-104679419D01*
X68986290Y-104679419D01*
X69062481Y-104717515D01*
X69100576Y-104755610D01*
X69138671Y-104831800D01*
X69138671Y-104946086D01*
X69100576Y-105022276D01*
X69062481Y-105060372D01*
X68986290Y-105098467D01*
X68681528Y-105098467D01*
X69405338Y-104679419D02*
X69900576Y-104679419D01*
X69633909Y-104984181D01*
X69748195Y-104984181D01*
X69824385Y-105022276D01*
X69862481Y-105060372D01*
X69900576Y-105136562D01*
X69900576Y-105327038D01*
X69862481Y-105403229D01*
X69824385Y-105441324D01*
X69748195Y-105479419D01*
X69519624Y-105479419D01*
X69443433Y-105441324D01*
X69405338Y-105403229D01*
G04 #@! TO.C,R4*
X80060671Y-110241919D02*
X79794005Y-109860967D01*
X79603528Y-110241919D02*
X79603528Y-109441919D01*
X79908290Y-109441919D01*
X79984481Y-109480015D01*
X80022576Y-109518110D01*
X80060671Y-109594300D01*
X80060671Y-109708586D01*
X80022576Y-109784776D01*
X79984481Y-109822872D01*
X79908290Y-109860967D01*
X79603528Y-109860967D01*
X80746385Y-109708586D02*
X80746385Y-110241919D01*
X80555909Y-109403824D02*
X80365433Y-109975253D01*
X80860671Y-109975253D01*
G04 #@! TO.C,U2*
X74250481Y-103091919D02*
X74250481Y-103739538D01*
X74288576Y-103815729D01*
X74326671Y-103853824D01*
X74402862Y-103891919D01*
X74555243Y-103891919D01*
X74631433Y-103853824D01*
X74669528Y-103815729D01*
X74707624Y-103739538D01*
X74707624Y-103091919D01*
X75050481Y-103168110D02*
X75088576Y-103130015D01*
X75164766Y-103091919D01*
X75355243Y-103091919D01*
X75431433Y-103130015D01*
X75469528Y-103168110D01*
X75507624Y-103244300D01*
X75507624Y-103320491D01*
X75469528Y-103434776D01*
X75012385Y-103891919D01*
X75507624Y-103891919D01*
G04 #@! TO.C,D2*
X71756528Y-109078395D02*
X72327957Y-109078395D01*
X72042243Y-110078395D02*
X72042243Y-109078395D01*
X72566052Y-110078395D02*
X73089862Y-109411729D01*
X72566052Y-109411729D02*
X73089862Y-110078395D01*
G04 #@! TO.C,D3*
X77050766Y-110078395D02*
X76717433Y-109602205D01*
X76479338Y-110078395D02*
X76479338Y-109078395D01*
X76860290Y-109078395D01*
X76955528Y-109126015D01*
X77003147Y-109173634D01*
X77050766Y-109268872D01*
X77050766Y-109411729D01*
X77003147Y-109506967D01*
X76955528Y-109554586D01*
X76860290Y-109602205D01*
X76479338Y-109602205D01*
X77384100Y-110078395D02*
X77907909Y-109411729D01*
X77384100Y-109411729D02*
X77907909Y-110078395D01*
G04 #@! TO.C,R5*
X80949671Y-106113919D02*
X80683005Y-105732967D01*
X80492528Y-106113919D02*
X80492528Y-105313919D01*
X80797290Y-105313919D01*
X80873481Y-105352015D01*
X80911576Y-105390110D01*
X80949671Y-105466300D01*
X80949671Y-105580586D01*
X80911576Y-105656776D01*
X80873481Y-105694872D01*
X80797290Y-105732967D01*
X80492528Y-105732967D01*
X81673481Y-105313919D02*
X81292528Y-105313919D01*
X81254433Y-105694872D01*
X81292528Y-105656776D01*
X81368719Y-105618681D01*
X81559195Y-105618681D01*
X81635385Y-105656776D01*
X81673481Y-105694872D01*
X81711576Y-105771062D01*
X81711576Y-105961538D01*
X81673481Y-106037729D01*
X81635385Y-106075824D01*
X81559195Y-106113919D01*
X81368719Y-106113919D01*
X81292528Y-106075824D01*
X81254433Y-106037729D01*
G04 #@! TO.C,R6*
X79298671Y-106113919D02*
X79032005Y-105732967D01*
X78841528Y-106113919D02*
X78841528Y-105313919D01*
X79146290Y-105313919D01*
X79222481Y-105352015D01*
X79260576Y-105390110D01*
X79298671Y-105466300D01*
X79298671Y-105580586D01*
X79260576Y-105656776D01*
X79222481Y-105694872D01*
X79146290Y-105732967D01*
X78841528Y-105732967D01*
X79984385Y-105313919D02*
X79832005Y-105313919D01*
X79755814Y-105352015D01*
X79717719Y-105390110D01*
X79641528Y-105504395D01*
X79603433Y-105656776D01*
X79603433Y-105961538D01*
X79641528Y-106037729D01*
X79679624Y-106075824D01*
X79755814Y-106113919D01*
X79908195Y-106113919D01*
X79984385Y-106075824D01*
X80022481Y-106037729D01*
X80060576Y-105961538D01*
X80060576Y-105771062D01*
X80022481Y-105694872D01*
X79984385Y-105656776D01*
X79908195Y-105618681D01*
X79755814Y-105618681D01*
X79679624Y-105656776D01*
X79641528Y-105694872D01*
X79603433Y-105771062D01*
G04 #@! TO.C,U1*
X74250481Y-93439919D02*
X74250481Y-94087538D01*
X74288576Y-94163729D01*
X74326671Y-94201824D01*
X74402862Y-94239919D01*
X74555243Y-94239919D01*
X74631433Y-94201824D01*
X74669528Y-94163729D01*
X74707624Y-94087538D01*
X74707624Y-93439919D01*
X75507624Y-94239919D02*
X75050481Y-94239919D01*
X75279052Y-94239919D02*
X75279052Y-93439919D01*
X75202862Y-93554205D01*
X75126671Y-93630395D01*
X75050481Y-93668491D01*
G04 #@! TO.C,C1*
X52406664Y-94544729D02*
X52368569Y-94582824D01*
X52254283Y-94620919D01*
X52178093Y-94620919D01*
X52063807Y-94582824D01*
X51987617Y-94506634D01*
X51949521Y-94430443D01*
X51911426Y-94278062D01*
X51911426Y-94163776D01*
X51949521Y-94011395D01*
X51987617Y-93935205D01*
X52063807Y-93859015D01*
X52178093Y-93820919D01*
X52254283Y-93820919D01*
X52368569Y-93859015D01*
X52406664Y-93897110D01*
X53168569Y-94620919D02*
X52711426Y-94620919D01*
X52939998Y-94620919D02*
X52939998Y-93820919D01*
X52863807Y-93935205D01*
X52787617Y-94011395D01*
X52711426Y-94049491D01*
G04 #@! TO.C,C2*
X47326664Y-94544729D02*
X47288569Y-94582824D01*
X47174283Y-94620919D01*
X47098093Y-94620919D01*
X46983807Y-94582824D01*
X46907617Y-94506634D01*
X46869521Y-94430443D01*
X46831426Y-94278062D01*
X46831426Y-94163776D01*
X46869521Y-94011395D01*
X46907617Y-93935205D01*
X46983807Y-93859015D01*
X47098093Y-93820919D01*
X47174283Y-93820919D01*
X47288569Y-93859015D01*
X47326664Y-93897110D01*
X47631426Y-93897110D02*
X47669521Y-93859015D01*
X47745712Y-93820919D01*
X47936188Y-93820919D01*
X48012378Y-93859015D01*
X48050474Y-93897110D01*
X48088569Y-93973300D01*
X48088569Y-94049491D01*
X48050474Y-94163776D01*
X47593331Y-94620919D01*
X48088569Y-94620919D01*
G04 #@! TO.C,C3*
X44659664Y-100005729D02*
X44621569Y-100043824D01*
X44507283Y-100081919D01*
X44431093Y-100081919D01*
X44316807Y-100043824D01*
X44240617Y-99967634D01*
X44202521Y-99891443D01*
X44164426Y-99739062D01*
X44164426Y-99624776D01*
X44202521Y-99472395D01*
X44240617Y-99396205D01*
X44316807Y-99320015D01*
X44431093Y-99281919D01*
X44507283Y-99281919D01*
X44621569Y-99320015D01*
X44659664Y-99358110D01*
X44926331Y-99281919D02*
X45421569Y-99281919D01*
X45154902Y-99586681D01*
X45269188Y-99586681D01*
X45345378Y-99624776D01*
X45383474Y-99662872D01*
X45421569Y-99739062D01*
X45421569Y-99929538D01*
X45383474Y-100005729D01*
X45345378Y-100043824D01*
X45269188Y-100081919D01*
X45040617Y-100081919D01*
X44964426Y-100043824D01*
X44926331Y-100005729D01*
G04 #@! TO.C,C4*
X55264164Y-100640729D02*
X55226069Y-100678824D01*
X55111783Y-100716919D01*
X55035593Y-100716919D01*
X54921307Y-100678824D01*
X54845117Y-100602634D01*
X54807021Y-100526443D01*
X54768926Y-100374062D01*
X54768926Y-100259776D01*
X54807021Y-100107395D01*
X54845117Y-100031205D01*
X54921307Y-99955015D01*
X55035593Y-99916919D01*
X55111783Y-99916919D01*
X55226069Y-99955015D01*
X55264164Y-99993110D01*
X55949878Y-100183586D02*
X55949878Y-100716919D01*
X55759402Y-99878824D02*
X55568926Y-100450253D01*
X56064164Y-100450253D01*
G04 #@! TO.C,D1*
X45880378Y-94068348D02*
X44880378Y-94068348D01*
X44880378Y-93687395D01*
X44927998Y-93592157D01*
X44975617Y-93544538D01*
X45070855Y-93496919D01*
X45213712Y-93496919D01*
X45308950Y-93544538D01*
X45356569Y-93592157D01*
X45404188Y-93687395D01*
X45404188Y-94068348D01*
X44880378Y-93163586D02*
X45880378Y-92925491D01*
X45166093Y-92735015D01*
X45880378Y-92544538D01*
X44880378Y-92306443D01*
X45880378Y-91354062D02*
X45404188Y-91687395D01*
X45880378Y-91925491D02*
X44880378Y-91925491D01*
X44880378Y-91544538D01*
X44927998Y-91449300D01*
X44975617Y-91401681D01*
X45070855Y-91354062D01*
X45213712Y-91354062D01*
X45308950Y-91401681D01*
X45356569Y-91449300D01*
X45404188Y-91544538D01*
X45404188Y-91925491D01*
G04 #@! TO.C,J1*
X54432331Y-91661919D02*
X54432331Y-92233348D01*
X54394236Y-92347634D01*
X54318045Y-92423824D01*
X54203759Y-92461919D01*
X54127569Y-92461919D01*
X55232331Y-92461919D02*
X54775188Y-92461919D01*
X55003759Y-92461919D02*
X55003759Y-91661919D01*
X54927569Y-91776205D01*
X54851378Y-91852395D01*
X54775188Y-91890491D01*
G04 #@! TO.C,R1*
X43516664Y-94239919D02*
X43249998Y-93858967D01*
X43059521Y-94239919D02*
X43059521Y-93439919D01*
X43364283Y-93439919D01*
X43440474Y-93478015D01*
X43478569Y-93516110D01*
X43516664Y-93592300D01*
X43516664Y-93706586D01*
X43478569Y-93782776D01*
X43440474Y-93820872D01*
X43364283Y-93858967D01*
X43059521Y-93858967D01*
X44278569Y-94239919D02*
X43821426Y-94239919D01*
X44049998Y-94239919D02*
X44049998Y-93439919D01*
X43973807Y-93554205D01*
X43897617Y-93630395D01*
X43821426Y-93668491D01*
G04 #@! TO.C,R2*
X44278664Y-104272919D02*
X44011998Y-103891967D01*
X43821521Y-104272919D02*
X43821521Y-103472919D01*
X44126283Y-103472919D01*
X44202474Y-103511015D01*
X44240569Y-103549110D01*
X44278664Y-103625300D01*
X44278664Y-103739586D01*
X44240569Y-103815776D01*
X44202474Y-103853872D01*
X44126283Y-103891967D01*
X43821521Y-103891967D01*
X44583426Y-103549110D02*
X44621521Y-103511015D01*
X44697712Y-103472919D01*
X44888188Y-103472919D01*
X44964378Y-103511015D01*
X45002474Y-103549110D01*
X45040569Y-103625300D01*
X45040569Y-103701491D01*
X45002474Y-103815776D01*
X44545331Y-104272919D01*
X45040569Y-104272919D01*
G04 #@! TO.C,R3*
X44278664Y-105479419D02*
X44011998Y-105098467D01*
X43821521Y-105479419D02*
X43821521Y-104679419D01*
X44126283Y-104679419D01*
X44202474Y-104717515D01*
X44240569Y-104755610D01*
X44278664Y-104831800D01*
X44278664Y-104946086D01*
X44240569Y-105022276D01*
X44202474Y-105060372D01*
X44126283Y-105098467D01*
X43821521Y-105098467D01*
X44545331Y-104679419D02*
X45040569Y-104679419D01*
X44773902Y-104984181D01*
X44888188Y-104984181D01*
X44964378Y-105022276D01*
X45002474Y-105060372D01*
X45040569Y-105136562D01*
X45040569Y-105327038D01*
X45002474Y-105403229D01*
X44964378Y-105441324D01*
X44888188Y-105479419D01*
X44659617Y-105479419D01*
X44583426Y-105441324D01*
X44545331Y-105403229D01*
G04 #@! TO.C,R4*
X55200664Y-110241919D02*
X54933998Y-109860967D01*
X54743521Y-110241919D02*
X54743521Y-109441919D01*
X55048283Y-109441919D01*
X55124474Y-109480015D01*
X55162569Y-109518110D01*
X55200664Y-109594300D01*
X55200664Y-109708586D01*
X55162569Y-109784776D01*
X55124474Y-109822872D01*
X55048283Y-109860967D01*
X54743521Y-109860967D01*
X55886378Y-109708586D02*
X55886378Y-110241919D01*
X55695902Y-109403824D02*
X55505426Y-109975253D01*
X56000664Y-109975253D01*
G04 #@! TO.C,U2*
X49390474Y-103091919D02*
X49390474Y-103739538D01*
X49428569Y-103815729D01*
X49466664Y-103853824D01*
X49542855Y-103891919D01*
X49695236Y-103891919D01*
X49771426Y-103853824D01*
X49809521Y-103815729D01*
X49847617Y-103739538D01*
X49847617Y-103091919D01*
X50190474Y-103168110D02*
X50228569Y-103130015D01*
X50304759Y-103091919D01*
X50495236Y-103091919D01*
X50571426Y-103130015D01*
X50609521Y-103168110D01*
X50647617Y-103244300D01*
X50647617Y-103320491D01*
X50609521Y-103434776D01*
X50152378Y-103891919D01*
X50647617Y-103891919D01*
G04 #@! TO.C,D2*
X46896521Y-109078395D02*
X47467950Y-109078395D01*
X47182236Y-110078395D02*
X47182236Y-109078395D01*
X47706045Y-110078395D02*
X48229855Y-109411729D01*
X47706045Y-109411729D02*
X48229855Y-110078395D01*
G04 #@! TO.C,D3*
X52190759Y-110078395D02*
X51857426Y-109602205D01*
X51619331Y-110078395D02*
X51619331Y-109078395D01*
X52000283Y-109078395D01*
X52095521Y-109126015D01*
X52143140Y-109173634D01*
X52190759Y-109268872D01*
X52190759Y-109411729D01*
X52143140Y-109506967D01*
X52095521Y-109554586D01*
X52000283Y-109602205D01*
X51619331Y-109602205D01*
X52524093Y-110078395D02*
X53047902Y-109411729D01*
X52524093Y-109411729D02*
X53047902Y-110078395D01*
G04 #@! TO.C,R5*
X56089664Y-106113919D02*
X55822998Y-105732967D01*
X55632521Y-106113919D02*
X55632521Y-105313919D01*
X55937283Y-105313919D01*
X56013474Y-105352015D01*
X56051569Y-105390110D01*
X56089664Y-105466300D01*
X56089664Y-105580586D01*
X56051569Y-105656776D01*
X56013474Y-105694872D01*
X55937283Y-105732967D01*
X55632521Y-105732967D01*
X56813474Y-105313919D02*
X56432521Y-105313919D01*
X56394426Y-105694872D01*
X56432521Y-105656776D01*
X56508712Y-105618681D01*
X56699188Y-105618681D01*
X56775378Y-105656776D01*
X56813474Y-105694872D01*
X56851569Y-105771062D01*
X56851569Y-105961538D01*
X56813474Y-106037729D01*
X56775378Y-106075824D01*
X56699188Y-106113919D01*
X56508712Y-106113919D01*
X56432521Y-106075824D01*
X56394426Y-106037729D01*
G04 #@! TO.C,R6*
X54438664Y-106113919D02*
X54171998Y-105732967D01*
X53981521Y-106113919D02*
X53981521Y-105313919D01*
X54286283Y-105313919D01*
X54362474Y-105352015D01*
X54400569Y-105390110D01*
X54438664Y-105466300D01*
X54438664Y-105580586D01*
X54400569Y-105656776D01*
X54362474Y-105694872D01*
X54286283Y-105732967D01*
X53981521Y-105732967D01*
X55124378Y-105313919D02*
X54971998Y-105313919D01*
X54895807Y-105352015D01*
X54857712Y-105390110D01*
X54781521Y-105504395D01*
X54743426Y-105656776D01*
X54743426Y-105961538D01*
X54781521Y-106037729D01*
X54819617Y-106075824D01*
X54895807Y-106113919D01*
X55048188Y-106113919D01*
X55124378Y-106075824D01*
X55162474Y-106037729D01*
X55200569Y-105961538D01*
X55200569Y-105771062D01*
X55162474Y-105694872D01*
X55124378Y-105656776D01*
X55048188Y-105618681D01*
X54895807Y-105618681D01*
X54819617Y-105656776D01*
X54781521Y-105694872D01*
X54743426Y-105771062D01*
G04 #@! TO.C,U1*
X49390474Y-93439919D02*
X49390474Y-94087538D01*
X49428569Y-94163729D01*
X49466664Y-94201824D01*
X49542855Y-94239919D01*
X49695236Y-94239919D01*
X49771426Y-94201824D01*
X49809521Y-94163729D01*
X49847617Y-94087538D01*
X49847617Y-93439919D01*
X50647617Y-94239919D02*
X50190474Y-94239919D01*
X50419045Y-94239919D02*
X50419045Y-93439919D01*
X50342855Y-93554205D01*
X50266664Y-93630395D01*
X50190474Y-93668491D01*
G04 #@! TO.C,C1*
X102126678Y-69684720D02*
X102088583Y-69722815D01*
X101974297Y-69760910D01*
X101898107Y-69760910D01*
X101783821Y-69722815D01*
X101707631Y-69646625D01*
X101669535Y-69570434D01*
X101631440Y-69418053D01*
X101631440Y-69303767D01*
X101669535Y-69151386D01*
X101707631Y-69075196D01*
X101783821Y-68999006D01*
X101898107Y-68960910D01*
X101974297Y-68960910D01*
X102088583Y-68999006D01*
X102126678Y-69037101D01*
X102888583Y-69760910D02*
X102431440Y-69760910D01*
X102660012Y-69760910D02*
X102660012Y-68960910D01*
X102583821Y-69075196D01*
X102507631Y-69151386D01*
X102431440Y-69189482D01*
G04 #@! TO.C,C2*
X97046678Y-69684720D02*
X97008583Y-69722815D01*
X96894297Y-69760910D01*
X96818107Y-69760910D01*
X96703821Y-69722815D01*
X96627631Y-69646625D01*
X96589535Y-69570434D01*
X96551440Y-69418053D01*
X96551440Y-69303767D01*
X96589535Y-69151386D01*
X96627631Y-69075196D01*
X96703821Y-68999006D01*
X96818107Y-68960910D01*
X96894297Y-68960910D01*
X97008583Y-68999006D01*
X97046678Y-69037101D01*
X97351440Y-69037101D02*
X97389535Y-68999006D01*
X97465726Y-68960910D01*
X97656202Y-68960910D01*
X97732392Y-68999006D01*
X97770488Y-69037101D01*
X97808583Y-69113291D01*
X97808583Y-69189482D01*
X97770488Y-69303767D01*
X97313345Y-69760910D01*
X97808583Y-69760910D01*
G04 #@! TO.C,C3*
X94379678Y-75145720D02*
X94341583Y-75183815D01*
X94227297Y-75221910D01*
X94151107Y-75221910D01*
X94036821Y-75183815D01*
X93960631Y-75107625D01*
X93922535Y-75031434D01*
X93884440Y-74879053D01*
X93884440Y-74764767D01*
X93922535Y-74612386D01*
X93960631Y-74536196D01*
X94036821Y-74460006D01*
X94151107Y-74421910D01*
X94227297Y-74421910D01*
X94341583Y-74460006D01*
X94379678Y-74498101D01*
X94646345Y-74421910D02*
X95141583Y-74421910D01*
X94874916Y-74726672D01*
X94989202Y-74726672D01*
X95065392Y-74764767D01*
X95103488Y-74802863D01*
X95141583Y-74879053D01*
X95141583Y-75069529D01*
X95103488Y-75145720D01*
X95065392Y-75183815D01*
X94989202Y-75221910D01*
X94760631Y-75221910D01*
X94684440Y-75183815D01*
X94646345Y-75145720D01*
G04 #@! TO.C,C4*
X104984178Y-75780720D02*
X104946083Y-75818815D01*
X104831797Y-75856910D01*
X104755607Y-75856910D01*
X104641321Y-75818815D01*
X104565131Y-75742625D01*
X104527035Y-75666434D01*
X104488940Y-75514053D01*
X104488940Y-75399767D01*
X104527035Y-75247386D01*
X104565131Y-75171196D01*
X104641321Y-75095006D01*
X104755607Y-75056910D01*
X104831797Y-75056910D01*
X104946083Y-75095006D01*
X104984178Y-75133101D01*
X105669892Y-75323577D02*
X105669892Y-75856910D01*
X105479416Y-75018815D02*
X105288940Y-75590244D01*
X105784178Y-75590244D01*
G04 #@! TO.C,D1*
X95600392Y-69208339D02*
X94600392Y-69208339D01*
X94600392Y-68827386D01*
X94648012Y-68732148D01*
X94695631Y-68684529D01*
X94790869Y-68636910D01*
X94933726Y-68636910D01*
X95028964Y-68684529D01*
X95076583Y-68732148D01*
X95124202Y-68827386D01*
X95124202Y-69208339D01*
X94600392Y-68303577D02*
X95600392Y-68065482D01*
X94886107Y-67875006D01*
X95600392Y-67684529D01*
X94600392Y-67446434D01*
X95600392Y-66494053D02*
X95124202Y-66827386D01*
X95600392Y-67065482D02*
X94600392Y-67065482D01*
X94600392Y-66684529D01*
X94648012Y-66589291D01*
X94695631Y-66541672D01*
X94790869Y-66494053D01*
X94933726Y-66494053D01*
X95028964Y-66541672D01*
X95076583Y-66589291D01*
X95124202Y-66684529D01*
X95124202Y-67065482D01*
G04 #@! TO.C,J1*
X104152345Y-66801910D02*
X104152345Y-67373339D01*
X104114250Y-67487625D01*
X104038059Y-67563815D01*
X103923773Y-67601910D01*
X103847583Y-67601910D01*
X104952345Y-67601910D02*
X104495202Y-67601910D01*
X104723773Y-67601910D02*
X104723773Y-66801910D01*
X104647583Y-66916196D01*
X104571392Y-66992386D01*
X104495202Y-67030482D01*
G04 #@! TO.C,R1*
X93236678Y-69379910D02*
X92970012Y-68998958D01*
X92779535Y-69379910D02*
X92779535Y-68579910D01*
X93084297Y-68579910D01*
X93160488Y-68618006D01*
X93198583Y-68656101D01*
X93236678Y-68732291D01*
X93236678Y-68846577D01*
X93198583Y-68922767D01*
X93160488Y-68960863D01*
X93084297Y-68998958D01*
X92779535Y-68998958D01*
X93998583Y-69379910D02*
X93541440Y-69379910D01*
X93770012Y-69379910D02*
X93770012Y-68579910D01*
X93693821Y-68694196D01*
X93617631Y-68770386D01*
X93541440Y-68808482D01*
G04 #@! TO.C,R2*
X93998678Y-79412910D02*
X93732012Y-79031958D01*
X93541535Y-79412910D02*
X93541535Y-78612910D01*
X93846297Y-78612910D01*
X93922488Y-78651006D01*
X93960583Y-78689101D01*
X93998678Y-78765291D01*
X93998678Y-78879577D01*
X93960583Y-78955767D01*
X93922488Y-78993863D01*
X93846297Y-79031958D01*
X93541535Y-79031958D01*
X94303440Y-78689101D02*
X94341535Y-78651006D01*
X94417726Y-78612910D01*
X94608202Y-78612910D01*
X94684392Y-78651006D01*
X94722488Y-78689101D01*
X94760583Y-78765291D01*
X94760583Y-78841482D01*
X94722488Y-78955767D01*
X94265345Y-79412910D01*
X94760583Y-79412910D01*
G04 #@! TO.C,R3*
X93998678Y-80619410D02*
X93732012Y-80238458D01*
X93541535Y-80619410D02*
X93541535Y-79819410D01*
X93846297Y-79819410D01*
X93922488Y-79857506D01*
X93960583Y-79895601D01*
X93998678Y-79971791D01*
X93998678Y-80086077D01*
X93960583Y-80162267D01*
X93922488Y-80200363D01*
X93846297Y-80238458D01*
X93541535Y-80238458D01*
X94265345Y-79819410D02*
X94760583Y-79819410D01*
X94493916Y-80124172D01*
X94608202Y-80124172D01*
X94684392Y-80162267D01*
X94722488Y-80200363D01*
X94760583Y-80276553D01*
X94760583Y-80467029D01*
X94722488Y-80543220D01*
X94684392Y-80581315D01*
X94608202Y-80619410D01*
X94379631Y-80619410D01*
X94303440Y-80581315D01*
X94265345Y-80543220D01*
G04 #@! TO.C,R4*
X104920678Y-85381910D02*
X104654012Y-85000958D01*
X104463535Y-85381910D02*
X104463535Y-84581910D01*
X104768297Y-84581910D01*
X104844488Y-84620006D01*
X104882583Y-84658101D01*
X104920678Y-84734291D01*
X104920678Y-84848577D01*
X104882583Y-84924767D01*
X104844488Y-84962863D01*
X104768297Y-85000958D01*
X104463535Y-85000958D01*
X105606392Y-84848577D02*
X105606392Y-85381910D01*
X105415916Y-84543815D02*
X105225440Y-85115244D01*
X105720678Y-85115244D01*
G04 #@! TO.C,U2*
X99110488Y-78231910D02*
X99110488Y-78879529D01*
X99148583Y-78955720D01*
X99186678Y-78993815D01*
X99262869Y-79031910D01*
X99415250Y-79031910D01*
X99491440Y-78993815D01*
X99529535Y-78955720D01*
X99567631Y-78879529D01*
X99567631Y-78231910D01*
X99910488Y-78308101D02*
X99948583Y-78270006D01*
X100024773Y-78231910D01*
X100215250Y-78231910D01*
X100291440Y-78270006D01*
X100329535Y-78308101D01*
X100367631Y-78384291D01*
X100367631Y-78460482D01*
X100329535Y-78574767D01*
X99872392Y-79031910D01*
X100367631Y-79031910D01*
G04 #@! TO.C,D2*
X96616535Y-84218386D02*
X97187964Y-84218386D01*
X96902250Y-85218386D02*
X96902250Y-84218386D01*
X97426059Y-85218386D02*
X97949869Y-84551720D01*
X97426059Y-84551720D02*
X97949869Y-85218386D01*
G04 #@! TO.C,D3*
X101910773Y-85218386D02*
X101577440Y-84742196D01*
X101339345Y-85218386D02*
X101339345Y-84218386D01*
X101720297Y-84218386D01*
X101815535Y-84266006D01*
X101863154Y-84313625D01*
X101910773Y-84408863D01*
X101910773Y-84551720D01*
X101863154Y-84646958D01*
X101815535Y-84694577D01*
X101720297Y-84742196D01*
X101339345Y-84742196D01*
X102244107Y-85218386D02*
X102767916Y-84551720D01*
X102244107Y-84551720D02*
X102767916Y-85218386D01*
G04 #@! TO.C,R5*
X105809678Y-81253910D02*
X105543012Y-80872958D01*
X105352535Y-81253910D02*
X105352535Y-80453910D01*
X105657297Y-80453910D01*
X105733488Y-80492006D01*
X105771583Y-80530101D01*
X105809678Y-80606291D01*
X105809678Y-80720577D01*
X105771583Y-80796767D01*
X105733488Y-80834863D01*
X105657297Y-80872958D01*
X105352535Y-80872958D01*
X106533488Y-80453910D02*
X106152535Y-80453910D01*
X106114440Y-80834863D01*
X106152535Y-80796767D01*
X106228726Y-80758672D01*
X106419202Y-80758672D01*
X106495392Y-80796767D01*
X106533488Y-80834863D01*
X106571583Y-80911053D01*
X106571583Y-81101529D01*
X106533488Y-81177720D01*
X106495392Y-81215815D01*
X106419202Y-81253910D01*
X106228726Y-81253910D01*
X106152535Y-81215815D01*
X106114440Y-81177720D01*
G04 #@! TO.C,R6*
X104158678Y-81253910D02*
X103892012Y-80872958D01*
X103701535Y-81253910D02*
X103701535Y-80453910D01*
X104006297Y-80453910D01*
X104082488Y-80492006D01*
X104120583Y-80530101D01*
X104158678Y-80606291D01*
X104158678Y-80720577D01*
X104120583Y-80796767D01*
X104082488Y-80834863D01*
X104006297Y-80872958D01*
X103701535Y-80872958D01*
X104844392Y-80453910D02*
X104692012Y-80453910D01*
X104615821Y-80492006D01*
X104577726Y-80530101D01*
X104501535Y-80644386D01*
X104463440Y-80796767D01*
X104463440Y-81101529D01*
X104501535Y-81177720D01*
X104539631Y-81215815D01*
X104615821Y-81253910D01*
X104768202Y-81253910D01*
X104844392Y-81215815D01*
X104882488Y-81177720D01*
X104920583Y-81101529D01*
X104920583Y-80911053D01*
X104882488Y-80834863D01*
X104844392Y-80796767D01*
X104768202Y-80758672D01*
X104615821Y-80758672D01*
X104539631Y-80796767D01*
X104501535Y-80834863D01*
X104463440Y-80911053D01*
G04 #@! TO.C,U1*
X99110488Y-68579910D02*
X99110488Y-69227529D01*
X99148583Y-69303720D01*
X99186678Y-69341815D01*
X99262869Y-69379910D01*
X99415250Y-69379910D01*
X99491440Y-69341815D01*
X99529535Y-69303720D01*
X99567631Y-69227529D01*
X99567631Y-68579910D01*
X100367631Y-69379910D02*
X99910488Y-69379910D01*
X100139059Y-69379910D02*
X100139059Y-68579910D01*
X100062869Y-68694196D01*
X99986678Y-68770386D01*
X99910488Y-68808482D01*
G04 #@! TO.C,C1*
X77266671Y-69684720D02*
X77228576Y-69722815D01*
X77114290Y-69760910D01*
X77038100Y-69760910D01*
X76923814Y-69722815D01*
X76847624Y-69646625D01*
X76809528Y-69570434D01*
X76771433Y-69418053D01*
X76771433Y-69303767D01*
X76809528Y-69151386D01*
X76847624Y-69075196D01*
X76923814Y-68999006D01*
X77038100Y-68960910D01*
X77114290Y-68960910D01*
X77228576Y-68999006D01*
X77266671Y-69037101D01*
X78028576Y-69760910D02*
X77571433Y-69760910D01*
X77800005Y-69760910D02*
X77800005Y-68960910D01*
X77723814Y-69075196D01*
X77647624Y-69151386D01*
X77571433Y-69189482D01*
G04 #@! TO.C,C2*
X72186671Y-69684720D02*
X72148576Y-69722815D01*
X72034290Y-69760910D01*
X71958100Y-69760910D01*
X71843814Y-69722815D01*
X71767624Y-69646625D01*
X71729528Y-69570434D01*
X71691433Y-69418053D01*
X71691433Y-69303767D01*
X71729528Y-69151386D01*
X71767624Y-69075196D01*
X71843814Y-68999006D01*
X71958100Y-68960910D01*
X72034290Y-68960910D01*
X72148576Y-68999006D01*
X72186671Y-69037101D01*
X72491433Y-69037101D02*
X72529528Y-68999006D01*
X72605719Y-68960910D01*
X72796195Y-68960910D01*
X72872385Y-68999006D01*
X72910481Y-69037101D01*
X72948576Y-69113291D01*
X72948576Y-69189482D01*
X72910481Y-69303767D01*
X72453338Y-69760910D01*
X72948576Y-69760910D01*
G04 #@! TO.C,C3*
X69519671Y-75145720D02*
X69481576Y-75183815D01*
X69367290Y-75221910D01*
X69291100Y-75221910D01*
X69176814Y-75183815D01*
X69100624Y-75107625D01*
X69062528Y-75031434D01*
X69024433Y-74879053D01*
X69024433Y-74764767D01*
X69062528Y-74612386D01*
X69100624Y-74536196D01*
X69176814Y-74460006D01*
X69291100Y-74421910D01*
X69367290Y-74421910D01*
X69481576Y-74460006D01*
X69519671Y-74498101D01*
X69786338Y-74421910D02*
X70281576Y-74421910D01*
X70014909Y-74726672D01*
X70129195Y-74726672D01*
X70205385Y-74764767D01*
X70243481Y-74802863D01*
X70281576Y-74879053D01*
X70281576Y-75069529D01*
X70243481Y-75145720D01*
X70205385Y-75183815D01*
X70129195Y-75221910D01*
X69900624Y-75221910D01*
X69824433Y-75183815D01*
X69786338Y-75145720D01*
G04 #@! TO.C,C4*
X80124171Y-75780720D02*
X80086076Y-75818815D01*
X79971790Y-75856910D01*
X79895600Y-75856910D01*
X79781314Y-75818815D01*
X79705124Y-75742625D01*
X79667028Y-75666434D01*
X79628933Y-75514053D01*
X79628933Y-75399767D01*
X79667028Y-75247386D01*
X79705124Y-75171196D01*
X79781314Y-75095006D01*
X79895600Y-75056910D01*
X79971790Y-75056910D01*
X80086076Y-75095006D01*
X80124171Y-75133101D01*
X80809885Y-75323577D02*
X80809885Y-75856910D01*
X80619409Y-75018815D02*
X80428933Y-75590244D01*
X80924171Y-75590244D01*
G04 #@! TO.C,D1*
X70740385Y-69208339D02*
X69740385Y-69208339D01*
X69740385Y-68827386D01*
X69788005Y-68732148D01*
X69835624Y-68684529D01*
X69930862Y-68636910D01*
X70073719Y-68636910D01*
X70168957Y-68684529D01*
X70216576Y-68732148D01*
X70264195Y-68827386D01*
X70264195Y-69208339D01*
X69740385Y-68303577D02*
X70740385Y-68065482D01*
X70026100Y-67875006D01*
X70740385Y-67684529D01*
X69740385Y-67446434D01*
X70740385Y-66494053D02*
X70264195Y-66827386D01*
X70740385Y-67065482D02*
X69740385Y-67065482D01*
X69740385Y-66684529D01*
X69788005Y-66589291D01*
X69835624Y-66541672D01*
X69930862Y-66494053D01*
X70073719Y-66494053D01*
X70168957Y-66541672D01*
X70216576Y-66589291D01*
X70264195Y-66684529D01*
X70264195Y-67065482D01*
G04 #@! TO.C,J1*
X79292338Y-66801910D02*
X79292338Y-67373339D01*
X79254243Y-67487625D01*
X79178052Y-67563815D01*
X79063766Y-67601910D01*
X78987576Y-67601910D01*
X80092338Y-67601910D02*
X79635195Y-67601910D01*
X79863766Y-67601910D02*
X79863766Y-66801910D01*
X79787576Y-66916196D01*
X79711385Y-66992386D01*
X79635195Y-67030482D01*
G04 #@! TO.C,R1*
X68376671Y-69379910D02*
X68110005Y-68998958D01*
X67919528Y-69379910D02*
X67919528Y-68579910D01*
X68224290Y-68579910D01*
X68300481Y-68618006D01*
X68338576Y-68656101D01*
X68376671Y-68732291D01*
X68376671Y-68846577D01*
X68338576Y-68922767D01*
X68300481Y-68960863D01*
X68224290Y-68998958D01*
X67919528Y-68998958D01*
X69138576Y-69379910D02*
X68681433Y-69379910D01*
X68910005Y-69379910D02*
X68910005Y-68579910D01*
X68833814Y-68694196D01*
X68757624Y-68770386D01*
X68681433Y-68808482D01*
G04 #@! TO.C,R2*
X69138671Y-79412910D02*
X68872005Y-79031958D01*
X68681528Y-79412910D02*
X68681528Y-78612910D01*
X68986290Y-78612910D01*
X69062481Y-78651006D01*
X69100576Y-78689101D01*
X69138671Y-78765291D01*
X69138671Y-78879577D01*
X69100576Y-78955767D01*
X69062481Y-78993863D01*
X68986290Y-79031958D01*
X68681528Y-79031958D01*
X69443433Y-78689101D02*
X69481528Y-78651006D01*
X69557719Y-78612910D01*
X69748195Y-78612910D01*
X69824385Y-78651006D01*
X69862481Y-78689101D01*
X69900576Y-78765291D01*
X69900576Y-78841482D01*
X69862481Y-78955767D01*
X69405338Y-79412910D01*
X69900576Y-79412910D01*
G04 #@! TO.C,R3*
X69138671Y-80619410D02*
X68872005Y-80238458D01*
X68681528Y-80619410D02*
X68681528Y-79819410D01*
X68986290Y-79819410D01*
X69062481Y-79857506D01*
X69100576Y-79895601D01*
X69138671Y-79971791D01*
X69138671Y-80086077D01*
X69100576Y-80162267D01*
X69062481Y-80200363D01*
X68986290Y-80238458D01*
X68681528Y-80238458D01*
X69405338Y-79819410D02*
X69900576Y-79819410D01*
X69633909Y-80124172D01*
X69748195Y-80124172D01*
X69824385Y-80162267D01*
X69862481Y-80200363D01*
X69900576Y-80276553D01*
X69900576Y-80467029D01*
X69862481Y-80543220D01*
X69824385Y-80581315D01*
X69748195Y-80619410D01*
X69519624Y-80619410D01*
X69443433Y-80581315D01*
X69405338Y-80543220D01*
G04 #@! TO.C,R4*
X80060671Y-85381910D02*
X79794005Y-85000958D01*
X79603528Y-85381910D02*
X79603528Y-84581910D01*
X79908290Y-84581910D01*
X79984481Y-84620006D01*
X80022576Y-84658101D01*
X80060671Y-84734291D01*
X80060671Y-84848577D01*
X80022576Y-84924767D01*
X79984481Y-84962863D01*
X79908290Y-85000958D01*
X79603528Y-85000958D01*
X80746385Y-84848577D02*
X80746385Y-85381910D01*
X80555909Y-84543815D02*
X80365433Y-85115244D01*
X80860671Y-85115244D01*
G04 #@! TO.C,U2*
X74250481Y-78231910D02*
X74250481Y-78879529D01*
X74288576Y-78955720D01*
X74326671Y-78993815D01*
X74402862Y-79031910D01*
X74555243Y-79031910D01*
X74631433Y-78993815D01*
X74669528Y-78955720D01*
X74707624Y-78879529D01*
X74707624Y-78231910D01*
X75050481Y-78308101D02*
X75088576Y-78270006D01*
X75164766Y-78231910D01*
X75355243Y-78231910D01*
X75431433Y-78270006D01*
X75469528Y-78308101D01*
X75507624Y-78384291D01*
X75507624Y-78460482D01*
X75469528Y-78574767D01*
X75012385Y-79031910D01*
X75507624Y-79031910D01*
G04 #@! TO.C,D2*
X71756528Y-84218386D02*
X72327957Y-84218386D01*
X72042243Y-85218386D02*
X72042243Y-84218386D01*
X72566052Y-85218386D02*
X73089862Y-84551720D01*
X72566052Y-84551720D02*
X73089862Y-85218386D01*
G04 #@! TO.C,D3*
X77050766Y-85218386D02*
X76717433Y-84742196D01*
X76479338Y-85218386D02*
X76479338Y-84218386D01*
X76860290Y-84218386D01*
X76955528Y-84266006D01*
X77003147Y-84313625D01*
X77050766Y-84408863D01*
X77050766Y-84551720D01*
X77003147Y-84646958D01*
X76955528Y-84694577D01*
X76860290Y-84742196D01*
X76479338Y-84742196D01*
X77384100Y-85218386D02*
X77907909Y-84551720D01*
X77384100Y-84551720D02*
X77907909Y-85218386D01*
G04 #@! TO.C,R5*
X80949671Y-81253910D02*
X80683005Y-80872958D01*
X80492528Y-81253910D02*
X80492528Y-80453910D01*
X80797290Y-80453910D01*
X80873481Y-80492006D01*
X80911576Y-80530101D01*
X80949671Y-80606291D01*
X80949671Y-80720577D01*
X80911576Y-80796767D01*
X80873481Y-80834863D01*
X80797290Y-80872958D01*
X80492528Y-80872958D01*
X81673481Y-80453910D02*
X81292528Y-80453910D01*
X81254433Y-80834863D01*
X81292528Y-80796767D01*
X81368719Y-80758672D01*
X81559195Y-80758672D01*
X81635385Y-80796767D01*
X81673481Y-80834863D01*
X81711576Y-80911053D01*
X81711576Y-81101529D01*
X81673481Y-81177720D01*
X81635385Y-81215815D01*
X81559195Y-81253910D01*
X81368719Y-81253910D01*
X81292528Y-81215815D01*
X81254433Y-81177720D01*
G04 #@! TO.C,R6*
X79298671Y-81253910D02*
X79032005Y-80872958D01*
X78841528Y-81253910D02*
X78841528Y-80453910D01*
X79146290Y-80453910D01*
X79222481Y-80492006D01*
X79260576Y-80530101D01*
X79298671Y-80606291D01*
X79298671Y-80720577D01*
X79260576Y-80796767D01*
X79222481Y-80834863D01*
X79146290Y-80872958D01*
X78841528Y-80872958D01*
X79984385Y-80453910D02*
X79832005Y-80453910D01*
X79755814Y-80492006D01*
X79717719Y-80530101D01*
X79641528Y-80644386D01*
X79603433Y-80796767D01*
X79603433Y-81101529D01*
X79641528Y-81177720D01*
X79679624Y-81215815D01*
X79755814Y-81253910D01*
X79908195Y-81253910D01*
X79984385Y-81215815D01*
X80022481Y-81177720D01*
X80060576Y-81101529D01*
X80060576Y-80911053D01*
X80022481Y-80834863D01*
X79984385Y-80796767D01*
X79908195Y-80758672D01*
X79755814Y-80758672D01*
X79679624Y-80796767D01*
X79641528Y-80834863D01*
X79603433Y-80911053D01*
G04 #@! TO.C,U1*
X74250481Y-68579910D02*
X74250481Y-69227529D01*
X74288576Y-69303720D01*
X74326671Y-69341815D01*
X74402862Y-69379910D01*
X74555243Y-69379910D01*
X74631433Y-69341815D01*
X74669528Y-69303720D01*
X74707624Y-69227529D01*
X74707624Y-68579910D01*
X75507624Y-69379910D02*
X75050481Y-69379910D01*
X75279052Y-69379910D02*
X75279052Y-68579910D01*
X75202862Y-68694196D01*
X75126671Y-68770386D01*
X75050481Y-68808482D01*
G04 #@! TO.C,C1*
X52406664Y-69684720D02*
X52368569Y-69722815D01*
X52254283Y-69760910D01*
X52178093Y-69760910D01*
X52063807Y-69722815D01*
X51987617Y-69646625D01*
X51949521Y-69570434D01*
X51911426Y-69418053D01*
X51911426Y-69303767D01*
X51949521Y-69151386D01*
X51987617Y-69075196D01*
X52063807Y-68999006D01*
X52178093Y-68960910D01*
X52254283Y-68960910D01*
X52368569Y-68999006D01*
X52406664Y-69037101D01*
X53168569Y-69760910D02*
X52711426Y-69760910D01*
X52939998Y-69760910D02*
X52939998Y-68960910D01*
X52863807Y-69075196D01*
X52787617Y-69151386D01*
X52711426Y-69189482D01*
G04 #@! TO.C,C2*
X47326664Y-69684720D02*
X47288569Y-69722815D01*
X47174283Y-69760910D01*
X47098093Y-69760910D01*
X46983807Y-69722815D01*
X46907617Y-69646625D01*
X46869521Y-69570434D01*
X46831426Y-69418053D01*
X46831426Y-69303767D01*
X46869521Y-69151386D01*
X46907617Y-69075196D01*
X46983807Y-68999006D01*
X47098093Y-68960910D01*
X47174283Y-68960910D01*
X47288569Y-68999006D01*
X47326664Y-69037101D01*
X47631426Y-69037101D02*
X47669521Y-68999006D01*
X47745712Y-68960910D01*
X47936188Y-68960910D01*
X48012378Y-68999006D01*
X48050474Y-69037101D01*
X48088569Y-69113291D01*
X48088569Y-69189482D01*
X48050474Y-69303767D01*
X47593331Y-69760910D01*
X48088569Y-69760910D01*
G04 #@! TO.C,C3*
X44659664Y-75145720D02*
X44621569Y-75183815D01*
X44507283Y-75221910D01*
X44431093Y-75221910D01*
X44316807Y-75183815D01*
X44240617Y-75107625D01*
X44202521Y-75031434D01*
X44164426Y-74879053D01*
X44164426Y-74764767D01*
X44202521Y-74612386D01*
X44240617Y-74536196D01*
X44316807Y-74460006D01*
X44431093Y-74421910D01*
X44507283Y-74421910D01*
X44621569Y-74460006D01*
X44659664Y-74498101D01*
X44926331Y-74421910D02*
X45421569Y-74421910D01*
X45154902Y-74726672D01*
X45269188Y-74726672D01*
X45345378Y-74764767D01*
X45383474Y-74802863D01*
X45421569Y-74879053D01*
X45421569Y-75069529D01*
X45383474Y-75145720D01*
X45345378Y-75183815D01*
X45269188Y-75221910D01*
X45040617Y-75221910D01*
X44964426Y-75183815D01*
X44926331Y-75145720D01*
G04 #@! TO.C,C4*
X55264164Y-75780720D02*
X55226069Y-75818815D01*
X55111783Y-75856910D01*
X55035593Y-75856910D01*
X54921307Y-75818815D01*
X54845117Y-75742625D01*
X54807021Y-75666434D01*
X54768926Y-75514053D01*
X54768926Y-75399767D01*
X54807021Y-75247386D01*
X54845117Y-75171196D01*
X54921307Y-75095006D01*
X55035593Y-75056910D01*
X55111783Y-75056910D01*
X55226069Y-75095006D01*
X55264164Y-75133101D01*
X55949878Y-75323577D02*
X55949878Y-75856910D01*
X55759402Y-75018815D02*
X55568926Y-75590244D01*
X56064164Y-75590244D01*
G04 #@! TO.C,D1*
X45880378Y-69208339D02*
X44880378Y-69208339D01*
X44880378Y-68827386D01*
X44927998Y-68732148D01*
X44975617Y-68684529D01*
X45070855Y-68636910D01*
X45213712Y-68636910D01*
X45308950Y-68684529D01*
X45356569Y-68732148D01*
X45404188Y-68827386D01*
X45404188Y-69208339D01*
X44880378Y-68303577D02*
X45880378Y-68065482D01*
X45166093Y-67875006D01*
X45880378Y-67684529D01*
X44880378Y-67446434D01*
X45880378Y-66494053D02*
X45404188Y-66827386D01*
X45880378Y-67065482D02*
X44880378Y-67065482D01*
X44880378Y-66684529D01*
X44927998Y-66589291D01*
X44975617Y-66541672D01*
X45070855Y-66494053D01*
X45213712Y-66494053D01*
X45308950Y-66541672D01*
X45356569Y-66589291D01*
X45404188Y-66684529D01*
X45404188Y-67065482D01*
G04 #@! TO.C,J1*
X54432331Y-66801910D02*
X54432331Y-67373339D01*
X54394236Y-67487625D01*
X54318045Y-67563815D01*
X54203759Y-67601910D01*
X54127569Y-67601910D01*
X55232331Y-67601910D02*
X54775188Y-67601910D01*
X55003759Y-67601910D02*
X55003759Y-66801910D01*
X54927569Y-66916196D01*
X54851378Y-66992386D01*
X54775188Y-67030482D01*
G04 #@! TO.C,R1*
X43516664Y-69379910D02*
X43249998Y-68998958D01*
X43059521Y-69379910D02*
X43059521Y-68579910D01*
X43364283Y-68579910D01*
X43440474Y-68618006D01*
X43478569Y-68656101D01*
X43516664Y-68732291D01*
X43516664Y-68846577D01*
X43478569Y-68922767D01*
X43440474Y-68960863D01*
X43364283Y-68998958D01*
X43059521Y-68998958D01*
X44278569Y-69379910D02*
X43821426Y-69379910D01*
X44049998Y-69379910D02*
X44049998Y-68579910D01*
X43973807Y-68694196D01*
X43897617Y-68770386D01*
X43821426Y-68808482D01*
G04 #@! TO.C,R2*
X44278664Y-79412910D02*
X44011998Y-79031958D01*
X43821521Y-79412910D02*
X43821521Y-78612910D01*
X44126283Y-78612910D01*
X44202474Y-78651006D01*
X44240569Y-78689101D01*
X44278664Y-78765291D01*
X44278664Y-78879577D01*
X44240569Y-78955767D01*
X44202474Y-78993863D01*
X44126283Y-79031958D01*
X43821521Y-79031958D01*
X44583426Y-78689101D02*
X44621521Y-78651006D01*
X44697712Y-78612910D01*
X44888188Y-78612910D01*
X44964378Y-78651006D01*
X45002474Y-78689101D01*
X45040569Y-78765291D01*
X45040569Y-78841482D01*
X45002474Y-78955767D01*
X44545331Y-79412910D01*
X45040569Y-79412910D01*
G04 #@! TO.C,R3*
X44278664Y-80619410D02*
X44011998Y-80238458D01*
X43821521Y-80619410D02*
X43821521Y-79819410D01*
X44126283Y-79819410D01*
X44202474Y-79857506D01*
X44240569Y-79895601D01*
X44278664Y-79971791D01*
X44278664Y-80086077D01*
X44240569Y-80162267D01*
X44202474Y-80200363D01*
X44126283Y-80238458D01*
X43821521Y-80238458D01*
X44545331Y-79819410D02*
X45040569Y-79819410D01*
X44773902Y-80124172D01*
X44888188Y-80124172D01*
X44964378Y-80162267D01*
X45002474Y-80200363D01*
X45040569Y-80276553D01*
X45040569Y-80467029D01*
X45002474Y-80543220D01*
X44964378Y-80581315D01*
X44888188Y-80619410D01*
X44659617Y-80619410D01*
X44583426Y-80581315D01*
X44545331Y-80543220D01*
G04 #@! TO.C,R4*
X55200664Y-85381910D02*
X54933998Y-85000958D01*
X54743521Y-85381910D02*
X54743521Y-84581910D01*
X55048283Y-84581910D01*
X55124474Y-84620006D01*
X55162569Y-84658101D01*
X55200664Y-84734291D01*
X55200664Y-84848577D01*
X55162569Y-84924767D01*
X55124474Y-84962863D01*
X55048283Y-85000958D01*
X54743521Y-85000958D01*
X55886378Y-84848577D02*
X55886378Y-85381910D01*
X55695902Y-84543815D02*
X55505426Y-85115244D01*
X56000664Y-85115244D01*
G04 #@! TO.C,U2*
X49390474Y-78231910D02*
X49390474Y-78879529D01*
X49428569Y-78955720D01*
X49466664Y-78993815D01*
X49542855Y-79031910D01*
X49695236Y-79031910D01*
X49771426Y-78993815D01*
X49809521Y-78955720D01*
X49847617Y-78879529D01*
X49847617Y-78231910D01*
X50190474Y-78308101D02*
X50228569Y-78270006D01*
X50304759Y-78231910D01*
X50495236Y-78231910D01*
X50571426Y-78270006D01*
X50609521Y-78308101D01*
X50647617Y-78384291D01*
X50647617Y-78460482D01*
X50609521Y-78574767D01*
X50152378Y-79031910D01*
X50647617Y-79031910D01*
G04 #@! TO.C,D2*
X46896521Y-84218386D02*
X47467950Y-84218386D01*
X47182236Y-85218386D02*
X47182236Y-84218386D01*
X47706045Y-85218386D02*
X48229855Y-84551720D01*
X47706045Y-84551720D02*
X48229855Y-85218386D01*
G04 #@! TO.C,D3*
X52190759Y-85218386D02*
X51857426Y-84742196D01*
X51619331Y-85218386D02*
X51619331Y-84218386D01*
X52000283Y-84218386D01*
X52095521Y-84266006D01*
X52143140Y-84313625D01*
X52190759Y-84408863D01*
X52190759Y-84551720D01*
X52143140Y-84646958D01*
X52095521Y-84694577D01*
X52000283Y-84742196D01*
X51619331Y-84742196D01*
X52524093Y-85218386D02*
X53047902Y-84551720D01*
X52524093Y-84551720D02*
X53047902Y-85218386D01*
G04 #@! TO.C,R5*
X56089664Y-81253910D02*
X55822998Y-80872958D01*
X55632521Y-81253910D02*
X55632521Y-80453910D01*
X55937283Y-80453910D01*
X56013474Y-80492006D01*
X56051569Y-80530101D01*
X56089664Y-80606291D01*
X56089664Y-80720577D01*
X56051569Y-80796767D01*
X56013474Y-80834863D01*
X55937283Y-80872958D01*
X55632521Y-80872958D01*
X56813474Y-80453910D02*
X56432521Y-80453910D01*
X56394426Y-80834863D01*
X56432521Y-80796767D01*
X56508712Y-80758672D01*
X56699188Y-80758672D01*
X56775378Y-80796767D01*
X56813474Y-80834863D01*
X56851569Y-80911053D01*
X56851569Y-81101529D01*
X56813474Y-81177720D01*
X56775378Y-81215815D01*
X56699188Y-81253910D01*
X56508712Y-81253910D01*
X56432521Y-81215815D01*
X56394426Y-81177720D01*
G04 #@! TO.C,R6*
X54438664Y-81253910D02*
X54171998Y-80872958D01*
X53981521Y-81253910D02*
X53981521Y-80453910D01*
X54286283Y-80453910D01*
X54362474Y-80492006D01*
X54400569Y-80530101D01*
X54438664Y-80606291D01*
X54438664Y-80720577D01*
X54400569Y-80796767D01*
X54362474Y-80834863D01*
X54286283Y-80872958D01*
X53981521Y-80872958D01*
X55124378Y-80453910D02*
X54971998Y-80453910D01*
X54895807Y-80492006D01*
X54857712Y-80530101D01*
X54781521Y-80644386D01*
X54743426Y-80796767D01*
X54743426Y-81101529D01*
X54781521Y-81177720D01*
X54819617Y-81215815D01*
X54895807Y-81253910D01*
X55048188Y-81253910D01*
X55124378Y-81215815D01*
X55162474Y-81177720D01*
X55200569Y-81101529D01*
X55200569Y-80911053D01*
X55162474Y-80834863D01*
X55124378Y-80796767D01*
X55048188Y-80758672D01*
X54895807Y-80758672D01*
X54819617Y-80796767D01*
X54781521Y-80834863D01*
X54743426Y-80911053D01*
G04 #@! TO.C,U1*
X49390474Y-68579910D02*
X49390474Y-69227529D01*
X49428569Y-69303720D01*
X49466664Y-69341815D01*
X49542855Y-69379910D01*
X49695236Y-69379910D01*
X49771426Y-69341815D01*
X49809521Y-69303720D01*
X49847617Y-69227529D01*
X49847617Y-68579910D01*
X50647617Y-69379910D02*
X50190474Y-69379910D01*
X50419045Y-69379910D02*
X50419045Y-68579910D01*
X50342855Y-68694196D01*
X50266664Y-68770386D01*
X50190474Y-68808482D01*
G04 #@! TO.C,C1*
X102126678Y-44824711D02*
X102088583Y-44862806D01*
X101974297Y-44900901D01*
X101898107Y-44900901D01*
X101783821Y-44862806D01*
X101707631Y-44786616D01*
X101669535Y-44710425D01*
X101631440Y-44558044D01*
X101631440Y-44443758D01*
X101669535Y-44291377D01*
X101707631Y-44215187D01*
X101783821Y-44138997D01*
X101898107Y-44100901D01*
X101974297Y-44100901D01*
X102088583Y-44138997D01*
X102126678Y-44177092D01*
X102888583Y-44900901D02*
X102431440Y-44900901D01*
X102660012Y-44900901D02*
X102660012Y-44100901D01*
X102583821Y-44215187D01*
X102507631Y-44291377D01*
X102431440Y-44329473D01*
G04 #@! TO.C,C2*
X97046678Y-44824711D02*
X97008583Y-44862806D01*
X96894297Y-44900901D01*
X96818107Y-44900901D01*
X96703821Y-44862806D01*
X96627631Y-44786616D01*
X96589535Y-44710425D01*
X96551440Y-44558044D01*
X96551440Y-44443758D01*
X96589535Y-44291377D01*
X96627631Y-44215187D01*
X96703821Y-44138997D01*
X96818107Y-44100901D01*
X96894297Y-44100901D01*
X97008583Y-44138997D01*
X97046678Y-44177092D01*
X97351440Y-44177092D02*
X97389535Y-44138997D01*
X97465726Y-44100901D01*
X97656202Y-44100901D01*
X97732392Y-44138997D01*
X97770488Y-44177092D01*
X97808583Y-44253282D01*
X97808583Y-44329473D01*
X97770488Y-44443758D01*
X97313345Y-44900901D01*
X97808583Y-44900901D01*
G04 #@! TO.C,C3*
X94379678Y-50285711D02*
X94341583Y-50323806D01*
X94227297Y-50361901D01*
X94151107Y-50361901D01*
X94036821Y-50323806D01*
X93960631Y-50247616D01*
X93922535Y-50171425D01*
X93884440Y-50019044D01*
X93884440Y-49904758D01*
X93922535Y-49752377D01*
X93960631Y-49676187D01*
X94036821Y-49599997D01*
X94151107Y-49561901D01*
X94227297Y-49561901D01*
X94341583Y-49599997D01*
X94379678Y-49638092D01*
X94646345Y-49561901D02*
X95141583Y-49561901D01*
X94874916Y-49866663D01*
X94989202Y-49866663D01*
X95065392Y-49904758D01*
X95103488Y-49942854D01*
X95141583Y-50019044D01*
X95141583Y-50209520D01*
X95103488Y-50285711D01*
X95065392Y-50323806D01*
X94989202Y-50361901D01*
X94760631Y-50361901D01*
X94684440Y-50323806D01*
X94646345Y-50285711D01*
G04 #@! TO.C,C4*
X104984178Y-50920711D02*
X104946083Y-50958806D01*
X104831797Y-50996901D01*
X104755607Y-50996901D01*
X104641321Y-50958806D01*
X104565131Y-50882616D01*
X104527035Y-50806425D01*
X104488940Y-50654044D01*
X104488940Y-50539758D01*
X104527035Y-50387377D01*
X104565131Y-50311187D01*
X104641321Y-50234997D01*
X104755607Y-50196901D01*
X104831797Y-50196901D01*
X104946083Y-50234997D01*
X104984178Y-50273092D01*
X105669892Y-50463568D02*
X105669892Y-50996901D01*
X105479416Y-50158806D02*
X105288940Y-50730235D01*
X105784178Y-50730235D01*
G04 #@! TO.C,D1*
X95600392Y-44348330D02*
X94600392Y-44348330D01*
X94600392Y-43967377D01*
X94648012Y-43872139D01*
X94695631Y-43824520D01*
X94790869Y-43776901D01*
X94933726Y-43776901D01*
X95028964Y-43824520D01*
X95076583Y-43872139D01*
X95124202Y-43967377D01*
X95124202Y-44348330D01*
X94600392Y-43443568D02*
X95600392Y-43205473D01*
X94886107Y-43014997D01*
X95600392Y-42824520D01*
X94600392Y-42586425D01*
X95600392Y-41634044D02*
X95124202Y-41967377D01*
X95600392Y-42205473D02*
X94600392Y-42205473D01*
X94600392Y-41824520D01*
X94648012Y-41729282D01*
X94695631Y-41681663D01*
X94790869Y-41634044D01*
X94933726Y-41634044D01*
X95028964Y-41681663D01*
X95076583Y-41729282D01*
X95124202Y-41824520D01*
X95124202Y-42205473D01*
G04 #@! TO.C,J1*
X104152345Y-41941901D02*
X104152345Y-42513330D01*
X104114250Y-42627616D01*
X104038059Y-42703806D01*
X103923773Y-42741901D01*
X103847583Y-42741901D01*
X104952345Y-42741901D02*
X104495202Y-42741901D01*
X104723773Y-42741901D02*
X104723773Y-41941901D01*
X104647583Y-42056187D01*
X104571392Y-42132377D01*
X104495202Y-42170473D01*
G04 #@! TO.C,R1*
X93236678Y-44519901D02*
X92970012Y-44138949D01*
X92779535Y-44519901D02*
X92779535Y-43719901D01*
X93084297Y-43719901D01*
X93160488Y-43757997D01*
X93198583Y-43796092D01*
X93236678Y-43872282D01*
X93236678Y-43986568D01*
X93198583Y-44062758D01*
X93160488Y-44100854D01*
X93084297Y-44138949D01*
X92779535Y-44138949D01*
X93998583Y-44519901D02*
X93541440Y-44519901D01*
X93770012Y-44519901D02*
X93770012Y-43719901D01*
X93693821Y-43834187D01*
X93617631Y-43910377D01*
X93541440Y-43948473D01*
G04 #@! TO.C,R2*
X93998678Y-54552901D02*
X93732012Y-54171949D01*
X93541535Y-54552901D02*
X93541535Y-53752901D01*
X93846297Y-53752901D01*
X93922488Y-53790997D01*
X93960583Y-53829092D01*
X93998678Y-53905282D01*
X93998678Y-54019568D01*
X93960583Y-54095758D01*
X93922488Y-54133854D01*
X93846297Y-54171949D01*
X93541535Y-54171949D01*
X94303440Y-53829092D02*
X94341535Y-53790997D01*
X94417726Y-53752901D01*
X94608202Y-53752901D01*
X94684392Y-53790997D01*
X94722488Y-53829092D01*
X94760583Y-53905282D01*
X94760583Y-53981473D01*
X94722488Y-54095758D01*
X94265345Y-54552901D01*
X94760583Y-54552901D01*
G04 #@! TO.C,R3*
X93998678Y-55759401D02*
X93732012Y-55378449D01*
X93541535Y-55759401D02*
X93541535Y-54959401D01*
X93846297Y-54959401D01*
X93922488Y-54997497D01*
X93960583Y-55035592D01*
X93998678Y-55111782D01*
X93998678Y-55226068D01*
X93960583Y-55302258D01*
X93922488Y-55340354D01*
X93846297Y-55378449D01*
X93541535Y-55378449D01*
X94265345Y-54959401D02*
X94760583Y-54959401D01*
X94493916Y-55264163D01*
X94608202Y-55264163D01*
X94684392Y-55302258D01*
X94722488Y-55340354D01*
X94760583Y-55416544D01*
X94760583Y-55607020D01*
X94722488Y-55683211D01*
X94684392Y-55721306D01*
X94608202Y-55759401D01*
X94379631Y-55759401D01*
X94303440Y-55721306D01*
X94265345Y-55683211D01*
G04 #@! TO.C,R4*
X104920678Y-60521901D02*
X104654012Y-60140949D01*
X104463535Y-60521901D02*
X104463535Y-59721901D01*
X104768297Y-59721901D01*
X104844488Y-59759997D01*
X104882583Y-59798092D01*
X104920678Y-59874282D01*
X104920678Y-59988568D01*
X104882583Y-60064758D01*
X104844488Y-60102854D01*
X104768297Y-60140949D01*
X104463535Y-60140949D01*
X105606392Y-59988568D02*
X105606392Y-60521901D01*
X105415916Y-59683806D02*
X105225440Y-60255235D01*
X105720678Y-60255235D01*
G04 #@! TO.C,U2*
X99110488Y-53371901D02*
X99110488Y-54019520D01*
X99148583Y-54095711D01*
X99186678Y-54133806D01*
X99262869Y-54171901D01*
X99415250Y-54171901D01*
X99491440Y-54133806D01*
X99529535Y-54095711D01*
X99567631Y-54019520D01*
X99567631Y-53371901D01*
X99910488Y-53448092D02*
X99948583Y-53409997D01*
X100024773Y-53371901D01*
X100215250Y-53371901D01*
X100291440Y-53409997D01*
X100329535Y-53448092D01*
X100367631Y-53524282D01*
X100367631Y-53600473D01*
X100329535Y-53714758D01*
X99872392Y-54171901D01*
X100367631Y-54171901D01*
G04 #@! TO.C,D2*
X96616535Y-59358377D02*
X97187964Y-59358377D01*
X96902250Y-60358377D02*
X96902250Y-59358377D01*
X97426059Y-60358377D02*
X97949869Y-59691711D01*
X97426059Y-59691711D02*
X97949869Y-60358377D01*
G04 #@! TO.C,D3*
X101910773Y-60358377D02*
X101577440Y-59882187D01*
X101339345Y-60358377D02*
X101339345Y-59358377D01*
X101720297Y-59358377D01*
X101815535Y-59405997D01*
X101863154Y-59453616D01*
X101910773Y-59548854D01*
X101910773Y-59691711D01*
X101863154Y-59786949D01*
X101815535Y-59834568D01*
X101720297Y-59882187D01*
X101339345Y-59882187D01*
X102244107Y-60358377D02*
X102767916Y-59691711D01*
X102244107Y-59691711D02*
X102767916Y-60358377D01*
G04 #@! TO.C,R5*
X105809678Y-56393901D02*
X105543012Y-56012949D01*
X105352535Y-56393901D02*
X105352535Y-55593901D01*
X105657297Y-55593901D01*
X105733488Y-55631997D01*
X105771583Y-55670092D01*
X105809678Y-55746282D01*
X105809678Y-55860568D01*
X105771583Y-55936758D01*
X105733488Y-55974854D01*
X105657297Y-56012949D01*
X105352535Y-56012949D01*
X106533488Y-55593901D02*
X106152535Y-55593901D01*
X106114440Y-55974854D01*
X106152535Y-55936758D01*
X106228726Y-55898663D01*
X106419202Y-55898663D01*
X106495392Y-55936758D01*
X106533488Y-55974854D01*
X106571583Y-56051044D01*
X106571583Y-56241520D01*
X106533488Y-56317711D01*
X106495392Y-56355806D01*
X106419202Y-56393901D01*
X106228726Y-56393901D01*
X106152535Y-56355806D01*
X106114440Y-56317711D01*
G04 #@! TO.C,R6*
X104158678Y-56393901D02*
X103892012Y-56012949D01*
X103701535Y-56393901D02*
X103701535Y-55593901D01*
X104006297Y-55593901D01*
X104082488Y-55631997D01*
X104120583Y-55670092D01*
X104158678Y-55746282D01*
X104158678Y-55860568D01*
X104120583Y-55936758D01*
X104082488Y-55974854D01*
X104006297Y-56012949D01*
X103701535Y-56012949D01*
X104844392Y-55593901D02*
X104692012Y-55593901D01*
X104615821Y-55631997D01*
X104577726Y-55670092D01*
X104501535Y-55784377D01*
X104463440Y-55936758D01*
X104463440Y-56241520D01*
X104501535Y-56317711D01*
X104539631Y-56355806D01*
X104615821Y-56393901D01*
X104768202Y-56393901D01*
X104844392Y-56355806D01*
X104882488Y-56317711D01*
X104920583Y-56241520D01*
X104920583Y-56051044D01*
X104882488Y-55974854D01*
X104844392Y-55936758D01*
X104768202Y-55898663D01*
X104615821Y-55898663D01*
X104539631Y-55936758D01*
X104501535Y-55974854D01*
X104463440Y-56051044D01*
G04 #@! TO.C,U1*
X99110488Y-43719901D02*
X99110488Y-44367520D01*
X99148583Y-44443711D01*
X99186678Y-44481806D01*
X99262869Y-44519901D01*
X99415250Y-44519901D01*
X99491440Y-44481806D01*
X99529535Y-44443711D01*
X99567631Y-44367520D01*
X99567631Y-43719901D01*
X100367631Y-44519901D02*
X99910488Y-44519901D01*
X100139059Y-44519901D02*
X100139059Y-43719901D01*
X100062869Y-43834187D01*
X99986678Y-43910377D01*
X99910488Y-43948473D01*
G04 #@! TO.C,C1*
X77266671Y-44824711D02*
X77228576Y-44862806D01*
X77114290Y-44900901D01*
X77038100Y-44900901D01*
X76923814Y-44862806D01*
X76847624Y-44786616D01*
X76809528Y-44710425D01*
X76771433Y-44558044D01*
X76771433Y-44443758D01*
X76809528Y-44291377D01*
X76847624Y-44215187D01*
X76923814Y-44138997D01*
X77038100Y-44100901D01*
X77114290Y-44100901D01*
X77228576Y-44138997D01*
X77266671Y-44177092D01*
X78028576Y-44900901D02*
X77571433Y-44900901D01*
X77800005Y-44900901D02*
X77800005Y-44100901D01*
X77723814Y-44215187D01*
X77647624Y-44291377D01*
X77571433Y-44329473D01*
G04 #@! TO.C,C2*
X72186671Y-44824711D02*
X72148576Y-44862806D01*
X72034290Y-44900901D01*
X71958100Y-44900901D01*
X71843814Y-44862806D01*
X71767624Y-44786616D01*
X71729528Y-44710425D01*
X71691433Y-44558044D01*
X71691433Y-44443758D01*
X71729528Y-44291377D01*
X71767624Y-44215187D01*
X71843814Y-44138997D01*
X71958100Y-44100901D01*
X72034290Y-44100901D01*
X72148576Y-44138997D01*
X72186671Y-44177092D01*
X72491433Y-44177092D02*
X72529528Y-44138997D01*
X72605719Y-44100901D01*
X72796195Y-44100901D01*
X72872385Y-44138997D01*
X72910481Y-44177092D01*
X72948576Y-44253282D01*
X72948576Y-44329473D01*
X72910481Y-44443758D01*
X72453338Y-44900901D01*
X72948576Y-44900901D01*
G04 #@! TO.C,C3*
X69519671Y-50285711D02*
X69481576Y-50323806D01*
X69367290Y-50361901D01*
X69291100Y-50361901D01*
X69176814Y-50323806D01*
X69100624Y-50247616D01*
X69062528Y-50171425D01*
X69024433Y-50019044D01*
X69024433Y-49904758D01*
X69062528Y-49752377D01*
X69100624Y-49676187D01*
X69176814Y-49599997D01*
X69291100Y-49561901D01*
X69367290Y-49561901D01*
X69481576Y-49599997D01*
X69519671Y-49638092D01*
X69786338Y-49561901D02*
X70281576Y-49561901D01*
X70014909Y-49866663D01*
X70129195Y-49866663D01*
X70205385Y-49904758D01*
X70243481Y-49942854D01*
X70281576Y-50019044D01*
X70281576Y-50209520D01*
X70243481Y-50285711D01*
X70205385Y-50323806D01*
X70129195Y-50361901D01*
X69900624Y-50361901D01*
X69824433Y-50323806D01*
X69786338Y-50285711D01*
G04 #@! TO.C,C4*
X80124171Y-50920711D02*
X80086076Y-50958806D01*
X79971790Y-50996901D01*
X79895600Y-50996901D01*
X79781314Y-50958806D01*
X79705124Y-50882616D01*
X79667028Y-50806425D01*
X79628933Y-50654044D01*
X79628933Y-50539758D01*
X79667028Y-50387377D01*
X79705124Y-50311187D01*
X79781314Y-50234997D01*
X79895600Y-50196901D01*
X79971790Y-50196901D01*
X80086076Y-50234997D01*
X80124171Y-50273092D01*
X80809885Y-50463568D02*
X80809885Y-50996901D01*
X80619409Y-50158806D02*
X80428933Y-50730235D01*
X80924171Y-50730235D01*
G04 #@! TO.C,D1*
X70740385Y-44348330D02*
X69740385Y-44348330D01*
X69740385Y-43967377D01*
X69788005Y-43872139D01*
X69835624Y-43824520D01*
X69930862Y-43776901D01*
X70073719Y-43776901D01*
X70168957Y-43824520D01*
X70216576Y-43872139D01*
X70264195Y-43967377D01*
X70264195Y-44348330D01*
X69740385Y-43443568D02*
X70740385Y-43205473D01*
X70026100Y-43014997D01*
X70740385Y-42824520D01*
X69740385Y-42586425D01*
X70740385Y-41634044D02*
X70264195Y-41967377D01*
X70740385Y-42205473D02*
X69740385Y-42205473D01*
X69740385Y-41824520D01*
X69788005Y-41729282D01*
X69835624Y-41681663D01*
X69930862Y-41634044D01*
X70073719Y-41634044D01*
X70168957Y-41681663D01*
X70216576Y-41729282D01*
X70264195Y-41824520D01*
X70264195Y-42205473D01*
G04 #@! TO.C,J1*
X79292338Y-41941901D02*
X79292338Y-42513330D01*
X79254243Y-42627616D01*
X79178052Y-42703806D01*
X79063766Y-42741901D01*
X78987576Y-42741901D01*
X80092338Y-42741901D02*
X79635195Y-42741901D01*
X79863766Y-42741901D02*
X79863766Y-41941901D01*
X79787576Y-42056187D01*
X79711385Y-42132377D01*
X79635195Y-42170473D01*
G04 #@! TO.C,R1*
X68376671Y-44519901D02*
X68110005Y-44138949D01*
X67919528Y-44519901D02*
X67919528Y-43719901D01*
X68224290Y-43719901D01*
X68300481Y-43757997D01*
X68338576Y-43796092D01*
X68376671Y-43872282D01*
X68376671Y-43986568D01*
X68338576Y-44062758D01*
X68300481Y-44100854D01*
X68224290Y-44138949D01*
X67919528Y-44138949D01*
X69138576Y-44519901D02*
X68681433Y-44519901D01*
X68910005Y-44519901D02*
X68910005Y-43719901D01*
X68833814Y-43834187D01*
X68757624Y-43910377D01*
X68681433Y-43948473D01*
G04 #@! TO.C,R2*
X69138671Y-54552901D02*
X68872005Y-54171949D01*
X68681528Y-54552901D02*
X68681528Y-53752901D01*
X68986290Y-53752901D01*
X69062481Y-53790997D01*
X69100576Y-53829092D01*
X69138671Y-53905282D01*
X69138671Y-54019568D01*
X69100576Y-54095758D01*
X69062481Y-54133854D01*
X68986290Y-54171949D01*
X68681528Y-54171949D01*
X69443433Y-53829092D02*
X69481528Y-53790997D01*
X69557719Y-53752901D01*
X69748195Y-53752901D01*
X69824385Y-53790997D01*
X69862481Y-53829092D01*
X69900576Y-53905282D01*
X69900576Y-53981473D01*
X69862481Y-54095758D01*
X69405338Y-54552901D01*
X69900576Y-54552901D01*
G04 #@! TO.C,R3*
X69138671Y-55759401D02*
X68872005Y-55378449D01*
X68681528Y-55759401D02*
X68681528Y-54959401D01*
X68986290Y-54959401D01*
X69062481Y-54997497D01*
X69100576Y-55035592D01*
X69138671Y-55111782D01*
X69138671Y-55226068D01*
X69100576Y-55302258D01*
X69062481Y-55340354D01*
X68986290Y-55378449D01*
X68681528Y-55378449D01*
X69405338Y-54959401D02*
X69900576Y-54959401D01*
X69633909Y-55264163D01*
X69748195Y-55264163D01*
X69824385Y-55302258D01*
X69862481Y-55340354D01*
X69900576Y-55416544D01*
X69900576Y-55607020D01*
X69862481Y-55683211D01*
X69824385Y-55721306D01*
X69748195Y-55759401D01*
X69519624Y-55759401D01*
X69443433Y-55721306D01*
X69405338Y-55683211D01*
G04 #@! TO.C,R4*
X80060671Y-60521901D02*
X79794005Y-60140949D01*
X79603528Y-60521901D02*
X79603528Y-59721901D01*
X79908290Y-59721901D01*
X79984481Y-59759997D01*
X80022576Y-59798092D01*
X80060671Y-59874282D01*
X80060671Y-59988568D01*
X80022576Y-60064758D01*
X79984481Y-60102854D01*
X79908290Y-60140949D01*
X79603528Y-60140949D01*
X80746385Y-59988568D02*
X80746385Y-60521901D01*
X80555909Y-59683806D02*
X80365433Y-60255235D01*
X80860671Y-60255235D01*
G04 #@! TO.C,U2*
X74250481Y-53371901D02*
X74250481Y-54019520D01*
X74288576Y-54095711D01*
X74326671Y-54133806D01*
X74402862Y-54171901D01*
X74555243Y-54171901D01*
X74631433Y-54133806D01*
X74669528Y-54095711D01*
X74707624Y-54019520D01*
X74707624Y-53371901D01*
X75050481Y-53448092D02*
X75088576Y-53409997D01*
X75164766Y-53371901D01*
X75355243Y-53371901D01*
X75431433Y-53409997D01*
X75469528Y-53448092D01*
X75507624Y-53524282D01*
X75507624Y-53600473D01*
X75469528Y-53714758D01*
X75012385Y-54171901D01*
X75507624Y-54171901D01*
G04 #@! TO.C,D2*
X71756528Y-59358377D02*
X72327957Y-59358377D01*
X72042243Y-60358377D02*
X72042243Y-59358377D01*
X72566052Y-60358377D02*
X73089862Y-59691711D01*
X72566052Y-59691711D02*
X73089862Y-60358377D01*
G04 #@! TO.C,D3*
X77050766Y-60358377D02*
X76717433Y-59882187D01*
X76479338Y-60358377D02*
X76479338Y-59358377D01*
X76860290Y-59358377D01*
X76955528Y-59405997D01*
X77003147Y-59453616D01*
X77050766Y-59548854D01*
X77050766Y-59691711D01*
X77003147Y-59786949D01*
X76955528Y-59834568D01*
X76860290Y-59882187D01*
X76479338Y-59882187D01*
X77384100Y-60358377D02*
X77907909Y-59691711D01*
X77384100Y-59691711D02*
X77907909Y-60358377D01*
G04 #@! TO.C,R5*
X80949671Y-56393901D02*
X80683005Y-56012949D01*
X80492528Y-56393901D02*
X80492528Y-55593901D01*
X80797290Y-55593901D01*
X80873481Y-55631997D01*
X80911576Y-55670092D01*
X80949671Y-55746282D01*
X80949671Y-55860568D01*
X80911576Y-55936758D01*
X80873481Y-55974854D01*
X80797290Y-56012949D01*
X80492528Y-56012949D01*
X81673481Y-55593901D02*
X81292528Y-55593901D01*
X81254433Y-55974854D01*
X81292528Y-55936758D01*
X81368719Y-55898663D01*
X81559195Y-55898663D01*
X81635385Y-55936758D01*
X81673481Y-55974854D01*
X81711576Y-56051044D01*
X81711576Y-56241520D01*
X81673481Y-56317711D01*
X81635385Y-56355806D01*
X81559195Y-56393901D01*
X81368719Y-56393901D01*
X81292528Y-56355806D01*
X81254433Y-56317711D01*
G04 #@! TO.C,R6*
X79298671Y-56393901D02*
X79032005Y-56012949D01*
X78841528Y-56393901D02*
X78841528Y-55593901D01*
X79146290Y-55593901D01*
X79222481Y-55631997D01*
X79260576Y-55670092D01*
X79298671Y-55746282D01*
X79298671Y-55860568D01*
X79260576Y-55936758D01*
X79222481Y-55974854D01*
X79146290Y-56012949D01*
X78841528Y-56012949D01*
X79984385Y-55593901D02*
X79832005Y-55593901D01*
X79755814Y-55631997D01*
X79717719Y-55670092D01*
X79641528Y-55784377D01*
X79603433Y-55936758D01*
X79603433Y-56241520D01*
X79641528Y-56317711D01*
X79679624Y-56355806D01*
X79755814Y-56393901D01*
X79908195Y-56393901D01*
X79984385Y-56355806D01*
X80022481Y-56317711D01*
X80060576Y-56241520D01*
X80060576Y-56051044D01*
X80022481Y-55974854D01*
X79984385Y-55936758D01*
X79908195Y-55898663D01*
X79755814Y-55898663D01*
X79679624Y-55936758D01*
X79641528Y-55974854D01*
X79603433Y-56051044D01*
G04 #@! TO.C,U1*
X74250481Y-43719901D02*
X74250481Y-44367520D01*
X74288576Y-44443711D01*
X74326671Y-44481806D01*
X74402862Y-44519901D01*
X74555243Y-44519901D01*
X74631433Y-44481806D01*
X74669528Y-44443711D01*
X74707624Y-44367520D01*
X74707624Y-43719901D01*
X75507624Y-44519901D02*
X75050481Y-44519901D01*
X75279052Y-44519901D02*
X75279052Y-43719901D01*
X75202862Y-43834187D01*
X75126671Y-43910377D01*
X75050481Y-43948473D01*
G04 #@! TO.C,C1*
X52406664Y-44824711D02*
X52368569Y-44862806D01*
X52254283Y-44900901D01*
X52178093Y-44900901D01*
X52063807Y-44862806D01*
X51987617Y-44786616D01*
X51949521Y-44710425D01*
X51911426Y-44558044D01*
X51911426Y-44443758D01*
X51949521Y-44291377D01*
X51987617Y-44215187D01*
X52063807Y-44138997D01*
X52178093Y-44100901D01*
X52254283Y-44100901D01*
X52368569Y-44138997D01*
X52406664Y-44177092D01*
X53168569Y-44900901D02*
X52711426Y-44900901D01*
X52939998Y-44900901D02*
X52939998Y-44100901D01*
X52863807Y-44215187D01*
X52787617Y-44291377D01*
X52711426Y-44329473D01*
G04 #@! TO.C,C2*
X47326664Y-44824711D02*
X47288569Y-44862806D01*
X47174283Y-44900901D01*
X47098093Y-44900901D01*
X46983807Y-44862806D01*
X46907617Y-44786616D01*
X46869521Y-44710425D01*
X46831426Y-44558044D01*
X46831426Y-44443758D01*
X46869521Y-44291377D01*
X46907617Y-44215187D01*
X46983807Y-44138997D01*
X47098093Y-44100901D01*
X47174283Y-44100901D01*
X47288569Y-44138997D01*
X47326664Y-44177092D01*
X47631426Y-44177092D02*
X47669521Y-44138997D01*
X47745712Y-44100901D01*
X47936188Y-44100901D01*
X48012378Y-44138997D01*
X48050474Y-44177092D01*
X48088569Y-44253282D01*
X48088569Y-44329473D01*
X48050474Y-44443758D01*
X47593331Y-44900901D01*
X48088569Y-44900901D01*
G04 #@! TO.C,C3*
X44659664Y-50285711D02*
X44621569Y-50323806D01*
X44507283Y-50361901D01*
X44431093Y-50361901D01*
X44316807Y-50323806D01*
X44240617Y-50247616D01*
X44202521Y-50171425D01*
X44164426Y-50019044D01*
X44164426Y-49904758D01*
X44202521Y-49752377D01*
X44240617Y-49676187D01*
X44316807Y-49599997D01*
X44431093Y-49561901D01*
X44507283Y-49561901D01*
X44621569Y-49599997D01*
X44659664Y-49638092D01*
X44926331Y-49561901D02*
X45421569Y-49561901D01*
X45154902Y-49866663D01*
X45269188Y-49866663D01*
X45345378Y-49904758D01*
X45383474Y-49942854D01*
X45421569Y-50019044D01*
X45421569Y-50209520D01*
X45383474Y-50285711D01*
X45345378Y-50323806D01*
X45269188Y-50361901D01*
X45040617Y-50361901D01*
X44964426Y-50323806D01*
X44926331Y-50285711D01*
G04 #@! TO.C,C4*
X55264164Y-50920711D02*
X55226069Y-50958806D01*
X55111783Y-50996901D01*
X55035593Y-50996901D01*
X54921307Y-50958806D01*
X54845117Y-50882616D01*
X54807021Y-50806425D01*
X54768926Y-50654044D01*
X54768926Y-50539758D01*
X54807021Y-50387377D01*
X54845117Y-50311187D01*
X54921307Y-50234997D01*
X55035593Y-50196901D01*
X55111783Y-50196901D01*
X55226069Y-50234997D01*
X55264164Y-50273092D01*
X55949878Y-50463568D02*
X55949878Y-50996901D01*
X55759402Y-50158806D02*
X55568926Y-50730235D01*
X56064164Y-50730235D01*
G04 #@! TO.C,D1*
X45880378Y-44348330D02*
X44880378Y-44348330D01*
X44880378Y-43967377D01*
X44927998Y-43872139D01*
X44975617Y-43824520D01*
X45070855Y-43776901D01*
X45213712Y-43776901D01*
X45308950Y-43824520D01*
X45356569Y-43872139D01*
X45404188Y-43967377D01*
X45404188Y-44348330D01*
X44880378Y-43443568D02*
X45880378Y-43205473D01*
X45166093Y-43014997D01*
X45880378Y-42824520D01*
X44880378Y-42586425D01*
X45880378Y-41634044D02*
X45404188Y-41967377D01*
X45880378Y-42205473D02*
X44880378Y-42205473D01*
X44880378Y-41824520D01*
X44927998Y-41729282D01*
X44975617Y-41681663D01*
X45070855Y-41634044D01*
X45213712Y-41634044D01*
X45308950Y-41681663D01*
X45356569Y-41729282D01*
X45404188Y-41824520D01*
X45404188Y-42205473D01*
G04 #@! TO.C,J1*
X54432331Y-41941901D02*
X54432331Y-42513330D01*
X54394236Y-42627616D01*
X54318045Y-42703806D01*
X54203759Y-42741901D01*
X54127569Y-42741901D01*
X55232331Y-42741901D02*
X54775188Y-42741901D01*
X55003759Y-42741901D02*
X55003759Y-41941901D01*
X54927569Y-42056187D01*
X54851378Y-42132377D01*
X54775188Y-42170473D01*
G04 #@! TO.C,R1*
X43516664Y-44519901D02*
X43249998Y-44138949D01*
X43059521Y-44519901D02*
X43059521Y-43719901D01*
X43364283Y-43719901D01*
X43440474Y-43757997D01*
X43478569Y-43796092D01*
X43516664Y-43872282D01*
X43516664Y-43986568D01*
X43478569Y-44062758D01*
X43440474Y-44100854D01*
X43364283Y-44138949D01*
X43059521Y-44138949D01*
X44278569Y-44519901D02*
X43821426Y-44519901D01*
X44049998Y-44519901D02*
X44049998Y-43719901D01*
X43973807Y-43834187D01*
X43897617Y-43910377D01*
X43821426Y-43948473D01*
G04 #@! TO.C,R2*
X44278664Y-54552901D02*
X44011998Y-54171949D01*
X43821521Y-54552901D02*
X43821521Y-53752901D01*
X44126283Y-53752901D01*
X44202474Y-53790997D01*
X44240569Y-53829092D01*
X44278664Y-53905282D01*
X44278664Y-54019568D01*
X44240569Y-54095758D01*
X44202474Y-54133854D01*
X44126283Y-54171949D01*
X43821521Y-54171949D01*
X44583426Y-53829092D02*
X44621521Y-53790997D01*
X44697712Y-53752901D01*
X44888188Y-53752901D01*
X44964378Y-53790997D01*
X45002474Y-53829092D01*
X45040569Y-53905282D01*
X45040569Y-53981473D01*
X45002474Y-54095758D01*
X44545331Y-54552901D01*
X45040569Y-54552901D01*
G04 #@! TO.C,R3*
X44278664Y-55759401D02*
X44011998Y-55378449D01*
X43821521Y-55759401D02*
X43821521Y-54959401D01*
X44126283Y-54959401D01*
X44202474Y-54997497D01*
X44240569Y-55035592D01*
X44278664Y-55111782D01*
X44278664Y-55226068D01*
X44240569Y-55302258D01*
X44202474Y-55340354D01*
X44126283Y-55378449D01*
X43821521Y-55378449D01*
X44545331Y-54959401D02*
X45040569Y-54959401D01*
X44773902Y-55264163D01*
X44888188Y-55264163D01*
X44964378Y-55302258D01*
X45002474Y-55340354D01*
X45040569Y-55416544D01*
X45040569Y-55607020D01*
X45002474Y-55683211D01*
X44964378Y-55721306D01*
X44888188Y-55759401D01*
X44659617Y-55759401D01*
X44583426Y-55721306D01*
X44545331Y-55683211D01*
G04 #@! TO.C,R4*
X55200664Y-60521901D02*
X54933998Y-60140949D01*
X54743521Y-60521901D02*
X54743521Y-59721901D01*
X55048283Y-59721901D01*
X55124474Y-59759997D01*
X55162569Y-59798092D01*
X55200664Y-59874282D01*
X55200664Y-59988568D01*
X55162569Y-60064758D01*
X55124474Y-60102854D01*
X55048283Y-60140949D01*
X54743521Y-60140949D01*
X55886378Y-59988568D02*
X55886378Y-60521901D01*
X55695902Y-59683806D02*
X55505426Y-60255235D01*
X56000664Y-60255235D01*
G04 #@! TO.C,U2*
X49390474Y-53371901D02*
X49390474Y-54019520D01*
X49428569Y-54095711D01*
X49466664Y-54133806D01*
X49542855Y-54171901D01*
X49695236Y-54171901D01*
X49771426Y-54133806D01*
X49809521Y-54095711D01*
X49847617Y-54019520D01*
X49847617Y-53371901D01*
X50190474Y-53448092D02*
X50228569Y-53409997D01*
X50304759Y-53371901D01*
X50495236Y-53371901D01*
X50571426Y-53409997D01*
X50609521Y-53448092D01*
X50647617Y-53524282D01*
X50647617Y-53600473D01*
X50609521Y-53714758D01*
X50152378Y-54171901D01*
X50647617Y-54171901D01*
G04 #@! TO.C,D2*
X46896521Y-59358377D02*
X47467950Y-59358377D01*
X47182236Y-60358377D02*
X47182236Y-59358377D01*
X47706045Y-60358377D02*
X48229855Y-59691711D01*
X47706045Y-59691711D02*
X48229855Y-60358377D01*
G04 #@! TO.C,D3*
X52190759Y-60358377D02*
X51857426Y-59882187D01*
X51619331Y-60358377D02*
X51619331Y-59358377D01*
X52000283Y-59358377D01*
X52095521Y-59405997D01*
X52143140Y-59453616D01*
X52190759Y-59548854D01*
X52190759Y-59691711D01*
X52143140Y-59786949D01*
X52095521Y-59834568D01*
X52000283Y-59882187D01*
X51619331Y-59882187D01*
X52524093Y-60358377D02*
X53047902Y-59691711D01*
X52524093Y-59691711D02*
X53047902Y-60358377D01*
G04 #@! TO.C,R5*
X56089664Y-56393901D02*
X55822998Y-56012949D01*
X55632521Y-56393901D02*
X55632521Y-55593901D01*
X55937283Y-55593901D01*
X56013474Y-55631997D01*
X56051569Y-55670092D01*
X56089664Y-55746282D01*
X56089664Y-55860568D01*
X56051569Y-55936758D01*
X56013474Y-55974854D01*
X55937283Y-56012949D01*
X55632521Y-56012949D01*
X56813474Y-55593901D02*
X56432521Y-55593901D01*
X56394426Y-55974854D01*
X56432521Y-55936758D01*
X56508712Y-55898663D01*
X56699188Y-55898663D01*
X56775378Y-55936758D01*
X56813474Y-55974854D01*
X56851569Y-56051044D01*
X56851569Y-56241520D01*
X56813474Y-56317711D01*
X56775378Y-56355806D01*
X56699188Y-56393901D01*
X56508712Y-56393901D01*
X56432521Y-56355806D01*
X56394426Y-56317711D01*
G04 #@! TO.C,R6*
X54438664Y-56393901D02*
X54171998Y-56012949D01*
X53981521Y-56393901D02*
X53981521Y-55593901D01*
X54286283Y-55593901D01*
X54362474Y-55631997D01*
X54400569Y-55670092D01*
X54438664Y-55746282D01*
X54438664Y-55860568D01*
X54400569Y-55936758D01*
X54362474Y-55974854D01*
X54286283Y-56012949D01*
X53981521Y-56012949D01*
X55124378Y-55593901D02*
X54971998Y-55593901D01*
X54895807Y-55631997D01*
X54857712Y-55670092D01*
X54781521Y-55784377D01*
X54743426Y-55936758D01*
X54743426Y-56241520D01*
X54781521Y-56317711D01*
X54819617Y-56355806D01*
X54895807Y-56393901D01*
X55048188Y-56393901D01*
X55124378Y-56355806D01*
X55162474Y-56317711D01*
X55200569Y-56241520D01*
X55200569Y-56051044D01*
X55162474Y-55974854D01*
X55124378Y-55936758D01*
X55048188Y-55898663D01*
X54895807Y-55898663D01*
X54819617Y-55936758D01*
X54781521Y-55974854D01*
X54743426Y-56051044D01*
G04 #@! TO.C,U1*
X49390474Y-43719901D02*
X49390474Y-44367520D01*
X49428569Y-44443711D01*
X49466664Y-44481806D01*
X49542855Y-44519901D01*
X49695236Y-44519901D01*
X49771426Y-44481806D01*
X49809521Y-44443711D01*
X49847617Y-44367520D01*
X49847617Y-43719901D01*
X50647617Y-44519901D02*
X50190474Y-44519901D01*
X50419045Y-44519901D02*
X50419045Y-43719901D01*
X50342855Y-43834187D01*
X50266664Y-43910377D01*
X50190474Y-43948473D01*
G04 #@! TD*
M02*
