G04 #@! TF.GenerationSoftware,KiCad,Pcbnew,5.1.5+dfsg1-2build2*
G04 #@! TF.CreationDate,2021-09-30T13:46:45+00:00*
G04 #@! TF.ProjectId,mcp2221a-breakout-panel,6d637032-3232-4316-912d-627265616b6f,rev?*
G04 #@! TF.SameCoordinates,Original*
G04 #@! TF.FileFunction,Profile,NP*
%FSLAX46Y46*%
G04 Gerber Fmt 4.6, Leading zero omitted, Abs format (unit mm)*
G04 Created by KiCad (PCBNEW 5.1.5+dfsg1-2build2) date 2021-09-30 13:46:45*
%MOMM*%
%LPD*%
G04 APERTURE LIST*
G04 #@! TA.AperFunction,Profile*
%ADD10C,0.100000*%
G04 #@! TD*
G04 APERTURE END LIST*
D10*
X36580000Y-44010000D02*
X36580000Y-37550000D01*
X36590000Y-44110000D02*
X36580000Y-44010000D01*
X36600000Y-44200000D02*
X36590000Y-44110000D01*
X36620000Y-44300000D02*
X36600000Y-44200000D01*
X36660000Y-44390000D02*
X36620000Y-44300000D01*
X36700000Y-44480000D02*
X36660000Y-44390000D01*
X36750000Y-44560000D02*
X36700000Y-44480000D01*
X36810000Y-44640000D02*
X36750000Y-44560000D01*
X36870000Y-44710000D02*
X36810000Y-44640000D01*
X36940000Y-44780000D02*
X36870000Y-44710000D01*
X37020000Y-44830000D02*
X36940000Y-44780000D01*
X37100000Y-44880000D02*
X37020000Y-44830000D01*
X37190000Y-44920000D02*
X37100000Y-44880000D01*
X37280000Y-44960000D02*
X37190000Y-44920000D01*
X37380000Y-44980000D02*
X37280000Y-44960000D01*
X37470000Y-45000000D02*
X37380000Y-44980000D01*
X37570000Y-45000000D02*
X37470000Y-45000000D01*
X37680000Y-45000000D02*
X37570000Y-45000000D01*
X37770000Y-44980000D02*
X37680000Y-45000000D01*
X37870000Y-44960000D02*
X37770000Y-44980000D01*
X37960000Y-44920000D02*
X37870000Y-44960000D01*
X38050000Y-44880000D02*
X37960000Y-44920000D01*
X38130000Y-44830000D02*
X38050000Y-44880000D01*
X38210000Y-44780000D02*
X38130000Y-44830000D01*
X38280000Y-44710000D02*
X38210000Y-44780000D01*
X38340000Y-44640000D02*
X38280000Y-44710000D01*
X38400000Y-44560000D02*
X38340000Y-44640000D01*
X38450000Y-44480000D02*
X38400000Y-44560000D01*
X38490000Y-44390000D02*
X38450000Y-44480000D01*
X38530000Y-44300000D02*
X38490000Y-44390000D01*
X38550000Y-44200000D02*
X38530000Y-44300000D01*
X38560000Y-44110000D02*
X38550000Y-44200000D01*
X38570000Y-44010000D02*
X38560000Y-44110000D01*
X38570000Y-41110000D02*
X38570000Y-44010000D01*
X38570000Y-40990000D02*
X38570000Y-41110000D01*
X38580000Y-40850000D02*
X38570000Y-40990000D01*
X38600000Y-40730000D02*
X38580000Y-40850000D01*
X38620000Y-40600000D02*
X38600000Y-40730000D01*
X38650000Y-40470000D02*
X38620000Y-40600000D01*
X38690000Y-40350000D02*
X38650000Y-40470000D01*
X38730000Y-40230000D02*
X38690000Y-40350000D01*
X38770000Y-40110000D02*
X38730000Y-40230000D01*
X38830000Y-39990000D02*
X38770000Y-40110000D01*
X38890000Y-39880000D02*
X38830000Y-39990000D01*
X38950000Y-39770000D02*
X38890000Y-39880000D01*
X39020000Y-39660000D02*
X38950000Y-39770000D01*
X39100000Y-39550000D02*
X39020000Y-39660000D01*
X39180000Y-39450000D02*
X39100000Y-39550000D01*
X39260000Y-39360000D02*
X39180000Y-39450000D01*
X39360000Y-39260000D02*
X39260000Y-39360000D01*
X39460000Y-39180000D02*
X39360000Y-39260000D01*
X39560000Y-39100000D02*
X39460000Y-39180000D01*
X39660000Y-39020000D02*
X39560000Y-39100000D01*
X39760000Y-38960000D02*
X39660000Y-39020000D01*
X39880000Y-38890000D02*
X39760000Y-38960000D01*
X40000000Y-38830000D02*
X39880000Y-38890000D01*
X40110000Y-38780000D02*
X40000000Y-38830000D01*
X40220000Y-38730000D02*
X40110000Y-38780000D01*
X40350000Y-38690000D02*
X40220000Y-38730000D01*
X40480000Y-38650000D02*
X40350000Y-38690000D01*
X40600000Y-38620000D02*
X40480000Y-38650000D01*
X40720000Y-38600000D02*
X40600000Y-38620000D01*
X40860000Y-38580000D02*
X40720000Y-38600000D01*
X40980000Y-38570000D02*
X40860000Y-38580000D01*
X41110000Y-38570000D02*
X40980000Y-38570000D01*
X46510000Y-38570000D02*
X41110000Y-38570000D01*
X46610000Y-38560000D02*
X46510000Y-38570000D01*
X46700000Y-38550000D02*
X46610000Y-38560000D01*
X46800000Y-38530000D02*
X46700000Y-38550000D01*
X46890000Y-38490000D02*
X46800000Y-38530000D01*
X46980000Y-38450000D02*
X46890000Y-38490000D01*
X47060000Y-38400000D02*
X46980000Y-38450000D01*
X47140000Y-38340000D02*
X47060000Y-38400000D01*
X47210000Y-38280000D02*
X47140000Y-38340000D01*
X47280000Y-38210000D02*
X47210000Y-38280000D01*
X47330000Y-38130000D02*
X47280000Y-38210000D01*
X47380000Y-38050000D02*
X47330000Y-38130000D01*
X47420000Y-37960000D02*
X47380000Y-38050000D01*
X47460000Y-37870000D02*
X47420000Y-37960000D01*
X47480000Y-37770000D02*
X47460000Y-37870000D01*
X47500000Y-37680000D02*
X47480000Y-37770000D01*
X47500000Y-37580000D02*
X47500000Y-37680000D01*
X47500000Y-37550000D02*
X47500000Y-37580000D01*
X47500000Y-37450000D02*
X47500000Y-37550000D01*
X47480000Y-37360000D02*
X47500000Y-37450000D01*
X47460000Y-37260000D02*
X47480000Y-37360000D01*
X47420000Y-37170000D02*
X47460000Y-37260000D01*
X47380000Y-37080000D02*
X47420000Y-37170000D01*
X47330000Y-37000000D02*
X47380000Y-37080000D01*
X47280000Y-36920000D02*
X47330000Y-37000000D01*
X47210000Y-36850000D02*
X47280000Y-36920000D01*
X47140000Y-36790000D02*
X47210000Y-36850000D01*
X47060000Y-36730000D02*
X47140000Y-36790000D01*
X46980000Y-36680000D02*
X47060000Y-36730000D01*
X46890000Y-36640000D02*
X46980000Y-36680000D01*
X46800000Y-36600000D02*
X46890000Y-36640000D01*
X46700000Y-36580000D02*
X46800000Y-36600000D01*
X46610000Y-36570000D02*
X46700000Y-36580000D01*
X46510000Y-36560000D02*
X46610000Y-36570000D01*
X37570000Y-36560000D02*
X46510000Y-36560000D01*
X37470000Y-36570000D02*
X37570000Y-36560000D01*
X37380000Y-36580000D02*
X37470000Y-36570000D01*
X37280000Y-36600000D02*
X37380000Y-36580000D01*
X37190000Y-36640000D02*
X37280000Y-36600000D01*
X37100000Y-36680000D02*
X37190000Y-36640000D01*
X37020000Y-36730000D02*
X37100000Y-36680000D01*
X36940000Y-36790000D02*
X37020000Y-36730000D01*
X36870000Y-36850000D02*
X36940000Y-36790000D01*
X36810000Y-36920000D02*
X36870000Y-36850000D01*
X36750000Y-37000000D02*
X36810000Y-36920000D01*
X36700000Y-37080000D02*
X36750000Y-37000000D01*
X36660000Y-37170000D02*
X36700000Y-37080000D01*
X36620000Y-37260000D02*
X36660000Y-37170000D01*
X36600000Y-37360000D02*
X36620000Y-37260000D01*
X36590000Y-37450000D02*
X36600000Y-37360000D01*
X36580000Y-37550000D02*
X36590000Y-37450000D01*
X37680000Y-69860000D02*
X37570000Y-69860000D01*
X37770000Y-69840000D02*
X37680000Y-69860000D01*
X37870000Y-69820000D02*
X37770000Y-69840000D01*
X37960000Y-69780000D02*
X37870000Y-69820000D01*
X38050000Y-69740000D02*
X37960000Y-69780000D01*
X38130000Y-69690000D02*
X38050000Y-69740000D01*
X38210000Y-69640000D02*
X38130000Y-69690000D01*
X38280000Y-69570000D02*
X38210000Y-69640000D01*
X38340000Y-69500000D02*
X38280000Y-69570000D01*
X38400000Y-69420000D02*
X38340000Y-69500000D01*
X38450000Y-69340000D02*
X38400000Y-69420000D01*
X38490000Y-69250000D02*
X38450000Y-69340000D01*
X38530000Y-69160000D02*
X38490000Y-69250000D01*
X38550000Y-69060000D02*
X38530000Y-69160000D01*
X38560000Y-68970000D02*
X38550000Y-69060000D01*
X38570000Y-68870000D02*
X38560000Y-68970000D01*
X38570000Y-65970000D02*
X38570000Y-68870000D01*
X38570000Y-65850000D02*
X38570000Y-65970000D01*
X38580000Y-65710000D02*
X38570000Y-65850000D01*
X38600000Y-65590000D02*
X38580000Y-65710000D01*
X38620000Y-65460000D02*
X38600000Y-65590000D01*
X38650000Y-65330000D02*
X38620000Y-65460000D01*
X38690000Y-65210000D02*
X38650000Y-65330000D01*
X38730000Y-65090000D02*
X38690000Y-65210000D01*
X38770000Y-64970000D02*
X38730000Y-65090000D01*
X38830000Y-64850000D02*
X38770000Y-64970000D01*
X38890000Y-64740000D02*
X38830000Y-64850000D01*
X38950000Y-64630000D02*
X38890000Y-64740000D01*
X39020000Y-64520000D02*
X38950000Y-64630000D01*
X39100000Y-64410000D02*
X39020000Y-64520000D01*
X39180000Y-64320000D02*
X39100000Y-64410000D01*
X39260000Y-64220000D02*
X39180000Y-64320000D01*
X39360000Y-64120000D02*
X39260000Y-64220000D01*
X39460000Y-64040000D02*
X39360000Y-64120000D01*
X39560000Y-63960000D02*
X39460000Y-64040000D01*
X39660000Y-63880000D02*
X39560000Y-63960000D01*
X39760000Y-63820000D02*
X39660000Y-63880000D01*
X39880000Y-63750000D02*
X39760000Y-63820000D01*
X40000000Y-63690000D02*
X39880000Y-63750000D01*
X40110000Y-63640000D02*
X40000000Y-63690000D01*
X40220000Y-63590000D02*
X40110000Y-63640000D01*
X40350000Y-63550000D02*
X40220000Y-63590000D01*
X40480000Y-63510000D02*
X40350000Y-63550000D01*
X40600000Y-63480000D02*
X40480000Y-63510000D01*
X40720000Y-63460000D02*
X40600000Y-63480000D01*
X40860000Y-63440000D02*
X40720000Y-63460000D01*
X40980000Y-63430000D02*
X40860000Y-63440000D01*
X41110000Y-63430000D02*
X40980000Y-63430000D01*
X46510000Y-63430000D02*
X41110000Y-63430000D01*
X46610000Y-63420000D02*
X46510000Y-63430000D01*
X46700000Y-63410000D02*
X46610000Y-63420000D01*
X46800000Y-63390000D02*
X46700000Y-63410000D01*
X46890000Y-63350000D02*
X46800000Y-63390000D01*
X46980000Y-63310000D02*
X46890000Y-63350000D01*
X47060000Y-63260000D02*
X46980000Y-63310000D01*
X47140000Y-63200000D02*
X47060000Y-63260000D01*
X47210000Y-63140000D02*
X47140000Y-63200000D01*
X47280000Y-63070000D02*
X47210000Y-63140000D01*
X47330000Y-62990000D02*
X47280000Y-63070000D01*
X47380000Y-62910000D02*
X47330000Y-62990000D01*
X47420000Y-62820000D02*
X47380000Y-62910000D01*
X47460000Y-62730000D02*
X47420000Y-62820000D01*
X47480000Y-62630000D02*
X47460000Y-62730000D01*
X47500000Y-62540000D02*
X47480000Y-62630000D01*
X47500000Y-62440000D02*
X47500000Y-62540000D01*
X47500000Y-62320000D02*
X47500000Y-62440000D01*
X47480000Y-62230000D02*
X47500000Y-62320000D01*
X47460000Y-62130000D02*
X47480000Y-62230000D01*
X47420000Y-62040000D02*
X47460000Y-62130000D01*
X47380000Y-61950000D02*
X47420000Y-62040000D01*
X47330000Y-61870000D02*
X47380000Y-61950000D01*
X47280000Y-61790000D02*
X47330000Y-61870000D01*
X47210000Y-61720000D02*
X47280000Y-61790000D01*
X47140000Y-61660000D02*
X47210000Y-61720000D01*
X47060000Y-61600000D02*
X47140000Y-61660000D01*
X46980000Y-61550000D02*
X47060000Y-61600000D01*
X46890000Y-61510000D02*
X46980000Y-61550000D01*
X46800000Y-61470000D02*
X46890000Y-61510000D01*
X46700000Y-61450000D02*
X46800000Y-61470000D01*
X46610000Y-61440000D02*
X46700000Y-61450000D01*
X46510000Y-61430000D02*
X46610000Y-61440000D01*
X41110000Y-61430000D02*
X46510000Y-61430000D01*
X40980000Y-61430000D02*
X41110000Y-61430000D01*
X40860000Y-61420000D02*
X40980000Y-61430000D01*
X40730000Y-61400000D02*
X40860000Y-61420000D01*
X40590000Y-61380000D02*
X40730000Y-61400000D01*
X40470000Y-61350000D02*
X40590000Y-61380000D01*
X40360000Y-61320000D02*
X40470000Y-61350000D01*
X40220000Y-61270000D02*
X40360000Y-61320000D01*
X40110000Y-61230000D02*
X40220000Y-61270000D01*
X40000000Y-61170000D02*
X40110000Y-61230000D01*
X39880000Y-61110000D02*
X40000000Y-61170000D01*
X39760000Y-61040000D02*
X39880000Y-61110000D01*
X39660000Y-60980000D02*
X39760000Y-61040000D01*
X39560000Y-60900000D02*
X39660000Y-60980000D01*
X39450000Y-60820000D02*
X39560000Y-60900000D01*
X39360000Y-60740000D02*
X39450000Y-60820000D01*
X39260000Y-60640000D02*
X39360000Y-60740000D01*
X39180000Y-60540000D02*
X39260000Y-60640000D01*
X39100000Y-60450000D02*
X39180000Y-60540000D01*
X39020000Y-60340000D02*
X39100000Y-60450000D01*
X38950000Y-60230000D02*
X39020000Y-60340000D01*
X38890000Y-60120000D02*
X38950000Y-60230000D01*
X38830000Y-60010000D02*
X38890000Y-60120000D01*
X38780000Y-59890000D02*
X38830000Y-60010000D01*
X38730000Y-59780000D02*
X38780000Y-59890000D01*
X38680000Y-59640000D02*
X38730000Y-59780000D01*
X38650000Y-59530000D02*
X38680000Y-59640000D01*
X38620000Y-59400000D02*
X38650000Y-59530000D01*
X38600000Y-59270000D02*
X38620000Y-59400000D01*
X38580000Y-59150000D02*
X38600000Y-59270000D01*
X38570000Y-59010000D02*
X38580000Y-59150000D01*
X38570000Y-58890000D02*
X38570000Y-59010000D01*
X38570000Y-55990000D02*
X38570000Y-58890000D01*
X38560000Y-55890000D02*
X38570000Y-55990000D01*
X38550000Y-55800000D02*
X38560000Y-55890000D01*
X38530000Y-55700000D02*
X38550000Y-55800000D01*
X38490000Y-55610000D02*
X38530000Y-55700000D01*
X38450000Y-55520000D02*
X38490000Y-55610000D01*
X38400000Y-55440000D02*
X38450000Y-55520000D01*
X38340000Y-55360000D02*
X38400000Y-55440000D01*
X38280000Y-55290000D02*
X38340000Y-55360000D01*
X38210000Y-55220000D02*
X38280000Y-55290000D01*
X38130000Y-55170000D02*
X38210000Y-55220000D01*
X38050000Y-55120000D02*
X38130000Y-55170000D01*
X37960000Y-55080000D02*
X38050000Y-55120000D01*
X37870000Y-55040000D02*
X37960000Y-55080000D01*
X37770000Y-55020000D02*
X37870000Y-55040000D01*
X37680000Y-55000000D02*
X37770000Y-55020000D01*
X37580000Y-55000000D02*
X37680000Y-55000000D01*
X37470000Y-55000000D02*
X37580000Y-55000000D01*
X37380000Y-55020000D02*
X37470000Y-55000000D01*
X37280000Y-55040000D02*
X37380000Y-55020000D01*
X37190000Y-55080000D02*
X37280000Y-55040000D01*
X37100000Y-55120000D02*
X37190000Y-55080000D01*
X37020000Y-55170000D02*
X37100000Y-55120000D01*
X36940000Y-55220000D02*
X37020000Y-55170000D01*
X36870000Y-55290000D02*
X36940000Y-55220000D01*
X36810000Y-55360000D02*
X36870000Y-55290000D01*
X36750000Y-55440000D02*
X36810000Y-55360000D01*
X36700000Y-55520000D02*
X36750000Y-55440000D01*
X36660000Y-55610000D02*
X36700000Y-55520000D01*
X36620000Y-55700000D02*
X36660000Y-55610000D01*
X36600000Y-55800000D02*
X36620000Y-55700000D01*
X36590000Y-55890000D02*
X36600000Y-55800000D01*
X36580000Y-55990000D02*
X36590000Y-55890000D01*
X36580000Y-68870000D02*
X36580000Y-55990000D01*
X36590000Y-68970000D02*
X36580000Y-68870000D01*
X36600000Y-69060000D02*
X36590000Y-68970000D01*
X36620000Y-69160000D02*
X36600000Y-69060000D01*
X36660000Y-69250000D02*
X36620000Y-69160000D01*
X36700000Y-69340000D02*
X36660000Y-69250000D01*
X36750000Y-69420000D02*
X36700000Y-69340000D01*
X36810000Y-69500000D02*
X36750000Y-69420000D01*
X36870000Y-69570000D02*
X36810000Y-69500000D01*
X36940000Y-69640000D02*
X36870000Y-69570000D01*
X37020000Y-69690000D02*
X36940000Y-69640000D01*
X37100000Y-69740000D02*
X37020000Y-69690000D01*
X37190000Y-69780000D02*
X37100000Y-69740000D01*
X37280000Y-69820000D02*
X37190000Y-69780000D01*
X37380000Y-69840000D02*
X37280000Y-69820000D01*
X37470000Y-69860000D02*
X37380000Y-69840000D01*
X37570000Y-69860000D02*
X37470000Y-69860000D01*
X37680000Y-94720000D02*
X37570000Y-94720000D01*
X37770000Y-94700000D02*
X37680000Y-94720000D01*
X37870000Y-94680000D02*
X37770000Y-94700000D01*
X37960000Y-94640000D02*
X37870000Y-94680000D01*
X38050000Y-94600000D02*
X37960000Y-94640000D01*
X38130000Y-94550000D02*
X38050000Y-94600000D01*
X38210000Y-94500000D02*
X38130000Y-94550000D01*
X38280000Y-94430000D02*
X38210000Y-94500000D01*
X38340000Y-94360000D02*
X38280000Y-94430000D01*
X38400000Y-94280000D02*
X38340000Y-94360000D01*
X38450000Y-94200000D02*
X38400000Y-94280000D01*
X38490000Y-94110000D02*
X38450000Y-94200000D01*
X38530000Y-94020000D02*
X38490000Y-94110000D01*
X38550000Y-93920000D02*
X38530000Y-94020000D01*
X38560000Y-93830000D02*
X38550000Y-93920000D01*
X38570000Y-93730000D02*
X38560000Y-93830000D01*
X38570000Y-90830000D02*
X38570000Y-93730000D01*
X38570000Y-90710000D02*
X38570000Y-90830000D01*
X38580000Y-90570000D02*
X38570000Y-90710000D01*
X38600000Y-90450000D02*
X38580000Y-90570000D01*
X38620000Y-90320000D02*
X38600000Y-90450000D01*
X38650000Y-90190000D02*
X38620000Y-90320000D01*
X38690000Y-90070000D02*
X38650000Y-90190000D01*
X38730000Y-89950000D02*
X38690000Y-90070000D01*
X38770000Y-89830000D02*
X38730000Y-89950000D01*
X38830000Y-89710000D02*
X38770000Y-89830000D01*
X38890000Y-89600000D02*
X38830000Y-89710000D01*
X38950000Y-89490000D02*
X38890000Y-89600000D01*
X39020000Y-89380000D02*
X38950000Y-89490000D01*
X39100000Y-89270000D02*
X39020000Y-89380000D01*
X39180000Y-89180000D02*
X39100000Y-89270000D01*
X39260000Y-89080000D02*
X39180000Y-89180000D01*
X39360000Y-88980000D02*
X39260000Y-89080000D01*
X39460000Y-88900000D02*
X39360000Y-88980000D01*
X39560000Y-88820000D02*
X39460000Y-88900000D01*
X39660000Y-88740000D02*
X39560000Y-88820000D01*
X39760000Y-88680000D02*
X39660000Y-88740000D01*
X39880000Y-88610000D02*
X39760000Y-88680000D01*
X40000000Y-88550000D02*
X39880000Y-88610000D01*
X40110000Y-88500000D02*
X40000000Y-88550000D01*
X40220000Y-88450000D02*
X40110000Y-88500000D01*
X40350000Y-88410000D02*
X40220000Y-88450000D01*
X40480000Y-88370000D02*
X40350000Y-88410000D01*
X40600000Y-88340000D02*
X40480000Y-88370000D01*
X40720000Y-88320000D02*
X40600000Y-88340000D01*
X40860000Y-88300000D02*
X40720000Y-88320000D01*
X40980000Y-88290000D02*
X40860000Y-88300000D01*
X41110000Y-88290000D02*
X40980000Y-88290000D01*
X46510000Y-88290000D02*
X41110000Y-88290000D01*
X46610000Y-88280000D02*
X46510000Y-88290000D01*
X46700000Y-88270000D02*
X46610000Y-88280000D01*
X46800000Y-88250000D02*
X46700000Y-88270000D01*
X46890000Y-88210000D02*
X46800000Y-88250000D01*
X46980000Y-88170000D02*
X46890000Y-88210000D01*
X47060000Y-88120000D02*
X46980000Y-88170000D01*
X47140000Y-88060000D02*
X47060000Y-88120000D01*
X47210000Y-88000000D02*
X47140000Y-88060000D01*
X47280000Y-87930000D02*
X47210000Y-88000000D01*
X47330000Y-87850000D02*
X47280000Y-87930000D01*
X47380000Y-87770000D02*
X47330000Y-87850000D01*
X47420000Y-87680000D02*
X47380000Y-87770000D01*
X47460000Y-87590000D02*
X47420000Y-87680000D01*
X47480000Y-87490000D02*
X47460000Y-87590000D01*
X47500000Y-87400000D02*
X47480000Y-87490000D01*
X47500000Y-87300000D02*
X47500000Y-87400000D01*
X47500000Y-87180000D02*
X47500000Y-87300000D01*
X47480000Y-87090000D02*
X47500000Y-87180000D01*
X47460000Y-86990000D02*
X47480000Y-87090000D01*
X47420000Y-86900000D02*
X47460000Y-86990000D01*
X47380000Y-86810000D02*
X47420000Y-86900000D01*
X47330000Y-86730000D02*
X47380000Y-86810000D01*
X47280000Y-86650000D02*
X47330000Y-86730000D01*
X47210000Y-86580000D02*
X47280000Y-86650000D01*
X47140000Y-86520000D02*
X47210000Y-86580000D01*
X47060000Y-86460000D02*
X47140000Y-86520000D01*
X46980000Y-86410000D02*
X47060000Y-86460000D01*
X46890000Y-86370000D02*
X46980000Y-86410000D01*
X46800000Y-86330000D02*
X46890000Y-86370000D01*
X46700000Y-86310000D02*
X46800000Y-86330000D01*
X46610000Y-86300000D02*
X46700000Y-86310000D01*
X46510000Y-86290000D02*
X46610000Y-86300000D01*
X41110000Y-86290000D02*
X46510000Y-86290000D01*
X40980000Y-86290000D02*
X41110000Y-86290000D01*
X40860000Y-86280000D02*
X40980000Y-86290000D01*
X40730000Y-86260000D02*
X40860000Y-86280000D01*
X40590000Y-86240000D02*
X40730000Y-86260000D01*
X40470000Y-86210000D02*
X40590000Y-86240000D01*
X40360000Y-86180000D02*
X40470000Y-86210000D01*
X40220000Y-86130000D02*
X40360000Y-86180000D01*
X40110000Y-86090000D02*
X40220000Y-86130000D01*
X40000000Y-86030000D02*
X40110000Y-86090000D01*
X39880000Y-85970000D02*
X40000000Y-86030000D01*
X39760000Y-85900000D02*
X39880000Y-85970000D01*
X39660000Y-85840000D02*
X39760000Y-85900000D01*
X39560000Y-85760000D02*
X39660000Y-85840000D01*
X39450000Y-85680000D02*
X39560000Y-85760000D01*
X39360000Y-85600000D02*
X39450000Y-85680000D01*
X39260000Y-85500000D02*
X39360000Y-85600000D01*
X39180000Y-85400000D02*
X39260000Y-85500000D01*
X39100000Y-85310000D02*
X39180000Y-85400000D01*
X39020000Y-85200000D02*
X39100000Y-85310000D01*
X38950000Y-85090000D02*
X39020000Y-85200000D01*
X38890000Y-84980000D02*
X38950000Y-85090000D01*
X38830000Y-84870000D02*
X38890000Y-84980000D01*
X38780000Y-84750000D02*
X38830000Y-84870000D01*
X38730000Y-84640000D02*
X38780000Y-84750000D01*
X38680000Y-84500000D02*
X38730000Y-84640000D01*
X38650000Y-84390000D02*
X38680000Y-84500000D01*
X38620000Y-84260000D02*
X38650000Y-84390000D01*
X38600000Y-84130000D02*
X38620000Y-84260000D01*
X38580000Y-84010000D02*
X38600000Y-84130000D01*
X38570000Y-83870000D02*
X38580000Y-84010000D01*
X38570000Y-83750000D02*
X38570000Y-83870000D01*
X38570000Y-80850000D02*
X38570000Y-83750000D01*
X38560000Y-80750000D02*
X38570000Y-80850000D01*
X38550000Y-80660000D02*
X38560000Y-80750000D01*
X38530000Y-80560000D02*
X38550000Y-80660000D01*
X38490000Y-80470000D02*
X38530000Y-80560000D01*
X38450000Y-80380000D02*
X38490000Y-80470000D01*
X38400000Y-80300000D02*
X38450000Y-80380000D01*
X38340000Y-80220000D02*
X38400000Y-80300000D01*
X38280000Y-80150000D02*
X38340000Y-80220000D01*
X38210000Y-80080000D02*
X38280000Y-80150000D01*
X38130000Y-80030000D02*
X38210000Y-80080000D01*
X38050000Y-79980000D02*
X38130000Y-80030000D01*
X37960000Y-79940000D02*
X38050000Y-79980000D01*
X37870000Y-79900000D02*
X37960000Y-79940000D01*
X37770000Y-79880000D02*
X37870000Y-79900000D01*
X37680000Y-79860000D02*
X37770000Y-79880000D01*
X37580000Y-79860000D02*
X37680000Y-79860000D01*
X37470000Y-79860000D02*
X37580000Y-79860000D01*
X37380000Y-79880000D02*
X37470000Y-79860000D01*
X37280000Y-79900000D02*
X37380000Y-79880000D01*
X37190000Y-79940000D02*
X37280000Y-79900000D01*
X37100000Y-79980000D02*
X37190000Y-79940000D01*
X37020000Y-80030000D02*
X37100000Y-79980000D01*
X36940000Y-80080000D02*
X37020000Y-80030000D01*
X36870000Y-80150000D02*
X36940000Y-80080000D01*
X36810000Y-80220000D02*
X36870000Y-80150000D01*
X36750000Y-80300000D02*
X36810000Y-80220000D01*
X36700000Y-80380000D02*
X36750000Y-80300000D01*
X36660000Y-80470000D02*
X36700000Y-80380000D01*
X36620000Y-80560000D02*
X36660000Y-80470000D01*
X36600000Y-80660000D02*
X36620000Y-80560000D01*
X36590000Y-80750000D02*
X36600000Y-80660000D01*
X36580000Y-80850000D02*
X36590000Y-80750000D01*
X36580000Y-93730000D02*
X36580000Y-80850000D01*
X36590000Y-93830000D02*
X36580000Y-93730000D01*
X36600000Y-93920000D02*
X36590000Y-93830000D01*
X36620000Y-94020000D02*
X36600000Y-93920000D01*
X36660000Y-94110000D02*
X36620000Y-94020000D01*
X36700000Y-94200000D02*
X36660000Y-94110000D01*
X36750000Y-94280000D02*
X36700000Y-94200000D01*
X36810000Y-94360000D02*
X36750000Y-94280000D01*
X36870000Y-94430000D02*
X36810000Y-94360000D01*
X36940000Y-94500000D02*
X36870000Y-94430000D01*
X37020000Y-94550000D02*
X36940000Y-94500000D01*
X37100000Y-94600000D02*
X37020000Y-94550000D01*
X37190000Y-94640000D02*
X37100000Y-94600000D01*
X37280000Y-94680000D02*
X37190000Y-94640000D01*
X37380000Y-94700000D02*
X37280000Y-94680000D01*
X37470000Y-94720000D02*
X37380000Y-94700000D01*
X37570000Y-94720000D02*
X37470000Y-94720000D01*
X47500000Y-112140000D02*
X47500000Y-112170000D01*
X47500000Y-112040000D02*
X47500000Y-112140000D01*
X47480000Y-111950000D02*
X47500000Y-112040000D01*
X47460000Y-111850000D02*
X47480000Y-111950000D01*
X47420000Y-111760000D02*
X47460000Y-111850000D01*
X47380000Y-111670000D02*
X47420000Y-111760000D01*
X47330000Y-111590000D02*
X47380000Y-111670000D01*
X47280000Y-111510000D02*
X47330000Y-111590000D01*
X47210000Y-111440000D02*
X47280000Y-111510000D01*
X47140000Y-111380000D02*
X47210000Y-111440000D01*
X47060000Y-111320000D02*
X47140000Y-111380000D01*
X46980000Y-111270000D02*
X47060000Y-111320000D01*
X46890000Y-111230000D02*
X46980000Y-111270000D01*
X46800000Y-111190000D02*
X46890000Y-111230000D01*
X46700000Y-111170000D02*
X46800000Y-111190000D01*
X46610000Y-111160000D02*
X46700000Y-111170000D01*
X46510000Y-111150000D02*
X46610000Y-111160000D01*
X41110000Y-111150000D02*
X46510000Y-111150000D01*
X40980000Y-111150000D02*
X41110000Y-111150000D01*
X40850000Y-111140000D02*
X40980000Y-111150000D01*
X40730000Y-111120000D02*
X40850000Y-111140000D01*
X40600000Y-111100000D02*
X40730000Y-111120000D01*
X40470000Y-111070000D02*
X40600000Y-111100000D01*
X40350000Y-111030000D02*
X40470000Y-111070000D01*
X40220000Y-110990000D02*
X40350000Y-111030000D01*
X40110000Y-110950000D02*
X40220000Y-110990000D01*
X40000000Y-110890000D02*
X40110000Y-110950000D01*
X39880000Y-110830000D02*
X40000000Y-110890000D01*
X39760000Y-110760000D02*
X39880000Y-110830000D01*
X39660000Y-110700000D02*
X39760000Y-110760000D01*
X39550000Y-110620000D02*
X39660000Y-110700000D01*
X39450000Y-110540000D02*
X39550000Y-110620000D01*
X39360000Y-110450000D02*
X39450000Y-110540000D01*
X39270000Y-110360000D02*
X39360000Y-110450000D01*
X39180000Y-110270000D02*
X39270000Y-110360000D01*
X39100000Y-110170000D02*
X39180000Y-110270000D01*
X39030000Y-110070000D02*
X39100000Y-110170000D01*
X38950000Y-109950000D02*
X39030000Y-110070000D01*
X38890000Y-109840000D02*
X38950000Y-109950000D01*
X38830000Y-109720000D02*
X38890000Y-109840000D01*
X38770000Y-109610000D02*
X38830000Y-109720000D01*
X38730000Y-109490000D02*
X38770000Y-109610000D01*
X38690000Y-109370000D02*
X38730000Y-109490000D01*
X38650000Y-109240000D02*
X38690000Y-109370000D01*
X38620000Y-109120000D02*
X38650000Y-109240000D01*
X38600000Y-108990000D02*
X38620000Y-109120000D01*
X38580000Y-108870000D02*
X38600000Y-108990000D01*
X38570000Y-108740000D02*
X38580000Y-108870000D01*
X38570000Y-108610000D02*
X38570000Y-108740000D01*
X38570000Y-105710000D02*
X38570000Y-108610000D01*
X38560000Y-105610000D02*
X38570000Y-105710000D01*
X38550000Y-105520000D02*
X38560000Y-105610000D01*
X38530000Y-105420000D02*
X38550000Y-105520000D01*
X38490000Y-105330000D02*
X38530000Y-105420000D01*
X38450000Y-105240000D02*
X38490000Y-105330000D01*
X38400000Y-105160000D02*
X38450000Y-105240000D01*
X38340000Y-105080000D02*
X38400000Y-105160000D01*
X38280000Y-105010000D02*
X38340000Y-105080000D01*
X38210000Y-104940000D02*
X38280000Y-105010000D01*
X38130000Y-104890000D02*
X38210000Y-104940000D01*
X38050000Y-104840000D02*
X38130000Y-104890000D01*
X37960000Y-104800000D02*
X38050000Y-104840000D01*
X37870000Y-104760000D02*
X37960000Y-104800000D01*
X37770000Y-104740000D02*
X37870000Y-104760000D01*
X37680000Y-104720000D02*
X37770000Y-104740000D01*
X37580000Y-104720000D02*
X37680000Y-104720000D01*
X37470000Y-104720000D02*
X37580000Y-104720000D01*
X37380000Y-104740000D02*
X37470000Y-104720000D01*
X37280000Y-104760000D02*
X37380000Y-104740000D01*
X37190000Y-104800000D02*
X37280000Y-104760000D01*
X37100000Y-104840000D02*
X37190000Y-104800000D01*
X37020000Y-104890000D02*
X37100000Y-104840000D01*
X36940000Y-104940000D02*
X37020000Y-104890000D01*
X36870000Y-105010000D02*
X36940000Y-104940000D01*
X36810000Y-105080000D02*
X36870000Y-105010000D01*
X36750000Y-105160000D02*
X36810000Y-105080000D01*
X36700000Y-105240000D02*
X36750000Y-105160000D01*
X36660000Y-105330000D02*
X36700000Y-105240000D01*
X36620000Y-105420000D02*
X36660000Y-105330000D01*
X36600000Y-105520000D02*
X36620000Y-105420000D01*
X36590000Y-105610000D02*
X36600000Y-105520000D01*
X36580000Y-105710000D02*
X36590000Y-105610000D01*
X36580000Y-112170000D02*
X36580000Y-105710000D01*
X36590000Y-112270000D02*
X36580000Y-112170000D01*
X36600000Y-112360000D02*
X36590000Y-112270000D01*
X36620000Y-112460000D02*
X36600000Y-112360000D01*
X36660000Y-112550000D02*
X36620000Y-112460000D01*
X36700000Y-112640000D02*
X36660000Y-112550000D01*
X36750000Y-112720000D02*
X36700000Y-112640000D01*
X36810000Y-112800000D02*
X36750000Y-112720000D01*
X36870000Y-112870000D02*
X36810000Y-112800000D01*
X36940000Y-112930000D02*
X36870000Y-112870000D01*
X37020000Y-112990000D02*
X36940000Y-112930000D01*
X37100000Y-113040000D02*
X37020000Y-112990000D01*
X37190000Y-113080000D02*
X37100000Y-113040000D01*
X37280000Y-113120000D02*
X37190000Y-113080000D01*
X37380000Y-113140000D02*
X37280000Y-113120000D01*
X37470000Y-113150000D02*
X37380000Y-113140000D01*
X37570000Y-113160000D02*
X37470000Y-113150000D01*
X46510000Y-113160000D02*
X37570000Y-113160000D01*
X46610000Y-113150000D02*
X46510000Y-113160000D01*
X46700000Y-113140000D02*
X46610000Y-113150000D01*
X46800000Y-113120000D02*
X46700000Y-113140000D01*
X46890000Y-113080000D02*
X46800000Y-113120000D01*
X46980000Y-113040000D02*
X46890000Y-113080000D01*
X47060000Y-112990000D02*
X46980000Y-113040000D01*
X47140000Y-112930000D02*
X47060000Y-112990000D01*
X47210000Y-112870000D02*
X47140000Y-112930000D01*
X47280000Y-112800000D02*
X47210000Y-112870000D01*
X47330000Y-112720000D02*
X47280000Y-112800000D01*
X47380000Y-112640000D02*
X47330000Y-112720000D01*
X47420000Y-112550000D02*
X47380000Y-112640000D01*
X47460000Y-112460000D02*
X47420000Y-112550000D01*
X47480000Y-112360000D02*
X47460000Y-112460000D01*
X47500000Y-112270000D02*
X47480000Y-112360000D01*
X47500000Y-112170000D02*
X47500000Y-112270000D01*
X52500000Y-37580000D02*
X52500000Y-37550000D01*
X52500000Y-37680000D02*
X52500000Y-37580000D01*
X52520000Y-37770000D02*
X52500000Y-37680000D01*
X52540000Y-37870000D02*
X52520000Y-37770000D01*
X52580000Y-37960000D02*
X52540000Y-37870000D01*
X52620000Y-38050000D02*
X52580000Y-37960000D01*
X52670000Y-38130000D02*
X52620000Y-38050000D01*
X52720000Y-38210000D02*
X52670000Y-38130000D01*
X52790000Y-38280000D02*
X52720000Y-38210000D01*
X52860000Y-38340000D02*
X52790000Y-38280000D01*
X52940000Y-38400000D02*
X52860000Y-38340000D01*
X53020000Y-38450000D02*
X52940000Y-38400000D01*
X53110000Y-38490000D02*
X53020000Y-38450000D01*
X53200000Y-38530000D02*
X53110000Y-38490000D01*
X53300000Y-38550000D02*
X53200000Y-38530000D01*
X53390000Y-38560000D02*
X53300000Y-38550000D01*
X53490000Y-38570000D02*
X53390000Y-38560000D01*
X58890000Y-38570000D02*
X53490000Y-38570000D01*
X59020000Y-38570000D02*
X58890000Y-38570000D01*
X59140000Y-38580000D02*
X59020000Y-38570000D01*
X59270000Y-38600000D02*
X59140000Y-38580000D01*
X59410000Y-38620000D02*
X59270000Y-38600000D01*
X59530000Y-38650000D02*
X59410000Y-38620000D01*
X59640000Y-38680000D02*
X59530000Y-38650000D01*
X59780000Y-38730000D02*
X59640000Y-38680000D01*
X59890000Y-38770000D02*
X59780000Y-38730000D01*
X60000000Y-38830000D02*
X59890000Y-38770000D01*
X60120000Y-38890000D02*
X60000000Y-38830000D01*
X60240000Y-38960000D02*
X60120000Y-38890000D01*
X60340000Y-39020000D02*
X60240000Y-38960000D01*
X60440000Y-39100000D02*
X60340000Y-39020000D01*
X60540000Y-39180000D02*
X60440000Y-39100000D01*
X60640000Y-39260000D02*
X60540000Y-39180000D01*
X60740000Y-39360000D02*
X60640000Y-39260000D01*
X60820000Y-39460000D02*
X60740000Y-39360000D01*
X60900000Y-39550000D02*
X60820000Y-39460000D01*
X60980000Y-39660000D02*
X60900000Y-39550000D01*
X61050000Y-39770000D02*
X60980000Y-39660000D01*
X61110000Y-39880000D02*
X61050000Y-39770000D01*
X61170000Y-39990000D02*
X61110000Y-39880000D01*
X61220000Y-40110000D02*
X61170000Y-39990000D01*
X61270000Y-40220000D02*
X61220000Y-40110000D01*
X61320000Y-40360000D02*
X61270000Y-40220000D01*
X61350000Y-40470000D02*
X61320000Y-40360000D01*
X61380000Y-40600000D02*
X61350000Y-40470000D01*
X61400000Y-40730000D02*
X61380000Y-40600000D01*
X61420000Y-40850000D02*
X61400000Y-40730000D01*
X61430000Y-40990000D02*
X61420000Y-40850000D01*
X61430000Y-41110000D02*
X61430000Y-40990000D01*
X61430000Y-44010000D02*
X61430000Y-41110000D01*
X61440000Y-44110000D02*
X61430000Y-44010000D01*
X61450000Y-44200000D02*
X61440000Y-44110000D01*
X61470000Y-44300000D02*
X61450000Y-44200000D01*
X61510000Y-44390000D02*
X61470000Y-44300000D01*
X61550000Y-44480000D02*
X61510000Y-44390000D01*
X61600000Y-44560000D02*
X61550000Y-44480000D01*
X61660000Y-44640000D02*
X61600000Y-44560000D01*
X61720000Y-44710000D02*
X61660000Y-44640000D01*
X61790000Y-44780000D02*
X61720000Y-44710000D01*
X61870000Y-44830000D02*
X61790000Y-44780000D01*
X61950000Y-44880000D02*
X61870000Y-44830000D01*
X62040000Y-44920000D02*
X61950000Y-44880000D01*
X62130000Y-44960000D02*
X62040000Y-44920000D01*
X62230000Y-44980000D02*
X62130000Y-44960000D01*
X62320000Y-45000000D02*
X62230000Y-44980000D01*
X62420000Y-45000000D02*
X62320000Y-45000000D01*
X62540000Y-45000000D02*
X62420000Y-45000000D01*
X62630000Y-44980000D02*
X62540000Y-45000000D01*
X62730000Y-44960000D02*
X62630000Y-44980000D01*
X62820000Y-44920000D02*
X62730000Y-44960000D01*
X62910000Y-44880000D02*
X62820000Y-44920000D01*
X62990000Y-44830000D02*
X62910000Y-44880000D01*
X63070000Y-44780000D02*
X62990000Y-44830000D01*
X63140000Y-44710000D02*
X63070000Y-44780000D01*
X63200000Y-44640000D02*
X63140000Y-44710000D01*
X63260000Y-44560000D02*
X63200000Y-44640000D01*
X63310000Y-44480000D02*
X63260000Y-44560000D01*
X63350000Y-44390000D02*
X63310000Y-44480000D01*
X63390000Y-44300000D02*
X63350000Y-44390000D01*
X63410000Y-44200000D02*
X63390000Y-44300000D01*
X63420000Y-44110000D02*
X63410000Y-44200000D01*
X63430000Y-44010000D02*
X63420000Y-44110000D01*
X63430000Y-41110000D02*
X63430000Y-44010000D01*
X63430000Y-40990000D02*
X63430000Y-41110000D01*
X63440000Y-40850000D02*
X63430000Y-40990000D01*
X63460000Y-40730000D02*
X63440000Y-40850000D01*
X63480000Y-40600000D02*
X63460000Y-40730000D01*
X63510000Y-40470000D02*
X63480000Y-40600000D01*
X63550000Y-40350000D02*
X63510000Y-40470000D01*
X63590000Y-40230000D02*
X63550000Y-40350000D01*
X63630000Y-40110000D02*
X63590000Y-40230000D01*
X63690000Y-39990000D02*
X63630000Y-40110000D01*
X63750000Y-39880000D02*
X63690000Y-39990000D01*
X63810000Y-39770000D02*
X63750000Y-39880000D01*
X63880000Y-39660000D02*
X63810000Y-39770000D01*
X63960000Y-39550000D02*
X63880000Y-39660000D01*
X64040000Y-39450000D02*
X63960000Y-39550000D01*
X64120000Y-39360000D02*
X64040000Y-39450000D01*
X64220000Y-39260000D02*
X64120000Y-39360000D01*
X64320000Y-39180000D02*
X64220000Y-39260000D01*
X64420000Y-39100000D02*
X64320000Y-39180000D01*
X64520000Y-39020000D02*
X64420000Y-39100000D01*
X64620000Y-38960000D02*
X64520000Y-39020000D01*
X64740000Y-38890000D02*
X64620000Y-38960000D01*
X64860000Y-38830000D02*
X64740000Y-38890000D01*
X64970000Y-38780000D02*
X64860000Y-38830000D01*
X65080000Y-38730000D02*
X64970000Y-38780000D01*
X65210000Y-38690000D02*
X65080000Y-38730000D01*
X65340000Y-38650000D02*
X65210000Y-38690000D01*
X65460000Y-38620000D02*
X65340000Y-38650000D01*
X65580000Y-38600000D02*
X65460000Y-38620000D01*
X65720000Y-38580000D02*
X65580000Y-38600000D01*
X65840000Y-38570000D02*
X65720000Y-38580000D01*
X65970000Y-38570000D02*
X65840000Y-38570000D01*
X71370000Y-38570000D02*
X65970000Y-38570000D01*
X71470000Y-38560000D02*
X71370000Y-38570000D01*
X71560000Y-38550000D02*
X71470000Y-38560000D01*
X71660000Y-38530000D02*
X71560000Y-38550000D01*
X71750000Y-38490000D02*
X71660000Y-38530000D01*
X71840000Y-38450000D02*
X71750000Y-38490000D01*
X71920000Y-38400000D02*
X71840000Y-38450000D01*
X72000000Y-38340000D02*
X71920000Y-38400000D01*
X72070000Y-38280000D02*
X72000000Y-38340000D01*
X72140000Y-38210000D02*
X72070000Y-38280000D01*
X72190000Y-38130000D02*
X72140000Y-38210000D01*
X72240000Y-38050000D02*
X72190000Y-38130000D01*
X72280000Y-37960000D02*
X72240000Y-38050000D01*
X72320000Y-37870000D02*
X72280000Y-37960000D01*
X72340000Y-37770000D02*
X72320000Y-37870000D01*
X72360000Y-37680000D02*
X72340000Y-37770000D01*
X72360000Y-37580000D02*
X72360000Y-37680000D01*
X72360000Y-37550000D02*
X72360000Y-37580000D01*
X72360000Y-37450000D02*
X72360000Y-37550000D01*
X72340000Y-37360000D02*
X72360000Y-37450000D01*
X72320000Y-37260000D02*
X72340000Y-37360000D01*
X72280000Y-37170000D02*
X72320000Y-37260000D01*
X72240000Y-37080000D02*
X72280000Y-37170000D01*
X72190000Y-37000000D02*
X72240000Y-37080000D01*
X72140000Y-36920000D02*
X72190000Y-37000000D01*
X72070000Y-36850000D02*
X72140000Y-36920000D01*
X72000000Y-36790000D02*
X72070000Y-36850000D01*
X71920000Y-36730000D02*
X72000000Y-36790000D01*
X71840000Y-36680000D02*
X71920000Y-36730000D01*
X71750000Y-36640000D02*
X71840000Y-36680000D01*
X71660000Y-36600000D02*
X71750000Y-36640000D01*
X71560000Y-36580000D02*
X71660000Y-36600000D01*
X71470000Y-36570000D02*
X71560000Y-36580000D01*
X71370000Y-36560000D02*
X71470000Y-36570000D01*
X53490000Y-36560000D02*
X71370000Y-36560000D01*
X53390000Y-36570000D02*
X53490000Y-36560000D01*
X53300000Y-36580000D02*
X53390000Y-36570000D01*
X53200000Y-36600000D02*
X53300000Y-36580000D01*
X53110000Y-36640000D02*
X53200000Y-36600000D01*
X53020000Y-36680000D02*
X53110000Y-36640000D01*
X52940000Y-36730000D02*
X53020000Y-36680000D01*
X52860000Y-36790000D02*
X52940000Y-36730000D01*
X52790000Y-36850000D02*
X52860000Y-36790000D01*
X52720000Y-36920000D02*
X52790000Y-36850000D01*
X52670000Y-37000000D02*
X52720000Y-36920000D01*
X52620000Y-37080000D02*
X52670000Y-37000000D01*
X52580000Y-37170000D02*
X52620000Y-37080000D01*
X52540000Y-37260000D02*
X52580000Y-37170000D01*
X52520000Y-37360000D02*
X52540000Y-37260000D01*
X52500000Y-37450000D02*
X52520000Y-37360000D01*
X52500000Y-37550000D02*
X52500000Y-37450000D01*
X58890000Y-63430000D02*
X53490000Y-63430000D01*
X59020000Y-63430000D02*
X58890000Y-63430000D01*
X59150000Y-63440000D02*
X59020000Y-63430000D01*
X59270000Y-63460000D02*
X59150000Y-63440000D01*
X59400000Y-63480000D02*
X59270000Y-63460000D01*
X59530000Y-63510000D02*
X59400000Y-63480000D01*
X59650000Y-63550000D02*
X59530000Y-63510000D01*
X59770000Y-63590000D02*
X59650000Y-63550000D01*
X59890000Y-63630000D02*
X59770000Y-63590000D01*
X60010000Y-63690000D02*
X59890000Y-63630000D01*
X60120000Y-63750000D02*
X60010000Y-63690000D01*
X60230000Y-63810000D02*
X60120000Y-63750000D01*
X60340000Y-63880000D02*
X60230000Y-63810000D01*
X60450000Y-63960000D02*
X60340000Y-63880000D01*
X60540000Y-64040000D02*
X60450000Y-63960000D01*
X60640000Y-64130000D02*
X60540000Y-64040000D01*
X60730000Y-64220000D02*
X60640000Y-64130000D01*
X60820000Y-64310000D02*
X60730000Y-64220000D01*
X60900000Y-64410000D02*
X60820000Y-64310000D01*
X60980000Y-64520000D02*
X60900000Y-64410000D01*
X61040000Y-64620000D02*
X60980000Y-64520000D01*
X61110000Y-64740000D02*
X61040000Y-64620000D01*
X61170000Y-64850000D02*
X61110000Y-64740000D01*
X61230000Y-64970000D02*
X61170000Y-64850000D01*
X61270000Y-65090000D02*
X61230000Y-64970000D01*
X61310000Y-65210000D02*
X61270000Y-65090000D01*
X61350000Y-65330000D02*
X61310000Y-65210000D01*
X61380000Y-65460000D02*
X61350000Y-65330000D01*
X61400000Y-65590000D02*
X61380000Y-65460000D01*
X61420000Y-65710000D02*
X61400000Y-65590000D01*
X61430000Y-65840000D02*
X61420000Y-65710000D01*
X61430000Y-65970000D02*
X61430000Y-65840000D01*
X61430000Y-68870000D02*
X61430000Y-65970000D01*
X61440000Y-68970000D02*
X61430000Y-68870000D01*
X61450000Y-69060000D02*
X61440000Y-68970000D01*
X61470000Y-69160000D02*
X61450000Y-69060000D01*
X61510000Y-69250000D02*
X61470000Y-69160000D01*
X61550000Y-69340000D02*
X61510000Y-69250000D01*
X61600000Y-69420000D02*
X61550000Y-69340000D01*
X61660000Y-69500000D02*
X61600000Y-69420000D01*
X61720000Y-69570000D02*
X61660000Y-69500000D01*
X61790000Y-69640000D02*
X61720000Y-69570000D01*
X61870000Y-69690000D02*
X61790000Y-69640000D01*
X61950000Y-69740000D02*
X61870000Y-69690000D01*
X62040000Y-69780000D02*
X61950000Y-69740000D01*
X62130000Y-69820000D02*
X62040000Y-69780000D01*
X62230000Y-69840000D02*
X62130000Y-69820000D01*
X62320000Y-69860000D02*
X62230000Y-69840000D01*
X62420000Y-69860000D02*
X62320000Y-69860000D01*
X62540000Y-69860000D02*
X62420000Y-69860000D01*
X62630000Y-69840000D02*
X62540000Y-69860000D01*
X62730000Y-69820000D02*
X62630000Y-69840000D01*
X62820000Y-69780000D02*
X62730000Y-69820000D01*
X62910000Y-69740000D02*
X62820000Y-69780000D01*
X62990000Y-69690000D02*
X62910000Y-69740000D01*
X63070000Y-69640000D02*
X62990000Y-69690000D01*
X63140000Y-69570000D02*
X63070000Y-69640000D01*
X63200000Y-69500000D02*
X63140000Y-69570000D01*
X63260000Y-69420000D02*
X63200000Y-69500000D01*
X63310000Y-69340000D02*
X63260000Y-69420000D01*
X63350000Y-69250000D02*
X63310000Y-69340000D01*
X63390000Y-69160000D02*
X63350000Y-69250000D01*
X63410000Y-69060000D02*
X63390000Y-69160000D01*
X63420000Y-68970000D02*
X63410000Y-69060000D01*
X63430000Y-68870000D02*
X63420000Y-68970000D01*
X63430000Y-65970000D02*
X63430000Y-68870000D01*
X63430000Y-65850000D02*
X63430000Y-65970000D01*
X63440000Y-65710000D02*
X63430000Y-65850000D01*
X63460000Y-65590000D02*
X63440000Y-65710000D01*
X63480000Y-65460000D02*
X63460000Y-65590000D01*
X63510000Y-65330000D02*
X63480000Y-65460000D01*
X63540000Y-65220000D02*
X63510000Y-65330000D01*
X63590000Y-65080000D02*
X63540000Y-65220000D01*
X63640000Y-64970000D02*
X63590000Y-65080000D01*
X63690000Y-64850000D02*
X63640000Y-64970000D01*
X63750000Y-64740000D02*
X63690000Y-64850000D01*
X63810000Y-64630000D02*
X63750000Y-64740000D01*
X63880000Y-64520000D02*
X63810000Y-64630000D01*
X63960000Y-64410000D02*
X63880000Y-64520000D01*
X64040000Y-64320000D02*
X63960000Y-64410000D01*
X64120000Y-64220000D02*
X64040000Y-64320000D01*
X64220000Y-64120000D02*
X64120000Y-64220000D01*
X64320000Y-64040000D02*
X64220000Y-64120000D01*
X64410000Y-63960000D02*
X64320000Y-64040000D01*
X64520000Y-63880000D02*
X64410000Y-63960000D01*
X64620000Y-63820000D02*
X64520000Y-63880000D01*
X64740000Y-63750000D02*
X64620000Y-63820000D01*
X64860000Y-63690000D02*
X64740000Y-63750000D01*
X64970000Y-63640000D02*
X64860000Y-63690000D01*
X65080000Y-63590000D02*
X64970000Y-63640000D01*
X65210000Y-63550000D02*
X65080000Y-63590000D01*
X65340000Y-63510000D02*
X65210000Y-63550000D01*
X65460000Y-63480000D02*
X65340000Y-63510000D01*
X65580000Y-63460000D02*
X65460000Y-63480000D01*
X65720000Y-63440000D02*
X65580000Y-63460000D01*
X65840000Y-63430000D02*
X65720000Y-63440000D01*
X65970000Y-63430000D02*
X65840000Y-63430000D01*
X71370000Y-63430000D02*
X65970000Y-63430000D01*
X71470000Y-63420000D02*
X71370000Y-63430000D01*
X71560000Y-63410000D02*
X71470000Y-63420000D01*
X71660000Y-63390000D02*
X71560000Y-63410000D01*
X71750000Y-63350000D02*
X71660000Y-63390000D01*
X71840000Y-63310000D02*
X71750000Y-63350000D01*
X71920000Y-63260000D02*
X71840000Y-63310000D01*
X72000000Y-63200000D02*
X71920000Y-63260000D01*
X72070000Y-63140000D02*
X72000000Y-63200000D01*
X72140000Y-63070000D02*
X72070000Y-63140000D01*
X72190000Y-62990000D02*
X72140000Y-63070000D01*
X72240000Y-62910000D02*
X72190000Y-62990000D01*
X72280000Y-62820000D02*
X72240000Y-62910000D01*
X72320000Y-62730000D02*
X72280000Y-62820000D01*
X72340000Y-62630000D02*
X72320000Y-62730000D01*
X72360000Y-62540000D02*
X72340000Y-62630000D01*
X72360000Y-62440000D02*
X72360000Y-62540000D01*
X72360000Y-62320000D02*
X72360000Y-62440000D01*
X72340000Y-62230000D02*
X72360000Y-62320000D01*
X72320000Y-62130000D02*
X72340000Y-62230000D01*
X72280000Y-62040000D02*
X72320000Y-62130000D01*
X72240000Y-61950000D02*
X72280000Y-62040000D01*
X72190000Y-61870000D02*
X72240000Y-61950000D01*
X72140000Y-61790000D02*
X72190000Y-61870000D01*
X72070000Y-61720000D02*
X72140000Y-61790000D01*
X72000000Y-61660000D02*
X72070000Y-61720000D01*
X71920000Y-61600000D02*
X72000000Y-61660000D01*
X71840000Y-61550000D02*
X71920000Y-61600000D01*
X71750000Y-61510000D02*
X71840000Y-61550000D01*
X71660000Y-61470000D02*
X71750000Y-61510000D01*
X71560000Y-61450000D02*
X71660000Y-61470000D01*
X71470000Y-61440000D02*
X71560000Y-61450000D01*
X71370000Y-61430000D02*
X71470000Y-61440000D01*
X65970000Y-61430000D02*
X71370000Y-61430000D01*
X65840000Y-61430000D02*
X65970000Y-61430000D01*
X65710000Y-61420000D02*
X65840000Y-61430000D01*
X65590000Y-61400000D02*
X65710000Y-61420000D01*
X65460000Y-61380000D02*
X65590000Y-61400000D01*
X65330000Y-61350000D02*
X65460000Y-61380000D01*
X65210000Y-61310000D02*
X65330000Y-61350000D01*
X65090000Y-61270000D02*
X65210000Y-61310000D01*
X64970000Y-61230000D02*
X65090000Y-61270000D01*
X64850000Y-61170000D02*
X64970000Y-61230000D01*
X64740000Y-61110000D02*
X64850000Y-61170000D01*
X64630000Y-61050000D02*
X64740000Y-61110000D01*
X64510000Y-60970000D02*
X64630000Y-61050000D01*
X64410000Y-60900000D02*
X64510000Y-60970000D01*
X64310000Y-60820000D02*
X64410000Y-60900000D01*
X64220000Y-60730000D02*
X64310000Y-60820000D01*
X64130000Y-60640000D02*
X64220000Y-60730000D01*
X64040000Y-60550000D02*
X64130000Y-60640000D01*
X63960000Y-60450000D02*
X64040000Y-60550000D01*
X63880000Y-60340000D02*
X63960000Y-60450000D01*
X63820000Y-60240000D02*
X63880000Y-60340000D01*
X63750000Y-60120000D02*
X63820000Y-60240000D01*
X63690000Y-60010000D02*
X63750000Y-60120000D01*
X63630000Y-59890000D02*
X63690000Y-60010000D01*
X63590000Y-59770000D02*
X63630000Y-59890000D01*
X63550000Y-59650000D02*
X63590000Y-59770000D01*
X63510000Y-59530000D02*
X63550000Y-59650000D01*
X63480000Y-59400000D02*
X63510000Y-59530000D01*
X63460000Y-59270000D02*
X63480000Y-59400000D01*
X63440000Y-59150000D02*
X63460000Y-59270000D01*
X63430000Y-59020000D02*
X63440000Y-59150000D01*
X63430000Y-58890000D02*
X63430000Y-59020000D01*
X63430000Y-55990000D02*
X63430000Y-58890000D01*
X63420000Y-55890000D02*
X63430000Y-55990000D01*
X63410000Y-55800000D02*
X63420000Y-55890000D01*
X63390000Y-55700000D02*
X63410000Y-55800000D01*
X63350000Y-55610000D02*
X63390000Y-55700000D01*
X63310000Y-55520000D02*
X63350000Y-55610000D01*
X63260000Y-55440000D02*
X63310000Y-55520000D01*
X63200000Y-55360000D02*
X63260000Y-55440000D01*
X63140000Y-55290000D02*
X63200000Y-55360000D01*
X63070000Y-55220000D02*
X63140000Y-55290000D01*
X62990000Y-55170000D02*
X63070000Y-55220000D01*
X62910000Y-55120000D02*
X62990000Y-55170000D01*
X62820000Y-55080000D02*
X62910000Y-55120000D01*
X62730000Y-55040000D02*
X62820000Y-55080000D01*
X62630000Y-55020000D02*
X62730000Y-55040000D01*
X62540000Y-55000000D02*
X62630000Y-55020000D01*
X62440000Y-55000000D02*
X62540000Y-55000000D01*
X62320000Y-55000000D02*
X62440000Y-55000000D01*
X62230000Y-55020000D02*
X62320000Y-55000000D01*
X62130000Y-55040000D02*
X62230000Y-55020000D01*
X62040000Y-55080000D02*
X62130000Y-55040000D01*
X61950000Y-55120000D02*
X62040000Y-55080000D01*
X61870000Y-55170000D02*
X61950000Y-55120000D01*
X61790000Y-55220000D02*
X61870000Y-55170000D01*
X61720000Y-55290000D02*
X61790000Y-55220000D01*
X61660000Y-55360000D02*
X61720000Y-55290000D01*
X61600000Y-55440000D02*
X61660000Y-55360000D01*
X61550000Y-55520000D02*
X61600000Y-55440000D01*
X61510000Y-55610000D02*
X61550000Y-55520000D01*
X61470000Y-55700000D02*
X61510000Y-55610000D01*
X61450000Y-55800000D02*
X61470000Y-55700000D01*
X61440000Y-55890000D02*
X61450000Y-55800000D01*
X61430000Y-55990000D02*
X61440000Y-55890000D01*
X61430000Y-58890000D02*
X61430000Y-55990000D01*
X61430000Y-59020000D02*
X61430000Y-58890000D01*
X61420000Y-59140000D02*
X61430000Y-59020000D01*
X61400000Y-59270000D02*
X61420000Y-59140000D01*
X61380000Y-59400000D02*
X61400000Y-59270000D01*
X61350000Y-59520000D02*
X61380000Y-59400000D01*
X61310000Y-59660000D02*
X61350000Y-59520000D01*
X61270000Y-59770000D02*
X61310000Y-59660000D01*
X61230000Y-59890000D02*
X61270000Y-59770000D01*
X61170000Y-60010000D02*
X61230000Y-59890000D01*
X61110000Y-60120000D02*
X61170000Y-60010000D01*
X61040000Y-60240000D02*
X61110000Y-60120000D01*
X60980000Y-60340000D02*
X61040000Y-60240000D01*
X60900000Y-60450000D02*
X60980000Y-60340000D01*
X60810000Y-60550000D02*
X60900000Y-60450000D01*
X60730000Y-60640000D02*
X60810000Y-60550000D01*
X60640000Y-60730000D02*
X60730000Y-60640000D01*
X60550000Y-60820000D02*
X60640000Y-60730000D01*
X60450000Y-60900000D02*
X60550000Y-60820000D01*
X60340000Y-60980000D02*
X60450000Y-60900000D01*
X60230000Y-61050000D02*
X60340000Y-60980000D01*
X60130000Y-61110000D02*
X60230000Y-61050000D01*
X60000000Y-61170000D02*
X60130000Y-61110000D01*
X59890000Y-61230000D02*
X60000000Y-61170000D01*
X59770000Y-61270000D02*
X59890000Y-61230000D01*
X59650000Y-61310000D02*
X59770000Y-61270000D01*
X59530000Y-61350000D02*
X59650000Y-61310000D01*
X59400000Y-61380000D02*
X59530000Y-61350000D01*
X59270000Y-61400000D02*
X59400000Y-61380000D01*
X59150000Y-61420000D02*
X59270000Y-61400000D01*
X59020000Y-61430000D02*
X59150000Y-61420000D01*
X58890000Y-61430000D02*
X59020000Y-61430000D01*
X53490000Y-61430000D02*
X58890000Y-61430000D01*
X53390000Y-61440000D02*
X53490000Y-61430000D01*
X53300000Y-61450000D02*
X53390000Y-61440000D01*
X53200000Y-61470000D02*
X53300000Y-61450000D01*
X53110000Y-61510000D02*
X53200000Y-61470000D01*
X53020000Y-61550000D02*
X53110000Y-61510000D01*
X52940000Y-61600000D02*
X53020000Y-61550000D01*
X52860000Y-61660000D02*
X52940000Y-61600000D01*
X52790000Y-61720000D02*
X52860000Y-61660000D01*
X52720000Y-61790000D02*
X52790000Y-61720000D01*
X52670000Y-61870000D02*
X52720000Y-61790000D01*
X52620000Y-61950000D02*
X52670000Y-61870000D01*
X52580000Y-62040000D02*
X52620000Y-61950000D01*
X52540000Y-62130000D02*
X52580000Y-62040000D01*
X52520000Y-62230000D02*
X52540000Y-62130000D01*
X52500000Y-62320000D02*
X52520000Y-62230000D01*
X52500000Y-62440000D02*
X52500000Y-62320000D01*
X52500000Y-62540000D02*
X52500000Y-62440000D01*
X52520000Y-62630000D02*
X52500000Y-62540000D01*
X52540000Y-62730000D02*
X52520000Y-62630000D01*
X52580000Y-62820000D02*
X52540000Y-62730000D01*
X52620000Y-62910000D02*
X52580000Y-62820000D01*
X52670000Y-62990000D02*
X52620000Y-62910000D01*
X52720000Y-63070000D02*
X52670000Y-62990000D01*
X52790000Y-63140000D02*
X52720000Y-63070000D01*
X52860000Y-63200000D02*
X52790000Y-63140000D01*
X52940000Y-63260000D02*
X52860000Y-63200000D01*
X53020000Y-63310000D02*
X52940000Y-63260000D01*
X53110000Y-63350000D02*
X53020000Y-63310000D01*
X53200000Y-63390000D02*
X53110000Y-63350000D01*
X53300000Y-63410000D02*
X53200000Y-63390000D01*
X53390000Y-63420000D02*
X53300000Y-63410000D01*
X53490000Y-63430000D02*
X53390000Y-63420000D01*
X71370000Y-113160000D02*
X53490000Y-113160000D01*
X71470000Y-113150000D02*
X71370000Y-113160000D01*
X71560000Y-113140000D02*
X71470000Y-113150000D01*
X71660000Y-113120000D02*
X71560000Y-113140000D01*
X71750000Y-113080000D02*
X71660000Y-113120000D01*
X71840000Y-113040000D02*
X71750000Y-113080000D01*
X71920000Y-112990000D02*
X71840000Y-113040000D01*
X72000000Y-112930000D02*
X71920000Y-112990000D01*
X72070000Y-112870000D02*
X72000000Y-112930000D01*
X72140000Y-112800000D02*
X72070000Y-112870000D01*
X72190000Y-112720000D02*
X72140000Y-112800000D01*
X72240000Y-112640000D02*
X72190000Y-112720000D01*
X72280000Y-112550000D02*
X72240000Y-112640000D01*
X72320000Y-112460000D02*
X72280000Y-112550000D01*
X72340000Y-112360000D02*
X72320000Y-112460000D01*
X72360000Y-112270000D02*
X72340000Y-112360000D01*
X72360000Y-112170000D02*
X72360000Y-112270000D01*
X72360000Y-112140000D02*
X72360000Y-112170000D01*
X72360000Y-112040000D02*
X72360000Y-112140000D01*
X72340000Y-111950000D02*
X72360000Y-112040000D01*
X72320000Y-111850000D02*
X72340000Y-111950000D01*
X72280000Y-111760000D02*
X72320000Y-111850000D01*
X72240000Y-111670000D02*
X72280000Y-111760000D01*
X72190000Y-111590000D02*
X72240000Y-111670000D01*
X72140000Y-111510000D02*
X72190000Y-111590000D01*
X72070000Y-111440000D02*
X72140000Y-111510000D01*
X72000000Y-111380000D02*
X72070000Y-111440000D01*
X71920000Y-111320000D02*
X72000000Y-111380000D01*
X71840000Y-111270000D02*
X71920000Y-111320000D01*
X71750000Y-111230000D02*
X71840000Y-111270000D01*
X71660000Y-111190000D02*
X71750000Y-111230000D01*
X71560000Y-111170000D02*
X71660000Y-111190000D01*
X71470000Y-111160000D02*
X71560000Y-111170000D01*
X71370000Y-111150000D02*
X71470000Y-111160000D01*
X65970000Y-111150000D02*
X71370000Y-111150000D01*
X65840000Y-111150000D02*
X65970000Y-111150000D01*
X65710000Y-111140000D02*
X65840000Y-111150000D01*
X65590000Y-111120000D02*
X65710000Y-111140000D01*
X65460000Y-111100000D02*
X65590000Y-111120000D01*
X65330000Y-111070000D02*
X65460000Y-111100000D01*
X65210000Y-111030000D02*
X65330000Y-111070000D01*
X65090000Y-110990000D02*
X65210000Y-111030000D01*
X64970000Y-110950000D02*
X65090000Y-110990000D01*
X64850000Y-110890000D02*
X64970000Y-110950000D01*
X64740000Y-110830000D02*
X64850000Y-110890000D01*
X64630000Y-110770000D02*
X64740000Y-110830000D01*
X64510000Y-110690000D02*
X64630000Y-110770000D01*
X64410000Y-110620000D02*
X64510000Y-110690000D01*
X64310000Y-110540000D02*
X64410000Y-110620000D01*
X64220000Y-110450000D02*
X64310000Y-110540000D01*
X64130000Y-110360000D02*
X64220000Y-110450000D01*
X64040000Y-110270000D02*
X64130000Y-110360000D01*
X63960000Y-110170000D02*
X64040000Y-110270000D01*
X63880000Y-110060000D02*
X63960000Y-110170000D01*
X63820000Y-109960000D02*
X63880000Y-110060000D01*
X63750000Y-109840000D02*
X63820000Y-109960000D01*
X63690000Y-109730000D02*
X63750000Y-109840000D01*
X63630000Y-109610000D02*
X63690000Y-109730000D01*
X63590000Y-109490000D02*
X63630000Y-109610000D01*
X63550000Y-109370000D02*
X63590000Y-109490000D01*
X63510000Y-109250000D02*
X63550000Y-109370000D01*
X63480000Y-109120000D02*
X63510000Y-109250000D01*
X63460000Y-108990000D02*
X63480000Y-109120000D01*
X63440000Y-108870000D02*
X63460000Y-108990000D01*
X63430000Y-108740000D02*
X63440000Y-108870000D01*
X63430000Y-108610000D02*
X63430000Y-108740000D01*
X63430000Y-105710000D02*
X63430000Y-108610000D01*
X63420000Y-105610000D02*
X63430000Y-105710000D01*
X63410000Y-105520000D02*
X63420000Y-105610000D01*
X63390000Y-105420000D02*
X63410000Y-105520000D01*
X63350000Y-105330000D02*
X63390000Y-105420000D01*
X63310000Y-105240000D02*
X63350000Y-105330000D01*
X63260000Y-105160000D02*
X63310000Y-105240000D01*
X63200000Y-105080000D02*
X63260000Y-105160000D01*
X63140000Y-105010000D02*
X63200000Y-105080000D01*
X63070000Y-104940000D02*
X63140000Y-105010000D01*
X62990000Y-104890000D02*
X63070000Y-104940000D01*
X62910000Y-104840000D02*
X62990000Y-104890000D01*
X62820000Y-104800000D02*
X62910000Y-104840000D01*
X62730000Y-104760000D02*
X62820000Y-104800000D01*
X62630000Y-104740000D02*
X62730000Y-104760000D01*
X62540000Y-104720000D02*
X62630000Y-104740000D01*
X62440000Y-104720000D02*
X62540000Y-104720000D01*
X62320000Y-104720000D02*
X62440000Y-104720000D01*
X62230000Y-104740000D02*
X62320000Y-104720000D01*
X62130000Y-104760000D02*
X62230000Y-104740000D01*
X62040000Y-104800000D02*
X62130000Y-104760000D01*
X61950000Y-104840000D02*
X62040000Y-104800000D01*
X61870000Y-104890000D02*
X61950000Y-104840000D01*
X61790000Y-104940000D02*
X61870000Y-104890000D01*
X61720000Y-105010000D02*
X61790000Y-104940000D01*
X61660000Y-105080000D02*
X61720000Y-105010000D01*
X61600000Y-105160000D02*
X61660000Y-105080000D01*
X61550000Y-105240000D02*
X61600000Y-105160000D01*
X61510000Y-105330000D02*
X61550000Y-105240000D01*
X61470000Y-105420000D02*
X61510000Y-105330000D01*
X61450000Y-105520000D02*
X61470000Y-105420000D01*
X61440000Y-105610000D02*
X61450000Y-105520000D01*
X61430000Y-105710000D02*
X61440000Y-105610000D01*
X61430000Y-108610000D02*
X61430000Y-105710000D01*
X61430000Y-108740000D02*
X61430000Y-108610000D01*
X61420000Y-108860000D02*
X61430000Y-108740000D01*
X61400000Y-108990000D02*
X61420000Y-108860000D01*
X61380000Y-109120000D02*
X61400000Y-108990000D01*
X61350000Y-109240000D02*
X61380000Y-109120000D01*
X61310000Y-109380000D02*
X61350000Y-109240000D01*
X61270000Y-109490000D02*
X61310000Y-109380000D01*
X61230000Y-109610000D02*
X61270000Y-109490000D01*
X61170000Y-109730000D02*
X61230000Y-109610000D01*
X61110000Y-109840000D02*
X61170000Y-109730000D01*
X61040000Y-109960000D02*
X61110000Y-109840000D01*
X60980000Y-110060000D02*
X61040000Y-109960000D01*
X60900000Y-110170000D02*
X60980000Y-110060000D01*
X60810000Y-110270000D02*
X60900000Y-110170000D01*
X60730000Y-110360000D02*
X60810000Y-110270000D01*
X60640000Y-110450000D02*
X60730000Y-110360000D01*
X60550000Y-110540000D02*
X60640000Y-110450000D01*
X60450000Y-110620000D02*
X60550000Y-110540000D01*
X60340000Y-110700000D02*
X60450000Y-110620000D01*
X60230000Y-110770000D02*
X60340000Y-110700000D01*
X60130000Y-110830000D02*
X60230000Y-110770000D01*
X60000000Y-110890000D02*
X60130000Y-110830000D01*
X59890000Y-110950000D02*
X60000000Y-110890000D01*
X59770000Y-110990000D02*
X59890000Y-110950000D01*
X59650000Y-111030000D02*
X59770000Y-110990000D01*
X59530000Y-111070000D02*
X59650000Y-111030000D01*
X59400000Y-111100000D02*
X59530000Y-111070000D01*
X59270000Y-111120000D02*
X59400000Y-111100000D01*
X59150000Y-111140000D02*
X59270000Y-111120000D01*
X59020000Y-111150000D02*
X59150000Y-111140000D01*
X58890000Y-111150000D02*
X59020000Y-111150000D01*
X53490000Y-111150000D02*
X58890000Y-111150000D01*
X53390000Y-111160000D02*
X53490000Y-111150000D01*
X53300000Y-111170000D02*
X53390000Y-111160000D01*
X53200000Y-111190000D02*
X53300000Y-111170000D01*
X53110000Y-111230000D02*
X53200000Y-111190000D01*
X53020000Y-111270000D02*
X53110000Y-111230000D01*
X52940000Y-111320000D02*
X53020000Y-111270000D01*
X52860000Y-111380000D02*
X52940000Y-111320000D01*
X52790000Y-111440000D02*
X52860000Y-111380000D01*
X52720000Y-111510000D02*
X52790000Y-111440000D01*
X52670000Y-111590000D02*
X52720000Y-111510000D01*
X52620000Y-111670000D02*
X52670000Y-111590000D01*
X52580000Y-111760000D02*
X52620000Y-111670000D01*
X52540000Y-111850000D02*
X52580000Y-111760000D01*
X52520000Y-111950000D02*
X52540000Y-111850000D01*
X52500000Y-112040000D02*
X52520000Y-111950000D01*
X52500000Y-112140000D02*
X52500000Y-112040000D01*
X52500000Y-112170000D02*
X52500000Y-112140000D01*
X52500000Y-112270000D02*
X52500000Y-112170000D01*
X52520000Y-112360000D02*
X52500000Y-112270000D01*
X52540000Y-112460000D02*
X52520000Y-112360000D01*
X52580000Y-112550000D02*
X52540000Y-112460000D01*
X52620000Y-112640000D02*
X52580000Y-112550000D01*
X52670000Y-112720000D02*
X52620000Y-112640000D01*
X52720000Y-112800000D02*
X52670000Y-112720000D01*
X52790000Y-112870000D02*
X52720000Y-112800000D01*
X52860000Y-112930000D02*
X52790000Y-112870000D01*
X52940000Y-112990000D02*
X52860000Y-112930000D01*
X53020000Y-113040000D02*
X52940000Y-112990000D01*
X53110000Y-113080000D02*
X53020000Y-113040000D01*
X53200000Y-113120000D02*
X53110000Y-113080000D01*
X53300000Y-113140000D02*
X53200000Y-113120000D01*
X53390000Y-113150000D02*
X53300000Y-113140000D01*
X53490000Y-113160000D02*
X53390000Y-113150000D01*
X61430000Y-83750000D02*
X61430000Y-80850000D01*
X61430000Y-83880000D02*
X61430000Y-83750000D01*
X61420000Y-84010000D02*
X61430000Y-83880000D01*
X61400000Y-84130000D02*
X61420000Y-84010000D01*
X61380000Y-84260000D02*
X61400000Y-84130000D01*
X61350000Y-84390000D02*
X61380000Y-84260000D01*
X61310000Y-84510000D02*
X61350000Y-84390000D01*
X61270000Y-84630000D02*
X61310000Y-84510000D01*
X61230000Y-84750000D02*
X61270000Y-84630000D01*
X61170000Y-84870000D02*
X61230000Y-84750000D01*
X61110000Y-84980000D02*
X61170000Y-84870000D01*
X61040000Y-85100000D02*
X61110000Y-84980000D01*
X60980000Y-85200000D02*
X61040000Y-85100000D01*
X60900000Y-85310000D02*
X60980000Y-85200000D01*
X60820000Y-85410000D02*
X60900000Y-85310000D01*
X60730000Y-85500000D02*
X60820000Y-85410000D01*
X60640000Y-85590000D02*
X60730000Y-85500000D01*
X60550000Y-85680000D02*
X60640000Y-85590000D01*
X60450000Y-85760000D02*
X60550000Y-85680000D01*
X60350000Y-85830000D02*
X60450000Y-85760000D01*
X60230000Y-85910000D02*
X60350000Y-85830000D01*
X60120000Y-85970000D02*
X60230000Y-85910000D01*
X60010000Y-86030000D02*
X60120000Y-85970000D01*
X59900000Y-86080000D02*
X60010000Y-86030000D01*
X59770000Y-86130000D02*
X59900000Y-86080000D01*
X59650000Y-86170000D02*
X59770000Y-86130000D01*
X59530000Y-86210000D02*
X59650000Y-86170000D01*
X59400000Y-86240000D02*
X59530000Y-86210000D01*
X59270000Y-86260000D02*
X59400000Y-86240000D01*
X59150000Y-86280000D02*
X59270000Y-86260000D01*
X59020000Y-86290000D02*
X59150000Y-86280000D01*
X58890000Y-86290000D02*
X59020000Y-86290000D01*
X53490000Y-86290000D02*
X58890000Y-86290000D01*
X53390000Y-86300000D02*
X53490000Y-86290000D01*
X53300000Y-86310000D02*
X53390000Y-86300000D01*
X53200000Y-86330000D02*
X53300000Y-86310000D01*
X53110000Y-86370000D02*
X53200000Y-86330000D01*
X53020000Y-86410000D02*
X53110000Y-86370000D01*
X52940000Y-86460000D02*
X53020000Y-86410000D01*
X52860000Y-86520000D02*
X52940000Y-86460000D01*
X52790000Y-86580000D02*
X52860000Y-86520000D01*
X52720000Y-86650000D02*
X52790000Y-86580000D01*
X52670000Y-86730000D02*
X52720000Y-86650000D01*
X52620000Y-86810000D02*
X52670000Y-86730000D01*
X52580000Y-86900000D02*
X52620000Y-86810000D01*
X52540000Y-86990000D02*
X52580000Y-86900000D01*
X52520000Y-87090000D02*
X52540000Y-86990000D01*
X52500000Y-87180000D02*
X52520000Y-87090000D01*
X52500000Y-87280000D02*
X52500000Y-87180000D01*
X52500000Y-87400000D02*
X52500000Y-87280000D01*
X52520000Y-87490000D02*
X52500000Y-87400000D01*
X52540000Y-87590000D02*
X52520000Y-87490000D01*
X52580000Y-87680000D02*
X52540000Y-87590000D01*
X52620000Y-87770000D02*
X52580000Y-87680000D01*
X52670000Y-87850000D02*
X52620000Y-87770000D01*
X52720000Y-87930000D02*
X52670000Y-87850000D01*
X52790000Y-88000000D02*
X52720000Y-87930000D01*
X52860000Y-88060000D02*
X52790000Y-88000000D01*
X52940000Y-88120000D02*
X52860000Y-88060000D01*
X53020000Y-88170000D02*
X52940000Y-88120000D01*
X53110000Y-88210000D02*
X53020000Y-88170000D01*
X53200000Y-88250000D02*
X53110000Y-88210000D01*
X53300000Y-88270000D02*
X53200000Y-88250000D01*
X53390000Y-88280000D02*
X53300000Y-88270000D01*
X53490000Y-88290000D02*
X53390000Y-88280000D01*
X58890000Y-88290000D02*
X53490000Y-88290000D01*
X59020000Y-88290000D02*
X58890000Y-88290000D01*
X59150000Y-88300000D02*
X59020000Y-88290000D01*
X59270000Y-88320000D02*
X59150000Y-88300000D01*
X59400000Y-88340000D02*
X59270000Y-88320000D01*
X59530000Y-88370000D02*
X59400000Y-88340000D01*
X59650000Y-88410000D02*
X59530000Y-88370000D01*
X59770000Y-88450000D02*
X59650000Y-88410000D01*
X59890000Y-88490000D02*
X59770000Y-88450000D01*
X60010000Y-88550000D02*
X59890000Y-88490000D01*
X60120000Y-88610000D02*
X60010000Y-88550000D01*
X60230000Y-88670000D02*
X60120000Y-88610000D01*
X60350000Y-88750000D02*
X60230000Y-88670000D01*
X60450000Y-88820000D02*
X60350000Y-88750000D01*
X60550000Y-88900000D02*
X60450000Y-88820000D01*
X60640000Y-88990000D02*
X60550000Y-88900000D01*
X60730000Y-89080000D02*
X60640000Y-88990000D01*
X60820000Y-89170000D02*
X60730000Y-89080000D01*
X60900000Y-89270000D02*
X60820000Y-89170000D01*
X60980000Y-89380000D02*
X60900000Y-89270000D01*
X61040000Y-89480000D02*
X60980000Y-89380000D01*
X61110000Y-89600000D02*
X61040000Y-89480000D01*
X61170000Y-89710000D02*
X61110000Y-89600000D01*
X61230000Y-89830000D02*
X61170000Y-89710000D01*
X61270000Y-89950000D02*
X61230000Y-89830000D01*
X61310000Y-90070000D02*
X61270000Y-89950000D01*
X61350000Y-90190000D02*
X61310000Y-90070000D01*
X61380000Y-90320000D02*
X61350000Y-90190000D01*
X61400000Y-90450000D02*
X61380000Y-90320000D01*
X61420000Y-90570000D02*
X61400000Y-90450000D01*
X61430000Y-90700000D02*
X61420000Y-90570000D01*
X61430000Y-90830000D02*
X61430000Y-90700000D01*
X61430000Y-93730000D02*
X61430000Y-90830000D01*
X61440000Y-93830000D02*
X61430000Y-93730000D01*
X61450000Y-93920000D02*
X61440000Y-93830000D01*
X61470000Y-94020000D02*
X61450000Y-93920000D01*
X61510000Y-94110000D02*
X61470000Y-94020000D01*
X61550000Y-94200000D02*
X61510000Y-94110000D01*
X61600000Y-94280000D02*
X61550000Y-94200000D01*
X61660000Y-94360000D02*
X61600000Y-94280000D01*
X61720000Y-94430000D02*
X61660000Y-94360000D01*
X61790000Y-94500000D02*
X61720000Y-94430000D01*
X61870000Y-94550000D02*
X61790000Y-94500000D01*
X61950000Y-94600000D02*
X61870000Y-94550000D01*
X62040000Y-94640000D02*
X61950000Y-94600000D01*
X62130000Y-94680000D02*
X62040000Y-94640000D01*
X62230000Y-94700000D02*
X62130000Y-94680000D01*
X62320000Y-94720000D02*
X62230000Y-94700000D01*
X62420000Y-94720000D02*
X62320000Y-94720000D01*
X62540000Y-94720000D02*
X62420000Y-94720000D01*
X62630000Y-94700000D02*
X62540000Y-94720000D01*
X62730000Y-94680000D02*
X62630000Y-94700000D01*
X62820000Y-94640000D02*
X62730000Y-94680000D01*
X62910000Y-94600000D02*
X62820000Y-94640000D01*
X62990000Y-94550000D02*
X62910000Y-94600000D01*
X63070000Y-94500000D02*
X62990000Y-94550000D01*
X63140000Y-94430000D02*
X63070000Y-94500000D01*
X63200000Y-94360000D02*
X63140000Y-94430000D01*
X63260000Y-94280000D02*
X63200000Y-94360000D01*
X63310000Y-94200000D02*
X63260000Y-94280000D01*
X63350000Y-94110000D02*
X63310000Y-94200000D01*
X63390000Y-94020000D02*
X63350000Y-94110000D01*
X63410000Y-93920000D02*
X63390000Y-94020000D01*
X63420000Y-93830000D02*
X63410000Y-93920000D01*
X63430000Y-93730000D02*
X63420000Y-93830000D01*
X63430000Y-90830000D02*
X63430000Y-93730000D01*
X63430000Y-90710000D02*
X63430000Y-90830000D01*
X63440000Y-90570000D02*
X63430000Y-90710000D01*
X63460000Y-90450000D02*
X63440000Y-90570000D01*
X63480000Y-90320000D02*
X63460000Y-90450000D01*
X63510000Y-90190000D02*
X63480000Y-90320000D01*
X63540000Y-90080000D02*
X63510000Y-90190000D01*
X63590000Y-89940000D02*
X63540000Y-90080000D01*
X63640000Y-89830000D02*
X63590000Y-89940000D01*
X63690000Y-89710000D02*
X63640000Y-89830000D01*
X63750000Y-89600000D02*
X63690000Y-89710000D01*
X63810000Y-89490000D02*
X63750000Y-89600000D01*
X63880000Y-89380000D02*
X63810000Y-89490000D01*
X63960000Y-89270000D02*
X63880000Y-89380000D01*
X64040000Y-89180000D02*
X63960000Y-89270000D01*
X64120000Y-89080000D02*
X64040000Y-89180000D01*
X64220000Y-88980000D02*
X64120000Y-89080000D01*
X64320000Y-88900000D02*
X64220000Y-88980000D01*
X64410000Y-88820000D02*
X64320000Y-88900000D01*
X64520000Y-88740000D02*
X64410000Y-88820000D01*
X64620000Y-88680000D02*
X64520000Y-88740000D01*
X64740000Y-88610000D02*
X64620000Y-88680000D01*
X64860000Y-88550000D02*
X64740000Y-88610000D01*
X64970000Y-88500000D02*
X64860000Y-88550000D01*
X65080000Y-88450000D02*
X64970000Y-88500000D01*
X65210000Y-88410000D02*
X65080000Y-88450000D01*
X65340000Y-88370000D02*
X65210000Y-88410000D01*
X65460000Y-88340000D02*
X65340000Y-88370000D01*
X65580000Y-88320000D02*
X65460000Y-88340000D01*
X65720000Y-88300000D02*
X65580000Y-88320000D01*
X65840000Y-88290000D02*
X65720000Y-88300000D01*
X65970000Y-88290000D02*
X65840000Y-88290000D01*
X71370000Y-88290000D02*
X65970000Y-88290000D01*
X71470000Y-88280000D02*
X71370000Y-88290000D01*
X71560000Y-88270000D02*
X71470000Y-88280000D01*
X71660000Y-88250000D02*
X71560000Y-88270000D01*
X71750000Y-88210000D02*
X71660000Y-88250000D01*
X71840000Y-88170000D02*
X71750000Y-88210000D01*
X71920000Y-88120000D02*
X71840000Y-88170000D01*
X72000000Y-88060000D02*
X71920000Y-88120000D01*
X72070000Y-88000000D02*
X72000000Y-88060000D01*
X72140000Y-87930000D02*
X72070000Y-88000000D01*
X72190000Y-87850000D02*
X72140000Y-87930000D01*
X72240000Y-87770000D02*
X72190000Y-87850000D01*
X72280000Y-87680000D02*
X72240000Y-87770000D01*
X72320000Y-87590000D02*
X72280000Y-87680000D01*
X72340000Y-87490000D02*
X72320000Y-87590000D01*
X72360000Y-87400000D02*
X72340000Y-87490000D01*
X72360000Y-87300000D02*
X72360000Y-87400000D01*
X72360000Y-87180000D02*
X72360000Y-87300000D01*
X72340000Y-87090000D02*
X72360000Y-87180000D01*
X72320000Y-86990000D02*
X72340000Y-87090000D01*
X72280000Y-86900000D02*
X72320000Y-86990000D01*
X72240000Y-86810000D02*
X72280000Y-86900000D01*
X72190000Y-86730000D02*
X72240000Y-86810000D01*
X72140000Y-86650000D02*
X72190000Y-86730000D01*
X72070000Y-86580000D02*
X72140000Y-86650000D01*
X72000000Y-86520000D02*
X72070000Y-86580000D01*
X71920000Y-86460000D02*
X72000000Y-86520000D01*
X71840000Y-86410000D02*
X71920000Y-86460000D01*
X71750000Y-86370000D02*
X71840000Y-86410000D01*
X71660000Y-86330000D02*
X71750000Y-86370000D01*
X71560000Y-86310000D02*
X71660000Y-86330000D01*
X71470000Y-86300000D02*
X71560000Y-86310000D01*
X71370000Y-86290000D02*
X71470000Y-86300000D01*
X65970000Y-86290000D02*
X71370000Y-86290000D01*
X65840000Y-86290000D02*
X65970000Y-86290000D01*
X65710000Y-86280000D02*
X65840000Y-86290000D01*
X65580000Y-86260000D02*
X65710000Y-86280000D01*
X65450000Y-86240000D02*
X65580000Y-86260000D01*
X65330000Y-86210000D02*
X65450000Y-86240000D01*
X65220000Y-86180000D02*
X65330000Y-86210000D01*
X65090000Y-86130000D02*
X65220000Y-86180000D01*
X64970000Y-86090000D02*
X65090000Y-86130000D01*
X64850000Y-86030000D02*
X64970000Y-86090000D01*
X64730000Y-85970000D02*
X64850000Y-86030000D01*
X64630000Y-85910000D02*
X64730000Y-85970000D01*
X64520000Y-85840000D02*
X64630000Y-85910000D01*
X64410000Y-85760000D02*
X64520000Y-85840000D01*
X64310000Y-85680000D02*
X64410000Y-85760000D01*
X64220000Y-85590000D02*
X64310000Y-85680000D01*
X64130000Y-85500000D02*
X64220000Y-85590000D01*
X64040000Y-85400000D02*
X64130000Y-85500000D01*
X63960000Y-85310000D02*
X64040000Y-85400000D01*
X63880000Y-85200000D02*
X63960000Y-85310000D01*
X63810000Y-85090000D02*
X63880000Y-85200000D01*
X63750000Y-84980000D02*
X63810000Y-85090000D01*
X63690000Y-84870000D02*
X63750000Y-84980000D01*
X63640000Y-84750000D02*
X63690000Y-84870000D01*
X63590000Y-84630000D02*
X63640000Y-84750000D01*
X63550000Y-84510000D02*
X63590000Y-84630000D01*
X63510000Y-84390000D02*
X63550000Y-84510000D01*
X63480000Y-84260000D02*
X63510000Y-84390000D01*
X63460000Y-84130000D02*
X63480000Y-84260000D01*
X63440000Y-84010000D02*
X63460000Y-84130000D01*
X63430000Y-83890000D02*
X63440000Y-84010000D01*
X63430000Y-83750000D02*
X63430000Y-83890000D01*
X63430000Y-80850000D02*
X63430000Y-83750000D01*
X63420000Y-80750000D02*
X63430000Y-80850000D01*
X63410000Y-80660000D02*
X63420000Y-80750000D01*
X63390000Y-80560000D02*
X63410000Y-80660000D01*
X63350000Y-80470000D02*
X63390000Y-80560000D01*
X63310000Y-80380000D02*
X63350000Y-80470000D01*
X63260000Y-80300000D02*
X63310000Y-80380000D01*
X63200000Y-80220000D02*
X63260000Y-80300000D01*
X63140000Y-80150000D02*
X63200000Y-80220000D01*
X63070000Y-80080000D02*
X63140000Y-80150000D01*
X62990000Y-80030000D02*
X63070000Y-80080000D01*
X62910000Y-79980000D02*
X62990000Y-80030000D01*
X62820000Y-79940000D02*
X62910000Y-79980000D01*
X62730000Y-79900000D02*
X62820000Y-79940000D01*
X62630000Y-79880000D02*
X62730000Y-79900000D01*
X62540000Y-79860000D02*
X62630000Y-79880000D01*
X62440000Y-79860000D02*
X62540000Y-79860000D01*
X62320000Y-79860000D02*
X62440000Y-79860000D01*
X62230000Y-79880000D02*
X62320000Y-79860000D01*
X62130000Y-79900000D02*
X62230000Y-79880000D01*
X62040000Y-79940000D02*
X62130000Y-79900000D01*
X61950000Y-79980000D02*
X62040000Y-79940000D01*
X61870000Y-80030000D02*
X61950000Y-79980000D01*
X61790000Y-80080000D02*
X61870000Y-80030000D01*
X61720000Y-80150000D02*
X61790000Y-80080000D01*
X61660000Y-80220000D02*
X61720000Y-80150000D01*
X61600000Y-80300000D02*
X61660000Y-80220000D01*
X61550000Y-80380000D02*
X61600000Y-80300000D01*
X61510000Y-80470000D02*
X61550000Y-80380000D01*
X61470000Y-80560000D02*
X61510000Y-80470000D01*
X61450000Y-80660000D02*
X61470000Y-80560000D01*
X61440000Y-80750000D02*
X61450000Y-80660000D01*
X61430000Y-80850000D02*
X61440000Y-80750000D01*
X77360000Y-37580000D02*
X77360000Y-37550000D01*
X77360000Y-37680000D02*
X77360000Y-37580000D01*
X77380000Y-37770000D02*
X77360000Y-37680000D01*
X77400000Y-37870000D02*
X77380000Y-37770000D01*
X77440000Y-37960000D02*
X77400000Y-37870000D01*
X77480000Y-38050000D02*
X77440000Y-37960000D01*
X77530000Y-38130000D02*
X77480000Y-38050000D01*
X77580000Y-38210000D02*
X77530000Y-38130000D01*
X77650000Y-38280000D02*
X77580000Y-38210000D01*
X77720000Y-38340000D02*
X77650000Y-38280000D01*
X77800000Y-38400000D02*
X77720000Y-38340000D01*
X77880000Y-38450000D02*
X77800000Y-38400000D01*
X77970000Y-38490000D02*
X77880000Y-38450000D01*
X78060000Y-38530000D02*
X77970000Y-38490000D01*
X78160000Y-38550000D02*
X78060000Y-38530000D01*
X78250000Y-38560000D02*
X78160000Y-38550000D01*
X78350000Y-38570000D02*
X78250000Y-38560000D01*
X83750000Y-38570000D02*
X78350000Y-38570000D01*
X83880000Y-38570000D02*
X83750000Y-38570000D01*
X84000000Y-38580000D02*
X83880000Y-38570000D01*
X84130000Y-38600000D02*
X84000000Y-38580000D01*
X84270000Y-38620000D02*
X84130000Y-38600000D01*
X84390000Y-38650000D02*
X84270000Y-38620000D01*
X84500000Y-38680000D02*
X84390000Y-38650000D01*
X84640000Y-38730000D02*
X84500000Y-38680000D01*
X84750000Y-38770000D02*
X84640000Y-38730000D01*
X84860000Y-38830000D02*
X84750000Y-38770000D01*
X84980000Y-38890000D02*
X84860000Y-38830000D01*
X85100000Y-38960000D02*
X84980000Y-38890000D01*
X85200000Y-39020000D02*
X85100000Y-38960000D01*
X85300000Y-39100000D02*
X85200000Y-39020000D01*
X85410000Y-39180000D02*
X85300000Y-39100000D01*
X85500000Y-39260000D02*
X85410000Y-39180000D01*
X85600000Y-39360000D02*
X85500000Y-39260000D01*
X85680000Y-39460000D02*
X85600000Y-39360000D01*
X85760000Y-39550000D02*
X85680000Y-39460000D01*
X85840000Y-39660000D02*
X85760000Y-39550000D01*
X85910000Y-39770000D02*
X85840000Y-39660000D01*
X85970000Y-39880000D02*
X85910000Y-39770000D01*
X86030000Y-39990000D02*
X85970000Y-39880000D01*
X86080000Y-40110000D02*
X86030000Y-39990000D01*
X86130000Y-40220000D02*
X86080000Y-40110000D01*
X86180000Y-40360000D02*
X86130000Y-40220000D01*
X86210000Y-40470000D02*
X86180000Y-40360000D01*
X86240000Y-40600000D02*
X86210000Y-40470000D01*
X86260000Y-40730000D02*
X86240000Y-40600000D01*
X86280000Y-40850000D02*
X86260000Y-40730000D01*
X86290000Y-40990000D02*
X86280000Y-40850000D01*
X86290000Y-41110000D02*
X86290000Y-40990000D01*
X86290000Y-44010000D02*
X86290000Y-41110000D01*
X86300000Y-44110000D02*
X86290000Y-44010000D01*
X86310000Y-44200000D02*
X86300000Y-44110000D01*
X86330000Y-44300000D02*
X86310000Y-44200000D01*
X86370000Y-44390000D02*
X86330000Y-44300000D01*
X86410000Y-44480000D02*
X86370000Y-44390000D01*
X86460000Y-44560000D02*
X86410000Y-44480000D01*
X86520000Y-44640000D02*
X86460000Y-44560000D01*
X86580000Y-44710000D02*
X86520000Y-44640000D01*
X86650000Y-44780000D02*
X86580000Y-44710000D01*
X86730000Y-44830000D02*
X86650000Y-44780000D01*
X86810000Y-44880000D02*
X86730000Y-44830000D01*
X86900000Y-44920000D02*
X86810000Y-44880000D01*
X86990000Y-44960000D02*
X86900000Y-44920000D01*
X87090000Y-44980000D02*
X86990000Y-44960000D01*
X87180000Y-45000000D02*
X87090000Y-44980000D01*
X87280000Y-45000000D02*
X87180000Y-45000000D01*
X87400000Y-45000000D02*
X87280000Y-45000000D01*
X87490000Y-44980000D02*
X87400000Y-45000000D01*
X87590000Y-44960000D02*
X87490000Y-44980000D01*
X87680000Y-44920000D02*
X87590000Y-44960000D01*
X87770000Y-44880000D02*
X87680000Y-44920000D01*
X87850000Y-44830000D02*
X87770000Y-44880000D01*
X87930000Y-44780000D02*
X87850000Y-44830000D01*
X88000000Y-44710000D02*
X87930000Y-44780000D01*
X88060000Y-44640000D02*
X88000000Y-44710000D01*
X88120000Y-44560000D02*
X88060000Y-44640000D01*
X88170000Y-44480000D02*
X88120000Y-44560000D01*
X88210000Y-44390000D02*
X88170000Y-44480000D01*
X88250000Y-44300000D02*
X88210000Y-44390000D01*
X88270000Y-44200000D02*
X88250000Y-44300000D01*
X88280000Y-44110000D02*
X88270000Y-44200000D01*
X88290000Y-44010000D02*
X88280000Y-44110000D01*
X88290000Y-41110000D02*
X88290000Y-44010000D01*
X88290000Y-40990000D02*
X88290000Y-41110000D01*
X88300000Y-40850000D02*
X88290000Y-40990000D01*
X88320000Y-40730000D02*
X88300000Y-40850000D01*
X88340000Y-40600000D02*
X88320000Y-40730000D01*
X88370000Y-40470000D02*
X88340000Y-40600000D01*
X88410000Y-40350000D02*
X88370000Y-40470000D01*
X88450000Y-40230000D02*
X88410000Y-40350000D01*
X88490000Y-40110000D02*
X88450000Y-40230000D01*
X88550000Y-39990000D02*
X88490000Y-40110000D01*
X88610000Y-39880000D02*
X88550000Y-39990000D01*
X88670000Y-39770000D02*
X88610000Y-39880000D01*
X88740000Y-39660000D02*
X88670000Y-39770000D01*
X88820000Y-39550000D02*
X88740000Y-39660000D01*
X88900000Y-39450000D02*
X88820000Y-39550000D01*
X88980000Y-39360000D02*
X88900000Y-39450000D01*
X89080000Y-39260000D02*
X88980000Y-39360000D01*
X89180000Y-39180000D02*
X89080000Y-39260000D01*
X89280000Y-39100000D02*
X89180000Y-39180000D01*
X89380000Y-39020000D02*
X89280000Y-39100000D01*
X89480000Y-38960000D02*
X89380000Y-39020000D01*
X89600000Y-38890000D02*
X89480000Y-38960000D01*
X89720000Y-38830000D02*
X89600000Y-38890000D01*
X89830000Y-38780000D02*
X89720000Y-38830000D01*
X89940000Y-38730000D02*
X89830000Y-38780000D01*
X90070000Y-38690000D02*
X89940000Y-38730000D01*
X90200000Y-38650000D02*
X90070000Y-38690000D01*
X90320000Y-38620000D02*
X90200000Y-38650000D01*
X90440000Y-38600000D02*
X90320000Y-38620000D01*
X90580000Y-38580000D02*
X90440000Y-38600000D01*
X90700000Y-38570000D02*
X90580000Y-38580000D01*
X90830000Y-38570000D02*
X90700000Y-38570000D01*
X96230000Y-38570000D02*
X90830000Y-38570000D01*
X96330000Y-38560000D02*
X96230000Y-38570000D01*
X96420000Y-38550000D02*
X96330000Y-38560000D01*
X96520000Y-38530000D02*
X96420000Y-38550000D01*
X96610000Y-38490000D02*
X96520000Y-38530000D01*
X96700000Y-38450000D02*
X96610000Y-38490000D01*
X96780000Y-38400000D02*
X96700000Y-38450000D01*
X96860000Y-38340000D02*
X96780000Y-38400000D01*
X96930000Y-38280000D02*
X96860000Y-38340000D01*
X97000000Y-38210000D02*
X96930000Y-38280000D01*
X97050000Y-38130000D02*
X97000000Y-38210000D01*
X97100000Y-38050000D02*
X97050000Y-38130000D01*
X97140000Y-37960000D02*
X97100000Y-38050000D01*
X97180000Y-37870000D02*
X97140000Y-37960000D01*
X97200000Y-37770000D02*
X97180000Y-37870000D01*
X97220000Y-37680000D02*
X97200000Y-37770000D01*
X97220000Y-37580000D02*
X97220000Y-37680000D01*
X97220000Y-37550000D02*
X97220000Y-37580000D01*
X97220000Y-37450000D02*
X97220000Y-37550000D01*
X97200000Y-37360000D02*
X97220000Y-37450000D01*
X97180000Y-37260000D02*
X97200000Y-37360000D01*
X97140000Y-37170000D02*
X97180000Y-37260000D01*
X97100000Y-37080000D02*
X97140000Y-37170000D01*
X97050000Y-37000000D02*
X97100000Y-37080000D01*
X97000000Y-36920000D02*
X97050000Y-37000000D01*
X96930000Y-36850000D02*
X97000000Y-36920000D01*
X96860000Y-36790000D02*
X96930000Y-36850000D01*
X96780000Y-36730000D02*
X96860000Y-36790000D01*
X96700000Y-36680000D02*
X96780000Y-36730000D01*
X96610000Y-36640000D02*
X96700000Y-36680000D01*
X96520000Y-36600000D02*
X96610000Y-36640000D01*
X96420000Y-36580000D02*
X96520000Y-36600000D01*
X96330000Y-36570000D02*
X96420000Y-36580000D01*
X96230000Y-36560000D02*
X96330000Y-36570000D01*
X78350000Y-36560000D02*
X96230000Y-36560000D01*
X78250000Y-36570000D02*
X78350000Y-36560000D01*
X78160000Y-36580000D02*
X78250000Y-36570000D01*
X78060000Y-36600000D02*
X78160000Y-36580000D01*
X77970000Y-36640000D02*
X78060000Y-36600000D01*
X77880000Y-36680000D02*
X77970000Y-36640000D01*
X77800000Y-36730000D02*
X77880000Y-36680000D01*
X77720000Y-36790000D02*
X77800000Y-36730000D01*
X77650000Y-36850000D02*
X77720000Y-36790000D01*
X77580000Y-36920000D02*
X77650000Y-36850000D01*
X77530000Y-37000000D02*
X77580000Y-36920000D01*
X77480000Y-37080000D02*
X77530000Y-37000000D01*
X77440000Y-37170000D02*
X77480000Y-37080000D01*
X77400000Y-37260000D02*
X77440000Y-37170000D01*
X77380000Y-37360000D02*
X77400000Y-37260000D01*
X77360000Y-37450000D02*
X77380000Y-37360000D01*
X77360000Y-37550000D02*
X77360000Y-37450000D01*
X83750000Y-63430000D02*
X78350000Y-63430000D01*
X83880000Y-63430000D02*
X83750000Y-63430000D01*
X84010000Y-63440000D02*
X83880000Y-63430000D01*
X84130000Y-63460000D02*
X84010000Y-63440000D01*
X84260000Y-63480000D02*
X84130000Y-63460000D01*
X84390000Y-63510000D02*
X84260000Y-63480000D01*
X84510000Y-63550000D02*
X84390000Y-63510000D01*
X84630000Y-63590000D02*
X84510000Y-63550000D01*
X84750000Y-63630000D02*
X84630000Y-63590000D01*
X84870000Y-63690000D02*
X84750000Y-63630000D01*
X84980000Y-63750000D02*
X84870000Y-63690000D01*
X85090000Y-63810000D02*
X84980000Y-63750000D01*
X85200000Y-63880000D02*
X85090000Y-63810000D01*
X85310000Y-63960000D02*
X85200000Y-63880000D01*
X85410000Y-64040000D02*
X85310000Y-63960000D01*
X85500000Y-64130000D02*
X85410000Y-64040000D01*
X85590000Y-64220000D02*
X85500000Y-64130000D01*
X85680000Y-64310000D02*
X85590000Y-64220000D01*
X85760000Y-64410000D02*
X85680000Y-64310000D01*
X85840000Y-64520000D02*
X85760000Y-64410000D01*
X85900000Y-64620000D02*
X85840000Y-64520000D01*
X85970000Y-64740000D02*
X85900000Y-64620000D01*
X86030000Y-64850000D02*
X85970000Y-64740000D01*
X86090000Y-64970000D02*
X86030000Y-64850000D01*
X86130000Y-65090000D02*
X86090000Y-64970000D01*
X86170000Y-65210000D02*
X86130000Y-65090000D01*
X86210000Y-65330000D02*
X86170000Y-65210000D01*
X86240000Y-65460000D02*
X86210000Y-65330000D01*
X86260000Y-65590000D02*
X86240000Y-65460000D01*
X86280000Y-65710000D02*
X86260000Y-65590000D01*
X86290000Y-65840000D02*
X86280000Y-65710000D01*
X86290000Y-65970000D02*
X86290000Y-65840000D01*
X86290000Y-68870000D02*
X86290000Y-65970000D01*
X86300000Y-68970000D02*
X86290000Y-68870000D01*
X86310000Y-69060000D02*
X86300000Y-68970000D01*
X86330000Y-69160000D02*
X86310000Y-69060000D01*
X86370000Y-69250000D02*
X86330000Y-69160000D01*
X86410000Y-69340000D02*
X86370000Y-69250000D01*
X86460000Y-69420000D02*
X86410000Y-69340000D01*
X86520000Y-69500000D02*
X86460000Y-69420000D01*
X86580000Y-69570000D02*
X86520000Y-69500000D01*
X86650000Y-69640000D02*
X86580000Y-69570000D01*
X86730000Y-69690000D02*
X86650000Y-69640000D01*
X86810000Y-69740000D02*
X86730000Y-69690000D01*
X86900000Y-69780000D02*
X86810000Y-69740000D01*
X86990000Y-69820000D02*
X86900000Y-69780000D01*
X87090000Y-69840000D02*
X86990000Y-69820000D01*
X87180000Y-69860000D02*
X87090000Y-69840000D01*
X87280000Y-69860000D02*
X87180000Y-69860000D01*
X87400000Y-69860000D02*
X87280000Y-69860000D01*
X87490000Y-69840000D02*
X87400000Y-69860000D01*
X87590000Y-69820000D02*
X87490000Y-69840000D01*
X87680000Y-69780000D02*
X87590000Y-69820000D01*
X87770000Y-69740000D02*
X87680000Y-69780000D01*
X87850000Y-69690000D02*
X87770000Y-69740000D01*
X87930000Y-69640000D02*
X87850000Y-69690000D01*
X88000000Y-69570000D02*
X87930000Y-69640000D01*
X88060000Y-69500000D02*
X88000000Y-69570000D01*
X88120000Y-69420000D02*
X88060000Y-69500000D01*
X88170000Y-69340000D02*
X88120000Y-69420000D01*
X88210000Y-69250000D02*
X88170000Y-69340000D01*
X88250000Y-69160000D02*
X88210000Y-69250000D01*
X88270000Y-69060000D02*
X88250000Y-69160000D01*
X88280000Y-68970000D02*
X88270000Y-69060000D01*
X88290000Y-68870000D02*
X88280000Y-68970000D01*
X88290000Y-65970000D02*
X88290000Y-68870000D01*
X88290000Y-65850000D02*
X88290000Y-65970000D01*
X88300000Y-65710000D02*
X88290000Y-65850000D01*
X88320000Y-65590000D02*
X88300000Y-65710000D01*
X88340000Y-65460000D02*
X88320000Y-65590000D01*
X88370000Y-65330000D02*
X88340000Y-65460000D01*
X88400000Y-65220000D02*
X88370000Y-65330000D01*
X88450000Y-65080000D02*
X88400000Y-65220000D01*
X88500000Y-64970000D02*
X88450000Y-65080000D01*
X88550000Y-64850000D02*
X88500000Y-64970000D01*
X88610000Y-64740000D02*
X88550000Y-64850000D01*
X88670000Y-64630000D02*
X88610000Y-64740000D01*
X88740000Y-64520000D02*
X88670000Y-64630000D01*
X88820000Y-64410000D02*
X88740000Y-64520000D01*
X88900000Y-64320000D02*
X88820000Y-64410000D01*
X88980000Y-64220000D02*
X88900000Y-64320000D01*
X89080000Y-64120000D02*
X88980000Y-64220000D01*
X89180000Y-64040000D02*
X89080000Y-64120000D01*
X89270000Y-63960000D02*
X89180000Y-64040000D01*
X89380000Y-63880000D02*
X89270000Y-63960000D01*
X89480000Y-63820000D02*
X89380000Y-63880000D01*
X89600000Y-63750000D02*
X89480000Y-63820000D01*
X89720000Y-63690000D02*
X89600000Y-63750000D01*
X89830000Y-63640000D02*
X89720000Y-63690000D01*
X89940000Y-63590000D02*
X89830000Y-63640000D01*
X90070000Y-63550000D02*
X89940000Y-63590000D01*
X90200000Y-63510000D02*
X90070000Y-63550000D01*
X90320000Y-63480000D02*
X90200000Y-63510000D01*
X90440000Y-63460000D02*
X90320000Y-63480000D01*
X90580000Y-63440000D02*
X90440000Y-63460000D01*
X90700000Y-63430000D02*
X90580000Y-63440000D01*
X90830000Y-63430000D02*
X90700000Y-63430000D01*
X96230000Y-63430000D02*
X90830000Y-63430000D01*
X96330000Y-63420000D02*
X96230000Y-63430000D01*
X96420000Y-63410000D02*
X96330000Y-63420000D01*
X96520000Y-63390000D02*
X96420000Y-63410000D01*
X96610000Y-63350000D02*
X96520000Y-63390000D01*
X96700000Y-63310000D02*
X96610000Y-63350000D01*
X96780000Y-63260000D02*
X96700000Y-63310000D01*
X96860000Y-63200000D02*
X96780000Y-63260000D01*
X96930000Y-63140000D02*
X96860000Y-63200000D01*
X97000000Y-63070000D02*
X96930000Y-63140000D01*
X97050000Y-62990000D02*
X97000000Y-63070000D01*
X97100000Y-62910000D02*
X97050000Y-62990000D01*
X97140000Y-62820000D02*
X97100000Y-62910000D01*
X97180000Y-62730000D02*
X97140000Y-62820000D01*
X97200000Y-62630000D02*
X97180000Y-62730000D01*
X97220000Y-62540000D02*
X97200000Y-62630000D01*
X97220000Y-62440000D02*
X97220000Y-62540000D01*
X97220000Y-62320000D02*
X97220000Y-62440000D01*
X97200000Y-62230000D02*
X97220000Y-62320000D01*
X97180000Y-62130000D02*
X97200000Y-62230000D01*
X97140000Y-62040000D02*
X97180000Y-62130000D01*
X97100000Y-61950000D02*
X97140000Y-62040000D01*
X97050000Y-61870000D02*
X97100000Y-61950000D01*
X97000000Y-61790000D02*
X97050000Y-61870000D01*
X96930000Y-61720000D02*
X97000000Y-61790000D01*
X96860000Y-61660000D02*
X96930000Y-61720000D01*
X96780000Y-61600000D02*
X96860000Y-61660000D01*
X96700000Y-61550000D02*
X96780000Y-61600000D01*
X96610000Y-61510000D02*
X96700000Y-61550000D01*
X96520000Y-61470000D02*
X96610000Y-61510000D01*
X96420000Y-61450000D02*
X96520000Y-61470000D01*
X96330000Y-61440000D02*
X96420000Y-61450000D01*
X96230000Y-61430000D02*
X96330000Y-61440000D01*
X90830000Y-61430000D02*
X96230000Y-61430000D01*
X90700000Y-61430000D02*
X90830000Y-61430000D01*
X90570000Y-61420000D02*
X90700000Y-61430000D01*
X90450000Y-61400000D02*
X90570000Y-61420000D01*
X90320000Y-61380000D02*
X90450000Y-61400000D01*
X90190000Y-61350000D02*
X90320000Y-61380000D01*
X90070000Y-61310000D02*
X90190000Y-61350000D01*
X89950000Y-61270000D02*
X90070000Y-61310000D01*
X89830000Y-61230000D02*
X89950000Y-61270000D01*
X89710000Y-61170000D02*
X89830000Y-61230000D01*
X89600000Y-61110000D02*
X89710000Y-61170000D01*
X89490000Y-61050000D02*
X89600000Y-61110000D01*
X89370000Y-60970000D02*
X89490000Y-61050000D01*
X89270000Y-60900000D02*
X89370000Y-60970000D01*
X89170000Y-60820000D02*
X89270000Y-60900000D01*
X89080000Y-60730000D02*
X89170000Y-60820000D01*
X88990000Y-60640000D02*
X89080000Y-60730000D01*
X88900000Y-60550000D02*
X88990000Y-60640000D01*
X88820000Y-60450000D02*
X88900000Y-60550000D01*
X88740000Y-60340000D02*
X88820000Y-60450000D01*
X88680000Y-60240000D02*
X88740000Y-60340000D01*
X88610000Y-60120000D02*
X88680000Y-60240000D01*
X88550000Y-60010000D02*
X88610000Y-60120000D01*
X88490000Y-59890000D02*
X88550000Y-60010000D01*
X88450000Y-59770000D02*
X88490000Y-59890000D01*
X88410000Y-59650000D02*
X88450000Y-59770000D01*
X88370000Y-59530000D02*
X88410000Y-59650000D01*
X88340000Y-59400000D02*
X88370000Y-59530000D01*
X88320000Y-59270000D02*
X88340000Y-59400000D01*
X88300000Y-59150000D02*
X88320000Y-59270000D01*
X88290000Y-59020000D02*
X88300000Y-59150000D01*
X88290000Y-58890000D02*
X88290000Y-59020000D01*
X88290000Y-55990000D02*
X88290000Y-58890000D01*
X88280000Y-55890000D02*
X88290000Y-55990000D01*
X88270000Y-55800000D02*
X88280000Y-55890000D01*
X88250000Y-55700000D02*
X88270000Y-55800000D01*
X88210000Y-55610000D02*
X88250000Y-55700000D01*
X88170000Y-55520000D02*
X88210000Y-55610000D01*
X88120000Y-55440000D02*
X88170000Y-55520000D01*
X88060000Y-55360000D02*
X88120000Y-55440000D01*
X88000000Y-55290000D02*
X88060000Y-55360000D01*
X87930000Y-55220000D02*
X88000000Y-55290000D01*
X87850000Y-55170000D02*
X87930000Y-55220000D01*
X87770000Y-55120000D02*
X87850000Y-55170000D01*
X87680000Y-55080000D02*
X87770000Y-55120000D01*
X87590000Y-55040000D02*
X87680000Y-55080000D01*
X87490000Y-55020000D02*
X87590000Y-55040000D01*
X87400000Y-55000000D02*
X87490000Y-55020000D01*
X87300000Y-55000000D02*
X87400000Y-55000000D01*
X87180000Y-55000000D02*
X87300000Y-55000000D01*
X87090000Y-55020000D02*
X87180000Y-55000000D01*
X86990000Y-55040000D02*
X87090000Y-55020000D01*
X86900000Y-55080000D02*
X86990000Y-55040000D01*
X86810000Y-55120000D02*
X86900000Y-55080000D01*
X86730000Y-55170000D02*
X86810000Y-55120000D01*
X86650000Y-55220000D02*
X86730000Y-55170000D01*
X86580000Y-55290000D02*
X86650000Y-55220000D01*
X86520000Y-55360000D02*
X86580000Y-55290000D01*
X86460000Y-55440000D02*
X86520000Y-55360000D01*
X86410000Y-55520000D02*
X86460000Y-55440000D01*
X86370000Y-55610000D02*
X86410000Y-55520000D01*
X86330000Y-55700000D02*
X86370000Y-55610000D01*
X86310000Y-55800000D02*
X86330000Y-55700000D01*
X86300000Y-55890000D02*
X86310000Y-55800000D01*
X86290000Y-55990000D02*
X86300000Y-55890000D01*
X86290000Y-58890000D02*
X86290000Y-55990000D01*
X86290000Y-59020000D02*
X86290000Y-58890000D01*
X86280000Y-59140000D02*
X86290000Y-59020000D01*
X86260000Y-59270000D02*
X86280000Y-59140000D01*
X86240000Y-59400000D02*
X86260000Y-59270000D01*
X86210000Y-59520000D02*
X86240000Y-59400000D01*
X86170000Y-59660000D02*
X86210000Y-59520000D01*
X86130000Y-59770000D02*
X86170000Y-59660000D01*
X86090000Y-59890000D02*
X86130000Y-59770000D01*
X86030000Y-60010000D02*
X86090000Y-59890000D01*
X85970000Y-60120000D02*
X86030000Y-60010000D01*
X85900000Y-60240000D02*
X85970000Y-60120000D01*
X85840000Y-60340000D02*
X85900000Y-60240000D01*
X85760000Y-60450000D02*
X85840000Y-60340000D01*
X85670000Y-60550000D02*
X85760000Y-60450000D01*
X85590000Y-60640000D02*
X85670000Y-60550000D01*
X85500000Y-60730000D02*
X85590000Y-60640000D01*
X85410000Y-60820000D02*
X85500000Y-60730000D01*
X85310000Y-60900000D02*
X85410000Y-60820000D01*
X85200000Y-60980000D02*
X85310000Y-60900000D01*
X85090000Y-61050000D02*
X85200000Y-60980000D01*
X84990000Y-61110000D02*
X85090000Y-61050000D01*
X84860000Y-61170000D02*
X84990000Y-61110000D01*
X84750000Y-61230000D02*
X84860000Y-61170000D01*
X84630000Y-61270000D02*
X84750000Y-61230000D01*
X84510000Y-61310000D02*
X84630000Y-61270000D01*
X84390000Y-61350000D02*
X84510000Y-61310000D01*
X84260000Y-61380000D02*
X84390000Y-61350000D01*
X84130000Y-61400000D02*
X84260000Y-61380000D01*
X84010000Y-61420000D02*
X84130000Y-61400000D01*
X83880000Y-61430000D02*
X84010000Y-61420000D01*
X83750000Y-61430000D02*
X83880000Y-61430000D01*
X78350000Y-61430000D02*
X83750000Y-61430000D01*
X78250000Y-61440000D02*
X78350000Y-61430000D01*
X78160000Y-61450000D02*
X78250000Y-61440000D01*
X78060000Y-61470000D02*
X78160000Y-61450000D01*
X77970000Y-61510000D02*
X78060000Y-61470000D01*
X77880000Y-61550000D02*
X77970000Y-61510000D01*
X77800000Y-61600000D02*
X77880000Y-61550000D01*
X77720000Y-61660000D02*
X77800000Y-61600000D01*
X77650000Y-61720000D02*
X77720000Y-61660000D01*
X77580000Y-61790000D02*
X77650000Y-61720000D01*
X77530000Y-61870000D02*
X77580000Y-61790000D01*
X77480000Y-61950000D02*
X77530000Y-61870000D01*
X77440000Y-62040000D02*
X77480000Y-61950000D01*
X77400000Y-62130000D02*
X77440000Y-62040000D01*
X77380000Y-62230000D02*
X77400000Y-62130000D01*
X77360000Y-62320000D02*
X77380000Y-62230000D01*
X77360000Y-62440000D02*
X77360000Y-62320000D01*
X77360000Y-62540000D02*
X77360000Y-62440000D01*
X77380000Y-62630000D02*
X77360000Y-62540000D01*
X77400000Y-62730000D02*
X77380000Y-62630000D01*
X77440000Y-62820000D02*
X77400000Y-62730000D01*
X77480000Y-62910000D02*
X77440000Y-62820000D01*
X77530000Y-62990000D02*
X77480000Y-62910000D01*
X77580000Y-63070000D02*
X77530000Y-62990000D01*
X77650000Y-63140000D02*
X77580000Y-63070000D01*
X77720000Y-63200000D02*
X77650000Y-63140000D01*
X77800000Y-63260000D02*
X77720000Y-63200000D01*
X77880000Y-63310000D02*
X77800000Y-63260000D01*
X77970000Y-63350000D02*
X77880000Y-63310000D01*
X78060000Y-63390000D02*
X77970000Y-63350000D01*
X78160000Y-63410000D02*
X78060000Y-63390000D01*
X78250000Y-63420000D02*
X78160000Y-63410000D01*
X78350000Y-63430000D02*
X78250000Y-63420000D01*
X96230000Y-113160000D02*
X78350000Y-113160000D01*
X96330000Y-113150000D02*
X96230000Y-113160000D01*
X96420000Y-113140000D02*
X96330000Y-113150000D01*
X96520000Y-113120000D02*
X96420000Y-113140000D01*
X96610000Y-113080000D02*
X96520000Y-113120000D01*
X96700000Y-113040000D02*
X96610000Y-113080000D01*
X96780000Y-112990000D02*
X96700000Y-113040000D01*
X96860000Y-112930000D02*
X96780000Y-112990000D01*
X96930000Y-112870000D02*
X96860000Y-112930000D01*
X97000000Y-112800000D02*
X96930000Y-112870000D01*
X97050000Y-112720000D02*
X97000000Y-112800000D01*
X97100000Y-112640000D02*
X97050000Y-112720000D01*
X97140000Y-112550000D02*
X97100000Y-112640000D01*
X97180000Y-112460000D02*
X97140000Y-112550000D01*
X97200000Y-112360000D02*
X97180000Y-112460000D01*
X97220000Y-112270000D02*
X97200000Y-112360000D01*
X97220000Y-112170000D02*
X97220000Y-112270000D01*
X97220000Y-112140000D02*
X97220000Y-112170000D01*
X97220000Y-112040000D02*
X97220000Y-112140000D01*
X97200000Y-111950000D02*
X97220000Y-112040000D01*
X97180000Y-111850000D02*
X97200000Y-111950000D01*
X97140000Y-111760000D02*
X97180000Y-111850000D01*
X97100000Y-111670000D02*
X97140000Y-111760000D01*
X97050000Y-111590000D02*
X97100000Y-111670000D01*
X97000000Y-111510000D02*
X97050000Y-111590000D01*
X96930000Y-111440000D02*
X97000000Y-111510000D01*
X96860000Y-111380000D02*
X96930000Y-111440000D01*
X96780000Y-111320000D02*
X96860000Y-111380000D01*
X96700000Y-111270000D02*
X96780000Y-111320000D01*
X96610000Y-111230000D02*
X96700000Y-111270000D01*
X96520000Y-111190000D02*
X96610000Y-111230000D01*
X96420000Y-111170000D02*
X96520000Y-111190000D01*
X96330000Y-111160000D02*
X96420000Y-111170000D01*
X96230000Y-111150000D02*
X96330000Y-111160000D01*
X90830000Y-111150000D02*
X96230000Y-111150000D01*
X90700000Y-111150000D02*
X90830000Y-111150000D01*
X90570000Y-111140000D02*
X90700000Y-111150000D01*
X90450000Y-111120000D02*
X90570000Y-111140000D01*
X90320000Y-111100000D02*
X90450000Y-111120000D01*
X90190000Y-111070000D02*
X90320000Y-111100000D01*
X90070000Y-111030000D02*
X90190000Y-111070000D01*
X89950000Y-110990000D02*
X90070000Y-111030000D01*
X89830000Y-110950000D02*
X89950000Y-110990000D01*
X89710000Y-110890000D02*
X89830000Y-110950000D01*
X89600000Y-110830000D02*
X89710000Y-110890000D01*
X89490000Y-110770000D02*
X89600000Y-110830000D01*
X89370000Y-110690000D02*
X89490000Y-110770000D01*
X89270000Y-110620000D02*
X89370000Y-110690000D01*
X89170000Y-110540000D02*
X89270000Y-110620000D01*
X89080000Y-110450000D02*
X89170000Y-110540000D01*
X88990000Y-110360000D02*
X89080000Y-110450000D01*
X88900000Y-110270000D02*
X88990000Y-110360000D01*
X88820000Y-110170000D02*
X88900000Y-110270000D01*
X88740000Y-110060000D02*
X88820000Y-110170000D01*
X88680000Y-109960000D02*
X88740000Y-110060000D01*
X88610000Y-109840000D02*
X88680000Y-109960000D01*
X88550000Y-109730000D02*
X88610000Y-109840000D01*
X88490000Y-109610000D02*
X88550000Y-109730000D01*
X88450000Y-109490000D02*
X88490000Y-109610000D01*
X88410000Y-109370000D02*
X88450000Y-109490000D01*
X88370000Y-109250000D02*
X88410000Y-109370000D01*
X88340000Y-109120000D02*
X88370000Y-109250000D01*
X88320000Y-108990000D02*
X88340000Y-109120000D01*
X88300000Y-108870000D02*
X88320000Y-108990000D01*
X88290000Y-108740000D02*
X88300000Y-108870000D01*
X88290000Y-108610000D02*
X88290000Y-108740000D01*
X88290000Y-105710000D02*
X88290000Y-108610000D01*
X88280000Y-105610000D02*
X88290000Y-105710000D01*
X88270000Y-105520000D02*
X88280000Y-105610000D01*
X88250000Y-105420000D02*
X88270000Y-105520000D01*
X88210000Y-105330000D02*
X88250000Y-105420000D01*
X88170000Y-105240000D02*
X88210000Y-105330000D01*
X88120000Y-105160000D02*
X88170000Y-105240000D01*
X88060000Y-105080000D02*
X88120000Y-105160000D01*
X88000000Y-105010000D02*
X88060000Y-105080000D01*
X87930000Y-104940000D02*
X88000000Y-105010000D01*
X87850000Y-104890000D02*
X87930000Y-104940000D01*
X87770000Y-104840000D02*
X87850000Y-104890000D01*
X87680000Y-104800000D02*
X87770000Y-104840000D01*
X87590000Y-104760000D02*
X87680000Y-104800000D01*
X87490000Y-104740000D02*
X87590000Y-104760000D01*
X87400000Y-104720000D02*
X87490000Y-104740000D01*
X87300000Y-104720000D02*
X87400000Y-104720000D01*
X87180000Y-104720000D02*
X87300000Y-104720000D01*
X87090000Y-104740000D02*
X87180000Y-104720000D01*
X86990000Y-104760000D02*
X87090000Y-104740000D01*
X86900000Y-104800000D02*
X86990000Y-104760000D01*
X86810000Y-104840000D02*
X86900000Y-104800000D01*
X86730000Y-104890000D02*
X86810000Y-104840000D01*
X86650000Y-104940000D02*
X86730000Y-104890000D01*
X86580000Y-105010000D02*
X86650000Y-104940000D01*
X86520000Y-105080000D02*
X86580000Y-105010000D01*
X86460000Y-105160000D02*
X86520000Y-105080000D01*
X86410000Y-105240000D02*
X86460000Y-105160000D01*
X86370000Y-105330000D02*
X86410000Y-105240000D01*
X86330000Y-105420000D02*
X86370000Y-105330000D01*
X86310000Y-105520000D02*
X86330000Y-105420000D01*
X86300000Y-105610000D02*
X86310000Y-105520000D01*
X86290000Y-105710000D02*
X86300000Y-105610000D01*
X86290000Y-108610000D02*
X86290000Y-105710000D01*
X86290000Y-108740000D02*
X86290000Y-108610000D01*
X86280000Y-108860000D02*
X86290000Y-108740000D01*
X86260000Y-108990000D02*
X86280000Y-108860000D01*
X86240000Y-109120000D02*
X86260000Y-108990000D01*
X86210000Y-109240000D02*
X86240000Y-109120000D01*
X86170000Y-109380000D02*
X86210000Y-109240000D01*
X86130000Y-109490000D02*
X86170000Y-109380000D01*
X86090000Y-109610000D02*
X86130000Y-109490000D01*
X86030000Y-109730000D02*
X86090000Y-109610000D01*
X85970000Y-109840000D02*
X86030000Y-109730000D01*
X85900000Y-109960000D02*
X85970000Y-109840000D01*
X85840000Y-110060000D02*
X85900000Y-109960000D01*
X85760000Y-110170000D02*
X85840000Y-110060000D01*
X85670000Y-110270000D02*
X85760000Y-110170000D01*
X85590000Y-110360000D02*
X85670000Y-110270000D01*
X85500000Y-110450000D02*
X85590000Y-110360000D01*
X85410000Y-110540000D02*
X85500000Y-110450000D01*
X85310000Y-110620000D02*
X85410000Y-110540000D01*
X85200000Y-110700000D02*
X85310000Y-110620000D01*
X85090000Y-110770000D02*
X85200000Y-110700000D01*
X84990000Y-110830000D02*
X85090000Y-110770000D01*
X84860000Y-110890000D02*
X84990000Y-110830000D01*
X84750000Y-110950000D02*
X84860000Y-110890000D01*
X84630000Y-110990000D02*
X84750000Y-110950000D01*
X84510000Y-111030000D02*
X84630000Y-110990000D01*
X84390000Y-111070000D02*
X84510000Y-111030000D01*
X84260000Y-111100000D02*
X84390000Y-111070000D01*
X84130000Y-111120000D02*
X84260000Y-111100000D01*
X84010000Y-111140000D02*
X84130000Y-111120000D01*
X83880000Y-111150000D02*
X84010000Y-111140000D01*
X83750000Y-111150000D02*
X83880000Y-111150000D01*
X78350000Y-111150000D02*
X83750000Y-111150000D01*
X78250000Y-111160000D02*
X78350000Y-111150000D01*
X78160000Y-111170000D02*
X78250000Y-111160000D01*
X78060000Y-111190000D02*
X78160000Y-111170000D01*
X77970000Y-111230000D02*
X78060000Y-111190000D01*
X77880000Y-111270000D02*
X77970000Y-111230000D01*
X77800000Y-111320000D02*
X77880000Y-111270000D01*
X77720000Y-111380000D02*
X77800000Y-111320000D01*
X77650000Y-111440000D02*
X77720000Y-111380000D01*
X77580000Y-111510000D02*
X77650000Y-111440000D01*
X77530000Y-111590000D02*
X77580000Y-111510000D01*
X77480000Y-111670000D02*
X77530000Y-111590000D01*
X77440000Y-111760000D02*
X77480000Y-111670000D01*
X77400000Y-111850000D02*
X77440000Y-111760000D01*
X77380000Y-111950000D02*
X77400000Y-111850000D01*
X77360000Y-112040000D02*
X77380000Y-111950000D01*
X77360000Y-112140000D02*
X77360000Y-112040000D01*
X77360000Y-112170000D02*
X77360000Y-112140000D01*
X77360000Y-112270000D02*
X77360000Y-112170000D01*
X77380000Y-112360000D02*
X77360000Y-112270000D01*
X77400000Y-112460000D02*
X77380000Y-112360000D01*
X77440000Y-112550000D02*
X77400000Y-112460000D01*
X77480000Y-112640000D02*
X77440000Y-112550000D01*
X77530000Y-112720000D02*
X77480000Y-112640000D01*
X77580000Y-112800000D02*
X77530000Y-112720000D01*
X77650000Y-112870000D02*
X77580000Y-112800000D01*
X77720000Y-112930000D02*
X77650000Y-112870000D01*
X77800000Y-112990000D02*
X77720000Y-112930000D01*
X77880000Y-113040000D02*
X77800000Y-112990000D01*
X77970000Y-113080000D02*
X77880000Y-113040000D01*
X78060000Y-113120000D02*
X77970000Y-113080000D01*
X78160000Y-113140000D02*
X78060000Y-113120000D01*
X78250000Y-113150000D02*
X78160000Y-113140000D01*
X78350000Y-113160000D02*
X78250000Y-113150000D01*
X86290000Y-83750000D02*
X86290000Y-80850000D01*
X86290000Y-83880000D02*
X86290000Y-83750000D01*
X86280000Y-84010000D02*
X86290000Y-83880000D01*
X86260000Y-84130000D02*
X86280000Y-84010000D01*
X86240000Y-84260000D02*
X86260000Y-84130000D01*
X86210000Y-84390000D02*
X86240000Y-84260000D01*
X86170000Y-84510000D02*
X86210000Y-84390000D01*
X86130000Y-84630000D02*
X86170000Y-84510000D01*
X86090000Y-84750000D02*
X86130000Y-84630000D01*
X86030000Y-84870000D02*
X86090000Y-84750000D01*
X85970000Y-84980000D02*
X86030000Y-84870000D01*
X85900000Y-85100000D02*
X85970000Y-84980000D01*
X85840000Y-85200000D02*
X85900000Y-85100000D01*
X85760000Y-85310000D02*
X85840000Y-85200000D01*
X85680000Y-85410000D02*
X85760000Y-85310000D01*
X85590000Y-85500000D02*
X85680000Y-85410000D01*
X85500000Y-85590000D02*
X85590000Y-85500000D01*
X85410000Y-85680000D02*
X85500000Y-85590000D01*
X85310000Y-85760000D02*
X85410000Y-85680000D01*
X85210000Y-85830000D02*
X85310000Y-85760000D01*
X85090000Y-85910000D02*
X85210000Y-85830000D01*
X84980000Y-85970000D02*
X85090000Y-85910000D01*
X84870000Y-86030000D02*
X84980000Y-85970000D01*
X84760000Y-86080000D02*
X84870000Y-86030000D01*
X84630000Y-86130000D02*
X84760000Y-86080000D01*
X84510000Y-86170000D02*
X84630000Y-86130000D01*
X84390000Y-86210000D02*
X84510000Y-86170000D01*
X84260000Y-86240000D02*
X84390000Y-86210000D01*
X84130000Y-86260000D02*
X84260000Y-86240000D01*
X84010000Y-86280000D02*
X84130000Y-86260000D01*
X83880000Y-86290000D02*
X84010000Y-86280000D01*
X83750000Y-86290000D02*
X83880000Y-86290000D01*
X78350000Y-86290000D02*
X83750000Y-86290000D01*
X78250000Y-86300000D02*
X78350000Y-86290000D01*
X78160000Y-86310000D02*
X78250000Y-86300000D01*
X78060000Y-86330000D02*
X78160000Y-86310000D01*
X77970000Y-86370000D02*
X78060000Y-86330000D01*
X77880000Y-86410000D02*
X77970000Y-86370000D01*
X77800000Y-86460000D02*
X77880000Y-86410000D01*
X77720000Y-86520000D02*
X77800000Y-86460000D01*
X77650000Y-86580000D02*
X77720000Y-86520000D01*
X77580000Y-86650000D02*
X77650000Y-86580000D01*
X77530000Y-86730000D02*
X77580000Y-86650000D01*
X77480000Y-86810000D02*
X77530000Y-86730000D01*
X77440000Y-86900000D02*
X77480000Y-86810000D01*
X77400000Y-86990000D02*
X77440000Y-86900000D01*
X77380000Y-87090000D02*
X77400000Y-86990000D01*
X77360000Y-87180000D02*
X77380000Y-87090000D01*
X77360000Y-87280000D02*
X77360000Y-87180000D01*
X77360000Y-87400000D02*
X77360000Y-87280000D01*
X77380000Y-87490000D02*
X77360000Y-87400000D01*
X77400000Y-87590000D02*
X77380000Y-87490000D01*
X77440000Y-87680000D02*
X77400000Y-87590000D01*
X77480000Y-87770000D02*
X77440000Y-87680000D01*
X77530000Y-87850000D02*
X77480000Y-87770000D01*
X77580000Y-87930000D02*
X77530000Y-87850000D01*
X77650000Y-88000000D02*
X77580000Y-87930000D01*
X77720000Y-88060000D02*
X77650000Y-88000000D01*
X77800000Y-88120000D02*
X77720000Y-88060000D01*
X77880000Y-88170000D02*
X77800000Y-88120000D01*
X77970000Y-88210000D02*
X77880000Y-88170000D01*
X78060000Y-88250000D02*
X77970000Y-88210000D01*
X78160000Y-88270000D02*
X78060000Y-88250000D01*
X78250000Y-88280000D02*
X78160000Y-88270000D01*
X78350000Y-88290000D02*
X78250000Y-88280000D01*
X83750000Y-88290000D02*
X78350000Y-88290000D01*
X83880000Y-88290000D02*
X83750000Y-88290000D01*
X84010000Y-88300000D02*
X83880000Y-88290000D01*
X84130000Y-88320000D02*
X84010000Y-88300000D01*
X84260000Y-88340000D02*
X84130000Y-88320000D01*
X84390000Y-88370000D02*
X84260000Y-88340000D01*
X84510000Y-88410000D02*
X84390000Y-88370000D01*
X84630000Y-88450000D02*
X84510000Y-88410000D01*
X84750000Y-88490000D02*
X84630000Y-88450000D01*
X84870000Y-88550000D02*
X84750000Y-88490000D01*
X84980000Y-88610000D02*
X84870000Y-88550000D01*
X85090000Y-88670000D02*
X84980000Y-88610000D01*
X85210000Y-88750000D02*
X85090000Y-88670000D01*
X85310000Y-88820000D02*
X85210000Y-88750000D01*
X85410000Y-88900000D02*
X85310000Y-88820000D01*
X85500000Y-88990000D02*
X85410000Y-88900000D01*
X85590000Y-89080000D02*
X85500000Y-88990000D01*
X85680000Y-89170000D02*
X85590000Y-89080000D01*
X85760000Y-89270000D02*
X85680000Y-89170000D01*
X85840000Y-89380000D02*
X85760000Y-89270000D01*
X85900000Y-89480000D02*
X85840000Y-89380000D01*
X85970000Y-89600000D02*
X85900000Y-89480000D01*
X86030000Y-89710000D02*
X85970000Y-89600000D01*
X86090000Y-89830000D02*
X86030000Y-89710000D01*
X86130000Y-89950000D02*
X86090000Y-89830000D01*
X86170000Y-90070000D02*
X86130000Y-89950000D01*
X86210000Y-90190000D02*
X86170000Y-90070000D01*
X86240000Y-90320000D02*
X86210000Y-90190000D01*
X86260000Y-90450000D02*
X86240000Y-90320000D01*
X86280000Y-90570000D02*
X86260000Y-90450000D01*
X86290000Y-90700000D02*
X86280000Y-90570000D01*
X86290000Y-90830000D02*
X86290000Y-90700000D01*
X86290000Y-93730000D02*
X86290000Y-90830000D01*
X86300000Y-93830000D02*
X86290000Y-93730000D01*
X86310000Y-93920000D02*
X86300000Y-93830000D01*
X86330000Y-94020000D02*
X86310000Y-93920000D01*
X86370000Y-94110000D02*
X86330000Y-94020000D01*
X86410000Y-94200000D02*
X86370000Y-94110000D01*
X86460000Y-94280000D02*
X86410000Y-94200000D01*
X86520000Y-94360000D02*
X86460000Y-94280000D01*
X86580000Y-94430000D02*
X86520000Y-94360000D01*
X86650000Y-94500000D02*
X86580000Y-94430000D01*
X86730000Y-94550000D02*
X86650000Y-94500000D01*
X86810000Y-94600000D02*
X86730000Y-94550000D01*
X86900000Y-94640000D02*
X86810000Y-94600000D01*
X86990000Y-94680000D02*
X86900000Y-94640000D01*
X87090000Y-94700000D02*
X86990000Y-94680000D01*
X87180000Y-94720000D02*
X87090000Y-94700000D01*
X87280000Y-94720000D02*
X87180000Y-94720000D01*
X87400000Y-94720000D02*
X87280000Y-94720000D01*
X87490000Y-94700000D02*
X87400000Y-94720000D01*
X87590000Y-94680000D02*
X87490000Y-94700000D01*
X87680000Y-94640000D02*
X87590000Y-94680000D01*
X87770000Y-94600000D02*
X87680000Y-94640000D01*
X87850000Y-94550000D02*
X87770000Y-94600000D01*
X87930000Y-94500000D02*
X87850000Y-94550000D01*
X88000000Y-94430000D02*
X87930000Y-94500000D01*
X88060000Y-94360000D02*
X88000000Y-94430000D01*
X88120000Y-94280000D02*
X88060000Y-94360000D01*
X88170000Y-94200000D02*
X88120000Y-94280000D01*
X88210000Y-94110000D02*
X88170000Y-94200000D01*
X88250000Y-94020000D02*
X88210000Y-94110000D01*
X88270000Y-93920000D02*
X88250000Y-94020000D01*
X88280000Y-93830000D02*
X88270000Y-93920000D01*
X88290000Y-93730000D02*
X88280000Y-93830000D01*
X88290000Y-90830000D02*
X88290000Y-93730000D01*
X88290000Y-90710000D02*
X88290000Y-90830000D01*
X88300000Y-90570000D02*
X88290000Y-90710000D01*
X88320000Y-90450000D02*
X88300000Y-90570000D01*
X88340000Y-90320000D02*
X88320000Y-90450000D01*
X88370000Y-90190000D02*
X88340000Y-90320000D01*
X88400000Y-90080000D02*
X88370000Y-90190000D01*
X88450000Y-89940000D02*
X88400000Y-90080000D01*
X88500000Y-89830000D02*
X88450000Y-89940000D01*
X88550000Y-89710000D02*
X88500000Y-89830000D01*
X88610000Y-89600000D02*
X88550000Y-89710000D01*
X88670000Y-89490000D02*
X88610000Y-89600000D01*
X88740000Y-89380000D02*
X88670000Y-89490000D01*
X88820000Y-89270000D02*
X88740000Y-89380000D01*
X88900000Y-89180000D02*
X88820000Y-89270000D01*
X88980000Y-89080000D02*
X88900000Y-89180000D01*
X89080000Y-88980000D02*
X88980000Y-89080000D01*
X89180000Y-88900000D02*
X89080000Y-88980000D01*
X89270000Y-88820000D02*
X89180000Y-88900000D01*
X89380000Y-88740000D02*
X89270000Y-88820000D01*
X89480000Y-88680000D02*
X89380000Y-88740000D01*
X89600000Y-88610000D02*
X89480000Y-88680000D01*
X89720000Y-88550000D02*
X89600000Y-88610000D01*
X89830000Y-88500000D02*
X89720000Y-88550000D01*
X89940000Y-88450000D02*
X89830000Y-88500000D01*
X90070000Y-88410000D02*
X89940000Y-88450000D01*
X90200000Y-88370000D02*
X90070000Y-88410000D01*
X90320000Y-88340000D02*
X90200000Y-88370000D01*
X90440000Y-88320000D02*
X90320000Y-88340000D01*
X90580000Y-88300000D02*
X90440000Y-88320000D01*
X90700000Y-88290000D02*
X90580000Y-88300000D01*
X90830000Y-88290000D02*
X90700000Y-88290000D01*
X96230000Y-88290000D02*
X90830000Y-88290000D01*
X96330000Y-88280000D02*
X96230000Y-88290000D01*
X96420000Y-88270000D02*
X96330000Y-88280000D01*
X96520000Y-88250000D02*
X96420000Y-88270000D01*
X96610000Y-88210000D02*
X96520000Y-88250000D01*
X96700000Y-88170000D02*
X96610000Y-88210000D01*
X96780000Y-88120000D02*
X96700000Y-88170000D01*
X96860000Y-88060000D02*
X96780000Y-88120000D01*
X96930000Y-88000000D02*
X96860000Y-88060000D01*
X97000000Y-87930000D02*
X96930000Y-88000000D01*
X97050000Y-87850000D02*
X97000000Y-87930000D01*
X97100000Y-87770000D02*
X97050000Y-87850000D01*
X97140000Y-87680000D02*
X97100000Y-87770000D01*
X97180000Y-87590000D02*
X97140000Y-87680000D01*
X97200000Y-87490000D02*
X97180000Y-87590000D01*
X97220000Y-87400000D02*
X97200000Y-87490000D01*
X97220000Y-87300000D02*
X97220000Y-87400000D01*
X97220000Y-87180000D02*
X97220000Y-87300000D01*
X97200000Y-87090000D02*
X97220000Y-87180000D01*
X97180000Y-86990000D02*
X97200000Y-87090000D01*
X97140000Y-86900000D02*
X97180000Y-86990000D01*
X97100000Y-86810000D02*
X97140000Y-86900000D01*
X97050000Y-86730000D02*
X97100000Y-86810000D01*
X97000000Y-86650000D02*
X97050000Y-86730000D01*
X96930000Y-86580000D02*
X97000000Y-86650000D01*
X96860000Y-86520000D02*
X96930000Y-86580000D01*
X96780000Y-86460000D02*
X96860000Y-86520000D01*
X96700000Y-86410000D02*
X96780000Y-86460000D01*
X96610000Y-86370000D02*
X96700000Y-86410000D01*
X96520000Y-86330000D02*
X96610000Y-86370000D01*
X96420000Y-86310000D02*
X96520000Y-86330000D01*
X96330000Y-86300000D02*
X96420000Y-86310000D01*
X96230000Y-86290000D02*
X96330000Y-86300000D01*
X90830000Y-86290000D02*
X96230000Y-86290000D01*
X90700000Y-86290000D02*
X90830000Y-86290000D01*
X90570000Y-86280000D02*
X90700000Y-86290000D01*
X90440000Y-86260000D02*
X90570000Y-86280000D01*
X90310000Y-86240000D02*
X90440000Y-86260000D01*
X90190000Y-86210000D02*
X90310000Y-86240000D01*
X90080000Y-86180000D02*
X90190000Y-86210000D01*
X89950000Y-86130000D02*
X90080000Y-86180000D01*
X89830000Y-86090000D02*
X89950000Y-86130000D01*
X89710000Y-86030000D02*
X89830000Y-86090000D01*
X89590000Y-85970000D02*
X89710000Y-86030000D01*
X89490000Y-85910000D02*
X89590000Y-85970000D01*
X89380000Y-85840000D02*
X89490000Y-85910000D01*
X89270000Y-85760000D02*
X89380000Y-85840000D01*
X89170000Y-85680000D02*
X89270000Y-85760000D01*
X89080000Y-85590000D02*
X89170000Y-85680000D01*
X88990000Y-85500000D02*
X89080000Y-85590000D01*
X88900000Y-85400000D02*
X88990000Y-85500000D01*
X88820000Y-85310000D02*
X88900000Y-85400000D01*
X88740000Y-85200000D02*
X88820000Y-85310000D01*
X88670000Y-85090000D02*
X88740000Y-85200000D01*
X88610000Y-84980000D02*
X88670000Y-85090000D01*
X88550000Y-84870000D02*
X88610000Y-84980000D01*
X88500000Y-84750000D02*
X88550000Y-84870000D01*
X88450000Y-84630000D02*
X88500000Y-84750000D01*
X88410000Y-84510000D02*
X88450000Y-84630000D01*
X88370000Y-84390000D02*
X88410000Y-84510000D01*
X88340000Y-84260000D02*
X88370000Y-84390000D01*
X88320000Y-84130000D02*
X88340000Y-84260000D01*
X88300000Y-84010000D02*
X88320000Y-84130000D01*
X88290000Y-83890000D02*
X88300000Y-84010000D01*
X88290000Y-83750000D02*
X88290000Y-83890000D01*
X88290000Y-80850000D02*
X88290000Y-83750000D01*
X88280000Y-80750000D02*
X88290000Y-80850000D01*
X88270000Y-80660000D02*
X88280000Y-80750000D01*
X88250000Y-80560000D02*
X88270000Y-80660000D01*
X88210000Y-80470000D02*
X88250000Y-80560000D01*
X88170000Y-80380000D02*
X88210000Y-80470000D01*
X88120000Y-80300000D02*
X88170000Y-80380000D01*
X88060000Y-80220000D02*
X88120000Y-80300000D01*
X88000000Y-80150000D02*
X88060000Y-80220000D01*
X87930000Y-80080000D02*
X88000000Y-80150000D01*
X87850000Y-80030000D02*
X87930000Y-80080000D01*
X87770000Y-79980000D02*
X87850000Y-80030000D01*
X87680000Y-79940000D02*
X87770000Y-79980000D01*
X87590000Y-79900000D02*
X87680000Y-79940000D01*
X87490000Y-79880000D02*
X87590000Y-79900000D01*
X87400000Y-79860000D02*
X87490000Y-79880000D01*
X87300000Y-79860000D02*
X87400000Y-79860000D01*
X87180000Y-79860000D02*
X87300000Y-79860000D01*
X87090000Y-79880000D02*
X87180000Y-79860000D01*
X86990000Y-79900000D02*
X87090000Y-79880000D01*
X86900000Y-79940000D02*
X86990000Y-79900000D01*
X86810000Y-79980000D02*
X86900000Y-79940000D01*
X86730000Y-80030000D02*
X86810000Y-79980000D01*
X86650000Y-80080000D02*
X86730000Y-80030000D01*
X86580000Y-80150000D02*
X86650000Y-80080000D01*
X86520000Y-80220000D02*
X86580000Y-80150000D01*
X86460000Y-80300000D02*
X86520000Y-80220000D01*
X86410000Y-80380000D02*
X86460000Y-80300000D01*
X86370000Y-80470000D02*
X86410000Y-80380000D01*
X86330000Y-80560000D02*
X86370000Y-80470000D01*
X86310000Y-80660000D02*
X86330000Y-80560000D01*
X86300000Y-80750000D02*
X86310000Y-80660000D01*
X86290000Y-80850000D02*
X86300000Y-80750000D01*
X102220000Y-37580000D02*
X102220000Y-37550000D01*
X102220000Y-37680000D02*
X102220000Y-37580000D01*
X102240000Y-37770000D02*
X102220000Y-37680000D01*
X102260000Y-37870000D02*
X102240000Y-37770000D01*
X102300000Y-37960000D02*
X102260000Y-37870000D01*
X102340000Y-38050000D02*
X102300000Y-37960000D01*
X102390000Y-38130000D02*
X102340000Y-38050000D01*
X102440000Y-38210000D02*
X102390000Y-38130000D01*
X102510000Y-38280000D02*
X102440000Y-38210000D01*
X102580000Y-38340000D02*
X102510000Y-38280000D01*
X102660000Y-38400000D02*
X102580000Y-38340000D01*
X102740000Y-38450000D02*
X102660000Y-38400000D01*
X102830000Y-38490000D02*
X102740000Y-38450000D01*
X102920000Y-38530000D02*
X102830000Y-38490000D01*
X103020000Y-38550000D02*
X102920000Y-38530000D01*
X103110000Y-38560000D02*
X103020000Y-38550000D01*
X103210000Y-38570000D02*
X103110000Y-38560000D01*
X108610000Y-38570000D02*
X103210000Y-38570000D01*
X108740000Y-38570000D02*
X108610000Y-38570000D01*
X108870000Y-38580000D02*
X108740000Y-38570000D01*
X108990000Y-38600000D02*
X108870000Y-38580000D01*
X109120000Y-38620000D02*
X108990000Y-38600000D01*
X109250000Y-38650000D02*
X109120000Y-38620000D01*
X109370000Y-38690000D02*
X109250000Y-38650000D01*
X109500000Y-38730000D02*
X109370000Y-38690000D01*
X109610000Y-38770000D02*
X109500000Y-38730000D01*
X109720000Y-38830000D02*
X109610000Y-38770000D01*
X109840000Y-38890000D02*
X109720000Y-38830000D01*
X109960000Y-38960000D02*
X109840000Y-38890000D01*
X110060000Y-39020000D02*
X109960000Y-38960000D01*
X110170000Y-39100000D02*
X110060000Y-39020000D01*
X110270000Y-39180000D02*
X110170000Y-39100000D01*
X110360000Y-39270000D02*
X110270000Y-39180000D01*
X110450000Y-39360000D02*
X110360000Y-39270000D01*
X110540000Y-39450000D02*
X110450000Y-39360000D01*
X110620000Y-39550000D02*
X110540000Y-39450000D01*
X110690000Y-39650000D02*
X110620000Y-39550000D01*
X110770000Y-39770000D02*
X110690000Y-39650000D01*
X110830000Y-39880000D02*
X110770000Y-39770000D01*
X110890000Y-40000000D02*
X110830000Y-39880000D01*
X110950000Y-40110000D02*
X110890000Y-40000000D01*
X110990000Y-40230000D02*
X110950000Y-40110000D01*
X111030000Y-40350000D02*
X110990000Y-40230000D01*
X111070000Y-40480000D02*
X111030000Y-40350000D01*
X111100000Y-40600000D02*
X111070000Y-40480000D01*
X111120000Y-40730000D02*
X111100000Y-40600000D01*
X111140000Y-40850000D02*
X111120000Y-40730000D01*
X111150000Y-40980000D02*
X111140000Y-40850000D01*
X111150000Y-41110000D02*
X111150000Y-40980000D01*
X111150000Y-44010000D02*
X111150000Y-41110000D01*
X111160000Y-44110000D02*
X111150000Y-44010000D01*
X111170000Y-44200000D02*
X111160000Y-44110000D01*
X111190000Y-44300000D02*
X111170000Y-44200000D01*
X111230000Y-44390000D02*
X111190000Y-44300000D01*
X111270000Y-44480000D02*
X111230000Y-44390000D01*
X111320000Y-44560000D02*
X111270000Y-44480000D01*
X111380000Y-44640000D02*
X111320000Y-44560000D01*
X111440000Y-44710000D02*
X111380000Y-44640000D01*
X111510000Y-44780000D02*
X111440000Y-44710000D01*
X111590000Y-44830000D02*
X111510000Y-44780000D01*
X111670000Y-44880000D02*
X111590000Y-44830000D01*
X111760000Y-44920000D02*
X111670000Y-44880000D01*
X111850000Y-44960000D02*
X111760000Y-44920000D01*
X111950000Y-44980000D02*
X111850000Y-44960000D01*
X112040000Y-45000000D02*
X111950000Y-44980000D01*
X112140000Y-45000000D02*
X112040000Y-45000000D01*
X112250000Y-45000000D02*
X112140000Y-45000000D01*
X112340000Y-44980000D02*
X112250000Y-45000000D01*
X112440000Y-44960000D02*
X112340000Y-44980000D01*
X112530000Y-44920000D02*
X112440000Y-44960000D01*
X112620000Y-44880000D02*
X112530000Y-44920000D01*
X112700000Y-44830000D02*
X112620000Y-44880000D01*
X112780000Y-44780000D02*
X112700000Y-44830000D01*
X112850000Y-44710000D02*
X112780000Y-44780000D01*
X112910000Y-44640000D02*
X112850000Y-44710000D01*
X112970000Y-44560000D02*
X112910000Y-44640000D01*
X113020000Y-44480000D02*
X112970000Y-44560000D01*
X113060000Y-44390000D02*
X113020000Y-44480000D01*
X113100000Y-44300000D02*
X113060000Y-44390000D01*
X113120000Y-44200000D02*
X113100000Y-44300000D01*
X113130000Y-44110000D02*
X113120000Y-44200000D01*
X113140000Y-44010000D02*
X113130000Y-44110000D01*
X113140000Y-37550000D02*
X113140000Y-44010000D01*
X113130000Y-37450000D02*
X113140000Y-37550000D01*
X113120000Y-37360000D02*
X113130000Y-37450000D01*
X113100000Y-37260000D02*
X113120000Y-37360000D01*
X113060000Y-37170000D02*
X113100000Y-37260000D01*
X113020000Y-37080000D02*
X113060000Y-37170000D01*
X112970000Y-37000000D02*
X113020000Y-37080000D01*
X112910000Y-36920000D02*
X112970000Y-37000000D01*
X112850000Y-36850000D02*
X112910000Y-36920000D01*
X112780000Y-36790000D02*
X112850000Y-36850000D01*
X112700000Y-36730000D02*
X112780000Y-36790000D01*
X112620000Y-36680000D02*
X112700000Y-36730000D01*
X112530000Y-36640000D02*
X112620000Y-36680000D01*
X112440000Y-36600000D02*
X112530000Y-36640000D01*
X112340000Y-36580000D02*
X112440000Y-36600000D01*
X112250000Y-36570000D02*
X112340000Y-36580000D01*
X112150000Y-36560000D02*
X112250000Y-36570000D01*
X103210000Y-36560000D02*
X112150000Y-36560000D01*
X103110000Y-36570000D02*
X103210000Y-36560000D01*
X103020000Y-36580000D02*
X103110000Y-36570000D01*
X102920000Y-36600000D02*
X103020000Y-36580000D01*
X102830000Y-36640000D02*
X102920000Y-36600000D01*
X102740000Y-36680000D02*
X102830000Y-36640000D01*
X102660000Y-36730000D02*
X102740000Y-36680000D01*
X102580000Y-36790000D02*
X102660000Y-36730000D01*
X102510000Y-36850000D02*
X102580000Y-36790000D01*
X102440000Y-36920000D02*
X102510000Y-36850000D01*
X102390000Y-37000000D02*
X102440000Y-36920000D01*
X102340000Y-37080000D02*
X102390000Y-37000000D01*
X102300000Y-37170000D02*
X102340000Y-37080000D01*
X102260000Y-37260000D02*
X102300000Y-37170000D01*
X102240000Y-37360000D02*
X102260000Y-37260000D01*
X102220000Y-37450000D02*
X102240000Y-37360000D01*
X102220000Y-37550000D02*
X102220000Y-37450000D01*
X112150000Y-113160000D02*
X103210000Y-113160000D01*
X112250000Y-113150000D02*
X112150000Y-113160000D01*
X112340000Y-113140000D02*
X112250000Y-113150000D01*
X112440000Y-113120000D02*
X112340000Y-113140000D01*
X112530000Y-113080000D02*
X112440000Y-113120000D01*
X112620000Y-113040000D02*
X112530000Y-113080000D01*
X112700000Y-112990000D02*
X112620000Y-113040000D01*
X112780000Y-112930000D02*
X112700000Y-112990000D01*
X112850000Y-112870000D02*
X112780000Y-112930000D01*
X112910000Y-112800000D02*
X112850000Y-112870000D01*
X112970000Y-112720000D02*
X112910000Y-112800000D01*
X113020000Y-112640000D02*
X112970000Y-112720000D01*
X113060000Y-112550000D02*
X113020000Y-112640000D01*
X113100000Y-112460000D02*
X113060000Y-112550000D01*
X113120000Y-112360000D02*
X113100000Y-112460000D01*
X113130000Y-112270000D02*
X113120000Y-112360000D01*
X113140000Y-112170000D02*
X113130000Y-112270000D01*
X113140000Y-105710000D02*
X113140000Y-112170000D01*
X113130000Y-105610000D02*
X113140000Y-105710000D01*
X113120000Y-105520000D02*
X113130000Y-105610000D01*
X113100000Y-105420000D02*
X113120000Y-105520000D01*
X113060000Y-105330000D02*
X113100000Y-105420000D01*
X113020000Y-105240000D02*
X113060000Y-105330000D01*
X112970000Y-105160000D02*
X113020000Y-105240000D01*
X112910000Y-105080000D02*
X112970000Y-105160000D01*
X112850000Y-105010000D02*
X112910000Y-105080000D01*
X112780000Y-104940000D02*
X112850000Y-105010000D01*
X112700000Y-104890000D02*
X112780000Y-104940000D01*
X112620000Y-104840000D02*
X112700000Y-104890000D01*
X112530000Y-104800000D02*
X112620000Y-104840000D01*
X112440000Y-104760000D02*
X112530000Y-104800000D01*
X112340000Y-104740000D02*
X112440000Y-104760000D01*
X112250000Y-104720000D02*
X112340000Y-104740000D01*
X112140000Y-104720000D02*
X112250000Y-104720000D01*
X112040000Y-104720000D02*
X112140000Y-104720000D01*
X111950000Y-104740000D02*
X112040000Y-104720000D01*
X111850000Y-104760000D02*
X111950000Y-104740000D01*
X111760000Y-104800000D02*
X111850000Y-104760000D01*
X111670000Y-104840000D02*
X111760000Y-104800000D01*
X111590000Y-104890000D02*
X111670000Y-104840000D01*
X111510000Y-104940000D02*
X111590000Y-104890000D01*
X111440000Y-105010000D02*
X111510000Y-104940000D01*
X111380000Y-105080000D02*
X111440000Y-105010000D01*
X111320000Y-105160000D02*
X111380000Y-105080000D01*
X111270000Y-105240000D02*
X111320000Y-105160000D01*
X111230000Y-105330000D02*
X111270000Y-105240000D01*
X111190000Y-105420000D02*
X111230000Y-105330000D01*
X111170000Y-105520000D02*
X111190000Y-105420000D01*
X111160000Y-105610000D02*
X111170000Y-105520000D01*
X111150000Y-105710000D02*
X111160000Y-105610000D01*
X111150000Y-108610000D02*
X111150000Y-105710000D01*
X111150000Y-108740000D02*
X111150000Y-108610000D01*
X111140000Y-108870000D02*
X111150000Y-108740000D01*
X111120000Y-108990000D02*
X111140000Y-108870000D01*
X111100000Y-109120000D02*
X111120000Y-108990000D01*
X111070000Y-109250000D02*
X111100000Y-109120000D01*
X111030000Y-109370000D02*
X111070000Y-109250000D01*
X110990000Y-109490000D02*
X111030000Y-109370000D01*
X110950000Y-109610000D02*
X110990000Y-109490000D01*
X110890000Y-109720000D02*
X110950000Y-109610000D01*
X110830000Y-109850000D02*
X110890000Y-109720000D01*
X110770000Y-109950000D02*
X110830000Y-109850000D01*
X110700000Y-110060000D02*
X110770000Y-109950000D01*
X110620000Y-110170000D02*
X110700000Y-110060000D01*
X110540000Y-110260000D02*
X110620000Y-110170000D01*
X110450000Y-110370000D02*
X110540000Y-110260000D01*
X110360000Y-110450000D02*
X110450000Y-110370000D01*
X110260000Y-110540000D02*
X110360000Y-110450000D01*
X110170000Y-110620000D02*
X110260000Y-110540000D01*
X110070000Y-110690000D02*
X110170000Y-110620000D01*
X109950000Y-110770000D02*
X110070000Y-110690000D01*
X109840000Y-110830000D02*
X109950000Y-110770000D01*
X109730000Y-110890000D02*
X109840000Y-110830000D01*
X109610000Y-110950000D02*
X109730000Y-110890000D01*
X109490000Y-110990000D02*
X109610000Y-110950000D01*
X109380000Y-111030000D02*
X109490000Y-110990000D01*
X109250000Y-111070000D02*
X109380000Y-111030000D01*
X109120000Y-111100000D02*
X109250000Y-111070000D01*
X109000000Y-111120000D02*
X109120000Y-111100000D01*
X108870000Y-111140000D02*
X109000000Y-111120000D01*
X108740000Y-111150000D02*
X108870000Y-111140000D01*
X108610000Y-111150000D02*
X108740000Y-111150000D01*
X103210000Y-111150000D02*
X108610000Y-111150000D01*
X103110000Y-111160000D02*
X103210000Y-111150000D01*
X103020000Y-111170000D02*
X103110000Y-111160000D01*
X102920000Y-111190000D02*
X103020000Y-111170000D01*
X102830000Y-111230000D02*
X102920000Y-111190000D01*
X102740000Y-111270000D02*
X102830000Y-111230000D01*
X102660000Y-111320000D02*
X102740000Y-111270000D01*
X102580000Y-111380000D02*
X102660000Y-111320000D01*
X102510000Y-111440000D02*
X102580000Y-111380000D01*
X102440000Y-111510000D02*
X102510000Y-111440000D01*
X102390000Y-111590000D02*
X102440000Y-111510000D01*
X102340000Y-111670000D02*
X102390000Y-111590000D01*
X102300000Y-111760000D02*
X102340000Y-111670000D01*
X102260000Y-111850000D02*
X102300000Y-111760000D01*
X102240000Y-111950000D02*
X102260000Y-111850000D01*
X102220000Y-112040000D02*
X102240000Y-111950000D01*
X102220000Y-112140000D02*
X102220000Y-112040000D01*
X102220000Y-112170000D02*
X102220000Y-112140000D01*
X102220000Y-112270000D02*
X102220000Y-112170000D01*
X102240000Y-112360000D02*
X102220000Y-112270000D01*
X102260000Y-112460000D02*
X102240000Y-112360000D01*
X102300000Y-112550000D02*
X102260000Y-112460000D01*
X102340000Y-112640000D02*
X102300000Y-112550000D01*
X102390000Y-112720000D02*
X102340000Y-112640000D01*
X102440000Y-112800000D02*
X102390000Y-112720000D01*
X102510000Y-112870000D02*
X102440000Y-112800000D01*
X102580000Y-112930000D02*
X102510000Y-112870000D01*
X102660000Y-112990000D02*
X102580000Y-112930000D01*
X102740000Y-113040000D02*
X102660000Y-112990000D01*
X102830000Y-113080000D02*
X102740000Y-113040000D01*
X102920000Y-113120000D02*
X102830000Y-113080000D01*
X103020000Y-113140000D02*
X102920000Y-113120000D01*
X103110000Y-113150000D02*
X103020000Y-113140000D01*
X103210000Y-113160000D02*
X103110000Y-113150000D01*
X112040000Y-55000000D02*
X112150000Y-55000000D01*
X111950000Y-55020000D02*
X112040000Y-55000000D01*
X111850000Y-55040000D02*
X111950000Y-55020000D01*
X111760000Y-55080000D02*
X111850000Y-55040000D01*
X111670000Y-55120000D02*
X111760000Y-55080000D01*
X111590000Y-55170000D02*
X111670000Y-55120000D01*
X111510000Y-55220000D02*
X111590000Y-55170000D01*
X111440000Y-55290000D02*
X111510000Y-55220000D01*
X111380000Y-55360000D02*
X111440000Y-55290000D01*
X111320000Y-55440000D02*
X111380000Y-55360000D01*
X111270000Y-55520000D02*
X111320000Y-55440000D01*
X111230000Y-55610000D02*
X111270000Y-55520000D01*
X111190000Y-55700000D02*
X111230000Y-55610000D01*
X111170000Y-55800000D02*
X111190000Y-55700000D01*
X111160000Y-55890000D02*
X111170000Y-55800000D01*
X111150000Y-55990000D02*
X111160000Y-55890000D01*
X111150000Y-58890000D02*
X111150000Y-55990000D01*
X111150000Y-59010000D02*
X111150000Y-58890000D01*
X111140000Y-59150000D02*
X111150000Y-59010000D01*
X111120000Y-59270000D02*
X111140000Y-59150000D01*
X111100000Y-59400000D02*
X111120000Y-59270000D01*
X111070000Y-59530000D02*
X111100000Y-59400000D01*
X111030000Y-59650000D02*
X111070000Y-59530000D01*
X110990000Y-59770000D02*
X111030000Y-59650000D01*
X110950000Y-59890000D02*
X110990000Y-59770000D01*
X110890000Y-60010000D02*
X110950000Y-59890000D01*
X110830000Y-60120000D02*
X110890000Y-60010000D01*
X110770000Y-60230000D02*
X110830000Y-60120000D01*
X110700000Y-60340000D02*
X110770000Y-60230000D01*
X110620000Y-60450000D02*
X110700000Y-60340000D01*
X110540000Y-60540000D02*
X110620000Y-60450000D01*
X110460000Y-60640000D02*
X110540000Y-60540000D01*
X110360000Y-60740000D02*
X110460000Y-60640000D01*
X110260000Y-60820000D02*
X110360000Y-60740000D01*
X110160000Y-60900000D02*
X110260000Y-60820000D01*
X110060000Y-60980000D02*
X110160000Y-60900000D01*
X109960000Y-61040000D02*
X110060000Y-60980000D01*
X109840000Y-61110000D02*
X109960000Y-61040000D01*
X109720000Y-61170000D02*
X109840000Y-61110000D01*
X109610000Y-61220000D02*
X109720000Y-61170000D01*
X109500000Y-61270000D02*
X109610000Y-61220000D01*
X109370000Y-61310000D02*
X109500000Y-61270000D01*
X109240000Y-61350000D02*
X109370000Y-61310000D01*
X109120000Y-61380000D02*
X109240000Y-61350000D01*
X109000000Y-61400000D02*
X109120000Y-61380000D01*
X108860000Y-61420000D02*
X109000000Y-61400000D01*
X108740000Y-61430000D02*
X108860000Y-61420000D01*
X108610000Y-61430000D02*
X108740000Y-61430000D01*
X103210000Y-61430000D02*
X108610000Y-61430000D01*
X103110000Y-61440000D02*
X103210000Y-61430000D01*
X103020000Y-61450000D02*
X103110000Y-61440000D01*
X102920000Y-61470000D02*
X103020000Y-61450000D01*
X102830000Y-61510000D02*
X102920000Y-61470000D01*
X102740000Y-61550000D02*
X102830000Y-61510000D01*
X102660000Y-61600000D02*
X102740000Y-61550000D01*
X102580000Y-61660000D02*
X102660000Y-61600000D01*
X102510000Y-61720000D02*
X102580000Y-61660000D01*
X102440000Y-61790000D02*
X102510000Y-61720000D01*
X102390000Y-61870000D02*
X102440000Y-61790000D01*
X102340000Y-61950000D02*
X102390000Y-61870000D01*
X102300000Y-62040000D02*
X102340000Y-61950000D01*
X102260000Y-62130000D02*
X102300000Y-62040000D01*
X102240000Y-62230000D02*
X102260000Y-62130000D01*
X102220000Y-62320000D02*
X102240000Y-62230000D01*
X102220000Y-62420000D02*
X102220000Y-62320000D01*
X102220000Y-62540000D02*
X102220000Y-62420000D01*
X102240000Y-62630000D02*
X102220000Y-62540000D01*
X102260000Y-62730000D02*
X102240000Y-62630000D01*
X102300000Y-62820000D02*
X102260000Y-62730000D01*
X102340000Y-62910000D02*
X102300000Y-62820000D01*
X102390000Y-62990000D02*
X102340000Y-62910000D01*
X102440000Y-63070000D02*
X102390000Y-62990000D01*
X102510000Y-63140000D02*
X102440000Y-63070000D01*
X102580000Y-63200000D02*
X102510000Y-63140000D01*
X102660000Y-63260000D02*
X102580000Y-63200000D01*
X102740000Y-63310000D02*
X102660000Y-63260000D01*
X102830000Y-63350000D02*
X102740000Y-63310000D01*
X102920000Y-63390000D02*
X102830000Y-63350000D01*
X103020000Y-63410000D02*
X102920000Y-63390000D01*
X103110000Y-63420000D02*
X103020000Y-63410000D01*
X103210000Y-63430000D02*
X103110000Y-63420000D01*
X108610000Y-63430000D02*
X103210000Y-63430000D01*
X108740000Y-63430000D02*
X108610000Y-63430000D01*
X108860000Y-63440000D02*
X108740000Y-63430000D01*
X108990000Y-63460000D02*
X108860000Y-63440000D01*
X109130000Y-63480000D02*
X108990000Y-63460000D01*
X109250000Y-63510000D02*
X109130000Y-63480000D01*
X109360000Y-63540000D02*
X109250000Y-63510000D01*
X109500000Y-63590000D02*
X109360000Y-63540000D01*
X109610000Y-63630000D02*
X109500000Y-63590000D01*
X109720000Y-63690000D02*
X109610000Y-63630000D01*
X109840000Y-63750000D02*
X109720000Y-63690000D01*
X109960000Y-63820000D02*
X109840000Y-63750000D01*
X110060000Y-63880000D02*
X109960000Y-63820000D01*
X110160000Y-63960000D02*
X110060000Y-63880000D01*
X110270000Y-64040000D02*
X110160000Y-63960000D01*
X110360000Y-64120000D02*
X110270000Y-64040000D01*
X110460000Y-64220000D02*
X110360000Y-64120000D01*
X110540000Y-64320000D02*
X110460000Y-64220000D01*
X110620000Y-64410000D02*
X110540000Y-64320000D01*
X110700000Y-64520000D02*
X110620000Y-64410000D01*
X110770000Y-64630000D02*
X110700000Y-64520000D01*
X110830000Y-64740000D02*
X110770000Y-64630000D01*
X110890000Y-64850000D02*
X110830000Y-64740000D01*
X110940000Y-64970000D02*
X110890000Y-64850000D01*
X110990000Y-65080000D02*
X110940000Y-64970000D01*
X111040000Y-65220000D02*
X110990000Y-65080000D01*
X111070000Y-65330000D02*
X111040000Y-65220000D01*
X111100000Y-65460000D02*
X111070000Y-65330000D01*
X111120000Y-65590000D02*
X111100000Y-65460000D01*
X111140000Y-65710000D02*
X111120000Y-65590000D01*
X111150000Y-65850000D02*
X111140000Y-65710000D01*
X111150000Y-65970000D02*
X111150000Y-65850000D01*
X111150000Y-68870000D02*
X111150000Y-65970000D01*
X111160000Y-68970000D02*
X111150000Y-68870000D01*
X111170000Y-69060000D02*
X111160000Y-68970000D01*
X111190000Y-69160000D02*
X111170000Y-69060000D01*
X111230000Y-69250000D02*
X111190000Y-69160000D01*
X111270000Y-69340000D02*
X111230000Y-69250000D01*
X111320000Y-69420000D02*
X111270000Y-69340000D01*
X111380000Y-69500000D02*
X111320000Y-69420000D01*
X111440000Y-69570000D02*
X111380000Y-69500000D01*
X111510000Y-69640000D02*
X111440000Y-69570000D01*
X111590000Y-69690000D02*
X111510000Y-69640000D01*
X111670000Y-69740000D02*
X111590000Y-69690000D01*
X111760000Y-69780000D02*
X111670000Y-69740000D01*
X111850000Y-69820000D02*
X111760000Y-69780000D01*
X111950000Y-69840000D02*
X111850000Y-69820000D01*
X112040000Y-69860000D02*
X111950000Y-69840000D01*
X112140000Y-69860000D02*
X112040000Y-69860000D01*
X112250000Y-69860000D02*
X112140000Y-69860000D01*
X112340000Y-69840000D02*
X112250000Y-69860000D01*
X112440000Y-69820000D02*
X112340000Y-69840000D01*
X112530000Y-69780000D02*
X112440000Y-69820000D01*
X112620000Y-69740000D02*
X112530000Y-69780000D01*
X112700000Y-69690000D02*
X112620000Y-69740000D01*
X112780000Y-69640000D02*
X112700000Y-69690000D01*
X112850000Y-69570000D02*
X112780000Y-69640000D01*
X112910000Y-69500000D02*
X112850000Y-69570000D01*
X112970000Y-69420000D02*
X112910000Y-69500000D01*
X113020000Y-69340000D02*
X112970000Y-69420000D01*
X113060000Y-69250000D02*
X113020000Y-69340000D01*
X113100000Y-69160000D02*
X113060000Y-69250000D01*
X113120000Y-69060000D02*
X113100000Y-69160000D01*
X113130000Y-68970000D02*
X113120000Y-69060000D01*
X113140000Y-68870000D02*
X113130000Y-68970000D01*
X113140000Y-55990000D02*
X113140000Y-68870000D01*
X113130000Y-55890000D02*
X113140000Y-55990000D01*
X113120000Y-55800000D02*
X113130000Y-55890000D01*
X113100000Y-55700000D02*
X113120000Y-55800000D01*
X113060000Y-55610000D02*
X113100000Y-55700000D01*
X113020000Y-55520000D02*
X113060000Y-55610000D01*
X112970000Y-55440000D02*
X113020000Y-55520000D01*
X112910000Y-55360000D02*
X112970000Y-55440000D01*
X112850000Y-55290000D02*
X112910000Y-55360000D01*
X112780000Y-55220000D02*
X112850000Y-55290000D01*
X112700000Y-55170000D02*
X112780000Y-55220000D01*
X112620000Y-55120000D02*
X112700000Y-55170000D01*
X112530000Y-55080000D02*
X112620000Y-55120000D01*
X112440000Y-55040000D02*
X112530000Y-55080000D01*
X112340000Y-55020000D02*
X112440000Y-55040000D01*
X112250000Y-55000000D02*
X112340000Y-55020000D01*
X112150000Y-55000000D02*
X112250000Y-55000000D01*
X112040000Y-79860000D02*
X112150000Y-79860000D01*
X111950000Y-79880000D02*
X112040000Y-79860000D01*
X111850000Y-79900000D02*
X111950000Y-79880000D01*
X111760000Y-79940000D02*
X111850000Y-79900000D01*
X111670000Y-79980000D02*
X111760000Y-79940000D01*
X111590000Y-80030000D02*
X111670000Y-79980000D01*
X111510000Y-80080000D02*
X111590000Y-80030000D01*
X111440000Y-80150000D02*
X111510000Y-80080000D01*
X111380000Y-80220000D02*
X111440000Y-80150000D01*
X111320000Y-80300000D02*
X111380000Y-80220000D01*
X111270000Y-80380000D02*
X111320000Y-80300000D01*
X111230000Y-80470000D02*
X111270000Y-80380000D01*
X111190000Y-80560000D02*
X111230000Y-80470000D01*
X111170000Y-80660000D02*
X111190000Y-80560000D01*
X111160000Y-80750000D02*
X111170000Y-80660000D01*
X111150000Y-80850000D02*
X111160000Y-80750000D01*
X111150000Y-83750000D02*
X111150000Y-80850000D01*
X111150000Y-83870000D02*
X111150000Y-83750000D01*
X111140000Y-84010000D02*
X111150000Y-83870000D01*
X111120000Y-84130000D02*
X111140000Y-84010000D01*
X111100000Y-84260000D02*
X111120000Y-84130000D01*
X111070000Y-84390000D02*
X111100000Y-84260000D01*
X111030000Y-84510000D02*
X111070000Y-84390000D01*
X110990000Y-84630000D02*
X111030000Y-84510000D01*
X110950000Y-84750000D02*
X110990000Y-84630000D01*
X110890000Y-84870000D02*
X110950000Y-84750000D01*
X110830000Y-84980000D02*
X110890000Y-84870000D01*
X110770000Y-85090000D02*
X110830000Y-84980000D01*
X110700000Y-85200000D02*
X110770000Y-85090000D01*
X110620000Y-85310000D02*
X110700000Y-85200000D01*
X110540000Y-85410000D02*
X110620000Y-85310000D01*
X110460000Y-85500000D02*
X110540000Y-85410000D01*
X110360000Y-85600000D02*
X110460000Y-85500000D01*
X110260000Y-85680000D02*
X110360000Y-85600000D01*
X110160000Y-85760000D02*
X110260000Y-85680000D01*
X110060000Y-85840000D02*
X110160000Y-85760000D01*
X109960000Y-85900000D02*
X110060000Y-85840000D01*
X109840000Y-85970000D02*
X109960000Y-85900000D01*
X109720000Y-86030000D02*
X109840000Y-85970000D01*
X109610000Y-86080000D02*
X109720000Y-86030000D01*
X109500000Y-86130000D02*
X109610000Y-86080000D01*
X109370000Y-86170000D02*
X109500000Y-86130000D01*
X109240000Y-86210000D02*
X109370000Y-86170000D01*
X109120000Y-86240000D02*
X109240000Y-86210000D01*
X109000000Y-86260000D02*
X109120000Y-86240000D01*
X108860000Y-86280000D02*
X109000000Y-86260000D01*
X108740000Y-86290000D02*
X108860000Y-86280000D01*
X108610000Y-86290000D02*
X108740000Y-86290000D01*
X103210000Y-86290000D02*
X108610000Y-86290000D01*
X103110000Y-86300000D02*
X103210000Y-86290000D01*
X103020000Y-86310000D02*
X103110000Y-86300000D01*
X102920000Y-86330000D02*
X103020000Y-86310000D01*
X102830000Y-86370000D02*
X102920000Y-86330000D01*
X102740000Y-86410000D02*
X102830000Y-86370000D01*
X102660000Y-86460000D02*
X102740000Y-86410000D01*
X102580000Y-86520000D02*
X102660000Y-86460000D01*
X102510000Y-86580000D02*
X102580000Y-86520000D01*
X102440000Y-86650000D02*
X102510000Y-86580000D01*
X102390000Y-86730000D02*
X102440000Y-86650000D01*
X102340000Y-86810000D02*
X102390000Y-86730000D01*
X102300000Y-86900000D02*
X102340000Y-86810000D01*
X102260000Y-86990000D02*
X102300000Y-86900000D01*
X102240000Y-87090000D02*
X102260000Y-86990000D01*
X102220000Y-87180000D02*
X102240000Y-87090000D01*
X102220000Y-87280000D02*
X102220000Y-87180000D01*
X102220000Y-87400000D02*
X102220000Y-87280000D01*
X102240000Y-87490000D02*
X102220000Y-87400000D01*
X102260000Y-87590000D02*
X102240000Y-87490000D01*
X102300000Y-87680000D02*
X102260000Y-87590000D01*
X102340000Y-87770000D02*
X102300000Y-87680000D01*
X102390000Y-87850000D02*
X102340000Y-87770000D01*
X102440000Y-87930000D02*
X102390000Y-87850000D01*
X102510000Y-88000000D02*
X102440000Y-87930000D01*
X102580000Y-88060000D02*
X102510000Y-88000000D01*
X102660000Y-88120000D02*
X102580000Y-88060000D01*
X102740000Y-88170000D02*
X102660000Y-88120000D01*
X102830000Y-88210000D02*
X102740000Y-88170000D01*
X102920000Y-88250000D02*
X102830000Y-88210000D01*
X103020000Y-88270000D02*
X102920000Y-88250000D01*
X103110000Y-88280000D02*
X103020000Y-88270000D01*
X103210000Y-88290000D02*
X103110000Y-88280000D01*
X108610000Y-88290000D02*
X103210000Y-88290000D01*
X108740000Y-88290000D02*
X108610000Y-88290000D01*
X108860000Y-88300000D02*
X108740000Y-88290000D01*
X108990000Y-88320000D02*
X108860000Y-88300000D01*
X109130000Y-88340000D02*
X108990000Y-88320000D01*
X109250000Y-88370000D02*
X109130000Y-88340000D01*
X109360000Y-88400000D02*
X109250000Y-88370000D01*
X109500000Y-88450000D02*
X109360000Y-88400000D01*
X109610000Y-88490000D02*
X109500000Y-88450000D01*
X109720000Y-88550000D02*
X109610000Y-88490000D01*
X109840000Y-88610000D02*
X109720000Y-88550000D01*
X109960000Y-88680000D02*
X109840000Y-88610000D01*
X110060000Y-88740000D02*
X109960000Y-88680000D01*
X110160000Y-88820000D02*
X110060000Y-88740000D01*
X110270000Y-88900000D02*
X110160000Y-88820000D01*
X110360000Y-88980000D02*
X110270000Y-88900000D01*
X110460000Y-89080000D02*
X110360000Y-88980000D01*
X110540000Y-89180000D02*
X110460000Y-89080000D01*
X110620000Y-89270000D02*
X110540000Y-89180000D01*
X110700000Y-89380000D02*
X110620000Y-89270000D01*
X110770000Y-89490000D02*
X110700000Y-89380000D01*
X110830000Y-89600000D02*
X110770000Y-89490000D01*
X110890000Y-89710000D02*
X110830000Y-89600000D01*
X110940000Y-89830000D02*
X110890000Y-89710000D01*
X110990000Y-89940000D02*
X110940000Y-89830000D01*
X111040000Y-90080000D02*
X110990000Y-89940000D01*
X111070000Y-90190000D02*
X111040000Y-90080000D01*
X111100000Y-90320000D02*
X111070000Y-90190000D01*
X111120000Y-90450000D02*
X111100000Y-90320000D01*
X111140000Y-90570000D02*
X111120000Y-90450000D01*
X111150000Y-90710000D02*
X111140000Y-90570000D01*
X111150000Y-90830000D02*
X111150000Y-90710000D01*
X111150000Y-93730000D02*
X111150000Y-90830000D01*
X111160000Y-93830000D02*
X111150000Y-93730000D01*
X111170000Y-93920000D02*
X111160000Y-93830000D01*
X111190000Y-94020000D02*
X111170000Y-93920000D01*
X111230000Y-94110000D02*
X111190000Y-94020000D01*
X111270000Y-94200000D02*
X111230000Y-94110000D01*
X111320000Y-94280000D02*
X111270000Y-94200000D01*
X111380000Y-94360000D02*
X111320000Y-94280000D01*
X111440000Y-94430000D02*
X111380000Y-94360000D01*
X111510000Y-94500000D02*
X111440000Y-94430000D01*
X111590000Y-94550000D02*
X111510000Y-94500000D01*
X111670000Y-94600000D02*
X111590000Y-94550000D01*
X111760000Y-94640000D02*
X111670000Y-94600000D01*
X111850000Y-94680000D02*
X111760000Y-94640000D01*
X111950000Y-94700000D02*
X111850000Y-94680000D01*
X112040000Y-94720000D02*
X111950000Y-94700000D01*
X112140000Y-94720000D02*
X112040000Y-94720000D01*
X112250000Y-94720000D02*
X112140000Y-94720000D01*
X112340000Y-94700000D02*
X112250000Y-94720000D01*
X112440000Y-94680000D02*
X112340000Y-94700000D01*
X112530000Y-94640000D02*
X112440000Y-94680000D01*
X112620000Y-94600000D02*
X112530000Y-94640000D01*
X112700000Y-94550000D02*
X112620000Y-94600000D01*
X112780000Y-94500000D02*
X112700000Y-94550000D01*
X112850000Y-94430000D02*
X112780000Y-94500000D01*
X112910000Y-94360000D02*
X112850000Y-94430000D01*
X112970000Y-94280000D02*
X112910000Y-94360000D01*
X113020000Y-94200000D02*
X112970000Y-94280000D01*
X113060000Y-94110000D02*
X113020000Y-94200000D01*
X113100000Y-94020000D02*
X113060000Y-94110000D01*
X113120000Y-93920000D02*
X113100000Y-94020000D01*
X113130000Y-93830000D02*
X113120000Y-93920000D01*
X113140000Y-93730000D02*
X113130000Y-93830000D01*
X113140000Y-80850000D02*
X113140000Y-93730000D01*
X113130000Y-80750000D02*
X113140000Y-80850000D01*
X113120000Y-80660000D02*
X113130000Y-80750000D01*
X113100000Y-80560000D02*
X113120000Y-80660000D01*
X113060000Y-80470000D02*
X113100000Y-80560000D01*
X113020000Y-80380000D02*
X113060000Y-80470000D01*
X112970000Y-80300000D02*
X113020000Y-80380000D01*
X112910000Y-80220000D02*
X112970000Y-80300000D01*
X112850000Y-80150000D02*
X112910000Y-80220000D01*
X112780000Y-80080000D02*
X112850000Y-80150000D01*
X112700000Y-80030000D02*
X112780000Y-80080000D01*
X112620000Y-79980000D02*
X112700000Y-80030000D01*
X112530000Y-79940000D02*
X112620000Y-79980000D01*
X112440000Y-79900000D02*
X112530000Y-79940000D01*
X112340000Y-79880000D02*
X112440000Y-79900000D01*
X112250000Y-79860000D02*
X112340000Y-79880000D01*
X112150000Y-79860000D02*
X112250000Y-79860000D01*
X31570000Y-31560000D02*
X31570000Y-31580000D01*
X31570000Y-31550000D02*
X31570000Y-31560000D01*
X31580000Y-31550000D02*
X31570000Y-31550000D01*
X31600000Y-31550000D02*
X31580000Y-31550000D01*
X118120000Y-31550000D02*
X31600000Y-31550000D01*
X118140000Y-31550000D02*
X118120000Y-31550000D01*
X118150000Y-31550000D02*
X118140000Y-31550000D01*
X118150000Y-31560000D02*
X118150000Y-31550000D01*
X118150000Y-31580000D02*
X118150000Y-31560000D01*
X118150000Y-118140000D02*
X118150000Y-31580000D01*
X118150000Y-118160000D02*
X118150000Y-118140000D01*
X118150000Y-118170000D02*
X118150000Y-118160000D01*
X118140000Y-118170000D02*
X118150000Y-118170000D01*
X118120000Y-118170000D02*
X118140000Y-118170000D01*
X31600000Y-118170000D02*
X118120000Y-118170000D01*
X31580000Y-118170000D02*
X31600000Y-118170000D01*
X31570000Y-118170000D02*
X31580000Y-118170000D01*
X31570000Y-118160000D02*
X31570000Y-118170000D01*
X31570000Y-118140000D02*
X31570000Y-118160000D01*
X31570000Y-31580000D02*
X31570000Y-118140000D01*
M02*
