G04 #@! TF.GenerationSoftware,KiCad,Pcbnew,5.1.5+dfsg1-2build2*
G04 #@! TF.CreationDate,2021-09-30T13:46:44+00:00*
G04 #@! TF.ProjectId,mcp2221a-breakout-panel,6d637032-3232-4316-912d-627265616b6f,rev?*
G04 #@! TF.SameCoordinates,Original*
G04 #@! TF.FileFunction,Legend,Bot*
G04 #@! TF.FilePolarity,Positive*
%FSLAX46Y46*%
G04 Gerber Fmt 4.6, Leading zero omitted, Abs format (unit mm)*
G04 Created by KiCad (PCBNEW 5.1.5+dfsg1-2build2) date 2021-09-30 13:46:44*
%MOMM*%
%LPD*%
G04 APERTURE LIST*
%ADD10C,0.150000*%
%ADD11C,0.120000*%
G04 APERTURE END LIST*
D10*
X94641988Y-95410015D02*
X94737226Y-95362395D01*
X94880083Y-95362395D01*
X95022940Y-95410015D01*
X95118178Y-95505253D01*
X95165797Y-95600491D01*
X95213416Y-95790967D01*
X95213416Y-95933824D01*
X95165797Y-96124300D01*
X95118178Y-96219538D01*
X95022940Y-96314776D01*
X94880083Y-96362395D01*
X94784845Y-96362395D01*
X94641988Y-96314776D01*
X94594369Y-96267157D01*
X94594369Y-95933824D01*
X94784845Y-95933824D01*
X94165797Y-96362395D02*
X94165797Y-95362395D01*
X93784845Y-95362395D01*
X93689607Y-95410015D01*
X93641988Y-95457634D01*
X93594369Y-95552872D01*
X93594369Y-95695729D01*
X93641988Y-95790967D01*
X93689607Y-95838586D01*
X93784845Y-95886205D01*
X94165797Y-95886205D01*
X92975321Y-95362395D02*
X92880083Y-95362395D01*
X92784845Y-95410015D01*
X92737226Y-95457634D01*
X92689607Y-95552872D01*
X92641988Y-95743348D01*
X92641988Y-95981443D01*
X92689607Y-96171919D01*
X92737226Y-96267157D01*
X92784845Y-96314776D01*
X92880083Y-96362395D01*
X92975321Y-96362395D01*
X93070559Y-96314776D01*
X93118178Y-96267157D01*
X93165797Y-96171919D01*
X93213416Y-95981443D01*
X93213416Y-95743348D01*
X93165797Y-95552872D01*
X93118178Y-95457634D01*
X93070559Y-95410015D01*
X92975321Y-95362395D01*
X94641988Y-97950015D02*
X94737226Y-97902395D01*
X94880083Y-97902395D01*
X95022940Y-97950015D01*
X95118178Y-98045253D01*
X95165797Y-98140491D01*
X95213416Y-98330967D01*
X95213416Y-98473824D01*
X95165797Y-98664300D01*
X95118178Y-98759538D01*
X95022940Y-98854776D01*
X94880083Y-98902395D01*
X94784845Y-98902395D01*
X94641988Y-98854776D01*
X94594369Y-98807157D01*
X94594369Y-98473824D01*
X94784845Y-98473824D01*
X94165797Y-98902395D02*
X94165797Y-97902395D01*
X93784845Y-97902395D01*
X93689607Y-97950015D01*
X93641988Y-97997634D01*
X93594369Y-98092872D01*
X93594369Y-98235729D01*
X93641988Y-98330967D01*
X93689607Y-98378586D01*
X93784845Y-98426205D01*
X94165797Y-98426205D01*
X92641988Y-98902395D02*
X93213416Y-98902395D01*
X92927702Y-98902395D02*
X92927702Y-97902395D01*
X93022940Y-98045253D01*
X93118178Y-98140491D01*
X93213416Y-98188110D01*
X95165797Y-100075015D02*
X94165797Y-100075015D01*
X94356273Y-101442395D02*
X94689607Y-100966205D01*
X94927702Y-101442395D02*
X94927702Y-100442395D01*
X94546750Y-100442395D01*
X94451512Y-100490015D01*
X94403892Y-100537634D01*
X94356273Y-100632872D01*
X94356273Y-100775729D01*
X94403892Y-100870967D01*
X94451512Y-100918586D01*
X94546750Y-100966205D01*
X94927702Y-100966205D01*
X94165797Y-100075015D02*
X93213416Y-100075015D01*
X93975321Y-101394776D02*
X93832464Y-101442395D01*
X93594369Y-101442395D01*
X93499131Y-101394776D01*
X93451512Y-101347157D01*
X93403892Y-101251919D01*
X93403892Y-101156681D01*
X93451512Y-101061443D01*
X93499131Y-101013824D01*
X93594369Y-100966205D01*
X93784845Y-100918586D01*
X93880083Y-100870967D01*
X93927702Y-100823348D01*
X93975321Y-100728110D01*
X93975321Y-100632872D01*
X93927702Y-100537634D01*
X93880083Y-100490015D01*
X93784845Y-100442395D01*
X93546750Y-100442395D01*
X93403892Y-100490015D01*
X93213416Y-100075015D02*
X92451512Y-100075015D01*
X93118178Y-100442395D02*
X92546750Y-100442395D01*
X92832464Y-101442395D02*
X92832464Y-100442395D01*
X93451512Y-103982395D02*
X93784845Y-103506205D01*
X94022940Y-103982395D02*
X94022940Y-102982395D01*
X93641988Y-102982395D01*
X93546750Y-103030015D01*
X93499131Y-103077634D01*
X93451512Y-103172872D01*
X93451512Y-103315729D01*
X93499131Y-103410967D01*
X93546750Y-103458586D01*
X93641988Y-103506205D01*
X94022940Y-103506205D01*
X93118178Y-103982395D02*
X92594369Y-103315729D01*
X93118178Y-103315729D02*
X92594369Y-103982395D01*
X93927702Y-105522395D02*
X93356273Y-105522395D01*
X93641988Y-106522395D02*
X93641988Y-105522395D01*
X93118178Y-106522395D02*
X92594369Y-105855729D01*
X93118178Y-105855729D02*
X92594369Y-106522395D01*
X94641988Y-108110015D02*
X94737226Y-108062395D01*
X94880083Y-108062395D01*
X95022940Y-108110015D01*
X95118178Y-108205253D01*
X95165797Y-108300491D01*
X95213416Y-108490967D01*
X95213416Y-108633824D01*
X95165797Y-108824300D01*
X95118178Y-108919538D01*
X95022940Y-109014776D01*
X94880083Y-109062395D01*
X94784845Y-109062395D01*
X94641988Y-109014776D01*
X94594369Y-108967157D01*
X94594369Y-108633824D01*
X94784845Y-108633824D01*
X94165797Y-109062395D02*
X94165797Y-108062395D01*
X93784845Y-108062395D01*
X93689607Y-108110015D01*
X93641988Y-108157634D01*
X93594369Y-108252872D01*
X93594369Y-108395729D01*
X93641988Y-108490967D01*
X93689607Y-108538586D01*
X93784845Y-108586205D01*
X94165797Y-108586205D01*
X93213416Y-108157634D02*
X93165797Y-108110015D01*
X93070559Y-108062395D01*
X92832464Y-108062395D01*
X92737226Y-108110015D01*
X92689607Y-108157634D01*
X92641988Y-108252872D01*
X92641988Y-108348110D01*
X92689607Y-108490967D01*
X93261035Y-109062395D01*
X92641988Y-109062395D01*
X106893273Y-100442395D02*
X106559940Y-101442395D01*
X106226607Y-100442395D01*
X105893273Y-101442395D02*
X105893273Y-100442395D01*
X105655178Y-100442395D01*
X105512321Y-100490015D01*
X105417083Y-100585253D01*
X105369464Y-100680491D01*
X105321845Y-100870967D01*
X105321845Y-101013824D01*
X105369464Y-101204300D01*
X105417083Y-101299538D01*
X105512321Y-101394776D01*
X105655178Y-101442395D01*
X105893273Y-101442395D01*
X104893273Y-101442395D02*
X104893273Y-100442395D01*
X104655178Y-100442395D01*
X104512321Y-100490015D01*
X104417083Y-100585253D01*
X104369464Y-100680491D01*
X104321845Y-100870967D01*
X104321845Y-101013824D01*
X104369464Y-101204300D01*
X104417083Y-101299538D01*
X104512321Y-101394776D01*
X104655178Y-101442395D01*
X104893273Y-101442395D01*
X106798035Y-103934776D02*
X106655178Y-103982395D01*
X106417083Y-103982395D01*
X106321845Y-103934776D01*
X106274226Y-103887157D01*
X106226607Y-103791919D01*
X106226607Y-103696681D01*
X106274226Y-103601443D01*
X106321845Y-103553824D01*
X106417083Y-103506205D01*
X106607559Y-103458586D01*
X106702797Y-103410967D01*
X106750416Y-103363348D01*
X106798035Y-103268110D01*
X106798035Y-103172872D01*
X106750416Y-103077634D01*
X106702797Y-103030015D01*
X106607559Y-102982395D01*
X106369464Y-102982395D01*
X106226607Y-103030015D01*
X105226607Y-103887157D02*
X105274226Y-103934776D01*
X105417083Y-103982395D01*
X105512321Y-103982395D01*
X105655178Y-103934776D01*
X105750416Y-103839538D01*
X105798035Y-103744300D01*
X105845654Y-103553824D01*
X105845654Y-103410967D01*
X105798035Y-103220491D01*
X105750416Y-103125253D01*
X105655178Y-103030015D01*
X105512321Y-102982395D01*
X105417083Y-102982395D01*
X105274226Y-103030015D01*
X105226607Y-103077634D01*
X104321845Y-103982395D02*
X104798035Y-103982395D01*
X104798035Y-102982395D01*
X106798035Y-106474776D02*
X106655178Y-106522395D01*
X106417083Y-106522395D01*
X106321845Y-106474776D01*
X106274226Y-106427157D01*
X106226607Y-106331919D01*
X106226607Y-106236681D01*
X106274226Y-106141443D01*
X106321845Y-106093824D01*
X106417083Y-106046205D01*
X106607559Y-105998586D01*
X106702797Y-105950967D01*
X106750416Y-105903348D01*
X106798035Y-105808110D01*
X106798035Y-105712872D01*
X106750416Y-105617634D01*
X106702797Y-105570015D01*
X106607559Y-105522395D01*
X106369464Y-105522395D01*
X106226607Y-105570015D01*
X105798035Y-106522395D02*
X105798035Y-105522395D01*
X105559940Y-105522395D01*
X105417083Y-105570015D01*
X105321845Y-105665253D01*
X105274226Y-105760491D01*
X105226607Y-105950967D01*
X105226607Y-106093824D01*
X105274226Y-106284300D01*
X105321845Y-106379538D01*
X105417083Y-106474776D01*
X105559940Y-106522395D01*
X105798035Y-106522395D01*
X104845654Y-106236681D02*
X104369464Y-106236681D01*
X104940892Y-106522395D02*
X104607559Y-105522395D01*
X104274226Y-106522395D01*
X106226607Y-108110015D02*
X106321845Y-108062395D01*
X106464702Y-108062395D01*
X106607559Y-108110015D01*
X106702797Y-108205253D01*
X106750416Y-108300491D01*
X106798035Y-108490967D01*
X106798035Y-108633824D01*
X106750416Y-108824300D01*
X106702797Y-108919538D01*
X106607559Y-109014776D01*
X106464702Y-109062395D01*
X106369464Y-109062395D01*
X106226607Y-109014776D01*
X106178988Y-108967157D01*
X106178988Y-108633824D01*
X106369464Y-108633824D01*
X105750416Y-109062395D02*
X105750416Y-108062395D01*
X105369464Y-108062395D01*
X105274226Y-108110015D01*
X105226607Y-108157634D01*
X105178988Y-108252872D01*
X105178988Y-108395729D01*
X105226607Y-108490967D01*
X105274226Y-108538586D01*
X105369464Y-108586205D01*
X105750416Y-108586205D01*
X104845654Y-108062395D02*
X104226607Y-108062395D01*
X104559940Y-108443348D01*
X104417083Y-108443348D01*
X104321845Y-108490967D01*
X104274226Y-108538586D01*
X104226607Y-108633824D01*
X104226607Y-108871919D01*
X104274226Y-108967157D01*
X104321845Y-109014776D01*
X104417083Y-109062395D01*
X104702797Y-109062395D01*
X104798035Y-109014776D01*
X104845654Y-108967157D01*
X106226607Y-97950015D02*
X106321845Y-97902395D01*
X106464702Y-97902395D01*
X106607559Y-97950015D01*
X106702797Y-98045253D01*
X106750416Y-98140491D01*
X106798035Y-98330967D01*
X106798035Y-98473824D01*
X106750416Y-98664300D01*
X106702797Y-98759538D01*
X106607559Y-98854776D01*
X106464702Y-98902395D01*
X106369464Y-98902395D01*
X106226607Y-98854776D01*
X106178988Y-98807157D01*
X106178988Y-98473824D01*
X106369464Y-98473824D01*
X105750416Y-98902395D02*
X105750416Y-97902395D01*
X105178988Y-98902395D01*
X105178988Y-97902395D01*
X104702797Y-98902395D02*
X104702797Y-97902395D01*
X104464702Y-97902395D01*
X104321845Y-97950015D01*
X104226607Y-98045253D01*
X104178988Y-98140491D01*
X104131369Y-98330967D01*
X104131369Y-98473824D01*
X104178988Y-98664300D01*
X104226607Y-98759538D01*
X104321845Y-98854776D01*
X104464702Y-98902395D01*
X104702797Y-98902395D01*
X103386678Y-104809395D02*
X103386678Y-103809395D01*
X103053345Y-104523681D01*
X102720012Y-103809395D01*
X102720012Y-104809395D01*
X101672392Y-104714157D02*
X101720012Y-104761776D01*
X101862869Y-104809395D01*
X101958107Y-104809395D01*
X102100964Y-104761776D01*
X102196202Y-104666538D01*
X102243821Y-104571300D01*
X102291440Y-104380824D01*
X102291440Y-104237967D01*
X102243821Y-104047491D01*
X102196202Y-103952253D01*
X102100964Y-103857015D01*
X101958107Y-103809395D01*
X101862869Y-103809395D01*
X101720012Y-103857015D01*
X101672392Y-103904634D01*
X101243821Y-104809395D02*
X101243821Y-103809395D01*
X100862869Y-103809395D01*
X100767631Y-103857015D01*
X100720012Y-103904634D01*
X100672392Y-103999872D01*
X100672392Y-104142729D01*
X100720012Y-104237967D01*
X100767631Y-104285586D01*
X100862869Y-104333205D01*
X101243821Y-104333205D01*
X100291440Y-103904634D02*
X100243821Y-103857015D01*
X100148583Y-103809395D01*
X99910488Y-103809395D01*
X99815250Y-103857015D01*
X99767631Y-103904634D01*
X99720012Y-103999872D01*
X99720012Y-104095110D01*
X99767631Y-104237967D01*
X100339059Y-104809395D01*
X99720012Y-104809395D01*
X99339059Y-103904634D02*
X99291440Y-103857015D01*
X99196202Y-103809395D01*
X98958107Y-103809395D01*
X98862869Y-103857015D01*
X98815250Y-103904634D01*
X98767631Y-103999872D01*
X98767631Y-104095110D01*
X98815250Y-104237967D01*
X99386678Y-104809395D01*
X98767631Y-104809395D01*
X98386678Y-103904634D02*
X98339059Y-103857015D01*
X98243821Y-103809395D01*
X98005726Y-103809395D01*
X97910488Y-103857015D01*
X97862869Y-103904634D01*
X97815250Y-103999872D01*
X97815250Y-104095110D01*
X97862869Y-104237967D01*
X98434297Y-104809395D01*
X97815250Y-104809395D01*
X96862869Y-104809395D02*
X97434297Y-104809395D01*
X97148583Y-104809395D02*
X97148583Y-103809395D01*
X97243821Y-103952253D01*
X97339059Y-104047491D01*
X97434297Y-104095110D01*
X96481916Y-104523681D02*
X96005726Y-104523681D01*
X96577154Y-104809395D02*
X96243821Y-103809395D01*
X95910488Y-104809395D01*
X102434297Y-105935586D02*
X102291440Y-105983205D01*
X102243821Y-106030824D01*
X102196202Y-106126062D01*
X102196202Y-106268919D01*
X102243821Y-106364157D01*
X102291440Y-106411776D01*
X102386678Y-106459395D01*
X102767631Y-106459395D01*
X102767631Y-105459395D01*
X102434297Y-105459395D01*
X102339059Y-105507015D01*
X102291440Y-105554634D01*
X102243821Y-105649872D01*
X102243821Y-105745110D01*
X102291440Y-105840348D01*
X102339059Y-105887967D01*
X102434297Y-105935586D01*
X102767631Y-105935586D01*
X101767631Y-106459395D02*
X101767631Y-105792729D01*
X101767631Y-105983205D02*
X101720012Y-105887967D01*
X101672392Y-105840348D01*
X101577154Y-105792729D01*
X101481916Y-105792729D01*
X100767631Y-106411776D02*
X100862869Y-106459395D01*
X101053345Y-106459395D01*
X101148583Y-106411776D01*
X101196202Y-106316538D01*
X101196202Y-105935586D01*
X101148583Y-105840348D01*
X101053345Y-105792729D01*
X100862869Y-105792729D01*
X100767631Y-105840348D01*
X100720012Y-105935586D01*
X100720012Y-106030824D01*
X101196202Y-106126062D01*
X99862869Y-106459395D02*
X99862869Y-105935586D01*
X99910488Y-105840348D01*
X100005726Y-105792729D01*
X100196202Y-105792729D01*
X100291440Y-105840348D01*
X99862869Y-106411776D02*
X99958107Y-106459395D01*
X100196202Y-106459395D01*
X100291440Y-106411776D01*
X100339059Y-106316538D01*
X100339059Y-106221300D01*
X100291440Y-106126062D01*
X100196202Y-106078443D01*
X99958107Y-106078443D01*
X99862869Y-106030824D01*
X99386678Y-106459395D02*
X99386678Y-105459395D01*
X99291440Y-106078443D02*
X99005726Y-106459395D01*
X99005726Y-105792729D02*
X99386678Y-106173681D01*
X98434297Y-106459395D02*
X98529535Y-106411776D01*
X98577154Y-106364157D01*
X98624773Y-106268919D01*
X98624773Y-105983205D01*
X98577154Y-105887967D01*
X98529535Y-105840348D01*
X98434297Y-105792729D01*
X98291440Y-105792729D01*
X98196202Y-105840348D01*
X98148583Y-105887967D01*
X98100964Y-105983205D01*
X98100964Y-106268919D01*
X98148583Y-106364157D01*
X98196202Y-106411776D01*
X98291440Y-106459395D01*
X98434297Y-106459395D01*
X97243821Y-105792729D02*
X97243821Y-106459395D01*
X97672392Y-105792729D02*
X97672392Y-106316538D01*
X97624773Y-106411776D01*
X97529535Y-106459395D01*
X97386678Y-106459395D01*
X97291440Y-106411776D01*
X97243821Y-106364157D01*
X96910488Y-105792729D02*
X96529535Y-105792729D01*
X96767631Y-105459395D02*
X96767631Y-106316538D01*
X96720012Y-106411776D01*
X96624773Y-106459395D01*
X96529535Y-106459395D01*
X101934297Y-107109395D02*
X101362869Y-107109395D01*
X101648583Y-108109395D02*
X101648583Y-107109395D01*
X100696202Y-107585586D02*
X100553345Y-107633205D01*
X100505726Y-107680824D01*
X100458107Y-107776062D01*
X100458107Y-107918919D01*
X100505726Y-108014157D01*
X100553345Y-108061776D01*
X100648583Y-108109395D01*
X101029535Y-108109395D01*
X101029535Y-107109395D01*
X100696202Y-107109395D01*
X100600964Y-107157015D01*
X100553345Y-107204634D01*
X100505726Y-107299872D01*
X100505726Y-107395110D01*
X100553345Y-107490348D01*
X100600964Y-107537967D01*
X100696202Y-107585586D01*
X101029535Y-107585586D01*
X99600964Y-107442729D02*
X99600964Y-108109395D01*
X99839059Y-107061776D02*
X100077154Y-107776062D01*
X99458107Y-107776062D01*
X98886678Y-107109395D02*
X98791440Y-107109395D01*
X98696202Y-107157015D01*
X98648583Y-107204634D01*
X98600964Y-107299872D01*
X98553345Y-107490348D01*
X98553345Y-107728443D01*
X98600964Y-107918919D01*
X98648583Y-108014157D01*
X98696202Y-108061776D01*
X98791440Y-108109395D01*
X98886678Y-108109395D01*
X98981916Y-108061776D01*
X99029535Y-108014157D01*
X99077154Y-107918919D01*
X99124773Y-107728443D01*
X99124773Y-107490348D01*
X99077154Y-107299872D01*
X99029535Y-107204634D01*
X98981916Y-107157015D01*
X98886678Y-107109395D01*
X98220012Y-107109395D02*
X97600964Y-107109395D01*
X97934297Y-107490348D01*
X97791440Y-107490348D01*
X97696202Y-107537967D01*
X97648583Y-107585586D01*
X97600964Y-107680824D01*
X97600964Y-107918919D01*
X97648583Y-108014157D01*
X97696202Y-108061776D01*
X97791440Y-108109395D01*
X98077154Y-108109395D01*
X98172392Y-108061776D01*
X98220012Y-108014157D01*
X103339059Y-108854634D02*
X103291440Y-108807015D01*
X103196202Y-108759395D01*
X102958107Y-108759395D01*
X102862869Y-108807015D01*
X102815250Y-108854634D01*
X102767631Y-108949872D01*
X102767631Y-109045110D01*
X102815250Y-109187967D01*
X103386678Y-109759395D01*
X102767631Y-109759395D01*
X102148583Y-108759395D02*
X102053345Y-108759395D01*
X101958107Y-108807015D01*
X101910488Y-108854634D01*
X101862869Y-108949872D01*
X101815250Y-109140348D01*
X101815250Y-109378443D01*
X101862869Y-109568919D01*
X101910488Y-109664157D01*
X101958107Y-109711776D01*
X102053345Y-109759395D01*
X102148583Y-109759395D01*
X102243821Y-109711776D01*
X102291440Y-109664157D01*
X102339059Y-109568919D01*
X102386678Y-109378443D01*
X102386678Y-109140348D01*
X102339059Y-108949872D01*
X102291440Y-108854634D01*
X102243821Y-108807015D01*
X102148583Y-108759395D01*
X101434297Y-108854634D02*
X101386678Y-108807015D01*
X101291440Y-108759395D01*
X101053345Y-108759395D01*
X100958107Y-108807015D01*
X100910488Y-108854634D01*
X100862869Y-108949872D01*
X100862869Y-109045110D01*
X100910488Y-109187967D01*
X101481916Y-109759395D01*
X100862869Y-109759395D01*
X99910488Y-109759395D02*
X100481916Y-109759395D01*
X100196202Y-109759395D02*
X100196202Y-108759395D01*
X100291440Y-108902253D01*
X100386678Y-108997491D01*
X100481916Y-109045110D01*
X99291440Y-108759395D02*
X99196202Y-108759395D01*
X99100964Y-108807015D01*
X99053345Y-108854634D01*
X99005726Y-108949872D01*
X98958107Y-109140348D01*
X98958107Y-109378443D01*
X99005726Y-109568919D01*
X99053345Y-109664157D01*
X99100964Y-109711776D01*
X99196202Y-109759395D01*
X99291440Y-109759395D01*
X99386678Y-109711776D01*
X99434297Y-109664157D01*
X99481916Y-109568919D01*
X99529535Y-109378443D01*
X99529535Y-109140348D01*
X99481916Y-108949872D01*
X99434297Y-108854634D01*
X99386678Y-108807015D01*
X99291440Y-108759395D01*
X98624773Y-108759395D02*
X97958107Y-108759395D01*
X98386678Y-109759395D01*
X97053345Y-109759395D02*
X97624773Y-109759395D01*
X97339059Y-109759395D02*
X97339059Y-108759395D01*
X97434297Y-108902253D01*
X97529535Y-108997491D01*
X97624773Y-109045110D01*
X96196202Y-108759395D02*
X96386678Y-108759395D01*
X96481916Y-108807015D01*
X96529535Y-108854634D01*
X96624773Y-108997491D01*
X96672392Y-109187967D01*
X96672392Y-109568919D01*
X96624773Y-109664157D01*
X96577154Y-109711776D01*
X96481916Y-109759395D01*
X96291440Y-109759395D01*
X96196202Y-109711776D01*
X96148583Y-109664157D01*
X96100964Y-109568919D01*
X96100964Y-109330824D01*
X96148583Y-109235586D01*
X96196202Y-109187967D01*
X96291440Y-109140348D01*
X96481916Y-109140348D01*
X96577154Y-109187967D01*
X96624773Y-109235586D01*
X96672392Y-109330824D01*
X106893273Y-95362395D02*
X106559940Y-96362395D01*
X106226607Y-95362395D01*
X105559940Y-95838586D02*
X105417083Y-95886205D01*
X105369464Y-95933824D01*
X105321845Y-96029062D01*
X105321845Y-96171919D01*
X105369464Y-96267157D01*
X105417083Y-96314776D01*
X105512321Y-96362395D01*
X105893273Y-96362395D01*
X105893273Y-95362395D01*
X105559940Y-95362395D01*
X105464702Y-95410015D01*
X105417083Y-95457634D01*
X105369464Y-95552872D01*
X105369464Y-95648110D01*
X105417083Y-95743348D01*
X105464702Y-95790967D01*
X105559940Y-95838586D01*
X105893273Y-95838586D01*
X104893273Y-95362395D02*
X104893273Y-96171919D01*
X104845654Y-96267157D01*
X104798035Y-96314776D01*
X104702797Y-96362395D01*
X104512321Y-96362395D01*
X104417083Y-96314776D01*
X104369464Y-96267157D01*
X104321845Y-96171919D01*
X104321845Y-95362395D01*
D11*
X107280012Y-94580015D02*
X103784012Y-94580015D01*
X103784012Y-94580015D02*
X103784012Y-109940015D01*
X103784012Y-109940015D02*
X107280012Y-109940015D01*
X92160012Y-109940015D02*
X95656012Y-109940015D01*
X92160012Y-94580015D02*
X95656012Y-94580015D01*
X95656012Y-94580015D02*
X95656012Y-109940015D01*
D10*
X69781981Y-95410015D02*
X69877219Y-95362395D01*
X70020076Y-95362395D01*
X70162933Y-95410015D01*
X70258171Y-95505253D01*
X70305790Y-95600491D01*
X70353409Y-95790967D01*
X70353409Y-95933824D01*
X70305790Y-96124300D01*
X70258171Y-96219538D01*
X70162933Y-96314776D01*
X70020076Y-96362395D01*
X69924838Y-96362395D01*
X69781981Y-96314776D01*
X69734362Y-96267157D01*
X69734362Y-95933824D01*
X69924838Y-95933824D01*
X69305790Y-96362395D02*
X69305790Y-95362395D01*
X68924838Y-95362395D01*
X68829600Y-95410015D01*
X68781981Y-95457634D01*
X68734362Y-95552872D01*
X68734362Y-95695729D01*
X68781981Y-95790967D01*
X68829600Y-95838586D01*
X68924838Y-95886205D01*
X69305790Y-95886205D01*
X68115314Y-95362395D02*
X68020076Y-95362395D01*
X67924838Y-95410015D01*
X67877219Y-95457634D01*
X67829600Y-95552872D01*
X67781981Y-95743348D01*
X67781981Y-95981443D01*
X67829600Y-96171919D01*
X67877219Y-96267157D01*
X67924838Y-96314776D01*
X68020076Y-96362395D01*
X68115314Y-96362395D01*
X68210552Y-96314776D01*
X68258171Y-96267157D01*
X68305790Y-96171919D01*
X68353409Y-95981443D01*
X68353409Y-95743348D01*
X68305790Y-95552872D01*
X68258171Y-95457634D01*
X68210552Y-95410015D01*
X68115314Y-95362395D01*
X69781981Y-97950015D02*
X69877219Y-97902395D01*
X70020076Y-97902395D01*
X70162933Y-97950015D01*
X70258171Y-98045253D01*
X70305790Y-98140491D01*
X70353409Y-98330967D01*
X70353409Y-98473824D01*
X70305790Y-98664300D01*
X70258171Y-98759538D01*
X70162933Y-98854776D01*
X70020076Y-98902395D01*
X69924838Y-98902395D01*
X69781981Y-98854776D01*
X69734362Y-98807157D01*
X69734362Y-98473824D01*
X69924838Y-98473824D01*
X69305790Y-98902395D02*
X69305790Y-97902395D01*
X68924838Y-97902395D01*
X68829600Y-97950015D01*
X68781981Y-97997634D01*
X68734362Y-98092872D01*
X68734362Y-98235729D01*
X68781981Y-98330967D01*
X68829600Y-98378586D01*
X68924838Y-98426205D01*
X69305790Y-98426205D01*
X67781981Y-98902395D02*
X68353409Y-98902395D01*
X68067695Y-98902395D02*
X68067695Y-97902395D01*
X68162933Y-98045253D01*
X68258171Y-98140491D01*
X68353409Y-98188110D01*
X70305790Y-100075015D02*
X69305790Y-100075015D01*
X69496266Y-101442395D02*
X69829600Y-100966205D01*
X70067695Y-101442395D02*
X70067695Y-100442395D01*
X69686743Y-100442395D01*
X69591505Y-100490015D01*
X69543885Y-100537634D01*
X69496266Y-100632872D01*
X69496266Y-100775729D01*
X69543885Y-100870967D01*
X69591505Y-100918586D01*
X69686743Y-100966205D01*
X70067695Y-100966205D01*
X69305790Y-100075015D02*
X68353409Y-100075015D01*
X69115314Y-101394776D02*
X68972457Y-101442395D01*
X68734362Y-101442395D01*
X68639124Y-101394776D01*
X68591505Y-101347157D01*
X68543885Y-101251919D01*
X68543885Y-101156681D01*
X68591505Y-101061443D01*
X68639124Y-101013824D01*
X68734362Y-100966205D01*
X68924838Y-100918586D01*
X69020076Y-100870967D01*
X69067695Y-100823348D01*
X69115314Y-100728110D01*
X69115314Y-100632872D01*
X69067695Y-100537634D01*
X69020076Y-100490015D01*
X68924838Y-100442395D01*
X68686743Y-100442395D01*
X68543885Y-100490015D01*
X68353409Y-100075015D02*
X67591505Y-100075015D01*
X68258171Y-100442395D02*
X67686743Y-100442395D01*
X67972457Y-101442395D02*
X67972457Y-100442395D01*
X68591505Y-103982395D02*
X68924838Y-103506205D01*
X69162933Y-103982395D02*
X69162933Y-102982395D01*
X68781981Y-102982395D01*
X68686743Y-103030015D01*
X68639124Y-103077634D01*
X68591505Y-103172872D01*
X68591505Y-103315729D01*
X68639124Y-103410967D01*
X68686743Y-103458586D01*
X68781981Y-103506205D01*
X69162933Y-103506205D01*
X68258171Y-103982395D02*
X67734362Y-103315729D01*
X68258171Y-103315729D02*
X67734362Y-103982395D01*
X69067695Y-105522395D02*
X68496266Y-105522395D01*
X68781981Y-106522395D02*
X68781981Y-105522395D01*
X68258171Y-106522395D02*
X67734362Y-105855729D01*
X68258171Y-105855729D02*
X67734362Y-106522395D01*
X69781981Y-108110015D02*
X69877219Y-108062395D01*
X70020076Y-108062395D01*
X70162933Y-108110015D01*
X70258171Y-108205253D01*
X70305790Y-108300491D01*
X70353409Y-108490967D01*
X70353409Y-108633824D01*
X70305790Y-108824300D01*
X70258171Y-108919538D01*
X70162933Y-109014776D01*
X70020076Y-109062395D01*
X69924838Y-109062395D01*
X69781981Y-109014776D01*
X69734362Y-108967157D01*
X69734362Y-108633824D01*
X69924838Y-108633824D01*
X69305790Y-109062395D02*
X69305790Y-108062395D01*
X68924838Y-108062395D01*
X68829600Y-108110015D01*
X68781981Y-108157634D01*
X68734362Y-108252872D01*
X68734362Y-108395729D01*
X68781981Y-108490967D01*
X68829600Y-108538586D01*
X68924838Y-108586205D01*
X69305790Y-108586205D01*
X68353409Y-108157634D02*
X68305790Y-108110015D01*
X68210552Y-108062395D01*
X67972457Y-108062395D01*
X67877219Y-108110015D01*
X67829600Y-108157634D01*
X67781981Y-108252872D01*
X67781981Y-108348110D01*
X67829600Y-108490967D01*
X68401028Y-109062395D01*
X67781981Y-109062395D01*
X82033266Y-100442395D02*
X81699933Y-101442395D01*
X81366600Y-100442395D01*
X81033266Y-101442395D02*
X81033266Y-100442395D01*
X80795171Y-100442395D01*
X80652314Y-100490015D01*
X80557076Y-100585253D01*
X80509457Y-100680491D01*
X80461838Y-100870967D01*
X80461838Y-101013824D01*
X80509457Y-101204300D01*
X80557076Y-101299538D01*
X80652314Y-101394776D01*
X80795171Y-101442395D01*
X81033266Y-101442395D01*
X80033266Y-101442395D02*
X80033266Y-100442395D01*
X79795171Y-100442395D01*
X79652314Y-100490015D01*
X79557076Y-100585253D01*
X79509457Y-100680491D01*
X79461838Y-100870967D01*
X79461838Y-101013824D01*
X79509457Y-101204300D01*
X79557076Y-101299538D01*
X79652314Y-101394776D01*
X79795171Y-101442395D01*
X80033266Y-101442395D01*
X81938028Y-103934776D02*
X81795171Y-103982395D01*
X81557076Y-103982395D01*
X81461838Y-103934776D01*
X81414219Y-103887157D01*
X81366600Y-103791919D01*
X81366600Y-103696681D01*
X81414219Y-103601443D01*
X81461838Y-103553824D01*
X81557076Y-103506205D01*
X81747552Y-103458586D01*
X81842790Y-103410967D01*
X81890409Y-103363348D01*
X81938028Y-103268110D01*
X81938028Y-103172872D01*
X81890409Y-103077634D01*
X81842790Y-103030015D01*
X81747552Y-102982395D01*
X81509457Y-102982395D01*
X81366600Y-103030015D01*
X80366600Y-103887157D02*
X80414219Y-103934776D01*
X80557076Y-103982395D01*
X80652314Y-103982395D01*
X80795171Y-103934776D01*
X80890409Y-103839538D01*
X80938028Y-103744300D01*
X80985647Y-103553824D01*
X80985647Y-103410967D01*
X80938028Y-103220491D01*
X80890409Y-103125253D01*
X80795171Y-103030015D01*
X80652314Y-102982395D01*
X80557076Y-102982395D01*
X80414219Y-103030015D01*
X80366600Y-103077634D01*
X79461838Y-103982395D02*
X79938028Y-103982395D01*
X79938028Y-102982395D01*
X81938028Y-106474776D02*
X81795171Y-106522395D01*
X81557076Y-106522395D01*
X81461838Y-106474776D01*
X81414219Y-106427157D01*
X81366600Y-106331919D01*
X81366600Y-106236681D01*
X81414219Y-106141443D01*
X81461838Y-106093824D01*
X81557076Y-106046205D01*
X81747552Y-105998586D01*
X81842790Y-105950967D01*
X81890409Y-105903348D01*
X81938028Y-105808110D01*
X81938028Y-105712872D01*
X81890409Y-105617634D01*
X81842790Y-105570015D01*
X81747552Y-105522395D01*
X81509457Y-105522395D01*
X81366600Y-105570015D01*
X80938028Y-106522395D02*
X80938028Y-105522395D01*
X80699933Y-105522395D01*
X80557076Y-105570015D01*
X80461838Y-105665253D01*
X80414219Y-105760491D01*
X80366600Y-105950967D01*
X80366600Y-106093824D01*
X80414219Y-106284300D01*
X80461838Y-106379538D01*
X80557076Y-106474776D01*
X80699933Y-106522395D01*
X80938028Y-106522395D01*
X79985647Y-106236681D02*
X79509457Y-106236681D01*
X80080885Y-106522395D02*
X79747552Y-105522395D01*
X79414219Y-106522395D01*
X81366600Y-108110015D02*
X81461838Y-108062395D01*
X81604695Y-108062395D01*
X81747552Y-108110015D01*
X81842790Y-108205253D01*
X81890409Y-108300491D01*
X81938028Y-108490967D01*
X81938028Y-108633824D01*
X81890409Y-108824300D01*
X81842790Y-108919538D01*
X81747552Y-109014776D01*
X81604695Y-109062395D01*
X81509457Y-109062395D01*
X81366600Y-109014776D01*
X81318981Y-108967157D01*
X81318981Y-108633824D01*
X81509457Y-108633824D01*
X80890409Y-109062395D02*
X80890409Y-108062395D01*
X80509457Y-108062395D01*
X80414219Y-108110015D01*
X80366600Y-108157634D01*
X80318981Y-108252872D01*
X80318981Y-108395729D01*
X80366600Y-108490967D01*
X80414219Y-108538586D01*
X80509457Y-108586205D01*
X80890409Y-108586205D01*
X79985647Y-108062395D02*
X79366600Y-108062395D01*
X79699933Y-108443348D01*
X79557076Y-108443348D01*
X79461838Y-108490967D01*
X79414219Y-108538586D01*
X79366600Y-108633824D01*
X79366600Y-108871919D01*
X79414219Y-108967157D01*
X79461838Y-109014776D01*
X79557076Y-109062395D01*
X79842790Y-109062395D01*
X79938028Y-109014776D01*
X79985647Y-108967157D01*
X81366600Y-97950015D02*
X81461838Y-97902395D01*
X81604695Y-97902395D01*
X81747552Y-97950015D01*
X81842790Y-98045253D01*
X81890409Y-98140491D01*
X81938028Y-98330967D01*
X81938028Y-98473824D01*
X81890409Y-98664300D01*
X81842790Y-98759538D01*
X81747552Y-98854776D01*
X81604695Y-98902395D01*
X81509457Y-98902395D01*
X81366600Y-98854776D01*
X81318981Y-98807157D01*
X81318981Y-98473824D01*
X81509457Y-98473824D01*
X80890409Y-98902395D02*
X80890409Y-97902395D01*
X80318981Y-98902395D01*
X80318981Y-97902395D01*
X79842790Y-98902395D02*
X79842790Y-97902395D01*
X79604695Y-97902395D01*
X79461838Y-97950015D01*
X79366600Y-98045253D01*
X79318981Y-98140491D01*
X79271362Y-98330967D01*
X79271362Y-98473824D01*
X79318981Y-98664300D01*
X79366600Y-98759538D01*
X79461838Y-98854776D01*
X79604695Y-98902395D01*
X79842790Y-98902395D01*
X78526671Y-104809395D02*
X78526671Y-103809395D01*
X78193338Y-104523681D01*
X77860005Y-103809395D01*
X77860005Y-104809395D01*
X76812385Y-104714157D02*
X76860005Y-104761776D01*
X77002862Y-104809395D01*
X77098100Y-104809395D01*
X77240957Y-104761776D01*
X77336195Y-104666538D01*
X77383814Y-104571300D01*
X77431433Y-104380824D01*
X77431433Y-104237967D01*
X77383814Y-104047491D01*
X77336195Y-103952253D01*
X77240957Y-103857015D01*
X77098100Y-103809395D01*
X77002862Y-103809395D01*
X76860005Y-103857015D01*
X76812385Y-103904634D01*
X76383814Y-104809395D02*
X76383814Y-103809395D01*
X76002862Y-103809395D01*
X75907624Y-103857015D01*
X75860005Y-103904634D01*
X75812385Y-103999872D01*
X75812385Y-104142729D01*
X75860005Y-104237967D01*
X75907624Y-104285586D01*
X76002862Y-104333205D01*
X76383814Y-104333205D01*
X75431433Y-103904634D02*
X75383814Y-103857015D01*
X75288576Y-103809395D01*
X75050481Y-103809395D01*
X74955243Y-103857015D01*
X74907624Y-103904634D01*
X74860005Y-103999872D01*
X74860005Y-104095110D01*
X74907624Y-104237967D01*
X75479052Y-104809395D01*
X74860005Y-104809395D01*
X74479052Y-103904634D02*
X74431433Y-103857015D01*
X74336195Y-103809395D01*
X74098100Y-103809395D01*
X74002862Y-103857015D01*
X73955243Y-103904634D01*
X73907624Y-103999872D01*
X73907624Y-104095110D01*
X73955243Y-104237967D01*
X74526671Y-104809395D01*
X73907624Y-104809395D01*
X73526671Y-103904634D02*
X73479052Y-103857015D01*
X73383814Y-103809395D01*
X73145719Y-103809395D01*
X73050481Y-103857015D01*
X73002862Y-103904634D01*
X72955243Y-103999872D01*
X72955243Y-104095110D01*
X73002862Y-104237967D01*
X73574290Y-104809395D01*
X72955243Y-104809395D01*
X72002862Y-104809395D02*
X72574290Y-104809395D01*
X72288576Y-104809395D02*
X72288576Y-103809395D01*
X72383814Y-103952253D01*
X72479052Y-104047491D01*
X72574290Y-104095110D01*
X71621909Y-104523681D02*
X71145719Y-104523681D01*
X71717147Y-104809395D02*
X71383814Y-103809395D01*
X71050481Y-104809395D01*
X77574290Y-105935586D02*
X77431433Y-105983205D01*
X77383814Y-106030824D01*
X77336195Y-106126062D01*
X77336195Y-106268919D01*
X77383814Y-106364157D01*
X77431433Y-106411776D01*
X77526671Y-106459395D01*
X77907624Y-106459395D01*
X77907624Y-105459395D01*
X77574290Y-105459395D01*
X77479052Y-105507015D01*
X77431433Y-105554634D01*
X77383814Y-105649872D01*
X77383814Y-105745110D01*
X77431433Y-105840348D01*
X77479052Y-105887967D01*
X77574290Y-105935586D01*
X77907624Y-105935586D01*
X76907624Y-106459395D02*
X76907624Y-105792729D01*
X76907624Y-105983205D02*
X76860005Y-105887967D01*
X76812385Y-105840348D01*
X76717147Y-105792729D01*
X76621909Y-105792729D01*
X75907624Y-106411776D02*
X76002862Y-106459395D01*
X76193338Y-106459395D01*
X76288576Y-106411776D01*
X76336195Y-106316538D01*
X76336195Y-105935586D01*
X76288576Y-105840348D01*
X76193338Y-105792729D01*
X76002862Y-105792729D01*
X75907624Y-105840348D01*
X75860005Y-105935586D01*
X75860005Y-106030824D01*
X76336195Y-106126062D01*
X75002862Y-106459395D02*
X75002862Y-105935586D01*
X75050481Y-105840348D01*
X75145719Y-105792729D01*
X75336195Y-105792729D01*
X75431433Y-105840348D01*
X75002862Y-106411776D02*
X75098100Y-106459395D01*
X75336195Y-106459395D01*
X75431433Y-106411776D01*
X75479052Y-106316538D01*
X75479052Y-106221300D01*
X75431433Y-106126062D01*
X75336195Y-106078443D01*
X75098100Y-106078443D01*
X75002862Y-106030824D01*
X74526671Y-106459395D02*
X74526671Y-105459395D01*
X74431433Y-106078443D02*
X74145719Y-106459395D01*
X74145719Y-105792729D02*
X74526671Y-106173681D01*
X73574290Y-106459395D02*
X73669528Y-106411776D01*
X73717147Y-106364157D01*
X73764766Y-106268919D01*
X73764766Y-105983205D01*
X73717147Y-105887967D01*
X73669528Y-105840348D01*
X73574290Y-105792729D01*
X73431433Y-105792729D01*
X73336195Y-105840348D01*
X73288576Y-105887967D01*
X73240957Y-105983205D01*
X73240957Y-106268919D01*
X73288576Y-106364157D01*
X73336195Y-106411776D01*
X73431433Y-106459395D01*
X73574290Y-106459395D01*
X72383814Y-105792729D02*
X72383814Y-106459395D01*
X72812385Y-105792729D02*
X72812385Y-106316538D01*
X72764766Y-106411776D01*
X72669528Y-106459395D01*
X72526671Y-106459395D01*
X72431433Y-106411776D01*
X72383814Y-106364157D01*
X72050481Y-105792729D02*
X71669528Y-105792729D01*
X71907624Y-105459395D02*
X71907624Y-106316538D01*
X71860005Y-106411776D01*
X71764766Y-106459395D01*
X71669528Y-106459395D01*
X77074290Y-107109395D02*
X76502862Y-107109395D01*
X76788576Y-108109395D02*
X76788576Y-107109395D01*
X75836195Y-107585586D02*
X75693338Y-107633205D01*
X75645719Y-107680824D01*
X75598100Y-107776062D01*
X75598100Y-107918919D01*
X75645719Y-108014157D01*
X75693338Y-108061776D01*
X75788576Y-108109395D01*
X76169528Y-108109395D01*
X76169528Y-107109395D01*
X75836195Y-107109395D01*
X75740957Y-107157015D01*
X75693338Y-107204634D01*
X75645719Y-107299872D01*
X75645719Y-107395110D01*
X75693338Y-107490348D01*
X75740957Y-107537967D01*
X75836195Y-107585586D01*
X76169528Y-107585586D01*
X74740957Y-107442729D02*
X74740957Y-108109395D01*
X74979052Y-107061776D02*
X75217147Y-107776062D01*
X74598100Y-107776062D01*
X74026671Y-107109395D02*
X73931433Y-107109395D01*
X73836195Y-107157015D01*
X73788576Y-107204634D01*
X73740957Y-107299872D01*
X73693338Y-107490348D01*
X73693338Y-107728443D01*
X73740957Y-107918919D01*
X73788576Y-108014157D01*
X73836195Y-108061776D01*
X73931433Y-108109395D01*
X74026671Y-108109395D01*
X74121909Y-108061776D01*
X74169528Y-108014157D01*
X74217147Y-107918919D01*
X74264766Y-107728443D01*
X74264766Y-107490348D01*
X74217147Y-107299872D01*
X74169528Y-107204634D01*
X74121909Y-107157015D01*
X74026671Y-107109395D01*
X73360005Y-107109395D02*
X72740957Y-107109395D01*
X73074290Y-107490348D01*
X72931433Y-107490348D01*
X72836195Y-107537967D01*
X72788576Y-107585586D01*
X72740957Y-107680824D01*
X72740957Y-107918919D01*
X72788576Y-108014157D01*
X72836195Y-108061776D01*
X72931433Y-108109395D01*
X73217147Y-108109395D01*
X73312385Y-108061776D01*
X73360005Y-108014157D01*
X78479052Y-108854634D02*
X78431433Y-108807015D01*
X78336195Y-108759395D01*
X78098100Y-108759395D01*
X78002862Y-108807015D01*
X77955243Y-108854634D01*
X77907624Y-108949872D01*
X77907624Y-109045110D01*
X77955243Y-109187967D01*
X78526671Y-109759395D01*
X77907624Y-109759395D01*
X77288576Y-108759395D02*
X77193338Y-108759395D01*
X77098100Y-108807015D01*
X77050481Y-108854634D01*
X77002862Y-108949872D01*
X76955243Y-109140348D01*
X76955243Y-109378443D01*
X77002862Y-109568919D01*
X77050481Y-109664157D01*
X77098100Y-109711776D01*
X77193338Y-109759395D01*
X77288576Y-109759395D01*
X77383814Y-109711776D01*
X77431433Y-109664157D01*
X77479052Y-109568919D01*
X77526671Y-109378443D01*
X77526671Y-109140348D01*
X77479052Y-108949872D01*
X77431433Y-108854634D01*
X77383814Y-108807015D01*
X77288576Y-108759395D01*
X76574290Y-108854634D02*
X76526671Y-108807015D01*
X76431433Y-108759395D01*
X76193338Y-108759395D01*
X76098100Y-108807015D01*
X76050481Y-108854634D01*
X76002862Y-108949872D01*
X76002862Y-109045110D01*
X76050481Y-109187967D01*
X76621909Y-109759395D01*
X76002862Y-109759395D01*
X75050481Y-109759395D02*
X75621909Y-109759395D01*
X75336195Y-109759395D02*
X75336195Y-108759395D01*
X75431433Y-108902253D01*
X75526671Y-108997491D01*
X75621909Y-109045110D01*
X74431433Y-108759395D02*
X74336195Y-108759395D01*
X74240957Y-108807015D01*
X74193338Y-108854634D01*
X74145719Y-108949872D01*
X74098100Y-109140348D01*
X74098100Y-109378443D01*
X74145719Y-109568919D01*
X74193338Y-109664157D01*
X74240957Y-109711776D01*
X74336195Y-109759395D01*
X74431433Y-109759395D01*
X74526671Y-109711776D01*
X74574290Y-109664157D01*
X74621909Y-109568919D01*
X74669528Y-109378443D01*
X74669528Y-109140348D01*
X74621909Y-108949872D01*
X74574290Y-108854634D01*
X74526671Y-108807015D01*
X74431433Y-108759395D01*
X73764766Y-108759395D02*
X73098100Y-108759395D01*
X73526671Y-109759395D01*
X72193338Y-109759395D02*
X72764766Y-109759395D01*
X72479052Y-109759395D02*
X72479052Y-108759395D01*
X72574290Y-108902253D01*
X72669528Y-108997491D01*
X72764766Y-109045110D01*
X71336195Y-108759395D02*
X71526671Y-108759395D01*
X71621909Y-108807015D01*
X71669528Y-108854634D01*
X71764766Y-108997491D01*
X71812385Y-109187967D01*
X71812385Y-109568919D01*
X71764766Y-109664157D01*
X71717147Y-109711776D01*
X71621909Y-109759395D01*
X71431433Y-109759395D01*
X71336195Y-109711776D01*
X71288576Y-109664157D01*
X71240957Y-109568919D01*
X71240957Y-109330824D01*
X71288576Y-109235586D01*
X71336195Y-109187967D01*
X71431433Y-109140348D01*
X71621909Y-109140348D01*
X71717147Y-109187967D01*
X71764766Y-109235586D01*
X71812385Y-109330824D01*
X82033266Y-95362395D02*
X81699933Y-96362395D01*
X81366600Y-95362395D01*
X80699933Y-95838586D02*
X80557076Y-95886205D01*
X80509457Y-95933824D01*
X80461838Y-96029062D01*
X80461838Y-96171919D01*
X80509457Y-96267157D01*
X80557076Y-96314776D01*
X80652314Y-96362395D01*
X81033266Y-96362395D01*
X81033266Y-95362395D01*
X80699933Y-95362395D01*
X80604695Y-95410015D01*
X80557076Y-95457634D01*
X80509457Y-95552872D01*
X80509457Y-95648110D01*
X80557076Y-95743348D01*
X80604695Y-95790967D01*
X80699933Y-95838586D01*
X81033266Y-95838586D01*
X80033266Y-95362395D02*
X80033266Y-96171919D01*
X79985647Y-96267157D01*
X79938028Y-96314776D01*
X79842790Y-96362395D01*
X79652314Y-96362395D01*
X79557076Y-96314776D01*
X79509457Y-96267157D01*
X79461838Y-96171919D01*
X79461838Y-95362395D01*
D11*
X82420005Y-94580015D02*
X78924005Y-94580015D01*
X78924005Y-94580015D02*
X78924005Y-109940015D01*
X78924005Y-109940015D02*
X82420005Y-109940015D01*
X67300005Y-109940015D02*
X70796005Y-109940015D01*
X67300005Y-94580015D02*
X70796005Y-94580015D01*
X70796005Y-94580015D02*
X70796005Y-109940015D01*
D10*
X44921974Y-95410015D02*
X45017212Y-95362395D01*
X45160069Y-95362395D01*
X45302926Y-95410015D01*
X45398164Y-95505253D01*
X45445783Y-95600491D01*
X45493402Y-95790967D01*
X45493402Y-95933824D01*
X45445783Y-96124300D01*
X45398164Y-96219538D01*
X45302926Y-96314776D01*
X45160069Y-96362395D01*
X45064831Y-96362395D01*
X44921974Y-96314776D01*
X44874355Y-96267157D01*
X44874355Y-95933824D01*
X45064831Y-95933824D01*
X44445783Y-96362395D02*
X44445783Y-95362395D01*
X44064831Y-95362395D01*
X43969593Y-95410015D01*
X43921974Y-95457634D01*
X43874355Y-95552872D01*
X43874355Y-95695729D01*
X43921974Y-95790967D01*
X43969593Y-95838586D01*
X44064831Y-95886205D01*
X44445783Y-95886205D01*
X43255307Y-95362395D02*
X43160069Y-95362395D01*
X43064831Y-95410015D01*
X43017212Y-95457634D01*
X42969593Y-95552872D01*
X42921974Y-95743348D01*
X42921974Y-95981443D01*
X42969593Y-96171919D01*
X43017212Y-96267157D01*
X43064831Y-96314776D01*
X43160069Y-96362395D01*
X43255307Y-96362395D01*
X43350545Y-96314776D01*
X43398164Y-96267157D01*
X43445783Y-96171919D01*
X43493402Y-95981443D01*
X43493402Y-95743348D01*
X43445783Y-95552872D01*
X43398164Y-95457634D01*
X43350545Y-95410015D01*
X43255307Y-95362395D01*
X44921974Y-97950015D02*
X45017212Y-97902395D01*
X45160069Y-97902395D01*
X45302926Y-97950015D01*
X45398164Y-98045253D01*
X45445783Y-98140491D01*
X45493402Y-98330967D01*
X45493402Y-98473824D01*
X45445783Y-98664300D01*
X45398164Y-98759538D01*
X45302926Y-98854776D01*
X45160069Y-98902395D01*
X45064831Y-98902395D01*
X44921974Y-98854776D01*
X44874355Y-98807157D01*
X44874355Y-98473824D01*
X45064831Y-98473824D01*
X44445783Y-98902395D02*
X44445783Y-97902395D01*
X44064831Y-97902395D01*
X43969593Y-97950015D01*
X43921974Y-97997634D01*
X43874355Y-98092872D01*
X43874355Y-98235729D01*
X43921974Y-98330967D01*
X43969593Y-98378586D01*
X44064831Y-98426205D01*
X44445783Y-98426205D01*
X42921974Y-98902395D02*
X43493402Y-98902395D01*
X43207688Y-98902395D02*
X43207688Y-97902395D01*
X43302926Y-98045253D01*
X43398164Y-98140491D01*
X43493402Y-98188110D01*
X45445783Y-100075015D02*
X44445783Y-100075015D01*
X44636259Y-101442395D02*
X44969593Y-100966205D01*
X45207688Y-101442395D02*
X45207688Y-100442395D01*
X44826736Y-100442395D01*
X44731498Y-100490015D01*
X44683878Y-100537634D01*
X44636259Y-100632872D01*
X44636259Y-100775729D01*
X44683878Y-100870967D01*
X44731498Y-100918586D01*
X44826736Y-100966205D01*
X45207688Y-100966205D01*
X44445783Y-100075015D02*
X43493402Y-100075015D01*
X44255307Y-101394776D02*
X44112450Y-101442395D01*
X43874355Y-101442395D01*
X43779117Y-101394776D01*
X43731498Y-101347157D01*
X43683878Y-101251919D01*
X43683878Y-101156681D01*
X43731498Y-101061443D01*
X43779117Y-101013824D01*
X43874355Y-100966205D01*
X44064831Y-100918586D01*
X44160069Y-100870967D01*
X44207688Y-100823348D01*
X44255307Y-100728110D01*
X44255307Y-100632872D01*
X44207688Y-100537634D01*
X44160069Y-100490015D01*
X44064831Y-100442395D01*
X43826736Y-100442395D01*
X43683878Y-100490015D01*
X43493402Y-100075015D02*
X42731498Y-100075015D01*
X43398164Y-100442395D02*
X42826736Y-100442395D01*
X43112450Y-101442395D02*
X43112450Y-100442395D01*
X43731498Y-103982395D02*
X44064831Y-103506205D01*
X44302926Y-103982395D02*
X44302926Y-102982395D01*
X43921974Y-102982395D01*
X43826736Y-103030015D01*
X43779117Y-103077634D01*
X43731498Y-103172872D01*
X43731498Y-103315729D01*
X43779117Y-103410967D01*
X43826736Y-103458586D01*
X43921974Y-103506205D01*
X44302926Y-103506205D01*
X43398164Y-103982395D02*
X42874355Y-103315729D01*
X43398164Y-103315729D02*
X42874355Y-103982395D01*
X44207688Y-105522395D02*
X43636259Y-105522395D01*
X43921974Y-106522395D02*
X43921974Y-105522395D01*
X43398164Y-106522395D02*
X42874355Y-105855729D01*
X43398164Y-105855729D02*
X42874355Y-106522395D01*
X44921974Y-108110015D02*
X45017212Y-108062395D01*
X45160069Y-108062395D01*
X45302926Y-108110015D01*
X45398164Y-108205253D01*
X45445783Y-108300491D01*
X45493402Y-108490967D01*
X45493402Y-108633824D01*
X45445783Y-108824300D01*
X45398164Y-108919538D01*
X45302926Y-109014776D01*
X45160069Y-109062395D01*
X45064831Y-109062395D01*
X44921974Y-109014776D01*
X44874355Y-108967157D01*
X44874355Y-108633824D01*
X45064831Y-108633824D01*
X44445783Y-109062395D02*
X44445783Y-108062395D01*
X44064831Y-108062395D01*
X43969593Y-108110015D01*
X43921974Y-108157634D01*
X43874355Y-108252872D01*
X43874355Y-108395729D01*
X43921974Y-108490967D01*
X43969593Y-108538586D01*
X44064831Y-108586205D01*
X44445783Y-108586205D01*
X43493402Y-108157634D02*
X43445783Y-108110015D01*
X43350545Y-108062395D01*
X43112450Y-108062395D01*
X43017212Y-108110015D01*
X42969593Y-108157634D01*
X42921974Y-108252872D01*
X42921974Y-108348110D01*
X42969593Y-108490967D01*
X43541021Y-109062395D01*
X42921974Y-109062395D01*
X57173259Y-100442395D02*
X56839926Y-101442395D01*
X56506593Y-100442395D01*
X56173259Y-101442395D02*
X56173259Y-100442395D01*
X55935164Y-100442395D01*
X55792307Y-100490015D01*
X55697069Y-100585253D01*
X55649450Y-100680491D01*
X55601831Y-100870967D01*
X55601831Y-101013824D01*
X55649450Y-101204300D01*
X55697069Y-101299538D01*
X55792307Y-101394776D01*
X55935164Y-101442395D01*
X56173259Y-101442395D01*
X55173259Y-101442395D02*
X55173259Y-100442395D01*
X54935164Y-100442395D01*
X54792307Y-100490015D01*
X54697069Y-100585253D01*
X54649450Y-100680491D01*
X54601831Y-100870967D01*
X54601831Y-101013824D01*
X54649450Y-101204300D01*
X54697069Y-101299538D01*
X54792307Y-101394776D01*
X54935164Y-101442395D01*
X55173259Y-101442395D01*
X57078021Y-103934776D02*
X56935164Y-103982395D01*
X56697069Y-103982395D01*
X56601831Y-103934776D01*
X56554212Y-103887157D01*
X56506593Y-103791919D01*
X56506593Y-103696681D01*
X56554212Y-103601443D01*
X56601831Y-103553824D01*
X56697069Y-103506205D01*
X56887545Y-103458586D01*
X56982783Y-103410967D01*
X57030402Y-103363348D01*
X57078021Y-103268110D01*
X57078021Y-103172872D01*
X57030402Y-103077634D01*
X56982783Y-103030015D01*
X56887545Y-102982395D01*
X56649450Y-102982395D01*
X56506593Y-103030015D01*
X55506593Y-103887157D02*
X55554212Y-103934776D01*
X55697069Y-103982395D01*
X55792307Y-103982395D01*
X55935164Y-103934776D01*
X56030402Y-103839538D01*
X56078021Y-103744300D01*
X56125640Y-103553824D01*
X56125640Y-103410967D01*
X56078021Y-103220491D01*
X56030402Y-103125253D01*
X55935164Y-103030015D01*
X55792307Y-102982395D01*
X55697069Y-102982395D01*
X55554212Y-103030015D01*
X55506593Y-103077634D01*
X54601831Y-103982395D02*
X55078021Y-103982395D01*
X55078021Y-102982395D01*
X57078021Y-106474776D02*
X56935164Y-106522395D01*
X56697069Y-106522395D01*
X56601831Y-106474776D01*
X56554212Y-106427157D01*
X56506593Y-106331919D01*
X56506593Y-106236681D01*
X56554212Y-106141443D01*
X56601831Y-106093824D01*
X56697069Y-106046205D01*
X56887545Y-105998586D01*
X56982783Y-105950967D01*
X57030402Y-105903348D01*
X57078021Y-105808110D01*
X57078021Y-105712872D01*
X57030402Y-105617634D01*
X56982783Y-105570015D01*
X56887545Y-105522395D01*
X56649450Y-105522395D01*
X56506593Y-105570015D01*
X56078021Y-106522395D02*
X56078021Y-105522395D01*
X55839926Y-105522395D01*
X55697069Y-105570015D01*
X55601831Y-105665253D01*
X55554212Y-105760491D01*
X55506593Y-105950967D01*
X55506593Y-106093824D01*
X55554212Y-106284300D01*
X55601831Y-106379538D01*
X55697069Y-106474776D01*
X55839926Y-106522395D01*
X56078021Y-106522395D01*
X55125640Y-106236681D02*
X54649450Y-106236681D01*
X55220878Y-106522395D02*
X54887545Y-105522395D01*
X54554212Y-106522395D01*
X56506593Y-108110015D02*
X56601831Y-108062395D01*
X56744688Y-108062395D01*
X56887545Y-108110015D01*
X56982783Y-108205253D01*
X57030402Y-108300491D01*
X57078021Y-108490967D01*
X57078021Y-108633824D01*
X57030402Y-108824300D01*
X56982783Y-108919538D01*
X56887545Y-109014776D01*
X56744688Y-109062395D01*
X56649450Y-109062395D01*
X56506593Y-109014776D01*
X56458974Y-108967157D01*
X56458974Y-108633824D01*
X56649450Y-108633824D01*
X56030402Y-109062395D02*
X56030402Y-108062395D01*
X55649450Y-108062395D01*
X55554212Y-108110015D01*
X55506593Y-108157634D01*
X55458974Y-108252872D01*
X55458974Y-108395729D01*
X55506593Y-108490967D01*
X55554212Y-108538586D01*
X55649450Y-108586205D01*
X56030402Y-108586205D01*
X55125640Y-108062395D02*
X54506593Y-108062395D01*
X54839926Y-108443348D01*
X54697069Y-108443348D01*
X54601831Y-108490967D01*
X54554212Y-108538586D01*
X54506593Y-108633824D01*
X54506593Y-108871919D01*
X54554212Y-108967157D01*
X54601831Y-109014776D01*
X54697069Y-109062395D01*
X54982783Y-109062395D01*
X55078021Y-109014776D01*
X55125640Y-108967157D01*
X56506593Y-97950015D02*
X56601831Y-97902395D01*
X56744688Y-97902395D01*
X56887545Y-97950015D01*
X56982783Y-98045253D01*
X57030402Y-98140491D01*
X57078021Y-98330967D01*
X57078021Y-98473824D01*
X57030402Y-98664300D01*
X56982783Y-98759538D01*
X56887545Y-98854776D01*
X56744688Y-98902395D01*
X56649450Y-98902395D01*
X56506593Y-98854776D01*
X56458974Y-98807157D01*
X56458974Y-98473824D01*
X56649450Y-98473824D01*
X56030402Y-98902395D02*
X56030402Y-97902395D01*
X55458974Y-98902395D01*
X55458974Y-97902395D01*
X54982783Y-98902395D02*
X54982783Y-97902395D01*
X54744688Y-97902395D01*
X54601831Y-97950015D01*
X54506593Y-98045253D01*
X54458974Y-98140491D01*
X54411355Y-98330967D01*
X54411355Y-98473824D01*
X54458974Y-98664300D01*
X54506593Y-98759538D01*
X54601831Y-98854776D01*
X54744688Y-98902395D01*
X54982783Y-98902395D01*
X53666664Y-104809395D02*
X53666664Y-103809395D01*
X53333331Y-104523681D01*
X52999998Y-103809395D01*
X52999998Y-104809395D01*
X51952378Y-104714157D02*
X51999998Y-104761776D01*
X52142855Y-104809395D01*
X52238093Y-104809395D01*
X52380950Y-104761776D01*
X52476188Y-104666538D01*
X52523807Y-104571300D01*
X52571426Y-104380824D01*
X52571426Y-104237967D01*
X52523807Y-104047491D01*
X52476188Y-103952253D01*
X52380950Y-103857015D01*
X52238093Y-103809395D01*
X52142855Y-103809395D01*
X51999998Y-103857015D01*
X51952378Y-103904634D01*
X51523807Y-104809395D02*
X51523807Y-103809395D01*
X51142855Y-103809395D01*
X51047617Y-103857015D01*
X50999998Y-103904634D01*
X50952378Y-103999872D01*
X50952378Y-104142729D01*
X50999998Y-104237967D01*
X51047617Y-104285586D01*
X51142855Y-104333205D01*
X51523807Y-104333205D01*
X50571426Y-103904634D02*
X50523807Y-103857015D01*
X50428569Y-103809395D01*
X50190474Y-103809395D01*
X50095236Y-103857015D01*
X50047617Y-103904634D01*
X49999998Y-103999872D01*
X49999998Y-104095110D01*
X50047617Y-104237967D01*
X50619045Y-104809395D01*
X49999998Y-104809395D01*
X49619045Y-103904634D02*
X49571426Y-103857015D01*
X49476188Y-103809395D01*
X49238093Y-103809395D01*
X49142855Y-103857015D01*
X49095236Y-103904634D01*
X49047617Y-103999872D01*
X49047617Y-104095110D01*
X49095236Y-104237967D01*
X49666664Y-104809395D01*
X49047617Y-104809395D01*
X48666664Y-103904634D02*
X48619045Y-103857015D01*
X48523807Y-103809395D01*
X48285712Y-103809395D01*
X48190474Y-103857015D01*
X48142855Y-103904634D01*
X48095236Y-103999872D01*
X48095236Y-104095110D01*
X48142855Y-104237967D01*
X48714283Y-104809395D01*
X48095236Y-104809395D01*
X47142855Y-104809395D02*
X47714283Y-104809395D01*
X47428569Y-104809395D02*
X47428569Y-103809395D01*
X47523807Y-103952253D01*
X47619045Y-104047491D01*
X47714283Y-104095110D01*
X46761902Y-104523681D02*
X46285712Y-104523681D01*
X46857140Y-104809395D02*
X46523807Y-103809395D01*
X46190474Y-104809395D01*
X52714283Y-105935586D02*
X52571426Y-105983205D01*
X52523807Y-106030824D01*
X52476188Y-106126062D01*
X52476188Y-106268919D01*
X52523807Y-106364157D01*
X52571426Y-106411776D01*
X52666664Y-106459395D01*
X53047617Y-106459395D01*
X53047617Y-105459395D01*
X52714283Y-105459395D01*
X52619045Y-105507015D01*
X52571426Y-105554634D01*
X52523807Y-105649872D01*
X52523807Y-105745110D01*
X52571426Y-105840348D01*
X52619045Y-105887967D01*
X52714283Y-105935586D01*
X53047617Y-105935586D01*
X52047617Y-106459395D02*
X52047617Y-105792729D01*
X52047617Y-105983205D02*
X51999998Y-105887967D01*
X51952378Y-105840348D01*
X51857140Y-105792729D01*
X51761902Y-105792729D01*
X51047617Y-106411776D02*
X51142855Y-106459395D01*
X51333331Y-106459395D01*
X51428569Y-106411776D01*
X51476188Y-106316538D01*
X51476188Y-105935586D01*
X51428569Y-105840348D01*
X51333331Y-105792729D01*
X51142855Y-105792729D01*
X51047617Y-105840348D01*
X50999998Y-105935586D01*
X50999998Y-106030824D01*
X51476188Y-106126062D01*
X50142855Y-106459395D02*
X50142855Y-105935586D01*
X50190474Y-105840348D01*
X50285712Y-105792729D01*
X50476188Y-105792729D01*
X50571426Y-105840348D01*
X50142855Y-106411776D02*
X50238093Y-106459395D01*
X50476188Y-106459395D01*
X50571426Y-106411776D01*
X50619045Y-106316538D01*
X50619045Y-106221300D01*
X50571426Y-106126062D01*
X50476188Y-106078443D01*
X50238093Y-106078443D01*
X50142855Y-106030824D01*
X49666664Y-106459395D02*
X49666664Y-105459395D01*
X49571426Y-106078443D02*
X49285712Y-106459395D01*
X49285712Y-105792729D02*
X49666664Y-106173681D01*
X48714283Y-106459395D02*
X48809521Y-106411776D01*
X48857140Y-106364157D01*
X48904759Y-106268919D01*
X48904759Y-105983205D01*
X48857140Y-105887967D01*
X48809521Y-105840348D01*
X48714283Y-105792729D01*
X48571426Y-105792729D01*
X48476188Y-105840348D01*
X48428569Y-105887967D01*
X48380950Y-105983205D01*
X48380950Y-106268919D01*
X48428569Y-106364157D01*
X48476188Y-106411776D01*
X48571426Y-106459395D01*
X48714283Y-106459395D01*
X47523807Y-105792729D02*
X47523807Y-106459395D01*
X47952378Y-105792729D02*
X47952378Y-106316538D01*
X47904759Y-106411776D01*
X47809521Y-106459395D01*
X47666664Y-106459395D01*
X47571426Y-106411776D01*
X47523807Y-106364157D01*
X47190474Y-105792729D02*
X46809521Y-105792729D01*
X47047617Y-105459395D02*
X47047617Y-106316538D01*
X46999998Y-106411776D01*
X46904759Y-106459395D01*
X46809521Y-106459395D01*
X52214283Y-107109395D02*
X51642855Y-107109395D01*
X51928569Y-108109395D02*
X51928569Y-107109395D01*
X50976188Y-107585586D02*
X50833331Y-107633205D01*
X50785712Y-107680824D01*
X50738093Y-107776062D01*
X50738093Y-107918919D01*
X50785712Y-108014157D01*
X50833331Y-108061776D01*
X50928569Y-108109395D01*
X51309521Y-108109395D01*
X51309521Y-107109395D01*
X50976188Y-107109395D01*
X50880950Y-107157015D01*
X50833331Y-107204634D01*
X50785712Y-107299872D01*
X50785712Y-107395110D01*
X50833331Y-107490348D01*
X50880950Y-107537967D01*
X50976188Y-107585586D01*
X51309521Y-107585586D01*
X49880950Y-107442729D02*
X49880950Y-108109395D01*
X50119045Y-107061776D02*
X50357140Y-107776062D01*
X49738093Y-107776062D01*
X49166664Y-107109395D02*
X49071426Y-107109395D01*
X48976188Y-107157015D01*
X48928569Y-107204634D01*
X48880950Y-107299872D01*
X48833331Y-107490348D01*
X48833331Y-107728443D01*
X48880950Y-107918919D01*
X48928569Y-108014157D01*
X48976188Y-108061776D01*
X49071426Y-108109395D01*
X49166664Y-108109395D01*
X49261902Y-108061776D01*
X49309521Y-108014157D01*
X49357140Y-107918919D01*
X49404759Y-107728443D01*
X49404759Y-107490348D01*
X49357140Y-107299872D01*
X49309521Y-107204634D01*
X49261902Y-107157015D01*
X49166664Y-107109395D01*
X48499998Y-107109395D02*
X47880950Y-107109395D01*
X48214283Y-107490348D01*
X48071426Y-107490348D01*
X47976188Y-107537967D01*
X47928569Y-107585586D01*
X47880950Y-107680824D01*
X47880950Y-107918919D01*
X47928569Y-108014157D01*
X47976188Y-108061776D01*
X48071426Y-108109395D01*
X48357140Y-108109395D01*
X48452378Y-108061776D01*
X48499998Y-108014157D01*
X53619045Y-108854634D02*
X53571426Y-108807015D01*
X53476188Y-108759395D01*
X53238093Y-108759395D01*
X53142855Y-108807015D01*
X53095236Y-108854634D01*
X53047617Y-108949872D01*
X53047617Y-109045110D01*
X53095236Y-109187967D01*
X53666664Y-109759395D01*
X53047617Y-109759395D01*
X52428569Y-108759395D02*
X52333331Y-108759395D01*
X52238093Y-108807015D01*
X52190474Y-108854634D01*
X52142855Y-108949872D01*
X52095236Y-109140348D01*
X52095236Y-109378443D01*
X52142855Y-109568919D01*
X52190474Y-109664157D01*
X52238093Y-109711776D01*
X52333331Y-109759395D01*
X52428569Y-109759395D01*
X52523807Y-109711776D01*
X52571426Y-109664157D01*
X52619045Y-109568919D01*
X52666664Y-109378443D01*
X52666664Y-109140348D01*
X52619045Y-108949872D01*
X52571426Y-108854634D01*
X52523807Y-108807015D01*
X52428569Y-108759395D01*
X51714283Y-108854634D02*
X51666664Y-108807015D01*
X51571426Y-108759395D01*
X51333331Y-108759395D01*
X51238093Y-108807015D01*
X51190474Y-108854634D01*
X51142855Y-108949872D01*
X51142855Y-109045110D01*
X51190474Y-109187967D01*
X51761902Y-109759395D01*
X51142855Y-109759395D01*
X50190474Y-109759395D02*
X50761902Y-109759395D01*
X50476188Y-109759395D02*
X50476188Y-108759395D01*
X50571426Y-108902253D01*
X50666664Y-108997491D01*
X50761902Y-109045110D01*
X49571426Y-108759395D02*
X49476188Y-108759395D01*
X49380950Y-108807015D01*
X49333331Y-108854634D01*
X49285712Y-108949872D01*
X49238093Y-109140348D01*
X49238093Y-109378443D01*
X49285712Y-109568919D01*
X49333331Y-109664157D01*
X49380950Y-109711776D01*
X49476188Y-109759395D01*
X49571426Y-109759395D01*
X49666664Y-109711776D01*
X49714283Y-109664157D01*
X49761902Y-109568919D01*
X49809521Y-109378443D01*
X49809521Y-109140348D01*
X49761902Y-108949872D01*
X49714283Y-108854634D01*
X49666664Y-108807015D01*
X49571426Y-108759395D01*
X48904759Y-108759395D02*
X48238093Y-108759395D01*
X48666664Y-109759395D01*
X47333331Y-109759395D02*
X47904759Y-109759395D01*
X47619045Y-109759395D02*
X47619045Y-108759395D01*
X47714283Y-108902253D01*
X47809521Y-108997491D01*
X47904759Y-109045110D01*
X46476188Y-108759395D02*
X46666664Y-108759395D01*
X46761902Y-108807015D01*
X46809521Y-108854634D01*
X46904759Y-108997491D01*
X46952378Y-109187967D01*
X46952378Y-109568919D01*
X46904759Y-109664157D01*
X46857140Y-109711776D01*
X46761902Y-109759395D01*
X46571426Y-109759395D01*
X46476188Y-109711776D01*
X46428569Y-109664157D01*
X46380950Y-109568919D01*
X46380950Y-109330824D01*
X46428569Y-109235586D01*
X46476188Y-109187967D01*
X46571426Y-109140348D01*
X46761902Y-109140348D01*
X46857140Y-109187967D01*
X46904759Y-109235586D01*
X46952378Y-109330824D01*
X57173259Y-95362395D02*
X56839926Y-96362395D01*
X56506593Y-95362395D01*
X55839926Y-95838586D02*
X55697069Y-95886205D01*
X55649450Y-95933824D01*
X55601831Y-96029062D01*
X55601831Y-96171919D01*
X55649450Y-96267157D01*
X55697069Y-96314776D01*
X55792307Y-96362395D01*
X56173259Y-96362395D01*
X56173259Y-95362395D01*
X55839926Y-95362395D01*
X55744688Y-95410015D01*
X55697069Y-95457634D01*
X55649450Y-95552872D01*
X55649450Y-95648110D01*
X55697069Y-95743348D01*
X55744688Y-95790967D01*
X55839926Y-95838586D01*
X56173259Y-95838586D01*
X55173259Y-95362395D02*
X55173259Y-96171919D01*
X55125640Y-96267157D01*
X55078021Y-96314776D01*
X54982783Y-96362395D01*
X54792307Y-96362395D01*
X54697069Y-96314776D01*
X54649450Y-96267157D01*
X54601831Y-96171919D01*
X54601831Y-95362395D01*
D11*
X57559998Y-94580015D02*
X54063998Y-94580015D01*
X54063998Y-94580015D02*
X54063998Y-109940015D01*
X54063998Y-109940015D02*
X57559998Y-109940015D01*
X42439998Y-109940015D02*
X45935998Y-109940015D01*
X42439998Y-94580015D02*
X45935998Y-94580015D01*
X45935998Y-94580015D02*
X45935998Y-109940015D01*
D10*
X94641988Y-70550006D02*
X94737226Y-70502386D01*
X94880083Y-70502386D01*
X95022940Y-70550006D01*
X95118178Y-70645244D01*
X95165797Y-70740482D01*
X95213416Y-70930958D01*
X95213416Y-71073815D01*
X95165797Y-71264291D01*
X95118178Y-71359529D01*
X95022940Y-71454767D01*
X94880083Y-71502386D01*
X94784845Y-71502386D01*
X94641988Y-71454767D01*
X94594369Y-71407148D01*
X94594369Y-71073815D01*
X94784845Y-71073815D01*
X94165797Y-71502386D02*
X94165797Y-70502386D01*
X93784845Y-70502386D01*
X93689607Y-70550006D01*
X93641988Y-70597625D01*
X93594369Y-70692863D01*
X93594369Y-70835720D01*
X93641988Y-70930958D01*
X93689607Y-70978577D01*
X93784845Y-71026196D01*
X94165797Y-71026196D01*
X92975321Y-70502386D02*
X92880083Y-70502386D01*
X92784845Y-70550006D01*
X92737226Y-70597625D01*
X92689607Y-70692863D01*
X92641988Y-70883339D01*
X92641988Y-71121434D01*
X92689607Y-71311910D01*
X92737226Y-71407148D01*
X92784845Y-71454767D01*
X92880083Y-71502386D01*
X92975321Y-71502386D01*
X93070559Y-71454767D01*
X93118178Y-71407148D01*
X93165797Y-71311910D01*
X93213416Y-71121434D01*
X93213416Y-70883339D01*
X93165797Y-70692863D01*
X93118178Y-70597625D01*
X93070559Y-70550006D01*
X92975321Y-70502386D01*
X94641988Y-73090006D02*
X94737226Y-73042386D01*
X94880083Y-73042386D01*
X95022940Y-73090006D01*
X95118178Y-73185244D01*
X95165797Y-73280482D01*
X95213416Y-73470958D01*
X95213416Y-73613815D01*
X95165797Y-73804291D01*
X95118178Y-73899529D01*
X95022940Y-73994767D01*
X94880083Y-74042386D01*
X94784845Y-74042386D01*
X94641988Y-73994767D01*
X94594369Y-73947148D01*
X94594369Y-73613815D01*
X94784845Y-73613815D01*
X94165797Y-74042386D02*
X94165797Y-73042386D01*
X93784845Y-73042386D01*
X93689607Y-73090006D01*
X93641988Y-73137625D01*
X93594369Y-73232863D01*
X93594369Y-73375720D01*
X93641988Y-73470958D01*
X93689607Y-73518577D01*
X93784845Y-73566196D01*
X94165797Y-73566196D01*
X92641988Y-74042386D02*
X93213416Y-74042386D01*
X92927702Y-74042386D02*
X92927702Y-73042386D01*
X93022940Y-73185244D01*
X93118178Y-73280482D01*
X93213416Y-73328101D01*
X95165797Y-75215006D02*
X94165797Y-75215006D01*
X94356273Y-76582386D02*
X94689607Y-76106196D01*
X94927702Y-76582386D02*
X94927702Y-75582386D01*
X94546750Y-75582386D01*
X94451512Y-75630006D01*
X94403892Y-75677625D01*
X94356273Y-75772863D01*
X94356273Y-75915720D01*
X94403892Y-76010958D01*
X94451512Y-76058577D01*
X94546750Y-76106196D01*
X94927702Y-76106196D01*
X94165797Y-75215006D02*
X93213416Y-75215006D01*
X93975321Y-76534767D02*
X93832464Y-76582386D01*
X93594369Y-76582386D01*
X93499131Y-76534767D01*
X93451512Y-76487148D01*
X93403892Y-76391910D01*
X93403892Y-76296672D01*
X93451512Y-76201434D01*
X93499131Y-76153815D01*
X93594369Y-76106196D01*
X93784845Y-76058577D01*
X93880083Y-76010958D01*
X93927702Y-75963339D01*
X93975321Y-75868101D01*
X93975321Y-75772863D01*
X93927702Y-75677625D01*
X93880083Y-75630006D01*
X93784845Y-75582386D01*
X93546750Y-75582386D01*
X93403892Y-75630006D01*
X93213416Y-75215006D02*
X92451512Y-75215006D01*
X93118178Y-75582386D02*
X92546750Y-75582386D01*
X92832464Y-76582386D02*
X92832464Y-75582386D01*
X93451512Y-79122386D02*
X93784845Y-78646196D01*
X94022940Y-79122386D02*
X94022940Y-78122386D01*
X93641988Y-78122386D01*
X93546750Y-78170006D01*
X93499131Y-78217625D01*
X93451512Y-78312863D01*
X93451512Y-78455720D01*
X93499131Y-78550958D01*
X93546750Y-78598577D01*
X93641988Y-78646196D01*
X94022940Y-78646196D01*
X93118178Y-79122386D02*
X92594369Y-78455720D01*
X93118178Y-78455720D02*
X92594369Y-79122386D01*
X93927702Y-80662386D02*
X93356273Y-80662386D01*
X93641988Y-81662386D02*
X93641988Y-80662386D01*
X93118178Y-81662386D02*
X92594369Y-80995720D01*
X93118178Y-80995720D02*
X92594369Y-81662386D01*
X94641988Y-83250006D02*
X94737226Y-83202386D01*
X94880083Y-83202386D01*
X95022940Y-83250006D01*
X95118178Y-83345244D01*
X95165797Y-83440482D01*
X95213416Y-83630958D01*
X95213416Y-83773815D01*
X95165797Y-83964291D01*
X95118178Y-84059529D01*
X95022940Y-84154767D01*
X94880083Y-84202386D01*
X94784845Y-84202386D01*
X94641988Y-84154767D01*
X94594369Y-84107148D01*
X94594369Y-83773815D01*
X94784845Y-83773815D01*
X94165797Y-84202386D02*
X94165797Y-83202386D01*
X93784845Y-83202386D01*
X93689607Y-83250006D01*
X93641988Y-83297625D01*
X93594369Y-83392863D01*
X93594369Y-83535720D01*
X93641988Y-83630958D01*
X93689607Y-83678577D01*
X93784845Y-83726196D01*
X94165797Y-83726196D01*
X93213416Y-83297625D02*
X93165797Y-83250006D01*
X93070559Y-83202386D01*
X92832464Y-83202386D01*
X92737226Y-83250006D01*
X92689607Y-83297625D01*
X92641988Y-83392863D01*
X92641988Y-83488101D01*
X92689607Y-83630958D01*
X93261035Y-84202386D01*
X92641988Y-84202386D01*
X106893273Y-75582386D02*
X106559940Y-76582386D01*
X106226607Y-75582386D01*
X105893273Y-76582386D02*
X105893273Y-75582386D01*
X105655178Y-75582386D01*
X105512321Y-75630006D01*
X105417083Y-75725244D01*
X105369464Y-75820482D01*
X105321845Y-76010958D01*
X105321845Y-76153815D01*
X105369464Y-76344291D01*
X105417083Y-76439529D01*
X105512321Y-76534767D01*
X105655178Y-76582386D01*
X105893273Y-76582386D01*
X104893273Y-76582386D02*
X104893273Y-75582386D01*
X104655178Y-75582386D01*
X104512321Y-75630006D01*
X104417083Y-75725244D01*
X104369464Y-75820482D01*
X104321845Y-76010958D01*
X104321845Y-76153815D01*
X104369464Y-76344291D01*
X104417083Y-76439529D01*
X104512321Y-76534767D01*
X104655178Y-76582386D01*
X104893273Y-76582386D01*
X106798035Y-79074767D02*
X106655178Y-79122386D01*
X106417083Y-79122386D01*
X106321845Y-79074767D01*
X106274226Y-79027148D01*
X106226607Y-78931910D01*
X106226607Y-78836672D01*
X106274226Y-78741434D01*
X106321845Y-78693815D01*
X106417083Y-78646196D01*
X106607559Y-78598577D01*
X106702797Y-78550958D01*
X106750416Y-78503339D01*
X106798035Y-78408101D01*
X106798035Y-78312863D01*
X106750416Y-78217625D01*
X106702797Y-78170006D01*
X106607559Y-78122386D01*
X106369464Y-78122386D01*
X106226607Y-78170006D01*
X105226607Y-79027148D02*
X105274226Y-79074767D01*
X105417083Y-79122386D01*
X105512321Y-79122386D01*
X105655178Y-79074767D01*
X105750416Y-78979529D01*
X105798035Y-78884291D01*
X105845654Y-78693815D01*
X105845654Y-78550958D01*
X105798035Y-78360482D01*
X105750416Y-78265244D01*
X105655178Y-78170006D01*
X105512321Y-78122386D01*
X105417083Y-78122386D01*
X105274226Y-78170006D01*
X105226607Y-78217625D01*
X104321845Y-79122386D02*
X104798035Y-79122386D01*
X104798035Y-78122386D01*
X106798035Y-81614767D02*
X106655178Y-81662386D01*
X106417083Y-81662386D01*
X106321845Y-81614767D01*
X106274226Y-81567148D01*
X106226607Y-81471910D01*
X106226607Y-81376672D01*
X106274226Y-81281434D01*
X106321845Y-81233815D01*
X106417083Y-81186196D01*
X106607559Y-81138577D01*
X106702797Y-81090958D01*
X106750416Y-81043339D01*
X106798035Y-80948101D01*
X106798035Y-80852863D01*
X106750416Y-80757625D01*
X106702797Y-80710006D01*
X106607559Y-80662386D01*
X106369464Y-80662386D01*
X106226607Y-80710006D01*
X105798035Y-81662386D02*
X105798035Y-80662386D01*
X105559940Y-80662386D01*
X105417083Y-80710006D01*
X105321845Y-80805244D01*
X105274226Y-80900482D01*
X105226607Y-81090958D01*
X105226607Y-81233815D01*
X105274226Y-81424291D01*
X105321845Y-81519529D01*
X105417083Y-81614767D01*
X105559940Y-81662386D01*
X105798035Y-81662386D01*
X104845654Y-81376672D02*
X104369464Y-81376672D01*
X104940892Y-81662386D02*
X104607559Y-80662386D01*
X104274226Y-81662386D01*
X106226607Y-83250006D02*
X106321845Y-83202386D01*
X106464702Y-83202386D01*
X106607559Y-83250006D01*
X106702797Y-83345244D01*
X106750416Y-83440482D01*
X106798035Y-83630958D01*
X106798035Y-83773815D01*
X106750416Y-83964291D01*
X106702797Y-84059529D01*
X106607559Y-84154767D01*
X106464702Y-84202386D01*
X106369464Y-84202386D01*
X106226607Y-84154767D01*
X106178988Y-84107148D01*
X106178988Y-83773815D01*
X106369464Y-83773815D01*
X105750416Y-84202386D02*
X105750416Y-83202386D01*
X105369464Y-83202386D01*
X105274226Y-83250006D01*
X105226607Y-83297625D01*
X105178988Y-83392863D01*
X105178988Y-83535720D01*
X105226607Y-83630958D01*
X105274226Y-83678577D01*
X105369464Y-83726196D01*
X105750416Y-83726196D01*
X104845654Y-83202386D02*
X104226607Y-83202386D01*
X104559940Y-83583339D01*
X104417083Y-83583339D01*
X104321845Y-83630958D01*
X104274226Y-83678577D01*
X104226607Y-83773815D01*
X104226607Y-84011910D01*
X104274226Y-84107148D01*
X104321845Y-84154767D01*
X104417083Y-84202386D01*
X104702797Y-84202386D01*
X104798035Y-84154767D01*
X104845654Y-84107148D01*
X106226607Y-73090006D02*
X106321845Y-73042386D01*
X106464702Y-73042386D01*
X106607559Y-73090006D01*
X106702797Y-73185244D01*
X106750416Y-73280482D01*
X106798035Y-73470958D01*
X106798035Y-73613815D01*
X106750416Y-73804291D01*
X106702797Y-73899529D01*
X106607559Y-73994767D01*
X106464702Y-74042386D01*
X106369464Y-74042386D01*
X106226607Y-73994767D01*
X106178988Y-73947148D01*
X106178988Y-73613815D01*
X106369464Y-73613815D01*
X105750416Y-74042386D02*
X105750416Y-73042386D01*
X105178988Y-74042386D01*
X105178988Y-73042386D01*
X104702797Y-74042386D02*
X104702797Y-73042386D01*
X104464702Y-73042386D01*
X104321845Y-73090006D01*
X104226607Y-73185244D01*
X104178988Y-73280482D01*
X104131369Y-73470958D01*
X104131369Y-73613815D01*
X104178988Y-73804291D01*
X104226607Y-73899529D01*
X104321845Y-73994767D01*
X104464702Y-74042386D01*
X104702797Y-74042386D01*
X103386678Y-79949386D02*
X103386678Y-78949386D01*
X103053345Y-79663672D01*
X102720012Y-78949386D01*
X102720012Y-79949386D01*
X101672392Y-79854148D02*
X101720012Y-79901767D01*
X101862869Y-79949386D01*
X101958107Y-79949386D01*
X102100964Y-79901767D01*
X102196202Y-79806529D01*
X102243821Y-79711291D01*
X102291440Y-79520815D01*
X102291440Y-79377958D01*
X102243821Y-79187482D01*
X102196202Y-79092244D01*
X102100964Y-78997006D01*
X101958107Y-78949386D01*
X101862869Y-78949386D01*
X101720012Y-78997006D01*
X101672392Y-79044625D01*
X101243821Y-79949386D02*
X101243821Y-78949386D01*
X100862869Y-78949386D01*
X100767631Y-78997006D01*
X100720012Y-79044625D01*
X100672392Y-79139863D01*
X100672392Y-79282720D01*
X100720012Y-79377958D01*
X100767631Y-79425577D01*
X100862869Y-79473196D01*
X101243821Y-79473196D01*
X100291440Y-79044625D02*
X100243821Y-78997006D01*
X100148583Y-78949386D01*
X99910488Y-78949386D01*
X99815250Y-78997006D01*
X99767631Y-79044625D01*
X99720012Y-79139863D01*
X99720012Y-79235101D01*
X99767631Y-79377958D01*
X100339059Y-79949386D01*
X99720012Y-79949386D01*
X99339059Y-79044625D02*
X99291440Y-78997006D01*
X99196202Y-78949386D01*
X98958107Y-78949386D01*
X98862869Y-78997006D01*
X98815250Y-79044625D01*
X98767631Y-79139863D01*
X98767631Y-79235101D01*
X98815250Y-79377958D01*
X99386678Y-79949386D01*
X98767631Y-79949386D01*
X98386678Y-79044625D02*
X98339059Y-78997006D01*
X98243821Y-78949386D01*
X98005726Y-78949386D01*
X97910488Y-78997006D01*
X97862869Y-79044625D01*
X97815250Y-79139863D01*
X97815250Y-79235101D01*
X97862869Y-79377958D01*
X98434297Y-79949386D01*
X97815250Y-79949386D01*
X96862869Y-79949386D02*
X97434297Y-79949386D01*
X97148583Y-79949386D02*
X97148583Y-78949386D01*
X97243821Y-79092244D01*
X97339059Y-79187482D01*
X97434297Y-79235101D01*
X96481916Y-79663672D02*
X96005726Y-79663672D01*
X96577154Y-79949386D02*
X96243821Y-78949386D01*
X95910488Y-79949386D01*
X102434297Y-81075577D02*
X102291440Y-81123196D01*
X102243821Y-81170815D01*
X102196202Y-81266053D01*
X102196202Y-81408910D01*
X102243821Y-81504148D01*
X102291440Y-81551767D01*
X102386678Y-81599386D01*
X102767631Y-81599386D01*
X102767631Y-80599386D01*
X102434297Y-80599386D01*
X102339059Y-80647006D01*
X102291440Y-80694625D01*
X102243821Y-80789863D01*
X102243821Y-80885101D01*
X102291440Y-80980339D01*
X102339059Y-81027958D01*
X102434297Y-81075577D01*
X102767631Y-81075577D01*
X101767631Y-81599386D02*
X101767631Y-80932720D01*
X101767631Y-81123196D02*
X101720012Y-81027958D01*
X101672392Y-80980339D01*
X101577154Y-80932720D01*
X101481916Y-80932720D01*
X100767631Y-81551767D02*
X100862869Y-81599386D01*
X101053345Y-81599386D01*
X101148583Y-81551767D01*
X101196202Y-81456529D01*
X101196202Y-81075577D01*
X101148583Y-80980339D01*
X101053345Y-80932720D01*
X100862869Y-80932720D01*
X100767631Y-80980339D01*
X100720012Y-81075577D01*
X100720012Y-81170815D01*
X101196202Y-81266053D01*
X99862869Y-81599386D02*
X99862869Y-81075577D01*
X99910488Y-80980339D01*
X100005726Y-80932720D01*
X100196202Y-80932720D01*
X100291440Y-80980339D01*
X99862869Y-81551767D02*
X99958107Y-81599386D01*
X100196202Y-81599386D01*
X100291440Y-81551767D01*
X100339059Y-81456529D01*
X100339059Y-81361291D01*
X100291440Y-81266053D01*
X100196202Y-81218434D01*
X99958107Y-81218434D01*
X99862869Y-81170815D01*
X99386678Y-81599386D02*
X99386678Y-80599386D01*
X99291440Y-81218434D02*
X99005726Y-81599386D01*
X99005726Y-80932720D02*
X99386678Y-81313672D01*
X98434297Y-81599386D02*
X98529535Y-81551767D01*
X98577154Y-81504148D01*
X98624773Y-81408910D01*
X98624773Y-81123196D01*
X98577154Y-81027958D01*
X98529535Y-80980339D01*
X98434297Y-80932720D01*
X98291440Y-80932720D01*
X98196202Y-80980339D01*
X98148583Y-81027958D01*
X98100964Y-81123196D01*
X98100964Y-81408910D01*
X98148583Y-81504148D01*
X98196202Y-81551767D01*
X98291440Y-81599386D01*
X98434297Y-81599386D01*
X97243821Y-80932720D02*
X97243821Y-81599386D01*
X97672392Y-80932720D02*
X97672392Y-81456529D01*
X97624773Y-81551767D01*
X97529535Y-81599386D01*
X97386678Y-81599386D01*
X97291440Y-81551767D01*
X97243821Y-81504148D01*
X96910488Y-80932720D02*
X96529535Y-80932720D01*
X96767631Y-80599386D02*
X96767631Y-81456529D01*
X96720012Y-81551767D01*
X96624773Y-81599386D01*
X96529535Y-81599386D01*
X101934297Y-82249386D02*
X101362869Y-82249386D01*
X101648583Y-83249386D02*
X101648583Y-82249386D01*
X100696202Y-82725577D02*
X100553345Y-82773196D01*
X100505726Y-82820815D01*
X100458107Y-82916053D01*
X100458107Y-83058910D01*
X100505726Y-83154148D01*
X100553345Y-83201767D01*
X100648583Y-83249386D01*
X101029535Y-83249386D01*
X101029535Y-82249386D01*
X100696202Y-82249386D01*
X100600964Y-82297006D01*
X100553345Y-82344625D01*
X100505726Y-82439863D01*
X100505726Y-82535101D01*
X100553345Y-82630339D01*
X100600964Y-82677958D01*
X100696202Y-82725577D01*
X101029535Y-82725577D01*
X99600964Y-82582720D02*
X99600964Y-83249386D01*
X99839059Y-82201767D02*
X100077154Y-82916053D01*
X99458107Y-82916053D01*
X98886678Y-82249386D02*
X98791440Y-82249386D01*
X98696202Y-82297006D01*
X98648583Y-82344625D01*
X98600964Y-82439863D01*
X98553345Y-82630339D01*
X98553345Y-82868434D01*
X98600964Y-83058910D01*
X98648583Y-83154148D01*
X98696202Y-83201767D01*
X98791440Y-83249386D01*
X98886678Y-83249386D01*
X98981916Y-83201767D01*
X99029535Y-83154148D01*
X99077154Y-83058910D01*
X99124773Y-82868434D01*
X99124773Y-82630339D01*
X99077154Y-82439863D01*
X99029535Y-82344625D01*
X98981916Y-82297006D01*
X98886678Y-82249386D01*
X98220012Y-82249386D02*
X97600964Y-82249386D01*
X97934297Y-82630339D01*
X97791440Y-82630339D01*
X97696202Y-82677958D01*
X97648583Y-82725577D01*
X97600964Y-82820815D01*
X97600964Y-83058910D01*
X97648583Y-83154148D01*
X97696202Y-83201767D01*
X97791440Y-83249386D01*
X98077154Y-83249386D01*
X98172392Y-83201767D01*
X98220012Y-83154148D01*
X103339059Y-83994625D02*
X103291440Y-83947006D01*
X103196202Y-83899386D01*
X102958107Y-83899386D01*
X102862869Y-83947006D01*
X102815250Y-83994625D01*
X102767631Y-84089863D01*
X102767631Y-84185101D01*
X102815250Y-84327958D01*
X103386678Y-84899386D01*
X102767631Y-84899386D01*
X102148583Y-83899386D02*
X102053345Y-83899386D01*
X101958107Y-83947006D01*
X101910488Y-83994625D01*
X101862869Y-84089863D01*
X101815250Y-84280339D01*
X101815250Y-84518434D01*
X101862869Y-84708910D01*
X101910488Y-84804148D01*
X101958107Y-84851767D01*
X102053345Y-84899386D01*
X102148583Y-84899386D01*
X102243821Y-84851767D01*
X102291440Y-84804148D01*
X102339059Y-84708910D01*
X102386678Y-84518434D01*
X102386678Y-84280339D01*
X102339059Y-84089863D01*
X102291440Y-83994625D01*
X102243821Y-83947006D01*
X102148583Y-83899386D01*
X101434297Y-83994625D02*
X101386678Y-83947006D01*
X101291440Y-83899386D01*
X101053345Y-83899386D01*
X100958107Y-83947006D01*
X100910488Y-83994625D01*
X100862869Y-84089863D01*
X100862869Y-84185101D01*
X100910488Y-84327958D01*
X101481916Y-84899386D01*
X100862869Y-84899386D01*
X99910488Y-84899386D02*
X100481916Y-84899386D01*
X100196202Y-84899386D02*
X100196202Y-83899386D01*
X100291440Y-84042244D01*
X100386678Y-84137482D01*
X100481916Y-84185101D01*
X99291440Y-83899386D02*
X99196202Y-83899386D01*
X99100964Y-83947006D01*
X99053345Y-83994625D01*
X99005726Y-84089863D01*
X98958107Y-84280339D01*
X98958107Y-84518434D01*
X99005726Y-84708910D01*
X99053345Y-84804148D01*
X99100964Y-84851767D01*
X99196202Y-84899386D01*
X99291440Y-84899386D01*
X99386678Y-84851767D01*
X99434297Y-84804148D01*
X99481916Y-84708910D01*
X99529535Y-84518434D01*
X99529535Y-84280339D01*
X99481916Y-84089863D01*
X99434297Y-83994625D01*
X99386678Y-83947006D01*
X99291440Y-83899386D01*
X98624773Y-83899386D02*
X97958107Y-83899386D01*
X98386678Y-84899386D01*
X97053345Y-84899386D02*
X97624773Y-84899386D01*
X97339059Y-84899386D02*
X97339059Y-83899386D01*
X97434297Y-84042244D01*
X97529535Y-84137482D01*
X97624773Y-84185101D01*
X96196202Y-83899386D02*
X96386678Y-83899386D01*
X96481916Y-83947006D01*
X96529535Y-83994625D01*
X96624773Y-84137482D01*
X96672392Y-84327958D01*
X96672392Y-84708910D01*
X96624773Y-84804148D01*
X96577154Y-84851767D01*
X96481916Y-84899386D01*
X96291440Y-84899386D01*
X96196202Y-84851767D01*
X96148583Y-84804148D01*
X96100964Y-84708910D01*
X96100964Y-84470815D01*
X96148583Y-84375577D01*
X96196202Y-84327958D01*
X96291440Y-84280339D01*
X96481916Y-84280339D01*
X96577154Y-84327958D01*
X96624773Y-84375577D01*
X96672392Y-84470815D01*
X106893273Y-70502386D02*
X106559940Y-71502386D01*
X106226607Y-70502386D01*
X105559940Y-70978577D02*
X105417083Y-71026196D01*
X105369464Y-71073815D01*
X105321845Y-71169053D01*
X105321845Y-71311910D01*
X105369464Y-71407148D01*
X105417083Y-71454767D01*
X105512321Y-71502386D01*
X105893273Y-71502386D01*
X105893273Y-70502386D01*
X105559940Y-70502386D01*
X105464702Y-70550006D01*
X105417083Y-70597625D01*
X105369464Y-70692863D01*
X105369464Y-70788101D01*
X105417083Y-70883339D01*
X105464702Y-70930958D01*
X105559940Y-70978577D01*
X105893273Y-70978577D01*
X104893273Y-70502386D02*
X104893273Y-71311910D01*
X104845654Y-71407148D01*
X104798035Y-71454767D01*
X104702797Y-71502386D01*
X104512321Y-71502386D01*
X104417083Y-71454767D01*
X104369464Y-71407148D01*
X104321845Y-71311910D01*
X104321845Y-70502386D01*
D11*
X107280012Y-69720006D02*
X103784012Y-69720006D01*
X103784012Y-69720006D02*
X103784012Y-85080006D01*
X103784012Y-85080006D02*
X107280012Y-85080006D01*
X92160012Y-85080006D02*
X95656012Y-85080006D01*
X92160012Y-69720006D02*
X95656012Y-69720006D01*
X95656012Y-69720006D02*
X95656012Y-85080006D01*
D10*
X69781981Y-70550006D02*
X69877219Y-70502386D01*
X70020076Y-70502386D01*
X70162933Y-70550006D01*
X70258171Y-70645244D01*
X70305790Y-70740482D01*
X70353409Y-70930958D01*
X70353409Y-71073815D01*
X70305790Y-71264291D01*
X70258171Y-71359529D01*
X70162933Y-71454767D01*
X70020076Y-71502386D01*
X69924838Y-71502386D01*
X69781981Y-71454767D01*
X69734362Y-71407148D01*
X69734362Y-71073815D01*
X69924838Y-71073815D01*
X69305790Y-71502386D02*
X69305790Y-70502386D01*
X68924838Y-70502386D01*
X68829600Y-70550006D01*
X68781981Y-70597625D01*
X68734362Y-70692863D01*
X68734362Y-70835720D01*
X68781981Y-70930958D01*
X68829600Y-70978577D01*
X68924838Y-71026196D01*
X69305790Y-71026196D01*
X68115314Y-70502386D02*
X68020076Y-70502386D01*
X67924838Y-70550006D01*
X67877219Y-70597625D01*
X67829600Y-70692863D01*
X67781981Y-70883339D01*
X67781981Y-71121434D01*
X67829600Y-71311910D01*
X67877219Y-71407148D01*
X67924838Y-71454767D01*
X68020076Y-71502386D01*
X68115314Y-71502386D01*
X68210552Y-71454767D01*
X68258171Y-71407148D01*
X68305790Y-71311910D01*
X68353409Y-71121434D01*
X68353409Y-70883339D01*
X68305790Y-70692863D01*
X68258171Y-70597625D01*
X68210552Y-70550006D01*
X68115314Y-70502386D01*
X69781981Y-73090006D02*
X69877219Y-73042386D01*
X70020076Y-73042386D01*
X70162933Y-73090006D01*
X70258171Y-73185244D01*
X70305790Y-73280482D01*
X70353409Y-73470958D01*
X70353409Y-73613815D01*
X70305790Y-73804291D01*
X70258171Y-73899529D01*
X70162933Y-73994767D01*
X70020076Y-74042386D01*
X69924838Y-74042386D01*
X69781981Y-73994767D01*
X69734362Y-73947148D01*
X69734362Y-73613815D01*
X69924838Y-73613815D01*
X69305790Y-74042386D02*
X69305790Y-73042386D01*
X68924838Y-73042386D01*
X68829600Y-73090006D01*
X68781981Y-73137625D01*
X68734362Y-73232863D01*
X68734362Y-73375720D01*
X68781981Y-73470958D01*
X68829600Y-73518577D01*
X68924838Y-73566196D01*
X69305790Y-73566196D01*
X67781981Y-74042386D02*
X68353409Y-74042386D01*
X68067695Y-74042386D02*
X68067695Y-73042386D01*
X68162933Y-73185244D01*
X68258171Y-73280482D01*
X68353409Y-73328101D01*
X70305790Y-75215006D02*
X69305790Y-75215006D01*
X69496266Y-76582386D02*
X69829600Y-76106196D01*
X70067695Y-76582386D02*
X70067695Y-75582386D01*
X69686743Y-75582386D01*
X69591505Y-75630006D01*
X69543885Y-75677625D01*
X69496266Y-75772863D01*
X69496266Y-75915720D01*
X69543885Y-76010958D01*
X69591505Y-76058577D01*
X69686743Y-76106196D01*
X70067695Y-76106196D01*
X69305790Y-75215006D02*
X68353409Y-75215006D01*
X69115314Y-76534767D02*
X68972457Y-76582386D01*
X68734362Y-76582386D01*
X68639124Y-76534767D01*
X68591505Y-76487148D01*
X68543885Y-76391910D01*
X68543885Y-76296672D01*
X68591505Y-76201434D01*
X68639124Y-76153815D01*
X68734362Y-76106196D01*
X68924838Y-76058577D01*
X69020076Y-76010958D01*
X69067695Y-75963339D01*
X69115314Y-75868101D01*
X69115314Y-75772863D01*
X69067695Y-75677625D01*
X69020076Y-75630006D01*
X68924838Y-75582386D01*
X68686743Y-75582386D01*
X68543885Y-75630006D01*
X68353409Y-75215006D02*
X67591505Y-75215006D01*
X68258171Y-75582386D02*
X67686743Y-75582386D01*
X67972457Y-76582386D02*
X67972457Y-75582386D01*
X68591505Y-79122386D02*
X68924838Y-78646196D01*
X69162933Y-79122386D02*
X69162933Y-78122386D01*
X68781981Y-78122386D01*
X68686743Y-78170006D01*
X68639124Y-78217625D01*
X68591505Y-78312863D01*
X68591505Y-78455720D01*
X68639124Y-78550958D01*
X68686743Y-78598577D01*
X68781981Y-78646196D01*
X69162933Y-78646196D01*
X68258171Y-79122386D02*
X67734362Y-78455720D01*
X68258171Y-78455720D02*
X67734362Y-79122386D01*
X69067695Y-80662386D02*
X68496266Y-80662386D01*
X68781981Y-81662386D02*
X68781981Y-80662386D01*
X68258171Y-81662386D02*
X67734362Y-80995720D01*
X68258171Y-80995720D02*
X67734362Y-81662386D01*
X69781981Y-83250006D02*
X69877219Y-83202386D01*
X70020076Y-83202386D01*
X70162933Y-83250006D01*
X70258171Y-83345244D01*
X70305790Y-83440482D01*
X70353409Y-83630958D01*
X70353409Y-83773815D01*
X70305790Y-83964291D01*
X70258171Y-84059529D01*
X70162933Y-84154767D01*
X70020076Y-84202386D01*
X69924838Y-84202386D01*
X69781981Y-84154767D01*
X69734362Y-84107148D01*
X69734362Y-83773815D01*
X69924838Y-83773815D01*
X69305790Y-84202386D02*
X69305790Y-83202386D01*
X68924838Y-83202386D01*
X68829600Y-83250006D01*
X68781981Y-83297625D01*
X68734362Y-83392863D01*
X68734362Y-83535720D01*
X68781981Y-83630958D01*
X68829600Y-83678577D01*
X68924838Y-83726196D01*
X69305790Y-83726196D01*
X68353409Y-83297625D02*
X68305790Y-83250006D01*
X68210552Y-83202386D01*
X67972457Y-83202386D01*
X67877219Y-83250006D01*
X67829600Y-83297625D01*
X67781981Y-83392863D01*
X67781981Y-83488101D01*
X67829600Y-83630958D01*
X68401028Y-84202386D01*
X67781981Y-84202386D01*
X82033266Y-75582386D02*
X81699933Y-76582386D01*
X81366600Y-75582386D01*
X81033266Y-76582386D02*
X81033266Y-75582386D01*
X80795171Y-75582386D01*
X80652314Y-75630006D01*
X80557076Y-75725244D01*
X80509457Y-75820482D01*
X80461838Y-76010958D01*
X80461838Y-76153815D01*
X80509457Y-76344291D01*
X80557076Y-76439529D01*
X80652314Y-76534767D01*
X80795171Y-76582386D01*
X81033266Y-76582386D01*
X80033266Y-76582386D02*
X80033266Y-75582386D01*
X79795171Y-75582386D01*
X79652314Y-75630006D01*
X79557076Y-75725244D01*
X79509457Y-75820482D01*
X79461838Y-76010958D01*
X79461838Y-76153815D01*
X79509457Y-76344291D01*
X79557076Y-76439529D01*
X79652314Y-76534767D01*
X79795171Y-76582386D01*
X80033266Y-76582386D01*
X81938028Y-79074767D02*
X81795171Y-79122386D01*
X81557076Y-79122386D01*
X81461838Y-79074767D01*
X81414219Y-79027148D01*
X81366600Y-78931910D01*
X81366600Y-78836672D01*
X81414219Y-78741434D01*
X81461838Y-78693815D01*
X81557076Y-78646196D01*
X81747552Y-78598577D01*
X81842790Y-78550958D01*
X81890409Y-78503339D01*
X81938028Y-78408101D01*
X81938028Y-78312863D01*
X81890409Y-78217625D01*
X81842790Y-78170006D01*
X81747552Y-78122386D01*
X81509457Y-78122386D01*
X81366600Y-78170006D01*
X80366600Y-79027148D02*
X80414219Y-79074767D01*
X80557076Y-79122386D01*
X80652314Y-79122386D01*
X80795171Y-79074767D01*
X80890409Y-78979529D01*
X80938028Y-78884291D01*
X80985647Y-78693815D01*
X80985647Y-78550958D01*
X80938028Y-78360482D01*
X80890409Y-78265244D01*
X80795171Y-78170006D01*
X80652314Y-78122386D01*
X80557076Y-78122386D01*
X80414219Y-78170006D01*
X80366600Y-78217625D01*
X79461838Y-79122386D02*
X79938028Y-79122386D01*
X79938028Y-78122386D01*
X81938028Y-81614767D02*
X81795171Y-81662386D01*
X81557076Y-81662386D01*
X81461838Y-81614767D01*
X81414219Y-81567148D01*
X81366600Y-81471910D01*
X81366600Y-81376672D01*
X81414219Y-81281434D01*
X81461838Y-81233815D01*
X81557076Y-81186196D01*
X81747552Y-81138577D01*
X81842790Y-81090958D01*
X81890409Y-81043339D01*
X81938028Y-80948101D01*
X81938028Y-80852863D01*
X81890409Y-80757625D01*
X81842790Y-80710006D01*
X81747552Y-80662386D01*
X81509457Y-80662386D01*
X81366600Y-80710006D01*
X80938028Y-81662386D02*
X80938028Y-80662386D01*
X80699933Y-80662386D01*
X80557076Y-80710006D01*
X80461838Y-80805244D01*
X80414219Y-80900482D01*
X80366600Y-81090958D01*
X80366600Y-81233815D01*
X80414219Y-81424291D01*
X80461838Y-81519529D01*
X80557076Y-81614767D01*
X80699933Y-81662386D01*
X80938028Y-81662386D01*
X79985647Y-81376672D02*
X79509457Y-81376672D01*
X80080885Y-81662386D02*
X79747552Y-80662386D01*
X79414219Y-81662386D01*
X81366600Y-83250006D02*
X81461838Y-83202386D01*
X81604695Y-83202386D01*
X81747552Y-83250006D01*
X81842790Y-83345244D01*
X81890409Y-83440482D01*
X81938028Y-83630958D01*
X81938028Y-83773815D01*
X81890409Y-83964291D01*
X81842790Y-84059529D01*
X81747552Y-84154767D01*
X81604695Y-84202386D01*
X81509457Y-84202386D01*
X81366600Y-84154767D01*
X81318981Y-84107148D01*
X81318981Y-83773815D01*
X81509457Y-83773815D01*
X80890409Y-84202386D02*
X80890409Y-83202386D01*
X80509457Y-83202386D01*
X80414219Y-83250006D01*
X80366600Y-83297625D01*
X80318981Y-83392863D01*
X80318981Y-83535720D01*
X80366600Y-83630958D01*
X80414219Y-83678577D01*
X80509457Y-83726196D01*
X80890409Y-83726196D01*
X79985647Y-83202386D02*
X79366600Y-83202386D01*
X79699933Y-83583339D01*
X79557076Y-83583339D01*
X79461838Y-83630958D01*
X79414219Y-83678577D01*
X79366600Y-83773815D01*
X79366600Y-84011910D01*
X79414219Y-84107148D01*
X79461838Y-84154767D01*
X79557076Y-84202386D01*
X79842790Y-84202386D01*
X79938028Y-84154767D01*
X79985647Y-84107148D01*
X81366600Y-73090006D02*
X81461838Y-73042386D01*
X81604695Y-73042386D01*
X81747552Y-73090006D01*
X81842790Y-73185244D01*
X81890409Y-73280482D01*
X81938028Y-73470958D01*
X81938028Y-73613815D01*
X81890409Y-73804291D01*
X81842790Y-73899529D01*
X81747552Y-73994767D01*
X81604695Y-74042386D01*
X81509457Y-74042386D01*
X81366600Y-73994767D01*
X81318981Y-73947148D01*
X81318981Y-73613815D01*
X81509457Y-73613815D01*
X80890409Y-74042386D02*
X80890409Y-73042386D01*
X80318981Y-74042386D01*
X80318981Y-73042386D01*
X79842790Y-74042386D02*
X79842790Y-73042386D01*
X79604695Y-73042386D01*
X79461838Y-73090006D01*
X79366600Y-73185244D01*
X79318981Y-73280482D01*
X79271362Y-73470958D01*
X79271362Y-73613815D01*
X79318981Y-73804291D01*
X79366600Y-73899529D01*
X79461838Y-73994767D01*
X79604695Y-74042386D01*
X79842790Y-74042386D01*
X78526671Y-79949386D02*
X78526671Y-78949386D01*
X78193338Y-79663672D01*
X77860005Y-78949386D01*
X77860005Y-79949386D01*
X76812385Y-79854148D02*
X76860005Y-79901767D01*
X77002862Y-79949386D01*
X77098100Y-79949386D01*
X77240957Y-79901767D01*
X77336195Y-79806529D01*
X77383814Y-79711291D01*
X77431433Y-79520815D01*
X77431433Y-79377958D01*
X77383814Y-79187482D01*
X77336195Y-79092244D01*
X77240957Y-78997006D01*
X77098100Y-78949386D01*
X77002862Y-78949386D01*
X76860005Y-78997006D01*
X76812385Y-79044625D01*
X76383814Y-79949386D02*
X76383814Y-78949386D01*
X76002862Y-78949386D01*
X75907624Y-78997006D01*
X75860005Y-79044625D01*
X75812385Y-79139863D01*
X75812385Y-79282720D01*
X75860005Y-79377958D01*
X75907624Y-79425577D01*
X76002862Y-79473196D01*
X76383814Y-79473196D01*
X75431433Y-79044625D02*
X75383814Y-78997006D01*
X75288576Y-78949386D01*
X75050481Y-78949386D01*
X74955243Y-78997006D01*
X74907624Y-79044625D01*
X74860005Y-79139863D01*
X74860005Y-79235101D01*
X74907624Y-79377958D01*
X75479052Y-79949386D01*
X74860005Y-79949386D01*
X74479052Y-79044625D02*
X74431433Y-78997006D01*
X74336195Y-78949386D01*
X74098100Y-78949386D01*
X74002862Y-78997006D01*
X73955243Y-79044625D01*
X73907624Y-79139863D01*
X73907624Y-79235101D01*
X73955243Y-79377958D01*
X74526671Y-79949386D01*
X73907624Y-79949386D01*
X73526671Y-79044625D02*
X73479052Y-78997006D01*
X73383814Y-78949386D01*
X73145719Y-78949386D01*
X73050481Y-78997006D01*
X73002862Y-79044625D01*
X72955243Y-79139863D01*
X72955243Y-79235101D01*
X73002862Y-79377958D01*
X73574290Y-79949386D01*
X72955243Y-79949386D01*
X72002862Y-79949386D02*
X72574290Y-79949386D01*
X72288576Y-79949386D02*
X72288576Y-78949386D01*
X72383814Y-79092244D01*
X72479052Y-79187482D01*
X72574290Y-79235101D01*
X71621909Y-79663672D02*
X71145719Y-79663672D01*
X71717147Y-79949386D02*
X71383814Y-78949386D01*
X71050481Y-79949386D01*
X77574290Y-81075577D02*
X77431433Y-81123196D01*
X77383814Y-81170815D01*
X77336195Y-81266053D01*
X77336195Y-81408910D01*
X77383814Y-81504148D01*
X77431433Y-81551767D01*
X77526671Y-81599386D01*
X77907624Y-81599386D01*
X77907624Y-80599386D01*
X77574290Y-80599386D01*
X77479052Y-80647006D01*
X77431433Y-80694625D01*
X77383814Y-80789863D01*
X77383814Y-80885101D01*
X77431433Y-80980339D01*
X77479052Y-81027958D01*
X77574290Y-81075577D01*
X77907624Y-81075577D01*
X76907624Y-81599386D02*
X76907624Y-80932720D01*
X76907624Y-81123196D02*
X76860005Y-81027958D01*
X76812385Y-80980339D01*
X76717147Y-80932720D01*
X76621909Y-80932720D01*
X75907624Y-81551767D02*
X76002862Y-81599386D01*
X76193338Y-81599386D01*
X76288576Y-81551767D01*
X76336195Y-81456529D01*
X76336195Y-81075577D01*
X76288576Y-80980339D01*
X76193338Y-80932720D01*
X76002862Y-80932720D01*
X75907624Y-80980339D01*
X75860005Y-81075577D01*
X75860005Y-81170815D01*
X76336195Y-81266053D01*
X75002862Y-81599386D02*
X75002862Y-81075577D01*
X75050481Y-80980339D01*
X75145719Y-80932720D01*
X75336195Y-80932720D01*
X75431433Y-80980339D01*
X75002862Y-81551767D02*
X75098100Y-81599386D01*
X75336195Y-81599386D01*
X75431433Y-81551767D01*
X75479052Y-81456529D01*
X75479052Y-81361291D01*
X75431433Y-81266053D01*
X75336195Y-81218434D01*
X75098100Y-81218434D01*
X75002862Y-81170815D01*
X74526671Y-81599386D02*
X74526671Y-80599386D01*
X74431433Y-81218434D02*
X74145719Y-81599386D01*
X74145719Y-80932720D02*
X74526671Y-81313672D01*
X73574290Y-81599386D02*
X73669528Y-81551767D01*
X73717147Y-81504148D01*
X73764766Y-81408910D01*
X73764766Y-81123196D01*
X73717147Y-81027958D01*
X73669528Y-80980339D01*
X73574290Y-80932720D01*
X73431433Y-80932720D01*
X73336195Y-80980339D01*
X73288576Y-81027958D01*
X73240957Y-81123196D01*
X73240957Y-81408910D01*
X73288576Y-81504148D01*
X73336195Y-81551767D01*
X73431433Y-81599386D01*
X73574290Y-81599386D01*
X72383814Y-80932720D02*
X72383814Y-81599386D01*
X72812385Y-80932720D02*
X72812385Y-81456529D01*
X72764766Y-81551767D01*
X72669528Y-81599386D01*
X72526671Y-81599386D01*
X72431433Y-81551767D01*
X72383814Y-81504148D01*
X72050481Y-80932720D02*
X71669528Y-80932720D01*
X71907624Y-80599386D02*
X71907624Y-81456529D01*
X71860005Y-81551767D01*
X71764766Y-81599386D01*
X71669528Y-81599386D01*
X77074290Y-82249386D02*
X76502862Y-82249386D01*
X76788576Y-83249386D02*
X76788576Y-82249386D01*
X75836195Y-82725577D02*
X75693338Y-82773196D01*
X75645719Y-82820815D01*
X75598100Y-82916053D01*
X75598100Y-83058910D01*
X75645719Y-83154148D01*
X75693338Y-83201767D01*
X75788576Y-83249386D01*
X76169528Y-83249386D01*
X76169528Y-82249386D01*
X75836195Y-82249386D01*
X75740957Y-82297006D01*
X75693338Y-82344625D01*
X75645719Y-82439863D01*
X75645719Y-82535101D01*
X75693338Y-82630339D01*
X75740957Y-82677958D01*
X75836195Y-82725577D01*
X76169528Y-82725577D01*
X74740957Y-82582720D02*
X74740957Y-83249386D01*
X74979052Y-82201767D02*
X75217147Y-82916053D01*
X74598100Y-82916053D01*
X74026671Y-82249386D02*
X73931433Y-82249386D01*
X73836195Y-82297006D01*
X73788576Y-82344625D01*
X73740957Y-82439863D01*
X73693338Y-82630339D01*
X73693338Y-82868434D01*
X73740957Y-83058910D01*
X73788576Y-83154148D01*
X73836195Y-83201767D01*
X73931433Y-83249386D01*
X74026671Y-83249386D01*
X74121909Y-83201767D01*
X74169528Y-83154148D01*
X74217147Y-83058910D01*
X74264766Y-82868434D01*
X74264766Y-82630339D01*
X74217147Y-82439863D01*
X74169528Y-82344625D01*
X74121909Y-82297006D01*
X74026671Y-82249386D01*
X73360005Y-82249386D02*
X72740957Y-82249386D01*
X73074290Y-82630339D01*
X72931433Y-82630339D01*
X72836195Y-82677958D01*
X72788576Y-82725577D01*
X72740957Y-82820815D01*
X72740957Y-83058910D01*
X72788576Y-83154148D01*
X72836195Y-83201767D01*
X72931433Y-83249386D01*
X73217147Y-83249386D01*
X73312385Y-83201767D01*
X73360005Y-83154148D01*
X78479052Y-83994625D02*
X78431433Y-83947006D01*
X78336195Y-83899386D01*
X78098100Y-83899386D01*
X78002862Y-83947006D01*
X77955243Y-83994625D01*
X77907624Y-84089863D01*
X77907624Y-84185101D01*
X77955243Y-84327958D01*
X78526671Y-84899386D01*
X77907624Y-84899386D01*
X77288576Y-83899386D02*
X77193338Y-83899386D01*
X77098100Y-83947006D01*
X77050481Y-83994625D01*
X77002862Y-84089863D01*
X76955243Y-84280339D01*
X76955243Y-84518434D01*
X77002862Y-84708910D01*
X77050481Y-84804148D01*
X77098100Y-84851767D01*
X77193338Y-84899386D01*
X77288576Y-84899386D01*
X77383814Y-84851767D01*
X77431433Y-84804148D01*
X77479052Y-84708910D01*
X77526671Y-84518434D01*
X77526671Y-84280339D01*
X77479052Y-84089863D01*
X77431433Y-83994625D01*
X77383814Y-83947006D01*
X77288576Y-83899386D01*
X76574290Y-83994625D02*
X76526671Y-83947006D01*
X76431433Y-83899386D01*
X76193338Y-83899386D01*
X76098100Y-83947006D01*
X76050481Y-83994625D01*
X76002862Y-84089863D01*
X76002862Y-84185101D01*
X76050481Y-84327958D01*
X76621909Y-84899386D01*
X76002862Y-84899386D01*
X75050481Y-84899386D02*
X75621909Y-84899386D01*
X75336195Y-84899386D02*
X75336195Y-83899386D01*
X75431433Y-84042244D01*
X75526671Y-84137482D01*
X75621909Y-84185101D01*
X74431433Y-83899386D02*
X74336195Y-83899386D01*
X74240957Y-83947006D01*
X74193338Y-83994625D01*
X74145719Y-84089863D01*
X74098100Y-84280339D01*
X74098100Y-84518434D01*
X74145719Y-84708910D01*
X74193338Y-84804148D01*
X74240957Y-84851767D01*
X74336195Y-84899386D01*
X74431433Y-84899386D01*
X74526671Y-84851767D01*
X74574290Y-84804148D01*
X74621909Y-84708910D01*
X74669528Y-84518434D01*
X74669528Y-84280339D01*
X74621909Y-84089863D01*
X74574290Y-83994625D01*
X74526671Y-83947006D01*
X74431433Y-83899386D01*
X73764766Y-83899386D02*
X73098100Y-83899386D01*
X73526671Y-84899386D01*
X72193338Y-84899386D02*
X72764766Y-84899386D01*
X72479052Y-84899386D02*
X72479052Y-83899386D01*
X72574290Y-84042244D01*
X72669528Y-84137482D01*
X72764766Y-84185101D01*
X71336195Y-83899386D02*
X71526671Y-83899386D01*
X71621909Y-83947006D01*
X71669528Y-83994625D01*
X71764766Y-84137482D01*
X71812385Y-84327958D01*
X71812385Y-84708910D01*
X71764766Y-84804148D01*
X71717147Y-84851767D01*
X71621909Y-84899386D01*
X71431433Y-84899386D01*
X71336195Y-84851767D01*
X71288576Y-84804148D01*
X71240957Y-84708910D01*
X71240957Y-84470815D01*
X71288576Y-84375577D01*
X71336195Y-84327958D01*
X71431433Y-84280339D01*
X71621909Y-84280339D01*
X71717147Y-84327958D01*
X71764766Y-84375577D01*
X71812385Y-84470815D01*
X82033266Y-70502386D02*
X81699933Y-71502386D01*
X81366600Y-70502386D01*
X80699933Y-70978577D02*
X80557076Y-71026196D01*
X80509457Y-71073815D01*
X80461838Y-71169053D01*
X80461838Y-71311910D01*
X80509457Y-71407148D01*
X80557076Y-71454767D01*
X80652314Y-71502386D01*
X81033266Y-71502386D01*
X81033266Y-70502386D01*
X80699933Y-70502386D01*
X80604695Y-70550006D01*
X80557076Y-70597625D01*
X80509457Y-70692863D01*
X80509457Y-70788101D01*
X80557076Y-70883339D01*
X80604695Y-70930958D01*
X80699933Y-70978577D01*
X81033266Y-70978577D01*
X80033266Y-70502386D02*
X80033266Y-71311910D01*
X79985647Y-71407148D01*
X79938028Y-71454767D01*
X79842790Y-71502386D01*
X79652314Y-71502386D01*
X79557076Y-71454767D01*
X79509457Y-71407148D01*
X79461838Y-71311910D01*
X79461838Y-70502386D01*
D11*
X82420005Y-69720006D02*
X78924005Y-69720006D01*
X78924005Y-69720006D02*
X78924005Y-85080006D01*
X78924005Y-85080006D02*
X82420005Y-85080006D01*
X67300005Y-85080006D02*
X70796005Y-85080006D01*
X67300005Y-69720006D02*
X70796005Y-69720006D01*
X70796005Y-69720006D02*
X70796005Y-85080006D01*
D10*
X44921974Y-70550006D02*
X45017212Y-70502386D01*
X45160069Y-70502386D01*
X45302926Y-70550006D01*
X45398164Y-70645244D01*
X45445783Y-70740482D01*
X45493402Y-70930958D01*
X45493402Y-71073815D01*
X45445783Y-71264291D01*
X45398164Y-71359529D01*
X45302926Y-71454767D01*
X45160069Y-71502386D01*
X45064831Y-71502386D01*
X44921974Y-71454767D01*
X44874355Y-71407148D01*
X44874355Y-71073815D01*
X45064831Y-71073815D01*
X44445783Y-71502386D02*
X44445783Y-70502386D01*
X44064831Y-70502386D01*
X43969593Y-70550006D01*
X43921974Y-70597625D01*
X43874355Y-70692863D01*
X43874355Y-70835720D01*
X43921974Y-70930958D01*
X43969593Y-70978577D01*
X44064831Y-71026196D01*
X44445783Y-71026196D01*
X43255307Y-70502386D02*
X43160069Y-70502386D01*
X43064831Y-70550006D01*
X43017212Y-70597625D01*
X42969593Y-70692863D01*
X42921974Y-70883339D01*
X42921974Y-71121434D01*
X42969593Y-71311910D01*
X43017212Y-71407148D01*
X43064831Y-71454767D01*
X43160069Y-71502386D01*
X43255307Y-71502386D01*
X43350545Y-71454767D01*
X43398164Y-71407148D01*
X43445783Y-71311910D01*
X43493402Y-71121434D01*
X43493402Y-70883339D01*
X43445783Y-70692863D01*
X43398164Y-70597625D01*
X43350545Y-70550006D01*
X43255307Y-70502386D01*
X44921974Y-73090006D02*
X45017212Y-73042386D01*
X45160069Y-73042386D01*
X45302926Y-73090006D01*
X45398164Y-73185244D01*
X45445783Y-73280482D01*
X45493402Y-73470958D01*
X45493402Y-73613815D01*
X45445783Y-73804291D01*
X45398164Y-73899529D01*
X45302926Y-73994767D01*
X45160069Y-74042386D01*
X45064831Y-74042386D01*
X44921974Y-73994767D01*
X44874355Y-73947148D01*
X44874355Y-73613815D01*
X45064831Y-73613815D01*
X44445783Y-74042386D02*
X44445783Y-73042386D01*
X44064831Y-73042386D01*
X43969593Y-73090006D01*
X43921974Y-73137625D01*
X43874355Y-73232863D01*
X43874355Y-73375720D01*
X43921974Y-73470958D01*
X43969593Y-73518577D01*
X44064831Y-73566196D01*
X44445783Y-73566196D01*
X42921974Y-74042386D02*
X43493402Y-74042386D01*
X43207688Y-74042386D02*
X43207688Y-73042386D01*
X43302926Y-73185244D01*
X43398164Y-73280482D01*
X43493402Y-73328101D01*
X45445783Y-75215006D02*
X44445783Y-75215006D01*
X44636259Y-76582386D02*
X44969593Y-76106196D01*
X45207688Y-76582386D02*
X45207688Y-75582386D01*
X44826736Y-75582386D01*
X44731498Y-75630006D01*
X44683878Y-75677625D01*
X44636259Y-75772863D01*
X44636259Y-75915720D01*
X44683878Y-76010958D01*
X44731498Y-76058577D01*
X44826736Y-76106196D01*
X45207688Y-76106196D01*
X44445783Y-75215006D02*
X43493402Y-75215006D01*
X44255307Y-76534767D02*
X44112450Y-76582386D01*
X43874355Y-76582386D01*
X43779117Y-76534767D01*
X43731498Y-76487148D01*
X43683878Y-76391910D01*
X43683878Y-76296672D01*
X43731498Y-76201434D01*
X43779117Y-76153815D01*
X43874355Y-76106196D01*
X44064831Y-76058577D01*
X44160069Y-76010958D01*
X44207688Y-75963339D01*
X44255307Y-75868101D01*
X44255307Y-75772863D01*
X44207688Y-75677625D01*
X44160069Y-75630006D01*
X44064831Y-75582386D01*
X43826736Y-75582386D01*
X43683878Y-75630006D01*
X43493402Y-75215006D02*
X42731498Y-75215006D01*
X43398164Y-75582386D02*
X42826736Y-75582386D01*
X43112450Y-76582386D02*
X43112450Y-75582386D01*
X43731498Y-79122386D02*
X44064831Y-78646196D01*
X44302926Y-79122386D02*
X44302926Y-78122386D01*
X43921974Y-78122386D01*
X43826736Y-78170006D01*
X43779117Y-78217625D01*
X43731498Y-78312863D01*
X43731498Y-78455720D01*
X43779117Y-78550958D01*
X43826736Y-78598577D01*
X43921974Y-78646196D01*
X44302926Y-78646196D01*
X43398164Y-79122386D02*
X42874355Y-78455720D01*
X43398164Y-78455720D02*
X42874355Y-79122386D01*
X44207688Y-80662386D02*
X43636259Y-80662386D01*
X43921974Y-81662386D02*
X43921974Y-80662386D01*
X43398164Y-81662386D02*
X42874355Y-80995720D01*
X43398164Y-80995720D02*
X42874355Y-81662386D01*
X44921974Y-83250006D02*
X45017212Y-83202386D01*
X45160069Y-83202386D01*
X45302926Y-83250006D01*
X45398164Y-83345244D01*
X45445783Y-83440482D01*
X45493402Y-83630958D01*
X45493402Y-83773815D01*
X45445783Y-83964291D01*
X45398164Y-84059529D01*
X45302926Y-84154767D01*
X45160069Y-84202386D01*
X45064831Y-84202386D01*
X44921974Y-84154767D01*
X44874355Y-84107148D01*
X44874355Y-83773815D01*
X45064831Y-83773815D01*
X44445783Y-84202386D02*
X44445783Y-83202386D01*
X44064831Y-83202386D01*
X43969593Y-83250006D01*
X43921974Y-83297625D01*
X43874355Y-83392863D01*
X43874355Y-83535720D01*
X43921974Y-83630958D01*
X43969593Y-83678577D01*
X44064831Y-83726196D01*
X44445783Y-83726196D01*
X43493402Y-83297625D02*
X43445783Y-83250006D01*
X43350545Y-83202386D01*
X43112450Y-83202386D01*
X43017212Y-83250006D01*
X42969593Y-83297625D01*
X42921974Y-83392863D01*
X42921974Y-83488101D01*
X42969593Y-83630958D01*
X43541021Y-84202386D01*
X42921974Y-84202386D01*
X57173259Y-75582386D02*
X56839926Y-76582386D01*
X56506593Y-75582386D01*
X56173259Y-76582386D02*
X56173259Y-75582386D01*
X55935164Y-75582386D01*
X55792307Y-75630006D01*
X55697069Y-75725244D01*
X55649450Y-75820482D01*
X55601831Y-76010958D01*
X55601831Y-76153815D01*
X55649450Y-76344291D01*
X55697069Y-76439529D01*
X55792307Y-76534767D01*
X55935164Y-76582386D01*
X56173259Y-76582386D01*
X55173259Y-76582386D02*
X55173259Y-75582386D01*
X54935164Y-75582386D01*
X54792307Y-75630006D01*
X54697069Y-75725244D01*
X54649450Y-75820482D01*
X54601831Y-76010958D01*
X54601831Y-76153815D01*
X54649450Y-76344291D01*
X54697069Y-76439529D01*
X54792307Y-76534767D01*
X54935164Y-76582386D01*
X55173259Y-76582386D01*
X57078021Y-79074767D02*
X56935164Y-79122386D01*
X56697069Y-79122386D01*
X56601831Y-79074767D01*
X56554212Y-79027148D01*
X56506593Y-78931910D01*
X56506593Y-78836672D01*
X56554212Y-78741434D01*
X56601831Y-78693815D01*
X56697069Y-78646196D01*
X56887545Y-78598577D01*
X56982783Y-78550958D01*
X57030402Y-78503339D01*
X57078021Y-78408101D01*
X57078021Y-78312863D01*
X57030402Y-78217625D01*
X56982783Y-78170006D01*
X56887545Y-78122386D01*
X56649450Y-78122386D01*
X56506593Y-78170006D01*
X55506593Y-79027148D02*
X55554212Y-79074767D01*
X55697069Y-79122386D01*
X55792307Y-79122386D01*
X55935164Y-79074767D01*
X56030402Y-78979529D01*
X56078021Y-78884291D01*
X56125640Y-78693815D01*
X56125640Y-78550958D01*
X56078021Y-78360482D01*
X56030402Y-78265244D01*
X55935164Y-78170006D01*
X55792307Y-78122386D01*
X55697069Y-78122386D01*
X55554212Y-78170006D01*
X55506593Y-78217625D01*
X54601831Y-79122386D02*
X55078021Y-79122386D01*
X55078021Y-78122386D01*
X57078021Y-81614767D02*
X56935164Y-81662386D01*
X56697069Y-81662386D01*
X56601831Y-81614767D01*
X56554212Y-81567148D01*
X56506593Y-81471910D01*
X56506593Y-81376672D01*
X56554212Y-81281434D01*
X56601831Y-81233815D01*
X56697069Y-81186196D01*
X56887545Y-81138577D01*
X56982783Y-81090958D01*
X57030402Y-81043339D01*
X57078021Y-80948101D01*
X57078021Y-80852863D01*
X57030402Y-80757625D01*
X56982783Y-80710006D01*
X56887545Y-80662386D01*
X56649450Y-80662386D01*
X56506593Y-80710006D01*
X56078021Y-81662386D02*
X56078021Y-80662386D01*
X55839926Y-80662386D01*
X55697069Y-80710006D01*
X55601831Y-80805244D01*
X55554212Y-80900482D01*
X55506593Y-81090958D01*
X55506593Y-81233815D01*
X55554212Y-81424291D01*
X55601831Y-81519529D01*
X55697069Y-81614767D01*
X55839926Y-81662386D01*
X56078021Y-81662386D01*
X55125640Y-81376672D02*
X54649450Y-81376672D01*
X55220878Y-81662386D02*
X54887545Y-80662386D01*
X54554212Y-81662386D01*
X56506593Y-83250006D02*
X56601831Y-83202386D01*
X56744688Y-83202386D01*
X56887545Y-83250006D01*
X56982783Y-83345244D01*
X57030402Y-83440482D01*
X57078021Y-83630958D01*
X57078021Y-83773815D01*
X57030402Y-83964291D01*
X56982783Y-84059529D01*
X56887545Y-84154767D01*
X56744688Y-84202386D01*
X56649450Y-84202386D01*
X56506593Y-84154767D01*
X56458974Y-84107148D01*
X56458974Y-83773815D01*
X56649450Y-83773815D01*
X56030402Y-84202386D02*
X56030402Y-83202386D01*
X55649450Y-83202386D01*
X55554212Y-83250006D01*
X55506593Y-83297625D01*
X55458974Y-83392863D01*
X55458974Y-83535720D01*
X55506593Y-83630958D01*
X55554212Y-83678577D01*
X55649450Y-83726196D01*
X56030402Y-83726196D01*
X55125640Y-83202386D02*
X54506593Y-83202386D01*
X54839926Y-83583339D01*
X54697069Y-83583339D01*
X54601831Y-83630958D01*
X54554212Y-83678577D01*
X54506593Y-83773815D01*
X54506593Y-84011910D01*
X54554212Y-84107148D01*
X54601831Y-84154767D01*
X54697069Y-84202386D01*
X54982783Y-84202386D01*
X55078021Y-84154767D01*
X55125640Y-84107148D01*
X56506593Y-73090006D02*
X56601831Y-73042386D01*
X56744688Y-73042386D01*
X56887545Y-73090006D01*
X56982783Y-73185244D01*
X57030402Y-73280482D01*
X57078021Y-73470958D01*
X57078021Y-73613815D01*
X57030402Y-73804291D01*
X56982783Y-73899529D01*
X56887545Y-73994767D01*
X56744688Y-74042386D01*
X56649450Y-74042386D01*
X56506593Y-73994767D01*
X56458974Y-73947148D01*
X56458974Y-73613815D01*
X56649450Y-73613815D01*
X56030402Y-74042386D02*
X56030402Y-73042386D01*
X55458974Y-74042386D01*
X55458974Y-73042386D01*
X54982783Y-74042386D02*
X54982783Y-73042386D01*
X54744688Y-73042386D01*
X54601831Y-73090006D01*
X54506593Y-73185244D01*
X54458974Y-73280482D01*
X54411355Y-73470958D01*
X54411355Y-73613815D01*
X54458974Y-73804291D01*
X54506593Y-73899529D01*
X54601831Y-73994767D01*
X54744688Y-74042386D01*
X54982783Y-74042386D01*
X53666664Y-79949386D02*
X53666664Y-78949386D01*
X53333331Y-79663672D01*
X52999998Y-78949386D01*
X52999998Y-79949386D01*
X51952378Y-79854148D02*
X51999998Y-79901767D01*
X52142855Y-79949386D01*
X52238093Y-79949386D01*
X52380950Y-79901767D01*
X52476188Y-79806529D01*
X52523807Y-79711291D01*
X52571426Y-79520815D01*
X52571426Y-79377958D01*
X52523807Y-79187482D01*
X52476188Y-79092244D01*
X52380950Y-78997006D01*
X52238093Y-78949386D01*
X52142855Y-78949386D01*
X51999998Y-78997006D01*
X51952378Y-79044625D01*
X51523807Y-79949386D02*
X51523807Y-78949386D01*
X51142855Y-78949386D01*
X51047617Y-78997006D01*
X50999998Y-79044625D01*
X50952378Y-79139863D01*
X50952378Y-79282720D01*
X50999998Y-79377958D01*
X51047617Y-79425577D01*
X51142855Y-79473196D01*
X51523807Y-79473196D01*
X50571426Y-79044625D02*
X50523807Y-78997006D01*
X50428569Y-78949386D01*
X50190474Y-78949386D01*
X50095236Y-78997006D01*
X50047617Y-79044625D01*
X49999998Y-79139863D01*
X49999998Y-79235101D01*
X50047617Y-79377958D01*
X50619045Y-79949386D01*
X49999998Y-79949386D01*
X49619045Y-79044625D02*
X49571426Y-78997006D01*
X49476188Y-78949386D01*
X49238093Y-78949386D01*
X49142855Y-78997006D01*
X49095236Y-79044625D01*
X49047617Y-79139863D01*
X49047617Y-79235101D01*
X49095236Y-79377958D01*
X49666664Y-79949386D01*
X49047617Y-79949386D01*
X48666664Y-79044625D02*
X48619045Y-78997006D01*
X48523807Y-78949386D01*
X48285712Y-78949386D01*
X48190474Y-78997006D01*
X48142855Y-79044625D01*
X48095236Y-79139863D01*
X48095236Y-79235101D01*
X48142855Y-79377958D01*
X48714283Y-79949386D01*
X48095236Y-79949386D01*
X47142855Y-79949386D02*
X47714283Y-79949386D01*
X47428569Y-79949386D02*
X47428569Y-78949386D01*
X47523807Y-79092244D01*
X47619045Y-79187482D01*
X47714283Y-79235101D01*
X46761902Y-79663672D02*
X46285712Y-79663672D01*
X46857140Y-79949386D02*
X46523807Y-78949386D01*
X46190474Y-79949386D01*
X52714283Y-81075577D02*
X52571426Y-81123196D01*
X52523807Y-81170815D01*
X52476188Y-81266053D01*
X52476188Y-81408910D01*
X52523807Y-81504148D01*
X52571426Y-81551767D01*
X52666664Y-81599386D01*
X53047617Y-81599386D01*
X53047617Y-80599386D01*
X52714283Y-80599386D01*
X52619045Y-80647006D01*
X52571426Y-80694625D01*
X52523807Y-80789863D01*
X52523807Y-80885101D01*
X52571426Y-80980339D01*
X52619045Y-81027958D01*
X52714283Y-81075577D01*
X53047617Y-81075577D01*
X52047617Y-81599386D02*
X52047617Y-80932720D01*
X52047617Y-81123196D02*
X51999998Y-81027958D01*
X51952378Y-80980339D01*
X51857140Y-80932720D01*
X51761902Y-80932720D01*
X51047617Y-81551767D02*
X51142855Y-81599386D01*
X51333331Y-81599386D01*
X51428569Y-81551767D01*
X51476188Y-81456529D01*
X51476188Y-81075577D01*
X51428569Y-80980339D01*
X51333331Y-80932720D01*
X51142855Y-80932720D01*
X51047617Y-80980339D01*
X50999998Y-81075577D01*
X50999998Y-81170815D01*
X51476188Y-81266053D01*
X50142855Y-81599386D02*
X50142855Y-81075577D01*
X50190474Y-80980339D01*
X50285712Y-80932720D01*
X50476188Y-80932720D01*
X50571426Y-80980339D01*
X50142855Y-81551767D02*
X50238093Y-81599386D01*
X50476188Y-81599386D01*
X50571426Y-81551767D01*
X50619045Y-81456529D01*
X50619045Y-81361291D01*
X50571426Y-81266053D01*
X50476188Y-81218434D01*
X50238093Y-81218434D01*
X50142855Y-81170815D01*
X49666664Y-81599386D02*
X49666664Y-80599386D01*
X49571426Y-81218434D02*
X49285712Y-81599386D01*
X49285712Y-80932720D02*
X49666664Y-81313672D01*
X48714283Y-81599386D02*
X48809521Y-81551767D01*
X48857140Y-81504148D01*
X48904759Y-81408910D01*
X48904759Y-81123196D01*
X48857140Y-81027958D01*
X48809521Y-80980339D01*
X48714283Y-80932720D01*
X48571426Y-80932720D01*
X48476188Y-80980339D01*
X48428569Y-81027958D01*
X48380950Y-81123196D01*
X48380950Y-81408910D01*
X48428569Y-81504148D01*
X48476188Y-81551767D01*
X48571426Y-81599386D01*
X48714283Y-81599386D01*
X47523807Y-80932720D02*
X47523807Y-81599386D01*
X47952378Y-80932720D02*
X47952378Y-81456529D01*
X47904759Y-81551767D01*
X47809521Y-81599386D01*
X47666664Y-81599386D01*
X47571426Y-81551767D01*
X47523807Y-81504148D01*
X47190474Y-80932720D02*
X46809521Y-80932720D01*
X47047617Y-80599386D02*
X47047617Y-81456529D01*
X46999998Y-81551767D01*
X46904759Y-81599386D01*
X46809521Y-81599386D01*
X52214283Y-82249386D02*
X51642855Y-82249386D01*
X51928569Y-83249386D02*
X51928569Y-82249386D01*
X50976188Y-82725577D02*
X50833331Y-82773196D01*
X50785712Y-82820815D01*
X50738093Y-82916053D01*
X50738093Y-83058910D01*
X50785712Y-83154148D01*
X50833331Y-83201767D01*
X50928569Y-83249386D01*
X51309521Y-83249386D01*
X51309521Y-82249386D01*
X50976188Y-82249386D01*
X50880950Y-82297006D01*
X50833331Y-82344625D01*
X50785712Y-82439863D01*
X50785712Y-82535101D01*
X50833331Y-82630339D01*
X50880950Y-82677958D01*
X50976188Y-82725577D01*
X51309521Y-82725577D01*
X49880950Y-82582720D02*
X49880950Y-83249386D01*
X50119045Y-82201767D02*
X50357140Y-82916053D01*
X49738093Y-82916053D01*
X49166664Y-82249386D02*
X49071426Y-82249386D01*
X48976188Y-82297006D01*
X48928569Y-82344625D01*
X48880950Y-82439863D01*
X48833331Y-82630339D01*
X48833331Y-82868434D01*
X48880950Y-83058910D01*
X48928569Y-83154148D01*
X48976188Y-83201767D01*
X49071426Y-83249386D01*
X49166664Y-83249386D01*
X49261902Y-83201767D01*
X49309521Y-83154148D01*
X49357140Y-83058910D01*
X49404759Y-82868434D01*
X49404759Y-82630339D01*
X49357140Y-82439863D01*
X49309521Y-82344625D01*
X49261902Y-82297006D01*
X49166664Y-82249386D01*
X48499998Y-82249386D02*
X47880950Y-82249386D01*
X48214283Y-82630339D01*
X48071426Y-82630339D01*
X47976188Y-82677958D01*
X47928569Y-82725577D01*
X47880950Y-82820815D01*
X47880950Y-83058910D01*
X47928569Y-83154148D01*
X47976188Y-83201767D01*
X48071426Y-83249386D01*
X48357140Y-83249386D01*
X48452378Y-83201767D01*
X48499998Y-83154148D01*
X53619045Y-83994625D02*
X53571426Y-83947006D01*
X53476188Y-83899386D01*
X53238093Y-83899386D01*
X53142855Y-83947006D01*
X53095236Y-83994625D01*
X53047617Y-84089863D01*
X53047617Y-84185101D01*
X53095236Y-84327958D01*
X53666664Y-84899386D01*
X53047617Y-84899386D01*
X52428569Y-83899386D02*
X52333331Y-83899386D01*
X52238093Y-83947006D01*
X52190474Y-83994625D01*
X52142855Y-84089863D01*
X52095236Y-84280339D01*
X52095236Y-84518434D01*
X52142855Y-84708910D01*
X52190474Y-84804148D01*
X52238093Y-84851767D01*
X52333331Y-84899386D01*
X52428569Y-84899386D01*
X52523807Y-84851767D01*
X52571426Y-84804148D01*
X52619045Y-84708910D01*
X52666664Y-84518434D01*
X52666664Y-84280339D01*
X52619045Y-84089863D01*
X52571426Y-83994625D01*
X52523807Y-83947006D01*
X52428569Y-83899386D01*
X51714283Y-83994625D02*
X51666664Y-83947006D01*
X51571426Y-83899386D01*
X51333331Y-83899386D01*
X51238093Y-83947006D01*
X51190474Y-83994625D01*
X51142855Y-84089863D01*
X51142855Y-84185101D01*
X51190474Y-84327958D01*
X51761902Y-84899386D01*
X51142855Y-84899386D01*
X50190474Y-84899386D02*
X50761902Y-84899386D01*
X50476188Y-84899386D02*
X50476188Y-83899386D01*
X50571426Y-84042244D01*
X50666664Y-84137482D01*
X50761902Y-84185101D01*
X49571426Y-83899386D02*
X49476188Y-83899386D01*
X49380950Y-83947006D01*
X49333331Y-83994625D01*
X49285712Y-84089863D01*
X49238093Y-84280339D01*
X49238093Y-84518434D01*
X49285712Y-84708910D01*
X49333331Y-84804148D01*
X49380950Y-84851767D01*
X49476188Y-84899386D01*
X49571426Y-84899386D01*
X49666664Y-84851767D01*
X49714283Y-84804148D01*
X49761902Y-84708910D01*
X49809521Y-84518434D01*
X49809521Y-84280339D01*
X49761902Y-84089863D01*
X49714283Y-83994625D01*
X49666664Y-83947006D01*
X49571426Y-83899386D01*
X48904759Y-83899386D02*
X48238093Y-83899386D01*
X48666664Y-84899386D01*
X47333331Y-84899386D02*
X47904759Y-84899386D01*
X47619045Y-84899386D02*
X47619045Y-83899386D01*
X47714283Y-84042244D01*
X47809521Y-84137482D01*
X47904759Y-84185101D01*
X46476188Y-83899386D02*
X46666664Y-83899386D01*
X46761902Y-83947006D01*
X46809521Y-83994625D01*
X46904759Y-84137482D01*
X46952378Y-84327958D01*
X46952378Y-84708910D01*
X46904759Y-84804148D01*
X46857140Y-84851767D01*
X46761902Y-84899386D01*
X46571426Y-84899386D01*
X46476188Y-84851767D01*
X46428569Y-84804148D01*
X46380950Y-84708910D01*
X46380950Y-84470815D01*
X46428569Y-84375577D01*
X46476188Y-84327958D01*
X46571426Y-84280339D01*
X46761902Y-84280339D01*
X46857140Y-84327958D01*
X46904759Y-84375577D01*
X46952378Y-84470815D01*
X57173259Y-70502386D02*
X56839926Y-71502386D01*
X56506593Y-70502386D01*
X55839926Y-70978577D02*
X55697069Y-71026196D01*
X55649450Y-71073815D01*
X55601831Y-71169053D01*
X55601831Y-71311910D01*
X55649450Y-71407148D01*
X55697069Y-71454767D01*
X55792307Y-71502386D01*
X56173259Y-71502386D01*
X56173259Y-70502386D01*
X55839926Y-70502386D01*
X55744688Y-70550006D01*
X55697069Y-70597625D01*
X55649450Y-70692863D01*
X55649450Y-70788101D01*
X55697069Y-70883339D01*
X55744688Y-70930958D01*
X55839926Y-70978577D01*
X56173259Y-70978577D01*
X55173259Y-70502386D02*
X55173259Y-71311910D01*
X55125640Y-71407148D01*
X55078021Y-71454767D01*
X54982783Y-71502386D01*
X54792307Y-71502386D01*
X54697069Y-71454767D01*
X54649450Y-71407148D01*
X54601831Y-71311910D01*
X54601831Y-70502386D01*
D11*
X57559998Y-69720006D02*
X54063998Y-69720006D01*
X54063998Y-69720006D02*
X54063998Y-85080006D01*
X54063998Y-85080006D02*
X57559998Y-85080006D01*
X42439998Y-85080006D02*
X45935998Y-85080006D01*
X42439998Y-69720006D02*
X45935998Y-69720006D01*
X45935998Y-69720006D02*
X45935998Y-85080006D01*
D10*
X94641988Y-45689997D02*
X94737226Y-45642377D01*
X94880083Y-45642377D01*
X95022940Y-45689997D01*
X95118178Y-45785235D01*
X95165797Y-45880473D01*
X95213416Y-46070949D01*
X95213416Y-46213806D01*
X95165797Y-46404282D01*
X95118178Y-46499520D01*
X95022940Y-46594758D01*
X94880083Y-46642377D01*
X94784845Y-46642377D01*
X94641988Y-46594758D01*
X94594369Y-46547139D01*
X94594369Y-46213806D01*
X94784845Y-46213806D01*
X94165797Y-46642377D02*
X94165797Y-45642377D01*
X93784845Y-45642377D01*
X93689607Y-45689997D01*
X93641988Y-45737616D01*
X93594369Y-45832854D01*
X93594369Y-45975711D01*
X93641988Y-46070949D01*
X93689607Y-46118568D01*
X93784845Y-46166187D01*
X94165797Y-46166187D01*
X92975321Y-45642377D02*
X92880083Y-45642377D01*
X92784845Y-45689997D01*
X92737226Y-45737616D01*
X92689607Y-45832854D01*
X92641988Y-46023330D01*
X92641988Y-46261425D01*
X92689607Y-46451901D01*
X92737226Y-46547139D01*
X92784845Y-46594758D01*
X92880083Y-46642377D01*
X92975321Y-46642377D01*
X93070559Y-46594758D01*
X93118178Y-46547139D01*
X93165797Y-46451901D01*
X93213416Y-46261425D01*
X93213416Y-46023330D01*
X93165797Y-45832854D01*
X93118178Y-45737616D01*
X93070559Y-45689997D01*
X92975321Y-45642377D01*
X94641988Y-48229997D02*
X94737226Y-48182377D01*
X94880083Y-48182377D01*
X95022940Y-48229997D01*
X95118178Y-48325235D01*
X95165797Y-48420473D01*
X95213416Y-48610949D01*
X95213416Y-48753806D01*
X95165797Y-48944282D01*
X95118178Y-49039520D01*
X95022940Y-49134758D01*
X94880083Y-49182377D01*
X94784845Y-49182377D01*
X94641988Y-49134758D01*
X94594369Y-49087139D01*
X94594369Y-48753806D01*
X94784845Y-48753806D01*
X94165797Y-49182377D02*
X94165797Y-48182377D01*
X93784845Y-48182377D01*
X93689607Y-48229997D01*
X93641988Y-48277616D01*
X93594369Y-48372854D01*
X93594369Y-48515711D01*
X93641988Y-48610949D01*
X93689607Y-48658568D01*
X93784845Y-48706187D01*
X94165797Y-48706187D01*
X92641988Y-49182377D02*
X93213416Y-49182377D01*
X92927702Y-49182377D02*
X92927702Y-48182377D01*
X93022940Y-48325235D01*
X93118178Y-48420473D01*
X93213416Y-48468092D01*
X95165797Y-50354997D02*
X94165797Y-50354997D01*
X94356273Y-51722377D02*
X94689607Y-51246187D01*
X94927702Y-51722377D02*
X94927702Y-50722377D01*
X94546750Y-50722377D01*
X94451512Y-50769997D01*
X94403892Y-50817616D01*
X94356273Y-50912854D01*
X94356273Y-51055711D01*
X94403892Y-51150949D01*
X94451512Y-51198568D01*
X94546750Y-51246187D01*
X94927702Y-51246187D01*
X94165797Y-50354997D02*
X93213416Y-50354997D01*
X93975321Y-51674758D02*
X93832464Y-51722377D01*
X93594369Y-51722377D01*
X93499131Y-51674758D01*
X93451512Y-51627139D01*
X93403892Y-51531901D01*
X93403892Y-51436663D01*
X93451512Y-51341425D01*
X93499131Y-51293806D01*
X93594369Y-51246187D01*
X93784845Y-51198568D01*
X93880083Y-51150949D01*
X93927702Y-51103330D01*
X93975321Y-51008092D01*
X93975321Y-50912854D01*
X93927702Y-50817616D01*
X93880083Y-50769997D01*
X93784845Y-50722377D01*
X93546750Y-50722377D01*
X93403892Y-50769997D01*
X93213416Y-50354997D02*
X92451512Y-50354997D01*
X93118178Y-50722377D02*
X92546750Y-50722377D01*
X92832464Y-51722377D02*
X92832464Y-50722377D01*
X93451512Y-54262377D02*
X93784845Y-53786187D01*
X94022940Y-54262377D02*
X94022940Y-53262377D01*
X93641988Y-53262377D01*
X93546750Y-53309997D01*
X93499131Y-53357616D01*
X93451512Y-53452854D01*
X93451512Y-53595711D01*
X93499131Y-53690949D01*
X93546750Y-53738568D01*
X93641988Y-53786187D01*
X94022940Y-53786187D01*
X93118178Y-54262377D02*
X92594369Y-53595711D01*
X93118178Y-53595711D02*
X92594369Y-54262377D01*
X93927702Y-55802377D02*
X93356273Y-55802377D01*
X93641988Y-56802377D02*
X93641988Y-55802377D01*
X93118178Y-56802377D02*
X92594369Y-56135711D01*
X93118178Y-56135711D02*
X92594369Y-56802377D01*
X94641988Y-58389997D02*
X94737226Y-58342377D01*
X94880083Y-58342377D01*
X95022940Y-58389997D01*
X95118178Y-58485235D01*
X95165797Y-58580473D01*
X95213416Y-58770949D01*
X95213416Y-58913806D01*
X95165797Y-59104282D01*
X95118178Y-59199520D01*
X95022940Y-59294758D01*
X94880083Y-59342377D01*
X94784845Y-59342377D01*
X94641988Y-59294758D01*
X94594369Y-59247139D01*
X94594369Y-58913806D01*
X94784845Y-58913806D01*
X94165797Y-59342377D02*
X94165797Y-58342377D01*
X93784845Y-58342377D01*
X93689607Y-58389997D01*
X93641988Y-58437616D01*
X93594369Y-58532854D01*
X93594369Y-58675711D01*
X93641988Y-58770949D01*
X93689607Y-58818568D01*
X93784845Y-58866187D01*
X94165797Y-58866187D01*
X93213416Y-58437616D02*
X93165797Y-58389997D01*
X93070559Y-58342377D01*
X92832464Y-58342377D01*
X92737226Y-58389997D01*
X92689607Y-58437616D01*
X92641988Y-58532854D01*
X92641988Y-58628092D01*
X92689607Y-58770949D01*
X93261035Y-59342377D01*
X92641988Y-59342377D01*
X106893273Y-50722377D02*
X106559940Y-51722377D01*
X106226607Y-50722377D01*
X105893273Y-51722377D02*
X105893273Y-50722377D01*
X105655178Y-50722377D01*
X105512321Y-50769997D01*
X105417083Y-50865235D01*
X105369464Y-50960473D01*
X105321845Y-51150949D01*
X105321845Y-51293806D01*
X105369464Y-51484282D01*
X105417083Y-51579520D01*
X105512321Y-51674758D01*
X105655178Y-51722377D01*
X105893273Y-51722377D01*
X104893273Y-51722377D02*
X104893273Y-50722377D01*
X104655178Y-50722377D01*
X104512321Y-50769997D01*
X104417083Y-50865235D01*
X104369464Y-50960473D01*
X104321845Y-51150949D01*
X104321845Y-51293806D01*
X104369464Y-51484282D01*
X104417083Y-51579520D01*
X104512321Y-51674758D01*
X104655178Y-51722377D01*
X104893273Y-51722377D01*
X106798035Y-54214758D02*
X106655178Y-54262377D01*
X106417083Y-54262377D01*
X106321845Y-54214758D01*
X106274226Y-54167139D01*
X106226607Y-54071901D01*
X106226607Y-53976663D01*
X106274226Y-53881425D01*
X106321845Y-53833806D01*
X106417083Y-53786187D01*
X106607559Y-53738568D01*
X106702797Y-53690949D01*
X106750416Y-53643330D01*
X106798035Y-53548092D01*
X106798035Y-53452854D01*
X106750416Y-53357616D01*
X106702797Y-53309997D01*
X106607559Y-53262377D01*
X106369464Y-53262377D01*
X106226607Y-53309997D01*
X105226607Y-54167139D02*
X105274226Y-54214758D01*
X105417083Y-54262377D01*
X105512321Y-54262377D01*
X105655178Y-54214758D01*
X105750416Y-54119520D01*
X105798035Y-54024282D01*
X105845654Y-53833806D01*
X105845654Y-53690949D01*
X105798035Y-53500473D01*
X105750416Y-53405235D01*
X105655178Y-53309997D01*
X105512321Y-53262377D01*
X105417083Y-53262377D01*
X105274226Y-53309997D01*
X105226607Y-53357616D01*
X104321845Y-54262377D02*
X104798035Y-54262377D01*
X104798035Y-53262377D01*
X106798035Y-56754758D02*
X106655178Y-56802377D01*
X106417083Y-56802377D01*
X106321845Y-56754758D01*
X106274226Y-56707139D01*
X106226607Y-56611901D01*
X106226607Y-56516663D01*
X106274226Y-56421425D01*
X106321845Y-56373806D01*
X106417083Y-56326187D01*
X106607559Y-56278568D01*
X106702797Y-56230949D01*
X106750416Y-56183330D01*
X106798035Y-56088092D01*
X106798035Y-55992854D01*
X106750416Y-55897616D01*
X106702797Y-55849997D01*
X106607559Y-55802377D01*
X106369464Y-55802377D01*
X106226607Y-55849997D01*
X105798035Y-56802377D02*
X105798035Y-55802377D01*
X105559940Y-55802377D01*
X105417083Y-55849997D01*
X105321845Y-55945235D01*
X105274226Y-56040473D01*
X105226607Y-56230949D01*
X105226607Y-56373806D01*
X105274226Y-56564282D01*
X105321845Y-56659520D01*
X105417083Y-56754758D01*
X105559940Y-56802377D01*
X105798035Y-56802377D01*
X104845654Y-56516663D02*
X104369464Y-56516663D01*
X104940892Y-56802377D02*
X104607559Y-55802377D01*
X104274226Y-56802377D01*
X106226607Y-58389997D02*
X106321845Y-58342377D01*
X106464702Y-58342377D01*
X106607559Y-58389997D01*
X106702797Y-58485235D01*
X106750416Y-58580473D01*
X106798035Y-58770949D01*
X106798035Y-58913806D01*
X106750416Y-59104282D01*
X106702797Y-59199520D01*
X106607559Y-59294758D01*
X106464702Y-59342377D01*
X106369464Y-59342377D01*
X106226607Y-59294758D01*
X106178988Y-59247139D01*
X106178988Y-58913806D01*
X106369464Y-58913806D01*
X105750416Y-59342377D02*
X105750416Y-58342377D01*
X105369464Y-58342377D01*
X105274226Y-58389997D01*
X105226607Y-58437616D01*
X105178988Y-58532854D01*
X105178988Y-58675711D01*
X105226607Y-58770949D01*
X105274226Y-58818568D01*
X105369464Y-58866187D01*
X105750416Y-58866187D01*
X104845654Y-58342377D02*
X104226607Y-58342377D01*
X104559940Y-58723330D01*
X104417083Y-58723330D01*
X104321845Y-58770949D01*
X104274226Y-58818568D01*
X104226607Y-58913806D01*
X104226607Y-59151901D01*
X104274226Y-59247139D01*
X104321845Y-59294758D01*
X104417083Y-59342377D01*
X104702797Y-59342377D01*
X104798035Y-59294758D01*
X104845654Y-59247139D01*
X106226607Y-48229997D02*
X106321845Y-48182377D01*
X106464702Y-48182377D01*
X106607559Y-48229997D01*
X106702797Y-48325235D01*
X106750416Y-48420473D01*
X106798035Y-48610949D01*
X106798035Y-48753806D01*
X106750416Y-48944282D01*
X106702797Y-49039520D01*
X106607559Y-49134758D01*
X106464702Y-49182377D01*
X106369464Y-49182377D01*
X106226607Y-49134758D01*
X106178988Y-49087139D01*
X106178988Y-48753806D01*
X106369464Y-48753806D01*
X105750416Y-49182377D02*
X105750416Y-48182377D01*
X105178988Y-49182377D01*
X105178988Y-48182377D01*
X104702797Y-49182377D02*
X104702797Y-48182377D01*
X104464702Y-48182377D01*
X104321845Y-48229997D01*
X104226607Y-48325235D01*
X104178988Y-48420473D01*
X104131369Y-48610949D01*
X104131369Y-48753806D01*
X104178988Y-48944282D01*
X104226607Y-49039520D01*
X104321845Y-49134758D01*
X104464702Y-49182377D01*
X104702797Y-49182377D01*
X103386678Y-55089377D02*
X103386678Y-54089377D01*
X103053345Y-54803663D01*
X102720012Y-54089377D01*
X102720012Y-55089377D01*
X101672392Y-54994139D02*
X101720012Y-55041758D01*
X101862869Y-55089377D01*
X101958107Y-55089377D01*
X102100964Y-55041758D01*
X102196202Y-54946520D01*
X102243821Y-54851282D01*
X102291440Y-54660806D01*
X102291440Y-54517949D01*
X102243821Y-54327473D01*
X102196202Y-54232235D01*
X102100964Y-54136997D01*
X101958107Y-54089377D01*
X101862869Y-54089377D01*
X101720012Y-54136997D01*
X101672392Y-54184616D01*
X101243821Y-55089377D02*
X101243821Y-54089377D01*
X100862869Y-54089377D01*
X100767631Y-54136997D01*
X100720012Y-54184616D01*
X100672392Y-54279854D01*
X100672392Y-54422711D01*
X100720012Y-54517949D01*
X100767631Y-54565568D01*
X100862869Y-54613187D01*
X101243821Y-54613187D01*
X100291440Y-54184616D02*
X100243821Y-54136997D01*
X100148583Y-54089377D01*
X99910488Y-54089377D01*
X99815250Y-54136997D01*
X99767631Y-54184616D01*
X99720012Y-54279854D01*
X99720012Y-54375092D01*
X99767631Y-54517949D01*
X100339059Y-55089377D01*
X99720012Y-55089377D01*
X99339059Y-54184616D02*
X99291440Y-54136997D01*
X99196202Y-54089377D01*
X98958107Y-54089377D01*
X98862869Y-54136997D01*
X98815250Y-54184616D01*
X98767631Y-54279854D01*
X98767631Y-54375092D01*
X98815250Y-54517949D01*
X99386678Y-55089377D01*
X98767631Y-55089377D01*
X98386678Y-54184616D02*
X98339059Y-54136997D01*
X98243821Y-54089377D01*
X98005726Y-54089377D01*
X97910488Y-54136997D01*
X97862869Y-54184616D01*
X97815250Y-54279854D01*
X97815250Y-54375092D01*
X97862869Y-54517949D01*
X98434297Y-55089377D01*
X97815250Y-55089377D01*
X96862869Y-55089377D02*
X97434297Y-55089377D01*
X97148583Y-55089377D02*
X97148583Y-54089377D01*
X97243821Y-54232235D01*
X97339059Y-54327473D01*
X97434297Y-54375092D01*
X96481916Y-54803663D02*
X96005726Y-54803663D01*
X96577154Y-55089377D02*
X96243821Y-54089377D01*
X95910488Y-55089377D01*
X102434297Y-56215568D02*
X102291440Y-56263187D01*
X102243821Y-56310806D01*
X102196202Y-56406044D01*
X102196202Y-56548901D01*
X102243821Y-56644139D01*
X102291440Y-56691758D01*
X102386678Y-56739377D01*
X102767631Y-56739377D01*
X102767631Y-55739377D01*
X102434297Y-55739377D01*
X102339059Y-55786997D01*
X102291440Y-55834616D01*
X102243821Y-55929854D01*
X102243821Y-56025092D01*
X102291440Y-56120330D01*
X102339059Y-56167949D01*
X102434297Y-56215568D01*
X102767631Y-56215568D01*
X101767631Y-56739377D02*
X101767631Y-56072711D01*
X101767631Y-56263187D02*
X101720012Y-56167949D01*
X101672392Y-56120330D01*
X101577154Y-56072711D01*
X101481916Y-56072711D01*
X100767631Y-56691758D02*
X100862869Y-56739377D01*
X101053345Y-56739377D01*
X101148583Y-56691758D01*
X101196202Y-56596520D01*
X101196202Y-56215568D01*
X101148583Y-56120330D01*
X101053345Y-56072711D01*
X100862869Y-56072711D01*
X100767631Y-56120330D01*
X100720012Y-56215568D01*
X100720012Y-56310806D01*
X101196202Y-56406044D01*
X99862869Y-56739377D02*
X99862869Y-56215568D01*
X99910488Y-56120330D01*
X100005726Y-56072711D01*
X100196202Y-56072711D01*
X100291440Y-56120330D01*
X99862869Y-56691758D02*
X99958107Y-56739377D01*
X100196202Y-56739377D01*
X100291440Y-56691758D01*
X100339059Y-56596520D01*
X100339059Y-56501282D01*
X100291440Y-56406044D01*
X100196202Y-56358425D01*
X99958107Y-56358425D01*
X99862869Y-56310806D01*
X99386678Y-56739377D02*
X99386678Y-55739377D01*
X99291440Y-56358425D02*
X99005726Y-56739377D01*
X99005726Y-56072711D02*
X99386678Y-56453663D01*
X98434297Y-56739377D02*
X98529535Y-56691758D01*
X98577154Y-56644139D01*
X98624773Y-56548901D01*
X98624773Y-56263187D01*
X98577154Y-56167949D01*
X98529535Y-56120330D01*
X98434297Y-56072711D01*
X98291440Y-56072711D01*
X98196202Y-56120330D01*
X98148583Y-56167949D01*
X98100964Y-56263187D01*
X98100964Y-56548901D01*
X98148583Y-56644139D01*
X98196202Y-56691758D01*
X98291440Y-56739377D01*
X98434297Y-56739377D01*
X97243821Y-56072711D02*
X97243821Y-56739377D01*
X97672392Y-56072711D02*
X97672392Y-56596520D01*
X97624773Y-56691758D01*
X97529535Y-56739377D01*
X97386678Y-56739377D01*
X97291440Y-56691758D01*
X97243821Y-56644139D01*
X96910488Y-56072711D02*
X96529535Y-56072711D01*
X96767631Y-55739377D02*
X96767631Y-56596520D01*
X96720012Y-56691758D01*
X96624773Y-56739377D01*
X96529535Y-56739377D01*
X101934297Y-57389377D02*
X101362869Y-57389377D01*
X101648583Y-58389377D02*
X101648583Y-57389377D01*
X100696202Y-57865568D02*
X100553345Y-57913187D01*
X100505726Y-57960806D01*
X100458107Y-58056044D01*
X100458107Y-58198901D01*
X100505726Y-58294139D01*
X100553345Y-58341758D01*
X100648583Y-58389377D01*
X101029535Y-58389377D01*
X101029535Y-57389377D01*
X100696202Y-57389377D01*
X100600964Y-57436997D01*
X100553345Y-57484616D01*
X100505726Y-57579854D01*
X100505726Y-57675092D01*
X100553345Y-57770330D01*
X100600964Y-57817949D01*
X100696202Y-57865568D01*
X101029535Y-57865568D01*
X99600964Y-57722711D02*
X99600964Y-58389377D01*
X99839059Y-57341758D02*
X100077154Y-58056044D01*
X99458107Y-58056044D01*
X98886678Y-57389377D02*
X98791440Y-57389377D01*
X98696202Y-57436997D01*
X98648583Y-57484616D01*
X98600964Y-57579854D01*
X98553345Y-57770330D01*
X98553345Y-58008425D01*
X98600964Y-58198901D01*
X98648583Y-58294139D01*
X98696202Y-58341758D01*
X98791440Y-58389377D01*
X98886678Y-58389377D01*
X98981916Y-58341758D01*
X99029535Y-58294139D01*
X99077154Y-58198901D01*
X99124773Y-58008425D01*
X99124773Y-57770330D01*
X99077154Y-57579854D01*
X99029535Y-57484616D01*
X98981916Y-57436997D01*
X98886678Y-57389377D01*
X98220012Y-57389377D02*
X97600964Y-57389377D01*
X97934297Y-57770330D01*
X97791440Y-57770330D01*
X97696202Y-57817949D01*
X97648583Y-57865568D01*
X97600964Y-57960806D01*
X97600964Y-58198901D01*
X97648583Y-58294139D01*
X97696202Y-58341758D01*
X97791440Y-58389377D01*
X98077154Y-58389377D01*
X98172392Y-58341758D01*
X98220012Y-58294139D01*
X103339059Y-59134616D02*
X103291440Y-59086997D01*
X103196202Y-59039377D01*
X102958107Y-59039377D01*
X102862869Y-59086997D01*
X102815250Y-59134616D01*
X102767631Y-59229854D01*
X102767631Y-59325092D01*
X102815250Y-59467949D01*
X103386678Y-60039377D01*
X102767631Y-60039377D01*
X102148583Y-59039377D02*
X102053345Y-59039377D01*
X101958107Y-59086997D01*
X101910488Y-59134616D01*
X101862869Y-59229854D01*
X101815250Y-59420330D01*
X101815250Y-59658425D01*
X101862869Y-59848901D01*
X101910488Y-59944139D01*
X101958107Y-59991758D01*
X102053345Y-60039377D01*
X102148583Y-60039377D01*
X102243821Y-59991758D01*
X102291440Y-59944139D01*
X102339059Y-59848901D01*
X102386678Y-59658425D01*
X102386678Y-59420330D01*
X102339059Y-59229854D01*
X102291440Y-59134616D01*
X102243821Y-59086997D01*
X102148583Y-59039377D01*
X101434297Y-59134616D02*
X101386678Y-59086997D01*
X101291440Y-59039377D01*
X101053345Y-59039377D01*
X100958107Y-59086997D01*
X100910488Y-59134616D01*
X100862869Y-59229854D01*
X100862869Y-59325092D01*
X100910488Y-59467949D01*
X101481916Y-60039377D01*
X100862869Y-60039377D01*
X99910488Y-60039377D02*
X100481916Y-60039377D01*
X100196202Y-60039377D02*
X100196202Y-59039377D01*
X100291440Y-59182235D01*
X100386678Y-59277473D01*
X100481916Y-59325092D01*
X99291440Y-59039377D02*
X99196202Y-59039377D01*
X99100964Y-59086997D01*
X99053345Y-59134616D01*
X99005726Y-59229854D01*
X98958107Y-59420330D01*
X98958107Y-59658425D01*
X99005726Y-59848901D01*
X99053345Y-59944139D01*
X99100964Y-59991758D01*
X99196202Y-60039377D01*
X99291440Y-60039377D01*
X99386678Y-59991758D01*
X99434297Y-59944139D01*
X99481916Y-59848901D01*
X99529535Y-59658425D01*
X99529535Y-59420330D01*
X99481916Y-59229854D01*
X99434297Y-59134616D01*
X99386678Y-59086997D01*
X99291440Y-59039377D01*
X98624773Y-59039377D02*
X97958107Y-59039377D01*
X98386678Y-60039377D01*
X97053345Y-60039377D02*
X97624773Y-60039377D01*
X97339059Y-60039377D02*
X97339059Y-59039377D01*
X97434297Y-59182235D01*
X97529535Y-59277473D01*
X97624773Y-59325092D01*
X96196202Y-59039377D02*
X96386678Y-59039377D01*
X96481916Y-59086997D01*
X96529535Y-59134616D01*
X96624773Y-59277473D01*
X96672392Y-59467949D01*
X96672392Y-59848901D01*
X96624773Y-59944139D01*
X96577154Y-59991758D01*
X96481916Y-60039377D01*
X96291440Y-60039377D01*
X96196202Y-59991758D01*
X96148583Y-59944139D01*
X96100964Y-59848901D01*
X96100964Y-59610806D01*
X96148583Y-59515568D01*
X96196202Y-59467949D01*
X96291440Y-59420330D01*
X96481916Y-59420330D01*
X96577154Y-59467949D01*
X96624773Y-59515568D01*
X96672392Y-59610806D01*
X106893273Y-45642377D02*
X106559940Y-46642377D01*
X106226607Y-45642377D01*
X105559940Y-46118568D02*
X105417083Y-46166187D01*
X105369464Y-46213806D01*
X105321845Y-46309044D01*
X105321845Y-46451901D01*
X105369464Y-46547139D01*
X105417083Y-46594758D01*
X105512321Y-46642377D01*
X105893273Y-46642377D01*
X105893273Y-45642377D01*
X105559940Y-45642377D01*
X105464702Y-45689997D01*
X105417083Y-45737616D01*
X105369464Y-45832854D01*
X105369464Y-45928092D01*
X105417083Y-46023330D01*
X105464702Y-46070949D01*
X105559940Y-46118568D01*
X105893273Y-46118568D01*
X104893273Y-45642377D02*
X104893273Y-46451901D01*
X104845654Y-46547139D01*
X104798035Y-46594758D01*
X104702797Y-46642377D01*
X104512321Y-46642377D01*
X104417083Y-46594758D01*
X104369464Y-46547139D01*
X104321845Y-46451901D01*
X104321845Y-45642377D01*
D11*
X107280012Y-44859997D02*
X103784012Y-44859997D01*
X103784012Y-44859997D02*
X103784012Y-60219997D01*
X103784012Y-60219997D02*
X107280012Y-60219997D01*
X92160012Y-60219997D02*
X95656012Y-60219997D01*
X92160012Y-44859997D02*
X95656012Y-44859997D01*
X95656012Y-44859997D02*
X95656012Y-60219997D01*
D10*
X69781981Y-45689997D02*
X69877219Y-45642377D01*
X70020076Y-45642377D01*
X70162933Y-45689997D01*
X70258171Y-45785235D01*
X70305790Y-45880473D01*
X70353409Y-46070949D01*
X70353409Y-46213806D01*
X70305790Y-46404282D01*
X70258171Y-46499520D01*
X70162933Y-46594758D01*
X70020076Y-46642377D01*
X69924838Y-46642377D01*
X69781981Y-46594758D01*
X69734362Y-46547139D01*
X69734362Y-46213806D01*
X69924838Y-46213806D01*
X69305790Y-46642377D02*
X69305790Y-45642377D01*
X68924838Y-45642377D01*
X68829600Y-45689997D01*
X68781981Y-45737616D01*
X68734362Y-45832854D01*
X68734362Y-45975711D01*
X68781981Y-46070949D01*
X68829600Y-46118568D01*
X68924838Y-46166187D01*
X69305790Y-46166187D01*
X68115314Y-45642377D02*
X68020076Y-45642377D01*
X67924838Y-45689997D01*
X67877219Y-45737616D01*
X67829600Y-45832854D01*
X67781981Y-46023330D01*
X67781981Y-46261425D01*
X67829600Y-46451901D01*
X67877219Y-46547139D01*
X67924838Y-46594758D01*
X68020076Y-46642377D01*
X68115314Y-46642377D01*
X68210552Y-46594758D01*
X68258171Y-46547139D01*
X68305790Y-46451901D01*
X68353409Y-46261425D01*
X68353409Y-46023330D01*
X68305790Y-45832854D01*
X68258171Y-45737616D01*
X68210552Y-45689997D01*
X68115314Y-45642377D01*
X69781981Y-48229997D02*
X69877219Y-48182377D01*
X70020076Y-48182377D01*
X70162933Y-48229997D01*
X70258171Y-48325235D01*
X70305790Y-48420473D01*
X70353409Y-48610949D01*
X70353409Y-48753806D01*
X70305790Y-48944282D01*
X70258171Y-49039520D01*
X70162933Y-49134758D01*
X70020076Y-49182377D01*
X69924838Y-49182377D01*
X69781981Y-49134758D01*
X69734362Y-49087139D01*
X69734362Y-48753806D01*
X69924838Y-48753806D01*
X69305790Y-49182377D02*
X69305790Y-48182377D01*
X68924838Y-48182377D01*
X68829600Y-48229997D01*
X68781981Y-48277616D01*
X68734362Y-48372854D01*
X68734362Y-48515711D01*
X68781981Y-48610949D01*
X68829600Y-48658568D01*
X68924838Y-48706187D01*
X69305790Y-48706187D01*
X67781981Y-49182377D02*
X68353409Y-49182377D01*
X68067695Y-49182377D02*
X68067695Y-48182377D01*
X68162933Y-48325235D01*
X68258171Y-48420473D01*
X68353409Y-48468092D01*
X70305790Y-50354997D02*
X69305790Y-50354997D01*
X69496266Y-51722377D02*
X69829600Y-51246187D01*
X70067695Y-51722377D02*
X70067695Y-50722377D01*
X69686743Y-50722377D01*
X69591505Y-50769997D01*
X69543885Y-50817616D01*
X69496266Y-50912854D01*
X69496266Y-51055711D01*
X69543885Y-51150949D01*
X69591505Y-51198568D01*
X69686743Y-51246187D01*
X70067695Y-51246187D01*
X69305790Y-50354997D02*
X68353409Y-50354997D01*
X69115314Y-51674758D02*
X68972457Y-51722377D01*
X68734362Y-51722377D01*
X68639124Y-51674758D01*
X68591505Y-51627139D01*
X68543885Y-51531901D01*
X68543885Y-51436663D01*
X68591505Y-51341425D01*
X68639124Y-51293806D01*
X68734362Y-51246187D01*
X68924838Y-51198568D01*
X69020076Y-51150949D01*
X69067695Y-51103330D01*
X69115314Y-51008092D01*
X69115314Y-50912854D01*
X69067695Y-50817616D01*
X69020076Y-50769997D01*
X68924838Y-50722377D01*
X68686743Y-50722377D01*
X68543885Y-50769997D01*
X68353409Y-50354997D02*
X67591505Y-50354997D01*
X68258171Y-50722377D02*
X67686743Y-50722377D01*
X67972457Y-51722377D02*
X67972457Y-50722377D01*
X68591505Y-54262377D02*
X68924838Y-53786187D01*
X69162933Y-54262377D02*
X69162933Y-53262377D01*
X68781981Y-53262377D01*
X68686743Y-53309997D01*
X68639124Y-53357616D01*
X68591505Y-53452854D01*
X68591505Y-53595711D01*
X68639124Y-53690949D01*
X68686743Y-53738568D01*
X68781981Y-53786187D01*
X69162933Y-53786187D01*
X68258171Y-54262377D02*
X67734362Y-53595711D01*
X68258171Y-53595711D02*
X67734362Y-54262377D01*
X69067695Y-55802377D02*
X68496266Y-55802377D01*
X68781981Y-56802377D02*
X68781981Y-55802377D01*
X68258171Y-56802377D02*
X67734362Y-56135711D01*
X68258171Y-56135711D02*
X67734362Y-56802377D01*
X69781981Y-58389997D02*
X69877219Y-58342377D01*
X70020076Y-58342377D01*
X70162933Y-58389997D01*
X70258171Y-58485235D01*
X70305790Y-58580473D01*
X70353409Y-58770949D01*
X70353409Y-58913806D01*
X70305790Y-59104282D01*
X70258171Y-59199520D01*
X70162933Y-59294758D01*
X70020076Y-59342377D01*
X69924838Y-59342377D01*
X69781981Y-59294758D01*
X69734362Y-59247139D01*
X69734362Y-58913806D01*
X69924838Y-58913806D01*
X69305790Y-59342377D02*
X69305790Y-58342377D01*
X68924838Y-58342377D01*
X68829600Y-58389997D01*
X68781981Y-58437616D01*
X68734362Y-58532854D01*
X68734362Y-58675711D01*
X68781981Y-58770949D01*
X68829600Y-58818568D01*
X68924838Y-58866187D01*
X69305790Y-58866187D01*
X68353409Y-58437616D02*
X68305790Y-58389997D01*
X68210552Y-58342377D01*
X67972457Y-58342377D01*
X67877219Y-58389997D01*
X67829600Y-58437616D01*
X67781981Y-58532854D01*
X67781981Y-58628092D01*
X67829600Y-58770949D01*
X68401028Y-59342377D01*
X67781981Y-59342377D01*
X82033266Y-50722377D02*
X81699933Y-51722377D01*
X81366600Y-50722377D01*
X81033266Y-51722377D02*
X81033266Y-50722377D01*
X80795171Y-50722377D01*
X80652314Y-50769997D01*
X80557076Y-50865235D01*
X80509457Y-50960473D01*
X80461838Y-51150949D01*
X80461838Y-51293806D01*
X80509457Y-51484282D01*
X80557076Y-51579520D01*
X80652314Y-51674758D01*
X80795171Y-51722377D01*
X81033266Y-51722377D01*
X80033266Y-51722377D02*
X80033266Y-50722377D01*
X79795171Y-50722377D01*
X79652314Y-50769997D01*
X79557076Y-50865235D01*
X79509457Y-50960473D01*
X79461838Y-51150949D01*
X79461838Y-51293806D01*
X79509457Y-51484282D01*
X79557076Y-51579520D01*
X79652314Y-51674758D01*
X79795171Y-51722377D01*
X80033266Y-51722377D01*
X81938028Y-54214758D02*
X81795171Y-54262377D01*
X81557076Y-54262377D01*
X81461838Y-54214758D01*
X81414219Y-54167139D01*
X81366600Y-54071901D01*
X81366600Y-53976663D01*
X81414219Y-53881425D01*
X81461838Y-53833806D01*
X81557076Y-53786187D01*
X81747552Y-53738568D01*
X81842790Y-53690949D01*
X81890409Y-53643330D01*
X81938028Y-53548092D01*
X81938028Y-53452854D01*
X81890409Y-53357616D01*
X81842790Y-53309997D01*
X81747552Y-53262377D01*
X81509457Y-53262377D01*
X81366600Y-53309997D01*
X80366600Y-54167139D02*
X80414219Y-54214758D01*
X80557076Y-54262377D01*
X80652314Y-54262377D01*
X80795171Y-54214758D01*
X80890409Y-54119520D01*
X80938028Y-54024282D01*
X80985647Y-53833806D01*
X80985647Y-53690949D01*
X80938028Y-53500473D01*
X80890409Y-53405235D01*
X80795171Y-53309997D01*
X80652314Y-53262377D01*
X80557076Y-53262377D01*
X80414219Y-53309997D01*
X80366600Y-53357616D01*
X79461838Y-54262377D02*
X79938028Y-54262377D01*
X79938028Y-53262377D01*
X81938028Y-56754758D02*
X81795171Y-56802377D01*
X81557076Y-56802377D01*
X81461838Y-56754758D01*
X81414219Y-56707139D01*
X81366600Y-56611901D01*
X81366600Y-56516663D01*
X81414219Y-56421425D01*
X81461838Y-56373806D01*
X81557076Y-56326187D01*
X81747552Y-56278568D01*
X81842790Y-56230949D01*
X81890409Y-56183330D01*
X81938028Y-56088092D01*
X81938028Y-55992854D01*
X81890409Y-55897616D01*
X81842790Y-55849997D01*
X81747552Y-55802377D01*
X81509457Y-55802377D01*
X81366600Y-55849997D01*
X80938028Y-56802377D02*
X80938028Y-55802377D01*
X80699933Y-55802377D01*
X80557076Y-55849997D01*
X80461838Y-55945235D01*
X80414219Y-56040473D01*
X80366600Y-56230949D01*
X80366600Y-56373806D01*
X80414219Y-56564282D01*
X80461838Y-56659520D01*
X80557076Y-56754758D01*
X80699933Y-56802377D01*
X80938028Y-56802377D01*
X79985647Y-56516663D02*
X79509457Y-56516663D01*
X80080885Y-56802377D02*
X79747552Y-55802377D01*
X79414219Y-56802377D01*
X81366600Y-58389997D02*
X81461838Y-58342377D01*
X81604695Y-58342377D01*
X81747552Y-58389997D01*
X81842790Y-58485235D01*
X81890409Y-58580473D01*
X81938028Y-58770949D01*
X81938028Y-58913806D01*
X81890409Y-59104282D01*
X81842790Y-59199520D01*
X81747552Y-59294758D01*
X81604695Y-59342377D01*
X81509457Y-59342377D01*
X81366600Y-59294758D01*
X81318981Y-59247139D01*
X81318981Y-58913806D01*
X81509457Y-58913806D01*
X80890409Y-59342377D02*
X80890409Y-58342377D01*
X80509457Y-58342377D01*
X80414219Y-58389997D01*
X80366600Y-58437616D01*
X80318981Y-58532854D01*
X80318981Y-58675711D01*
X80366600Y-58770949D01*
X80414219Y-58818568D01*
X80509457Y-58866187D01*
X80890409Y-58866187D01*
X79985647Y-58342377D02*
X79366600Y-58342377D01*
X79699933Y-58723330D01*
X79557076Y-58723330D01*
X79461838Y-58770949D01*
X79414219Y-58818568D01*
X79366600Y-58913806D01*
X79366600Y-59151901D01*
X79414219Y-59247139D01*
X79461838Y-59294758D01*
X79557076Y-59342377D01*
X79842790Y-59342377D01*
X79938028Y-59294758D01*
X79985647Y-59247139D01*
X81366600Y-48229997D02*
X81461838Y-48182377D01*
X81604695Y-48182377D01*
X81747552Y-48229997D01*
X81842790Y-48325235D01*
X81890409Y-48420473D01*
X81938028Y-48610949D01*
X81938028Y-48753806D01*
X81890409Y-48944282D01*
X81842790Y-49039520D01*
X81747552Y-49134758D01*
X81604695Y-49182377D01*
X81509457Y-49182377D01*
X81366600Y-49134758D01*
X81318981Y-49087139D01*
X81318981Y-48753806D01*
X81509457Y-48753806D01*
X80890409Y-49182377D02*
X80890409Y-48182377D01*
X80318981Y-49182377D01*
X80318981Y-48182377D01*
X79842790Y-49182377D02*
X79842790Y-48182377D01*
X79604695Y-48182377D01*
X79461838Y-48229997D01*
X79366600Y-48325235D01*
X79318981Y-48420473D01*
X79271362Y-48610949D01*
X79271362Y-48753806D01*
X79318981Y-48944282D01*
X79366600Y-49039520D01*
X79461838Y-49134758D01*
X79604695Y-49182377D01*
X79842790Y-49182377D01*
X78526671Y-55089377D02*
X78526671Y-54089377D01*
X78193338Y-54803663D01*
X77860005Y-54089377D01*
X77860005Y-55089377D01*
X76812385Y-54994139D02*
X76860005Y-55041758D01*
X77002862Y-55089377D01*
X77098100Y-55089377D01*
X77240957Y-55041758D01*
X77336195Y-54946520D01*
X77383814Y-54851282D01*
X77431433Y-54660806D01*
X77431433Y-54517949D01*
X77383814Y-54327473D01*
X77336195Y-54232235D01*
X77240957Y-54136997D01*
X77098100Y-54089377D01*
X77002862Y-54089377D01*
X76860005Y-54136997D01*
X76812385Y-54184616D01*
X76383814Y-55089377D02*
X76383814Y-54089377D01*
X76002862Y-54089377D01*
X75907624Y-54136997D01*
X75860005Y-54184616D01*
X75812385Y-54279854D01*
X75812385Y-54422711D01*
X75860005Y-54517949D01*
X75907624Y-54565568D01*
X76002862Y-54613187D01*
X76383814Y-54613187D01*
X75431433Y-54184616D02*
X75383814Y-54136997D01*
X75288576Y-54089377D01*
X75050481Y-54089377D01*
X74955243Y-54136997D01*
X74907624Y-54184616D01*
X74860005Y-54279854D01*
X74860005Y-54375092D01*
X74907624Y-54517949D01*
X75479052Y-55089377D01*
X74860005Y-55089377D01*
X74479052Y-54184616D02*
X74431433Y-54136997D01*
X74336195Y-54089377D01*
X74098100Y-54089377D01*
X74002862Y-54136997D01*
X73955243Y-54184616D01*
X73907624Y-54279854D01*
X73907624Y-54375092D01*
X73955243Y-54517949D01*
X74526671Y-55089377D01*
X73907624Y-55089377D01*
X73526671Y-54184616D02*
X73479052Y-54136997D01*
X73383814Y-54089377D01*
X73145719Y-54089377D01*
X73050481Y-54136997D01*
X73002862Y-54184616D01*
X72955243Y-54279854D01*
X72955243Y-54375092D01*
X73002862Y-54517949D01*
X73574290Y-55089377D01*
X72955243Y-55089377D01*
X72002862Y-55089377D02*
X72574290Y-55089377D01*
X72288576Y-55089377D02*
X72288576Y-54089377D01*
X72383814Y-54232235D01*
X72479052Y-54327473D01*
X72574290Y-54375092D01*
X71621909Y-54803663D02*
X71145719Y-54803663D01*
X71717147Y-55089377D02*
X71383814Y-54089377D01*
X71050481Y-55089377D01*
X77574290Y-56215568D02*
X77431433Y-56263187D01*
X77383814Y-56310806D01*
X77336195Y-56406044D01*
X77336195Y-56548901D01*
X77383814Y-56644139D01*
X77431433Y-56691758D01*
X77526671Y-56739377D01*
X77907624Y-56739377D01*
X77907624Y-55739377D01*
X77574290Y-55739377D01*
X77479052Y-55786997D01*
X77431433Y-55834616D01*
X77383814Y-55929854D01*
X77383814Y-56025092D01*
X77431433Y-56120330D01*
X77479052Y-56167949D01*
X77574290Y-56215568D01*
X77907624Y-56215568D01*
X76907624Y-56739377D02*
X76907624Y-56072711D01*
X76907624Y-56263187D02*
X76860005Y-56167949D01*
X76812385Y-56120330D01*
X76717147Y-56072711D01*
X76621909Y-56072711D01*
X75907624Y-56691758D02*
X76002862Y-56739377D01*
X76193338Y-56739377D01*
X76288576Y-56691758D01*
X76336195Y-56596520D01*
X76336195Y-56215568D01*
X76288576Y-56120330D01*
X76193338Y-56072711D01*
X76002862Y-56072711D01*
X75907624Y-56120330D01*
X75860005Y-56215568D01*
X75860005Y-56310806D01*
X76336195Y-56406044D01*
X75002862Y-56739377D02*
X75002862Y-56215568D01*
X75050481Y-56120330D01*
X75145719Y-56072711D01*
X75336195Y-56072711D01*
X75431433Y-56120330D01*
X75002862Y-56691758D02*
X75098100Y-56739377D01*
X75336195Y-56739377D01*
X75431433Y-56691758D01*
X75479052Y-56596520D01*
X75479052Y-56501282D01*
X75431433Y-56406044D01*
X75336195Y-56358425D01*
X75098100Y-56358425D01*
X75002862Y-56310806D01*
X74526671Y-56739377D02*
X74526671Y-55739377D01*
X74431433Y-56358425D02*
X74145719Y-56739377D01*
X74145719Y-56072711D02*
X74526671Y-56453663D01*
X73574290Y-56739377D02*
X73669528Y-56691758D01*
X73717147Y-56644139D01*
X73764766Y-56548901D01*
X73764766Y-56263187D01*
X73717147Y-56167949D01*
X73669528Y-56120330D01*
X73574290Y-56072711D01*
X73431433Y-56072711D01*
X73336195Y-56120330D01*
X73288576Y-56167949D01*
X73240957Y-56263187D01*
X73240957Y-56548901D01*
X73288576Y-56644139D01*
X73336195Y-56691758D01*
X73431433Y-56739377D01*
X73574290Y-56739377D01*
X72383814Y-56072711D02*
X72383814Y-56739377D01*
X72812385Y-56072711D02*
X72812385Y-56596520D01*
X72764766Y-56691758D01*
X72669528Y-56739377D01*
X72526671Y-56739377D01*
X72431433Y-56691758D01*
X72383814Y-56644139D01*
X72050481Y-56072711D02*
X71669528Y-56072711D01*
X71907624Y-55739377D02*
X71907624Y-56596520D01*
X71860005Y-56691758D01*
X71764766Y-56739377D01*
X71669528Y-56739377D01*
X77074290Y-57389377D02*
X76502862Y-57389377D01*
X76788576Y-58389377D02*
X76788576Y-57389377D01*
X75836195Y-57865568D02*
X75693338Y-57913187D01*
X75645719Y-57960806D01*
X75598100Y-58056044D01*
X75598100Y-58198901D01*
X75645719Y-58294139D01*
X75693338Y-58341758D01*
X75788576Y-58389377D01*
X76169528Y-58389377D01*
X76169528Y-57389377D01*
X75836195Y-57389377D01*
X75740957Y-57436997D01*
X75693338Y-57484616D01*
X75645719Y-57579854D01*
X75645719Y-57675092D01*
X75693338Y-57770330D01*
X75740957Y-57817949D01*
X75836195Y-57865568D01*
X76169528Y-57865568D01*
X74740957Y-57722711D02*
X74740957Y-58389377D01*
X74979052Y-57341758D02*
X75217147Y-58056044D01*
X74598100Y-58056044D01*
X74026671Y-57389377D02*
X73931433Y-57389377D01*
X73836195Y-57436997D01*
X73788576Y-57484616D01*
X73740957Y-57579854D01*
X73693338Y-57770330D01*
X73693338Y-58008425D01*
X73740957Y-58198901D01*
X73788576Y-58294139D01*
X73836195Y-58341758D01*
X73931433Y-58389377D01*
X74026671Y-58389377D01*
X74121909Y-58341758D01*
X74169528Y-58294139D01*
X74217147Y-58198901D01*
X74264766Y-58008425D01*
X74264766Y-57770330D01*
X74217147Y-57579854D01*
X74169528Y-57484616D01*
X74121909Y-57436997D01*
X74026671Y-57389377D01*
X73360005Y-57389377D02*
X72740957Y-57389377D01*
X73074290Y-57770330D01*
X72931433Y-57770330D01*
X72836195Y-57817949D01*
X72788576Y-57865568D01*
X72740957Y-57960806D01*
X72740957Y-58198901D01*
X72788576Y-58294139D01*
X72836195Y-58341758D01*
X72931433Y-58389377D01*
X73217147Y-58389377D01*
X73312385Y-58341758D01*
X73360005Y-58294139D01*
X78479052Y-59134616D02*
X78431433Y-59086997D01*
X78336195Y-59039377D01*
X78098100Y-59039377D01*
X78002862Y-59086997D01*
X77955243Y-59134616D01*
X77907624Y-59229854D01*
X77907624Y-59325092D01*
X77955243Y-59467949D01*
X78526671Y-60039377D01*
X77907624Y-60039377D01*
X77288576Y-59039377D02*
X77193338Y-59039377D01*
X77098100Y-59086997D01*
X77050481Y-59134616D01*
X77002862Y-59229854D01*
X76955243Y-59420330D01*
X76955243Y-59658425D01*
X77002862Y-59848901D01*
X77050481Y-59944139D01*
X77098100Y-59991758D01*
X77193338Y-60039377D01*
X77288576Y-60039377D01*
X77383814Y-59991758D01*
X77431433Y-59944139D01*
X77479052Y-59848901D01*
X77526671Y-59658425D01*
X77526671Y-59420330D01*
X77479052Y-59229854D01*
X77431433Y-59134616D01*
X77383814Y-59086997D01*
X77288576Y-59039377D01*
X76574290Y-59134616D02*
X76526671Y-59086997D01*
X76431433Y-59039377D01*
X76193338Y-59039377D01*
X76098100Y-59086997D01*
X76050481Y-59134616D01*
X76002862Y-59229854D01*
X76002862Y-59325092D01*
X76050481Y-59467949D01*
X76621909Y-60039377D01*
X76002862Y-60039377D01*
X75050481Y-60039377D02*
X75621909Y-60039377D01*
X75336195Y-60039377D02*
X75336195Y-59039377D01*
X75431433Y-59182235D01*
X75526671Y-59277473D01*
X75621909Y-59325092D01*
X74431433Y-59039377D02*
X74336195Y-59039377D01*
X74240957Y-59086997D01*
X74193338Y-59134616D01*
X74145719Y-59229854D01*
X74098100Y-59420330D01*
X74098100Y-59658425D01*
X74145719Y-59848901D01*
X74193338Y-59944139D01*
X74240957Y-59991758D01*
X74336195Y-60039377D01*
X74431433Y-60039377D01*
X74526671Y-59991758D01*
X74574290Y-59944139D01*
X74621909Y-59848901D01*
X74669528Y-59658425D01*
X74669528Y-59420330D01*
X74621909Y-59229854D01*
X74574290Y-59134616D01*
X74526671Y-59086997D01*
X74431433Y-59039377D01*
X73764766Y-59039377D02*
X73098100Y-59039377D01*
X73526671Y-60039377D01*
X72193338Y-60039377D02*
X72764766Y-60039377D01*
X72479052Y-60039377D02*
X72479052Y-59039377D01*
X72574290Y-59182235D01*
X72669528Y-59277473D01*
X72764766Y-59325092D01*
X71336195Y-59039377D02*
X71526671Y-59039377D01*
X71621909Y-59086997D01*
X71669528Y-59134616D01*
X71764766Y-59277473D01*
X71812385Y-59467949D01*
X71812385Y-59848901D01*
X71764766Y-59944139D01*
X71717147Y-59991758D01*
X71621909Y-60039377D01*
X71431433Y-60039377D01*
X71336195Y-59991758D01*
X71288576Y-59944139D01*
X71240957Y-59848901D01*
X71240957Y-59610806D01*
X71288576Y-59515568D01*
X71336195Y-59467949D01*
X71431433Y-59420330D01*
X71621909Y-59420330D01*
X71717147Y-59467949D01*
X71764766Y-59515568D01*
X71812385Y-59610806D01*
X82033266Y-45642377D02*
X81699933Y-46642377D01*
X81366600Y-45642377D01*
X80699933Y-46118568D02*
X80557076Y-46166187D01*
X80509457Y-46213806D01*
X80461838Y-46309044D01*
X80461838Y-46451901D01*
X80509457Y-46547139D01*
X80557076Y-46594758D01*
X80652314Y-46642377D01*
X81033266Y-46642377D01*
X81033266Y-45642377D01*
X80699933Y-45642377D01*
X80604695Y-45689997D01*
X80557076Y-45737616D01*
X80509457Y-45832854D01*
X80509457Y-45928092D01*
X80557076Y-46023330D01*
X80604695Y-46070949D01*
X80699933Y-46118568D01*
X81033266Y-46118568D01*
X80033266Y-45642377D02*
X80033266Y-46451901D01*
X79985647Y-46547139D01*
X79938028Y-46594758D01*
X79842790Y-46642377D01*
X79652314Y-46642377D01*
X79557076Y-46594758D01*
X79509457Y-46547139D01*
X79461838Y-46451901D01*
X79461838Y-45642377D01*
D11*
X82420005Y-44859997D02*
X78924005Y-44859997D01*
X78924005Y-44859997D02*
X78924005Y-60219997D01*
X78924005Y-60219997D02*
X82420005Y-60219997D01*
X67300005Y-60219997D02*
X70796005Y-60219997D01*
X67300005Y-44859997D02*
X70796005Y-44859997D01*
X70796005Y-44859997D02*
X70796005Y-60219997D01*
D10*
X44921974Y-45689997D02*
X45017212Y-45642377D01*
X45160069Y-45642377D01*
X45302926Y-45689997D01*
X45398164Y-45785235D01*
X45445783Y-45880473D01*
X45493402Y-46070949D01*
X45493402Y-46213806D01*
X45445783Y-46404282D01*
X45398164Y-46499520D01*
X45302926Y-46594758D01*
X45160069Y-46642377D01*
X45064831Y-46642377D01*
X44921974Y-46594758D01*
X44874355Y-46547139D01*
X44874355Y-46213806D01*
X45064831Y-46213806D01*
X44445783Y-46642377D02*
X44445783Y-45642377D01*
X44064831Y-45642377D01*
X43969593Y-45689997D01*
X43921974Y-45737616D01*
X43874355Y-45832854D01*
X43874355Y-45975711D01*
X43921974Y-46070949D01*
X43969593Y-46118568D01*
X44064831Y-46166187D01*
X44445783Y-46166187D01*
X43255307Y-45642377D02*
X43160069Y-45642377D01*
X43064831Y-45689997D01*
X43017212Y-45737616D01*
X42969593Y-45832854D01*
X42921974Y-46023330D01*
X42921974Y-46261425D01*
X42969593Y-46451901D01*
X43017212Y-46547139D01*
X43064831Y-46594758D01*
X43160069Y-46642377D01*
X43255307Y-46642377D01*
X43350545Y-46594758D01*
X43398164Y-46547139D01*
X43445783Y-46451901D01*
X43493402Y-46261425D01*
X43493402Y-46023330D01*
X43445783Y-45832854D01*
X43398164Y-45737616D01*
X43350545Y-45689997D01*
X43255307Y-45642377D01*
X44921974Y-48229997D02*
X45017212Y-48182377D01*
X45160069Y-48182377D01*
X45302926Y-48229997D01*
X45398164Y-48325235D01*
X45445783Y-48420473D01*
X45493402Y-48610949D01*
X45493402Y-48753806D01*
X45445783Y-48944282D01*
X45398164Y-49039520D01*
X45302926Y-49134758D01*
X45160069Y-49182377D01*
X45064831Y-49182377D01*
X44921974Y-49134758D01*
X44874355Y-49087139D01*
X44874355Y-48753806D01*
X45064831Y-48753806D01*
X44445783Y-49182377D02*
X44445783Y-48182377D01*
X44064831Y-48182377D01*
X43969593Y-48229997D01*
X43921974Y-48277616D01*
X43874355Y-48372854D01*
X43874355Y-48515711D01*
X43921974Y-48610949D01*
X43969593Y-48658568D01*
X44064831Y-48706187D01*
X44445783Y-48706187D01*
X42921974Y-49182377D02*
X43493402Y-49182377D01*
X43207688Y-49182377D02*
X43207688Y-48182377D01*
X43302926Y-48325235D01*
X43398164Y-48420473D01*
X43493402Y-48468092D01*
X45445783Y-50354997D02*
X44445783Y-50354997D01*
X44636259Y-51722377D02*
X44969593Y-51246187D01*
X45207688Y-51722377D02*
X45207688Y-50722377D01*
X44826736Y-50722377D01*
X44731498Y-50769997D01*
X44683878Y-50817616D01*
X44636259Y-50912854D01*
X44636259Y-51055711D01*
X44683878Y-51150949D01*
X44731498Y-51198568D01*
X44826736Y-51246187D01*
X45207688Y-51246187D01*
X44445783Y-50354997D02*
X43493402Y-50354997D01*
X44255307Y-51674758D02*
X44112450Y-51722377D01*
X43874355Y-51722377D01*
X43779117Y-51674758D01*
X43731498Y-51627139D01*
X43683878Y-51531901D01*
X43683878Y-51436663D01*
X43731498Y-51341425D01*
X43779117Y-51293806D01*
X43874355Y-51246187D01*
X44064831Y-51198568D01*
X44160069Y-51150949D01*
X44207688Y-51103330D01*
X44255307Y-51008092D01*
X44255307Y-50912854D01*
X44207688Y-50817616D01*
X44160069Y-50769997D01*
X44064831Y-50722377D01*
X43826736Y-50722377D01*
X43683878Y-50769997D01*
X43493402Y-50354997D02*
X42731498Y-50354997D01*
X43398164Y-50722377D02*
X42826736Y-50722377D01*
X43112450Y-51722377D02*
X43112450Y-50722377D01*
X43731498Y-54262377D02*
X44064831Y-53786187D01*
X44302926Y-54262377D02*
X44302926Y-53262377D01*
X43921974Y-53262377D01*
X43826736Y-53309997D01*
X43779117Y-53357616D01*
X43731498Y-53452854D01*
X43731498Y-53595711D01*
X43779117Y-53690949D01*
X43826736Y-53738568D01*
X43921974Y-53786187D01*
X44302926Y-53786187D01*
X43398164Y-54262377D02*
X42874355Y-53595711D01*
X43398164Y-53595711D02*
X42874355Y-54262377D01*
X44207688Y-55802377D02*
X43636259Y-55802377D01*
X43921974Y-56802377D02*
X43921974Y-55802377D01*
X43398164Y-56802377D02*
X42874355Y-56135711D01*
X43398164Y-56135711D02*
X42874355Y-56802377D01*
X44921974Y-58389997D02*
X45017212Y-58342377D01*
X45160069Y-58342377D01*
X45302926Y-58389997D01*
X45398164Y-58485235D01*
X45445783Y-58580473D01*
X45493402Y-58770949D01*
X45493402Y-58913806D01*
X45445783Y-59104282D01*
X45398164Y-59199520D01*
X45302926Y-59294758D01*
X45160069Y-59342377D01*
X45064831Y-59342377D01*
X44921974Y-59294758D01*
X44874355Y-59247139D01*
X44874355Y-58913806D01*
X45064831Y-58913806D01*
X44445783Y-59342377D02*
X44445783Y-58342377D01*
X44064831Y-58342377D01*
X43969593Y-58389997D01*
X43921974Y-58437616D01*
X43874355Y-58532854D01*
X43874355Y-58675711D01*
X43921974Y-58770949D01*
X43969593Y-58818568D01*
X44064831Y-58866187D01*
X44445783Y-58866187D01*
X43493402Y-58437616D02*
X43445783Y-58389997D01*
X43350545Y-58342377D01*
X43112450Y-58342377D01*
X43017212Y-58389997D01*
X42969593Y-58437616D01*
X42921974Y-58532854D01*
X42921974Y-58628092D01*
X42969593Y-58770949D01*
X43541021Y-59342377D01*
X42921974Y-59342377D01*
X57173259Y-50722377D02*
X56839926Y-51722377D01*
X56506593Y-50722377D01*
X56173259Y-51722377D02*
X56173259Y-50722377D01*
X55935164Y-50722377D01*
X55792307Y-50769997D01*
X55697069Y-50865235D01*
X55649450Y-50960473D01*
X55601831Y-51150949D01*
X55601831Y-51293806D01*
X55649450Y-51484282D01*
X55697069Y-51579520D01*
X55792307Y-51674758D01*
X55935164Y-51722377D01*
X56173259Y-51722377D01*
X55173259Y-51722377D02*
X55173259Y-50722377D01*
X54935164Y-50722377D01*
X54792307Y-50769997D01*
X54697069Y-50865235D01*
X54649450Y-50960473D01*
X54601831Y-51150949D01*
X54601831Y-51293806D01*
X54649450Y-51484282D01*
X54697069Y-51579520D01*
X54792307Y-51674758D01*
X54935164Y-51722377D01*
X55173259Y-51722377D01*
X57078021Y-54214758D02*
X56935164Y-54262377D01*
X56697069Y-54262377D01*
X56601831Y-54214758D01*
X56554212Y-54167139D01*
X56506593Y-54071901D01*
X56506593Y-53976663D01*
X56554212Y-53881425D01*
X56601831Y-53833806D01*
X56697069Y-53786187D01*
X56887545Y-53738568D01*
X56982783Y-53690949D01*
X57030402Y-53643330D01*
X57078021Y-53548092D01*
X57078021Y-53452854D01*
X57030402Y-53357616D01*
X56982783Y-53309997D01*
X56887545Y-53262377D01*
X56649450Y-53262377D01*
X56506593Y-53309997D01*
X55506593Y-54167139D02*
X55554212Y-54214758D01*
X55697069Y-54262377D01*
X55792307Y-54262377D01*
X55935164Y-54214758D01*
X56030402Y-54119520D01*
X56078021Y-54024282D01*
X56125640Y-53833806D01*
X56125640Y-53690949D01*
X56078021Y-53500473D01*
X56030402Y-53405235D01*
X55935164Y-53309997D01*
X55792307Y-53262377D01*
X55697069Y-53262377D01*
X55554212Y-53309997D01*
X55506593Y-53357616D01*
X54601831Y-54262377D02*
X55078021Y-54262377D01*
X55078021Y-53262377D01*
X57078021Y-56754758D02*
X56935164Y-56802377D01*
X56697069Y-56802377D01*
X56601831Y-56754758D01*
X56554212Y-56707139D01*
X56506593Y-56611901D01*
X56506593Y-56516663D01*
X56554212Y-56421425D01*
X56601831Y-56373806D01*
X56697069Y-56326187D01*
X56887545Y-56278568D01*
X56982783Y-56230949D01*
X57030402Y-56183330D01*
X57078021Y-56088092D01*
X57078021Y-55992854D01*
X57030402Y-55897616D01*
X56982783Y-55849997D01*
X56887545Y-55802377D01*
X56649450Y-55802377D01*
X56506593Y-55849997D01*
X56078021Y-56802377D02*
X56078021Y-55802377D01*
X55839926Y-55802377D01*
X55697069Y-55849997D01*
X55601831Y-55945235D01*
X55554212Y-56040473D01*
X55506593Y-56230949D01*
X55506593Y-56373806D01*
X55554212Y-56564282D01*
X55601831Y-56659520D01*
X55697069Y-56754758D01*
X55839926Y-56802377D01*
X56078021Y-56802377D01*
X55125640Y-56516663D02*
X54649450Y-56516663D01*
X55220878Y-56802377D02*
X54887545Y-55802377D01*
X54554212Y-56802377D01*
X56506593Y-58389997D02*
X56601831Y-58342377D01*
X56744688Y-58342377D01*
X56887545Y-58389997D01*
X56982783Y-58485235D01*
X57030402Y-58580473D01*
X57078021Y-58770949D01*
X57078021Y-58913806D01*
X57030402Y-59104282D01*
X56982783Y-59199520D01*
X56887545Y-59294758D01*
X56744688Y-59342377D01*
X56649450Y-59342377D01*
X56506593Y-59294758D01*
X56458974Y-59247139D01*
X56458974Y-58913806D01*
X56649450Y-58913806D01*
X56030402Y-59342377D02*
X56030402Y-58342377D01*
X55649450Y-58342377D01*
X55554212Y-58389997D01*
X55506593Y-58437616D01*
X55458974Y-58532854D01*
X55458974Y-58675711D01*
X55506593Y-58770949D01*
X55554212Y-58818568D01*
X55649450Y-58866187D01*
X56030402Y-58866187D01*
X55125640Y-58342377D02*
X54506593Y-58342377D01*
X54839926Y-58723330D01*
X54697069Y-58723330D01*
X54601831Y-58770949D01*
X54554212Y-58818568D01*
X54506593Y-58913806D01*
X54506593Y-59151901D01*
X54554212Y-59247139D01*
X54601831Y-59294758D01*
X54697069Y-59342377D01*
X54982783Y-59342377D01*
X55078021Y-59294758D01*
X55125640Y-59247139D01*
X56506593Y-48229997D02*
X56601831Y-48182377D01*
X56744688Y-48182377D01*
X56887545Y-48229997D01*
X56982783Y-48325235D01*
X57030402Y-48420473D01*
X57078021Y-48610949D01*
X57078021Y-48753806D01*
X57030402Y-48944282D01*
X56982783Y-49039520D01*
X56887545Y-49134758D01*
X56744688Y-49182377D01*
X56649450Y-49182377D01*
X56506593Y-49134758D01*
X56458974Y-49087139D01*
X56458974Y-48753806D01*
X56649450Y-48753806D01*
X56030402Y-49182377D02*
X56030402Y-48182377D01*
X55458974Y-49182377D01*
X55458974Y-48182377D01*
X54982783Y-49182377D02*
X54982783Y-48182377D01*
X54744688Y-48182377D01*
X54601831Y-48229997D01*
X54506593Y-48325235D01*
X54458974Y-48420473D01*
X54411355Y-48610949D01*
X54411355Y-48753806D01*
X54458974Y-48944282D01*
X54506593Y-49039520D01*
X54601831Y-49134758D01*
X54744688Y-49182377D01*
X54982783Y-49182377D01*
X53666664Y-55089377D02*
X53666664Y-54089377D01*
X53333331Y-54803663D01*
X52999998Y-54089377D01*
X52999998Y-55089377D01*
X51952378Y-54994139D02*
X51999998Y-55041758D01*
X52142855Y-55089377D01*
X52238093Y-55089377D01*
X52380950Y-55041758D01*
X52476188Y-54946520D01*
X52523807Y-54851282D01*
X52571426Y-54660806D01*
X52571426Y-54517949D01*
X52523807Y-54327473D01*
X52476188Y-54232235D01*
X52380950Y-54136997D01*
X52238093Y-54089377D01*
X52142855Y-54089377D01*
X51999998Y-54136997D01*
X51952378Y-54184616D01*
X51523807Y-55089377D02*
X51523807Y-54089377D01*
X51142855Y-54089377D01*
X51047617Y-54136997D01*
X50999998Y-54184616D01*
X50952378Y-54279854D01*
X50952378Y-54422711D01*
X50999998Y-54517949D01*
X51047617Y-54565568D01*
X51142855Y-54613187D01*
X51523807Y-54613187D01*
X50571426Y-54184616D02*
X50523807Y-54136997D01*
X50428569Y-54089377D01*
X50190474Y-54089377D01*
X50095236Y-54136997D01*
X50047617Y-54184616D01*
X49999998Y-54279854D01*
X49999998Y-54375092D01*
X50047617Y-54517949D01*
X50619045Y-55089377D01*
X49999998Y-55089377D01*
X49619045Y-54184616D02*
X49571426Y-54136997D01*
X49476188Y-54089377D01*
X49238093Y-54089377D01*
X49142855Y-54136997D01*
X49095236Y-54184616D01*
X49047617Y-54279854D01*
X49047617Y-54375092D01*
X49095236Y-54517949D01*
X49666664Y-55089377D01*
X49047617Y-55089377D01*
X48666664Y-54184616D02*
X48619045Y-54136997D01*
X48523807Y-54089377D01*
X48285712Y-54089377D01*
X48190474Y-54136997D01*
X48142855Y-54184616D01*
X48095236Y-54279854D01*
X48095236Y-54375092D01*
X48142855Y-54517949D01*
X48714283Y-55089377D01*
X48095236Y-55089377D01*
X47142855Y-55089377D02*
X47714283Y-55089377D01*
X47428569Y-55089377D02*
X47428569Y-54089377D01*
X47523807Y-54232235D01*
X47619045Y-54327473D01*
X47714283Y-54375092D01*
X46761902Y-54803663D02*
X46285712Y-54803663D01*
X46857140Y-55089377D02*
X46523807Y-54089377D01*
X46190474Y-55089377D01*
X52714283Y-56215568D02*
X52571426Y-56263187D01*
X52523807Y-56310806D01*
X52476188Y-56406044D01*
X52476188Y-56548901D01*
X52523807Y-56644139D01*
X52571426Y-56691758D01*
X52666664Y-56739377D01*
X53047617Y-56739377D01*
X53047617Y-55739377D01*
X52714283Y-55739377D01*
X52619045Y-55786997D01*
X52571426Y-55834616D01*
X52523807Y-55929854D01*
X52523807Y-56025092D01*
X52571426Y-56120330D01*
X52619045Y-56167949D01*
X52714283Y-56215568D01*
X53047617Y-56215568D01*
X52047617Y-56739377D02*
X52047617Y-56072711D01*
X52047617Y-56263187D02*
X51999998Y-56167949D01*
X51952378Y-56120330D01*
X51857140Y-56072711D01*
X51761902Y-56072711D01*
X51047617Y-56691758D02*
X51142855Y-56739377D01*
X51333331Y-56739377D01*
X51428569Y-56691758D01*
X51476188Y-56596520D01*
X51476188Y-56215568D01*
X51428569Y-56120330D01*
X51333331Y-56072711D01*
X51142855Y-56072711D01*
X51047617Y-56120330D01*
X50999998Y-56215568D01*
X50999998Y-56310806D01*
X51476188Y-56406044D01*
X50142855Y-56739377D02*
X50142855Y-56215568D01*
X50190474Y-56120330D01*
X50285712Y-56072711D01*
X50476188Y-56072711D01*
X50571426Y-56120330D01*
X50142855Y-56691758D02*
X50238093Y-56739377D01*
X50476188Y-56739377D01*
X50571426Y-56691758D01*
X50619045Y-56596520D01*
X50619045Y-56501282D01*
X50571426Y-56406044D01*
X50476188Y-56358425D01*
X50238093Y-56358425D01*
X50142855Y-56310806D01*
X49666664Y-56739377D02*
X49666664Y-55739377D01*
X49571426Y-56358425D02*
X49285712Y-56739377D01*
X49285712Y-56072711D02*
X49666664Y-56453663D01*
X48714283Y-56739377D02*
X48809521Y-56691758D01*
X48857140Y-56644139D01*
X48904759Y-56548901D01*
X48904759Y-56263187D01*
X48857140Y-56167949D01*
X48809521Y-56120330D01*
X48714283Y-56072711D01*
X48571426Y-56072711D01*
X48476188Y-56120330D01*
X48428569Y-56167949D01*
X48380950Y-56263187D01*
X48380950Y-56548901D01*
X48428569Y-56644139D01*
X48476188Y-56691758D01*
X48571426Y-56739377D01*
X48714283Y-56739377D01*
X47523807Y-56072711D02*
X47523807Y-56739377D01*
X47952378Y-56072711D02*
X47952378Y-56596520D01*
X47904759Y-56691758D01*
X47809521Y-56739377D01*
X47666664Y-56739377D01*
X47571426Y-56691758D01*
X47523807Y-56644139D01*
X47190474Y-56072711D02*
X46809521Y-56072711D01*
X47047617Y-55739377D02*
X47047617Y-56596520D01*
X46999998Y-56691758D01*
X46904759Y-56739377D01*
X46809521Y-56739377D01*
X52214283Y-57389377D02*
X51642855Y-57389377D01*
X51928569Y-58389377D02*
X51928569Y-57389377D01*
X50976188Y-57865568D02*
X50833331Y-57913187D01*
X50785712Y-57960806D01*
X50738093Y-58056044D01*
X50738093Y-58198901D01*
X50785712Y-58294139D01*
X50833331Y-58341758D01*
X50928569Y-58389377D01*
X51309521Y-58389377D01*
X51309521Y-57389377D01*
X50976188Y-57389377D01*
X50880950Y-57436997D01*
X50833331Y-57484616D01*
X50785712Y-57579854D01*
X50785712Y-57675092D01*
X50833331Y-57770330D01*
X50880950Y-57817949D01*
X50976188Y-57865568D01*
X51309521Y-57865568D01*
X49880950Y-57722711D02*
X49880950Y-58389377D01*
X50119045Y-57341758D02*
X50357140Y-58056044D01*
X49738093Y-58056044D01*
X49166664Y-57389377D02*
X49071426Y-57389377D01*
X48976188Y-57436997D01*
X48928569Y-57484616D01*
X48880950Y-57579854D01*
X48833331Y-57770330D01*
X48833331Y-58008425D01*
X48880950Y-58198901D01*
X48928569Y-58294139D01*
X48976188Y-58341758D01*
X49071426Y-58389377D01*
X49166664Y-58389377D01*
X49261902Y-58341758D01*
X49309521Y-58294139D01*
X49357140Y-58198901D01*
X49404759Y-58008425D01*
X49404759Y-57770330D01*
X49357140Y-57579854D01*
X49309521Y-57484616D01*
X49261902Y-57436997D01*
X49166664Y-57389377D01*
X48499998Y-57389377D02*
X47880950Y-57389377D01*
X48214283Y-57770330D01*
X48071426Y-57770330D01*
X47976188Y-57817949D01*
X47928569Y-57865568D01*
X47880950Y-57960806D01*
X47880950Y-58198901D01*
X47928569Y-58294139D01*
X47976188Y-58341758D01*
X48071426Y-58389377D01*
X48357140Y-58389377D01*
X48452378Y-58341758D01*
X48499998Y-58294139D01*
X53619045Y-59134616D02*
X53571426Y-59086997D01*
X53476188Y-59039377D01*
X53238093Y-59039377D01*
X53142855Y-59086997D01*
X53095236Y-59134616D01*
X53047617Y-59229854D01*
X53047617Y-59325092D01*
X53095236Y-59467949D01*
X53666664Y-60039377D01*
X53047617Y-60039377D01*
X52428569Y-59039377D02*
X52333331Y-59039377D01*
X52238093Y-59086997D01*
X52190474Y-59134616D01*
X52142855Y-59229854D01*
X52095236Y-59420330D01*
X52095236Y-59658425D01*
X52142855Y-59848901D01*
X52190474Y-59944139D01*
X52238093Y-59991758D01*
X52333331Y-60039377D01*
X52428569Y-60039377D01*
X52523807Y-59991758D01*
X52571426Y-59944139D01*
X52619045Y-59848901D01*
X52666664Y-59658425D01*
X52666664Y-59420330D01*
X52619045Y-59229854D01*
X52571426Y-59134616D01*
X52523807Y-59086997D01*
X52428569Y-59039377D01*
X51714283Y-59134616D02*
X51666664Y-59086997D01*
X51571426Y-59039377D01*
X51333331Y-59039377D01*
X51238093Y-59086997D01*
X51190474Y-59134616D01*
X51142855Y-59229854D01*
X51142855Y-59325092D01*
X51190474Y-59467949D01*
X51761902Y-60039377D01*
X51142855Y-60039377D01*
X50190474Y-60039377D02*
X50761902Y-60039377D01*
X50476188Y-60039377D02*
X50476188Y-59039377D01*
X50571426Y-59182235D01*
X50666664Y-59277473D01*
X50761902Y-59325092D01*
X49571426Y-59039377D02*
X49476188Y-59039377D01*
X49380950Y-59086997D01*
X49333331Y-59134616D01*
X49285712Y-59229854D01*
X49238093Y-59420330D01*
X49238093Y-59658425D01*
X49285712Y-59848901D01*
X49333331Y-59944139D01*
X49380950Y-59991758D01*
X49476188Y-60039377D01*
X49571426Y-60039377D01*
X49666664Y-59991758D01*
X49714283Y-59944139D01*
X49761902Y-59848901D01*
X49809521Y-59658425D01*
X49809521Y-59420330D01*
X49761902Y-59229854D01*
X49714283Y-59134616D01*
X49666664Y-59086997D01*
X49571426Y-59039377D01*
X48904759Y-59039377D02*
X48238093Y-59039377D01*
X48666664Y-60039377D01*
X47333331Y-60039377D02*
X47904759Y-60039377D01*
X47619045Y-60039377D02*
X47619045Y-59039377D01*
X47714283Y-59182235D01*
X47809521Y-59277473D01*
X47904759Y-59325092D01*
X46476188Y-59039377D02*
X46666664Y-59039377D01*
X46761902Y-59086997D01*
X46809521Y-59134616D01*
X46904759Y-59277473D01*
X46952378Y-59467949D01*
X46952378Y-59848901D01*
X46904759Y-59944139D01*
X46857140Y-59991758D01*
X46761902Y-60039377D01*
X46571426Y-60039377D01*
X46476188Y-59991758D01*
X46428569Y-59944139D01*
X46380950Y-59848901D01*
X46380950Y-59610806D01*
X46428569Y-59515568D01*
X46476188Y-59467949D01*
X46571426Y-59420330D01*
X46761902Y-59420330D01*
X46857140Y-59467949D01*
X46904759Y-59515568D01*
X46952378Y-59610806D01*
X57173259Y-45642377D02*
X56839926Y-46642377D01*
X56506593Y-45642377D01*
X55839926Y-46118568D02*
X55697069Y-46166187D01*
X55649450Y-46213806D01*
X55601831Y-46309044D01*
X55601831Y-46451901D01*
X55649450Y-46547139D01*
X55697069Y-46594758D01*
X55792307Y-46642377D01*
X56173259Y-46642377D01*
X56173259Y-45642377D01*
X55839926Y-45642377D01*
X55744688Y-45689997D01*
X55697069Y-45737616D01*
X55649450Y-45832854D01*
X55649450Y-45928092D01*
X55697069Y-46023330D01*
X55744688Y-46070949D01*
X55839926Y-46118568D01*
X56173259Y-46118568D01*
X55173259Y-45642377D02*
X55173259Y-46451901D01*
X55125640Y-46547139D01*
X55078021Y-46594758D01*
X54982783Y-46642377D01*
X54792307Y-46642377D01*
X54697069Y-46594758D01*
X54649450Y-46547139D01*
X54601831Y-46451901D01*
X54601831Y-45642377D01*
D11*
X57559998Y-44859997D02*
X54063998Y-44859997D01*
X54063998Y-44859997D02*
X54063998Y-60219997D01*
X54063998Y-60219997D02*
X57559998Y-60219997D01*
X42439998Y-60219997D02*
X45935998Y-60219997D01*
X42439998Y-44859997D02*
X45935998Y-44859997D01*
X45935998Y-44859997D02*
X45935998Y-60219997D01*
G04 #@! TO.C,JP1*
X99020012Y-96942015D02*
G75*
G03X98320012Y-97642015I0J-700000D01*
G01*
X98320012Y-98242015D02*
G75*
G03X99020012Y-98942015I700000J0D01*
G01*
X100420012Y-98942015D02*
G75*
G03X101120012Y-98242015I0J700000D01*
G01*
X101120012Y-97642015D02*
G75*
G03X100420012Y-96942015I-700000J0D01*
G01*
X100420012Y-96942015D02*
X99020012Y-96942015D01*
X98320012Y-97642015D02*
X98320012Y-98242015D01*
X99020012Y-98942015D02*
X100420012Y-98942015D01*
X101120012Y-98242015D02*
X101120012Y-97642015D01*
G04 #@! TO.C,JP2*
X100420012Y-102180515D02*
G75*
G03X101120012Y-101480515I0J700000D01*
G01*
X101120012Y-100880515D02*
G75*
G03X100420012Y-100180515I-700000J0D01*
G01*
X99020012Y-100180515D02*
G75*
G03X98320012Y-100880515I0J-700000D01*
G01*
X98320012Y-101480515D02*
G75*
G03X99020012Y-102180515I700000J0D01*
G01*
X99020012Y-102180515D02*
X100420012Y-102180515D01*
X101120012Y-101480515D02*
X101120012Y-100880515D01*
X100420012Y-100180515D02*
X99020012Y-100180515D01*
X98320012Y-100880515D02*
X98320012Y-101480515D01*
G04 #@! TO.C,J3*
X107280012Y-109940015D02*
X108610012Y-109940015D01*
X107280012Y-108610015D02*
X107280012Y-109940015D01*
X107280012Y-107340015D02*
X109940012Y-107340015D01*
X109940012Y-107340015D02*
X109940012Y-94580015D01*
X107280012Y-107340015D02*
X107280012Y-94580015D01*
X107280012Y-94580015D02*
X109940012Y-94580015D01*
G04 #@! TO.C,J2*
X92160012Y-94580015D02*
X90830012Y-94580015D01*
X92160012Y-95910015D02*
X92160012Y-94580015D01*
X92160012Y-97180015D02*
X89500012Y-97180015D01*
X89500012Y-97180015D02*
X89500012Y-109940015D01*
X92160012Y-97180015D02*
X92160012Y-109940015D01*
X92160012Y-109940015D02*
X89500012Y-109940015D01*
G04 #@! TO.C,JP1*
X74160005Y-96942015D02*
G75*
G03X73460005Y-97642015I0J-700000D01*
G01*
X73460005Y-98242015D02*
G75*
G03X74160005Y-98942015I700000J0D01*
G01*
X75560005Y-98942015D02*
G75*
G03X76260005Y-98242015I0J700000D01*
G01*
X76260005Y-97642015D02*
G75*
G03X75560005Y-96942015I-700000J0D01*
G01*
X75560005Y-96942015D02*
X74160005Y-96942015D01*
X73460005Y-97642015D02*
X73460005Y-98242015D01*
X74160005Y-98942015D02*
X75560005Y-98942015D01*
X76260005Y-98242015D02*
X76260005Y-97642015D01*
G04 #@! TO.C,JP2*
X75560005Y-102180515D02*
G75*
G03X76260005Y-101480515I0J700000D01*
G01*
X76260005Y-100880515D02*
G75*
G03X75560005Y-100180515I-700000J0D01*
G01*
X74160005Y-100180515D02*
G75*
G03X73460005Y-100880515I0J-700000D01*
G01*
X73460005Y-101480515D02*
G75*
G03X74160005Y-102180515I700000J0D01*
G01*
X74160005Y-102180515D02*
X75560005Y-102180515D01*
X76260005Y-101480515D02*
X76260005Y-100880515D01*
X75560005Y-100180515D02*
X74160005Y-100180515D01*
X73460005Y-100880515D02*
X73460005Y-101480515D01*
G04 #@! TO.C,J3*
X82420005Y-109940015D02*
X83750005Y-109940015D01*
X82420005Y-108610015D02*
X82420005Y-109940015D01*
X82420005Y-107340015D02*
X85080005Y-107340015D01*
X85080005Y-107340015D02*
X85080005Y-94580015D01*
X82420005Y-107340015D02*
X82420005Y-94580015D01*
X82420005Y-94580015D02*
X85080005Y-94580015D01*
G04 #@! TO.C,J2*
X67300005Y-94580015D02*
X65970005Y-94580015D01*
X67300005Y-95910015D02*
X67300005Y-94580015D01*
X67300005Y-97180015D02*
X64640005Y-97180015D01*
X64640005Y-97180015D02*
X64640005Y-109940015D01*
X67300005Y-97180015D02*
X67300005Y-109940015D01*
X67300005Y-109940015D02*
X64640005Y-109940015D01*
G04 #@! TO.C,JP1*
X49299998Y-96942015D02*
G75*
G03X48599998Y-97642015I0J-700000D01*
G01*
X48599998Y-98242015D02*
G75*
G03X49299998Y-98942015I700000J0D01*
G01*
X50699998Y-98942015D02*
G75*
G03X51399998Y-98242015I0J700000D01*
G01*
X51399998Y-97642015D02*
G75*
G03X50699998Y-96942015I-700000J0D01*
G01*
X50699998Y-96942015D02*
X49299998Y-96942015D01*
X48599998Y-97642015D02*
X48599998Y-98242015D01*
X49299998Y-98942015D02*
X50699998Y-98942015D01*
X51399998Y-98242015D02*
X51399998Y-97642015D01*
G04 #@! TO.C,JP2*
X50699998Y-102180515D02*
G75*
G03X51399998Y-101480515I0J700000D01*
G01*
X51399998Y-100880515D02*
G75*
G03X50699998Y-100180515I-700000J0D01*
G01*
X49299998Y-100180515D02*
G75*
G03X48599998Y-100880515I0J-700000D01*
G01*
X48599998Y-101480515D02*
G75*
G03X49299998Y-102180515I700000J0D01*
G01*
X49299998Y-102180515D02*
X50699998Y-102180515D01*
X51399998Y-101480515D02*
X51399998Y-100880515D01*
X50699998Y-100180515D02*
X49299998Y-100180515D01*
X48599998Y-100880515D02*
X48599998Y-101480515D01*
G04 #@! TO.C,J3*
X57559998Y-109940015D02*
X58889998Y-109940015D01*
X57559998Y-108610015D02*
X57559998Y-109940015D01*
X57559998Y-107340015D02*
X60219998Y-107340015D01*
X60219998Y-107340015D02*
X60219998Y-94580015D01*
X57559998Y-107340015D02*
X57559998Y-94580015D01*
X57559998Y-94580015D02*
X60219998Y-94580015D01*
G04 #@! TO.C,J2*
X42439998Y-94580015D02*
X41109998Y-94580015D01*
X42439998Y-95910015D02*
X42439998Y-94580015D01*
X42439998Y-97180015D02*
X39779998Y-97180015D01*
X39779998Y-97180015D02*
X39779998Y-109940015D01*
X42439998Y-97180015D02*
X42439998Y-109940015D01*
X42439998Y-109940015D02*
X39779998Y-109940015D01*
G04 #@! TO.C,JP1*
X99020012Y-72082006D02*
G75*
G03X98320012Y-72782006I0J-700000D01*
G01*
X98320012Y-73382006D02*
G75*
G03X99020012Y-74082006I700000J0D01*
G01*
X100420012Y-74082006D02*
G75*
G03X101120012Y-73382006I0J700000D01*
G01*
X101120012Y-72782006D02*
G75*
G03X100420012Y-72082006I-700000J0D01*
G01*
X100420012Y-72082006D02*
X99020012Y-72082006D01*
X98320012Y-72782006D02*
X98320012Y-73382006D01*
X99020012Y-74082006D02*
X100420012Y-74082006D01*
X101120012Y-73382006D02*
X101120012Y-72782006D01*
G04 #@! TO.C,JP2*
X100420012Y-77320506D02*
G75*
G03X101120012Y-76620506I0J700000D01*
G01*
X101120012Y-76020506D02*
G75*
G03X100420012Y-75320506I-700000J0D01*
G01*
X99020012Y-75320506D02*
G75*
G03X98320012Y-76020506I0J-700000D01*
G01*
X98320012Y-76620506D02*
G75*
G03X99020012Y-77320506I700000J0D01*
G01*
X99020012Y-77320506D02*
X100420012Y-77320506D01*
X101120012Y-76620506D02*
X101120012Y-76020506D01*
X100420012Y-75320506D02*
X99020012Y-75320506D01*
X98320012Y-76020506D02*
X98320012Y-76620506D01*
G04 #@! TO.C,J3*
X107280012Y-85080006D02*
X108610012Y-85080006D01*
X107280012Y-83750006D02*
X107280012Y-85080006D01*
X107280012Y-82480006D02*
X109940012Y-82480006D01*
X109940012Y-82480006D02*
X109940012Y-69720006D01*
X107280012Y-82480006D02*
X107280012Y-69720006D01*
X107280012Y-69720006D02*
X109940012Y-69720006D01*
G04 #@! TO.C,J2*
X92160012Y-69720006D02*
X90830012Y-69720006D01*
X92160012Y-71050006D02*
X92160012Y-69720006D01*
X92160012Y-72320006D02*
X89500012Y-72320006D01*
X89500012Y-72320006D02*
X89500012Y-85080006D01*
X92160012Y-72320006D02*
X92160012Y-85080006D01*
X92160012Y-85080006D02*
X89500012Y-85080006D01*
G04 #@! TO.C,JP1*
X74160005Y-72082006D02*
G75*
G03X73460005Y-72782006I0J-700000D01*
G01*
X73460005Y-73382006D02*
G75*
G03X74160005Y-74082006I700000J0D01*
G01*
X75560005Y-74082006D02*
G75*
G03X76260005Y-73382006I0J700000D01*
G01*
X76260005Y-72782006D02*
G75*
G03X75560005Y-72082006I-700000J0D01*
G01*
X75560005Y-72082006D02*
X74160005Y-72082006D01*
X73460005Y-72782006D02*
X73460005Y-73382006D01*
X74160005Y-74082006D02*
X75560005Y-74082006D01*
X76260005Y-73382006D02*
X76260005Y-72782006D01*
G04 #@! TO.C,JP2*
X75560005Y-77320506D02*
G75*
G03X76260005Y-76620506I0J700000D01*
G01*
X76260005Y-76020506D02*
G75*
G03X75560005Y-75320506I-700000J0D01*
G01*
X74160005Y-75320506D02*
G75*
G03X73460005Y-76020506I0J-700000D01*
G01*
X73460005Y-76620506D02*
G75*
G03X74160005Y-77320506I700000J0D01*
G01*
X74160005Y-77320506D02*
X75560005Y-77320506D01*
X76260005Y-76620506D02*
X76260005Y-76020506D01*
X75560005Y-75320506D02*
X74160005Y-75320506D01*
X73460005Y-76020506D02*
X73460005Y-76620506D01*
G04 #@! TO.C,J3*
X82420005Y-85080006D02*
X83750005Y-85080006D01*
X82420005Y-83750006D02*
X82420005Y-85080006D01*
X82420005Y-82480006D02*
X85080005Y-82480006D01*
X85080005Y-82480006D02*
X85080005Y-69720006D01*
X82420005Y-82480006D02*
X82420005Y-69720006D01*
X82420005Y-69720006D02*
X85080005Y-69720006D01*
G04 #@! TO.C,J2*
X67300005Y-69720006D02*
X65970005Y-69720006D01*
X67300005Y-71050006D02*
X67300005Y-69720006D01*
X67300005Y-72320006D02*
X64640005Y-72320006D01*
X64640005Y-72320006D02*
X64640005Y-85080006D01*
X67300005Y-72320006D02*
X67300005Y-85080006D01*
X67300005Y-85080006D02*
X64640005Y-85080006D01*
G04 #@! TO.C,JP1*
X49299998Y-72082006D02*
G75*
G03X48599998Y-72782006I0J-700000D01*
G01*
X48599998Y-73382006D02*
G75*
G03X49299998Y-74082006I700000J0D01*
G01*
X50699998Y-74082006D02*
G75*
G03X51399998Y-73382006I0J700000D01*
G01*
X51399998Y-72782006D02*
G75*
G03X50699998Y-72082006I-700000J0D01*
G01*
X50699998Y-72082006D02*
X49299998Y-72082006D01*
X48599998Y-72782006D02*
X48599998Y-73382006D01*
X49299998Y-74082006D02*
X50699998Y-74082006D01*
X51399998Y-73382006D02*
X51399998Y-72782006D01*
G04 #@! TO.C,JP2*
X50699998Y-77320506D02*
G75*
G03X51399998Y-76620506I0J700000D01*
G01*
X51399998Y-76020506D02*
G75*
G03X50699998Y-75320506I-700000J0D01*
G01*
X49299998Y-75320506D02*
G75*
G03X48599998Y-76020506I0J-700000D01*
G01*
X48599998Y-76620506D02*
G75*
G03X49299998Y-77320506I700000J0D01*
G01*
X49299998Y-77320506D02*
X50699998Y-77320506D01*
X51399998Y-76620506D02*
X51399998Y-76020506D01*
X50699998Y-75320506D02*
X49299998Y-75320506D01*
X48599998Y-76020506D02*
X48599998Y-76620506D01*
G04 #@! TO.C,J3*
X57559998Y-85080006D02*
X58889998Y-85080006D01*
X57559998Y-83750006D02*
X57559998Y-85080006D01*
X57559998Y-82480006D02*
X60219998Y-82480006D01*
X60219998Y-82480006D02*
X60219998Y-69720006D01*
X57559998Y-82480006D02*
X57559998Y-69720006D01*
X57559998Y-69720006D02*
X60219998Y-69720006D01*
G04 #@! TO.C,J2*
X42439998Y-69720006D02*
X41109998Y-69720006D01*
X42439998Y-71050006D02*
X42439998Y-69720006D01*
X42439998Y-72320006D02*
X39779998Y-72320006D01*
X39779998Y-72320006D02*
X39779998Y-85080006D01*
X42439998Y-72320006D02*
X42439998Y-85080006D01*
X42439998Y-85080006D02*
X39779998Y-85080006D01*
G04 #@! TO.C,JP1*
X99020012Y-47221997D02*
G75*
G03X98320012Y-47921997I0J-700000D01*
G01*
X98320012Y-48521997D02*
G75*
G03X99020012Y-49221997I700000J0D01*
G01*
X100420012Y-49221997D02*
G75*
G03X101120012Y-48521997I0J700000D01*
G01*
X101120012Y-47921997D02*
G75*
G03X100420012Y-47221997I-700000J0D01*
G01*
X100420012Y-47221997D02*
X99020012Y-47221997D01*
X98320012Y-47921997D02*
X98320012Y-48521997D01*
X99020012Y-49221997D02*
X100420012Y-49221997D01*
X101120012Y-48521997D02*
X101120012Y-47921997D01*
G04 #@! TO.C,JP2*
X100420012Y-52460497D02*
G75*
G03X101120012Y-51760497I0J700000D01*
G01*
X101120012Y-51160497D02*
G75*
G03X100420012Y-50460497I-700000J0D01*
G01*
X99020012Y-50460497D02*
G75*
G03X98320012Y-51160497I0J-700000D01*
G01*
X98320012Y-51760497D02*
G75*
G03X99020012Y-52460497I700000J0D01*
G01*
X99020012Y-52460497D02*
X100420012Y-52460497D01*
X101120012Y-51760497D02*
X101120012Y-51160497D01*
X100420012Y-50460497D02*
X99020012Y-50460497D01*
X98320012Y-51160497D02*
X98320012Y-51760497D01*
G04 #@! TO.C,J3*
X107280012Y-60219997D02*
X108610012Y-60219997D01*
X107280012Y-58889997D02*
X107280012Y-60219997D01*
X107280012Y-57619997D02*
X109940012Y-57619997D01*
X109940012Y-57619997D02*
X109940012Y-44859997D01*
X107280012Y-57619997D02*
X107280012Y-44859997D01*
X107280012Y-44859997D02*
X109940012Y-44859997D01*
G04 #@! TO.C,J2*
X92160012Y-44859997D02*
X90830012Y-44859997D01*
X92160012Y-46189997D02*
X92160012Y-44859997D01*
X92160012Y-47459997D02*
X89500012Y-47459997D01*
X89500012Y-47459997D02*
X89500012Y-60219997D01*
X92160012Y-47459997D02*
X92160012Y-60219997D01*
X92160012Y-60219997D02*
X89500012Y-60219997D01*
G04 #@! TO.C,JP1*
X74160005Y-47221997D02*
G75*
G03X73460005Y-47921997I0J-700000D01*
G01*
X73460005Y-48521997D02*
G75*
G03X74160005Y-49221997I700000J0D01*
G01*
X75560005Y-49221997D02*
G75*
G03X76260005Y-48521997I0J700000D01*
G01*
X76260005Y-47921997D02*
G75*
G03X75560005Y-47221997I-700000J0D01*
G01*
X75560005Y-47221997D02*
X74160005Y-47221997D01*
X73460005Y-47921997D02*
X73460005Y-48521997D01*
X74160005Y-49221997D02*
X75560005Y-49221997D01*
X76260005Y-48521997D02*
X76260005Y-47921997D01*
G04 #@! TO.C,JP2*
X75560005Y-52460497D02*
G75*
G03X76260005Y-51760497I0J700000D01*
G01*
X76260005Y-51160497D02*
G75*
G03X75560005Y-50460497I-700000J0D01*
G01*
X74160005Y-50460497D02*
G75*
G03X73460005Y-51160497I0J-700000D01*
G01*
X73460005Y-51760497D02*
G75*
G03X74160005Y-52460497I700000J0D01*
G01*
X74160005Y-52460497D02*
X75560005Y-52460497D01*
X76260005Y-51760497D02*
X76260005Y-51160497D01*
X75560005Y-50460497D02*
X74160005Y-50460497D01*
X73460005Y-51160497D02*
X73460005Y-51760497D01*
G04 #@! TO.C,J3*
X82420005Y-60219997D02*
X83750005Y-60219997D01*
X82420005Y-58889997D02*
X82420005Y-60219997D01*
X82420005Y-57619997D02*
X85080005Y-57619997D01*
X85080005Y-57619997D02*
X85080005Y-44859997D01*
X82420005Y-57619997D02*
X82420005Y-44859997D01*
X82420005Y-44859997D02*
X85080005Y-44859997D01*
G04 #@! TO.C,J2*
X67300005Y-44859997D02*
X65970005Y-44859997D01*
X67300005Y-46189997D02*
X67300005Y-44859997D01*
X67300005Y-47459997D02*
X64640005Y-47459997D01*
X64640005Y-47459997D02*
X64640005Y-60219997D01*
X67300005Y-47459997D02*
X67300005Y-60219997D01*
X67300005Y-60219997D02*
X64640005Y-60219997D01*
G04 #@! TO.C,JP1*
X49299998Y-47221997D02*
G75*
G03X48599998Y-47921997I0J-700000D01*
G01*
X48599998Y-48521997D02*
G75*
G03X49299998Y-49221997I700000J0D01*
G01*
X50699998Y-49221997D02*
G75*
G03X51399998Y-48521997I0J700000D01*
G01*
X51399998Y-47921997D02*
G75*
G03X50699998Y-47221997I-700000J0D01*
G01*
X50699998Y-47221997D02*
X49299998Y-47221997D01*
X48599998Y-47921997D02*
X48599998Y-48521997D01*
X49299998Y-49221997D02*
X50699998Y-49221997D01*
X51399998Y-48521997D02*
X51399998Y-47921997D01*
G04 #@! TO.C,JP2*
X50699998Y-52460497D02*
G75*
G03X51399998Y-51760497I0J700000D01*
G01*
X51399998Y-51160497D02*
G75*
G03X50699998Y-50460497I-700000J0D01*
G01*
X49299998Y-50460497D02*
G75*
G03X48599998Y-51160497I0J-700000D01*
G01*
X48599998Y-51760497D02*
G75*
G03X49299998Y-52460497I700000J0D01*
G01*
X49299998Y-52460497D02*
X50699998Y-52460497D01*
X51399998Y-51760497D02*
X51399998Y-51160497D01*
X50699998Y-50460497D02*
X49299998Y-50460497D01*
X48599998Y-51160497D02*
X48599998Y-51760497D01*
G04 #@! TO.C,J3*
X57559998Y-60219997D02*
X58889998Y-60219997D01*
X57559998Y-58889997D02*
X57559998Y-60219997D01*
X57559998Y-57619997D02*
X60219998Y-57619997D01*
X60219998Y-57619997D02*
X60219998Y-44859997D01*
X57559998Y-57619997D02*
X57559998Y-44859997D01*
X57559998Y-44859997D02*
X60219998Y-44859997D01*
G04 #@! TO.C,J2*
X42439998Y-44859997D02*
X41109998Y-44859997D01*
X42439998Y-46189997D02*
X42439998Y-44859997D01*
X42439998Y-47459997D02*
X39779998Y-47459997D01*
X39779998Y-47459997D02*
X39779998Y-60219997D01*
X42439998Y-47459997D02*
X42439998Y-60219997D01*
X42439998Y-60219997D02*
X39779998Y-60219997D01*
G04 #@! TO.C,JP1*
D10*
X100386678Y-95916419D02*
X100386678Y-96487848D01*
X100424773Y-96602134D01*
X100500964Y-96678324D01*
X100615250Y-96716419D01*
X100691440Y-96716419D01*
X100005726Y-96716419D02*
X100005726Y-95916419D01*
X99700964Y-95916419D01*
X99624773Y-95954515D01*
X99586678Y-95992610D01*
X99548583Y-96068800D01*
X99548583Y-96183086D01*
X99586678Y-96259276D01*
X99624773Y-96297372D01*
X99700964Y-96335467D01*
X100005726Y-96335467D01*
X98786678Y-96716419D02*
X99243821Y-96716419D01*
X99015250Y-96716419D02*
X99015250Y-95916419D01*
X99091440Y-96030705D01*
X99167631Y-96106895D01*
X99243821Y-96144991D01*
G04 #@! TO.C,JP2*
X100386678Y-99154919D02*
X100386678Y-99726348D01*
X100424773Y-99840634D01*
X100500964Y-99916824D01*
X100615250Y-99954919D01*
X100691440Y-99954919D01*
X100005726Y-99954919D02*
X100005726Y-99154919D01*
X99700964Y-99154919D01*
X99624773Y-99193015D01*
X99586678Y-99231110D01*
X99548583Y-99307300D01*
X99548583Y-99421586D01*
X99586678Y-99497776D01*
X99624773Y-99535872D01*
X99700964Y-99573967D01*
X100005726Y-99573967D01*
X99243821Y-99231110D02*
X99205726Y-99193015D01*
X99129535Y-99154919D01*
X98939059Y-99154919D01*
X98862869Y-99193015D01*
X98824773Y-99231110D01*
X98786678Y-99307300D01*
X98786678Y-99383491D01*
X98824773Y-99497776D01*
X99281916Y-99954919D01*
X98786678Y-99954919D01*
G04 #@! TO.C,JP1*
X75526671Y-95916419D02*
X75526671Y-96487848D01*
X75564766Y-96602134D01*
X75640957Y-96678324D01*
X75755243Y-96716419D01*
X75831433Y-96716419D01*
X75145719Y-96716419D02*
X75145719Y-95916419D01*
X74840957Y-95916419D01*
X74764766Y-95954515D01*
X74726671Y-95992610D01*
X74688576Y-96068800D01*
X74688576Y-96183086D01*
X74726671Y-96259276D01*
X74764766Y-96297372D01*
X74840957Y-96335467D01*
X75145719Y-96335467D01*
X73926671Y-96716419D02*
X74383814Y-96716419D01*
X74155243Y-96716419D02*
X74155243Y-95916419D01*
X74231433Y-96030705D01*
X74307624Y-96106895D01*
X74383814Y-96144991D01*
G04 #@! TO.C,JP2*
X75526671Y-99154919D02*
X75526671Y-99726348D01*
X75564766Y-99840634D01*
X75640957Y-99916824D01*
X75755243Y-99954919D01*
X75831433Y-99954919D01*
X75145719Y-99954919D02*
X75145719Y-99154919D01*
X74840957Y-99154919D01*
X74764766Y-99193015D01*
X74726671Y-99231110D01*
X74688576Y-99307300D01*
X74688576Y-99421586D01*
X74726671Y-99497776D01*
X74764766Y-99535872D01*
X74840957Y-99573967D01*
X75145719Y-99573967D01*
X74383814Y-99231110D02*
X74345719Y-99193015D01*
X74269528Y-99154919D01*
X74079052Y-99154919D01*
X74002862Y-99193015D01*
X73964766Y-99231110D01*
X73926671Y-99307300D01*
X73926671Y-99383491D01*
X73964766Y-99497776D01*
X74421909Y-99954919D01*
X73926671Y-99954919D01*
G04 #@! TO.C,JP1*
X50666664Y-95916419D02*
X50666664Y-96487848D01*
X50704759Y-96602134D01*
X50780950Y-96678324D01*
X50895236Y-96716419D01*
X50971426Y-96716419D01*
X50285712Y-96716419D02*
X50285712Y-95916419D01*
X49980950Y-95916419D01*
X49904759Y-95954515D01*
X49866664Y-95992610D01*
X49828569Y-96068800D01*
X49828569Y-96183086D01*
X49866664Y-96259276D01*
X49904759Y-96297372D01*
X49980950Y-96335467D01*
X50285712Y-96335467D01*
X49066664Y-96716419D02*
X49523807Y-96716419D01*
X49295236Y-96716419D02*
X49295236Y-95916419D01*
X49371426Y-96030705D01*
X49447617Y-96106895D01*
X49523807Y-96144991D01*
G04 #@! TO.C,JP2*
X50666664Y-99154919D02*
X50666664Y-99726348D01*
X50704759Y-99840634D01*
X50780950Y-99916824D01*
X50895236Y-99954919D01*
X50971426Y-99954919D01*
X50285712Y-99954919D02*
X50285712Y-99154919D01*
X49980950Y-99154919D01*
X49904759Y-99193015D01*
X49866664Y-99231110D01*
X49828569Y-99307300D01*
X49828569Y-99421586D01*
X49866664Y-99497776D01*
X49904759Y-99535872D01*
X49980950Y-99573967D01*
X50285712Y-99573967D01*
X49523807Y-99231110D02*
X49485712Y-99193015D01*
X49409521Y-99154919D01*
X49219045Y-99154919D01*
X49142855Y-99193015D01*
X49104759Y-99231110D01*
X49066664Y-99307300D01*
X49066664Y-99383491D01*
X49104759Y-99497776D01*
X49561902Y-99954919D01*
X49066664Y-99954919D01*
G04 #@! TO.C,JP1*
X100386678Y-71056410D02*
X100386678Y-71627839D01*
X100424773Y-71742125D01*
X100500964Y-71818315D01*
X100615250Y-71856410D01*
X100691440Y-71856410D01*
X100005726Y-71856410D02*
X100005726Y-71056410D01*
X99700964Y-71056410D01*
X99624773Y-71094506D01*
X99586678Y-71132601D01*
X99548583Y-71208791D01*
X99548583Y-71323077D01*
X99586678Y-71399267D01*
X99624773Y-71437363D01*
X99700964Y-71475458D01*
X100005726Y-71475458D01*
X98786678Y-71856410D02*
X99243821Y-71856410D01*
X99015250Y-71856410D02*
X99015250Y-71056410D01*
X99091440Y-71170696D01*
X99167631Y-71246886D01*
X99243821Y-71284982D01*
G04 #@! TO.C,JP2*
X100386678Y-74294910D02*
X100386678Y-74866339D01*
X100424773Y-74980625D01*
X100500964Y-75056815D01*
X100615250Y-75094910D01*
X100691440Y-75094910D01*
X100005726Y-75094910D02*
X100005726Y-74294910D01*
X99700964Y-74294910D01*
X99624773Y-74333006D01*
X99586678Y-74371101D01*
X99548583Y-74447291D01*
X99548583Y-74561577D01*
X99586678Y-74637767D01*
X99624773Y-74675863D01*
X99700964Y-74713958D01*
X100005726Y-74713958D01*
X99243821Y-74371101D02*
X99205726Y-74333006D01*
X99129535Y-74294910D01*
X98939059Y-74294910D01*
X98862869Y-74333006D01*
X98824773Y-74371101D01*
X98786678Y-74447291D01*
X98786678Y-74523482D01*
X98824773Y-74637767D01*
X99281916Y-75094910D01*
X98786678Y-75094910D01*
G04 #@! TO.C,JP1*
X75526671Y-71056410D02*
X75526671Y-71627839D01*
X75564766Y-71742125D01*
X75640957Y-71818315D01*
X75755243Y-71856410D01*
X75831433Y-71856410D01*
X75145719Y-71856410D02*
X75145719Y-71056410D01*
X74840957Y-71056410D01*
X74764766Y-71094506D01*
X74726671Y-71132601D01*
X74688576Y-71208791D01*
X74688576Y-71323077D01*
X74726671Y-71399267D01*
X74764766Y-71437363D01*
X74840957Y-71475458D01*
X75145719Y-71475458D01*
X73926671Y-71856410D02*
X74383814Y-71856410D01*
X74155243Y-71856410D02*
X74155243Y-71056410D01*
X74231433Y-71170696D01*
X74307624Y-71246886D01*
X74383814Y-71284982D01*
G04 #@! TO.C,JP2*
X75526671Y-74294910D02*
X75526671Y-74866339D01*
X75564766Y-74980625D01*
X75640957Y-75056815D01*
X75755243Y-75094910D01*
X75831433Y-75094910D01*
X75145719Y-75094910D02*
X75145719Y-74294910D01*
X74840957Y-74294910D01*
X74764766Y-74333006D01*
X74726671Y-74371101D01*
X74688576Y-74447291D01*
X74688576Y-74561577D01*
X74726671Y-74637767D01*
X74764766Y-74675863D01*
X74840957Y-74713958D01*
X75145719Y-74713958D01*
X74383814Y-74371101D02*
X74345719Y-74333006D01*
X74269528Y-74294910D01*
X74079052Y-74294910D01*
X74002862Y-74333006D01*
X73964766Y-74371101D01*
X73926671Y-74447291D01*
X73926671Y-74523482D01*
X73964766Y-74637767D01*
X74421909Y-75094910D01*
X73926671Y-75094910D01*
G04 #@! TO.C,JP1*
X50666664Y-71056410D02*
X50666664Y-71627839D01*
X50704759Y-71742125D01*
X50780950Y-71818315D01*
X50895236Y-71856410D01*
X50971426Y-71856410D01*
X50285712Y-71856410D02*
X50285712Y-71056410D01*
X49980950Y-71056410D01*
X49904759Y-71094506D01*
X49866664Y-71132601D01*
X49828569Y-71208791D01*
X49828569Y-71323077D01*
X49866664Y-71399267D01*
X49904759Y-71437363D01*
X49980950Y-71475458D01*
X50285712Y-71475458D01*
X49066664Y-71856410D02*
X49523807Y-71856410D01*
X49295236Y-71856410D02*
X49295236Y-71056410D01*
X49371426Y-71170696D01*
X49447617Y-71246886D01*
X49523807Y-71284982D01*
G04 #@! TO.C,JP2*
X50666664Y-74294910D02*
X50666664Y-74866339D01*
X50704759Y-74980625D01*
X50780950Y-75056815D01*
X50895236Y-75094910D01*
X50971426Y-75094910D01*
X50285712Y-75094910D02*
X50285712Y-74294910D01*
X49980950Y-74294910D01*
X49904759Y-74333006D01*
X49866664Y-74371101D01*
X49828569Y-74447291D01*
X49828569Y-74561577D01*
X49866664Y-74637767D01*
X49904759Y-74675863D01*
X49980950Y-74713958D01*
X50285712Y-74713958D01*
X49523807Y-74371101D02*
X49485712Y-74333006D01*
X49409521Y-74294910D01*
X49219045Y-74294910D01*
X49142855Y-74333006D01*
X49104759Y-74371101D01*
X49066664Y-74447291D01*
X49066664Y-74523482D01*
X49104759Y-74637767D01*
X49561902Y-75094910D01*
X49066664Y-75094910D01*
G04 #@! TO.C,JP1*
X100386678Y-46196401D02*
X100386678Y-46767830D01*
X100424773Y-46882116D01*
X100500964Y-46958306D01*
X100615250Y-46996401D01*
X100691440Y-46996401D01*
X100005726Y-46996401D02*
X100005726Y-46196401D01*
X99700964Y-46196401D01*
X99624773Y-46234497D01*
X99586678Y-46272592D01*
X99548583Y-46348782D01*
X99548583Y-46463068D01*
X99586678Y-46539258D01*
X99624773Y-46577354D01*
X99700964Y-46615449D01*
X100005726Y-46615449D01*
X98786678Y-46996401D02*
X99243821Y-46996401D01*
X99015250Y-46996401D02*
X99015250Y-46196401D01*
X99091440Y-46310687D01*
X99167631Y-46386877D01*
X99243821Y-46424973D01*
G04 #@! TO.C,JP2*
X100386678Y-49434901D02*
X100386678Y-50006330D01*
X100424773Y-50120616D01*
X100500964Y-50196806D01*
X100615250Y-50234901D01*
X100691440Y-50234901D01*
X100005726Y-50234901D02*
X100005726Y-49434901D01*
X99700964Y-49434901D01*
X99624773Y-49472997D01*
X99586678Y-49511092D01*
X99548583Y-49587282D01*
X99548583Y-49701568D01*
X99586678Y-49777758D01*
X99624773Y-49815854D01*
X99700964Y-49853949D01*
X100005726Y-49853949D01*
X99243821Y-49511092D02*
X99205726Y-49472997D01*
X99129535Y-49434901D01*
X98939059Y-49434901D01*
X98862869Y-49472997D01*
X98824773Y-49511092D01*
X98786678Y-49587282D01*
X98786678Y-49663473D01*
X98824773Y-49777758D01*
X99281916Y-50234901D01*
X98786678Y-50234901D01*
G04 #@! TO.C,JP1*
X75526671Y-46196401D02*
X75526671Y-46767830D01*
X75564766Y-46882116D01*
X75640957Y-46958306D01*
X75755243Y-46996401D01*
X75831433Y-46996401D01*
X75145719Y-46996401D02*
X75145719Y-46196401D01*
X74840957Y-46196401D01*
X74764766Y-46234497D01*
X74726671Y-46272592D01*
X74688576Y-46348782D01*
X74688576Y-46463068D01*
X74726671Y-46539258D01*
X74764766Y-46577354D01*
X74840957Y-46615449D01*
X75145719Y-46615449D01*
X73926671Y-46996401D02*
X74383814Y-46996401D01*
X74155243Y-46996401D02*
X74155243Y-46196401D01*
X74231433Y-46310687D01*
X74307624Y-46386877D01*
X74383814Y-46424973D01*
G04 #@! TO.C,JP2*
X75526671Y-49434901D02*
X75526671Y-50006330D01*
X75564766Y-50120616D01*
X75640957Y-50196806D01*
X75755243Y-50234901D01*
X75831433Y-50234901D01*
X75145719Y-50234901D02*
X75145719Y-49434901D01*
X74840957Y-49434901D01*
X74764766Y-49472997D01*
X74726671Y-49511092D01*
X74688576Y-49587282D01*
X74688576Y-49701568D01*
X74726671Y-49777758D01*
X74764766Y-49815854D01*
X74840957Y-49853949D01*
X75145719Y-49853949D01*
X74383814Y-49511092D02*
X74345719Y-49472997D01*
X74269528Y-49434901D01*
X74079052Y-49434901D01*
X74002862Y-49472997D01*
X73964766Y-49511092D01*
X73926671Y-49587282D01*
X73926671Y-49663473D01*
X73964766Y-49777758D01*
X74421909Y-50234901D01*
X73926671Y-50234901D01*
G04 #@! TO.C,JP1*
X50666664Y-46196401D02*
X50666664Y-46767830D01*
X50704759Y-46882116D01*
X50780950Y-46958306D01*
X50895236Y-46996401D01*
X50971426Y-46996401D01*
X50285712Y-46996401D02*
X50285712Y-46196401D01*
X49980950Y-46196401D01*
X49904759Y-46234497D01*
X49866664Y-46272592D01*
X49828569Y-46348782D01*
X49828569Y-46463068D01*
X49866664Y-46539258D01*
X49904759Y-46577354D01*
X49980950Y-46615449D01*
X50285712Y-46615449D01*
X49066664Y-46996401D02*
X49523807Y-46996401D01*
X49295236Y-46996401D02*
X49295236Y-46196401D01*
X49371426Y-46310687D01*
X49447617Y-46386877D01*
X49523807Y-46424973D01*
G04 #@! TO.C,JP2*
X50666664Y-49434901D02*
X50666664Y-50006330D01*
X50704759Y-50120616D01*
X50780950Y-50196806D01*
X50895236Y-50234901D01*
X50971426Y-50234901D01*
X50285712Y-50234901D02*
X50285712Y-49434901D01*
X49980950Y-49434901D01*
X49904759Y-49472997D01*
X49866664Y-49511092D01*
X49828569Y-49587282D01*
X49828569Y-49701568D01*
X49866664Y-49777758D01*
X49904759Y-49815854D01*
X49980950Y-49853949D01*
X50285712Y-49853949D01*
X49523807Y-49511092D02*
X49485712Y-49472997D01*
X49409521Y-49434901D01*
X49219045Y-49434901D01*
X49142855Y-49472997D01*
X49104759Y-49511092D01*
X49066664Y-49587282D01*
X49066664Y-49663473D01*
X49104759Y-49777758D01*
X49561902Y-50234901D01*
X49066664Y-50234901D01*
G04 #@! TD*
M02*
