M48
; DRILL file {KiCad 5.1.5+dfsg1-2build2} date Thu Sep 30 13:46:45 2021
; FORMAT={-:-/ absolute / metric / decimal}
; #@! TF.CreationDate,2021-09-30T13:46:45+00:00
; #@! TF.GenerationSoftware,Kicad,Pcbnew,5.1.5+dfsg1-2build2
FMAT,2
METRIC
T1C0.300
T2C0.600
T3C0.850
T4C1.000
T5C2.700
%
G90
G05
T1
X43.65Y-46.19
X43.65Y-71.05
X43.65Y-95.91
X44.539Y-48.73
X44.539Y-73.59
X44.539Y-98.45
X47.46Y-46.19
X47.46Y-71.05
X47.46Y-95.91
X48.73Y-43.65
X48.73Y-68.51
X48.73Y-93.37
X49.174Y-51.46
X49.174Y-76.321
X49.174Y-101.181
X49.365Y-48.222
X49.365Y-73.082
X49.365Y-97.942
X50.0Y-44.475
X50.0Y-69.336
X50.0Y-94.196
X50.635Y-48.222
X50.635Y-73.082
X50.635Y-97.942
X50.825Y-51.46
X50.825Y-76.321
X50.825Y-101.181
X51.27Y-45.047
X51.27Y-69.907
X51.27Y-94.767
X51.3Y-41.627
X51.3Y-66.488
X51.3Y-91.348
X52.54Y-46.253
X52.54Y-71.114
X52.54Y-95.974
X53.81Y-48.73
X53.81Y-73.59
X53.81Y-98.45
X55.651Y-51.778
X55.651Y-76.638
X55.651Y-101.498
X68.51Y-46.19
X68.51Y-71.05
X68.51Y-95.91
X69.399Y-48.73
X69.399Y-73.59
X69.399Y-98.45
X72.32Y-46.19
X72.32Y-71.05
X72.32Y-95.91
X73.59Y-43.65
X73.59Y-68.51
X73.59Y-93.37
X74.035Y-51.46
X74.035Y-76.321
X74.035Y-101.181
X74.225Y-48.222
X74.225Y-73.082
X74.225Y-97.942
X74.86Y-44.475
X74.86Y-69.336
X74.86Y-94.196
X75.495Y-48.222
X75.495Y-73.082
X75.495Y-97.942
X75.686Y-51.46
X75.686Y-76.321
X75.686Y-101.181
X76.13Y-45.047
X76.13Y-69.907
X76.13Y-94.767
X76.16Y-41.627
X76.16Y-66.488
X76.16Y-91.348
X77.4Y-46.253
X77.4Y-71.114
X77.4Y-95.974
X78.67Y-48.73
X78.67Y-73.59
X78.67Y-98.45
X80.512Y-51.778
X80.512Y-76.638
X80.512Y-101.498
X93.37Y-46.19
X93.37Y-71.05
X93.37Y-95.91
X94.259Y-48.73
X94.259Y-73.59
X94.259Y-98.45
X97.18Y-46.19
X97.18Y-71.05
X97.18Y-95.91
X98.45Y-43.65
X98.45Y-68.51
X98.45Y-93.37
X98.895Y-51.46
X98.895Y-76.321
X98.895Y-101.181
X99.085Y-48.222
X99.085Y-73.082
X99.085Y-97.942
X99.72Y-44.475
X99.72Y-69.336
X99.72Y-94.196
X100.355Y-48.222
X100.355Y-73.082
X100.355Y-97.942
X100.546Y-51.46
X100.546Y-76.321
X100.546Y-101.181
X100.99Y-45.047
X100.99Y-69.907
X100.99Y-94.767
X101.02Y-41.627
X101.02Y-66.488
X101.02Y-91.348
X102.26Y-46.253
X102.26Y-71.114
X102.26Y-95.974
X103.53Y-48.73
X103.53Y-73.59
X103.53Y-98.45
X105.372Y-51.778
X105.372Y-76.638
X105.372Y-101.498
T3
X47.5Y-92.293
X52.5Y-92.293
X97.22Y-67.433
X102.22Y-67.433
X72.36Y-42.572
X77.36Y-42.572
X97.22Y-92.293
X102.22Y-92.293
X72.36Y-92.293
X77.36Y-92.293
X47.5Y-67.433
X52.5Y-67.433
X47.5Y-42.572
X52.5Y-42.572
X97.22Y-42.572
X102.22Y-42.572
X72.36Y-67.433
X77.36Y-67.433
T4
X83.75Y-46.19
X83.75Y-48.73
X83.75Y-51.27
X83.75Y-53.81
X83.75Y-56.35
X83.75Y-58.89
X108.61Y-95.91
X108.61Y-98.45
X108.61Y-100.99
X108.61Y-103.53
X108.61Y-106.07
X108.61Y-108.61
X90.83Y-71.05
X90.83Y-73.59
X90.83Y-76.13
X90.83Y-78.67
X90.83Y-81.21
X90.83Y-83.75
X108.61Y-71.05
X108.61Y-73.59
X108.61Y-76.13
X108.61Y-78.67
X108.61Y-81.21
X108.61Y-83.75
X65.97Y-71.05
X65.97Y-73.59
X65.97Y-76.13
X65.97Y-78.67
X65.97Y-81.21
X65.97Y-83.75
X65.97Y-46.19
X65.97Y-48.73
X65.97Y-51.27
X65.97Y-53.81
X65.97Y-56.35
X65.97Y-58.89
X65.97Y-95.91
X65.97Y-98.45
X65.97Y-100.99
X65.97Y-103.53
X65.97Y-106.07
X65.97Y-108.61
X41.11Y-71.05
X41.11Y-73.59
X41.11Y-76.13
X41.11Y-78.67
X41.11Y-81.21
X41.11Y-83.75
X90.83Y-95.91
X90.83Y-98.45
X90.83Y-100.99
X90.83Y-103.53
X90.83Y-106.07
X90.83Y-108.61
X83.75Y-71.05
X83.75Y-73.59
X83.75Y-76.13
X83.75Y-78.67
X83.75Y-81.21
X83.75Y-83.75
X83.75Y-95.91
X83.75Y-98.45
X83.75Y-100.99
X83.75Y-103.53
X83.75Y-106.07
X83.75Y-108.61
X58.89Y-95.91
X58.89Y-98.45
X58.89Y-100.99
X58.89Y-103.53
X58.89Y-106.07
X58.89Y-108.61
X58.89Y-71.05
X58.89Y-73.59
X58.89Y-76.13
X58.89Y-78.67
X58.89Y-81.21
X58.89Y-83.75
X58.89Y-46.19
X58.89Y-48.73
X58.89Y-51.27
X58.89Y-53.81
X58.89Y-56.35
X58.89Y-58.89
X90.83Y-46.19
X90.83Y-48.73
X90.83Y-51.27
X90.83Y-53.81
X90.83Y-56.35
X90.83Y-58.89
X108.61Y-46.19
X108.61Y-48.73
X108.61Y-51.27
X108.61Y-53.81
X108.61Y-56.35
X108.61Y-58.89
X41.11Y-95.91
X41.11Y-98.45
X41.11Y-100.99
X41.11Y-103.53
X41.11Y-106.07
X41.11Y-108.61
X41.11Y-46.19
X41.11Y-48.73
X41.11Y-51.27
X41.11Y-53.81
X41.11Y-56.35
X41.11Y-58.89
T5
X83.75Y-41.11
X58.89Y-65.97
X90.83Y-41.11
X41.11Y-90.83
X108.61Y-41.11
X41.11Y-41.11
X58.89Y-90.83
X58.89Y-41.11
X83.75Y-90.83
X90.83Y-65.97
X108.61Y-90.83
X65.97Y-65.97
X65.97Y-41.11
X108.61Y-65.97
X65.97Y-90.83
X41.11Y-65.97
X90.83Y-90.83
X83.75Y-65.97
T2
X96.22Y-89.943G85X96.22Y-89.243
G05
X103.22Y-89.243G85X103.22Y-89.943
G05
X71.36Y-89.943G85X71.36Y-89.243
G05
X78.36Y-89.243G85X78.36Y-89.943
G05
X46.5Y-65.083G85X46.5Y-64.383
G05
X53.5Y-64.383G85X53.5Y-65.083
G05
X46.5Y-40.222G85X46.5Y-39.522
G05
X53.5Y-39.522G85X53.5Y-40.222
G05
X96.22Y-40.222G85X96.22Y-39.522
G05
X103.22Y-39.522G85X103.22Y-40.222
G05
X71.36Y-65.083G85X71.36Y-64.383
G05
X78.36Y-64.383G85X78.36Y-65.083
G05
X46.5Y-89.943G85X46.5Y-89.243
G05
X53.5Y-89.243G85X53.5Y-89.943
G05
X96.22Y-65.083G85X96.22Y-64.383
G05
X103.22Y-64.383G85X103.22Y-65.083
G05
X71.36Y-40.222G85X71.36Y-39.522
G05
X78.36Y-39.522G85X78.36Y-40.222
G05
T0
M30
