G04 #@! TF.GenerationSoftware,KiCad,Pcbnew,5.1.5+dfsg1-2build2*
G04 #@! TF.CreationDate,2021-09-30T13:46:46+00:00*
G04 #@! TF.ProjectId,mcp2221a-breakout,6d637032-3232-4316-912d-627265616b6f,rev?*
G04 #@! TF.SameCoordinates,Original*
G04 #@! TF.FileFunction,Legend,Bot*
G04 #@! TF.FilePolarity,Positive*
%FSLAX46Y46*%
G04 Gerber Fmt 4.6, Leading zero omitted, Abs format (unit mm)*
G04 Created by KiCad (PCBNEW 5.1.5+dfsg1-2build2) date 2021-09-30 13:46:46*
%MOMM*%
%LPD*%
G04 APERTURE LIST*
%ADD10C,0.120000*%
%ADD11C,0.150000*%
G04 APERTURE END LIST*
D10*
X103886000Y-49470000D02*
X103886000Y-64830000D01*
X100390000Y-49470000D02*
X103886000Y-49470000D01*
X100390000Y-64830000D02*
X103886000Y-64830000D01*
X112014000Y-64830000D02*
X115510000Y-64830000D01*
X112014000Y-49470000D02*
X112014000Y-64830000D01*
X115510000Y-49470000D02*
X112014000Y-49470000D01*
D11*
X115123261Y-50252380D02*
X114789928Y-51252380D01*
X114456595Y-50252380D01*
X113789928Y-50728571D02*
X113647071Y-50776190D01*
X113599452Y-50823809D01*
X113551833Y-50919047D01*
X113551833Y-51061904D01*
X113599452Y-51157142D01*
X113647071Y-51204761D01*
X113742309Y-51252380D01*
X114123261Y-51252380D01*
X114123261Y-50252380D01*
X113789928Y-50252380D01*
X113694690Y-50300000D01*
X113647071Y-50347619D01*
X113599452Y-50442857D01*
X113599452Y-50538095D01*
X113647071Y-50633333D01*
X113694690Y-50680952D01*
X113789928Y-50728571D01*
X114123261Y-50728571D01*
X113123261Y-50252380D02*
X113123261Y-51061904D01*
X113075642Y-51157142D01*
X113028023Y-51204761D01*
X112932785Y-51252380D01*
X112742309Y-51252380D01*
X112647071Y-51204761D01*
X112599452Y-51157142D01*
X112551833Y-51061904D01*
X112551833Y-50252380D01*
X111616666Y-59699380D02*
X111616666Y-58699380D01*
X111283333Y-59413666D01*
X110950000Y-58699380D01*
X110950000Y-59699380D01*
X109902380Y-59604142D02*
X109950000Y-59651761D01*
X110092857Y-59699380D01*
X110188095Y-59699380D01*
X110330952Y-59651761D01*
X110426190Y-59556523D01*
X110473809Y-59461285D01*
X110521428Y-59270809D01*
X110521428Y-59127952D01*
X110473809Y-58937476D01*
X110426190Y-58842238D01*
X110330952Y-58747000D01*
X110188095Y-58699380D01*
X110092857Y-58699380D01*
X109950000Y-58747000D01*
X109902380Y-58794619D01*
X109473809Y-59699380D02*
X109473809Y-58699380D01*
X109092857Y-58699380D01*
X108997619Y-58747000D01*
X108950000Y-58794619D01*
X108902380Y-58889857D01*
X108902380Y-59032714D01*
X108950000Y-59127952D01*
X108997619Y-59175571D01*
X109092857Y-59223190D01*
X109473809Y-59223190D01*
X108521428Y-58794619D02*
X108473809Y-58747000D01*
X108378571Y-58699380D01*
X108140476Y-58699380D01*
X108045238Y-58747000D01*
X107997619Y-58794619D01*
X107950000Y-58889857D01*
X107950000Y-58985095D01*
X107997619Y-59127952D01*
X108569047Y-59699380D01*
X107950000Y-59699380D01*
X107569047Y-58794619D02*
X107521428Y-58747000D01*
X107426190Y-58699380D01*
X107188095Y-58699380D01*
X107092857Y-58747000D01*
X107045238Y-58794619D01*
X106997619Y-58889857D01*
X106997619Y-58985095D01*
X107045238Y-59127952D01*
X107616666Y-59699380D01*
X106997619Y-59699380D01*
X106616666Y-58794619D02*
X106569047Y-58747000D01*
X106473809Y-58699380D01*
X106235714Y-58699380D01*
X106140476Y-58747000D01*
X106092857Y-58794619D01*
X106045238Y-58889857D01*
X106045238Y-58985095D01*
X106092857Y-59127952D01*
X106664285Y-59699380D01*
X106045238Y-59699380D01*
X105092857Y-59699380D02*
X105664285Y-59699380D01*
X105378571Y-59699380D02*
X105378571Y-58699380D01*
X105473809Y-58842238D01*
X105569047Y-58937476D01*
X105664285Y-58985095D01*
X104711904Y-59413666D02*
X104235714Y-59413666D01*
X104807142Y-59699380D02*
X104473809Y-58699380D01*
X104140476Y-59699380D01*
X110664285Y-60825571D02*
X110521428Y-60873190D01*
X110473809Y-60920809D01*
X110426190Y-61016047D01*
X110426190Y-61158904D01*
X110473809Y-61254142D01*
X110521428Y-61301761D01*
X110616666Y-61349380D01*
X110997619Y-61349380D01*
X110997619Y-60349380D01*
X110664285Y-60349380D01*
X110569047Y-60397000D01*
X110521428Y-60444619D01*
X110473809Y-60539857D01*
X110473809Y-60635095D01*
X110521428Y-60730333D01*
X110569047Y-60777952D01*
X110664285Y-60825571D01*
X110997619Y-60825571D01*
X109997619Y-61349380D02*
X109997619Y-60682714D01*
X109997619Y-60873190D02*
X109950000Y-60777952D01*
X109902380Y-60730333D01*
X109807142Y-60682714D01*
X109711904Y-60682714D01*
X108997619Y-61301761D02*
X109092857Y-61349380D01*
X109283333Y-61349380D01*
X109378571Y-61301761D01*
X109426190Y-61206523D01*
X109426190Y-60825571D01*
X109378571Y-60730333D01*
X109283333Y-60682714D01*
X109092857Y-60682714D01*
X108997619Y-60730333D01*
X108950000Y-60825571D01*
X108950000Y-60920809D01*
X109426190Y-61016047D01*
X108092857Y-61349380D02*
X108092857Y-60825571D01*
X108140476Y-60730333D01*
X108235714Y-60682714D01*
X108426190Y-60682714D01*
X108521428Y-60730333D01*
X108092857Y-61301761D02*
X108188095Y-61349380D01*
X108426190Y-61349380D01*
X108521428Y-61301761D01*
X108569047Y-61206523D01*
X108569047Y-61111285D01*
X108521428Y-61016047D01*
X108426190Y-60968428D01*
X108188095Y-60968428D01*
X108092857Y-60920809D01*
X107616666Y-61349380D02*
X107616666Y-60349380D01*
X107521428Y-60968428D02*
X107235714Y-61349380D01*
X107235714Y-60682714D02*
X107616666Y-61063666D01*
X106664285Y-61349380D02*
X106759523Y-61301761D01*
X106807142Y-61254142D01*
X106854761Y-61158904D01*
X106854761Y-60873190D01*
X106807142Y-60777952D01*
X106759523Y-60730333D01*
X106664285Y-60682714D01*
X106521428Y-60682714D01*
X106426190Y-60730333D01*
X106378571Y-60777952D01*
X106330952Y-60873190D01*
X106330952Y-61158904D01*
X106378571Y-61254142D01*
X106426190Y-61301761D01*
X106521428Y-61349380D01*
X106664285Y-61349380D01*
X105473809Y-60682714D02*
X105473809Y-61349380D01*
X105902380Y-60682714D02*
X105902380Y-61206523D01*
X105854761Y-61301761D01*
X105759523Y-61349380D01*
X105616666Y-61349380D01*
X105521428Y-61301761D01*
X105473809Y-61254142D01*
X105140476Y-60682714D02*
X104759523Y-60682714D01*
X104997619Y-60349380D02*
X104997619Y-61206523D01*
X104950000Y-61301761D01*
X104854761Y-61349380D01*
X104759523Y-61349380D01*
X110164285Y-61999380D02*
X109592857Y-61999380D01*
X109878571Y-62999380D02*
X109878571Y-61999380D01*
X108926190Y-62475571D02*
X108783333Y-62523190D01*
X108735714Y-62570809D01*
X108688095Y-62666047D01*
X108688095Y-62808904D01*
X108735714Y-62904142D01*
X108783333Y-62951761D01*
X108878571Y-62999380D01*
X109259523Y-62999380D01*
X109259523Y-61999380D01*
X108926190Y-61999380D01*
X108830952Y-62047000D01*
X108783333Y-62094619D01*
X108735714Y-62189857D01*
X108735714Y-62285095D01*
X108783333Y-62380333D01*
X108830952Y-62427952D01*
X108926190Y-62475571D01*
X109259523Y-62475571D01*
X107830952Y-62332714D02*
X107830952Y-62999380D01*
X108069047Y-61951761D02*
X108307142Y-62666047D01*
X107688095Y-62666047D01*
X107116666Y-61999380D02*
X107021428Y-61999380D01*
X106926190Y-62047000D01*
X106878571Y-62094619D01*
X106830952Y-62189857D01*
X106783333Y-62380333D01*
X106783333Y-62618428D01*
X106830952Y-62808904D01*
X106878571Y-62904142D01*
X106926190Y-62951761D01*
X107021428Y-62999380D01*
X107116666Y-62999380D01*
X107211904Y-62951761D01*
X107259523Y-62904142D01*
X107307142Y-62808904D01*
X107354761Y-62618428D01*
X107354761Y-62380333D01*
X107307142Y-62189857D01*
X107259523Y-62094619D01*
X107211904Y-62047000D01*
X107116666Y-61999380D01*
X106450000Y-61999380D02*
X105830952Y-61999380D01*
X106164285Y-62380333D01*
X106021428Y-62380333D01*
X105926190Y-62427952D01*
X105878571Y-62475571D01*
X105830952Y-62570809D01*
X105830952Y-62808904D01*
X105878571Y-62904142D01*
X105926190Y-62951761D01*
X106021428Y-62999380D01*
X106307142Y-62999380D01*
X106402380Y-62951761D01*
X106450000Y-62904142D01*
X111569047Y-63744619D02*
X111521428Y-63697000D01*
X111426190Y-63649380D01*
X111188095Y-63649380D01*
X111092857Y-63697000D01*
X111045238Y-63744619D01*
X110997619Y-63839857D01*
X110997619Y-63935095D01*
X111045238Y-64077952D01*
X111616666Y-64649380D01*
X110997619Y-64649380D01*
X110378571Y-63649380D02*
X110283333Y-63649380D01*
X110188095Y-63697000D01*
X110140476Y-63744619D01*
X110092857Y-63839857D01*
X110045238Y-64030333D01*
X110045238Y-64268428D01*
X110092857Y-64458904D01*
X110140476Y-64554142D01*
X110188095Y-64601761D01*
X110283333Y-64649380D01*
X110378571Y-64649380D01*
X110473809Y-64601761D01*
X110521428Y-64554142D01*
X110569047Y-64458904D01*
X110616666Y-64268428D01*
X110616666Y-64030333D01*
X110569047Y-63839857D01*
X110521428Y-63744619D01*
X110473809Y-63697000D01*
X110378571Y-63649380D01*
X109664285Y-63744619D02*
X109616666Y-63697000D01*
X109521428Y-63649380D01*
X109283333Y-63649380D01*
X109188095Y-63697000D01*
X109140476Y-63744619D01*
X109092857Y-63839857D01*
X109092857Y-63935095D01*
X109140476Y-64077952D01*
X109711904Y-64649380D01*
X109092857Y-64649380D01*
X108140476Y-64649380D02*
X108711904Y-64649380D01*
X108426190Y-64649380D02*
X108426190Y-63649380D01*
X108521428Y-63792238D01*
X108616666Y-63887476D01*
X108711904Y-63935095D01*
X107521428Y-63649380D02*
X107426190Y-63649380D01*
X107330952Y-63697000D01*
X107283333Y-63744619D01*
X107235714Y-63839857D01*
X107188095Y-64030333D01*
X107188095Y-64268428D01*
X107235714Y-64458904D01*
X107283333Y-64554142D01*
X107330952Y-64601761D01*
X107426190Y-64649380D01*
X107521428Y-64649380D01*
X107616666Y-64601761D01*
X107664285Y-64554142D01*
X107711904Y-64458904D01*
X107759523Y-64268428D01*
X107759523Y-64030333D01*
X107711904Y-63839857D01*
X107664285Y-63744619D01*
X107616666Y-63697000D01*
X107521428Y-63649380D01*
X106854761Y-63649380D02*
X106188095Y-63649380D01*
X106616666Y-64649380D01*
X105283333Y-64649380D02*
X105854761Y-64649380D01*
X105569047Y-64649380D02*
X105569047Y-63649380D01*
X105664285Y-63792238D01*
X105759523Y-63887476D01*
X105854761Y-63935095D01*
X104426190Y-63649380D02*
X104616666Y-63649380D01*
X104711904Y-63697000D01*
X104759523Y-63744619D01*
X104854761Y-63887476D01*
X104902380Y-64077952D01*
X104902380Y-64458904D01*
X104854761Y-64554142D01*
X104807142Y-64601761D01*
X104711904Y-64649380D01*
X104521428Y-64649380D01*
X104426190Y-64601761D01*
X104378571Y-64554142D01*
X104330952Y-64458904D01*
X104330952Y-64220809D01*
X104378571Y-64125571D01*
X104426190Y-64077952D01*
X104521428Y-64030333D01*
X104711904Y-64030333D01*
X104807142Y-64077952D01*
X104854761Y-64125571D01*
X104902380Y-64220809D01*
X114456595Y-52840000D02*
X114551833Y-52792380D01*
X114694690Y-52792380D01*
X114837547Y-52840000D01*
X114932785Y-52935238D01*
X114980404Y-53030476D01*
X115028023Y-53220952D01*
X115028023Y-53363809D01*
X114980404Y-53554285D01*
X114932785Y-53649523D01*
X114837547Y-53744761D01*
X114694690Y-53792380D01*
X114599452Y-53792380D01*
X114456595Y-53744761D01*
X114408976Y-53697142D01*
X114408976Y-53363809D01*
X114599452Y-53363809D01*
X113980404Y-53792380D02*
X113980404Y-52792380D01*
X113408976Y-53792380D01*
X113408976Y-52792380D01*
X112932785Y-53792380D02*
X112932785Y-52792380D01*
X112694690Y-52792380D01*
X112551833Y-52840000D01*
X112456595Y-52935238D01*
X112408976Y-53030476D01*
X112361357Y-53220952D01*
X112361357Y-53363809D01*
X112408976Y-53554285D01*
X112456595Y-53649523D01*
X112551833Y-53744761D01*
X112694690Y-53792380D01*
X112932785Y-53792380D01*
X114456595Y-63000000D02*
X114551833Y-62952380D01*
X114694690Y-62952380D01*
X114837547Y-63000000D01*
X114932785Y-63095238D01*
X114980404Y-63190476D01*
X115028023Y-63380952D01*
X115028023Y-63523809D01*
X114980404Y-63714285D01*
X114932785Y-63809523D01*
X114837547Y-63904761D01*
X114694690Y-63952380D01*
X114599452Y-63952380D01*
X114456595Y-63904761D01*
X114408976Y-63857142D01*
X114408976Y-63523809D01*
X114599452Y-63523809D01*
X113980404Y-63952380D02*
X113980404Y-62952380D01*
X113599452Y-62952380D01*
X113504214Y-63000000D01*
X113456595Y-63047619D01*
X113408976Y-63142857D01*
X113408976Y-63285714D01*
X113456595Y-63380952D01*
X113504214Y-63428571D01*
X113599452Y-63476190D01*
X113980404Y-63476190D01*
X113075642Y-62952380D02*
X112456595Y-62952380D01*
X112789928Y-63333333D01*
X112647071Y-63333333D01*
X112551833Y-63380952D01*
X112504214Y-63428571D01*
X112456595Y-63523809D01*
X112456595Y-63761904D01*
X112504214Y-63857142D01*
X112551833Y-63904761D01*
X112647071Y-63952380D01*
X112932785Y-63952380D01*
X113028023Y-63904761D01*
X113075642Y-63857142D01*
X115028023Y-61364761D02*
X114885166Y-61412380D01*
X114647071Y-61412380D01*
X114551833Y-61364761D01*
X114504214Y-61317142D01*
X114456595Y-61221904D01*
X114456595Y-61126666D01*
X114504214Y-61031428D01*
X114551833Y-60983809D01*
X114647071Y-60936190D01*
X114837547Y-60888571D01*
X114932785Y-60840952D01*
X114980404Y-60793333D01*
X115028023Y-60698095D01*
X115028023Y-60602857D01*
X114980404Y-60507619D01*
X114932785Y-60460000D01*
X114837547Y-60412380D01*
X114599452Y-60412380D01*
X114456595Y-60460000D01*
X114028023Y-61412380D02*
X114028023Y-60412380D01*
X113789928Y-60412380D01*
X113647071Y-60460000D01*
X113551833Y-60555238D01*
X113504214Y-60650476D01*
X113456595Y-60840952D01*
X113456595Y-60983809D01*
X113504214Y-61174285D01*
X113551833Y-61269523D01*
X113647071Y-61364761D01*
X113789928Y-61412380D01*
X114028023Y-61412380D01*
X113075642Y-61126666D02*
X112599452Y-61126666D01*
X113170880Y-61412380D02*
X112837547Y-60412380D01*
X112504214Y-61412380D01*
X115028023Y-58824761D02*
X114885166Y-58872380D01*
X114647071Y-58872380D01*
X114551833Y-58824761D01*
X114504214Y-58777142D01*
X114456595Y-58681904D01*
X114456595Y-58586666D01*
X114504214Y-58491428D01*
X114551833Y-58443809D01*
X114647071Y-58396190D01*
X114837547Y-58348571D01*
X114932785Y-58300952D01*
X114980404Y-58253333D01*
X115028023Y-58158095D01*
X115028023Y-58062857D01*
X114980404Y-57967619D01*
X114932785Y-57920000D01*
X114837547Y-57872380D01*
X114599452Y-57872380D01*
X114456595Y-57920000D01*
X113456595Y-58777142D02*
X113504214Y-58824761D01*
X113647071Y-58872380D01*
X113742309Y-58872380D01*
X113885166Y-58824761D01*
X113980404Y-58729523D01*
X114028023Y-58634285D01*
X114075642Y-58443809D01*
X114075642Y-58300952D01*
X114028023Y-58110476D01*
X113980404Y-58015238D01*
X113885166Y-57920000D01*
X113742309Y-57872380D01*
X113647071Y-57872380D01*
X113504214Y-57920000D01*
X113456595Y-57967619D01*
X112551833Y-58872380D02*
X113028023Y-58872380D01*
X113028023Y-57872380D01*
X115123261Y-55332380D02*
X114789928Y-56332380D01*
X114456595Y-55332380D01*
X114123261Y-56332380D02*
X114123261Y-55332380D01*
X113885166Y-55332380D01*
X113742309Y-55380000D01*
X113647071Y-55475238D01*
X113599452Y-55570476D01*
X113551833Y-55760952D01*
X113551833Y-55903809D01*
X113599452Y-56094285D01*
X113647071Y-56189523D01*
X113742309Y-56284761D01*
X113885166Y-56332380D01*
X114123261Y-56332380D01*
X113123261Y-56332380D02*
X113123261Y-55332380D01*
X112885166Y-55332380D01*
X112742309Y-55380000D01*
X112647071Y-55475238D01*
X112599452Y-55570476D01*
X112551833Y-55760952D01*
X112551833Y-55903809D01*
X112599452Y-56094285D01*
X112647071Y-56189523D01*
X112742309Y-56284761D01*
X112885166Y-56332380D01*
X113123261Y-56332380D01*
X102871976Y-63000000D02*
X102967214Y-62952380D01*
X103110071Y-62952380D01*
X103252928Y-63000000D01*
X103348166Y-63095238D01*
X103395785Y-63190476D01*
X103443404Y-63380952D01*
X103443404Y-63523809D01*
X103395785Y-63714285D01*
X103348166Y-63809523D01*
X103252928Y-63904761D01*
X103110071Y-63952380D01*
X103014833Y-63952380D01*
X102871976Y-63904761D01*
X102824357Y-63857142D01*
X102824357Y-63523809D01*
X103014833Y-63523809D01*
X102395785Y-63952380D02*
X102395785Y-62952380D01*
X102014833Y-62952380D01*
X101919595Y-63000000D01*
X101871976Y-63047619D01*
X101824357Y-63142857D01*
X101824357Y-63285714D01*
X101871976Y-63380952D01*
X101919595Y-63428571D01*
X102014833Y-63476190D01*
X102395785Y-63476190D01*
X101443404Y-63047619D02*
X101395785Y-63000000D01*
X101300547Y-62952380D01*
X101062452Y-62952380D01*
X100967214Y-63000000D01*
X100919595Y-63047619D01*
X100871976Y-63142857D01*
X100871976Y-63238095D01*
X100919595Y-63380952D01*
X101491023Y-63952380D01*
X100871976Y-63952380D01*
X102157690Y-60412380D02*
X101586261Y-60412380D01*
X101871976Y-61412380D02*
X101871976Y-60412380D01*
X101348166Y-61412380D02*
X100824357Y-60745714D01*
X101348166Y-60745714D02*
X100824357Y-61412380D01*
X101681500Y-58872380D02*
X102014833Y-58396190D01*
X102252928Y-58872380D02*
X102252928Y-57872380D01*
X101871976Y-57872380D01*
X101776738Y-57920000D01*
X101729119Y-57967619D01*
X101681500Y-58062857D01*
X101681500Y-58205714D01*
X101729119Y-58300952D01*
X101776738Y-58348571D01*
X101871976Y-58396190D01*
X102252928Y-58396190D01*
X101348166Y-58872380D02*
X100824357Y-58205714D01*
X101348166Y-58205714D02*
X100824357Y-58872380D01*
X103395785Y-54965000D02*
X102395785Y-54965000D01*
X102586261Y-56332380D02*
X102919595Y-55856190D01*
X103157690Y-56332380D02*
X103157690Y-55332380D01*
X102776738Y-55332380D01*
X102681500Y-55380000D01*
X102633880Y-55427619D01*
X102586261Y-55522857D01*
X102586261Y-55665714D01*
X102633880Y-55760952D01*
X102681500Y-55808571D01*
X102776738Y-55856190D01*
X103157690Y-55856190D01*
X102395785Y-54965000D02*
X101443404Y-54965000D01*
X102205309Y-56284761D02*
X102062452Y-56332380D01*
X101824357Y-56332380D01*
X101729119Y-56284761D01*
X101681500Y-56237142D01*
X101633880Y-56141904D01*
X101633880Y-56046666D01*
X101681500Y-55951428D01*
X101729119Y-55903809D01*
X101824357Y-55856190D01*
X102014833Y-55808571D01*
X102110071Y-55760952D01*
X102157690Y-55713333D01*
X102205309Y-55618095D01*
X102205309Y-55522857D01*
X102157690Y-55427619D01*
X102110071Y-55380000D01*
X102014833Y-55332380D01*
X101776738Y-55332380D01*
X101633880Y-55380000D01*
X101443404Y-54965000D02*
X100681500Y-54965000D01*
X101348166Y-55332380D02*
X100776738Y-55332380D01*
X101062452Y-56332380D02*
X101062452Y-55332380D01*
X102871976Y-52840000D02*
X102967214Y-52792380D01*
X103110071Y-52792380D01*
X103252928Y-52840000D01*
X103348166Y-52935238D01*
X103395785Y-53030476D01*
X103443404Y-53220952D01*
X103443404Y-53363809D01*
X103395785Y-53554285D01*
X103348166Y-53649523D01*
X103252928Y-53744761D01*
X103110071Y-53792380D01*
X103014833Y-53792380D01*
X102871976Y-53744761D01*
X102824357Y-53697142D01*
X102824357Y-53363809D01*
X103014833Y-53363809D01*
X102395785Y-53792380D02*
X102395785Y-52792380D01*
X102014833Y-52792380D01*
X101919595Y-52840000D01*
X101871976Y-52887619D01*
X101824357Y-52982857D01*
X101824357Y-53125714D01*
X101871976Y-53220952D01*
X101919595Y-53268571D01*
X102014833Y-53316190D01*
X102395785Y-53316190D01*
X100871976Y-53792380D02*
X101443404Y-53792380D01*
X101157690Y-53792380D02*
X101157690Y-52792380D01*
X101252928Y-52935238D01*
X101348166Y-53030476D01*
X101443404Y-53078095D01*
X102871976Y-50300000D02*
X102967214Y-50252380D01*
X103110071Y-50252380D01*
X103252928Y-50300000D01*
X103348166Y-50395238D01*
X103395785Y-50490476D01*
X103443404Y-50680952D01*
X103443404Y-50823809D01*
X103395785Y-51014285D01*
X103348166Y-51109523D01*
X103252928Y-51204761D01*
X103110071Y-51252380D01*
X103014833Y-51252380D01*
X102871976Y-51204761D01*
X102824357Y-51157142D01*
X102824357Y-50823809D01*
X103014833Y-50823809D01*
X102395785Y-51252380D02*
X102395785Y-50252380D01*
X102014833Y-50252380D01*
X101919595Y-50300000D01*
X101871976Y-50347619D01*
X101824357Y-50442857D01*
X101824357Y-50585714D01*
X101871976Y-50680952D01*
X101919595Y-50728571D01*
X102014833Y-50776190D01*
X102395785Y-50776190D01*
X101205309Y-50252380D02*
X101110071Y-50252380D01*
X101014833Y-50300000D01*
X100967214Y-50347619D01*
X100919595Y-50442857D01*
X100871976Y-50633333D01*
X100871976Y-50871428D01*
X100919595Y-51061904D01*
X100967214Y-51157142D01*
X101014833Y-51204761D01*
X101110071Y-51252380D01*
X101205309Y-51252380D01*
X101300547Y-51204761D01*
X101348166Y-51157142D01*
X101395785Y-51061904D01*
X101443404Y-50871428D01*
X101443404Y-50633333D01*
X101395785Y-50442857D01*
X101348166Y-50347619D01*
X101300547Y-50300000D01*
X101205309Y-50252380D01*
D10*
G04 #@! TO.C,J2*
X100390000Y-64830000D02*
X97730000Y-64830000D01*
X100390000Y-52070000D02*
X100390000Y-64830000D01*
X97730000Y-52070000D02*
X97730000Y-64830000D01*
X100390000Y-52070000D02*
X97730000Y-52070000D01*
X100390000Y-50800000D02*
X100390000Y-49470000D01*
X100390000Y-49470000D02*
X99060000Y-49470000D01*
G04 #@! TO.C,J3*
X115510000Y-49470000D02*
X118170000Y-49470000D01*
X115510000Y-62230000D02*
X115510000Y-49470000D01*
X118170000Y-62230000D02*
X118170000Y-49470000D01*
X115510000Y-62230000D02*
X118170000Y-62230000D01*
X115510000Y-63500000D02*
X115510000Y-64830000D01*
X115510000Y-64830000D02*
X116840000Y-64830000D01*
G04 #@! TO.C,JP2*
X106550000Y-55770500D02*
X106550000Y-56370500D01*
X108650000Y-55070500D02*
X107250000Y-55070500D01*
X109350000Y-56370500D02*
X109350000Y-55770500D01*
X107250000Y-57070500D02*
X108650000Y-57070500D01*
X106550000Y-56370500D02*
G75*
G03X107250000Y-57070500I700000J0D01*
G01*
X107250000Y-55070500D02*
G75*
G03X106550000Y-55770500I0J-700000D01*
G01*
X109350000Y-55770500D02*
G75*
G03X108650000Y-55070500I-700000J0D01*
G01*
X108650000Y-57070500D02*
G75*
G03X109350000Y-56370500I0J700000D01*
G01*
G04 #@! TO.C,JP1*
X109350000Y-53132000D02*
X109350000Y-52532000D01*
X107250000Y-53832000D02*
X108650000Y-53832000D01*
X106550000Y-52532000D02*
X106550000Y-53132000D01*
X108650000Y-51832000D02*
X107250000Y-51832000D01*
X109350000Y-52532000D02*
G75*
G03X108650000Y-51832000I-700000J0D01*
G01*
X108650000Y-53832000D02*
G75*
G03X109350000Y-53132000I0J700000D01*
G01*
X106550000Y-53132000D02*
G75*
G03X107250000Y-53832000I700000J0D01*
G01*
X107250000Y-51832000D02*
G75*
G03X106550000Y-52532000I0J-700000D01*
G01*
G04 #@! TO.C,JP2*
D11*
X108616666Y-54044904D02*
X108616666Y-54616333D01*
X108654761Y-54730619D01*
X108730952Y-54806809D01*
X108845238Y-54844904D01*
X108921428Y-54844904D01*
X108235714Y-54844904D02*
X108235714Y-54044904D01*
X107930952Y-54044904D01*
X107854761Y-54083000D01*
X107816666Y-54121095D01*
X107778571Y-54197285D01*
X107778571Y-54311571D01*
X107816666Y-54387761D01*
X107854761Y-54425857D01*
X107930952Y-54463952D01*
X108235714Y-54463952D01*
X107473809Y-54121095D02*
X107435714Y-54083000D01*
X107359523Y-54044904D01*
X107169047Y-54044904D01*
X107092857Y-54083000D01*
X107054761Y-54121095D01*
X107016666Y-54197285D01*
X107016666Y-54273476D01*
X107054761Y-54387761D01*
X107511904Y-54844904D01*
X107016666Y-54844904D01*
G04 #@! TO.C,JP1*
X108616666Y-50806404D02*
X108616666Y-51377833D01*
X108654761Y-51492119D01*
X108730952Y-51568309D01*
X108845238Y-51606404D01*
X108921428Y-51606404D01*
X108235714Y-51606404D02*
X108235714Y-50806404D01*
X107930952Y-50806404D01*
X107854761Y-50844500D01*
X107816666Y-50882595D01*
X107778571Y-50958785D01*
X107778571Y-51073071D01*
X107816666Y-51149261D01*
X107854761Y-51187357D01*
X107930952Y-51225452D01*
X108235714Y-51225452D01*
X107016666Y-51606404D02*
X107473809Y-51606404D01*
X107245238Y-51606404D02*
X107245238Y-50806404D01*
X107321428Y-50920690D01*
X107397619Y-50996880D01*
X107473809Y-51034976D01*
G04 #@! TD*
M02*
