M48
; DRILL file {KiCad 5.1.5+dfsg1-2build2} date Thu Sep 30 13:46:46 2021
; FORMAT={-:-/ absolute / metric / decimal}
; #@! TF.CreationDate,2021-09-30T13:46:46+00:00
; #@! TF.GenerationSoftware,Kicad,Pcbnew,5.1.5+dfsg1-2build2
FMAT,2
METRIC
T1C0.300
T2C0.600
T3C0.850
T4C1.000
T5C2.700
%
G90
G05
T1
X101.6Y-50.8
X102.489Y-53.34
X105.41Y-50.8
X106.68Y-48.26
X107.124Y-56.07
X107.315Y-52.832
X107.95Y-49.085
X108.585Y-52.832
X108.775Y-56.07
X109.22Y-49.657
X109.25Y-46.237
X110.49Y-50.864
X111.76Y-53.34
X113.602Y-56.388
T3
X105.45Y-47.182
X110.45Y-47.182
T4
X116.84Y-50.8
X116.84Y-53.34
X116.84Y-55.88
X116.84Y-58.42
X116.84Y-60.96
X116.84Y-63.5
X99.06Y-50.8
X99.06Y-53.34
X99.06Y-55.88
X99.06Y-58.42
X99.06Y-60.96
X99.06Y-63.5
T5
X116.84Y-45.72
X99.06Y-45.72
T2
X104.45Y-44.832G85X104.45Y-44.133
G05
X111.45Y-44.133G85X111.45Y-44.832
G05
T0
M30
