G04 #@! TF.GenerationSoftware,KiCad,Pcbnew,5.1.5+dfsg1-2build2*
G04 #@! TF.CreationDate,2021-09-30T13:46:46+00:00*
G04 #@! TF.ProjectId,mcp2221a-breakout,6d637032-3232-4316-912d-627265616b6f,rev?*
G04 #@! TF.SameCoordinates,Original*
G04 #@! TF.FileFunction,Copper,L1,Top*
G04 #@! TF.FilePolarity,Positive*
%FSLAX46Y46*%
G04 Gerber Fmt 4.6, Leading zero omitted, Abs format (unit mm)*
G04 Created by KiCad (PCBNEW 5.1.5+dfsg1-2build2) date 2021-09-30 13:46:46*
%MOMM*%
%LPD*%
G04 APERTURE LIST*
G04 #@! TA.AperFunction,ComponentPad*
%ADD10C,4.700000*%
G04 #@! TD*
G04 #@! TA.AperFunction,SMDPad,CuDef*
%ADD11R,0.800000X0.900000*%
G04 #@! TD*
G04 #@! TA.AperFunction,BGAPad,CuDef*
%ADD12C,1.000000*%
G04 #@! TD*
G04 #@! TA.AperFunction,SMDPad,CuDef*
%ADD13C,0.350000*%
G04 #@! TD*
G04 #@! TA.AperFunction,ComponentPad*
%ADD14O,1.700000X1.700000*%
G04 #@! TD*
G04 #@! TA.AperFunction,ComponentPad*
%ADD15R,1.700000X1.700000*%
G04 #@! TD*
G04 #@! TA.AperFunction,SMDPad,CuDef*
%ADD16R,1.200000X1.900000*%
G04 #@! TD*
G04 #@! TA.AperFunction,ComponentPad*
%ADD17O,1.200000X1.900000*%
G04 #@! TD*
G04 #@! TA.AperFunction,SMDPad,CuDef*
%ADD18R,1.500000X1.900000*%
G04 #@! TD*
G04 #@! TA.AperFunction,ComponentPad*
%ADD19C,1.450000*%
G04 #@! TD*
G04 #@! TA.AperFunction,SMDPad,CuDef*
%ADD20R,0.400000X1.350000*%
G04 #@! TD*
G04 #@! TA.AperFunction,ViaPad*
%ADD21C,0.600000*%
G04 #@! TD*
G04 #@! TA.AperFunction,Conductor*
%ADD22C,0.400000*%
G04 #@! TD*
G04 #@! TA.AperFunction,Conductor*
%ADD23C,0.200000*%
G04 #@! TD*
G04 #@! TA.AperFunction,Conductor*
%ADD24C,0.250000*%
G04 #@! TD*
G04 APERTURE END LIST*
D10*
G04 #@! TO.P,H2,1*
G04 #@! TO.N,N/C*
X116840000Y-45720000D03*
G04 #@! TD*
D11*
G04 #@! TO.P,U1,3*
G04 #@! TO.N,GND*
X107950000Y-49800000D03*
G04 #@! TO.P,U1,2*
G04 #@! TO.N,VBUS*
X108900000Y-51800000D03*
G04 #@! TO.P,U1,1*
G04 #@! TO.N,VDD*
X107000000Y-51800000D03*
G04 #@! TD*
D12*
G04 #@! TO.P,FID3,*
G04 #@! TO.N,*
X107886500Y-64770000D03*
G04 #@! TD*
G04 #@! TA.AperFunction,SMDPad,CuDef*
D13*
G04 #@! TO.P,R6,2*
G04 #@! TO.N,VDD*
G36*
X112816603Y-57385963D02*
G01*
X112836018Y-57388843D01*
X112855057Y-57393612D01*
X112873537Y-57400224D01*
X112891279Y-57408616D01*
X112908114Y-57418706D01*
X112923879Y-57430398D01*
X112938421Y-57443579D01*
X112951602Y-57458121D01*
X112963294Y-57473886D01*
X112973384Y-57490721D01*
X112981776Y-57508463D01*
X112988388Y-57526943D01*
X112993157Y-57545982D01*
X112996037Y-57565397D01*
X112997000Y-57585000D01*
X112997000Y-57985000D01*
X112996037Y-58004603D01*
X112993157Y-58024018D01*
X112988388Y-58043057D01*
X112981776Y-58061537D01*
X112973384Y-58079279D01*
X112963294Y-58096114D01*
X112951602Y-58111879D01*
X112938421Y-58126421D01*
X112923879Y-58139602D01*
X112908114Y-58151294D01*
X112891279Y-58161384D01*
X112873537Y-58169776D01*
X112855057Y-58176388D01*
X112836018Y-58181157D01*
X112816603Y-58184037D01*
X112797000Y-58185000D01*
X112247000Y-58185000D01*
X112227397Y-58184037D01*
X112207982Y-58181157D01*
X112188943Y-58176388D01*
X112170463Y-58169776D01*
X112152721Y-58161384D01*
X112135886Y-58151294D01*
X112120121Y-58139602D01*
X112105579Y-58126421D01*
X112092398Y-58111879D01*
X112080706Y-58096114D01*
X112070616Y-58079279D01*
X112062224Y-58061537D01*
X112055612Y-58043057D01*
X112050843Y-58024018D01*
X112047963Y-58004603D01*
X112047000Y-57985000D01*
X112047000Y-57585000D01*
X112047963Y-57565397D01*
X112050843Y-57545982D01*
X112055612Y-57526943D01*
X112062224Y-57508463D01*
X112070616Y-57490721D01*
X112080706Y-57473886D01*
X112092398Y-57458121D01*
X112105579Y-57443579D01*
X112120121Y-57430398D01*
X112135886Y-57418706D01*
X112152721Y-57408616D01*
X112170463Y-57400224D01*
X112188943Y-57393612D01*
X112207982Y-57388843D01*
X112227397Y-57385963D01*
X112247000Y-57385000D01*
X112797000Y-57385000D01*
X112816603Y-57385963D01*
G37*
G04 #@! TD.AperFunction*
G04 #@! TA.AperFunction,SMDPad,CuDef*
G04 #@! TO.P,R6,1*
G04 #@! TO.N,/SCL*
G36*
X112816603Y-59035963D02*
G01*
X112836018Y-59038843D01*
X112855057Y-59043612D01*
X112873537Y-59050224D01*
X112891279Y-59058616D01*
X112908114Y-59068706D01*
X112923879Y-59080398D01*
X112938421Y-59093579D01*
X112951602Y-59108121D01*
X112963294Y-59123886D01*
X112973384Y-59140721D01*
X112981776Y-59158463D01*
X112988388Y-59176943D01*
X112993157Y-59195982D01*
X112996037Y-59215397D01*
X112997000Y-59235000D01*
X112997000Y-59635000D01*
X112996037Y-59654603D01*
X112993157Y-59674018D01*
X112988388Y-59693057D01*
X112981776Y-59711537D01*
X112973384Y-59729279D01*
X112963294Y-59746114D01*
X112951602Y-59761879D01*
X112938421Y-59776421D01*
X112923879Y-59789602D01*
X112908114Y-59801294D01*
X112891279Y-59811384D01*
X112873537Y-59819776D01*
X112855057Y-59826388D01*
X112836018Y-59831157D01*
X112816603Y-59834037D01*
X112797000Y-59835000D01*
X112247000Y-59835000D01*
X112227397Y-59834037D01*
X112207982Y-59831157D01*
X112188943Y-59826388D01*
X112170463Y-59819776D01*
X112152721Y-59811384D01*
X112135886Y-59801294D01*
X112120121Y-59789602D01*
X112105579Y-59776421D01*
X112092398Y-59761879D01*
X112080706Y-59746114D01*
X112070616Y-59729279D01*
X112062224Y-59711537D01*
X112055612Y-59693057D01*
X112050843Y-59674018D01*
X112047963Y-59654603D01*
X112047000Y-59635000D01*
X112047000Y-59235000D01*
X112047963Y-59215397D01*
X112050843Y-59195982D01*
X112055612Y-59176943D01*
X112062224Y-59158463D01*
X112070616Y-59140721D01*
X112080706Y-59123886D01*
X112092398Y-59108121D01*
X112105579Y-59093579D01*
X112120121Y-59080398D01*
X112135886Y-59068706D01*
X112152721Y-59058616D01*
X112170463Y-59050224D01*
X112188943Y-59043612D01*
X112207982Y-59038843D01*
X112227397Y-59035963D01*
X112247000Y-59035000D01*
X112797000Y-59035000D01*
X112816603Y-59035963D01*
G37*
G04 #@! TD.AperFunction*
G04 #@! TD*
G04 #@! TA.AperFunction,SMDPad,CuDef*
G04 #@! TO.P,R5,2*
G04 #@! TO.N,VDD*
G36*
X114467603Y-57385963D02*
G01*
X114487018Y-57388843D01*
X114506057Y-57393612D01*
X114524537Y-57400224D01*
X114542279Y-57408616D01*
X114559114Y-57418706D01*
X114574879Y-57430398D01*
X114589421Y-57443579D01*
X114602602Y-57458121D01*
X114614294Y-57473886D01*
X114624384Y-57490721D01*
X114632776Y-57508463D01*
X114639388Y-57526943D01*
X114644157Y-57545982D01*
X114647037Y-57565397D01*
X114648000Y-57585000D01*
X114648000Y-57985000D01*
X114647037Y-58004603D01*
X114644157Y-58024018D01*
X114639388Y-58043057D01*
X114632776Y-58061537D01*
X114624384Y-58079279D01*
X114614294Y-58096114D01*
X114602602Y-58111879D01*
X114589421Y-58126421D01*
X114574879Y-58139602D01*
X114559114Y-58151294D01*
X114542279Y-58161384D01*
X114524537Y-58169776D01*
X114506057Y-58176388D01*
X114487018Y-58181157D01*
X114467603Y-58184037D01*
X114448000Y-58185000D01*
X113898000Y-58185000D01*
X113878397Y-58184037D01*
X113858982Y-58181157D01*
X113839943Y-58176388D01*
X113821463Y-58169776D01*
X113803721Y-58161384D01*
X113786886Y-58151294D01*
X113771121Y-58139602D01*
X113756579Y-58126421D01*
X113743398Y-58111879D01*
X113731706Y-58096114D01*
X113721616Y-58079279D01*
X113713224Y-58061537D01*
X113706612Y-58043057D01*
X113701843Y-58024018D01*
X113698963Y-58004603D01*
X113698000Y-57985000D01*
X113698000Y-57585000D01*
X113698963Y-57565397D01*
X113701843Y-57545982D01*
X113706612Y-57526943D01*
X113713224Y-57508463D01*
X113721616Y-57490721D01*
X113731706Y-57473886D01*
X113743398Y-57458121D01*
X113756579Y-57443579D01*
X113771121Y-57430398D01*
X113786886Y-57418706D01*
X113803721Y-57408616D01*
X113821463Y-57400224D01*
X113839943Y-57393612D01*
X113858982Y-57388843D01*
X113878397Y-57385963D01*
X113898000Y-57385000D01*
X114448000Y-57385000D01*
X114467603Y-57385963D01*
G37*
G04 #@! TD.AperFunction*
G04 #@! TA.AperFunction,SMDPad,CuDef*
G04 #@! TO.P,R5,1*
G04 #@! TO.N,/SDA*
G36*
X114467603Y-59035963D02*
G01*
X114487018Y-59038843D01*
X114506057Y-59043612D01*
X114524537Y-59050224D01*
X114542279Y-59058616D01*
X114559114Y-59068706D01*
X114574879Y-59080398D01*
X114589421Y-59093579D01*
X114602602Y-59108121D01*
X114614294Y-59123886D01*
X114624384Y-59140721D01*
X114632776Y-59158463D01*
X114639388Y-59176943D01*
X114644157Y-59195982D01*
X114647037Y-59215397D01*
X114648000Y-59235000D01*
X114648000Y-59635000D01*
X114647037Y-59654603D01*
X114644157Y-59674018D01*
X114639388Y-59693057D01*
X114632776Y-59711537D01*
X114624384Y-59729279D01*
X114614294Y-59746114D01*
X114602602Y-59761879D01*
X114589421Y-59776421D01*
X114574879Y-59789602D01*
X114559114Y-59801294D01*
X114542279Y-59811384D01*
X114524537Y-59819776D01*
X114506057Y-59826388D01*
X114487018Y-59831157D01*
X114467603Y-59834037D01*
X114448000Y-59835000D01*
X113898000Y-59835000D01*
X113878397Y-59834037D01*
X113858982Y-59831157D01*
X113839943Y-59826388D01*
X113821463Y-59819776D01*
X113803721Y-59811384D01*
X113786886Y-59801294D01*
X113771121Y-59789602D01*
X113756579Y-59776421D01*
X113743398Y-59761879D01*
X113731706Y-59746114D01*
X113721616Y-59729279D01*
X113713224Y-59711537D01*
X113706612Y-59693057D01*
X113701843Y-59674018D01*
X113698963Y-59654603D01*
X113698000Y-59635000D01*
X113698000Y-59235000D01*
X113698963Y-59215397D01*
X113701843Y-59195982D01*
X113706612Y-59176943D01*
X113713224Y-59158463D01*
X113721616Y-59140721D01*
X113731706Y-59123886D01*
X113743398Y-59108121D01*
X113756579Y-59093579D01*
X113771121Y-59080398D01*
X113786886Y-59068706D01*
X113803721Y-59058616D01*
X113821463Y-59050224D01*
X113839943Y-59043612D01*
X113858982Y-59038843D01*
X113878397Y-59035963D01*
X113898000Y-59035000D01*
X114448000Y-59035000D01*
X114467603Y-59035963D01*
G37*
G04 #@! TD.AperFunction*
G04 #@! TD*
D14*
G04 #@! TO.P,J2,6*
G04 #@! TO.N,/GP2*
X99060000Y-63500000D03*
G04 #@! TO.P,J2,5*
G04 #@! TO.N,/Tx*
X99060000Y-60960000D03*
G04 #@! TO.P,J2,4*
G04 #@! TO.N,/Rx*
X99060000Y-58420000D03*
G04 #@! TO.P,J2,3*
G04 #@! TO.N,/~RST*
X99060000Y-55880000D03*
G04 #@! TO.P,J2,2*
G04 #@! TO.N,/GP1*
X99060000Y-53340000D03*
D15*
G04 #@! TO.P,J2,1*
G04 #@! TO.N,/GP0*
X99060000Y-50800000D03*
G04 #@! TD*
D10*
G04 #@! TO.P,H1,1*
G04 #@! TO.N,N/C*
X99060000Y-45720000D03*
G04 #@! TD*
D12*
G04 #@! TO.P,FID2,*
G04 #@! TO.N,*
X113411000Y-44450000D03*
G04 #@! TD*
G04 #@! TO.P,FID1,*
G04 #@! TO.N,*
X102489000Y-44450000D03*
G04 #@! TD*
G04 #@! TA.AperFunction,SMDPad,CuDef*
D13*
G04 #@! TO.P,D3,2*
G04 #@! TO.N,VDD*
G36*
X109566142Y-62039174D02*
G01*
X109589803Y-62042684D01*
X109613007Y-62048496D01*
X109635529Y-62056554D01*
X109657153Y-62066782D01*
X109677670Y-62079079D01*
X109696883Y-62093329D01*
X109714607Y-62109393D01*
X109730671Y-62127117D01*
X109744921Y-62146330D01*
X109757218Y-62166847D01*
X109767446Y-62188471D01*
X109775504Y-62210993D01*
X109781316Y-62234197D01*
X109784826Y-62257858D01*
X109786000Y-62281750D01*
X109786000Y-63194250D01*
X109784826Y-63218142D01*
X109781316Y-63241803D01*
X109775504Y-63265007D01*
X109767446Y-63287529D01*
X109757218Y-63309153D01*
X109744921Y-63329670D01*
X109730671Y-63348883D01*
X109714607Y-63366607D01*
X109696883Y-63382671D01*
X109677670Y-63396921D01*
X109657153Y-63409218D01*
X109635529Y-63419446D01*
X109613007Y-63427504D01*
X109589803Y-63433316D01*
X109566142Y-63436826D01*
X109542250Y-63438000D01*
X109054750Y-63438000D01*
X109030858Y-63436826D01*
X109007197Y-63433316D01*
X108983993Y-63427504D01*
X108961471Y-63419446D01*
X108939847Y-63409218D01*
X108919330Y-63396921D01*
X108900117Y-63382671D01*
X108882393Y-63366607D01*
X108866329Y-63348883D01*
X108852079Y-63329670D01*
X108839782Y-63309153D01*
X108829554Y-63287529D01*
X108821496Y-63265007D01*
X108815684Y-63241803D01*
X108812174Y-63218142D01*
X108811000Y-63194250D01*
X108811000Y-62281750D01*
X108812174Y-62257858D01*
X108815684Y-62234197D01*
X108821496Y-62210993D01*
X108829554Y-62188471D01*
X108839782Y-62166847D01*
X108852079Y-62146330D01*
X108866329Y-62127117D01*
X108882393Y-62109393D01*
X108900117Y-62093329D01*
X108919330Y-62079079D01*
X108939847Y-62066782D01*
X108961471Y-62056554D01*
X108983993Y-62048496D01*
X109007197Y-62042684D01*
X109030858Y-62039174D01*
X109054750Y-62038000D01*
X109542250Y-62038000D01*
X109566142Y-62039174D01*
G37*
G04 #@! TD.AperFunction*
G04 #@! TA.AperFunction,SMDPad,CuDef*
G04 #@! TO.P,D3,1*
G04 #@! TO.N,Net-(D3-Pad1)*
G36*
X111441142Y-62039174D02*
G01*
X111464803Y-62042684D01*
X111488007Y-62048496D01*
X111510529Y-62056554D01*
X111532153Y-62066782D01*
X111552670Y-62079079D01*
X111571883Y-62093329D01*
X111589607Y-62109393D01*
X111605671Y-62127117D01*
X111619921Y-62146330D01*
X111632218Y-62166847D01*
X111642446Y-62188471D01*
X111650504Y-62210993D01*
X111656316Y-62234197D01*
X111659826Y-62257858D01*
X111661000Y-62281750D01*
X111661000Y-63194250D01*
X111659826Y-63218142D01*
X111656316Y-63241803D01*
X111650504Y-63265007D01*
X111642446Y-63287529D01*
X111632218Y-63309153D01*
X111619921Y-63329670D01*
X111605671Y-63348883D01*
X111589607Y-63366607D01*
X111571883Y-63382671D01*
X111552670Y-63396921D01*
X111532153Y-63409218D01*
X111510529Y-63419446D01*
X111488007Y-63427504D01*
X111464803Y-63433316D01*
X111441142Y-63436826D01*
X111417250Y-63438000D01*
X110929750Y-63438000D01*
X110905858Y-63436826D01*
X110882197Y-63433316D01*
X110858993Y-63427504D01*
X110836471Y-63419446D01*
X110814847Y-63409218D01*
X110794330Y-63396921D01*
X110775117Y-63382671D01*
X110757393Y-63366607D01*
X110741329Y-63348883D01*
X110727079Y-63329670D01*
X110714782Y-63309153D01*
X110704554Y-63287529D01*
X110696496Y-63265007D01*
X110690684Y-63241803D01*
X110687174Y-63218142D01*
X110686000Y-63194250D01*
X110686000Y-62281750D01*
X110687174Y-62257858D01*
X110690684Y-62234197D01*
X110696496Y-62210993D01*
X110704554Y-62188471D01*
X110714782Y-62166847D01*
X110727079Y-62146330D01*
X110741329Y-62127117D01*
X110757393Y-62109393D01*
X110775117Y-62093329D01*
X110794330Y-62079079D01*
X110814847Y-62066782D01*
X110836471Y-62056554D01*
X110858993Y-62048496D01*
X110882197Y-62042684D01*
X110905858Y-62039174D01*
X110929750Y-62038000D01*
X111417250Y-62038000D01*
X111441142Y-62039174D01*
G37*
G04 #@! TD.AperFunction*
G04 #@! TD*
G04 #@! TA.AperFunction,SMDPad,CuDef*
G04 #@! TO.P,D2,2*
G04 #@! TO.N,VDD*
G36*
X106742142Y-62039174D02*
G01*
X106765803Y-62042684D01*
X106789007Y-62048496D01*
X106811529Y-62056554D01*
X106833153Y-62066782D01*
X106853670Y-62079079D01*
X106872883Y-62093329D01*
X106890607Y-62109393D01*
X106906671Y-62127117D01*
X106920921Y-62146330D01*
X106933218Y-62166847D01*
X106943446Y-62188471D01*
X106951504Y-62210993D01*
X106957316Y-62234197D01*
X106960826Y-62257858D01*
X106962000Y-62281750D01*
X106962000Y-63194250D01*
X106960826Y-63218142D01*
X106957316Y-63241803D01*
X106951504Y-63265007D01*
X106943446Y-63287529D01*
X106933218Y-63309153D01*
X106920921Y-63329670D01*
X106906671Y-63348883D01*
X106890607Y-63366607D01*
X106872883Y-63382671D01*
X106853670Y-63396921D01*
X106833153Y-63409218D01*
X106811529Y-63419446D01*
X106789007Y-63427504D01*
X106765803Y-63433316D01*
X106742142Y-63436826D01*
X106718250Y-63438000D01*
X106230750Y-63438000D01*
X106206858Y-63436826D01*
X106183197Y-63433316D01*
X106159993Y-63427504D01*
X106137471Y-63419446D01*
X106115847Y-63409218D01*
X106095330Y-63396921D01*
X106076117Y-63382671D01*
X106058393Y-63366607D01*
X106042329Y-63348883D01*
X106028079Y-63329670D01*
X106015782Y-63309153D01*
X106005554Y-63287529D01*
X105997496Y-63265007D01*
X105991684Y-63241803D01*
X105988174Y-63218142D01*
X105987000Y-63194250D01*
X105987000Y-62281750D01*
X105988174Y-62257858D01*
X105991684Y-62234197D01*
X105997496Y-62210993D01*
X106005554Y-62188471D01*
X106015782Y-62166847D01*
X106028079Y-62146330D01*
X106042329Y-62127117D01*
X106058393Y-62109393D01*
X106076117Y-62093329D01*
X106095330Y-62079079D01*
X106115847Y-62066782D01*
X106137471Y-62056554D01*
X106159993Y-62048496D01*
X106183197Y-62042684D01*
X106206858Y-62039174D01*
X106230750Y-62038000D01*
X106718250Y-62038000D01*
X106742142Y-62039174D01*
G37*
G04 #@! TD.AperFunction*
G04 #@! TA.AperFunction,SMDPad,CuDef*
G04 #@! TO.P,D2,1*
G04 #@! TO.N,Net-(D2-Pad1)*
G36*
X104867142Y-62039174D02*
G01*
X104890803Y-62042684D01*
X104914007Y-62048496D01*
X104936529Y-62056554D01*
X104958153Y-62066782D01*
X104978670Y-62079079D01*
X104997883Y-62093329D01*
X105015607Y-62109393D01*
X105031671Y-62127117D01*
X105045921Y-62146330D01*
X105058218Y-62166847D01*
X105068446Y-62188471D01*
X105076504Y-62210993D01*
X105082316Y-62234197D01*
X105085826Y-62257858D01*
X105087000Y-62281750D01*
X105087000Y-63194250D01*
X105085826Y-63218142D01*
X105082316Y-63241803D01*
X105076504Y-63265007D01*
X105068446Y-63287529D01*
X105058218Y-63309153D01*
X105045921Y-63329670D01*
X105031671Y-63348883D01*
X105015607Y-63366607D01*
X104997883Y-63382671D01*
X104978670Y-63396921D01*
X104958153Y-63409218D01*
X104936529Y-63419446D01*
X104914007Y-63427504D01*
X104890803Y-63433316D01*
X104867142Y-63436826D01*
X104843250Y-63438000D01*
X104355750Y-63438000D01*
X104331858Y-63436826D01*
X104308197Y-63433316D01*
X104284993Y-63427504D01*
X104262471Y-63419446D01*
X104240847Y-63409218D01*
X104220330Y-63396921D01*
X104201117Y-63382671D01*
X104183393Y-63366607D01*
X104167329Y-63348883D01*
X104153079Y-63329670D01*
X104140782Y-63309153D01*
X104130554Y-63287529D01*
X104122496Y-63265007D01*
X104116684Y-63241803D01*
X104113174Y-63218142D01*
X104112000Y-63194250D01*
X104112000Y-62281750D01*
X104113174Y-62257858D01*
X104116684Y-62234197D01*
X104122496Y-62210993D01*
X104130554Y-62188471D01*
X104140782Y-62166847D01*
X104153079Y-62146330D01*
X104167329Y-62127117D01*
X104183393Y-62109393D01*
X104201117Y-62093329D01*
X104220330Y-62079079D01*
X104240847Y-62066782D01*
X104262471Y-62056554D01*
X104284993Y-62048496D01*
X104308197Y-62042684D01*
X104331858Y-62039174D01*
X104355750Y-62038000D01*
X104843250Y-62038000D01*
X104867142Y-62039174D01*
G37*
G04 #@! TD.AperFunction*
G04 #@! TD*
D14*
G04 #@! TO.P,J3,6*
G04 #@! TO.N,VBUS*
X116840000Y-50800000D03*
G04 #@! TO.P,J3,5*
G04 #@! TO.N,GND*
X116840000Y-53340000D03*
G04 #@! TO.P,J3,4*
G04 #@! TO.N,VDD*
X116840000Y-55880000D03*
G04 #@! TO.P,J3,3*
G04 #@! TO.N,/SCL*
X116840000Y-58420000D03*
G04 #@! TO.P,J3,2*
G04 #@! TO.N,/SDA*
X116840000Y-60960000D03*
D15*
G04 #@! TO.P,J3,1*
G04 #@! TO.N,/GP3*
X116840000Y-63500000D03*
G04 #@! TD*
G04 #@! TA.AperFunction,SMDPad,CuDef*
D13*
G04 #@! TO.P,U2,14*
G04 #@! TO.N,GND*
G36*
X111264703Y-53040722D02*
G01*
X111279264Y-53042882D01*
X111293543Y-53046459D01*
X111307403Y-53051418D01*
X111320710Y-53057712D01*
X111333336Y-53065280D01*
X111345159Y-53074048D01*
X111356066Y-53083934D01*
X111365952Y-53094841D01*
X111374720Y-53106664D01*
X111382288Y-53119290D01*
X111388582Y-53132597D01*
X111393541Y-53146457D01*
X111397118Y-53160736D01*
X111399278Y-53175297D01*
X111400000Y-53190000D01*
X111400000Y-53490000D01*
X111399278Y-53504703D01*
X111397118Y-53519264D01*
X111393541Y-53533543D01*
X111388582Y-53547403D01*
X111382288Y-53560710D01*
X111374720Y-53573336D01*
X111365952Y-53585159D01*
X111356066Y-53596066D01*
X111345159Y-53605952D01*
X111333336Y-53614720D01*
X111320710Y-53622288D01*
X111307403Y-53628582D01*
X111293543Y-53633541D01*
X111279264Y-53637118D01*
X111264703Y-53639278D01*
X111250000Y-53640000D01*
X109600000Y-53640000D01*
X109585297Y-53639278D01*
X109570736Y-53637118D01*
X109556457Y-53633541D01*
X109542597Y-53628582D01*
X109529290Y-53622288D01*
X109516664Y-53614720D01*
X109504841Y-53605952D01*
X109493934Y-53596066D01*
X109484048Y-53585159D01*
X109475280Y-53573336D01*
X109467712Y-53560710D01*
X109461418Y-53547403D01*
X109456459Y-53533543D01*
X109452882Y-53519264D01*
X109450722Y-53504703D01*
X109450000Y-53490000D01*
X109450000Y-53190000D01*
X109450722Y-53175297D01*
X109452882Y-53160736D01*
X109456459Y-53146457D01*
X109461418Y-53132597D01*
X109467712Y-53119290D01*
X109475280Y-53106664D01*
X109484048Y-53094841D01*
X109493934Y-53083934D01*
X109504841Y-53074048D01*
X109516664Y-53065280D01*
X109529290Y-53057712D01*
X109542597Y-53051418D01*
X109556457Y-53046459D01*
X109570736Y-53042882D01*
X109585297Y-53040722D01*
X109600000Y-53040000D01*
X111250000Y-53040000D01*
X111264703Y-53040722D01*
G37*
G04 #@! TD.AperFunction*
G04 #@! TA.AperFunction,SMDPad,CuDef*
G04 #@! TO.P,U2,13*
G04 #@! TO.N,/USB+*
G36*
X111264703Y-54310722D02*
G01*
X111279264Y-54312882D01*
X111293543Y-54316459D01*
X111307403Y-54321418D01*
X111320710Y-54327712D01*
X111333336Y-54335280D01*
X111345159Y-54344048D01*
X111356066Y-54353934D01*
X111365952Y-54364841D01*
X111374720Y-54376664D01*
X111382288Y-54389290D01*
X111388582Y-54402597D01*
X111393541Y-54416457D01*
X111397118Y-54430736D01*
X111399278Y-54445297D01*
X111400000Y-54460000D01*
X111400000Y-54760000D01*
X111399278Y-54774703D01*
X111397118Y-54789264D01*
X111393541Y-54803543D01*
X111388582Y-54817403D01*
X111382288Y-54830710D01*
X111374720Y-54843336D01*
X111365952Y-54855159D01*
X111356066Y-54866066D01*
X111345159Y-54875952D01*
X111333336Y-54884720D01*
X111320710Y-54892288D01*
X111307403Y-54898582D01*
X111293543Y-54903541D01*
X111279264Y-54907118D01*
X111264703Y-54909278D01*
X111250000Y-54910000D01*
X109600000Y-54910000D01*
X109585297Y-54909278D01*
X109570736Y-54907118D01*
X109556457Y-54903541D01*
X109542597Y-54898582D01*
X109529290Y-54892288D01*
X109516664Y-54884720D01*
X109504841Y-54875952D01*
X109493934Y-54866066D01*
X109484048Y-54855159D01*
X109475280Y-54843336D01*
X109467712Y-54830710D01*
X109461418Y-54817403D01*
X109456459Y-54803543D01*
X109452882Y-54789264D01*
X109450722Y-54774703D01*
X109450000Y-54760000D01*
X109450000Y-54460000D01*
X109450722Y-54445297D01*
X109452882Y-54430736D01*
X109456459Y-54416457D01*
X109461418Y-54402597D01*
X109467712Y-54389290D01*
X109475280Y-54376664D01*
X109484048Y-54364841D01*
X109493934Y-54353934D01*
X109504841Y-54344048D01*
X109516664Y-54335280D01*
X109529290Y-54327712D01*
X109542597Y-54321418D01*
X109556457Y-54316459D01*
X109570736Y-54312882D01*
X109585297Y-54310722D01*
X109600000Y-54310000D01*
X111250000Y-54310000D01*
X111264703Y-54310722D01*
G37*
G04 #@! TD.AperFunction*
G04 #@! TA.AperFunction,SMDPad,CuDef*
G04 #@! TO.P,U2,12*
G04 #@! TO.N,/USB-*
G36*
X111264703Y-55580722D02*
G01*
X111279264Y-55582882D01*
X111293543Y-55586459D01*
X111307403Y-55591418D01*
X111320710Y-55597712D01*
X111333336Y-55605280D01*
X111345159Y-55614048D01*
X111356066Y-55623934D01*
X111365952Y-55634841D01*
X111374720Y-55646664D01*
X111382288Y-55659290D01*
X111388582Y-55672597D01*
X111393541Y-55686457D01*
X111397118Y-55700736D01*
X111399278Y-55715297D01*
X111400000Y-55730000D01*
X111400000Y-56030000D01*
X111399278Y-56044703D01*
X111397118Y-56059264D01*
X111393541Y-56073543D01*
X111388582Y-56087403D01*
X111382288Y-56100710D01*
X111374720Y-56113336D01*
X111365952Y-56125159D01*
X111356066Y-56136066D01*
X111345159Y-56145952D01*
X111333336Y-56154720D01*
X111320710Y-56162288D01*
X111307403Y-56168582D01*
X111293543Y-56173541D01*
X111279264Y-56177118D01*
X111264703Y-56179278D01*
X111250000Y-56180000D01*
X109600000Y-56180000D01*
X109585297Y-56179278D01*
X109570736Y-56177118D01*
X109556457Y-56173541D01*
X109542597Y-56168582D01*
X109529290Y-56162288D01*
X109516664Y-56154720D01*
X109504841Y-56145952D01*
X109493934Y-56136066D01*
X109484048Y-56125159D01*
X109475280Y-56113336D01*
X109467712Y-56100710D01*
X109461418Y-56087403D01*
X109456459Y-56073543D01*
X109452882Y-56059264D01*
X109450722Y-56044703D01*
X109450000Y-56030000D01*
X109450000Y-55730000D01*
X109450722Y-55715297D01*
X109452882Y-55700736D01*
X109456459Y-55686457D01*
X109461418Y-55672597D01*
X109467712Y-55659290D01*
X109475280Y-55646664D01*
X109484048Y-55634841D01*
X109493934Y-55623934D01*
X109504841Y-55614048D01*
X109516664Y-55605280D01*
X109529290Y-55597712D01*
X109542597Y-55591418D01*
X109556457Y-55586459D01*
X109570736Y-55582882D01*
X109585297Y-55580722D01*
X109600000Y-55580000D01*
X111250000Y-55580000D01*
X111264703Y-55580722D01*
G37*
G04 #@! TD.AperFunction*
G04 #@! TA.AperFunction,SMDPad,CuDef*
G04 #@! TO.P,U2,11*
G04 #@! TO.N,Net-(C4-Pad1)*
G36*
X111264703Y-56850722D02*
G01*
X111279264Y-56852882D01*
X111293543Y-56856459D01*
X111307403Y-56861418D01*
X111320710Y-56867712D01*
X111333336Y-56875280D01*
X111345159Y-56884048D01*
X111356066Y-56893934D01*
X111365952Y-56904841D01*
X111374720Y-56916664D01*
X111382288Y-56929290D01*
X111388582Y-56942597D01*
X111393541Y-56956457D01*
X111397118Y-56970736D01*
X111399278Y-56985297D01*
X111400000Y-57000000D01*
X111400000Y-57300000D01*
X111399278Y-57314703D01*
X111397118Y-57329264D01*
X111393541Y-57343543D01*
X111388582Y-57357403D01*
X111382288Y-57370710D01*
X111374720Y-57383336D01*
X111365952Y-57395159D01*
X111356066Y-57406066D01*
X111345159Y-57415952D01*
X111333336Y-57424720D01*
X111320710Y-57432288D01*
X111307403Y-57438582D01*
X111293543Y-57443541D01*
X111279264Y-57447118D01*
X111264703Y-57449278D01*
X111250000Y-57450000D01*
X109600000Y-57450000D01*
X109585297Y-57449278D01*
X109570736Y-57447118D01*
X109556457Y-57443541D01*
X109542597Y-57438582D01*
X109529290Y-57432288D01*
X109516664Y-57424720D01*
X109504841Y-57415952D01*
X109493934Y-57406066D01*
X109484048Y-57395159D01*
X109475280Y-57383336D01*
X109467712Y-57370710D01*
X109461418Y-57357403D01*
X109456459Y-57343543D01*
X109452882Y-57329264D01*
X109450722Y-57314703D01*
X109450000Y-57300000D01*
X109450000Y-57000000D01*
X109450722Y-56985297D01*
X109452882Y-56970736D01*
X109456459Y-56956457D01*
X109461418Y-56942597D01*
X109467712Y-56929290D01*
X109475280Y-56916664D01*
X109484048Y-56904841D01*
X109493934Y-56893934D01*
X109504841Y-56884048D01*
X109516664Y-56875280D01*
X109529290Y-56867712D01*
X109542597Y-56861418D01*
X109556457Y-56856459D01*
X109570736Y-56852882D01*
X109585297Y-56850722D01*
X109600000Y-56850000D01*
X111250000Y-56850000D01*
X111264703Y-56850722D01*
G37*
G04 #@! TD.AperFunction*
G04 #@! TA.AperFunction,SMDPad,CuDef*
G04 #@! TO.P,U2,10*
G04 #@! TO.N,/SCL*
G36*
X111264703Y-58120722D02*
G01*
X111279264Y-58122882D01*
X111293543Y-58126459D01*
X111307403Y-58131418D01*
X111320710Y-58137712D01*
X111333336Y-58145280D01*
X111345159Y-58154048D01*
X111356066Y-58163934D01*
X111365952Y-58174841D01*
X111374720Y-58186664D01*
X111382288Y-58199290D01*
X111388582Y-58212597D01*
X111393541Y-58226457D01*
X111397118Y-58240736D01*
X111399278Y-58255297D01*
X111400000Y-58270000D01*
X111400000Y-58570000D01*
X111399278Y-58584703D01*
X111397118Y-58599264D01*
X111393541Y-58613543D01*
X111388582Y-58627403D01*
X111382288Y-58640710D01*
X111374720Y-58653336D01*
X111365952Y-58665159D01*
X111356066Y-58676066D01*
X111345159Y-58685952D01*
X111333336Y-58694720D01*
X111320710Y-58702288D01*
X111307403Y-58708582D01*
X111293543Y-58713541D01*
X111279264Y-58717118D01*
X111264703Y-58719278D01*
X111250000Y-58720000D01*
X109600000Y-58720000D01*
X109585297Y-58719278D01*
X109570736Y-58717118D01*
X109556457Y-58713541D01*
X109542597Y-58708582D01*
X109529290Y-58702288D01*
X109516664Y-58694720D01*
X109504841Y-58685952D01*
X109493934Y-58676066D01*
X109484048Y-58665159D01*
X109475280Y-58653336D01*
X109467712Y-58640710D01*
X109461418Y-58627403D01*
X109456459Y-58613543D01*
X109452882Y-58599264D01*
X109450722Y-58584703D01*
X109450000Y-58570000D01*
X109450000Y-58270000D01*
X109450722Y-58255297D01*
X109452882Y-58240736D01*
X109456459Y-58226457D01*
X109461418Y-58212597D01*
X109467712Y-58199290D01*
X109475280Y-58186664D01*
X109484048Y-58174841D01*
X109493934Y-58163934D01*
X109504841Y-58154048D01*
X109516664Y-58145280D01*
X109529290Y-58137712D01*
X109542597Y-58131418D01*
X109556457Y-58126459D01*
X109570736Y-58122882D01*
X109585297Y-58120722D01*
X109600000Y-58120000D01*
X111250000Y-58120000D01*
X111264703Y-58120722D01*
G37*
G04 #@! TD.AperFunction*
G04 #@! TA.AperFunction,SMDPad,CuDef*
G04 #@! TO.P,U2,9*
G04 #@! TO.N,/SDA*
G36*
X111264703Y-59390722D02*
G01*
X111279264Y-59392882D01*
X111293543Y-59396459D01*
X111307403Y-59401418D01*
X111320710Y-59407712D01*
X111333336Y-59415280D01*
X111345159Y-59424048D01*
X111356066Y-59433934D01*
X111365952Y-59444841D01*
X111374720Y-59456664D01*
X111382288Y-59469290D01*
X111388582Y-59482597D01*
X111393541Y-59496457D01*
X111397118Y-59510736D01*
X111399278Y-59525297D01*
X111400000Y-59540000D01*
X111400000Y-59840000D01*
X111399278Y-59854703D01*
X111397118Y-59869264D01*
X111393541Y-59883543D01*
X111388582Y-59897403D01*
X111382288Y-59910710D01*
X111374720Y-59923336D01*
X111365952Y-59935159D01*
X111356066Y-59946066D01*
X111345159Y-59955952D01*
X111333336Y-59964720D01*
X111320710Y-59972288D01*
X111307403Y-59978582D01*
X111293543Y-59983541D01*
X111279264Y-59987118D01*
X111264703Y-59989278D01*
X111250000Y-59990000D01*
X109600000Y-59990000D01*
X109585297Y-59989278D01*
X109570736Y-59987118D01*
X109556457Y-59983541D01*
X109542597Y-59978582D01*
X109529290Y-59972288D01*
X109516664Y-59964720D01*
X109504841Y-59955952D01*
X109493934Y-59946066D01*
X109484048Y-59935159D01*
X109475280Y-59923336D01*
X109467712Y-59910710D01*
X109461418Y-59897403D01*
X109456459Y-59883543D01*
X109452882Y-59869264D01*
X109450722Y-59854703D01*
X109450000Y-59840000D01*
X109450000Y-59540000D01*
X109450722Y-59525297D01*
X109452882Y-59510736D01*
X109456459Y-59496457D01*
X109461418Y-59482597D01*
X109467712Y-59469290D01*
X109475280Y-59456664D01*
X109484048Y-59444841D01*
X109493934Y-59433934D01*
X109504841Y-59424048D01*
X109516664Y-59415280D01*
X109529290Y-59407712D01*
X109542597Y-59401418D01*
X109556457Y-59396459D01*
X109570736Y-59392882D01*
X109585297Y-59390722D01*
X109600000Y-59390000D01*
X111250000Y-59390000D01*
X111264703Y-59390722D01*
G37*
G04 #@! TD.AperFunction*
G04 #@! TA.AperFunction,SMDPad,CuDef*
G04 #@! TO.P,U2,8*
G04 #@! TO.N,/GP3*
G36*
X111264703Y-60660722D02*
G01*
X111279264Y-60662882D01*
X111293543Y-60666459D01*
X111307403Y-60671418D01*
X111320710Y-60677712D01*
X111333336Y-60685280D01*
X111345159Y-60694048D01*
X111356066Y-60703934D01*
X111365952Y-60714841D01*
X111374720Y-60726664D01*
X111382288Y-60739290D01*
X111388582Y-60752597D01*
X111393541Y-60766457D01*
X111397118Y-60780736D01*
X111399278Y-60795297D01*
X111400000Y-60810000D01*
X111400000Y-61110000D01*
X111399278Y-61124703D01*
X111397118Y-61139264D01*
X111393541Y-61153543D01*
X111388582Y-61167403D01*
X111382288Y-61180710D01*
X111374720Y-61193336D01*
X111365952Y-61205159D01*
X111356066Y-61216066D01*
X111345159Y-61225952D01*
X111333336Y-61234720D01*
X111320710Y-61242288D01*
X111307403Y-61248582D01*
X111293543Y-61253541D01*
X111279264Y-61257118D01*
X111264703Y-61259278D01*
X111250000Y-61260000D01*
X109600000Y-61260000D01*
X109585297Y-61259278D01*
X109570736Y-61257118D01*
X109556457Y-61253541D01*
X109542597Y-61248582D01*
X109529290Y-61242288D01*
X109516664Y-61234720D01*
X109504841Y-61225952D01*
X109493934Y-61216066D01*
X109484048Y-61205159D01*
X109475280Y-61193336D01*
X109467712Y-61180710D01*
X109461418Y-61167403D01*
X109456459Y-61153543D01*
X109452882Y-61139264D01*
X109450722Y-61124703D01*
X109450000Y-61110000D01*
X109450000Y-60810000D01*
X109450722Y-60795297D01*
X109452882Y-60780736D01*
X109456459Y-60766457D01*
X109461418Y-60752597D01*
X109467712Y-60739290D01*
X109475280Y-60726664D01*
X109484048Y-60714841D01*
X109493934Y-60703934D01*
X109504841Y-60694048D01*
X109516664Y-60685280D01*
X109529290Y-60677712D01*
X109542597Y-60671418D01*
X109556457Y-60666459D01*
X109570736Y-60662882D01*
X109585297Y-60660722D01*
X109600000Y-60660000D01*
X111250000Y-60660000D01*
X111264703Y-60660722D01*
G37*
G04 #@! TD.AperFunction*
G04 #@! TA.AperFunction,SMDPad,CuDef*
G04 #@! TO.P,U2,7*
G04 #@! TO.N,/GP2*
G36*
X106314703Y-60660722D02*
G01*
X106329264Y-60662882D01*
X106343543Y-60666459D01*
X106357403Y-60671418D01*
X106370710Y-60677712D01*
X106383336Y-60685280D01*
X106395159Y-60694048D01*
X106406066Y-60703934D01*
X106415952Y-60714841D01*
X106424720Y-60726664D01*
X106432288Y-60739290D01*
X106438582Y-60752597D01*
X106443541Y-60766457D01*
X106447118Y-60780736D01*
X106449278Y-60795297D01*
X106450000Y-60810000D01*
X106450000Y-61110000D01*
X106449278Y-61124703D01*
X106447118Y-61139264D01*
X106443541Y-61153543D01*
X106438582Y-61167403D01*
X106432288Y-61180710D01*
X106424720Y-61193336D01*
X106415952Y-61205159D01*
X106406066Y-61216066D01*
X106395159Y-61225952D01*
X106383336Y-61234720D01*
X106370710Y-61242288D01*
X106357403Y-61248582D01*
X106343543Y-61253541D01*
X106329264Y-61257118D01*
X106314703Y-61259278D01*
X106300000Y-61260000D01*
X104650000Y-61260000D01*
X104635297Y-61259278D01*
X104620736Y-61257118D01*
X104606457Y-61253541D01*
X104592597Y-61248582D01*
X104579290Y-61242288D01*
X104566664Y-61234720D01*
X104554841Y-61225952D01*
X104543934Y-61216066D01*
X104534048Y-61205159D01*
X104525280Y-61193336D01*
X104517712Y-61180710D01*
X104511418Y-61167403D01*
X104506459Y-61153543D01*
X104502882Y-61139264D01*
X104500722Y-61124703D01*
X104500000Y-61110000D01*
X104500000Y-60810000D01*
X104500722Y-60795297D01*
X104502882Y-60780736D01*
X104506459Y-60766457D01*
X104511418Y-60752597D01*
X104517712Y-60739290D01*
X104525280Y-60726664D01*
X104534048Y-60714841D01*
X104543934Y-60703934D01*
X104554841Y-60694048D01*
X104566664Y-60685280D01*
X104579290Y-60677712D01*
X104592597Y-60671418D01*
X104606457Y-60666459D01*
X104620736Y-60662882D01*
X104635297Y-60660722D01*
X104650000Y-60660000D01*
X106300000Y-60660000D01*
X106314703Y-60660722D01*
G37*
G04 #@! TD.AperFunction*
G04 #@! TA.AperFunction,SMDPad,CuDef*
G04 #@! TO.P,U2,6*
G04 #@! TO.N,/Tx*
G36*
X106314703Y-59390722D02*
G01*
X106329264Y-59392882D01*
X106343543Y-59396459D01*
X106357403Y-59401418D01*
X106370710Y-59407712D01*
X106383336Y-59415280D01*
X106395159Y-59424048D01*
X106406066Y-59433934D01*
X106415952Y-59444841D01*
X106424720Y-59456664D01*
X106432288Y-59469290D01*
X106438582Y-59482597D01*
X106443541Y-59496457D01*
X106447118Y-59510736D01*
X106449278Y-59525297D01*
X106450000Y-59540000D01*
X106450000Y-59840000D01*
X106449278Y-59854703D01*
X106447118Y-59869264D01*
X106443541Y-59883543D01*
X106438582Y-59897403D01*
X106432288Y-59910710D01*
X106424720Y-59923336D01*
X106415952Y-59935159D01*
X106406066Y-59946066D01*
X106395159Y-59955952D01*
X106383336Y-59964720D01*
X106370710Y-59972288D01*
X106357403Y-59978582D01*
X106343543Y-59983541D01*
X106329264Y-59987118D01*
X106314703Y-59989278D01*
X106300000Y-59990000D01*
X104650000Y-59990000D01*
X104635297Y-59989278D01*
X104620736Y-59987118D01*
X104606457Y-59983541D01*
X104592597Y-59978582D01*
X104579290Y-59972288D01*
X104566664Y-59964720D01*
X104554841Y-59955952D01*
X104543934Y-59946066D01*
X104534048Y-59935159D01*
X104525280Y-59923336D01*
X104517712Y-59910710D01*
X104511418Y-59897403D01*
X104506459Y-59883543D01*
X104502882Y-59869264D01*
X104500722Y-59854703D01*
X104500000Y-59840000D01*
X104500000Y-59540000D01*
X104500722Y-59525297D01*
X104502882Y-59510736D01*
X104506459Y-59496457D01*
X104511418Y-59482597D01*
X104517712Y-59469290D01*
X104525280Y-59456664D01*
X104534048Y-59444841D01*
X104543934Y-59433934D01*
X104554841Y-59424048D01*
X104566664Y-59415280D01*
X104579290Y-59407712D01*
X104592597Y-59401418D01*
X104606457Y-59396459D01*
X104620736Y-59392882D01*
X104635297Y-59390722D01*
X104650000Y-59390000D01*
X106300000Y-59390000D01*
X106314703Y-59390722D01*
G37*
G04 #@! TD.AperFunction*
G04 #@! TA.AperFunction,SMDPad,CuDef*
G04 #@! TO.P,U2,5*
G04 #@! TO.N,/Rx*
G36*
X106314703Y-58120722D02*
G01*
X106329264Y-58122882D01*
X106343543Y-58126459D01*
X106357403Y-58131418D01*
X106370710Y-58137712D01*
X106383336Y-58145280D01*
X106395159Y-58154048D01*
X106406066Y-58163934D01*
X106415952Y-58174841D01*
X106424720Y-58186664D01*
X106432288Y-58199290D01*
X106438582Y-58212597D01*
X106443541Y-58226457D01*
X106447118Y-58240736D01*
X106449278Y-58255297D01*
X106450000Y-58270000D01*
X106450000Y-58570000D01*
X106449278Y-58584703D01*
X106447118Y-58599264D01*
X106443541Y-58613543D01*
X106438582Y-58627403D01*
X106432288Y-58640710D01*
X106424720Y-58653336D01*
X106415952Y-58665159D01*
X106406066Y-58676066D01*
X106395159Y-58685952D01*
X106383336Y-58694720D01*
X106370710Y-58702288D01*
X106357403Y-58708582D01*
X106343543Y-58713541D01*
X106329264Y-58717118D01*
X106314703Y-58719278D01*
X106300000Y-58720000D01*
X104650000Y-58720000D01*
X104635297Y-58719278D01*
X104620736Y-58717118D01*
X104606457Y-58713541D01*
X104592597Y-58708582D01*
X104579290Y-58702288D01*
X104566664Y-58694720D01*
X104554841Y-58685952D01*
X104543934Y-58676066D01*
X104534048Y-58665159D01*
X104525280Y-58653336D01*
X104517712Y-58640710D01*
X104511418Y-58627403D01*
X104506459Y-58613543D01*
X104502882Y-58599264D01*
X104500722Y-58584703D01*
X104500000Y-58570000D01*
X104500000Y-58270000D01*
X104500722Y-58255297D01*
X104502882Y-58240736D01*
X104506459Y-58226457D01*
X104511418Y-58212597D01*
X104517712Y-58199290D01*
X104525280Y-58186664D01*
X104534048Y-58174841D01*
X104543934Y-58163934D01*
X104554841Y-58154048D01*
X104566664Y-58145280D01*
X104579290Y-58137712D01*
X104592597Y-58131418D01*
X104606457Y-58126459D01*
X104620736Y-58122882D01*
X104635297Y-58120722D01*
X104650000Y-58120000D01*
X106300000Y-58120000D01*
X106314703Y-58120722D01*
G37*
G04 #@! TD.AperFunction*
G04 #@! TA.AperFunction,SMDPad,CuDef*
G04 #@! TO.P,U2,4*
G04 #@! TO.N,/~RST*
G36*
X106314703Y-56850722D02*
G01*
X106329264Y-56852882D01*
X106343543Y-56856459D01*
X106357403Y-56861418D01*
X106370710Y-56867712D01*
X106383336Y-56875280D01*
X106395159Y-56884048D01*
X106406066Y-56893934D01*
X106415952Y-56904841D01*
X106424720Y-56916664D01*
X106432288Y-56929290D01*
X106438582Y-56942597D01*
X106443541Y-56956457D01*
X106447118Y-56970736D01*
X106449278Y-56985297D01*
X106450000Y-57000000D01*
X106450000Y-57300000D01*
X106449278Y-57314703D01*
X106447118Y-57329264D01*
X106443541Y-57343543D01*
X106438582Y-57357403D01*
X106432288Y-57370710D01*
X106424720Y-57383336D01*
X106415952Y-57395159D01*
X106406066Y-57406066D01*
X106395159Y-57415952D01*
X106383336Y-57424720D01*
X106370710Y-57432288D01*
X106357403Y-57438582D01*
X106343543Y-57443541D01*
X106329264Y-57447118D01*
X106314703Y-57449278D01*
X106300000Y-57450000D01*
X104650000Y-57450000D01*
X104635297Y-57449278D01*
X104620736Y-57447118D01*
X104606457Y-57443541D01*
X104592597Y-57438582D01*
X104579290Y-57432288D01*
X104566664Y-57424720D01*
X104554841Y-57415952D01*
X104543934Y-57406066D01*
X104534048Y-57395159D01*
X104525280Y-57383336D01*
X104517712Y-57370710D01*
X104511418Y-57357403D01*
X104506459Y-57343543D01*
X104502882Y-57329264D01*
X104500722Y-57314703D01*
X104500000Y-57300000D01*
X104500000Y-57000000D01*
X104500722Y-56985297D01*
X104502882Y-56970736D01*
X104506459Y-56956457D01*
X104511418Y-56942597D01*
X104517712Y-56929290D01*
X104525280Y-56916664D01*
X104534048Y-56904841D01*
X104543934Y-56893934D01*
X104554841Y-56884048D01*
X104566664Y-56875280D01*
X104579290Y-56867712D01*
X104592597Y-56861418D01*
X104606457Y-56856459D01*
X104620736Y-56852882D01*
X104635297Y-56850722D01*
X104650000Y-56850000D01*
X106300000Y-56850000D01*
X106314703Y-56850722D01*
G37*
G04 #@! TD.AperFunction*
G04 #@! TA.AperFunction,SMDPad,CuDef*
G04 #@! TO.P,U2,3*
G04 #@! TO.N,/GP1*
G36*
X106314703Y-55580722D02*
G01*
X106329264Y-55582882D01*
X106343543Y-55586459D01*
X106357403Y-55591418D01*
X106370710Y-55597712D01*
X106383336Y-55605280D01*
X106395159Y-55614048D01*
X106406066Y-55623934D01*
X106415952Y-55634841D01*
X106424720Y-55646664D01*
X106432288Y-55659290D01*
X106438582Y-55672597D01*
X106443541Y-55686457D01*
X106447118Y-55700736D01*
X106449278Y-55715297D01*
X106450000Y-55730000D01*
X106450000Y-56030000D01*
X106449278Y-56044703D01*
X106447118Y-56059264D01*
X106443541Y-56073543D01*
X106438582Y-56087403D01*
X106432288Y-56100710D01*
X106424720Y-56113336D01*
X106415952Y-56125159D01*
X106406066Y-56136066D01*
X106395159Y-56145952D01*
X106383336Y-56154720D01*
X106370710Y-56162288D01*
X106357403Y-56168582D01*
X106343543Y-56173541D01*
X106329264Y-56177118D01*
X106314703Y-56179278D01*
X106300000Y-56180000D01*
X104650000Y-56180000D01*
X104635297Y-56179278D01*
X104620736Y-56177118D01*
X104606457Y-56173541D01*
X104592597Y-56168582D01*
X104579290Y-56162288D01*
X104566664Y-56154720D01*
X104554841Y-56145952D01*
X104543934Y-56136066D01*
X104534048Y-56125159D01*
X104525280Y-56113336D01*
X104517712Y-56100710D01*
X104511418Y-56087403D01*
X104506459Y-56073543D01*
X104502882Y-56059264D01*
X104500722Y-56044703D01*
X104500000Y-56030000D01*
X104500000Y-55730000D01*
X104500722Y-55715297D01*
X104502882Y-55700736D01*
X104506459Y-55686457D01*
X104511418Y-55672597D01*
X104517712Y-55659290D01*
X104525280Y-55646664D01*
X104534048Y-55634841D01*
X104543934Y-55623934D01*
X104554841Y-55614048D01*
X104566664Y-55605280D01*
X104579290Y-55597712D01*
X104592597Y-55591418D01*
X104606457Y-55586459D01*
X104620736Y-55582882D01*
X104635297Y-55580722D01*
X104650000Y-55580000D01*
X106300000Y-55580000D01*
X106314703Y-55580722D01*
G37*
G04 #@! TD.AperFunction*
G04 #@! TA.AperFunction,SMDPad,CuDef*
G04 #@! TO.P,U2,2*
G04 #@! TO.N,/GP0*
G36*
X106314703Y-54310722D02*
G01*
X106329264Y-54312882D01*
X106343543Y-54316459D01*
X106357403Y-54321418D01*
X106370710Y-54327712D01*
X106383336Y-54335280D01*
X106395159Y-54344048D01*
X106406066Y-54353934D01*
X106415952Y-54364841D01*
X106424720Y-54376664D01*
X106432288Y-54389290D01*
X106438582Y-54402597D01*
X106443541Y-54416457D01*
X106447118Y-54430736D01*
X106449278Y-54445297D01*
X106450000Y-54460000D01*
X106450000Y-54760000D01*
X106449278Y-54774703D01*
X106447118Y-54789264D01*
X106443541Y-54803543D01*
X106438582Y-54817403D01*
X106432288Y-54830710D01*
X106424720Y-54843336D01*
X106415952Y-54855159D01*
X106406066Y-54866066D01*
X106395159Y-54875952D01*
X106383336Y-54884720D01*
X106370710Y-54892288D01*
X106357403Y-54898582D01*
X106343543Y-54903541D01*
X106329264Y-54907118D01*
X106314703Y-54909278D01*
X106300000Y-54910000D01*
X104650000Y-54910000D01*
X104635297Y-54909278D01*
X104620736Y-54907118D01*
X104606457Y-54903541D01*
X104592597Y-54898582D01*
X104579290Y-54892288D01*
X104566664Y-54884720D01*
X104554841Y-54875952D01*
X104543934Y-54866066D01*
X104534048Y-54855159D01*
X104525280Y-54843336D01*
X104517712Y-54830710D01*
X104511418Y-54817403D01*
X104506459Y-54803543D01*
X104502882Y-54789264D01*
X104500722Y-54774703D01*
X104500000Y-54760000D01*
X104500000Y-54460000D01*
X104500722Y-54445297D01*
X104502882Y-54430736D01*
X104506459Y-54416457D01*
X104511418Y-54402597D01*
X104517712Y-54389290D01*
X104525280Y-54376664D01*
X104534048Y-54364841D01*
X104543934Y-54353934D01*
X104554841Y-54344048D01*
X104566664Y-54335280D01*
X104579290Y-54327712D01*
X104592597Y-54321418D01*
X104606457Y-54316459D01*
X104620736Y-54312882D01*
X104635297Y-54310722D01*
X104650000Y-54310000D01*
X106300000Y-54310000D01*
X106314703Y-54310722D01*
G37*
G04 #@! TD.AperFunction*
G04 #@! TA.AperFunction,SMDPad,CuDef*
G04 #@! TO.P,U2,1*
G04 #@! TO.N,VDD*
G36*
X106314703Y-53040722D02*
G01*
X106329264Y-53042882D01*
X106343543Y-53046459D01*
X106357403Y-53051418D01*
X106370710Y-53057712D01*
X106383336Y-53065280D01*
X106395159Y-53074048D01*
X106406066Y-53083934D01*
X106415952Y-53094841D01*
X106424720Y-53106664D01*
X106432288Y-53119290D01*
X106438582Y-53132597D01*
X106443541Y-53146457D01*
X106447118Y-53160736D01*
X106449278Y-53175297D01*
X106450000Y-53190000D01*
X106450000Y-53490000D01*
X106449278Y-53504703D01*
X106447118Y-53519264D01*
X106443541Y-53533543D01*
X106438582Y-53547403D01*
X106432288Y-53560710D01*
X106424720Y-53573336D01*
X106415952Y-53585159D01*
X106406066Y-53596066D01*
X106395159Y-53605952D01*
X106383336Y-53614720D01*
X106370710Y-53622288D01*
X106357403Y-53628582D01*
X106343543Y-53633541D01*
X106329264Y-53637118D01*
X106314703Y-53639278D01*
X106300000Y-53640000D01*
X104650000Y-53640000D01*
X104635297Y-53639278D01*
X104620736Y-53637118D01*
X104606457Y-53633541D01*
X104592597Y-53628582D01*
X104579290Y-53622288D01*
X104566664Y-53614720D01*
X104554841Y-53605952D01*
X104543934Y-53596066D01*
X104534048Y-53585159D01*
X104525280Y-53573336D01*
X104517712Y-53560710D01*
X104511418Y-53547403D01*
X104506459Y-53533543D01*
X104502882Y-53519264D01*
X104500722Y-53504703D01*
X104500000Y-53490000D01*
X104500000Y-53190000D01*
X104500722Y-53175297D01*
X104502882Y-53160736D01*
X104506459Y-53146457D01*
X104511418Y-53132597D01*
X104517712Y-53119290D01*
X104525280Y-53106664D01*
X104534048Y-53094841D01*
X104543934Y-53083934D01*
X104554841Y-53074048D01*
X104566664Y-53065280D01*
X104579290Y-53057712D01*
X104592597Y-53051418D01*
X104606457Y-53046459D01*
X104620736Y-53042882D01*
X104635297Y-53040722D01*
X104650000Y-53040000D01*
X106300000Y-53040000D01*
X106314703Y-53040722D01*
G37*
G04 #@! TD.AperFunction*
G04 #@! TD*
G04 #@! TA.AperFunction,SMDPad,CuDef*
G04 #@! TO.P,R4,2*
G04 #@! TO.N,Net-(D3-Pad1)*
G36*
X113578603Y-61513963D02*
G01*
X113598018Y-61516843D01*
X113617057Y-61521612D01*
X113635537Y-61528224D01*
X113653279Y-61536616D01*
X113670114Y-61546706D01*
X113685879Y-61558398D01*
X113700421Y-61571579D01*
X113713602Y-61586121D01*
X113725294Y-61601886D01*
X113735384Y-61618721D01*
X113743776Y-61636463D01*
X113750388Y-61654943D01*
X113755157Y-61673982D01*
X113758037Y-61693397D01*
X113759000Y-61713000D01*
X113759000Y-62113000D01*
X113758037Y-62132603D01*
X113755157Y-62152018D01*
X113750388Y-62171057D01*
X113743776Y-62189537D01*
X113735384Y-62207279D01*
X113725294Y-62224114D01*
X113713602Y-62239879D01*
X113700421Y-62254421D01*
X113685879Y-62267602D01*
X113670114Y-62279294D01*
X113653279Y-62289384D01*
X113635537Y-62297776D01*
X113617057Y-62304388D01*
X113598018Y-62309157D01*
X113578603Y-62312037D01*
X113559000Y-62313000D01*
X113009000Y-62313000D01*
X112989397Y-62312037D01*
X112969982Y-62309157D01*
X112950943Y-62304388D01*
X112932463Y-62297776D01*
X112914721Y-62289384D01*
X112897886Y-62279294D01*
X112882121Y-62267602D01*
X112867579Y-62254421D01*
X112854398Y-62239879D01*
X112842706Y-62224114D01*
X112832616Y-62207279D01*
X112824224Y-62189537D01*
X112817612Y-62171057D01*
X112812843Y-62152018D01*
X112809963Y-62132603D01*
X112809000Y-62113000D01*
X112809000Y-61713000D01*
X112809963Y-61693397D01*
X112812843Y-61673982D01*
X112817612Y-61654943D01*
X112824224Y-61636463D01*
X112832616Y-61618721D01*
X112842706Y-61601886D01*
X112854398Y-61586121D01*
X112867579Y-61571579D01*
X112882121Y-61558398D01*
X112897886Y-61546706D01*
X112914721Y-61536616D01*
X112932463Y-61528224D01*
X112950943Y-61521612D01*
X112969982Y-61516843D01*
X112989397Y-61513963D01*
X113009000Y-61513000D01*
X113559000Y-61513000D01*
X113578603Y-61513963D01*
G37*
G04 #@! TD.AperFunction*
G04 #@! TA.AperFunction,SMDPad,CuDef*
G04 #@! TO.P,R4,1*
G04 #@! TO.N,/GP0*
G36*
X113578603Y-63163963D02*
G01*
X113598018Y-63166843D01*
X113617057Y-63171612D01*
X113635537Y-63178224D01*
X113653279Y-63186616D01*
X113670114Y-63196706D01*
X113685879Y-63208398D01*
X113700421Y-63221579D01*
X113713602Y-63236121D01*
X113725294Y-63251886D01*
X113735384Y-63268721D01*
X113743776Y-63286463D01*
X113750388Y-63304943D01*
X113755157Y-63323982D01*
X113758037Y-63343397D01*
X113759000Y-63363000D01*
X113759000Y-63763000D01*
X113758037Y-63782603D01*
X113755157Y-63802018D01*
X113750388Y-63821057D01*
X113743776Y-63839537D01*
X113735384Y-63857279D01*
X113725294Y-63874114D01*
X113713602Y-63889879D01*
X113700421Y-63904421D01*
X113685879Y-63917602D01*
X113670114Y-63929294D01*
X113653279Y-63939384D01*
X113635537Y-63947776D01*
X113617057Y-63954388D01*
X113598018Y-63959157D01*
X113578603Y-63962037D01*
X113559000Y-63963000D01*
X113009000Y-63963000D01*
X112989397Y-63962037D01*
X112969982Y-63959157D01*
X112950943Y-63954388D01*
X112932463Y-63947776D01*
X112914721Y-63939384D01*
X112897886Y-63929294D01*
X112882121Y-63917602D01*
X112867579Y-63904421D01*
X112854398Y-63889879D01*
X112842706Y-63874114D01*
X112832616Y-63857279D01*
X112824224Y-63839537D01*
X112817612Y-63821057D01*
X112812843Y-63802018D01*
X112809963Y-63782603D01*
X112809000Y-63763000D01*
X112809000Y-63363000D01*
X112809963Y-63343397D01*
X112812843Y-63323982D01*
X112817612Y-63304943D01*
X112824224Y-63286463D01*
X112832616Y-63268721D01*
X112842706Y-63251886D01*
X112854398Y-63236121D01*
X112867579Y-63221579D01*
X112882121Y-63208398D01*
X112897886Y-63196706D01*
X112914721Y-63186616D01*
X112932463Y-63178224D01*
X112950943Y-63171612D01*
X112969982Y-63166843D01*
X112989397Y-63163963D01*
X113009000Y-63163000D01*
X113559000Y-63163000D01*
X113578603Y-63163963D01*
G37*
G04 #@! TD.AperFunction*
G04 #@! TD*
G04 #@! TA.AperFunction,SMDPad,CuDef*
G04 #@! TO.P,R3,2*
G04 #@! TO.N,Net-(D2-Pad1)*
G36*
X102656603Y-62338963D02*
G01*
X102676018Y-62341843D01*
X102695057Y-62346612D01*
X102713537Y-62353224D01*
X102731279Y-62361616D01*
X102748114Y-62371706D01*
X102763879Y-62383398D01*
X102778421Y-62396579D01*
X102791602Y-62411121D01*
X102803294Y-62426886D01*
X102813384Y-62443721D01*
X102821776Y-62461463D01*
X102828388Y-62479943D01*
X102833157Y-62498982D01*
X102836037Y-62518397D01*
X102837000Y-62538000D01*
X102837000Y-62938000D01*
X102836037Y-62957603D01*
X102833157Y-62977018D01*
X102828388Y-62996057D01*
X102821776Y-63014537D01*
X102813384Y-63032279D01*
X102803294Y-63049114D01*
X102791602Y-63064879D01*
X102778421Y-63079421D01*
X102763879Y-63092602D01*
X102748114Y-63104294D01*
X102731279Y-63114384D01*
X102713537Y-63122776D01*
X102695057Y-63129388D01*
X102676018Y-63134157D01*
X102656603Y-63137037D01*
X102637000Y-63138000D01*
X102087000Y-63138000D01*
X102067397Y-63137037D01*
X102047982Y-63134157D01*
X102028943Y-63129388D01*
X102010463Y-63122776D01*
X101992721Y-63114384D01*
X101975886Y-63104294D01*
X101960121Y-63092602D01*
X101945579Y-63079421D01*
X101932398Y-63064879D01*
X101920706Y-63049114D01*
X101910616Y-63032279D01*
X101902224Y-63014537D01*
X101895612Y-62996057D01*
X101890843Y-62977018D01*
X101887963Y-62957603D01*
X101887000Y-62938000D01*
X101887000Y-62538000D01*
X101887963Y-62518397D01*
X101890843Y-62498982D01*
X101895612Y-62479943D01*
X101902224Y-62461463D01*
X101910616Y-62443721D01*
X101920706Y-62426886D01*
X101932398Y-62411121D01*
X101945579Y-62396579D01*
X101960121Y-62383398D01*
X101975886Y-62371706D01*
X101992721Y-62361616D01*
X102010463Y-62353224D01*
X102028943Y-62346612D01*
X102047982Y-62341843D01*
X102067397Y-62338963D01*
X102087000Y-62338000D01*
X102637000Y-62338000D01*
X102656603Y-62338963D01*
G37*
G04 #@! TD.AperFunction*
G04 #@! TA.AperFunction,SMDPad,CuDef*
G04 #@! TO.P,R3,1*
G04 #@! TO.N,/GP1*
G36*
X102656603Y-60688963D02*
G01*
X102676018Y-60691843D01*
X102695057Y-60696612D01*
X102713537Y-60703224D01*
X102731279Y-60711616D01*
X102748114Y-60721706D01*
X102763879Y-60733398D01*
X102778421Y-60746579D01*
X102791602Y-60761121D01*
X102803294Y-60776886D01*
X102813384Y-60793721D01*
X102821776Y-60811463D01*
X102828388Y-60829943D01*
X102833157Y-60848982D01*
X102836037Y-60868397D01*
X102837000Y-60888000D01*
X102837000Y-61288000D01*
X102836037Y-61307603D01*
X102833157Y-61327018D01*
X102828388Y-61346057D01*
X102821776Y-61364537D01*
X102813384Y-61382279D01*
X102803294Y-61399114D01*
X102791602Y-61414879D01*
X102778421Y-61429421D01*
X102763879Y-61442602D01*
X102748114Y-61454294D01*
X102731279Y-61464384D01*
X102713537Y-61472776D01*
X102695057Y-61479388D01*
X102676018Y-61484157D01*
X102656603Y-61487037D01*
X102637000Y-61488000D01*
X102087000Y-61488000D01*
X102067397Y-61487037D01*
X102047982Y-61484157D01*
X102028943Y-61479388D01*
X102010463Y-61472776D01*
X101992721Y-61464384D01*
X101975886Y-61454294D01*
X101960121Y-61442602D01*
X101945579Y-61429421D01*
X101932398Y-61414879D01*
X101920706Y-61399114D01*
X101910616Y-61382279D01*
X101902224Y-61364537D01*
X101895612Y-61346057D01*
X101890843Y-61327018D01*
X101887963Y-61307603D01*
X101887000Y-61288000D01*
X101887000Y-60888000D01*
X101887963Y-60868397D01*
X101890843Y-60848982D01*
X101895612Y-60829943D01*
X101902224Y-60811463D01*
X101910616Y-60793721D01*
X101920706Y-60776886D01*
X101932398Y-60761121D01*
X101945579Y-60746579D01*
X101960121Y-60733398D01*
X101975886Y-60721706D01*
X101992721Y-60711616D01*
X102010463Y-60703224D01*
X102028943Y-60696612D01*
X102047982Y-60691843D01*
X102067397Y-60688963D01*
X102087000Y-60688000D01*
X102637000Y-60688000D01*
X102656603Y-60688963D01*
G37*
G04 #@! TD.AperFunction*
G04 #@! TD*
G04 #@! TA.AperFunction,SMDPad,CuDef*
G04 #@! TO.P,R2,2*
G04 #@! TO.N,VDD*
G36*
X102656603Y-57257963D02*
G01*
X102676018Y-57260843D01*
X102695057Y-57265612D01*
X102713537Y-57272224D01*
X102731279Y-57280616D01*
X102748114Y-57290706D01*
X102763879Y-57302398D01*
X102778421Y-57315579D01*
X102791602Y-57330121D01*
X102803294Y-57345886D01*
X102813384Y-57362721D01*
X102821776Y-57380463D01*
X102828388Y-57398943D01*
X102833157Y-57417982D01*
X102836037Y-57437397D01*
X102837000Y-57457000D01*
X102837000Y-57857000D01*
X102836037Y-57876603D01*
X102833157Y-57896018D01*
X102828388Y-57915057D01*
X102821776Y-57933537D01*
X102813384Y-57951279D01*
X102803294Y-57968114D01*
X102791602Y-57983879D01*
X102778421Y-57998421D01*
X102763879Y-58011602D01*
X102748114Y-58023294D01*
X102731279Y-58033384D01*
X102713537Y-58041776D01*
X102695057Y-58048388D01*
X102676018Y-58053157D01*
X102656603Y-58056037D01*
X102637000Y-58057000D01*
X102087000Y-58057000D01*
X102067397Y-58056037D01*
X102047982Y-58053157D01*
X102028943Y-58048388D01*
X102010463Y-58041776D01*
X101992721Y-58033384D01*
X101975886Y-58023294D01*
X101960121Y-58011602D01*
X101945579Y-57998421D01*
X101932398Y-57983879D01*
X101920706Y-57968114D01*
X101910616Y-57951279D01*
X101902224Y-57933537D01*
X101895612Y-57915057D01*
X101890843Y-57896018D01*
X101887963Y-57876603D01*
X101887000Y-57857000D01*
X101887000Y-57457000D01*
X101887963Y-57437397D01*
X101890843Y-57417982D01*
X101895612Y-57398943D01*
X101902224Y-57380463D01*
X101910616Y-57362721D01*
X101920706Y-57345886D01*
X101932398Y-57330121D01*
X101945579Y-57315579D01*
X101960121Y-57302398D01*
X101975886Y-57290706D01*
X101992721Y-57280616D01*
X102010463Y-57272224D01*
X102028943Y-57265612D01*
X102047982Y-57260843D01*
X102067397Y-57257963D01*
X102087000Y-57257000D01*
X102637000Y-57257000D01*
X102656603Y-57257963D01*
G37*
G04 #@! TD.AperFunction*
G04 #@! TA.AperFunction,SMDPad,CuDef*
G04 #@! TO.P,R2,1*
G04 #@! TO.N,/~RST*
G36*
X102656603Y-55607963D02*
G01*
X102676018Y-55610843D01*
X102695057Y-55615612D01*
X102713537Y-55622224D01*
X102731279Y-55630616D01*
X102748114Y-55640706D01*
X102763879Y-55652398D01*
X102778421Y-55665579D01*
X102791602Y-55680121D01*
X102803294Y-55695886D01*
X102813384Y-55712721D01*
X102821776Y-55730463D01*
X102828388Y-55748943D01*
X102833157Y-55767982D01*
X102836037Y-55787397D01*
X102837000Y-55807000D01*
X102837000Y-56207000D01*
X102836037Y-56226603D01*
X102833157Y-56246018D01*
X102828388Y-56265057D01*
X102821776Y-56283537D01*
X102813384Y-56301279D01*
X102803294Y-56318114D01*
X102791602Y-56333879D01*
X102778421Y-56348421D01*
X102763879Y-56361602D01*
X102748114Y-56373294D01*
X102731279Y-56383384D01*
X102713537Y-56391776D01*
X102695057Y-56398388D01*
X102676018Y-56403157D01*
X102656603Y-56406037D01*
X102637000Y-56407000D01*
X102087000Y-56407000D01*
X102067397Y-56406037D01*
X102047982Y-56403157D01*
X102028943Y-56398388D01*
X102010463Y-56391776D01*
X101992721Y-56383384D01*
X101975886Y-56373294D01*
X101960121Y-56361602D01*
X101945579Y-56348421D01*
X101932398Y-56333879D01*
X101920706Y-56318114D01*
X101910616Y-56301279D01*
X101902224Y-56283537D01*
X101895612Y-56265057D01*
X101890843Y-56246018D01*
X101887963Y-56226603D01*
X101887000Y-56207000D01*
X101887000Y-55807000D01*
X101887963Y-55787397D01*
X101890843Y-55767982D01*
X101895612Y-55748943D01*
X101902224Y-55730463D01*
X101910616Y-55712721D01*
X101920706Y-55695886D01*
X101932398Y-55680121D01*
X101945579Y-55665579D01*
X101960121Y-55652398D01*
X101975886Y-55640706D01*
X101992721Y-55630616D01*
X102010463Y-55622224D01*
X102028943Y-55615612D01*
X102047982Y-55610843D01*
X102067397Y-55607963D01*
X102087000Y-55607000D01*
X102637000Y-55607000D01*
X102656603Y-55607963D01*
G37*
G04 #@! TD.AperFunction*
G04 #@! TD*
G04 #@! TA.AperFunction,SMDPad,CuDef*
G04 #@! TO.P,R1,2*
G04 #@! TO.N,Net-(D1-Pad1)*
G36*
X101894603Y-49448963D02*
G01*
X101914018Y-49451843D01*
X101933057Y-49456612D01*
X101951537Y-49463224D01*
X101969279Y-49471616D01*
X101986114Y-49481706D01*
X102001879Y-49493398D01*
X102016421Y-49506579D01*
X102029602Y-49521121D01*
X102041294Y-49536886D01*
X102051384Y-49553721D01*
X102059776Y-49571463D01*
X102066388Y-49589943D01*
X102071157Y-49608982D01*
X102074037Y-49628397D01*
X102075000Y-49648000D01*
X102075000Y-50048000D01*
X102074037Y-50067603D01*
X102071157Y-50087018D01*
X102066388Y-50106057D01*
X102059776Y-50124537D01*
X102051384Y-50142279D01*
X102041294Y-50159114D01*
X102029602Y-50174879D01*
X102016421Y-50189421D01*
X102001879Y-50202602D01*
X101986114Y-50214294D01*
X101969279Y-50224384D01*
X101951537Y-50232776D01*
X101933057Y-50239388D01*
X101914018Y-50244157D01*
X101894603Y-50247037D01*
X101875000Y-50248000D01*
X101325000Y-50248000D01*
X101305397Y-50247037D01*
X101285982Y-50244157D01*
X101266943Y-50239388D01*
X101248463Y-50232776D01*
X101230721Y-50224384D01*
X101213886Y-50214294D01*
X101198121Y-50202602D01*
X101183579Y-50189421D01*
X101170398Y-50174879D01*
X101158706Y-50159114D01*
X101148616Y-50142279D01*
X101140224Y-50124537D01*
X101133612Y-50106057D01*
X101128843Y-50087018D01*
X101125963Y-50067603D01*
X101125000Y-50048000D01*
X101125000Y-49648000D01*
X101125963Y-49628397D01*
X101128843Y-49608982D01*
X101133612Y-49589943D01*
X101140224Y-49571463D01*
X101148616Y-49553721D01*
X101158706Y-49536886D01*
X101170398Y-49521121D01*
X101183579Y-49506579D01*
X101198121Y-49493398D01*
X101213886Y-49481706D01*
X101230721Y-49471616D01*
X101248463Y-49463224D01*
X101266943Y-49456612D01*
X101285982Y-49451843D01*
X101305397Y-49448963D01*
X101325000Y-49448000D01*
X101875000Y-49448000D01*
X101894603Y-49448963D01*
G37*
G04 #@! TD.AperFunction*
G04 #@! TA.AperFunction,SMDPad,CuDef*
G04 #@! TO.P,R1,1*
G04 #@! TO.N,GND*
G36*
X101894603Y-51098963D02*
G01*
X101914018Y-51101843D01*
X101933057Y-51106612D01*
X101951537Y-51113224D01*
X101969279Y-51121616D01*
X101986114Y-51131706D01*
X102001879Y-51143398D01*
X102016421Y-51156579D01*
X102029602Y-51171121D01*
X102041294Y-51186886D01*
X102051384Y-51203721D01*
X102059776Y-51221463D01*
X102066388Y-51239943D01*
X102071157Y-51258982D01*
X102074037Y-51278397D01*
X102075000Y-51298000D01*
X102075000Y-51698000D01*
X102074037Y-51717603D01*
X102071157Y-51737018D01*
X102066388Y-51756057D01*
X102059776Y-51774537D01*
X102051384Y-51792279D01*
X102041294Y-51809114D01*
X102029602Y-51824879D01*
X102016421Y-51839421D01*
X102001879Y-51852602D01*
X101986114Y-51864294D01*
X101969279Y-51874384D01*
X101951537Y-51882776D01*
X101933057Y-51889388D01*
X101914018Y-51894157D01*
X101894603Y-51897037D01*
X101875000Y-51898000D01*
X101325000Y-51898000D01*
X101305397Y-51897037D01*
X101285982Y-51894157D01*
X101266943Y-51889388D01*
X101248463Y-51882776D01*
X101230721Y-51874384D01*
X101213886Y-51864294D01*
X101198121Y-51852602D01*
X101183579Y-51839421D01*
X101170398Y-51824879D01*
X101158706Y-51809114D01*
X101148616Y-51792279D01*
X101140224Y-51774537D01*
X101133612Y-51756057D01*
X101128843Y-51737018D01*
X101125963Y-51717603D01*
X101125000Y-51698000D01*
X101125000Y-51298000D01*
X101125963Y-51278397D01*
X101128843Y-51258982D01*
X101133612Y-51239943D01*
X101140224Y-51221463D01*
X101148616Y-51203721D01*
X101158706Y-51186886D01*
X101170398Y-51171121D01*
X101183579Y-51156579D01*
X101198121Y-51143398D01*
X101213886Y-51131706D01*
X101230721Y-51121616D01*
X101248463Y-51113224D01*
X101266943Y-51106612D01*
X101285982Y-51101843D01*
X101305397Y-51098963D01*
X101325000Y-51098000D01*
X101875000Y-51098000D01*
X101894603Y-51098963D01*
G37*
G04 #@! TD.AperFunction*
G04 #@! TD*
D16*
G04 #@! TO.P,J1,6*
G04 #@! TO.N,Net-(J1-Pad6)*
X110850000Y-44482500D03*
X105050000Y-44482500D03*
D17*
X104450000Y-44482500D03*
X111450000Y-44482500D03*
D18*
X108950000Y-44482500D03*
D19*
X105450000Y-47182500D03*
D20*
G04 #@! TO.P,J1,3*
G04 #@! TO.N,/USB+*
X107950000Y-47182500D03*
G04 #@! TO.P,J1,4*
G04 #@! TO.N,N/C*
X107300000Y-47182500D03*
G04 #@! TO.P,J1,5*
G04 #@! TO.N,GND*
X106650000Y-47182500D03*
G04 #@! TO.P,J1,1*
G04 #@! TO.N,VBUS*
X109250000Y-47182500D03*
G04 #@! TO.P,J1,2*
G04 #@! TO.N,/USB-*
X108600000Y-47182500D03*
D19*
G04 #@! TO.P,J1,6*
G04 #@! TO.N,Net-(J1-Pad6)*
X110450000Y-47182500D03*
D18*
X106950000Y-44482500D03*
G04 #@! TD*
G04 #@! TA.AperFunction,SMDPad,CuDef*
D13*
G04 #@! TO.P,D1,2*
G04 #@! TO.N,VDD*
G36*
X103858142Y-51251174D02*
G01*
X103881803Y-51254684D01*
X103905007Y-51260496D01*
X103927529Y-51268554D01*
X103949153Y-51278782D01*
X103969670Y-51291079D01*
X103988883Y-51305329D01*
X104006607Y-51321393D01*
X104022671Y-51339117D01*
X104036921Y-51358330D01*
X104049218Y-51378847D01*
X104059446Y-51400471D01*
X104067504Y-51422993D01*
X104073316Y-51446197D01*
X104076826Y-51469858D01*
X104078000Y-51493750D01*
X104078000Y-51981250D01*
X104076826Y-52005142D01*
X104073316Y-52028803D01*
X104067504Y-52052007D01*
X104059446Y-52074529D01*
X104049218Y-52096153D01*
X104036921Y-52116670D01*
X104022671Y-52135883D01*
X104006607Y-52153607D01*
X103988883Y-52169671D01*
X103969670Y-52183921D01*
X103949153Y-52196218D01*
X103927529Y-52206446D01*
X103905007Y-52214504D01*
X103881803Y-52220316D01*
X103858142Y-52223826D01*
X103834250Y-52225000D01*
X102921750Y-52225000D01*
X102897858Y-52223826D01*
X102874197Y-52220316D01*
X102850993Y-52214504D01*
X102828471Y-52206446D01*
X102806847Y-52196218D01*
X102786330Y-52183921D01*
X102767117Y-52169671D01*
X102749393Y-52153607D01*
X102733329Y-52135883D01*
X102719079Y-52116670D01*
X102706782Y-52096153D01*
X102696554Y-52074529D01*
X102688496Y-52052007D01*
X102682684Y-52028803D01*
X102679174Y-52005142D01*
X102678000Y-51981250D01*
X102678000Y-51493750D01*
X102679174Y-51469858D01*
X102682684Y-51446197D01*
X102688496Y-51422993D01*
X102696554Y-51400471D01*
X102706782Y-51378847D01*
X102719079Y-51358330D01*
X102733329Y-51339117D01*
X102749393Y-51321393D01*
X102767117Y-51305329D01*
X102786330Y-51291079D01*
X102806847Y-51278782D01*
X102828471Y-51268554D01*
X102850993Y-51260496D01*
X102874197Y-51254684D01*
X102897858Y-51251174D01*
X102921750Y-51250000D01*
X103834250Y-51250000D01*
X103858142Y-51251174D01*
G37*
G04 #@! TD.AperFunction*
G04 #@! TA.AperFunction,SMDPad,CuDef*
G04 #@! TO.P,D1,1*
G04 #@! TO.N,Net-(D1-Pad1)*
G36*
X103858142Y-49376174D02*
G01*
X103881803Y-49379684D01*
X103905007Y-49385496D01*
X103927529Y-49393554D01*
X103949153Y-49403782D01*
X103969670Y-49416079D01*
X103988883Y-49430329D01*
X104006607Y-49446393D01*
X104022671Y-49464117D01*
X104036921Y-49483330D01*
X104049218Y-49503847D01*
X104059446Y-49525471D01*
X104067504Y-49547993D01*
X104073316Y-49571197D01*
X104076826Y-49594858D01*
X104078000Y-49618750D01*
X104078000Y-50106250D01*
X104076826Y-50130142D01*
X104073316Y-50153803D01*
X104067504Y-50177007D01*
X104059446Y-50199529D01*
X104049218Y-50221153D01*
X104036921Y-50241670D01*
X104022671Y-50260883D01*
X104006607Y-50278607D01*
X103988883Y-50294671D01*
X103969670Y-50308921D01*
X103949153Y-50321218D01*
X103927529Y-50331446D01*
X103905007Y-50339504D01*
X103881803Y-50345316D01*
X103858142Y-50348826D01*
X103834250Y-50350000D01*
X102921750Y-50350000D01*
X102897858Y-50348826D01*
X102874197Y-50345316D01*
X102850993Y-50339504D01*
X102828471Y-50331446D01*
X102806847Y-50321218D01*
X102786330Y-50308921D01*
X102767117Y-50294671D01*
X102749393Y-50278607D01*
X102733329Y-50260883D01*
X102719079Y-50241670D01*
X102706782Y-50221153D01*
X102696554Y-50199529D01*
X102688496Y-50177007D01*
X102682684Y-50153803D01*
X102679174Y-50130142D01*
X102678000Y-50106250D01*
X102678000Y-49618750D01*
X102679174Y-49594858D01*
X102682684Y-49571197D01*
X102688496Y-49547993D01*
X102696554Y-49525471D01*
X102706782Y-49503847D01*
X102719079Y-49483330D01*
X102733329Y-49464117D01*
X102749393Y-49446393D01*
X102767117Y-49430329D01*
X102786330Y-49416079D01*
X102806847Y-49403782D01*
X102828471Y-49393554D01*
X102850993Y-49385496D01*
X102874197Y-49379684D01*
X102897858Y-49376174D01*
X102921750Y-49375000D01*
X103834250Y-49375000D01*
X103858142Y-49376174D01*
G37*
G04 #@! TD.AperFunction*
G04 #@! TD*
G04 #@! TA.AperFunction,SMDPad,CuDef*
G04 #@! TO.P,C4,2*
G04 #@! TO.N,GND*
G36*
X114369554Y-55914083D02*
G01*
X114391395Y-55917323D01*
X114412814Y-55922688D01*
X114433604Y-55930127D01*
X114453564Y-55939568D01*
X114472503Y-55950919D01*
X114490238Y-55964073D01*
X114506599Y-55978901D01*
X114521427Y-55995262D01*
X114534581Y-56012997D01*
X114545932Y-56031936D01*
X114555373Y-56051896D01*
X114562812Y-56072686D01*
X114568177Y-56094105D01*
X114571417Y-56115946D01*
X114572500Y-56138000D01*
X114572500Y-56638000D01*
X114571417Y-56660054D01*
X114568177Y-56681895D01*
X114562812Y-56703314D01*
X114555373Y-56724104D01*
X114545932Y-56744064D01*
X114534581Y-56763003D01*
X114521427Y-56780738D01*
X114506599Y-56797099D01*
X114490238Y-56811927D01*
X114472503Y-56825081D01*
X114453564Y-56836432D01*
X114433604Y-56845873D01*
X114412814Y-56853312D01*
X114391395Y-56858677D01*
X114369554Y-56861917D01*
X114347500Y-56863000D01*
X113897500Y-56863000D01*
X113875446Y-56861917D01*
X113853605Y-56858677D01*
X113832186Y-56853312D01*
X113811396Y-56845873D01*
X113791436Y-56836432D01*
X113772497Y-56825081D01*
X113754762Y-56811927D01*
X113738401Y-56797099D01*
X113723573Y-56780738D01*
X113710419Y-56763003D01*
X113699068Y-56744064D01*
X113689627Y-56724104D01*
X113682188Y-56703314D01*
X113676823Y-56681895D01*
X113673583Y-56660054D01*
X113672500Y-56638000D01*
X113672500Y-56138000D01*
X113673583Y-56115946D01*
X113676823Y-56094105D01*
X113682188Y-56072686D01*
X113689627Y-56051896D01*
X113699068Y-56031936D01*
X113710419Y-56012997D01*
X113723573Y-55995262D01*
X113738401Y-55978901D01*
X113754762Y-55964073D01*
X113772497Y-55950919D01*
X113791436Y-55939568D01*
X113811396Y-55930127D01*
X113832186Y-55922688D01*
X113853605Y-55917323D01*
X113875446Y-55914083D01*
X113897500Y-55913000D01*
X114347500Y-55913000D01*
X114369554Y-55914083D01*
G37*
G04 #@! TD.AperFunction*
G04 #@! TA.AperFunction,SMDPad,CuDef*
G04 #@! TO.P,C4,1*
G04 #@! TO.N,Net-(C4-Pad1)*
G36*
X112819554Y-55914083D02*
G01*
X112841395Y-55917323D01*
X112862814Y-55922688D01*
X112883604Y-55930127D01*
X112903564Y-55939568D01*
X112922503Y-55950919D01*
X112940238Y-55964073D01*
X112956599Y-55978901D01*
X112971427Y-55995262D01*
X112984581Y-56012997D01*
X112995932Y-56031936D01*
X113005373Y-56051896D01*
X113012812Y-56072686D01*
X113018177Y-56094105D01*
X113021417Y-56115946D01*
X113022500Y-56138000D01*
X113022500Y-56638000D01*
X113021417Y-56660054D01*
X113018177Y-56681895D01*
X113012812Y-56703314D01*
X113005373Y-56724104D01*
X112995932Y-56744064D01*
X112984581Y-56763003D01*
X112971427Y-56780738D01*
X112956599Y-56797099D01*
X112940238Y-56811927D01*
X112922503Y-56825081D01*
X112903564Y-56836432D01*
X112883604Y-56845873D01*
X112862814Y-56853312D01*
X112841395Y-56858677D01*
X112819554Y-56861917D01*
X112797500Y-56863000D01*
X112347500Y-56863000D01*
X112325446Y-56861917D01*
X112303605Y-56858677D01*
X112282186Y-56853312D01*
X112261396Y-56845873D01*
X112241436Y-56836432D01*
X112222497Y-56825081D01*
X112204762Y-56811927D01*
X112188401Y-56797099D01*
X112173573Y-56780738D01*
X112160419Y-56763003D01*
X112149068Y-56744064D01*
X112139627Y-56724104D01*
X112132188Y-56703314D01*
X112126823Y-56681895D01*
X112123583Y-56660054D01*
X112122500Y-56638000D01*
X112122500Y-56138000D01*
X112123583Y-56115946D01*
X112126823Y-56094105D01*
X112132188Y-56072686D01*
X112139627Y-56051896D01*
X112149068Y-56031936D01*
X112160419Y-56012997D01*
X112173573Y-55995262D01*
X112188401Y-55978901D01*
X112204762Y-55964073D01*
X112222497Y-55950919D01*
X112241436Y-55939568D01*
X112261396Y-55930127D01*
X112282186Y-55922688D01*
X112303605Y-55917323D01*
X112325446Y-55914083D01*
X112347500Y-55913000D01*
X112797500Y-55913000D01*
X112819554Y-55914083D01*
G37*
G04 #@! TD.AperFunction*
G04 #@! TD*
G04 #@! TA.AperFunction,SMDPad,CuDef*
G04 #@! TO.P,C3,2*
G04 #@! TO.N,GND*
G36*
X102215054Y-52866083D02*
G01*
X102236895Y-52869323D01*
X102258314Y-52874688D01*
X102279104Y-52882127D01*
X102299064Y-52891568D01*
X102318003Y-52902919D01*
X102335738Y-52916073D01*
X102352099Y-52930901D01*
X102366927Y-52947262D01*
X102380081Y-52964997D01*
X102391432Y-52983936D01*
X102400873Y-53003896D01*
X102408312Y-53024686D01*
X102413677Y-53046105D01*
X102416917Y-53067946D01*
X102418000Y-53090000D01*
X102418000Y-53590000D01*
X102416917Y-53612054D01*
X102413677Y-53633895D01*
X102408312Y-53655314D01*
X102400873Y-53676104D01*
X102391432Y-53696064D01*
X102380081Y-53715003D01*
X102366927Y-53732738D01*
X102352099Y-53749099D01*
X102335738Y-53763927D01*
X102318003Y-53777081D01*
X102299064Y-53788432D01*
X102279104Y-53797873D01*
X102258314Y-53805312D01*
X102236895Y-53810677D01*
X102215054Y-53813917D01*
X102193000Y-53815000D01*
X101743000Y-53815000D01*
X101720946Y-53813917D01*
X101699105Y-53810677D01*
X101677686Y-53805312D01*
X101656896Y-53797873D01*
X101636936Y-53788432D01*
X101617997Y-53777081D01*
X101600262Y-53763927D01*
X101583901Y-53749099D01*
X101569073Y-53732738D01*
X101555919Y-53715003D01*
X101544568Y-53696064D01*
X101535127Y-53676104D01*
X101527688Y-53655314D01*
X101522323Y-53633895D01*
X101519083Y-53612054D01*
X101518000Y-53590000D01*
X101518000Y-53090000D01*
X101519083Y-53067946D01*
X101522323Y-53046105D01*
X101527688Y-53024686D01*
X101535127Y-53003896D01*
X101544568Y-52983936D01*
X101555919Y-52964997D01*
X101569073Y-52947262D01*
X101583901Y-52930901D01*
X101600262Y-52916073D01*
X101617997Y-52902919D01*
X101636936Y-52891568D01*
X101656896Y-52882127D01*
X101677686Y-52874688D01*
X101699105Y-52869323D01*
X101720946Y-52866083D01*
X101743000Y-52865000D01*
X102193000Y-52865000D01*
X102215054Y-52866083D01*
G37*
G04 #@! TD.AperFunction*
G04 #@! TA.AperFunction,SMDPad,CuDef*
G04 #@! TO.P,C3,1*
G04 #@! TO.N,VDD*
G36*
X103765054Y-52866083D02*
G01*
X103786895Y-52869323D01*
X103808314Y-52874688D01*
X103829104Y-52882127D01*
X103849064Y-52891568D01*
X103868003Y-52902919D01*
X103885738Y-52916073D01*
X103902099Y-52930901D01*
X103916927Y-52947262D01*
X103930081Y-52964997D01*
X103941432Y-52983936D01*
X103950873Y-53003896D01*
X103958312Y-53024686D01*
X103963677Y-53046105D01*
X103966917Y-53067946D01*
X103968000Y-53090000D01*
X103968000Y-53590000D01*
X103966917Y-53612054D01*
X103963677Y-53633895D01*
X103958312Y-53655314D01*
X103950873Y-53676104D01*
X103941432Y-53696064D01*
X103930081Y-53715003D01*
X103916927Y-53732738D01*
X103902099Y-53749099D01*
X103885738Y-53763927D01*
X103868003Y-53777081D01*
X103849064Y-53788432D01*
X103829104Y-53797873D01*
X103808314Y-53805312D01*
X103786895Y-53810677D01*
X103765054Y-53813917D01*
X103743000Y-53815000D01*
X103293000Y-53815000D01*
X103270946Y-53813917D01*
X103249105Y-53810677D01*
X103227686Y-53805312D01*
X103206896Y-53797873D01*
X103186936Y-53788432D01*
X103167997Y-53777081D01*
X103150262Y-53763927D01*
X103133901Y-53749099D01*
X103119073Y-53732738D01*
X103105919Y-53715003D01*
X103094568Y-53696064D01*
X103085127Y-53676104D01*
X103077688Y-53655314D01*
X103072323Y-53633895D01*
X103069083Y-53612054D01*
X103068000Y-53590000D01*
X103068000Y-53090000D01*
X103069083Y-53067946D01*
X103072323Y-53046105D01*
X103077688Y-53024686D01*
X103085127Y-53003896D01*
X103094568Y-52983936D01*
X103105919Y-52964997D01*
X103119073Y-52947262D01*
X103133901Y-52930901D01*
X103150262Y-52916073D01*
X103167997Y-52902919D01*
X103186936Y-52891568D01*
X103206896Y-52882127D01*
X103227686Y-52874688D01*
X103249105Y-52869323D01*
X103270946Y-52866083D01*
X103293000Y-52865000D01*
X103743000Y-52865000D01*
X103765054Y-52866083D01*
G37*
G04 #@! TD.AperFunction*
G04 #@! TD*
G04 #@! TA.AperFunction,SMDPad,CuDef*
G04 #@! TO.P,C2,2*
G04 #@! TO.N,GND*
G36*
X105682054Y-49830083D02*
G01*
X105703895Y-49833323D01*
X105725314Y-49838688D01*
X105746104Y-49846127D01*
X105766064Y-49855568D01*
X105785003Y-49866919D01*
X105802738Y-49880073D01*
X105819099Y-49894901D01*
X105833927Y-49911262D01*
X105847081Y-49928997D01*
X105858432Y-49947936D01*
X105867873Y-49967896D01*
X105875312Y-49988686D01*
X105880677Y-50010105D01*
X105883917Y-50031946D01*
X105885000Y-50054000D01*
X105885000Y-50504000D01*
X105883917Y-50526054D01*
X105880677Y-50547895D01*
X105875312Y-50569314D01*
X105867873Y-50590104D01*
X105858432Y-50610064D01*
X105847081Y-50629003D01*
X105833927Y-50646738D01*
X105819099Y-50663099D01*
X105802738Y-50677927D01*
X105785003Y-50691081D01*
X105766064Y-50702432D01*
X105746104Y-50711873D01*
X105725314Y-50719312D01*
X105703895Y-50724677D01*
X105682054Y-50727917D01*
X105660000Y-50729000D01*
X105160000Y-50729000D01*
X105137946Y-50727917D01*
X105116105Y-50724677D01*
X105094686Y-50719312D01*
X105073896Y-50711873D01*
X105053936Y-50702432D01*
X105034997Y-50691081D01*
X105017262Y-50677927D01*
X105000901Y-50663099D01*
X104986073Y-50646738D01*
X104972919Y-50629003D01*
X104961568Y-50610064D01*
X104952127Y-50590104D01*
X104944688Y-50569314D01*
X104939323Y-50547895D01*
X104936083Y-50526054D01*
X104935000Y-50504000D01*
X104935000Y-50054000D01*
X104936083Y-50031946D01*
X104939323Y-50010105D01*
X104944688Y-49988686D01*
X104952127Y-49967896D01*
X104961568Y-49947936D01*
X104972919Y-49928997D01*
X104986073Y-49911262D01*
X105000901Y-49894901D01*
X105017262Y-49880073D01*
X105034997Y-49866919D01*
X105053936Y-49855568D01*
X105073896Y-49846127D01*
X105094686Y-49838688D01*
X105116105Y-49833323D01*
X105137946Y-49830083D01*
X105160000Y-49829000D01*
X105660000Y-49829000D01*
X105682054Y-49830083D01*
G37*
G04 #@! TD.AperFunction*
G04 #@! TA.AperFunction,SMDPad,CuDef*
G04 #@! TO.P,C2,1*
G04 #@! TO.N,VDD*
G36*
X105682054Y-51380083D02*
G01*
X105703895Y-51383323D01*
X105725314Y-51388688D01*
X105746104Y-51396127D01*
X105766064Y-51405568D01*
X105785003Y-51416919D01*
X105802738Y-51430073D01*
X105819099Y-51444901D01*
X105833927Y-51461262D01*
X105847081Y-51478997D01*
X105858432Y-51497936D01*
X105867873Y-51517896D01*
X105875312Y-51538686D01*
X105880677Y-51560105D01*
X105883917Y-51581946D01*
X105885000Y-51604000D01*
X105885000Y-52054000D01*
X105883917Y-52076054D01*
X105880677Y-52097895D01*
X105875312Y-52119314D01*
X105867873Y-52140104D01*
X105858432Y-52160064D01*
X105847081Y-52179003D01*
X105833927Y-52196738D01*
X105819099Y-52213099D01*
X105802738Y-52227927D01*
X105785003Y-52241081D01*
X105766064Y-52252432D01*
X105746104Y-52261873D01*
X105725314Y-52269312D01*
X105703895Y-52274677D01*
X105682054Y-52277917D01*
X105660000Y-52279000D01*
X105160000Y-52279000D01*
X105137946Y-52277917D01*
X105116105Y-52274677D01*
X105094686Y-52269312D01*
X105073896Y-52261873D01*
X105053936Y-52252432D01*
X105034997Y-52241081D01*
X105017262Y-52227927D01*
X105000901Y-52213099D01*
X104986073Y-52196738D01*
X104972919Y-52179003D01*
X104961568Y-52160064D01*
X104952127Y-52140104D01*
X104944688Y-52119314D01*
X104939323Y-52097895D01*
X104936083Y-52076054D01*
X104935000Y-52054000D01*
X104935000Y-51604000D01*
X104936083Y-51581946D01*
X104939323Y-51560105D01*
X104944688Y-51538686D01*
X104952127Y-51517896D01*
X104961568Y-51497936D01*
X104972919Y-51478997D01*
X104986073Y-51461262D01*
X105000901Y-51444901D01*
X105017262Y-51430073D01*
X105034997Y-51416919D01*
X105053936Y-51405568D01*
X105073896Y-51396127D01*
X105094686Y-51388688D01*
X105116105Y-51383323D01*
X105137946Y-51380083D01*
X105160000Y-51379000D01*
X105660000Y-51379000D01*
X105682054Y-51380083D01*
G37*
G04 #@! TD.AperFunction*
G04 #@! TD*
G04 #@! TA.AperFunction,SMDPad,CuDef*
G04 #@! TO.P,C1,2*
G04 #@! TO.N,GND*
G36*
X110762054Y-49817083D02*
G01*
X110783895Y-49820323D01*
X110805314Y-49825688D01*
X110826104Y-49833127D01*
X110846064Y-49842568D01*
X110865003Y-49853919D01*
X110882738Y-49867073D01*
X110899099Y-49881901D01*
X110913927Y-49898262D01*
X110927081Y-49915997D01*
X110938432Y-49934936D01*
X110947873Y-49954896D01*
X110955312Y-49975686D01*
X110960677Y-49997105D01*
X110963917Y-50018946D01*
X110965000Y-50041000D01*
X110965000Y-50491000D01*
X110963917Y-50513054D01*
X110960677Y-50534895D01*
X110955312Y-50556314D01*
X110947873Y-50577104D01*
X110938432Y-50597064D01*
X110927081Y-50616003D01*
X110913927Y-50633738D01*
X110899099Y-50650099D01*
X110882738Y-50664927D01*
X110865003Y-50678081D01*
X110846064Y-50689432D01*
X110826104Y-50698873D01*
X110805314Y-50706312D01*
X110783895Y-50711677D01*
X110762054Y-50714917D01*
X110740000Y-50716000D01*
X110240000Y-50716000D01*
X110217946Y-50714917D01*
X110196105Y-50711677D01*
X110174686Y-50706312D01*
X110153896Y-50698873D01*
X110133936Y-50689432D01*
X110114997Y-50678081D01*
X110097262Y-50664927D01*
X110080901Y-50650099D01*
X110066073Y-50633738D01*
X110052919Y-50616003D01*
X110041568Y-50597064D01*
X110032127Y-50577104D01*
X110024688Y-50556314D01*
X110019323Y-50534895D01*
X110016083Y-50513054D01*
X110015000Y-50491000D01*
X110015000Y-50041000D01*
X110016083Y-50018946D01*
X110019323Y-49997105D01*
X110024688Y-49975686D01*
X110032127Y-49954896D01*
X110041568Y-49934936D01*
X110052919Y-49915997D01*
X110066073Y-49898262D01*
X110080901Y-49881901D01*
X110097262Y-49867073D01*
X110114997Y-49853919D01*
X110133936Y-49842568D01*
X110153896Y-49833127D01*
X110174686Y-49825688D01*
X110196105Y-49820323D01*
X110217946Y-49817083D01*
X110240000Y-49816000D01*
X110740000Y-49816000D01*
X110762054Y-49817083D01*
G37*
G04 #@! TD.AperFunction*
G04 #@! TA.AperFunction,SMDPad,CuDef*
G04 #@! TO.P,C1,1*
G04 #@! TO.N,VBUS*
G36*
X110762054Y-51367083D02*
G01*
X110783895Y-51370323D01*
X110805314Y-51375688D01*
X110826104Y-51383127D01*
X110846064Y-51392568D01*
X110865003Y-51403919D01*
X110882738Y-51417073D01*
X110899099Y-51431901D01*
X110913927Y-51448262D01*
X110927081Y-51465997D01*
X110938432Y-51484936D01*
X110947873Y-51504896D01*
X110955312Y-51525686D01*
X110960677Y-51547105D01*
X110963917Y-51568946D01*
X110965000Y-51591000D01*
X110965000Y-52041000D01*
X110963917Y-52063054D01*
X110960677Y-52084895D01*
X110955312Y-52106314D01*
X110947873Y-52127104D01*
X110938432Y-52147064D01*
X110927081Y-52166003D01*
X110913927Y-52183738D01*
X110899099Y-52200099D01*
X110882738Y-52214927D01*
X110865003Y-52228081D01*
X110846064Y-52239432D01*
X110826104Y-52248873D01*
X110805314Y-52256312D01*
X110783895Y-52261677D01*
X110762054Y-52264917D01*
X110740000Y-52266000D01*
X110240000Y-52266000D01*
X110217946Y-52264917D01*
X110196105Y-52261677D01*
X110174686Y-52256312D01*
X110153896Y-52248873D01*
X110133936Y-52239432D01*
X110114997Y-52228081D01*
X110097262Y-52214927D01*
X110080901Y-52200099D01*
X110066073Y-52183738D01*
X110052919Y-52166003D01*
X110041568Y-52147064D01*
X110032127Y-52127104D01*
X110024688Y-52106314D01*
X110019323Y-52084895D01*
X110016083Y-52063054D01*
X110015000Y-52041000D01*
X110015000Y-51591000D01*
X110016083Y-51568946D01*
X110019323Y-51547105D01*
X110024688Y-51525686D01*
X110032127Y-51504896D01*
X110041568Y-51484936D01*
X110052919Y-51465997D01*
X110066073Y-51448262D01*
X110080901Y-51431901D01*
X110097262Y-51417073D01*
X110114997Y-51403919D01*
X110133936Y-51392568D01*
X110153896Y-51383127D01*
X110174686Y-51375688D01*
X110196105Y-51370323D01*
X110217946Y-51367083D01*
X110240000Y-51366000D01*
X110740000Y-51366000D01*
X110762054Y-51367083D01*
G37*
G04 #@! TD.AperFunction*
G04 #@! TD*
D21*
G04 #@! TO.N,GND*
X106680000Y-48260000D03*
X111760000Y-53340000D03*
X101600000Y-50800000D03*
X113601500Y-56388000D03*
X105410005Y-50799995D03*
X102489000Y-53340000D03*
X107950000Y-49085500D03*
X110490000Y-50863502D03*
G04 #@! TO.N,VBUS*
X109250000Y-46237498D03*
X108585004Y-52832000D03*
X109220000Y-49657000D03*
G04 #@! TO.N,VDD*
X107124500Y-56070500D03*
X107314922Y-52832000D03*
G04 #@! TO.N,Net-(C4-Pad1)*
X108775500Y-56070500D03*
G04 #@! TD*
D22*
G04 #@! TO.N,GND*
X106650000Y-48230000D02*
X106680000Y-48260000D01*
X106650000Y-47182500D02*
X106650000Y-48230000D01*
X110425000Y-53340000D02*
X111760000Y-53340000D01*
D23*
X101600000Y-51498000D02*
X101600000Y-50800000D01*
D24*
X114122500Y-56388000D02*
X113601500Y-56388000D01*
D22*
X105410000Y-50279000D02*
X105410000Y-50799990D01*
X105410000Y-50799990D02*
X105410005Y-50799995D01*
X101968000Y-53340000D02*
X102489000Y-53340000D01*
X110490000Y-50266000D02*
X110490000Y-50863502D01*
D24*
X107950000Y-49800000D02*
X107950000Y-49085500D01*
D22*
G04 #@! TO.N,VBUS*
X116825000Y-50785000D02*
X116840000Y-50800000D01*
X109250000Y-47182500D02*
X109250000Y-46237498D01*
X116840000Y-50673000D02*
X116840000Y-50800000D01*
X112141000Y-45974000D02*
X116840000Y-50673000D01*
X109513498Y-45974000D02*
X112141000Y-45974000D01*
X109250000Y-46237498D02*
X109513498Y-45974000D01*
X108916000Y-51816000D02*
X108900000Y-51800000D01*
X109601000Y-51816000D02*
X108916000Y-51816000D01*
X110490000Y-51816000D02*
X109601000Y-51816000D01*
X109220000Y-49657000D02*
X109220000Y-50736500D01*
X108900000Y-51056500D02*
X108900000Y-51800000D01*
X109220000Y-50736500D02*
X108900000Y-51056500D01*
X108900000Y-51800000D02*
X108900000Y-52517004D01*
X108900000Y-52517004D02*
X108585004Y-52832000D01*
G04 #@! TO.N,VDD*
X103518000Y-53340000D02*
X105475000Y-53340000D01*
D24*
X116751010Y-55968990D02*
X116840000Y-55880000D01*
D22*
X112522000Y-57785000D02*
X114173000Y-57785000D01*
X114935000Y-57785000D02*
X116840000Y-55880000D01*
X114173000Y-57785000D02*
X114935000Y-57785000D01*
X106971000Y-51829000D02*
X105410000Y-51829000D01*
X107000000Y-51800000D02*
X106971000Y-51829000D01*
X105410000Y-53275000D02*
X105475000Y-53340000D01*
D24*
X103477000Y-51638500D02*
X103378000Y-51737500D01*
X103378000Y-51737500D02*
X103378000Y-51547000D01*
X105410000Y-51829000D02*
X103477000Y-51829000D01*
D22*
X105410000Y-51829000D02*
X105410000Y-53275000D01*
X107950000Y-58166000D02*
X107950000Y-62738000D01*
X106474500Y-62738000D02*
X109298500Y-62738000D01*
X111569500Y-57785000D02*
X112522000Y-57785000D01*
D24*
X111569500Y-57785000D02*
X109283500Y-57785000D01*
D22*
X107950000Y-57785000D02*
X107950000Y-58166000D01*
D24*
X102363000Y-57658000D02*
X102362000Y-57657000D01*
X103886000Y-57658000D02*
X102363000Y-57658000D01*
X104013000Y-57785000D02*
X103886000Y-57658000D01*
X107950000Y-57785000D02*
X104013000Y-57785000D01*
D22*
X107950000Y-57785000D02*
X106616500Y-57785000D01*
X107000000Y-51800000D02*
X107000000Y-52517078D01*
X107000000Y-52517078D02*
X107314922Y-52832000D01*
X106616500Y-53340000D02*
X107950000Y-54673500D01*
X105475000Y-53340000D02*
X106616500Y-53340000D01*
X107950000Y-57785000D02*
X109283500Y-57785000D01*
X107886500Y-56070500D02*
X107950000Y-56007000D01*
X107124500Y-56070500D02*
X107886500Y-56070500D01*
X107950000Y-56007000D02*
X107950000Y-57785000D01*
X107950000Y-54673500D02*
X107950000Y-56007000D01*
G04 #@! TO.N,Net-(C4-Pad1)*
X108775500Y-56769000D02*
X108775500Y-56070500D01*
X109156500Y-57150000D02*
X108775500Y-56769000D01*
X110425000Y-57150000D02*
X109156500Y-57150000D01*
X111810500Y-57150000D02*
X112572500Y-56388000D01*
X110425000Y-57150000D02*
X111810500Y-57150000D01*
D24*
G04 #@! TO.N,Net-(D1-Pad1)*
X101614500Y-49862500D02*
X101600000Y-49848000D01*
X103378000Y-49862500D02*
X101614500Y-49862500D01*
D22*
G04 #@! TO.N,Net-(J1-Pad6)*
X110850000Y-44482500D02*
X104450000Y-44482500D01*
X105450000Y-44882500D02*
X105050000Y-44482500D01*
X110450000Y-44882500D02*
X110850000Y-44482500D01*
D24*
G04 #@! TO.N,/USB+*
X111887000Y-54991000D02*
X111506000Y-54610000D01*
X111506000Y-54610000D02*
X110425000Y-54610000D01*
X112395000Y-54737000D02*
X112141000Y-54991000D01*
X112395000Y-50292000D02*
X112395000Y-54737000D01*
X111125000Y-49022000D02*
X112395000Y-50292000D01*
X108839000Y-49022000D02*
X111125000Y-49022000D01*
X107950000Y-48133000D02*
X108839000Y-49022000D01*
X112141000Y-54991000D02*
X111887000Y-54991000D01*
X107950000Y-47182500D02*
X107950000Y-48133000D01*
G04 #@! TO.N,/USB-*
X108600000Y-48064250D02*
X108600000Y-47182500D01*
X111379000Y-48514000D02*
X109049750Y-48514000D01*
X112903000Y-50038000D02*
X111379000Y-48514000D01*
X112903000Y-54991000D02*
X112903000Y-50038000D01*
X112395000Y-55499000D02*
X112903000Y-54991000D01*
X111887000Y-55499000D02*
X112395000Y-55499000D01*
X109049750Y-48514000D02*
X108600000Y-48064250D01*
X111506000Y-55880000D02*
X111887000Y-55499000D01*
X110425000Y-55880000D02*
X111506000Y-55880000D01*
G04 #@! TO.N,/GP2*
X100203000Y-63500000D02*
X99060000Y-63500000D01*
X101790500Y-61912500D02*
X100203000Y-63500000D01*
X102933500Y-61912500D02*
X101790500Y-61912500D01*
X103886000Y-60960000D02*
X102933500Y-61912500D01*
X105475000Y-60960000D02*
X103886000Y-60960000D01*
G04 #@! TO.N,/Tx*
X100330000Y-59690000D02*
X99060000Y-60960000D01*
X105475000Y-59690000D02*
X100330000Y-59690000D01*
G04 #@! TO.N,/Rx*
X105475000Y-58420000D02*
X99060000Y-58420000D01*
G04 #@! TO.N,/~RST*
X99187000Y-56007000D02*
X99060000Y-55880000D01*
X102362000Y-56007000D02*
X99187000Y-56007000D01*
X103124000Y-56007000D02*
X102362000Y-56007000D01*
X104267000Y-57150000D02*
X103124000Y-56007000D01*
X105475000Y-57150000D02*
X104267000Y-57150000D01*
G04 #@! TO.N,/GP1*
X98552000Y-62230000D02*
X99568000Y-62230000D01*
X97790000Y-61468000D02*
X98552000Y-62230000D01*
X97790000Y-54610000D02*
X97790000Y-61468000D01*
X99060000Y-53340000D02*
X97790000Y-54610000D01*
X100965000Y-55245000D02*
X99060000Y-53340000D01*
X103632000Y-55245000D02*
X100965000Y-55245000D01*
X104267000Y-55880000D02*
X103632000Y-55245000D01*
X105475000Y-55880000D02*
X104267000Y-55880000D01*
X100710000Y-61088000D02*
X99568000Y-62230000D01*
X102362000Y-61088000D02*
X100710000Y-61088000D01*
G04 #@! TO.N,/GP0*
X100203000Y-50800000D02*
X99060000Y-50800000D01*
X100457000Y-51054000D02*
X100203000Y-50800000D01*
X100457000Y-53340000D02*
X100457000Y-51054000D01*
X101727000Y-54610000D02*
X100457000Y-53340000D01*
X105475000Y-54610000D02*
X101727000Y-54610000D01*
X99060000Y-50800000D02*
X97960000Y-50800000D01*
X100520500Y-64770000D02*
X101473000Y-63817500D01*
X112331500Y-63817500D02*
X112585500Y-63563500D01*
X97960000Y-50800000D02*
X97282000Y-51478000D01*
X113283500Y-63563500D02*
X113284000Y-63563000D01*
X108394500Y-63500000D02*
X108712000Y-63817500D01*
X97282000Y-51478000D02*
X97282000Y-63500000D01*
X97282000Y-63500000D02*
X98552000Y-64770000D01*
X107378500Y-63500000D02*
X108394500Y-63500000D01*
X98552000Y-64770000D02*
X100520500Y-64770000D01*
X101473000Y-63817500D02*
X107061000Y-63817500D01*
X107061000Y-63817500D02*
X107378500Y-63500000D01*
X108712000Y-63817500D02*
X112331500Y-63817500D01*
X112585500Y-63563500D02*
X113283500Y-63563500D01*
G04 #@! TO.N,/SCL*
X116840000Y-58583002D02*
X116840000Y-58420000D01*
X115760500Y-58420000D02*
X116840000Y-58420000D01*
X115570000Y-58610500D02*
X115760500Y-58420000D01*
X112522000Y-58610500D02*
X115570000Y-58610500D01*
X112522000Y-58610500D02*
X112522000Y-59435000D01*
X111760000Y-58610500D02*
X112522000Y-58610500D01*
X111569500Y-58420000D02*
X111760000Y-58610500D01*
X110425000Y-58420000D02*
X111569500Y-58420000D01*
G04 #@! TO.N,/SDA*
X110425000Y-59690000D02*
X111506000Y-59690000D01*
X111506000Y-59690000D02*
X112014000Y-60198000D01*
X115570000Y-60960000D02*
X116840000Y-60960000D01*
X114808000Y-60198000D02*
X115570000Y-60960000D01*
X114173000Y-59435000D02*
X114173000Y-60198000D01*
X114173000Y-60198000D02*
X114808000Y-60198000D01*
X112014000Y-60198000D02*
X114173000Y-60198000D01*
G04 #@! TO.N,/GP3*
X114300000Y-60960000D02*
X116840000Y-63500000D01*
X110425000Y-60960000D02*
X114300000Y-60960000D01*
G04 #@! TO.N,Net-(D2-Pad1)*
X104599500Y-62738000D02*
X102362000Y-62738000D01*
G04 #@! TO.N,Net-(D3-Pad1)*
X112648500Y-61913000D02*
X113284000Y-61913000D01*
X111823500Y-62738000D02*
X112648500Y-61913000D01*
X111173500Y-62738000D02*
X111823500Y-62738000D01*
G04 #@! TD*
M02*
