G04 #@! TF.GenerationSoftware,KiCad,Pcbnew,5.1.5+dfsg1-2build2*
G04 #@! TF.CreationDate,2021-09-30T13:46:46+00:00*
G04 #@! TF.ProjectId,mcp2221a-breakout,6d637032-3232-4316-912d-627265616b6f,rev?*
G04 #@! TF.SameCoordinates,Original*
G04 #@! TF.FileFunction,Legend,Top*
G04 #@! TF.FilePolarity,Positive*
%FSLAX46Y46*%
G04 Gerber Fmt 4.6, Leading zero omitted, Abs format (unit mm)*
G04 Created by KiCad (PCBNEW 5.1.5+dfsg1-2build2) date 2021-09-30 13:46:46*
%MOMM*%
%LPD*%
G04 APERTURE LIST*
%ADD10C,0.120000*%
%ADD11C,0.150000*%
G04 APERTURE END LIST*
D10*
G04 #@! TO.C,U1*
X109530000Y-50040000D02*
X108600000Y-50040000D01*
X106370000Y-50040000D02*
X107300000Y-50040000D01*
X106370000Y-50040000D02*
X106370000Y-52200000D01*
X109530000Y-50040000D02*
X109530000Y-51500000D01*
G04 #@! TO.C,R6*
X113044500Y-58847258D02*
X113044500Y-58372742D01*
X111999500Y-58847258D02*
X111999500Y-58372742D01*
G04 #@! TO.C,R5*
X114695500Y-58847258D02*
X114695500Y-58372742D01*
X113650500Y-58847258D02*
X113650500Y-58372742D01*
G04 #@! TO.C,D3*
X111921000Y-61778000D02*
X109236000Y-61778000D01*
X111921000Y-63698000D02*
X111921000Y-61778000D01*
X109236000Y-63698000D02*
X111921000Y-63698000D01*
G04 #@! TO.C,D2*
X103852000Y-63698000D02*
X106537000Y-63698000D01*
X103852000Y-61778000D02*
X103852000Y-63698000D01*
X106537000Y-61778000D02*
X103852000Y-61778000D01*
G04 #@! TO.C,U2*
X107950000Y-61585000D02*
X109900000Y-61585000D01*
X107950000Y-61585000D02*
X106000000Y-61585000D01*
X107950000Y-52715000D02*
X109900000Y-52715000D01*
X107950000Y-52715000D02*
X104500000Y-52715000D01*
G04 #@! TO.C,R4*
X112761500Y-62975258D02*
X112761500Y-62500742D01*
X113806500Y-62975258D02*
X113806500Y-62500742D01*
G04 #@! TO.C,R3*
X102884500Y-61675742D02*
X102884500Y-62150258D01*
X101839500Y-61675742D02*
X101839500Y-62150258D01*
G04 #@! TO.C,R2*
X102884500Y-56594742D02*
X102884500Y-57069258D01*
X101839500Y-56594742D02*
X101839500Y-57069258D01*
G04 #@! TO.C,R1*
X101077500Y-50910258D02*
X101077500Y-50435742D01*
X102122500Y-50910258D02*
X102122500Y-50435742D01*
G04 #@! TO.C,J1*
X111850000Y-47482500D02*
X111400000Y-47482500D01*
X111850000Y-45632500D02*
X111850000Y-47482500D01*
X104050000Y-43082500D02*
X104050000Y-43332500D01*
X111850000Y-43082500D02*
X111850000Y-43332500D01*
X104050000Y-45632500D02*
X104050000Y-47482500D01*
X104050000Y-47482500D02*
X104500000Y-47482500D01*
X109650000Y-48032500D02*
X109200000Y-48032500D01*
X109650000Y-48032500D02*
X109650000Y-47582500D01*
G04 #@! TO.C,D1*
X104338000Y-51800000D02*
X104338000Y-49115000D01*
X104338000Y-49115000D02*
X102418000Y-49115000D01*
X102418000Y-49115000D02*
X102418000Y-51800000D01*
G04 #@! TO.C,C4*
X113206920Y-55878000D02*
X113488080Y-55878000D01*
X113206920Y-56898000D02*
X113488080Y-56898000D01*
G04 #@! TO.C,C3*
X102883580Y-53850000D02*
X102602420Y-53850000D01*
X102883580Y-52830000D02*
X102602420Y-52830000D01*
G04 #@! TO.C,C2*
X104900000Y-51194580D02*
X104900000Y-50913420D01*
X105920000Y-51194580D02*
X105920000Y-50913420D01*
G04 #@! TO.C,C1*
X109980000Y-51181580D02*
X109980000Y-50900420D01*
X111000000Y-51181580D02*
X111000000Y-50900420D01*
G04 #@! TO.C,U1*
D11*
X107340476Y-48329904D02*
X107340476Y-48977523D01*
X107378571Y-49053714D01*
X107416666Y-49091809D01*
X107492857Y-49129904D01*
X107645238Y-49129904D01*
X107721428Y-49091809D01*
X107759523Y-49053714D01*
X107797619Y-48977523D01*
X107797619Y-48329904D01*
X108597619Y-49129904D02*
X108140476Y-49129904D01*
X108369047Y-49129904D02*
X108369047Y-48329904D01*
X108292857Y-48444190D01*
X108216666Y-48520380D01*
X108140476Y-48558476D01*
G04 #@! TO.C,R6*
X112388666Y-61003904D02*
X112122000Y-60622952D01*
X111931523Y-61003904D02*
X111931523Y-60203904D01*
X112236285Y-60203904D01*
X112312476Y-60242000D01*
X112350571Y-60280095D01*
X112388666Y-60356285D01*
X112388666Y-60470571D01*
X112350571Y-60546761D01*
X112312476Y-60584857D01*
X112236285Y-60622952D01*
X111931523Y-60622952D01*
X113074380Y-60203904D02*
X112922000Y-60203904D01*
X112845809Y-60242000D01*
X112807714Y-60280095D01*
X112731523Y-60394380D01*
X112693428Y-60546761D01*
X112693428Y-60851523D01*
X112731523Y-60927714D01*
X112769619Y-60965809D01*
X112845809Y-61003904D01*
X112998190Y-61003904D01*
X113074380Y-60965809D01*
X113112476Y-60927714D01*
X113150571Y-60851523D01*
X113150571Y-60661047D01*
X113112476Y-60584857D01*
X113074380Y-60546761D01*
X112998190Y-60508666D01*
X112845809Y-60508666D01*
X112769619Y-60546761D01*
X112731523Y-60584857D01*
X112693428Y-60661047D01*
G04 #@! TO.C,R5*
X114039666Y-61003904D02*
X113773000Y-60622952D01*
X113582523Y-61003904D02*
X113582523Y-60203904D01*
X113887285Y-60203904D01*
X113963476Y-60242000D01*
X114001571Y-60280095D01*
X114039666Y-60356285D01*
X114039666Y-60470571D01*
X114001571Y-60546761D01*
X113963476Y-60584857D01*
X113887285Y-60622952D01*
X113582523Y-60622952D01*
X114763476Y-60203904D02*
X114382523Y-60203904D01*
X114344428Y-60584857D01*
X114382523Y-60546761D01*
X114458714Y-60508666D01*
X114649190Y-60508666D01*
X114725380Y-60546761D01*
X114763476Y-60584857D01*
X114801571Y-60661047D01*
X114801571Y-60851523D01*
X114763476Y-60927714D01*
X114725380Y-60965809D01*
X114649190Y-61003904D01*
X114458714Y-61003904D01*
X114382523Y-60965809D01*
X114344428Y-60927714D01*
G04 #@! TO.C,D3*
X110140761Y-64968380D02*
X109807428Y-64492190D01*
X109569333Y-64968380D02*
X109569333Y-63968380D01*
X109950285Y-63968380D01*
X110045523Y-64016000D01*
X110093142Y-64063619D01*
X110140761Y-64158857D01*
X110140761Y-64301714D01*
X110093142Y-64396952D01*
X110045523Y-64444571D01*
X109950285Y-64492190D01*
X109569333Y-64492190D01*
X110474095Y-64968380D02*
X110997904Y-64301714D01*
X110474095Y-64301714D02*
X110997904Y-64968380D01*
G04 #@! TO.C,D2*
X104846523Y-63968380D02*
X105417952Y-63968380D01*
X105132238Y-64968380D02*
X105132238Y-63968380D01*
X105656047Y-64968380D02*
X106179857Y-64301714D01*
X105656047Y-64301714D02*
X106179857Y-64968380D01*
G04 #@! TO.C,U2*
X107340476Y-57981904D02*
X107340476Y-58629523D01*
X107378571Y-58705714D01*
X107416666Y-58743809D01*
X107492857Y-58781904D01*
X107645238Y-58781904D01*
X107721428Y-58743809D01*
X107759523Y-58705714D01*
X107797619Y-58629523D01*
X107797619Y-57981904D01*
X108140476Y-58058095D02*
X108178571Y-58020000D01*
X108254761Y-57981904D01*
X108445238Y-57981904D01*
X108521428Y-58020000D01*
X108559523Y-58058095D01*
X108597619Y-58134285D01*
X108597619Y-58210476D01*
X108559523Y-58324761D01*
X108102380Y-58781904D01*
X108597619Y-58781904D01*
G04 #@! TO.C,R4*
X113150666Y-65131904D02*
X112884000Y-64750952D01*
X112693523Y-65131904D02*
X112693523Y-64331904D01*
X112998285Y-64331904D01*
X113074476Y-64370000D01*
X113112571Y-64408095D01*
X113150666Y-64484285D01*
X113150666Y-64598571D01*
X113112571Y-64674761D01*
X113074476Y-64712857D01*
X112998285Y-64750952D01*
X112693523Y-64750952D01*
X113836380Y-64598571D02*
X113836380Y-65131904D01*
X113645904Y-64293809D02*
X113455428Y-64865238D01*
X113950666Y-64865238D01*
G04 #@! TO.C,R3*
X102228666Y-60369404D02*
X101962000Y-59988452D01*
X101771523Y-60369404D02*
X101771523Y-59569404D01*
X102076285Y-59569404D01*
X102152476Y-59607500D01*
X102190571Y-59645595D01*
X102228666Y-59721785D01*
X102228666Y-59836071D01*
X102190571Y-59912261D01*
X102152476Y-59950357D01*
X102076285Y-59988452D01*
X101771523Y-59988452D01*
X102495333Y-59569404D02*
X102990571Y-59569404D01*
X102723904Y-59874166D01*
X102838190Y-59874166D01*
X102914380Y-59912261D01*
X102952476Y-59950357D01*
X102990571Y-60026547D01*
X102990571Y-60217023D01*
X102952476Y-60293214D01*
X102914380Y-60331309D01*
X102838190Y-60369404D01*
X102609619Y-60369404D01*
X102533428Y-60331309D01*
X102495333Y-60293214D01*
G04 #@! TO.C,R2*
X102228666Y-59162904D02*
X101962000Y-58781952D01*
X101771523Y-59162904D02*
X101771523Y-58362904D01*
X102076285Y-58362904D01*
X102152476Y-58401000D01*
X102190571Y-58439095D01*
X102228666Y-58515285D01*
X102228666Y-58629571D01*
X102190571Y-58705761D01*
X102152476Y-58743857D01*
X102076285Y-58781952D01*
X101771523Y-58781952D01*
X102533428Y-58439095D02*
X102571523Y-58401000D01*
X102647714Y-58362904D01*
X102838190Y-58362904D01*
X102914380Y-58401000D01*
X102952476Y-58439095D01*
X102990571Y-58515285D01*
X102990571Y-58591476D01*
X102952476Y-58705761D01*
X102495333Y-59162904D01*
X102990571Y-59162904D01*
G04 #@! TO.C,R1*
X101466666Y-49129904D02*
X101200000Y-48748952D01*
X101009523Y-49129904D02*
X101009523Y-48329904D01*
X101314285Y-48329904D01*
X101390476Y-48368000D01*
X101428571Y-48406095D01*
X101466666Y-48482285D01*
X101466666Y-48596571D01*
X101428571Y-48672761D01*
X101390476Y-48710857D01*
X101314285Y-48748952D01*
X101009523Y-48748952D01*
X102228571Y-49129904D02*
X101771428Y-49129904D01*
X102000000Y-49129904D02*
X102000000Y-48329904D01*
X101923809Y-48444190D01*
X101847619Y-48520380D01*
X101771428Y-48558476D01*
G04 #@! TO.C,J1*
X112382333Y-46551904D02*
X112382333Y-47123333D01*
X112344238Y-47237619D01*
X112268047Y-47313809D01*
X112153761Y-47351904D01*
X112077571Y-47351904D01*
X113182333Y-47351904D02*
X112725190Y-47351904D01*
X112953761Y-47351904D02*
X112953761Y-46551904D01*
X112877571Y-46666190D01*
X112801380Y-46742380D01*
X112725190Y-46780476D01*
G04 #@! TO.C,D1*
X103830380Y-48958333D02*
X102830380Y-48958333D01*
X102830380Y-48577380D01*
X102878000Y-48482142D01*
X102925619Y-48434523D01*
X103020857Y-48386904D01*
X103163714Y-48386904D01*
X103258952Y-48434523D01*
X103306571Y-48482142D01*
X103354190Y-48577380D01*
X103354190Y-48958333D01*
X102830380Y-48053571D02*
X103830380Y-47815476D01*
X103116095Y-47625000D01*
X103830380Y-47434523D01*
X102830380Y-47196428D01*
X103830380Y-46244047D02*
X103354190Y-46577380D01*
X103830380Y-46815476D02*
X102830380Y-46815476D01*
X102830380Y-46434523D01*
X102878000Y-46339285D01*
X102925619Y-46291666D01*
X103020857Y-46244047D01*
X103163714Y-46244047D01*
X103258952Y-46291666D01*
X103306571Y-46339285D01*
X103354190Y-46434523D01*
X103354190Y-46815476D01*
G04 #@! TO.C,C4*
X113214166Y-55530714D02*
X113176071Y-55568809D01*
X113061785Y-55606904D01*
X112985595Y-55606904D01*
X112871309Y-55568809D01*
X112795119Y-55492619D01*
X112757023Y-55416428D01*
X112718928Y-55264047D01*
X112718928Y-55149761D01*
X112757023Y-54997380D01*
X112795119Y-54921190D01*
X112871309Y-54845000D01*
X112985595Y-54806904D01*
X113061785Y-54806904D01*
X113176071Y-54845000D01*
X113214166Y-54883095D01*
X113899880Y-55073571D02*
X113899880Y-55606904D01*
X113709404Y-54768809D02*
X113518928Y-55340238D01*
X114014166Y-55340238D01*
G04 #@! TO.C,C3*
X102609666Y-54895714D02*
X102571571Y-54933809D01*
X102457285Y-54971904D01*
X102381095Y-54971904D01*
X102266809Y-54933809D01*
X102190619Y-54857619D01*
X102152523Y-54781428D01*
X102114428Y-54629047D01*
X102114428Y-54514761D01*
X102152523Y-54362380D01*
X102190619Y-54286190D01*
X102266809Y-54210000D01*
X102381095Y-54171904D01*
X102457285Y-54171904D01*
X102571571Y-54210000D01*
X102609666Y-54248095D01*
X102876333Y-54171904D02*
X103371571Y-54171904D01*
X103104904Y-54476666D01*
X103219190Y-54476666D01*
X103295380Y-54514761D01*
X103333476Y-54552857D01*
X103371571Y-54629047D01*
X103371571Y-54819523D01*
X103333476Y-54895714D01*
X103295380Y-54933809D01*
X103219190Y-54971904D01*
X102990619Y-54971904D01*
X102914428Y-54933809D01*
X102876333Y-54895714D01*
G04 #@! TO.C,C2*
X105276666Y-49434714D02*
X105238571Y-49472809D01*
X105124285Y-49510904D01*
X105048095Y-49510904D01*
X104933809Y-49472809D01*
X104857619Y-49396619D01*
X104819523Y-49320428D01*
X104781428Y-49168047D01*
X104781428Y-49053761D01*
X104819523Y-48901380D01*
X104857619Y-48825190D01*
X104933809Y-48749000D01*
X105048095Y-48710904D01*
X105124285Y-48710904D01*
X105238571Y-48749000D01*
X105276666Y-48787095D01*
X105581428Y-48787095D02*
X105619523Y-48749000D01*
X105695714Y-48710904D01*
X105886190Y-48710904D01*
X105962380Y-48749000D01*
X106000476Y-48787095D01*
X106038571Y-48863285D01*
X106038571Y-48939476D01*
X106000476Y-49053761D01*
X105543333Y-49510904D01*
X106038571Y-49510904D01*
G04 #@! TO.C,C1*
X110356666Y-49434714D02*
X110318571Y-49472809D01*
X110204285Y-49510904D01*
X110128095Y-49510904D01*
X110013809Y-49472809D01*
X109937619Y-49396619D01*
X109899523Y-49320428D01*
X109861428Y-49168047D01*
X109861428Y-49053761D01*
X109899523Y-48901380D01*
X109937619Y-48825190D01*
X110013809Y-48749000D01*
X110128095Y-48710904D01*
X110204285Y-48710904D01*
X110318571Y-48749000D01*
X110356666Y-48787095D01*
X111118571Y-49510904D02*
X110661428Y-49510904D01*
X110890000Y-49510904D02*
X110890000Y-48710904D01*
X110813809Y-48825190D01*
X110737619Y-48901380D01*
X110661428Y-48939476D01*
G04 #@! TD*
M02*
