G04 #@! TF.GenerationSoftware,KiCad,Pcbnew,5.1.5+dfsg1-2build2*
G04 #@! TF.CreationDate,2021-09-30T13:46:46+00:00*
G04 #@! TF.ProjectId,mcp2221a-breakout,6d637032-3232-4316-912d-627265616b6f,rev?*
G04 #@! TF.SameCoordinates,Original*
G04 #@! TF.FileFunction,Copper,L2,Bot*
G04 #@! TF.FilePolarity,Positive*
%FSLAX46Y46*%
G04 Gerber Fmt 4.6, Leading zero omitted, Abs format (unit mm)*
G04 Created by KiCad (PCBNEW 5.1.5+dfsg1-2build2) date 2021-09-30 13:46:46*
%MOMM*%
%LPD*%
G04 APERTURE LIST*
G04 #@! TA.AperFunction,EtchedComponent*
%ADD10C,0.350000*%
G04 #@! TD*
G04 #@! TA.AperFunction,ComponentPad*
%ADD11C,4.700000*%
G04 #@! TD*
G04 #@! TA.AperFunction,ComponentPad*
%ADD12O,1.700000X1.700000*%
G04 #@! TD*
G04 #@! TA.AperFunction,ComponentPad*
%ADD13R,1.700000X1.700000*%
G04 #@! TD*
G04 #@! TA.AperFunction,SMDPad,CuDef*
%ADD14C,0.350000*%
G04 #@! TD*
G04 #@! TA.AperFunction,ComponentPad*
%ADD15O,1.200000X1.900000*%
G04 #@! TD*
G04 #@! TA.AperFunction,ComponentPad*
%ADD16C,1.450000*%
G04 #@! TD*
G04 #@! TA.AperFunction,ViaPad*
%ADD17C,0.600000*%
G04 #@! TD*
G04 #@! TA.AperFunction,Conductor*
%ADD18C,0.400000*%
G04 #@! TD*
G04 #@! TA.AperFunction,Conductor*
%ADD19C,0.254000*%
G04 #@! TD*
G04 APERTURE END LIST*
D10*
G04 #@! TO.C,JP2*
G36*
X108200000Y-56370500D02*
G01*
X107700000Y-56370500D01*
X107700000Y-55770500D01*
X108200000Y-55770500D01*
X108200000Y-56370500D01*
G37*
G04 #@! TD*
D11*
G04 #@! TO.P,H2,1*
G04 #@! TO.N,N/C*
X116840000Y-45720000D03*
G04 #@! TD*
D12*
G04 #@! TO.P,J2,6*
G04 #@! TO.N,/GP2*
X99060000Y-63500000D03*
G04 #@! TO.P,J2,5*
G04 #@! TO.N,/Tx*
X99060000Y-60960000D03*
G04 #@! TO.P,J2,4*
G04 #@! TO.N,/Rx*
X99060000Y-58420000D03*
G04 #@! TO.P,J2,3*
G04 #@! TO.N,/~RST*
X99060000Y-55880000D03*
G04 #@! TO.P,J2,2*
G04 #@! TO.N,/GP1*
X99060000Y-53340000D03*
D13*
G04 #@! TO.P,J2,1*
G04 #@! TO.N,/GP0*
X99060000Y-50800000D03*
G04 #@! TD*
D11*
G04 #@! TO.P,H1,1*
G04 #@! TO.N,N/C*
X99060000Y-45720000D03*
G04 #@! TD*
D12*
G04 #@! TO.P,J3,6*
G04 #@! TO.N,VBUS*
X116840000Y-50800000D03*
G04 #@! TO.P,J3,5*
G04 #@! TO.N,GND*
X116840000Y-53340000D03*
G04 #@! TO.P,J3,4*
G04 #@! TO.N,VDD*
X116840000Y-55880000D03*
G04 #@! TO.P,J3,3*
G04 #@! TO.N,/SCL*
X116840000Y-58420000D03*
G04 #@! TO.P,J3,2*
G04 #@! TO.N,/SDA*
X116840000Y-60960000D03*
D13*
G04 #@! TO.P,J3,1*
G04 #@! TO.N,/GP3*
X116840000Y-63500000D03*
G04 #@! TD*
G04 #@! TA.AperFunction,SMDPad,CuDef*
D14*
G04 #@! TO.P,JP2,1*
G04 #@! TO.N,VDD*
G36*
X107800000Y-56820500D02*
G01*
X107300000Y-56820500D01*
X107300000Y-56819898D01*
X107275466Y-56819898D01*
X107226635Y-56815088D01*
X107178510Y-56805516D01*
X107131555Y-56791272D01*
X107086222Y-56772495D01*
X107042949Y-56749364D01*
X107002150Y-56722104D01*
X106964221Y-56690976D01*
X106929524Y-56656279D01*
X106898396Y-56618350D01*
X106871136Y-56577551D01*
X106848005Y-56534278D01*
X106829228Y-56488945D01*
X106814984Y-56441990D01*
X106805412Y-56393865D01*
X106800602Y-56345034D01*
X106800602Y-56320500D01*
X106800000Y-56320500D01*
X106800000Y-55820500D01*
X106800602Y-55820500D01*
X106800602Y-55795966D01*
X106805412Y-55747135D01*
X106814984Y-55699010D01*
X106829228Y-55652055D01*
X106848005Y-55606722D01*
X106871136Y-55563449D01*
X106898396Y-55522650D01*
X106929524Y-55484721D01*
X106964221Y-55450024D01*
X107002150Y-55418896D01*
X107042949Y-55391636D01*
X107086222Y-55368505D01*
X107131555Y-55349728D01*
X107178510Y-55335484D01*
X107226635Y-55325912D01*
X107275466Y-55321102D01*
X107300000Y-55321102D01*
X107300000Y-55320500D01*
X107800000Y-55320500D01*
X107800000Y-56820500D01*
G37*
G04 #@! TD.AperFunction*
G04 #@! TA.AperFunction,SMDPad,CuDef*
G04 #@! TO.P,JP2,2*
G04 #@! TO.N,Net-(C4-Pad1)*
G36*
X108600000Y-55321102D02*
G01*
X108624534Y-55321102D01*
X108673365Y-55325912D01*
X108721490Y-55335484D01*
X108768445Y-55349728D01*
X108813778Y-55368505D01*
X108857051Y-55391636D01*
X108897850Y-55418896D01*
X108935779Y-55450024D01*
X108970476Y-55484721D01*
X109001604Y-55522650D01*
X109028864Y-55563449D01*
X109051995Y-55606722D01*
X109070772Y-55652055D01*
X109085016Y-55699010D01*
X109094588Y-55747135D01*
X109099398Y-55795966D01*
X109099398Y-55820500D01*
X109100000Y-55820500D01*
X109100000Y-56320500D01*
X109099398Y-56320500D01*
X109099398Y-56345034D01*
X109094588Y-56393865D01*
X109085016Y-56441990D01*
X109070772Y-56488945D01*
X109051995Y-56534278D01*
X109028864Y-56577551D01*
X109001604Y-56618350D01*
X108970476Y-56656279D01*
X108935779Y-56690976D01*
X108897850Y-56722104D01*
X108857051Y-56749364D01*
X108813778Y-56772495D01*
X108768445Y-56791272D01*
X108721490Y-56805516D01*
X108673365Y-56815088D01*
X108624534Y-56819898D01*
X108600000Y-56819898D01*
X108600000Y-56820500D01*
X108100000Y-56820500D01*
X108100000Y-55320500D01*
X108600000Y-55320500D01*
X108600000Y-55321102D01*
G37*
G04 #@! TD.AperFunction*
G04 #@! TD*
G04 #@! TA.AperFunction,SMDPad,CuDef*
G04 #@! TO.P,JP1,2*
G04 #@! TO.N,VDD*
G36*
X107300000Y-53581398D02*
G01*
X107275466Y-53581398D01*
X107226635Y-53576588D01*
X107178510Y-53567016D01*
X107131555Y-53552772D01*
X107086222Y-53533995D01*
X107042949Y-53510864D01*
X107002150Y-53483604D01*
X106964221Y-53452476D01*
X106929524Y-53417779D01*
X106898396Y-53379850D01*
X106871136Y-53339051D01*
X106848005Y-53295778D01*
X106829228Y-53250445D01*
X106814984Y-53203490D01*
X106805412Y-53155365D01*
X106800602Y-53106534D01*
X106800602Y-53082000D01*
X106800000Y-53082000D01*
X106800000Y-52582000D01*
X106800602Y-52582000D01*
X106800602Y-52557466D01*
X106805412Y-52508635D01*
X106814984Y-52460510D01*
X106829228Y-52413555D01*
X106848005Y-52368222D01*
X106871136Y-52324949D01*
X106898396Y-52284150D01*
X106929524Y-52246221D01*
X106964221Y-52211524D01*
X107002150Y-52180396D01*
X107042949Y-52153136D01*
X107086222Y-52130005D01*
X107131555Y-52111228D01*
X107178510Y-52096984D01*
X107226635Y-52087412D01*
X107275466Y-52082602D01*
X107300000Y-52082602D01*
X107300000Y-52082000D01*
X107800000Y-52082000D01*
X107800000Y-53582000D01*
X107300000Y-53582000D01*
X107300000Y-53581398D01*
G37*
G04 #@! TD.AperFunction*
G04 #@! TA.AperFunction,SMDPad,CuDef*
G04 #@! TO.P,JP1,1*
G04 #@! TO.N,VBUS*
G36*
X108100000Y-52082000D02*
G01*
X108600000Y-52082000D01*
X108600000Y-52082602D01*
X108624534Y-52082602D01*
X108673365Y-52087412D01*
X108721490Y-52096984D01*
X108768445Y-52111228D01*
X108813778Y-52130005D01*
X108857051Y-52153136D01*
X108897850Y-52180396D01*
X108935779Y-52211524D01*
X108970476Y-52246221D01*
X109001604Y-52284150D01*
X109028864Y-52324949D01*
X109051995Y-52368222D01*
X109070772Y-52413555D01*
X109085016Y-52460510D01*
X109094588Y-52508635D01*
X109099398Y-52557466D01*
X109099398Y-52582000D01*
X109100000Y-52582000D01*
X109100000Y-53082000D01*
X109099398Y-53082000D01*
X109099398Y-53106534D01*
X109094588Y-53155365D01*
X109085016Y-53203490D01*
X109070772Y-53250445D01*
X109051995Y-53295778D01*
X109028864Y-53339051D01*
X109001604Y-53379850D01*
X108970476Y-53417779D01*
X108935779Y-53452476D01*
X108897850Y-53483604D01*
X108857051Y-53510864D01*
X108813778Y-53533995D01*
X108768445Y-53552772D01*
X108721490Y-53567016D01*
X108673365Y-53576588D01*
X108624534Y-53581398D01*
X108600000Y-53581398D01*
X108600000Y-53582000D01*
X108100000Y-53582000D01*
X108100000Y-52082000D01*
G37*
G04 #@! TD.AperFunction*
G04 #@! TD*
D15*
G04 #@! TO.P,J1,6*
G04 #@! TO.N,Net-(J1-Pad6)*
X104450000Y-44482500D03*
X111450000Y-44482500D03*
D16*
X105450000Y-47182500D03*
X110450000Y-47182500D03*
G04 #@! TD*
D17*
G04 #@! TO.N,GND*
X106680000Y-48260000D03*
X111760000Y-53340000D03*
X101600000Y-50800000D03*
X113601500Y-56388000D03*
X105410005Y-50799995D03*
X102489000Y-53340000D03*
X107950000Y-49085500D03*
X110490000Y-50863502D03*
G04 #@! TO.N,VBUS*
X109250000Y-46237498D03*
X108585004Y-52832000D03*
X109220000Y-49657000D03*
G04 #@! TO.N,VDD*
X107124500Y-56070500D03*
X107314922Y-52832000D03*
G04 #@! TO.N,Net-(C4-Pad1)*
X108775500Y-56070500D03*
G04 #@! TD*
D18*
G04 #@! TO.N,VBUS*
X109250000Y-46237498D02*
X109250000Y-49627000D01*
X109250000Y-49627000D02*
X109220000Y-49657000D01*
G04 #@! TO.N,Net-(J1-Pad6)*
X105450000Y-45482500D02*
X104450000Y-44482500D01*
X105450000Y-47182500D02*
X105450000Y-45482500D01*
X110450000Y-45482500D02*
X111450000Y-44482500D01*
X110450000Y-47182500D02*
X110450000Y-45482500D01*
G04 #@! TD*
D19*
G04 #@! TO.N,GND*
G36*
X103232870Y-43890398D02*
G01*
X103215000Y-44071835D01*
X103215000Y-44893164D01*
X103232870Y-45074601D01*
X103303489Y-45307400D01*
X103418167Y-45521948D01*
X103572498Y-45710002D01*
X103760551Y-45864333D01*
X103975099Y-45979011D01*
X104207898Y-46049630D01*
X104450000Y-46073475D01*
X104615001Y-46057224D01*
X104615001Y-46104771D01*
X104583051Y-46126119D01*
X104393619Y-46315551D01*
X104244784Y-46538299D01*
X104142264Y-46785803D01*
X104090000Y-47048552D01*
X104090000Y-47316448D01*
X104142264Y-47579197D01*
X104244784Y-47826701D01*
X104393619Y-48049449D01*
X104583051Y-48238881D01*
X104805799Y-48387716D01*
X105053303Y-48490236D01*
X105316052Y-48542500D01*
X105583948Y-48542500D01*
X105846697Y-48490236D01*
X106094201Y-48387716D01*
X106316949Y-48238881D01*
X106506381Y-48049449D01*
X106655216Y-47826701D01*
X106757736Y-47579197D01*
X106810000Y-47316448D01*
X106810000Y-47048552D01*
X106757736Y-46785803D01*
X106655216Y-46538299D01*
X106506381Y-46315551D01*
X106316949Y-46126119D01*
X106285000Y-46104771D01*
X106285000Y-45523518D01*
X106289040Y-45482500D01*
X106283496Y-45426209D01*
X106272918Y-45318811D01*
X106225172Y-45161413D01*
X106147636Y-45016354D01*
X106088969Y-44944868D01*
X106069439Y-44921070D01*
X106069437Y-44921068D01*
X106043291Y-44889209D01*
X106011432Y-44863063D01*
X105685000Y-44536632D01*
X105685000Y-44071836D01*
X105667130Y-43890399D01*
X105651842Y-43840000D01*
X110248158Y-43840000D01*
X110232870Y-43890399D01*
X110215000Y-44071836D01*
X110215000Y-44536632D01*
X109888574Y-44863059D01*
X109856710Y-44889209D01*
X109812695Y-44942842D01*
X109752364Y-45016355D01*
X109674828Y-45161414D01*
X109627082Y-45318812D01*
X109621135Y-45379191D01*
X109522729Y-45338430D01*
X109342089Y-45302498D01*
X109157911Y-45302498D01*
X108977271Y-45338430D01*
X108807111Y-45408912D01*
X108653972Y-45511236D01*
X108523738Y-45641470D01*
X108421414Y-45794609D01*
X108350932Y-45964769D01*
X108315000Y-46145409D01*
X108315000Y-46329587D01*
X108350932Y-46510227D01*
X108415000Y-46664902D01*
X108415001Y-49178811D01*
X108391414Y-49214111D01*
X108320932Y-49384271D01*
X108285000Y-49564911D01*
X108285000Y-49749089D01*
X108320932Y-49929729D01*
X108391414Y-50099889D01*
X108493738Y-50253028D01*
X108623972Y-50383262D01*
X108777111Y-50485586D01*
X108947271Y-50556068D01*
X109127911Y-50592000D01*
X109312089Y-50592000D01*
X109492729Y-50556068D01*
X109662889Y-50485586D01*
X109816028Y-50383262D01*
X109946262Y-50253028D01*
X110048586Y-50099889D01*
X110119068Y-49929729D01*
X110155000Y-49749089D01*
X110155000Y-49564911D01*
X110119068Y-49384271D01*
X110085000Y-49302023D01*
X110085000Y-48496541D01*
X110316052Y-48542500D01*
X110583948Y-48542500D01*
X110846697Y-48490236D01*
X111094201Y-48387716D01*
X111316949Y-48238881D01*
X111506381Y-48049449D01*
X111655216Y-47826701D01*
X111757736Y-47579197D01*
X111810000Y-47316448D01*
X111810000Y-47048552D01*
X111757736Y-46785803D01*
X111655216Y-46538299D01*
X111506381Y-46315551D01*
X111316949Y-46126119D01*
X111285000Y-46104771D01*
X111285000Y-46057224D01*
X111450000Y-46073475D01*
X111692102Y-46049630D01*
X111924901Y-45979011D01*
X112139449Y-45864333D01*
X112327502Y-45710002D01*
X112481833Y-45521949D01*
X112596511Y-45307401D01*
X112667130Y-45074601D01*
X112685000Y-44893164D01*
X112685000Y-44071835D01*
X112667130Y-43890398D01*
X112651842Y-43840000D01*
X114506147Y-43840000D01*
X114194727Y-44306072D01*
X113969712Y-44849308D01*
X113855000Y-45426003D01*
X113855000Y-46013997D01*
X113969712Y-46590692D01*
X114194727Y-47133928D01*
X114521399Y-47622826D01*
X114937174Y-48038601D01*
X115426072Y-48365273D01*
X115969308Y-48590288D01*
X116546003Y-48705000D01*
X117133997Y-48705000D01*
X117710692Y-48590288D01*
X118253928Y-48365273D01*
X118720001Y-48053852D01*
X118720000Y-63467721D01*
X118681091Y-63864545D01*
X118575220Y-64215206D01*
X118403257Y-64538623D01*
X118171748Y-64822482D01*
X117889514Y-65055965D01*
X117567304Y-65230184D01*
X117217385Y-65338502D01*
X116822557Y-65380000D01*
X99092279Y-65380000D01*
X98695455Y-65341091D01*
X98344794Y-65235220D01*
X98021377Y-65063257D01*
X97737518Y-64831748D01*
X97504035Y-64549514D01*
X97329816Y-64227304D01*
X97221498Y-63877385D01*
X97180000Y-63482557D01*
X97180000Y-49950000D01*
X97571928Y-49950000D01*
X97571928Y-51650000D01*
X97584188Y-51774482D01*
X97620498Y-51894180D01*
X97679463Y-52004494D01*
X97758815Y-52101185D01*
X97855506Y-52180537D01*
X97965820Y-52239502D01*
X98038380Y-52261513D01*
X97906525Y-52393368D01*
X97744010Y-52636589D01*
X97632068Y-52906842D01*
X97575000Y-53193740D01*
X97575000Y-53486260D01*
X97632068Y-53773158D01*
X97744010Y-54043411D01*
X97906525Y-54286632D01*
X98113368Y-54493475D01*
X98287760Y-54610000D01*
X98113368Y-54726525D01*
X97906525Y-54933368D01*
X97744010Y-55176589D01*
X97632068Y-55446842D01*
X97575000Y-55733740D01*
X97575000Y-56026260D01*
X97632068Y-56313158D01*
X97744010Y-56583411D01*
X97906525Y-56826632D01*
X98113368Y-57033475D01*
X98287760Y-57150000D01*
X98113368Y-57266525D01*
X97906525Y-57473368D01*
X97744010Y-57716589D01*
X97632068Y-57986842D01*
X97575000Y-58273740D01*
X97575000Y-58566260D01*
X97632068Y-58853158D01*
X97744010Y-59123411D01*
X97906525Y-59366632D01*
X98113368Y-59573475D01*
X98287760Y-59690000D01*
X98113368Y-59806525D01*
X97906525Y-60013368D01*
X97744010Y-60256589D01*
X97632068Y-60526842D01*
X97575000Y-60813740D01*
X97575000Y-61106260D01*
X97632068Y-61393158D01*
X97744010Y-61663411D01*
X97906525Y-61906632D01*
X98113368Y-62113475D01*
X98287760Y-62230000D01*
X98113368Y-62346525D01*
X97906525Y-62553368D01*
X97744010Y-62796589D01*
X97632068Y-63066842D01*
X97575000Y-63353740D01*
X97575000Y-63646260D01*
X97632068Y-63933158D01*
X97744010Y-64203411D01*
X97906525Y-64446632D01*
X98113368Y-64653475D01*
X98356589Y-64815990D01*
X98626842Y-64927932D01*
X98913740Y-64985000D01*
X99206260Y-64985000D01*
X99493158Y-64927932D01*
X99763411Y-64815990D01*
X100006632Y-64653475D01*
X100213475Y-64446632D01*
X100375990Y-64203411D01*
X100487932Y-63933158D01*
X100545000Y-63646260D01*
X100545000Y-63353740D01*
X100487932Y-63066842D01*
X100375990Y-62796589D01*
X100278043Y-62650000D01*
X115351928Y-62650000D01*
X115351928Y-64350000D01*
X115364188Y-64474482D01*
X115400498Y-64594180D01*
X115459463Y-64704494D01*
X115538815Y-64801185D01*
X115635506Y-64880537D01*
X115745820Y-64939502D01*
X115865518Y-64975812D01*
X115990000Y-64988072D01*
X117690000Y-64988072D01*
X117814482Y-64975812D01*
X117934180Y-64939502D01*
X118044494Y-64880537D01*
X118141185Y-64801185D01*
X118220537Y-64704494D01*
X118279502Y-64594180D01*
X118315812Y-64474482D01*
X118328072Y-64350000D01*
X118328072Y-62650000D01*
X118315812Y-62525518D01*
X118279502Y-62405820D01*
X118220537Y-62295506D01*
X118141185Y-62198815D01*
X118044494Y-62119463D01*
X117934180Y-62060498D01*
X117861620Y-62038487D01*
X117993475Y-61906632D01*
X118155990Y-61663411D01*
X118267932Y-61393158D01*
X118325000Y-61106260D01*
X118325000Y-60813740D01*
X118267932Y-60526842D01*
X118155990Y-60256589D01*
X117993475Y-60013368D01*
X117786632Y-59806525D01*
X117612240Y-59690000D01*
X117786632Y-59573475D01*
X117993475Y-59366632D01*
X118155990Y-59123411D01*
X118267932Y-58853158D01*
X118325000Y-58566260D01*
X118325000Y-58273740D01*
X118267932Y-57986842D01*
X118155990Y-57716589D01*
X117993475Y-57473368D01*
X117786632Y-57266525D01*
X117612240Y-57150000D01*
X117786632Y-57033475D01*
X117993475Y-56826632D01*
X118155990Y-56583411D01*
X118267932Y-56313158D01*
X118325000Y-56026260D01*
X118325000Y-55733740D01*
X118267932Y-55446842D01*
X118155990Y-55176589D01*
X117993475Y-54933368D01*
X117786632Y-54726525D01*
X117604466Y-54604805D01*
X117721355Y-54535178D01*
X117937588Y-54340269D01*
X118111641Y-54106920D01*
X118236825Y-53844099D01*
X118281476Y-53696890D01*
X118160155Y-53467000D01*
X116967000Y-53467000D01*
X116967000Y-53487000D01*
X116713000Y-53487000D01*
X116713000Y-53467000D01*
X115519845Y-53467000D01*
X115398524Y-53696890D01*
X115443175Y-53844099D01*
X115568359Y-54106920D01*
X115742412Y-54340269D01*
X115958645Y-54535178D01*
X116075534Y-54604805D01*
X115893368Y-54726525D01*
X115686525Y-54933368D01*
X115524010Y-55176589D01*
X115412068Y-55446842D01*
X115355000Y-55733740D01*
X115355000Y-56026260D01*
X115412068Y-56313158D01*
X115524010Y-56583411D01*
X115686525Y-56826632D01*
X115893368Y-57033475D01*
X116067760Y-57150000D01*
X115893368Y-57266525D01*
X115686525Y-57473368D01*
X115524010Y-57716589D01*
X115412068Y-57986842D01*
X115355000Y-58273740D01*
X115355000Y-58566260D01*
X115412068Y-58853158D01*
X115524010Y-59123411D01*
X115686525Y-59366632D01*
X115893368Y-59573475D01*
X116067760Y-59690000D01*
X115893368Y-59806525D01*
X115686525Y-60013368D01*
X115524010Y-60256589D01*
X115412068Y-60526842D01*
X115355000Y-60813740D01*
X115355000Y-61106260D01*
X115412068Y-61393158D01*
X115524010Y-61663411D01*
X115686525Y-61906632D01*
X115818380Y-62038487D01*
X115745820Y-62060498D01*
X115635506Y-62119463D01*
X115538815Y-62198815D01*
X115459463Y-62295506D01*
X115400498Y-62405820D01*
X115364188Y-62525518D01*
X115351928Y-62650000D01*
X100278043Y-62650000D01*
X100213475Y-62553368D01*
X100006632Y-62346525D01*
X99832240Y-62230000D01*
X100006632Y-62113475D01*
X100213475Y-61906632D01*
X100375990Y-61663411D01*
X100487932Y-61393158D01*
X100545000Y-61106260D01*
X100545000Y-60813740D01*
X100487932Y-60526842D01*
X100375990Y-60256589D01*
X100213475Y-60013368D01*
X100006632Y-59806525D01*
X99832240Y-59690000D01*
X100006632Y-59573475D01*
X100213475Y-59366632D01*
X100375990Y-59123411D01*
X100487932Y-58853158D01*
X100545000Y-58566260D01*
X100545000Y-58273740D01*
X100487932Y-57986842D01*
X100375990Y-57716589D01*
X100213475Y-57473368D01*
X100006632Y-57266525D01*
X99832240Y-57150000D01*
X100006632Y-57033475D01*
X100213475Y-56826632D01*
X100375990Y-56583411D01*
X100487932Y-56313158D01*
X100545000Y-56026260D01*
X100545000Y-55820500D01*
X106161928Y-55820500D01*
X106161928Y-56320500D01*
X106164336Y-56344950D01*
X106164336Y-56369509D01*
X106176596Y-56493990D01*
X106195718Y-56590123D01*
X106232027Y-56709819D01*
X106269536Y-56800375D01*
X106328502Y-56910692D01*
X106382958Y-56992191D01*
X106462310Y-57088882D01*
X106531618Y-57158190D01*
X106628309Y-57237542D01*
X106709808Y-57291998D01*
X106820125Y-57350964D01*
X106910681Y-57388473D01*
X107030377Y-57424782D01*
X107126510Y-57443904D01*
X107250991Y-57456164D01*
X107275550Y-57456164D01*
X107300000Y-57458572D01*
X107800000Y-57458572D01*
X107924482Y-57446312D01*
X107950000Y-57438571D01*
X107975518Y-57446312D01*
X108100000Y-57458572D01*
X108600000Y-57458572D01*
X108624450Y-57456164D01*
X108649009Y-57456164D01*
X108773490Y-57443904D01*
X108869623Y-57424782D01*
X108989319Y-57388473D01*
X109079875Y-57350964D01*
X109190192Y-57291998D01*
X109271691Y-57237542D01*
X109368382Y-57158190D01*
X109437690Y-57088882D01*
X109517042Y-56992191D01*
X109571498Y-56910692D01*
X109630464Y-56800375D01*
X109667973Y-56709819D01*
X109704282Y-56590123D01*
X109723404Y-56493990D01*
X109735664Y-56369509D01*
X109735664Y-56344950D01*
X109738072Y-56320500D01*
X109738072Y-55820500D01*
X109735664Y-55796050D01*
X109735664Y-55771491D01*
X109723404Y-55647010D01*
X109704282Y-55550877D01*
X109667973Y-55431181D01*
X109630464Y-55340625D01*
X109571498Y-55230308D01*
X109517042Y-55148809D01*
X109437690Y-55052118D01*
X109368382Y-54982810D01*
X109271691Y-54903458D01*
X109190192Y-54849002D01*
X109079875Y-54790036D01*
X108989319Y-54752527D01*
X108869623Y-54716218D01*
X108773490Y-54697096D01*
X108649009Y-54684836D01*
X108624450Y-54684836D01*
X108600000Y-54682428D01*
X108100000Y-54682428D01*
X107975518Y-54694688D01*
X107950000Y-54702429D01*
X107924482Y-54694688D01*
X107800000Y-54682428D01*
X107300000Y-54682428D01*
X107275550Y-54684836D01*
X107250991Y-54684836D01*
X107126510Y-54697096D01*
X107030377Y-54716218D01*
X106910681Y-54752527D01*
X106820125Y-54790036D01*
X106709808Y-54849002D01*
X106628309Y-54903458D01*
X106531618Y-54982810D01*
X106462310Y-55052118D01*
X106382958Y-55148809D01*
X106328502Y-55230308D01*
X106269536Y-55340625D01*
X106232027Y-55431181D01*
X106195718Y-55550877D01*
X106176596Y-55647010D01*
X106164336Y-55771491D01*
X106164336Y-55796050D01*
X106161928Y-55820500D01*
X100545000Y-55820500D01*
X100545000Y-55733740D01*
X100487932Y-55446842D01*
X100375990Y-55176589D01*
X100213475Y-54933368D01*
X100006632Y-54726525D01*
X99832240Y-54610000D01*
X100006632Y-54493475D01*
X100213475Y-54286632D01*
X100375990Y-54043411D01*
X100487932Y-53773158D01*
X100545000Y-53486260D01*
X100545000Y-53193740D01*
X100487932Y-52906842D01*
X100375990Y-52636589D01*
X100339515Y-52582000D01*
X106161928Y-52582000D01*
X106161928Y-53082000D01*
X106164336Y-53106450D01*
X106164336Y-53131009D01*
X106176596Y-53255490D01*
X106195718Y-53351623D01*
X106232027Y-53471319D01*
X106269536Y-53561875D01*
X106328502Y-53672192D01*
X106382958Y-53753691D01*
X106462310Y-53850382D01*
X106531618Y-53919690D01*
X106628309Y-53999042D01*
X106709808Y-54053498D01*
X106820125Y-54112464D01*
X106910681Y-54149973D01*
X107030377Y-54186282D01*
X107126510Y-54205404D01*
X107250991Y-54217664D01*
X107275550Y-54217664D01*
X107300000Y-54220072D01*
X107800000Y-54220072D01*
X107924482Y-54207812D01*
X107950000Y-54200071D01*
X107975518Y-54207812D01*
X108100000Y-54220072D01*
X108600000Y-54220072D01*
X108624450Y-54217664D01*
X108649009Y-54217664D01*
X108773490Y-54205404D01*
X108869623Y-54186282D01*
X108989319Y-54149973D01*
X109079875Y-54112464D01*
X109190192Y-54053498D01*
X109271691Y-53999042D01*
X109368382Y-53919690D01*
X109437690Y-53850382D01*
X109517042Y-53753691D01*
X109571498Y-53672192D01*
X109630464Y-53561875D01*
X109667973Y-53471319D01*
X109704282Y-53351623D01*
X109723404Y-53255490D01*
X109735664Y-53131009D01*
X109735664Y-53106450D01*
X109738072Y-53082000D01*
X109738072Y-52582000D01*
X109735664Y-52557550D01*
X109735664Y-52532991D01*
X109723404Y-52408510D01*
X109704282Y-52312377D01*
X109667973Y-52192681D01*
X109630464Y-52102125D01*
X109571498Y-51991808D01*
X109517042Y-51910309D01*
X109437690Y-51813618D01*
X109368382Y-51744310D01*
X109271691Y-51664958D01*
X109190192Y-51610502D01*
X109079875Y-51551536D01*
X108989319Y-51514027D01*
X108869623Y-51477718D01*
X108773490Y-51458596D01*
X108649009Y-51446336D01*
X108624450Y-51446336D01*
X108600000Y-51443928D01*
X108100000Y-51443928D01*
X107975518Y-51456188D01*
X107950000Y-51463929D01*
X107924482Y-51456188D01*
X107800000Y-51443928D01*
X107300000Y-51443928D01*
X107275550Y-51446336D01*
X107250991Y-51446336D01*
X107126510Y-51458596D01*
X107030377Y-51477718D01*
X106910681Y-51514027D01*
X106820125Y-51551536D01*
X106709808Y-51610502D01*
X106628309Y-51664958D01*
X106531618Y-51744310D01*
X106462310Y-51813618D01*
X106382958Y-51910309D01*
X106328502Y-51991808D01*
X106269536Y-52102125D01*
X106232027Y-52192681D01*
X106195718Y-52312377D01*
X106176596Y-52408510D01*
X106164336Y-52532991D01*
X106164336Y-52557550D01*
X106161928Y-52582000D01*
X100339515Y-52582000D01*
X100213475Y-52393368D01*
X100081620Y-52261513D01*
X100154180Y-52239502D01*
X100264494Y-52180537D01*
X100361185Y-52101185D01*
X100440537Y-52004494D01*
X100499502Y-51894180D01*
X100535812Y-51774482D01*
X100548072Y-51650000D01*
X100548072Y-50653740D01*
X115355000Y-50653740D01*
X115355000Y-50946260D01*
X115412068Y-51233158D01*
X115524010Y-51503411D01*
X115686525Y-51746632D01*
X115893368Y-51953475D01*
X116075534Y-52075195D01*
X115958645Y-52144822D01*
X115742412Y-52339731D01*
X115568359Y-52573080D01*
X115443175Y-52835901D01*
X115398524Y-52983110D01*
X115519845Y-53213000D01*
X116713000Y-53213000D01*
X116713000Y-53193000D01*
X116967000Y-53193000D01*
X116967000Y-53213000D01*
X118160155Y-53213000D01*
X118281476Y-52983110D01*
X118236825Y-52835901D01*
X118111641Y-52573080D01*
X117937588Y-52339731D01*
X117721355Y-52144822D01*
X117604466Y-52075195D01*
X117786632Y-51953475D01*
X117993475Y-51746632D01*
X118155990Y-51503411D01*
X118267932Y-51233158D01*
X118325000Y-50946260D01*
X118325000Y-50653740D01*
X118267932Y-50366842D01*
X118155990Y-50096589D01*
X117993475Y-49853368D01*
X117786632Y-49646525D01*
X117543411Y-49484010D01*
X117273158Y-49372068D01*
X116986260Y-49315000D01*
X116693740Y-49315000D01*
X116406842Y-49372068D01*
X116136589Y-49484010D01*
X115893368Y-49646525D01*
X115686525Y-49853368D01*
X115524010Y-50096589D01*
X115412068Y-50366842D01*
X115355000Y-50653740D01*
X100548072Y-50653740D01*
X100548072Y-49950000D01*
X100535812Y-49825518D01*
X100499502Y-49705820D01*
X100440537Y-49595506D01*
X100361185Y-49498815D01*
X100264494Y-49419463D01*
X100154180Y-49360498D01*
X100034482Y-49324188D01*
X99910000Y-49311928D01*
X98210000Y-49311928D01*
X98085518Y-49324188D01*
X97965820Y-49360498D01*
X97855506Y-49419463D01*
X97758815Y-49498815D01*
X97679463Y-49595506D01*
X97620498Y-49705820D01*
X97584188Y-49825518D01*
X97571928Y-49950000D01*
X97180000Y-49950000D01*
X97180000Y-48053853D01*
X97646072Y-48365273D01*
X98189308Y-48590288D01*
X98766003Y-48705000D01*
X99353997Y-48705000D01*
X99930692Y-48590288D01*
X100473928Y-48365273D01*
X100962826Y-48038601D01*
X101378601Y-47622826D01*
X101705273Y-47133928D01*
X101930288Y-46590692D01*
X102045000Y-46013997D01*
X102045000Y-45426003D01*
X101930288Y-44849308D01*
X101705273Y-44306072D01*
X101393853Y-43840000D01*
X103248158Y-43840000D01*
X103232870Y-43890398D01*
G37*
X103232870Y-43890398D02*
X103215000Y-44071835D01*
X103215000Y-44893164D01*
X103232870Y-45074601D01*
X103303489Y-45307400D01*
X103418167Y-45521948D01*
X103572498Y-45710002D01*
X103760551Y-45864333D01*
X103975099Y-45979011D01*
X104207898Y-46049630D01*
X104450000Y-46073475D01*
X104615001Y-46057224D01*
X104615001Y-46104771D01*
X104583051Y-46126119D01*
X104393619Y-46315551D01*
X104244784Y-46538299D01*
X104142264Y-46785803D01*
X104090000Y-47048552D01*
X104090000Y-47316448D01*
X104142264Y-47579197D01*
X104244784Y-47826701D01*
X104393619Y-48049449D01*
X104583051Y-48238881D01*
X104805799Y-48387716D01*
X105053303Y-48490236D01*
X105316052Y-48542500D01*
X105583948Y-48542500D01*
X105846697Y-48490236D01*
X106094201Y-48387716D01*
X106316949Y-48238881D01*
X106506381Y-48049449D01*
X106655216Y-47826701D01*
X106757736Y-47579197D01*
X106810000Y-47316448D01*
X106810000Y-47048552D01*
X106757736Y-46785803D01*
X106655216Y-46538299D01*
X106506381Y-46315551D01*
X106316949Y-46126119D01*
X106285000Y-46104771D01*
X106285000Y-45523518D01*
X106289040Y-45482500D01*
X106283496Y-45426209D01*
X106272918Y-45318811D01*
X106225172Y-45161413D01*
X106147636Y-45016354D01*
X106088969Y-44944868D01*
X106069439Y-44921070D01*
X106069437Y-44921068D01*
X106043291Y-44889209D01*
X106011432Y-44863063D01*
X105685000Y-44536632D01*
X105685000Y-44071836D01*
X105667130Y-43890399D01*
X105651842Y-43840000D01*
X110248158Y-43840000D01*
X110232870Y-43890399D01*
X110215000Y-44071836D01*
X110215000Y-44536632D01*
X109888574Y-44863059D01*
X109856710Y-44889209D01*
X109812695Y-44942842D01*
X109752364Y-45016355D01*
X109674828Y-45161414D01*
X109627082Y-45318812D01*
X109621135Y-45379191D01*
X109522729Y-45338430D01*
X109342089Y-45302498D01*
X109157911Y-45302498D01*
X108977271Y-45338430D01*
X108807111Y-45408912D01*
X108653972Y-45511236D01*
X108523738Y-45641470D01*
X108421414Y-45794609D01*
X108350932Y-45964769D01*
X108315000Y-46145409D01*
X108315000Y-46329587D01*
X108350932Y-46510227D01*
X108415000Y-46664902D01*
X108415001Y-49178811D01*
X108391414Y-49214111D01*
X108320932Y-49384271D01*
X108285000Y-49564911D01*
X108285000Y-49749089D01*
X108320932Y-49929729D01*
X108391414Y-50099889D01*
X108493738Y-50253028D01*
X108623972Y-50383262D01*
X108777111Y-50485586D01*
X108947271Y-50556068D01*
X109127911Y-50592000D01*
X109312089Y-50592000D01*
X109492729Y-50556068D01*
X109662889Y-50485586D01*
X109816028Y-50383262D01*
X109946262Y-50253028D01*
X110048586Y-50099889D01*
X110119068Y-49929729D01*
X110155000Y-49749089D01*
X110155000Y-49564911D01*
X110119068Y-49384271D01*
X110085000Y-49302023D01*
X110085000Y-48496541D01*
X110316052Y-48542500D01*
X110583948Y-48542500D01*
X110846697Y-48490236D01*
X111094201Y-48387716D01*
X111316949Y-48238881D01*
X111506381Y-48049449D01*
X111655216Y-47826701D01*
X111757736Y-47579197D01*
X111810000Y-47316448D01*
X111810000Y-47048552D01*
X111757736Y-46785803D01*
X111655216Y-46538299D01*
X111506381Y-46315551D01*
X111316949Y-46126119D01*
X111285000Y-46104771D01*
X111285000Y-46057224D01*
X111450000Y-46073475D01*
X111692102Y-46049630D01*
X111924901Y-45979011D01*
X112139449Y-45864333D01*
X112327502Y-45710002D01*
X112481833Y-45521949D01*
X112596511Y-45307401D01*
X112667130Y-45074601D01*
X112685000Y-44893164D01*
X112685000Y-44071835D01*
X112667130Y-43890398D01*
X112651842Y-43840000D01*
X114506147Y-43840000D01*
X114194727Y-44306072D01*
X113969712Y-44849308D01*
X113855000Y-45426003D01*
X113855000Y-46013997D01*
X113969712Y-46590692D01*
X114194727Y-47133928D01*
X114521399Y-47622826D01*
X114937174Y-48038601D01*
X115426072Y-48365273D01*
X115969308Y-48590288D01*
X116546003Y-48705000D01*
X117133997Y-48705000D01*
X117710692Y-48590288D01*
X118253928Y-48365273D01*
X118720001Y-48053852D01*
X118720000Y-63467721D01*
X118681091Y-63864545D01*
X118575220Y-64215206D01*
X118403257Y-64538623D01*
X118171748Y-64822482D01*
X117889514Y-65055965D01*
X117567304Y-65230184D01*
X117217385Y-65338502D01*
X116822557Y-65380000D01*
X99092279Y-65380000D01*
X98695455Y-65341091D01*
X98344794Y-65235220D01*
X98021377Y-65063257D01*
X97737518Y-64831748D01*
X97504035Y-64549514D01*
X97329816Y-64227304D01*
X97221498Y-63877385D01*
X97180000Y-63482557D01*
X97180000Y-49950000D01*
X97571928Y-49950000D01*
X97571928Y-51650000D01*
X97584188Y-51774482D01*
X97620498Y-51894180D01*
X97679463Y-52004494D01*
X97758815Y-52101185D01*
X97855506Y-52180537D01*
X97965820Y-52239502D01*
X98038380Y-52261513D01*
X97906525Y-52393368D01*
X97744010Y-52636589D01*
X97632068Y-52906842D01*
X97575000Y-53193740D01*
X97575000Y-53486260D01*
X97632068Y-53773158D01*
X97744010Y-54043411D01*
X97906525Y-54286632D01*
X98113368Y-54493475D01*
X98287760Y-54610000D01*
X98113368Y-54726525D01*
X97906525Y-54933368D01*
X97744010Y-55176589D01*
X97632068Y-55446842D01*
X97575000Y-55733740D01*
X97575000Y-56026260D01*
X97632068Y-56313158D01*
X97744010Y-56583411D01*
X97906525Y-56826632D01*
X98113368Y-57033475D01*
X98287760Y-57150000D01*
X98113368Y-57266525D01*
X97906525Y-57473368D01*
X97744010Y-57716589D01*
X97632068Y-57986842D01*
X97575000Y-58273740D01*
X97575000Y-58566260D01*
X97632068Y-58853158D01*
X97744010Y-59123411D01*
X97906525Y-59366632D01*
X98113368Y-59573475D01*
X98287760Y-59690000D01*
X98113368Y-59806525D01*
X97906525Y-60013368D01*
X97744010Y-60256589D01*
X97632068Y-60526842D01*
X97575000Y-60813740D01*
X97575000Y-61106260D01*
X97632068Y-61393158D01*
X97744010Y-61663411D01*
X97906525Y-61906632D01*
X98113368Y-62113475D01*
X98287760Y-62230000D01*
X98113368Y-62346525D01*
X97906525Y-62553368D01*
X97744010Y-62796589D01*
X97632068Y-63066842D01*
X97575000Y-63353740D01*
X97575000Y-63646260D01*
X97632068Y-63933158D01*
X97744010Y-64203411D01*
X97906525Y-64446632D01*
X98113368Y-64653475D01*
X98356589Y-64815990D01*
X98626842Y-64927932D01*
X98913740Y-64985000D01*
X99206260Y-64985000D01*
X99493158Y-64927932D01*
X99763411Y-64815990D01*
X100006632Y-64653475D01*
X100213475Y-64446632D01*
X100375990Y-64203411D01*
X100487932Y-63933158D01*
X100545000Y-63646260D01*
X100545000Y-63353740D01*
X100487932Y-63066842D01*
X100375990Y-62796589D01*
X100278043Y-62650000D01*
X115351928Y-62650000D01*
X115351928Y-64350000D01*
X115364188Y-64474482D01*
X115400498Y-64594180D01*
X115459463Y-64704494D01*
X115538815Y-64801185D01*
X115635506Y-64880537D01*
X115745820Y-64939502D01*
X115865518Y-64975812D01*
X115990000Y-64988072D01*
X117690000Y-64988072D01*
X117814482Y-64975812D01*
X117934180Y-64939502D01*
X118044494Y-64880537D01*
X118141185Y-64801185D01*
X118220537Y-64704494D01*
X118279502Y-64594180D01*
X118315812Y-64474482D01*
X118328072Y-64350000D01*
X118328072Y-62650000D01*
X118315812Y-62525518D01*
X118279502Y-62405820D01*
X118220537Y-62295506D01*
X118141185Y-62198815D01*
X118044494Y-62119463D01*
X117934180Y-62060498D01*
X117861620Y-62038487D01*
X117993475Y-61906632D01*
X118155990Y-61663411D01*
X118267932Y-61393158D01*
X118325000Y-61106260D01*
X118325000Y-60813740D01*
X118267932Y-60526842D01*
X118155990Y-60256589D01*
X117993475Y-60013368D01*
X117786632Y-59806525D01*
X117612240Y-59690000D01*
X117786632Y-59573475D01*
X117993475Y-59366632D01*
X118155990Y-59123411D01*
X118267932Y-58853158D01*
X118325000Y-58566260D01*
X118325000Y-58273740D01*
X118267932Y-57986842D01*
X118155990Y-57716589D01*
X117993475Y-57473368D01*
X117786632Y-57266525D01*
X117612240Y-57150000D01*
X117786632Y-57033475D01*
X117993475Y-56826632D01*
X118155990Y-56583411D01*
X118267932Y-56313158D01*
X118325000Y-56026260D01*
X118325000Y-55733740D01*
X118267932Y-55446842D01*
X118155990Y-55176589D01*
X117993475Y-54933368D01*
X117786632Y-54726525D01*
X117604466Y-54604805D01*
X117721355Y-54535178D01*
X117937588Y-54340269D01*
X118111641Y-54106920D01*
X118236825Y-53844099D01*
X118281476Y-53696890D01*
X118160155Y-53467000D01*
X116967000Y-53467000D01*
X116967000Y-53487000D01*
X116713000Y-53487000D01*
X116713000Y-53467000D01*
X115519845Y-53467000D01*
X115398524Y-53696890D01*
X115443175Y-53844099D01*
X115568359Y-54106920D01*
X115742412Y-54340269D01*
X115958645Y-54535178D01*
X116075534Y-54604805D01*
X115893368Y-54726525D01*
X115686525Y-54933368D01*
X115524010Y-55176589D01*
X115412068Y-55446842D01*
X115355000Y-55733740D01*
X115355000Y-56026260D01*
X115412068Y-56313158D01*
X115524010Y-56583411D01*
X115686525Y-56826632D01*
X115893368Y-57033475D01*
X116067760Y-57150000D01*
X115893368Y-57266525D01*
X115686525Y-57473368D01*
X115524010Y-57716589D01*
X115412068Y-57986842D01*
X115355000Y-58273740D01*
X115355000Y-58566260D01*
X115412068Y-58853158D01*
X115524010Y-59123411D01*
X115686525Y-59366632D01*
X115893368Y-59573475D01*
X116067760Y-59690000D01*
X115893368Y-59806525D01*
X115686525Y-60013368D01*
X115524010Y-60256589D01*
X115412068Y-60526842D01*
X115355000Y-60813740D01*
X115355000Y-61106260D01*
X115412068Y-61393158D01*
X115524010Y-61663411D01*
X115686525Y-61906632D01*
X115818380Y-62038487D01*
X115745820Y-62060498D01*
X115635506Y-62119463D01*
X115538815Y-62198815D01*
X115459463Y-62295506D01*
X115400498Y-62405820D01*
X115364188Y-62525518D01*
X115351928Y-62650000D01*
X100278043Y-62650000D01*
X100213475Y-62553368D01*
X100006632Y-62346525D01*
X99832240Y-62230000D01*
X100006632Y-62113475D01*
X100213475Y-61906632D01*
X100375990Y-61663411D01*
X100487932Y-61393158D01*
X100545000Y-61106260D01*
X100545000Y-60813740D01*
X100487932Y-60526842D01*
X100375990Y-60256589D01*
X100213475Y-60013368D01*
X100006632Y-59806525D01*
X99832240Y-59690000D01*
X100006632Y-59573475D01*
X100213475Y-59366632D01*
X100375990Y-59123411D01*
X100487932Y-58853158D01*
X100545000Y-58566260D01*
X100545000Y-58273740D01*
X100487932Y-57986842D01*
X100375990Y-57716589D01*
X100213475Y-57473368D01*
X100006632Y-57266525D01*
X99832240Y-57150000D01*
X100006632Y-57033475D01*
X100213475Y-56826632D01*
X100375990Y-56583411D01*
X100487932Y-56313158D01*
X100545000Y-56026260D01*
X100545000Y-55820500D01*
X106161928Y-55820500D01*
X106161928Y-56320500D01*
X106164336Y-56344950D01*
X106164336Y-56369509D01*
X106176596Y-56493990D01*
X106195718Y-56590123D01*
X106232027Y-56709819D01*
X106269536Y-56800375D01*
X106328502Y-56910692D01*
X106382958Y-56992191D01*
X106462310Y-57088882D01*
X106531618Y-57158190D01*
X106628309Y-57237542D01*
X106709808Y-57291998D01*
X106820125Y-57350964D01*
X106910681Y-57388473D01*
X107030377Y-57424782D01*
X107126510Y-57443904D01*
X107250991Y-57456164D01*
X107275550Y-57456164D01*
X107300000Y-57458572D01*
X107800000Y-57458572D01*
X107924482Y-57446312D01*
X107950000Y-57438571D01*
X107975518Y-57446312D01*
X108100000Y-57458572D01*
X108600000Y-57458572D01*
X108624450Y-57456164D01*
X108649009Y-57456164D01*
X108773490Y-57443904D01*
X108869623Y-57424782D01*
X108989319Y-57388473D01*
X109079875Y-57350964D01*
X109190192Y-57291998D01*
X109271691Y-57237542D01*
X109368382Y-57158190D01*
X109437690Y-57088882D01*
X109517042Y-56992191D01*
X109571498Y-56910692D01*
X109630464Y-56800375D01*
X109667973Y-56709819D01*
X109704282Y-56590123D01*
X109723404Y-56493990D01*
X109735664Y-56369509D01*
X109735664Y-56344950D01*
X109738072Y-56320500D01*
X109738072Y-55820500D01*
X109735664Y-55796050D01*
X109735664Y-55771491D01*
X109723404Y-55647010D01*
X109704282Y-55550877D01*
X109667973Y-55431181D01*
X109630464Y-55340625D01*
X109571498Y-55230308D01*
X109517042Y-55148809D01*
X109437690Y-55052118D01*
X109368382Y-54982810D01*
X109271691Y-54903458D01*
X109190192Y-54849002D01*
X109079875Y-54790036D01*
X108989319Y-54752527D01*
X108869623Y-54716218D01*
X108773490Y-54697096D01*
X108649009Y-54684836D01*
X108624450Y-54684836D01*
X108600000Y-54682428D01*
X108100000Y-54682428D01*
X107975518Y-54694688D01*
X107950000Y-54702429D01*
X107924482Y-54694688D01*
X107800000Y-54682428D01*
X107300000Y-54682428D01*
X107275550Y-54684836D01*
X107250991Y-54684836D01*
X107126510Y-54697096D01*
X107030377Y-54716218D01*
X106910681Y-54752527D01*
X106820125Y-54790036D01*
X106709808Y-54849002D01*
X106628309Y-54903458D01*
X106531618Y-54982810D01*
X106462310Y-55052118D01*
X106382958Y-55148809D01*
X106328502Y-55230308D01*
X106269536Y-55340625D01*
X106232027Y-55431181D01*
X106195718Y-55550877D01*
X106176596Y-55647010D01*
X106164336Y-55771491D01*
X106164336Y-55796050D01*
X106161928Y-55820500D01*
X100545000Y-55820500D01*
X100545000Y-55733740D01*
X100487932Y-55446842D01*
X100375990Y-55176589D01*
X100213475Y-54933368D01*
X100006632Y-54726525D01*
X99832240Y-54610000D01*
X100006632Y-54493475D01*
X100213475Y-54286632D01*
X100375990Y-54043411D01*
X100487932Y-53773158D01*
X100545000Y-53486260D01*
X100545000Y-53193740D01*
X100487932Y-52906842D01*
X100375990Y-52636589D01*
X100339515Y-52582000D01*
X106161928Y-52582000D01*
X106161928Y-53082000D01*
X106164336Y-53106450D01*
X106164336Y-53131009D01*
X106176596Y-53255490D01*
X106195718Y-53351623D01*
X106232027Y-53471319D01*
X106269536Y-53561875D01*
X106328502Y-53672192D01*
X106382958Y-53753691D01*
X106462310Y-53850382D01*
X106531618Y-53919690D01*
X106628309Y-53999042D01*
X106709808Y-54053498D01*
X106820125Y-54112464D01*
X106910681Y-54149973D01*
X107030377Y-54186282D01*
X107126510Y-54205404D01*
X107250991Y-54217664D01*
X107275550Y-54217664D01*
X107300000Y-54220072D01*
X107800000Y-54220072D01*
X107924482Y-54207812D01*
X107950000Y-54200071D01*
X107975518Y-54207812D01*
X108100000Y-54220072D01*
X108600000Y-54220072D01*
X108624450Y-54217664D01*
X108649009Y-54217664D01*
X108773490Y-54205404D01*
X108869623Y-54186282D01*
X108989319Y-54149973D01*
X109079875Y-54112464D01*
X109190192Y-54053498D01*
X109271691Y-53999042D01*
X109368382Y-53919690D01*
X109437690Y-53850382D01*
X109517042Y-53753691D01*
X109571498Y-53672192D01*
X109630464Y-53561875D01*
X109667973Y-53471319D01*
X109704282Y-53351623D01*
X109723404Y-53255490D01*
X109735664Y-53131009D01*
X109735664Y-53106450D01*
X109738072Y-53082000D01*
X109738072Y-52582000D01*
X109735664Y-52557550D01*
X109735664Y-52532991D01*
X109723404Y-52408510D01*
X109704282Y-52312377D01*
X109667973Y-52192681D01*
X109630464Y-52102125D01*
X109571498Y-51991808D01*
X109517042Y-51910309D01*
X109437690Y-51813618D01*
X109368382Y-51744310D01*
X109271691Y-51664958D01*
X109190192Y-51610502D01*
X109079875Y-51551536D01*
X108989319Y-51514027D01*
X108869623Y-51477718D01*
X108773490Y-51458596D01*
X108649009Y-51446336D01*
X108624450Y-51446336D01*
X108600000Y-51443928D01*
X108100000Y-51443928D01*
X107975518Y-51456188D01*
X107950000Y-51463929D01*
X107924482Y-51456188D01*
X107800000Y-51443928D01*
X107300000Y-51443928D01*
X107275550Y-51446336D01*
X107250991Y-51446336D01*
X107126510Y-51458596D01*
X107030377Y-51477718D01*
X106910681Y-51514027D01*
X106820125Y-51551536D01*
X106709808Y-51610502D01*
X106628309Y-51664958D01*
X106531618Y-51744310D01*
X106462310Y-51813618D01*
X106382958Y-51910309D01*
X106328502Y-51991808D01*
X106269536Y-52102125D01*
X106232027Y-52192681D01*
X106195718Y-52312377D01*
X106176596Y-52408510D01*
X106164336Y-52532991D01*
X106164336Y-52557550D01*
X106161928Y-52582000D01*
X100339515Y-52582000D01*
X100213475Y-52393368D01*
X100081620Y-52261513D01*
X100154180Y-52239502D01*
X100264494Y-52180537D01*
X100361185Y-52101185D01*
X100440537Y-52004494D01*
X100499502Y-51894180D01*
X100535812Y-51774482D01*
X100548072Y-51650000D01*
X100548072Y-50653740D01*
X115355000Y-50653740D01*
X115355000Y-50946260D01*
X115412068Y-51233158D01*
X115524010Y-51503411D01*
X115686525Y-51746632D01*
X115893368Y-51953475D01*
X116075534Y-52075195D01*
X115958645Y-52144822D01*
X115742412Y-52339731D01*
X115568359Y-52573080D01*
X115443175Y-52835901D01*
X115398524Y-52983110D01*
X115519845Y-53213000D01*
X116713000Y-53213000D01*
X116713000Y-53193000D01*
X116967000Y-53193000D01*
X116967000Y-53213000D01*
X118160155Y-53213000D01*
X118281476Y-52983110D01*
X118236825Y-52835901D01*
X118111641Y-52573080D01*
X117937588Y-52339731D01*
X117721355Y-52144822D01*
X117604466Y-52075195D01*
X117786632Y-51953475D01*
X117993475Y-51746632D01*
X118155990Y-51503411D01*
X118267932Y-51233158D01*
X118325000Y-50946260D01*
X118325000Y-50653740D01*
X118267932Y-50366842D01*
X118155990Y-50096589D01*
X117993475Y-49853368D01*
X117786632Y-49646525D01*
X117543411Y-49484010D01*
X117273158Y-49372068D01*
X116986260Y-49315000D01*
X116693740Y-49315000D01*
X116406842Y-49372068D01*
X116136589Y-49484010D01*
X115893368Y-49646525D01*
X115686525Y-49853368D01*
X115524010Y-50096589D01*
X115412068Y-50366842D01*
X115355000Y-50653740D01*
X100548072Y-50653740D01*
X100548072Y-49950000D01*
X100535812Y-49825518D01*
X100499502Y-49705820D01*
X100440537Y-49595506D01*
X100361185Y-49498815D01*
X100264494Y-49419463D01*
X100154180Y-49360498D01*
X100034482Y-49324188D01*
X99910000Y-49311928D01*
X98210000Y-49311928D01*
X98085518Y-49324188D01*
X97965820Y-49360498D01*
X97855506Y-49419463D01*
X97758815Y-49498815D01*
X97679463Y-49595506D01*
X97620498Y-49705820D01*
X97584188Y-49825518D01*
X97571928Y-49950000D01*
X97180000Y-49950000D01*
X97180000Y-48053853D01*
X97646072Y-48365273D01*
X98189308Y-48590288D01*
X98766003Y-48705000D01*
X99353997Y-48705000D01*
X99930692Y-48590288D01*
X100473928Y-48365273D01*
X100962826Y-48038601D01*
X101378601Y-47622826D01*
X101705273Y-47133928D01*
X101930288Y-46590692D01*
X102045000Y-46013997D01*
X102045000Y-45426003D01*
X101930288Y-44849308D01*
X101705273Y-44306072D01*
X101393853Y-43840000D01*
X103248158Y-43840000D01*
X103232870Y-43890398D01*
G04 #@! TD*
M02*
